<?xml version="1.0" standalone="no"?>
<!DOCTYPE svg PUBLIC "-//W3C//DTD SVG 1.1//EN" "http://www.w3.org/Graphics/SVG/1.1/DTD/svg11.dtd" >
<svg>
<metadata>
Created by FontForge 20090914 at Wed Mar 20 22:52:54 2019
 By www-data
Copyright &#194;&#169; 2000 Adobe Systems Incorporated. All Rights Reserved. U.S. Patent Des. pending.
</metadata>
<defs>
<font id="MyriadPro-It" horiz-adv-x="383" >
  <font-face 
    font-family="Myriad Pro"
    font-weight="400"
    font-style="italic"
    font-stretch="normal"
    units-per-em="1000"
    panose-1="2 11 5 3 3 4 3 9 2 4"
    ascent="750"
    descent="-250"
    x-height="483.999"
    cap-height="674"
    bbox="-112 -250 1090 873"
    underline-thickness="50"
    underline-position="-150"
    slope="-11"
    unicode-range="U+0020-U+FB04"
  />
<missing-glyph horiz-adv-x="500" 
d="M0 0v700h500v-700h-500zM250 395l170 255h-340zM280 350l170 -255v510zM80 50h340l-170 255zM50 605v-510l170 255z" />
    <glyph glyph-name="f_f_j" unicode="ffj" horiz-adv-x="756" 
d="M756 694l-26 -65c-28 14.667 -60 22 -96 22c-76 0 -122 -48.333 -138 -145l-4 -22h260l-92 -482c-14.667 -80 -35.334 -134.667 -62.001 -164c-27.333 -31.333 -64.333 -47 -111 -47c-23.333 0 -41.333 2 -54 6l10 65c8 -2.66699 20.667 -4 38 -4
c22.667 0 41.834 9.16699 57.501 27.5s27.834 51.166 36.501 98.499l82 435h-177l-79 -419h-83l79 419h-195l-80 -419h-82l79 419h-64l12 65h65l4 23c12.667 66 36.667 117 72 153c33.333 33.333 75 50 125 50c28.667 0 53.667 -7 75 -21l-30 -63
c-14.667 10 -31.334 15 -50.001 15c-25.333 0 -46.333 -8.33301 -63 -25c-21.333 -21.333 -37 -58.666 -47 -111.999l-4 -20h196l4 24c12.667 66.667 39 118.667 79 156s91 56 153 56c22 0 43.667 -2.66699 65 -8s36.333 -11.333 45 -18z" />
    <glyph glyph-name="f_j" unicode="fj" horiz-adv-x="478" 
d="M478 694l-25.999 -64.999c-28 14.667 -60 22 -96 22c-76 0 -122 -48.333 -138 -145l-4 -22h260l-92 -482c-14.667 -80 -35.334 -134.667 -62.001 -164c-27.333 -31.333 -64.333 -47 -111 -47c-23.333 0 -41.333 2 -54 6l10 65c7.33301 -2.66699 20 -4 38 -4
c22.667 0 41.667 9.16699 57 27.5s27.333 51.166 36 98.499l83 435h-177l-79 -419h-83l79 419h-64l12 65h65l4 24c12.667 66.667 39 118.667 79 156s91 56 153 56c22 0 43.667 -2.66699 65 -8s36.333 -11.333 45 -18z" />
    <glyph glyph-name="ff" unicode="ff" horiz-adv-x="561" 
d="M676 708l-18.001 -66c-12.667 6 -29 9 -49 9c-58 0 -95.333 -48 -112 -144l-4 -23h108l-13 -65h-108l-79 -419h-83l80 419h-196l-79 -419h-83l79 419h-64l12 65h65l4 21c14 72 38 125 72 159c32 30.667 71.333 46 118 46c24 0 44.667 -4.66699 62 -14l-25 -65
c-11.333 6.66699 -24.666 10 -39.999 10c-53.333 0 -88.333 -46.333 -105 -139l-4 -18h197l4 26c14 76.667 40.333 132.667 79 168c32 28.667 70.667 43 116 43c30.667 0 52.667 -4.33301 66 -13z" />
    <glyph glyph-name="fi" unicode="fi" horiz-adv-x="499" 
d="M123 0h-83l79 419h-64l12 65h65l4 24c12.667 66.667 39 118.667 79 156s91 56 153 56c49.333 0 86 -8.66699 110 -26l-26 -65c-28 14.667 -60 22 -96 22c-76 0 -122 -48.333 -138 -145l-4 -22h260l-92 -484h-83l79 419h-176z" />
    <glyph glyph-name="fl" unicode="fl" horiz-adv-x="499" 
d="M123 0h-83l79 419h-64l13 65h64l4 21c14.667 76 46 132.667 94 170c40 30.667 90 46 150 46c56 0 100.333 -10.333 133 -31l-131 -690h-83l122 640c-14 8.66699 -35.333 13 -64 13c-38 0 -68.5 -13 -91.5 -39s-38.5 -60.667 -46.5 -104l-5 -26h103l-13 -65h-102z" />
    <glyph glyph-name="ffi" unicode="ffi" horiz-adv-x="777" 
d="M756 694l-25.999 -65.001c-26.667 14.667 -58.667 22 -96 22c-76 0 -122 -48 -138 -144l-4 -23h260l-93 -484h-82l79 419h-176l-79 -419h-83l79 419h-195l-80 -419h-82l79 419h-64l12 65h65l4 23c12.667 66 36.667 117 72 153c33.333 33.333 75 50 125 50
c30 0 54.667 -7 74 -21l-29 -63c-14.667 10 -31.334 15 -50.001 15c-25.333 0 -46.333 -8.33301 -63 -25c-21.333 -21.333 -37 -58.666 -47 -111.999l-4 -20h196l4 24c12.667 66.667 39 118.667 79 156s91 56 153 56c22 0 43.667 -2.66699 65 -8s36.333 -11.333 45 -18z" />
    <glyph glyph-name="ffl" unicode="ffl" horiz-adv-x="777" 
d="M411 690l-29.999 -63c-14.667 9.33301 -31.667 14 -51 14c-25.333 0 -46.666 -8.66699 -63.999 -26c-23.333 -23.333 -39.333 -60.333 -48 -111l-4 -20h196l4 21c13.333 74.667 44.666 131.334 93.999 170.001c40 30.667 90 46 150 46c56 0 100.333 -10.333 133 -31
l-131 -690h-83l122 640c-14 8.66699 -35.333 13 -64 13c-38 0 -68.5 -13 -91.5 -39s-38.5 -60.667 -46.5 -104l-5 -26h103l-13 -65h-102l-79 -419h-83l79 419h-195l-80 -419h-82l79 419h-64l12 65h65l4 22c11.333 65.333 35.666 116.666 72.999 153.999
c32 33.333 73.667 50 125 50c27.333 0 53 -6.66699 77 -20z" />
    <glyph glyph-name=".notdef" horiz-adv-x="500" 
d="M0 0v700h500v-700h-500zM250 395l170 255h-340zM280 350l170 -255v510zM80 50h340l-170 255zM50 605v-510l170 255z" />
    <glyph glyph-name="space" unicode=" " horiz-adv-x="182" 
 />
    <glyph glyph-name="space" unicode="&#xa0;" horiz-adv-x="182" 
 />
    <glyph glyph-name="exclam" unicode="!" horiz-adv-x="236" 
d="M142 194h-66l79 480h94zM78 -11l-1 0.000976562c-16 0 -29 5.66699 -39 17s-15 25 -15 41c0 18.667 5.83301 34.5 17.5 47.5s26.5 19.5 44.5 19.5c16.667 0 30.167 -5.66699 40.5 -17s15.5 -25.333 15.5 -42c0 -18.667 -6 -34.334 -18 -47.001s-27 -19 -45 -19z" />
    <glyph glyph-name="quotedbl" unicode="&#x22;" horiz-adv-x="304" 
d="M121 692h87l-62 -242h-55zM271 692h86l-62 -242h-55z" />
    <glyph glyph-name="numbersign" unicode="#" horiz-adv-x="492" 
d="M193 254h91l45 147h-90zM114 0h-58l60 197h-82l10 57h91l46 147h-87l10 57h94l60 192h58l-60 -192h91l60 192h58l-60 -192h82l-10 -57h-90l-45 -147h86l-10 -57h-95l-60 -197h-59l61 197h-90z" />
    <glyph glyph-name="dollar" unicode="$" horiz-adv-x="492" 
d="M211 -85h-61.001l19 100c-23.333 0.666992 -47.5 5.5 -72.5 14.5s-44.5 18.833 -58.5 29.5l27 65c41.333 -28.667 86 -43 134 -43c36.667 0 67.5 10.333 92.5 31s37.5 47.334 37.5 80.001c0 45.333 -28 82.666 -84 111.999c-86 44.667 -129 98 -129 160
c0 44.667 16.667 83.667 50 117s75.333 52.333 126 57l19 97h61l-19 -97c46.667 -2 83 -13.333 109 -34l-28 -62c-37.333 21.333 -75.666 32 -114.999 32c-34.667 0 -62.5 -9.33301 -83.5 -28s-31.5 -42 -31.5 -70c0 -22 7 -40.667 21 -56s39.333 -33 76 -53
c77.333 -42.667 116 -95.667 116 -159c0 -54 -17.5 -98 -52.5 -132s-79.833 -54.333 -134.5 -61z" />
    <glyph glyph-name="percent" unicode="%" horiz-adv-x="773" 
d="M256 661l1 0.000976562c38.667 0 68.167 -13.167 88.5 -39.5s30.5 -58.5 30.5 -96.5c0 -72.667 -17.333 -134.5 -52 -185.5s-78.667 -76.5 -132 -76.5c-38 0 -68 13 -90 39s-33 60.667 -33 104c0 65.333 17.5 124.166 52.5 176.499s79.833 78.5 134.5 78.5zM247 608.001
h-0.999023c-31.333 0 -57.333 -21.667 -78 -65s-31 -89.333 -31 -138c0 -59.333 21 -89 63 -89c31.333 0 57.166 22 77.499 66s30.5 90.333 30.5 139c0 58 -20.333 87 -61 87zM186.001 -11.999h-60l490 674h60zM617.001 392.001h0.999023c38.667 0 68.167 -13 88.5 -39
s30.5 -57.667 30.5 -95c0 -73.333 -17.333 -135.833 -52 -187.5s-78.667 -77.5 -132 -77.5c-37.333 0 -67 13.167 -89 39.5s-33 61.5 -33 105.5c0 66 17.333 124.833 52 176.5s79.334 77.5 134.001 77.5zM608 339.001l-1 0.000976562c-20.667 0 -39.5 -10.833 -56.5 -32.5
s-29.833 -47.834 -38.5 -78.501s-13 -61.334 -13 -92.001c0 -60 21 -90 63 -90c31.333 0 57 22.333 77 67s30 91.334 30 140.001c0 57.333 -20.333 86 -61 86z" />
    <glyph glyph-name="ampersand" unicode="&#x26;" horiz-adv-x="589" 
d="M533 0h-98.001c-14.667 16.667 -30 37.334 -46 62.001c-53.333 -48.667 -116.666 -73 -189.999 -73c-56 0 -100.333 16 -133 48s-49 72 -49 120c0 48.667 15.833 91.5 47.5 128.5s71.5 66.833 119.5 89.5v3c-24.667 44 -37 85 -37 123c0 50.667 17 94 51 130
s76.667 54 128 54c43.333 0 76.833 -12.667 100.5 -38s35.5 -57 35.5 -95c0 -76.667 -57.667 -142 -173 -196v-3c34.667 -58.667 75 -121 121 -187c38 47.333 72 114.666 102 201.999h78c-38.667 -112.667 -86 -198 -142 -256c32 -44.667 60.333 -82 85 -112zM220.999 54
h1.00098c50 0 94 20 132 60c-70 102.667 -116.667 173.667 -140 213c-75.333 -46 -113 -98.333 -113 -157c0 -33.333 10.667 -61 32 -83s50.666 -33 87.999 -33zM318 626h-1c-26 0 -48 -11.167 -66 -33.5s-27 -49.833 -27 -82.5c0 -37.333 10.667 -73 32 -107
c86 41.333 129 90.333 129 147c0 22 -5.5 40.167 -16.5 54.5s-27.833 21.5 -50.5 21.5z" />
    <glyph glyph-name="quotesingle" unicode="'" horiz-adv-x="166" 
d="M128 692h86l-62 -242h-54z" />
    <glyph glyph-name="parenleft" unicode="(" horiz-adv-x="284" 
d="M279 691l71.001 0.000976562c-60.667 -68.667 -110.834 -148.334 -150.501 -239.001s-59.5 -189 -59.5 -295c0 -96.667 18.333 -188.667 55 -276h-63c-42.667 85.333 -64 178 -64 278c0 108.667 20.5 208.5 61.5 299.5s90.833 168.5 149.5 232.5z" />
    <glyph glyph-name="parenright" unicode=")" horiz-adv-x="284" 
d="M25 -119h-71.001c60.667 69.333 110.834 149.5 150.501 240.5s59.5 189.5 59.5 295.5c0 96.667 -18.333 188 -55 274h64c42 -82.667 63 -174.667 63 -276c0 -108.667 -20.5 -208.667 -61.5 -300s-90.833 -169.333 -149.5 -234z" />
    <glyph glyph-name="asterisk" unicode="*" horiz-adv-x="414" 
d="M338 685l57 -35l-110 -123l1 -2l152 19l-14 -67l-143 18l-1 -3l82 -120l-64 -36l-48 140h-2l-79 -141l-53 37l109 121v3l-150 -19l13 67l140 -19v3l-79 122l64 34l48 -138h2z" />
    <glyph glyph-name="plus" unicode="+" horiz-adv-x="596" 
d="M274 532h62v-235h219v-59h-219v-238h-62v238h-219v59h219v235z" />
    <glyph glyph-name="comma" unicode="," horiz-adv-x="211" 
d="M21 -117l-64 -7.00098c43.333 84 76 164 98 240l99 10c-17.333 -41.333 -39.333 -86.166 -66 -134.499s-49 -84.5 -67 -108.5z" />
    <glyph glyph-name="hyphen" unicode="-" horiz-adv-x="307" 
d="M48 302h239l-12 -64h-239z" />
    <glyph glyph-name="hyphen" unicode="&#xad;" horiz-adv-x="307" 
d="M48 302h239l-12 -64h-239z" />
    <glyph glyph-name="period" unicode="." horiz-adv-x="211" 
d="M77 -10h-1c-16 0 -29.167 5.66699 -39.5 17s-15.5 25.333 -15.5 42c0 18.667 6 34.5 18 47.5s27 19.5 45 19.5c16.667 0 30.167 -5.66699 40.5 -17s15.5 -25.666 15.5 -42.999c0 -18.667 -6 -34.334 -18 -47.001s-27 -19 -45 -19z" />
    <glyph glyph-name="slash" unicode="/" horiz-adv-x="326" 
d="M13 -40h-67l402 725h68z" />
    <glyph glyph-name="zero" unicode="0" horiz-adv-x="492" 
d="M207 -11h-1c-56.667 0 -98 20.333 -124 61s-39 94.667 -39 162c0 73.333 11.5 144 34.5 212s56.667 124.5 101 169.5s93.833 67.5 148.5 67.5c39.333 0 71.5 -10.333 96.5 -31s42 -45.5 51 -74.5s13.5 -61.833 13.5 -98.5c0 -74 -10.5 -146 -31.5 -216
s-53.5 -129.5 -97.5 -178.5s-94.667 -73.5 -152 -73.5zM216 56l1.00098 0.00195312c38 0 72 24.5 102 73.5s51.833 103 65.5 162s20.5 112.5 20.5 160.5c0 94.667 -29 142 -87 142c-35.333 0 -68.333 -21.333 -99 -64s-53.834 -93.334 -69.501 -152.001
s-23.5 -115.334 -23.5 -170.001c0 -101.333 30 -152 90 -152z" />
    <glyph glyph-name="one" unicode="1" horiz-adv-x="492" 
d="M181 0l108 566h-2l-111 -56l-9 66l147 74h71l-124 -650h-80z" />
    <glyph glyph-name="two" unicode="2" horiz-adv-x="492" 
d="M393 0l-392.999 0.00195312l10 55l97 81c97.333 82 167.666 149.167 210.999 201.5s65 103.5 65 153.5c0 27.333 -8.16699 50.666 -24.5 69.999s-41.833 29 -76.5 29c-44.667 0 -89.334 -15.667 -134.001 -47l-21 60c51.333 38.667 109 58 173 58
c56.667 0 99 -15.5 127 -46.5s42 -68.5 42 -112.5c0 -33.333 -6.83301 -66.333 -20.5 -99s-34.667 -65.667 -63 -99s-57.166 -63.833 -86.499 -91.5s-66.333 -59.834 -111 -96.501l-55 -43v-2h273z" />
    <glyph glyph-name="three" unicode="3" horiz-adv-x="492" 
d="M16 30l28.001 66.001c40 -24 81.667 -36 125 -36c52 0 92 14.5 120 43.5s42 62.167 42 99.5c0 38.667 -13 67.5 -39 86.5s-59.333 28.5 -100 28.5h-33l13 65h33c22 0 44.833 4.33301 68.5 13s45 23 64 43s28.5 43.333 28.5 70c0 25.333 -7.66699 45.166 -23 59.499
s-38.333 21.5 -69 21.5c-47.333 0 -88.333 -12 -123 -36l-18 63c48 29.333 99.667 44 155 44c52 0 92.667 -13.5 122 -40.5s44 -60.167 44 -99.5c0 -40.667 -14 -76 -42 -106s-62 -50.667 -102 -62v-2c34.667 -8 61.5 -25.5 80.5 -52.5s28.5 -58.5 28.5 -94.5
c0 -61.333 -24.333 -112.5 -73 -153.5s-108.667 -61.5 -180 -61.5c-32.667 0 -62.834 4.16699 -90.501 12.5s-47.5 17.833 -59.5 28.5z" />
    <glyph glyph-name="four" unicode="4" horiz-adv-x="492" 
d="M335 0h-78l34 181h-280l11 56l346 413h91l-77 -403h88l-13 -66h-88zM113 247h190.002l43 215l24 104h-3c-2.66699 -4.66699 -12.834 -20 -30.501 -46s-31.834 -46 -42.501 -60l-181 -211v-2z" />
    <glyph glyph-name="five" unicode="5" horiz-adv-x="492" 
d="M487 650l-14.001 -71.999h-223l-51 -165c14.667 1.33301 25.334 2 32.001 2c41.333 0 79.333 -10.333 114 -31c25.333 -14 44.5 -34 57.5 -60s19.5 -53.667 19.5 -83c0 -76 -26 -137 -78 -183s-115 -69 -189 -69c-29.333 0 -57 3.66699 -83 11s-45 15.666 -57 24.999
l26 66c32 -20.667 72.667 -31 122 -31c46.667 0 87.167 16 121.5 48s51.5 70.333 51.5 115c0 83.333 -52.333 125 -157 125c-14 0 -38.333 -1.33301 -73 -4l90 306h291z" />
    <glyph glyph-name="six" unicode="6" horiz-adv-x="492" 
d="M470 660l-12 -71c-18.667 1.33301 -38.667 -0.333984 -60 -5.00098c-58 -10 -110 -36 -156 -78s-80 -94.667 -102 -158l2 -1c19.333 24.667 43.5 44.5 72.5 59.5s58.167 22.5 87.5 22.5c49.333 0 87.833 -16.667 115.5 -50s41.5 -75.666 41.5 -126.999
c0 -66.667 -23 -127.167 -69 -181.5s-102.667 -81.5 -170 -81.5c-60 0 -105.833 19.667 -137.5 59s-47.5 91 -47.5 155c0 71.333 16 139.5 48 204.5s70.667 116.167 116 153.5c63.333 53.333 135 85 215 95c15.333 2.66699 34 4 56 4zM225 56l1.00098 0.000976562
c41.333 0 76.166 19.833 104.499 59.5s42.5 83.5 42.5 131.5c0 37.333 -9 66 -27 86s-43.333 30 -76 30c-25.333 0 -50.333 -8 -75 -24s-45.334 -37.667 -62.001 -65c-6.66699 -10.667 -10.667 -21 -12 -31c-2.66699 -20 -4 -37.333 -4 -52
c0 -40.667 9.33301 -73.334 28 -98.001s45.334 -37 80.001 -37z" />
    <glyph glyph-name="seven" unicode="7" horiz-adv-x="492" 
d="M134 650h389l-11 -58l-377 -592h-92l375 577l-1 2h-297z" />
    <glyph glyph-name="eight" unicode="8" horiz-adv-x="492" 
d="M314 661l1.00098 0.000976562c48 0 87.333 -13.333 118 -40s46 -62.334 46 -107.001c0 -73.333 -42.333 -129.666 -127 -168.999l-1 -3c64 -34.667 96 -86 96 -154c0 -60.667 -22.833 -109 -68.5 -145s-98.834 -54 -159.501 -54c-60 0 -107.5 15 -142.5 45
s-52.5 68.667 -52.5 116c0 46.667 14.333 86.667 43 120s65 58.666 109 75.999l1 3c-48 34 -72 76.667 -72 128c0 52 20.5 95.667 61.5 131s90.167 53 147.5 53zM224.001 52.001l1 -0.000976562c38.667 0 71 12 97 36s39 55 39 93c0 61.333 -38 105.333 -114 132
c-38 -10 -70.167 -28.167 -96.5 -54.5s-39.5 -59.166 -39.5 -98.499c0 -30 9.83301 -55.5 29.5 -76.5s47.5 -31.5 83.5 -31.5zM303.001 598l-1 0.000976562c-32.667 0 -60.167 -11.333 -82.5 -34s-33.5 -49.667 -33.5 -81c0 -50.667 31.667 -87.334 95 -110.001
c34 11.333 61.833 28.5 83.5 51.5s32.5 49.5 32.5 79.5c0 26 -7.5 48.167 -22.5 66.5s-38.833 27.5 -71.5 27.5z" />
    <glyph glyph-name="nine" unicode="9" horiz-adv-x="492" 
d="M56 -10l9.99805 71.0029c13.333 -0.666992 34 0.666016 62 3.99902c49.333 7.33301 95.333 28.666 138 63.999c52.667 42 92.334 99.333 119.001 172h-3c-40.667 -46.667 -90 -70 -148 -70c-50.667 0 -89.667 16.5 -117 49.5s-41 72.5 -41 118.5
c0 68 23.667 128.667 71 182s104 80 170 80c58 0 101.667 -19.167 131 -57.5s44 -87.5 44 -147.5c0 -74.667 -17.167 -146.334 -51.5 -215.001s-73.166 -121.667 -116.499 -159c-57.333 -48 -122.333 -77 -195 -87c-30 -4 -54.333 -5.66699 -73 -5zM307.998 594.003
l-1 0.000976562c-39.333 0 -73.5 -18.833 -102.5 -56.5s-43.5 -80.5 -43.5 -128.5c0 -34 8.5 -61.333 25.5 -82s41.167 -31 72.5 -31c54 0 97 25 129 75c6.66699 9.33301 11 18.666 13 27.999c4.66699 20 7 42.333 7 67c0 85.333 -33.333 128 -100 128z" />
    <glyph glyph-name="colon" unicode=":" horiz-adv-x="211" 
d="M143 342l-1 0.000976562c-16 0 -29 5.66699 -39 17s-15 25 -15 41c0 18.667 5.83301 34.5 17.5 47.5s26.5 19.5 44.5 19.5c16.667 0 30.167 -5.5 40.5 -16.5s15.5 -25.167 15.5 -42.5c0 -18.667 -6 -34.334 -18 -47.001s-27 -19 -45 -19zM76 -10.999l-1 0.000976562
c-16 0 -29 5.66699 -39 17s-15 25 -15 41c0 18.667 5.83301 34.5 17.5 47.5s26.5 19.5 44.5 19.5c16.667 0 30.167 -5.5 40.5 -16.5s15.5 -25.167 15.5 -42.5c0 -18.667 -6 -34.334 -18 -47.001s-27 -19 -45 -19z" />
    <glyph glyph-name="semicolon" unicode=";" horiz-adv-x="211" 
d="M20 -117l-63 -7.00098c41.333 79.333 74 159.333 98 240l98 10c-18 -42 -40.167 -87.167 -66.5 -135.5s-48.5 -84.166 -66.5 -107.499zM148 341.999l-1 0.000976562c-16 0 -29 5.66699 -39 17s-15 25 -15 41c0 18.667 5.83301 34.5 17.5 47.5s26.5 19.5 44.5 19.5
c16.667 0 30.167 -5.5 40.5 -16.5s15.5 -25.167 15.5 -42.5c0 -18.667 -6 -34.334 -18 -47.001s-27 -19 -45 -19z" />
    <glyph glyph-name="less" unicode="&#x3c;" horiz-adv-x="596" 
d="M78 239v54l448 239v-68l-375 -197v-2l375 -197v-68z" />
    <glyph glyph-name="equal" unicode="=" horiz-adv-x="596" 
d="M556 338h-500v59h500v-59zM556 141h-500v59h500v-59z" />
    <glyph glyph-name="greater" unicode="&#x3e;" horiz-adv-x="596" 
d="M541 294v-56l-448 -238v68l378 197v2l-378 197v68z" />
    <glyph glyph-name="question" unicode="?" horiz-adv-x="384" 
d="M208 192l-81.002 -0.000976562c0.666992 3.33301 1.33398 7.66602 2.00098 12.999s1 9.66602 1 12.999c5.33301 58 37.666 118.667 96.999 182c19.333 20 34 36 44 48s19.667 27.167 29 45.5s14 35.833 14 52.5c0 20 -6 36.667 -18 50s-31.333 20 -58 20
c-37.333 0 -70.666 -9.33301 -99.999 -28l-16 61c40.667 24.667 86.334 37 137.001 37c45.333 0 80.166 -12.333 104.499 -37s36.5 -54 36.5 -88c0 -35.333 -9.16699 -67.666 -27.5 -96.999s-45.5 -62.666 -81.5 -99.999c-46 -48 -72.333 -96 -79 -144
c-1.33301 -13.333 -2.66602 -22.666 -3.99902 -27.999zM136.998 -11.001l-1 0.000976562c-16 0 -29 5.66699 -39 17s-15 25 -15 41c0 18.667 5.83301 34.5 17.5 47.5s26.5 19.5 44.5 19.5c16.667 0 30.167 -5.66699 40.5 -17s15.5 -25.333 15.5 -42
c0 -18.667 -6 -34.334 -18 -47.001s-27 -19 -45 -19z" />
    <glyph glyph-name="at" unicode="@" horiz-adv-x="720" 
d="M440 255l21.001 112.001c-13.333 5.33301 -30 8 -50 8c-44 0 -81.833 -17.833 -113.5 -53.5s-47.5 -77.834 -47.5 -126.501c0 -22.667 5.83301 -41 17.5 -55s28.167 -21 49.5 -21c27.333 0 53.166 14.333 77.499 43s39.5 59.667 45.5 93zM499.001 -20.999l16 -44.002
c-48 -26.667 -106.333 -40 -175 -40c-88 0 -160.833 28.5 -218.5 85.5s-86.5 132.833 -86.5 227.5c0 106.667 33.667 197.334 101 272.001s155 112 263 112c86.667 0 156.834 -27.167 210.501 -81.5s80.5 -123.5 80.5 -207.5c0 -72 -17.333 -129.667 -52 -173
s-76.667 -65 -126 -65c-22 0 -40 7.33301 -54 22s-20.667 36.667 -20 66h-3c-36 -58.667 -83.333 -88 -142 -88c-30 0 -55.5 11.5 -76.5 34.5s-31.5 53.5 -31.5 91.5c0 64 22.5 119.5 67.5 166.5s101.5 70.5 169.5 70.5c42 0 77.667 -7 107 -21l-33 -181
c-14.667 -73.333 -4.66699 -110.666 30 -111.999c27.333 -1.33301 52.166 15 74.499 49s33.5 78.333 33.5 133c0 74.667 -21.5 135 -64.5 181s-102.5 69 -178.5 69c-84 0 -155 -30.5 -213 -91.5s-87 -141.167 -87 -240.5c0 -82.667 23.833 -148.5 71.5 -197.5
s110.5 -73.5 188.5 -73.5c56.667 0 106 12 148 36z" />
    <glyph glyph-name="A" unicode="A" horiz-adv-x="568" 
d="M401 213h-233l-107 -213h-87l348 674h98l93 -674h-85zM199 279h196.001l-27 195c-0.666992 6.66699 -2.33398 25.167 -5.00098 55.5l-6 68.5h-3c-2 -4 -9.66699 -21.5 -23 -52.5s-24 -54.5 -32 -70.5z" />
    <glyph glyph-name="B" unicode="B" horiz-adv-x="519" 
d="M33 5l124.001 659.999c49.333 9.33301 97.666 14 144.999 14c70 0 121.667 -15.333 155 -46c32.667 -26.667 49 -61.667 49 -105c0 -41.333 -14 -77.166 -42 -107.499s-62.333 -50.833 -103 -61.5v-2c32 -9.33301 58.333 -27 79 -53s31 -58.333 31 -97
c0 -64.667 -26.667 -117 -80 -157c-49.333 -36.667 -122.333 -55 -219 -55c-58 0 -104.333 3.33301 -139 10zM229.001 606.999l-41.999 -219h62c49.333 0 90.166 12 122.499 36s48.5 56 48.5 96c0 62 -40.667 93 -122 93c-33.333 0 -56.333 -2 -69 -6zM174.002 324.999
l-48.001 -259c18.667 -2.66699 41.334 -4 68.001 -4c54 -0.666992 99.167 11.333 135.5 36s54.5 62.334 54.5 113.001c0 37.333 -13.5 65.666 -40.5 84.999s-60.833 29 -101.5 29h-68z" />
    <glyph glyph-name="C" unicode="C" horiz-adv-x="555" 
d="M486 90l10.999 -68c-48 -21.333 -106.333 -32 -175 -32c-84.667 0 -151.334 25 -200.001 75s-73 118 -73 204c0 64 12.5 124.667 37.5 182s60.167 105 105.5 143c71.333 60 156.333 90 255 90c33.333 0 63.333 -3.33301 90 -10s45.334 -14 56.001 -22l-27 -67
c-31.333 18.667 -75.666 28 -132.999 28c-74.667 0 -139 -25 -193 -75c-32 -30.667 -57.167 -68.5 -75.5 -113.5s-27.5 -92.833 -27.5 -143.5c0 -65.333 16.5 -118.333 49.5 -159s84.833 -61 155.5 -61c58.667 0 106.667 9.66699 144 29z" />
    <glyph glyph-name="D" unicode="D" horiz-adv-x="647" 
d="M33 4l125 661c54 9.33301 110 14 168 14c113.333 0 196 -30 248 -90c42 -43.333 63 -104.333 63 -183c0 -62 -11.833 -121.167 -35.5 -177.5s-56.834 -102.833 -99.501 -139.5c-75.333 -62.667 -177.333 -94 -306 -94c-65.333 0 -119.666 3 -162.999 9zM230 604
l-101.998 -535c24.667 -3.33301 53.667 -5 87 -5c103.333 0 183.666 29.667 240.999 89c61.333 62.667 92 145.667 92 249c0 139.333 -75.333 209 -226 209c-38.667 0 -69.334 -2.33301 -92.001 -7z" />
    <glyph glyph-name="E" unicode="E" horiz-adv-x="470" 
d="M433 387l-14 -70h-245l-46 -246h276l-14 -71h-359l128 674h344l-14 -71h-260l-41 -216h245z" />
    <glyph glyph-name="F" unicode="F" horiz-adv-x="465" 
d="M31 0l128 674h342l-14 -71h-258l-44 -227h238l-14 -70h-238l-57 -306h-83z" />
    <glyph glyph-name="G" unicode="G" horiz-adv-x="623" 
d="M588 352l-61 -323.001c-58.667 -24 -122 -36 -190 -36c-96.667 0 -170 28 -220 84c-45.333 50 -68 115.333 -68 196c0 57.333 11.333 113.5 34 168.5s55 101.5 97 139.5c77.333 66.667 170 100 278 100c70 0 123 -10.333 159 -31l-28 -70
c-38.667 19.333 -85.667 29 -141 29c-81.333 0 -151 -27.333 -209 -82c-31.333 -29.333 -56 -66.333 -74 -111s-27 -90 -27 -136c0 -67.333 17.667 -120.166 53 -158.499s89.333 -57.5 162 -57.5c40.667 0 74.667 6.33301 102 19l39 201h-137l13 68h218z" />
    <glyph glyph-name="H" unicode="H" horiz-adv-x="627" 
d="M159 674h83l-54 -284h310l54 284h83l-128 -674h-83l59 317h-309l-60 -317h-83z" />
    <glyph glyph-name="I" unicode="I" horiz-adv-x="233" 
d="M158 674h83l-128 -674h-83z" />
    <glyph glyph-name="J" unicode="J" horiz-adv-x="364" 
d="M210 220l86 454h83l-88 -464c-14.667 -78 -39.5 -134.333 -74.5 -169s-84.167 -52 -147.5 -52c-44 0 -77.333 6 -100 18l18 71c22 -10 50.333 -15 85 -15c37.333 0 66.833 11.667 88.5 35s38.167 64 49.5 122z" />
    <glyph glyph-name="K" unicode="K" horiz-adv-x="515" 
d="M31 0l128 674h82l-62 -328l4 1l67 75l237 252h104l-284 -290l173 -384h-90l-147 331l-81 -75l-49 -256h-82z" />
    <glyph glyph-name="L" unicode="L" horiz-adv-x="442" 
d="M31 0l128 674h83l-115 -602h272l-14 -72h-354z" />
    <glyph glyph-name="M" unicode="M" horiz-adv-x="780" 
d="M676 0l-79.998 -0.00195312l48 364c12.667 92 24.667 168 36 228h-3c-38 -83.333 -73 -155.666 -105 -216.999l-201 -371h-63l-50 363c-10 75.333 -17 150.333 -21 225h-3c-0.666992 -3.33301 -7.66699 -35.833 -21 -97.5s-23.333 -105.167 -30 -130.5l-92 -364h-78
l175 674h106l53 -387c9.33301 -74.667 14.666 -131 15.999 -169h3c21.333 50.667 47.666 106.334 78.999 167.001l208 389h109z" />
    <glyph glyph-name="N" unicode="N" horiz-adv-x="632" 
d="M109 0l-78 -0.000976562l128 674h91l154 -382c24 -61.333 43.667 -124 59 -188l2 1c4 60.667 13.667 131 29 211l68 358h78l-128 -674h-82l-154 381c-28 72.667 -48.667 137.334 -62 194.001l-3 -1c-6 -54.667 -17.667 -128.667 -35 -222z" />
    <glyph glyph-name="O" unicode="O" horiz-adv-x="668" 
d="M305 -11h-0.999023c-82.667 0 -146 26.5 -190 79.5s-66 117.833 -66 194.5c0 60.667 11.5 121 34.5 181s54.5 110 94.5 150c29.333 28.667 63.833 51 103.5 67s80.5 24 122.5 24c58 0 106.667 -13.333 146 -40s67.333 -60 84 -100s25 -85.333 25 -136
c0 -60.667 -10.833 -120.5 -32.5 -179.5s-51.834 -107.833 -90.501 -146.5c-64 -62.667 -140.667 -94 -230 -94zM315.001 59l1 -0.00390625c58 0 109.333 22.333 154 67c30.667 30.667 55 72.5 73 125.5s27 104.167 27 153.5c0 26.667 -2.5 51.334 -7.5 74.001
s-13.667 44.834 -26 66.501s-30.833 38.667 -55.5 51s-54.334 18.5 -89.001 18.5c-58 0 -109.333 -22.333 -154 -67c-31.333 -31.333 -56.166 -73.166 -74.499 -125.499s-27.5 -103.166 -27.5 -152.499c0 -60.667 14.5 -111 43.5 -151s74.167 -60 135.5 -60z" />
    <glyph glyph-name="P" unicode="P" horiz-adv-x="507" 
d="M31 0l126.999 664.999c43.333 9.33301 92 14 146 14c73.333 0 128.333 -17.333 165 -52c32.667 -29.333 49 -69.666 49 -120.999c0 -36 -7.66699 -69.333 -23 -100s-34.666 -55.667 -57.999 -75c-51.333 -43.333 -119.333 -65 -204 -65c-22.667 0 -45.667 1.66699 -69 5
l-51 -271h-82zM226.999 604.999l-50.001 -264c18.667 -4 41 -6 67 -6c56.667 0 102.5 15.5 137.5 46.5s52.5 70.5 52.5 118.5c0 38 -12.167 66.167 -36.5 84.5s-56.833 27.5 -97.5 27.5c-31.333 0 -55.666 -2.33301 -72.999 -7z" />
    <glyph glyph-name="Q" unicode="Q" horiz-adv-x="668" 
d="M589 -25l-32.001 -69.002c-112.667 26.667 -190.667 50.334 -234 71.001c-24.667 8.66699 -40 13 -46 13c-66 4 -120.667 30.333 -164 79s-65 113.667 -65 195c0 59.333 11 118.5 33 177.5s52.667 108.167 92 147.5c29.333 30 64.333 53.5 105 70.5
s82.334 25.5 125.001 25.5c85.333 0 149 -26.667 191 -80s63 -118.666 63 -195.999c0 -57.333 -10.333 -115.5 -31 -174.5s-49.667 -107.167 -87 -144.5c-39.333 -39.333 -82.333 -65.333 -129 -78v-3c74 -16 133.667 -27.333 179 -34zM311.999 58.998h1.00098
c58.667 0 110.334 21.667 155.001 65c31.333 31.333 56.166 74 74.499 128s27.5 105.667 27.5 155c0 24.667 -2.5 48 -7.5 70s-13.5 44 -25.5 66s-30.333 39.5 -55 52.5s-54.667 19.5 -90 19.5c-58.667 0 -109.334 -22 -152.001 -66c-32 -32 -57.333 -74.667 -76 -128
s-28 -104.333 -28 -153c0 -60 14.167 -109.833 42.5 -149.5s72.833 -59.5 133.5 -59.5z" />
    <glyph glyph-name="R" unicode="R" horiz-adv-x="523" 
d="M31 0l127 664.999c42.667 9.33301 91.667 14 147 14c72 0 125.667 -16.333 161 -49c33.333 -28 50 -65 50 -111c0 -47.333 -15.5 -88.666 -46.5 -123.999s-68.833 -59.333 -113.5 -72l-1 -2c44.667 -14.667 69.667 -59.667 75 -135c8 -105.333 15 -167.333 21 -186h-86
c-4.66699 16.667 -10 71 -16 163c-2.66699 46 -12.5 79.333 -29.5 100s-42.5 31 -76.5 31h-74l-55 -294h-83zM229 605.999l-47 -248.001h74c51.333 0 93 14.5 125 43.5s48 64.5 48 106.5c0 34.667 -11.833 60.834 -35.5 78.501s-55.167 26.5 -94.5 26.5
c-28 0 -51.333 -2.33301 -70 -7z" />
    <glyph glyph-name="S" unicode="S" horiz-adv-x="466" 
d="M12 37l30 68c41.333 -28.667 89 -43 143 -43c40 0 74.333 11.333 103 34s43 53.334 43 92.001c0 25.333 -7.66699 47.833 -23 67.5s-40.666 39.167 -75.999 58.5c-89.333 48 -134 105.667 -134 173c0 58.667 22 106.167 66 142.5s98 54.5 162 54.5
c58.667 0 104.667 -11.667 138 -35l-30 -68c-36 22 -74.667 32.667 -116 32c-40 0 -72.333 -11 -97 -33s-37 -47.667 -37 -77c0 -26 8.16699 -48.167 24.5 -66.5s43.166 -37.833 80.499 -58.5c43.333 -22.667 75.5 -48.334 96.5 -77.001s31.5 -63 31.5 -103
c0 -60 -22 -109.667 -66 -149s-103 -59 -177 -59c-33.333 0.666992 -65 5.5 -95 14.5s-52.333 19.833 -67 32.5z" />
    <glyph glyph-name="T" unicode="T" horiz-adv-x="474" 
d="M148 0l114 602h-197l14 72h478l-14 -72h-198l-114 -602h-83z" />
    <glyph glyph-name="U" unicode="U" horiz-adv-x="621" 
d="M158 674h83l-76 -399c-5.33301 -30 -8 -58.333 -8 -85c0 -42 11.167 -74.167 33.5 -96.5s52.833 -33.5 91.5 -33.5c98 0 160.667 71.333 188 214l77 400h83l-77 -403c-36.667 -188 -130.667 -282 -282 -282c-58.667 0 -106.167 16.5 -142.5 49.5
s-54.5 82.833 -54.5 149.5c0 30.667 3 61.667 9 93z" />
    <glyph glyph-name="V" unicode="V" horiz-adv-x="539" 
d="M259 0l-92.001 0.000976562l-83 674h85l49 -432c8 -78.667 12 -129.334 12 -152.001h3c22.667 56.667 47.334 111 74.001 163l215 421h91z" />
    <glyph glyph-name="W" unicode="W" horiz-adv-x="829" 
d="M219 0l-89 -0.000976562l-33 674h83l15 -404c1.33301 -59.333 1.33301 -117.666 0 -174.999h2c20 55.333 43 112 69 170l187 409h89l14 -388c2.66699 -80.667 3 -144 1 -190h2c22 63.333 44 121 66 173l182 405h87l-313 -674h-88l-17 383
c-3.33301 61.333 -2.66602 126 2.00098 194h-3c-26.667 -76.667 -49.334 -135.667 -68.001 -177z" />
    <glyph glyph-name="X" unicode="X" horiz-adv-x="521" 
d="M466 0l-87.999 0.000976562l-64 167c-18.667 46 -33 85.333 -43 118h-2c-32 -48.667 -58.333 -87.334 -79 -116.001l-121 -169h-99l263 343l-126 331h87l64 -173c17.333 -49.333 28.666 -83.333 33.999 -102h2l69 102l129 173h99l-260 -330z" />
    <glyph glyph-name="Y" unicode="Y" horiz-adv-x="517" 
d="M243 0h-81.999l53 280l-130 394h89l65 -218c13.333 -46 22.666 -83.667 27.999 -113h2l72 116l146 215h97l-287 -393z" />
    <glyph glyph-name="Z" unicode="Z" horiz-adv-x="523" 
d="M-20 0l9 51l458 549l-1 3h-320l14 71h432l-11 -53l-454 -547l1 -3h354l-13 -71h-469z" />
    <glyph glyph-name="bracketleft" unicode="[" horiz-adv-x="284" 
d="M194 -111h-175l152 797h175l-10 -54h-108l-131 -689h107z" />
    <glyph glyph-name="backslash" unicode="\" horiz-adv-x="329" 
d="M310 -40h-65l-184 725h65z" />
    <glyph glyph-name="bracketright" unicode="]" horiz-adv-x="284" 
d="M109 686h175l-152 -797h-175l10 54h108l131 689h-107z" />
    <glyph glyph-name="asciicircum" unicode="^" horiz-adv-x="596" 
d="M534 189h-68l-164 388h-2l-164 -388h-67l202 461l61 -1z" />
    <glyph glyph-name="underscore" unicode="_" horiz-adv-x="500" 
d="M-49 -75h500l-10 -50h-500z" />
    <glyph glyph-name="grave" unicode="`" 
d="M144 686h94l66 -143h-60z" />
    <glyph glyph-name="a" unicode="a" horiz-adv-x="522" 
d="M426 0h-76.999c0 22 3.66699 63.667 11 125h-2c-47.333 -90.667 -110 -136 -188 -136c-42 0 -75.667 15 -101 45s-38 68.333 -38 115c0 58 12.833 112.833 38.5 164.5s64.667 94.834 117 129.501s112.166 52 179.499 52c46 0 89.333 -6 130 -18l-50 -253
c-16 -82.667 -22.667 -157.334 -20 -224.001zM375.001 276l27.999 145.999c-14 4.66699 -33.333 7 -58 7c-61.333 0 -114.666 -27 -159.999 -81s-68 -115.333 -68 -184c0 -71.333 27.667 -107 83 -107c36 0 71.333 20.833 106 62.5s57.667 93.834 69 156.501z" />
    <glyph glyph-name="b" unicode="b" horiz-adv-x="525" 
d="M159 710h82.998l-64 -314h2c43.333 66 100 99 170 99c49.333 0 86 -17 110 -51s36 -75 36 -123c0 -52 -11.167 -102.667 -33.5 -152s-57.166 -91.666 -104.499 -126.999s-101.666 -53 -162.999 -53c-45.333 0 -81.5 10 -108.5 30s-40.5 51.333 -40.5 94
c0 23.333 3 48.666 9 75.999zM147.998 238l-11 -50.999c-4.66699 -20.667 -6.66699 -41.334 -6 -62.001c0 -47.333 26 -71 78 -71c58 0 106 27.833 144 83.5s57 113.5 57 173.5c0 32.667 -7.66699 60 -23 82s-38.333 33 -69 33c-36.667 0 -71.167 -17.333 -103.5 -52
s-54.5 -80 -66.5 -136z" />
    <glyph glyph-name="c" unicode="c" horiz-adv-x="423" 
d="M353 85l7.99902 -64.999c-38.667 -20 -85.334 -30 -140.001 -30c-60 0 -106 17.5 -138 52.5s-48 79.833 -48 134.5c0 85.333 28.167 159.666 84.5 222.999s126.833 95 211.5 95c42.667 0 76.334 -7.33301 101.001 -22l-24 -65c-25.333 12 -52.666 18 -81.999 18
c-60 0 -109.167 -24.5 -147.5 -73.5s-57.5 -103.833 -57.5 -164.5c0 -40 10.333 -71.667 31 -95s50.334 -35 89.001 -35c37.333 0 74.666 9 111.999 27z" />
    <glyph glyph-name="d" unicode="d" horiz-adv-x="525" 
d="M460 710h82.999l-107 -556c-10.667 -60 -17.334 -111.333 -20.001 -154h-76l13 96h-2c-45.333 -71.333 -103.666 -107 -174.999 -107c-45.333 0 -80.666 16.5 -105.999 49.5s-38 75.167 -38 126.5c0 88 28.833 165 86.5 231s128.5 99 212.5 99
c33.333 0 62 -5.66699 86 -17zM370.999 239l32.001 169c-18.667 14 -45 21 -79 21c-56.667 0 -105.167 -25.667 -145.5 -77s-60.5 -110 -60.5 -176c0 -34 7 -62.333 21 -85s37.333 -34 70 -34c33.333 0 66.166 17.167 98.499 51.5s53.5 77.833 63.5 130.5z" />
    <glyph glyph-name="e" unicode="e" horiz-adv-x="453" 
d="M365 90l12 -61.999c-45.333 -25.333 -98.666 -38 -159.999 -38c-60.667 0 -106.5 18 -137.5 54s-46.5 82.667 -46.5 140c0 49.333 10.833 97.666 32.5 144.999s53.167 86.833 94.5 118.5s87 47.5 137 47.5c44.667 0 79.5 -11.667 104.5 -35s37.5 -53.333 37.5 -90
c0 -108 -107.333 -160.333 -322 -157c-2 -10 -2.16699 -24.667 -0.5 -44s5.16699 -35 10.5 -47c18.667 -43.333 54.667 -65 108 -65c45.333 0 88.666 11 129.999 33zM359 368.001l0.000976562 1c0 19.333 -6.66699 34.333 -20 45s-31.333 16 -54 16
c-37.333 0 -70.333 -15.167 -99 -45.5s-48.334 -66.166 -59.001 -107.499c154.667 -2.66699 232 27.666 232 90.999z" />
    <glyph glyph-name="f" unicode="f" horiz-adv-x="283" 
d="M123 0h-83.001l79 419h-64l12 65h65l4 26c14 76.667 40.333 132.667 79 168c32 28.667 70.333 43 115 43c30 0 52.333 -4.33301 67 -13l-18 -66c-13.333 6 -29.666 9 -48.999 9c-58 0 -95.333 -48 -112 -144l-4 -23h108l-13 -65h-107z" />
    <glyph glyph-name="g" unicode="g" horiz-adv-x="524" 
d="M10 -175l22.999 64.999c32.667 -21.333 75.334 -32 128.001 -32c44 0 80.667 13.167 110 39.5s50.666 70.5 63.999 132.5l16 73h-2c-42.667 -68.667 -98.667 -103 -168 -103c-46.667 0 -83 16.5 -109 49.5s-39 72.5 -39 118.5c0 86.667 28.667 162.834 86 228.501
s131 98.5 221 98.5c56 0 108 -11.333 156 -34l-75 -400c-19.333 -104.667 -51.666 -177 -96.999 -217c-42 -35.333 -98.333 -53 -169 -53c-62.667 0 -111 11.333 -145 34zM373.999 250.999l31.001 161c-22.667 11.333 -49.334 17 -80.001 17
c-58 0 -106.667 -25.333 -146 -76s-59 -107.667 -59 -171c-0.666992 -32 6.16602 -59.333 20.499 -82s38.5 -34 72.5 -34c34.667 0 67.834 18.667 99.501 56s52.167 80.333 61.5 129z" />
    <glyph glyph-name="h" unicode="h" horiz-adv-x="534" 
d="M111 0h-83.002l135 710h83l-60 -311h2c44.667 64 102.334 96 173.001 96c32 0 60 -10.5 84 -31.5s36 -53.833 36 -98.5c0 -28.667 -2.66699 -55.667 -8 -81l-54 -284h-83l54 280c4 22.667 6 45 6 67c0 24 -6.16699 43.167 -18.5 57.5s-31.166 21.5 -56.499 21.5
c-33.333 0 -66.833 -17.5 -100.5 -52.5s-55.167 -78.5 -64.5 -130.5z" />
    <glyph glyph-name="i" unicode="i" horiz-adv-x="229" 
d="M111 0h-83l93 484h82zM184 566h-0.999023c-14 0 -25.333 4.83301 -34 14.5s-13 22.167 -13 37.5c0.666992 16 6.16699 29.333 16.5 40s23.166 16 38.499 16c14.667 0 26.5 -4.83301 35.5 -14.5s13.5 -22.167 13.5 -37.5c-0.666992 -16.667 -6.16699 -30.167 -16.5 -40.5
s-23.5 -15.5 -39.5 -15.5z" />
    <glyph glyph-name="j" unicode="j" horiz-adv-x="227" 
d="M125 484h83.001l-92 -483c-14.667 -79.333 -35.334 -133.666 -62.001 -162.999c-27.333 -31.333 -64.333 -47 -111 -47c-24 0 -42.333 2 -55 6l10 65c8 -2.66699 21 -4 39 -4c22.667 0 41.667 9.16699 57 27.5s27.333 51.166 36 98.499zM184.001 566h-0.999023
c-14 0 -25.333 4.83301 -34 14.5s-13 22.167 -13 37.5c0.666992 16 6.16699 29.333 16.5 40s23.166 16 38.499 16c14.667 0 26.5 -4.83301 35.5 -14.5s13.5 -22.167 13.5 -37.5c-0.666992 -16.667 -6.16699 -30.167 -16.5 -40.5s-23.5 -15.5 -39.5 -15.5z" />
    <glyph glyph-name="k" unicode="k" horiz-adv-x="456" 
d="M110 0l-82 0.000976562l135 710h83l-85 -446h2c2.66699 3.33301 17.667 19.666 45 48.999l170 171h103l-211 -200l144 -284h-91l-117 238l-61 -55z" />
    <glyph glyph-name="l" unicode="l" horiz-adv-x="229" 
d="M112 0h-83l135 710h83z" />
    <glyph glyph-name="m" unicode="m" horiz-adv-x="808" 
d="M109 0l-81.0039 0.000976562l65 343c8.66699 48.667 16 95.667 22 141h73l-13 -91h3c45.333 68 102 102 170 102c35.333 0 62.5 -9.83301 81.5 -29.5s29.5 -45.834 31.5 -78.501c43.333 70.667 102.333 106.667 177 108c32 0 59.667 -10.667 83 -32s35 -53 35 -95
c0 -26 -2.66699 -53.333 -8 -82l-54 -286h-81l52 279c4.66699 22 7 43 7 63c0 56 -24.333 84 -73 84c-31.333 0 -62.166 -16.667 -92.499 -50s-50.166 -76 -59.499 -128l-46 -248h-80l54 284c4 22 6 41.667 6 59c0 55.333 -24 83 -72 83c-31.333 0 -62.666 -18 -93.999 -54
s-51.666 -79 -60.999 -129z" />
    <glyph glyph-name="n" unicode="n" horiz-adv-x="534" 
d="M111 0h-81.999l64 343c9.33301 45.333 17 92.333 23 141h75l-13 -95h2c46 70.667 106 106 180 106c33.333 0 62 -10.833 86 -32.5s36 -55.5 36 -101.5c0 -20.667 -3 -46.667 -9 -78l-54 -283h-82l53 280c4 25.333 6 46 6 62c0 56 -25.333 84 -76 84
c-32 0 -64.833 -17.667 -98.5 -53s-55.834 -81.333 -66.501 -138z" />
    <glyph glyph-name="o" unicode="o" horiz-adv-x="522" 
d="M225 -11l-0.999023 -0.000976562c-58.667 0 -104.834 19 -138.501 57s-50.5 85.333 -50.5 142c0 82.667 25.5 154.5 76.5 215.5s114.833 91.5 191.5 91.5c61.333 0 108.333 -19.667 141 -59s49 -86.666 49 -141.999c0 -79.333 -25.333 -150 -76 -212
s-114.667 -93 -192 -93zM234.001 54.999l1 -0.000976562c47.333 0 87.833 25 121.5 75s50.5 104.667 50.5 164c0 34.667 -9 65.834 -27 93.501s-46.667 41.5 -86 41.5c-49.333 0 -90.5 -24.833 -123.5 -74.5s-49.5 -104.167 -49.5 -163.5c0 -40 10.333 -72.667 31 -98
s48 -38 82 -38z" />
    <glyph glyph-name="p" unicode="p" horiz-adv-x="525" 
d="M68 -198h-83l97 510c10.667 58 19.667 115.667 27 173h76l-13 -92h2c21.333 32 47.333 57 78 75s62.667 27 96 27c48.667 0 85.5 -17 110.5 -51s37.5 -75.333 37.5 -124c0 -87.333 -27.5 -164.333 -82.5 -231s-121.833 -100 -200.5 -100c-44 0 -78.667 7.33301 -104 22
h-2zM146 216l-25 -134.999c23.333 -18 54.333 -27 93 -27c52 0 97.667 27 137 81s59 113.667 59 179c0 30 -7.33301 56.167 -22 78.5s-38.334 33.5 -71.001 33.5c-35.333 0 -69.666 -18.833 -102.999 -56.5s-56 -88.834 -68 -153.501z" />
    <glyph glyph-name="q" unicode="q" horiz-adv-x="525" 
d="M370 -198l-83.002 -0.000976562l59 286h-2c-20 -31.333 -45.167 -55.666 -75.5 -72.999s-61.166 -26 -92.499 -26c-46 0 -81.5 16.833 -106.5 50.5s-37.5 75.5 -37.5 125.5c0 54.667 12.333 107 37 157s61 91.333 109 124s102 49 162 49
c56.667 0 108.334 -10.667 155.001 -32zM371.998 243.999l31.001 168c-18.667 11.333 -45.334 17 -80.001 17c-55.333 0 -103.333 -25.333 -144 -76s-61 -110 -61 -178c0 -37.333 7.5 -66.333 22.5 -87s35.5 -31 61.5 -31c38 0 73.333 18.5 106 55.5s54 80.833 64 131.5z
" />
    <glyph glyph-name="r" unicode="r" horiz-adv-x="318" 
d="M111 0h-83l59 312c4.66699 24 13 81.333 25 172h73c-5.33301 -45.333 -10 -80.333 -14 -105h3c17.333 35.333 38.5 63.5 63.5 84.5s53.167 31.5 84.5 31.5c6.66699 0 14.667 -0.666992 24 -2l-16 -82c-8 1.33301 -15.667 2 -23 2c-35.333 0 -67.5 -19 -96.5 -57
s-48.833 -85.333 -59.5 -142z" />
    <glyph glyph-name="s" unicode="s" horiz-adv-x="373" 
d="M9 23l24 60.998c31.333 -20 66 -30 104 -30c27.333 0 49.5 7.66699 66.5 23s25.5 34 25.5 56c0 19.333 -5 35.5 -15 48.5s-27.667 26.5 -53 40.5c-58 32 -87 73 -87 123c0 42.667 16.5 78.334 49.5 107.001s75.167 43 126.5 43c42.667 0 76 -8 100 -24l-23 -63
c-24.667 14.667 -52.334 22 -83.001 22c-25.333 0 -46.166 -6.83301 -62.499 -20.5s-24.5 -31.167 -24.5 -52.5c0 -16.667 5.33301 -31.167 16 -43.5s27.667 -24.833 51 -37.5c60 -34.667 90 -77 90 -127c0 -49.333 -17.5 -88.166 -52.5 -116.499
s-79.167 -42.5 -132.5 -42.5c-52.667 1.33301 -92.667 12.333 -120 33z" />
    <glyph glyph-name="t" unicode="t" horiz-adv-x="313" 
d="M155 573l87.001 27l-22 -116h116l-13 -65h-116l-44 -235c-6.66699 -30 -10 -55.667 -10 -77c0 -31.333 15.333 -47 46 -47c16 0 29 1.33301 39 4l-4 -65c-14.667 -6 -36 -9 -64 -9c-34.667 0 -60.334 8.83301 -77.001 26.5s-25 40.167 -25 67.5
c0 23.333 3.66699 53.333 11 90l47 245h-69l12 65h69z" />
    <glyph glyph-name="u" unicode="u" horiz-adv-x="526" 
d="M418 484h83l-66 -343c-10 -54 -17 -101 -21 -141h-75l13 91h-2c-22 -32 -48 -57 -78 -75s-61 -27 -93 -27c-36 0 -66.333 10.667 -91 32s-37 57.333 -37 108c0 22.667 3 50 9 82l53 273h82l-51 -270c-5.33301 -28.667 -8 -52.334 -8 -71.001c0 -56 25.667 -84 77 -84
c32 0 64 16.833 96 50.5s52.667 75.834 62 126.501z" />
    <glyph glyph-name="v" unicode="v" horiz-adv-x="455" 
d="M52 484l84 -0.000976562l42 -276c10 -78 15 -117.667 15 -119h3c18 42.667 35.333 80.334 52 113.001l147 282h91l-269 -484h-81z" />
    <glyph glyph-name="w" unicode="w" horiz-adv-x="707" 
d="M61 484h82l17 -272c2.66699 -38.667 3.33398 -82 2.00098 -130h3c12 34.667 29.667 75 53 121l143 281h73l30 -276c5.33301 -56.667 8 -98.667 8 -126h2c15.333 46 30.666 87 45.999 123l131 279h84l-239 -484h-77l-32 263c-4.66699 42 -7 85 -7 129h-2
c-28 -65.333 -46.667 -107.333 -56 -126l-139 -266h-77z" />
    <glyph glyph-name="x" unicode="x" horiz-adv-x="441" 
d="M63 484h89.999l47 -105c9.33301 -21.333 20 -47.333 32 -78h3c26 36.667 43.667 61 53 73l89 110h96l-204 -235l114 -249h-90l-49 110c-11.333 26 -22.666 54.667 -33.999 86h-3c-16 -26 -32.667 -50.667 -50 -74l-98 -122h-96l212 250z" />
    <glyph glyph-name="y" unicode="y" horiz-adv-x="441" 
d="M48 484l86.002 0.00195312l48 -260c9.33301 -48.667 16.666 -91.334 21.999 -128.001h2l52 119l124 269h88l-182 -368c-58.667 -117.333 -114.334 -202 -167.001 -254c-24 -24.667 -48.833 -43.834 -74.5 -57.501s-47.5 -22.5 -65.5 -26.5l-21 72
c35.333 12 65 27.333 89 46c38 28.667 69.333 66 94 112c3.33301 6.66699 4 14 2 22z" />
    <glyph glyph-name="z" unicode="z" horiz-adv-x="415" 
d="M-21 0l8.99902 50.999l235 262c28.667 32 62.334 65.333 101.001 100v3h-248l14 68h347l-11 -55l-231 -258c-32.667 -35.333 -66 -68.666 -100 -99.999l-1 -3h269l-14 -68h-370z" />
    <glyph glyph-name="braceleft" unicode="{" horiz-adv-x="284" 
d="M33 264l8.99902 51c30.667 0 52.5 6.83301 65.5 20.5s21.833 31.5 26.5 53.5c3.33301 17.333 6 44.666 8 81.999s5 65.333 9 84c16 87.333 69 131 159 131h23l-10 -54h-18c-48 0 -78 -28.667 -90 -86c-3.33301 -16 -5.66602 -40.167 -6.99902 -72.5
s-3.33301 -57.166 -6 -74.499c-10 -60.667 -40.333 -97 -91 -109v-2c36 -9.33301 54 -33 54 -71c0 -26.667 -8.33301 -63.667 -25 -111c-17.333 -47.333 -26 -80.666 -26 -99.999c0 -41.333 20 -62.333 60 -63h18l-11 -54h-18c-36 0 -64.5 8.66699 -85.5 26
s-31.5 42.666 -31.5 75.999c0 25.333 9 64.333 27 117c17.333 50.667 26 84.667 26 102c0 36.667 -22 54.667 -66 54z" />
    <glyph glyph-name="bar" unicode="|" horiz-adv-x="217" 
d="M95 750h62v-1000h-62v1000z" />
    <glyph glyph-name="braceright" unicode="}" horiz-adv-x="284" 
d="M264 313l-8.99902 -51.002c-30.667 0 -52.5 -6.83301 -65.5 -20.5s-21.833 -31.834 -26.5 -54.501c-3.33301 -17.333 -6 -44.666 -8 -81.999s-5 -65.666 -9 -84.999c-16 -87.333 -69 -131 -159 -131h-23l10 54h18c48.667 0 78.667 29 90 87
c3.33301 16 5.66602 40.333 6.99902 73s3.33301 57.667 6 75c10 60 40.333 96.333 91 109v2c-36 10.667 -54 34.334 -54 71.001c0 18 8.66699 54.333 26 109c16.667 48.667 25 82 25 100c0 41.333 -20 62.333 -60 63h-18l11 54h18c36 0 64.5 -8.66699 85.5 -26
s31.5 -42.666 31.5 -75.999c0 -30.667 -9 -69.667 -27 -117c-17.333 -50.667 -26 -84.334 -26 -101.001c0 -36 22 -53.667 66 -53z" />
    <glyph glyph-name="asciitilde" unicode="~" horiz-adv-x="596" 
d="M123 213h-60c-1.33301 46.667 9.16699 82.667 31.5 108s51.166 38 86.499 38s80 -14 134 -42c54.667 -28 95.667 -42 123 -42c34.667 0 52.667 27 54 81h59c2 -50.667 -7.83301 -87.834 -29.5 -111.501s-50.167 -35.5 -85.5 -35.5c-37.333 0 -83.666 15 -138.999 45
c-53.333 26.667 -92.333 40 -117 40c-17.333 0 -31 -7.16699 -41 -21.5s-15.333 -34.166 -16 -59.499z" />
    <glyph glyph-name="exclamdown" unicode="&#xa1;" horiz-adv-x="236" 
d="M83 -195h-94l106 477h66zM159 488l1 -0.000976562c16 0 29 -5.66699 39 -17s15 -25 15 -41c0 -18.667 -5.83301 -34.5 -17.5 -47.5s-26.5 -19.5 -44.5 -19.5c-16.667 0 -30.167 5.66699 -40.5 17s-15.5 25.333 -15.5 42c0 18.667 6 34.334 18 47.001s27 19 45 19z" />
    <glyph glyph-name="cent" unicode="&#xa2;" horiz-adv-x="492" 
d="M272 -14h-61l20 102c-48.667 7.33301 -87 29.333 -115 66c-23.333 33.333 -35 74 -35 122c0 75.333 23.833 141.333 71.5 198s105.834 89.667 174.501 99l18 101h61l-19 -99c36.667 0 67 -8 91 -24l-29 -64c-26 15.333 -57.667 23 -95 23c-48 0 -90.833 -22 -128.5 -66
s-56.5 -97.667 -56.5 -161c0 -38.667 10.833 -70.167 32.5 -94.5s52.167 -36.5 91.5 -36.5c34 0 68.333 7.66699 103 23l8 -62c-30.667 -17.333 -68.334 -26 -113.001 -26z" />
    <glyph glyph-name="sterling" unicode="&#xa3;" horiz-adv-x="492" 
d="M427 0h-402.999l9 51c32 15.333 59.833 37.666 83.5 66.999s39.5 61 47.5 95c4.66699 19.333 7.66699 46.666 9 81.999h-90l12 63h80c0 45.333 3.66699 86.333 11 123c12 56.667 35.833 100.834 71.5 132.501s81.167 47.5 136.5 47.5c38.667 0 69 -7.66699 91 -23
l-25 -64c-20.667 11.333 -45.667 17 -75 17c-34 0 -61.333 -10.833 -82 -32.5s-34.334 -51.167 -41.001 -88.5c-5.33301 -31.333 -8 -68.666 -8 -111.999h148l-12 -63h-139c-1.33301 -26.667 -5 -53 -11 -79c-13.333 -58 -44 -105.667 -92 -143v-2h291z" />
    <glyph glyph-name="currency" unicode="&#xa4;" horiz-adv-x="492" 
d="M263 534h0.999023c47.333 0 85.333 -13.333 114 -40l71 74l44 -46l-77 -70c23.333 -33.333 35 -73 35 -119c0 -48 -11.667 -88.333 -35 -121l75 -72l-44 -46l-69 76c-30 -28 -68.667 -42 -116 -42s-84.666 13 -111.999 39l-67 -73l-45 46l73 69
c-24.667 32 -37 72 -37 120c0 47.333 13 88.333 39 123l-76 70l45 46l69 -74c28.667 26.667 66 40 112 40zM261.999 474h-1.00098c-35.333 0 -64 -13.833 -86 -41.5s-33 -61.5 -33 -101.5c0 -46.667 12.333 -82.167 37 -106.5s52.334 -36.5 83.001 -36.5
c33.333 0 61.833 12 85.5 36s35.5 60 35.5 108c0 38.667 -10.833 72 -32.5 100s-51.167 42 -88.5 42z" />
    <glyph glyph-name="yen" unicode="&#xa5;" horiz-adv-x="492" 
d="M234 0l-78.001 0.000976562l33 176h-146l9 49h146l14 73h-146l10 49h122l-103 303h85l59 -206c12.667 -48.667 20.334 -79.334 23.001 -92.001h4c15.333 30 34 61.333 56 94l141 204h91l-228 -303h121l-9 -49h-148l-14 -73h148l-10 -49h-147z" />
    <glyph glyph-name="brokenbar" unicode="&#xa6;" horiz-adv-x="217" 
d="M95 174h62v-350h-62v350zM95 674h62v-350h-62v350z" />
    <glyph glyph-name="section" unicode="&#xa7;" horiz-adv-x="501" 
d="M152 351l-0.00195312 -0.999023c0 -19.333 5.66699 -36 17 -50s33.333 -29 66 -45c40 -18.667 70.333 -35.667 91 -51c38 24 57 53.667 57 89c0 36.667 -24.667 68 -74 94c-51.333 26 -82.666 42.667 -93.999 50c-19.333 -9.33301 -34.666 -21.833 -45.999 -37.5
s-17 -31.834 -17 -48.501zM472.998 652.001l-24.002 -55.002c-33.333 20 -70.666 30 -111.999 30c-29.333 0 -54.333 -7.66699 -75 -23s-31 -34.666 -31 -57.999c0 -20 7.33301 -36.167 22 -48.5s40.667 -26.833 78 -43.5c41.333 -18.667 72.5 -38.834 93.5 -60.501
s31.5 -48.5 31.5 -80.5c0 -56 -29.333 -103.667 -88 -143c15.333 -18 23 -41.667 23 -71c0 -51.333 -19.333 -90.666 -58 -117.999s-84.667 -41 -138 -41c-63.333 0 -112.666 13.333 -147.999 40l25 57c40.667 -26 82.667 -39 126 -39c33.333 0 60.833 8.16699 82.5 24.5
s32.5 37.833 32.5 64.5c0 18.667 -7 35.5 -21 50.5s-39.667 31.5 -77 49.5c-44 20.667 -77.833 41.834 -101.5 63.501s-35.5 47.834 -35.5 78.501c0 56.667 33.333 103.667 100 141c-15.333 19.333 -23 40.666 -23 63.999c0 45.333 18.667 81.833 56 109.5
s82.333 41.5 135 41.5c52 0 94.333 -11 127 -33z" />
    <glyph glyph-name="dieresis" unicode="&#xa8;" 
d="M173 570h-0.999023c-13.333 0 -24.5 4.66699 -33.5 14s-13.5 21 -13.5 35c0 14.667 5 27.167 15 37.5s22.333 15.5 37 15.5c14 0 25.333 -4.66699 34 -14s13 -21 13 -35c0 -14.667 -4.83301 -27.167 -14.5 -37.5s-21.834 -15.5 -36.501 -15.5zM355.001 570h-1
c-13.333 0 -24.333 4.66699 -33 14s-13 21 -13 35c0 14.667 5 27.167 15 37.5s22.333 15.5 37 15.5c14 0 25.333 -4.66699 34 -14s13 -21 13 -35c0 -14.667 -4.83301 -27.167 -14.5 -37.5s-22.167 -15.5 -37.5 -15.5z" />
    <glyph glyph-name="copyright" unicode="&#xa9;" horiz-adv-x="675" 
d="M367 648h1c83.333 0 153.833 -30 211.5 -90s86.5 -132.667 86.5 -218c0 -86 -28.833 -159.167 -86.5 -219.5s-128.5 -90.5 -212.5 -90.5c-84.667 0 -156.334 30.167 -215.001 90.5s-88 133.5 -88 219.5c0 85.333 29.333 158 88 218s130.334 90 215.001 90zM366 607
l-0.999023 -0.00195312c-70.667 0 -130.334 -26 -179.001 -78s-73 -116 -73 -192c0 -74.667 24.333 -137.667 73 -189s108.667 -77 180 -77c70.667 -0.666992 130.167 24.833 178.5 76.5s72.5 115.834 72.5 192.501c0 74.667 -24.167 137.834 -72.5 189.501
s-107.833 77.5 -178.5 77.5zM501.001 492.998l-11.999 -39.9971c-28 16 -60.667 24 -98 24c-44.667 0 -79 -12.833 -103 -38.5s-36 -59.5 -36 -101.5c0 -40.667 12.333 -74.334 37 -101.001s59 -40 103 -40c41.333 0 75.666 9 102.999 27l11 -38
c-31.333 -21.333 -72.333 -32 -123 -32c-56.667 0 -101.334 17 -134.001 51s-49 77.333 -49 130c0 55.333 18.667 100.166 56 134.499s82 51.5 134 51.5c24.667 0 47.334 -2.83301 68.001 -8.5s35 -11.834 43 -18.501z" />
    <glyph glyph-name="ordfeminine" unicode="&#xaa;" horiz-adv-x="350" 
d="M325 267h-58.999c0 22 1.33301 43.333 4 64h-2c-28.667 -46 -67.334 -69 -116.001 -69c-28.667 0 -51.5 10.5 -68.5 31.5s-25.5 48.5 -25.5 82.5c0 58 19 108.333 57 151s90.333 64 157 64c34.667 0 67 -5.66699 97 -17l-36 -206c-5.33301 -28 -8 -61.667 -8 -101z
M280.001 422l20 112.001c-11.333 4.66699 -26.333 7 -45 7c-36 0 -66.833 -15 -92.5 -45s-38.5 -66.333 -38.5 -109c0 -20.667 4.33301 -38 13 -52s22.667 -21 42 -21c22 0 43 10.667 63 32s32.667 46.666 38 75.999z" />
    <glyph glyph-name="guillemotleft" unicode="&#xab;" horiz-adv-x="409" 
d="M253 437l-151 -186l101 -182h-66l-104 184l148 184h72zM417 437l-152 -186l102 -182h-67l-103 184l147 184h73z" />
    <glyph glyph-name="logicalnot" unicode="&#xac;" horiz-adv-x="596" 
d="M49 399h501v-279h-63v220h-438v59z" />
    <glyph glyph-name="registered" unicode="&#xae;" horiz-adv-x="395" 
d="M226 499l0.000976562 -64.999h-38v164c25.333 3.33301 46.333 5 63 5c26 0 45 -4.33301 57 -13c11.333 -8 17 -19.667 17 -35c0 -18.667 -11.333 -31.667 -34 -39v-2c14 -4.66699 23.667 -18 29 -40c3.33301 -18 7.33301 -31.333 12 -40h-40
c-2.66699 3.33301 -7 16.666 -13 39.999c-2.66699 16.667 -14.334 25 -35.001 25h-18zM227.001 573.001v-47h18c26 0 39 8 39 24c0 16.667 -12 25 -36 25c-8.66699 0 -15.667 -0.666992 -21 -2zM253.001 683.001h1c46.667 0 86 -15.833 118 -47.5s48 -70.5 48 -116.5
s-16.167 -85 -48.5 -117s-71.833 -48 -118.5 -48c-47.333 0 -87.333 16 -120 48s-49 71 -49 117s16.333 84.833 49 116.5s72.667 47.5 120 47.5zM252.001 650.001h-1c-35.333 0 -65 -12.833 -89 -38.5s-36 -56.5 -36 -92.5c0 -36.667 12.167 -67.667 36.5 -93
s54.5 -38 90.5 -38c35.333 -0.666992 65 11.666 89 36.999s36 56.333 36 93s-12 67.834 -36 93.501s-54 38.5 -90 38.5z" />
    <glyph glyph-name="macron" unicode="&#xaf;" 
d="M162 646h219l-10 -53h-219z" />
    <glyph glyph-name="macron" unicode="&#x2c9;" 
d="M162 646h219l-10 -53h-219z" />
    <glyph glyph-name="degree" unicode="&#xb0;" horiz-adv-x="318" 
d="M225 685l1 0.000976562c38 0 68.667 -12.333 92 -37s35 -54 35 -88c0 -38.667 -13.5 -70.834 -40.5 -96.501s-57.833 -38.5 -92.5 -38.5c-37.333 0 -67.833 12.333 -91.5 37s-35.5 54.667 -35.5 90c0 36.667 13 68 39 94s57 39 93 39zM224 638.001h-1
c-22.667 0 -41 -9 -55 -27s-21 -37.667 -21 -59c0 -22.667 7.16699 -41.667 21.5 -57s32.166 -23 53.499 -23s39.5 8.33301 54.5 25s22.5 37 22.5 61c0 20.667 -6.16699 39.167 -18.5 55.5s-31.166 24.5 -56.499 24.5z" />
    <glyph glyph-name="plusminus" unicode="&#xb1;" horiz-adv-x="596" 
d="M275 572h62v-195h219v-59h-219v-201h-62v201h-219v59h219v195zM56 59h500v-59h-500v59z" />
    <glyph glyph-name="twosuperior" unicode="&#xb2;" horiz-adv-x="298" 
d="M310 407l-263.001 -0.000976562l7 40l73 58c55.333 44 95.166 79.333 119.499 106s36.5 53.667 36.5 81c0 14.667 -4.66699 27.167 -14 37.5s-24.666 15.5 -45.999 15.5c-27.333 0 -55.666 -10 -84.999 -30l-16 44c37.333 28 78 42 122 42c34.667 0 62 -9.5 82 -28.5
s30 -43.167 30 -72.5c0 -18.667 -4.16699 -37.167 -12.5 -55.5s-21.5 -36.666 -39.5 -54.999s-34.667 -34 -50 -47s-36.333 -29.833 -63 -50.5l-36 -28v-2h166z" />
    <glyph glyph-name="threesuperior" unicode="&#xb3;" horiz-adv-x="291" 
d="M137 722l-11 45.002c31.333 22.667 68.333 34 111 34c34.667 0 61.667 -8.33301 81 -25s29 -37 29 -61c0 -22.667 -8.33301 -42.334 -25 -59.001s-38.334 -29.334 -65.001 -38.001v-2c20.667 -5.33301 37.667 -16 51 -32s20 -34.667 20 -56
c-0.666992 -38 -16.167 -68.5 -46.5 -91.5s-69.5 -34.5 -117.5 -34.5c-48.667 0 -85 9.66699 -109 29l22 47c26 -16.667 55 -25 87 -25c28.667 0 51.334 7.16699 68.001 21.5s25 31.833 25 52.5c0 21.333 -8.66699 37.5 -26 48.5s-39 16.5 -65 16.5h-20l8 45h21
c24.667 0 47.5 6.33301 68.5 19s31.5 29 31.5 49c0 30 -19 45 -57 45c-28.667 0 -55.667 -9.33301 -81 -28z" />
    <glyph glyph-name="acute" unicode="&#xb4;" 
d="M300 686h100l-133 -143h-65z" />
    <glyph glyph-name="mu" unicode="&#xb5;" horiz-adv-x="525" 
d="M195 484l-53 -287c-8 -43.333 -5.5 -77.166 7.5 -101.499s37.5 -36.5 73.5 -36.5c24 0 47.167 10.167 69.5 30.5s40.5 44.166 54.5 71.499c10.667 19.333 18 39.333 22 60l49 263h83l-65 -344c-5.33301 -31.333 -6 -52.833 -2 -64.5s14 -18.167 30 -19.5l-18 -63
c-8.66699 -2.66699 -17.667 -4 -27 -4c-45.333 0 -66.333 33.333 -63 100h-3c-16 -28 -36.667 -51.333 -62 -70s-53.333 -28 -84 -28c-49.333 0 -82 19.333 -98 58l-12 -65c-15.333 -91.333 -22 -152 -20 -182h-75c-6 33.333 -0.333008 93.333 17 180l94 502h82z" />
    <glyph glyph-name="paragraph" unicode="&#xb6;" horiz-adv-x="494" 
d="M222 -50h-61l61 314c-1.33301 0 -3 0.166992 -5 0.5s-3.66699 0.5 -5 0.5c-34 4.66699 -65.333 21.667 -94 51s-43 69 -43 119c0 70.667 27.333 128.167 82 172.5s129.667 66.5 225 66.5c50 0 86.667 -2.66699 110 -8l-138 -716h-60l127 666h-72z" />
    <glyph glyph-name="periodcentered" unicode="&#xb7;" horiz-adv-x="211" 
d="M106 198h-1c-16 0 -29.167 5.66699 -39.5 17s-15.5 25.333 -15.5 42c0 18.667 6 34.5 18 47.5s27 19.5 45 19.5c16.667 0 30.167 -5.66699 40.5 -17s15.5 -25.666 15.5 -42.999c0 -18.667 -6 -34.334 -18 -47.001s-27 -19 -45 -19z" />
    <glyph glyph-name="periodcentered" unicode="&#x2219;" horiz-adv-x="211" 
d="M106 198h-1c-16 0 -29.167 5.66699 -39.5 17s-15.5 25.333 -15.5 42c0 18.667 6 34.5 18 47.5s27 19.5 45 19.5c16.667 0 30.167 -5.66699 40.5 -17s15.5 -25.666 15.5 -42.999c0 -18.667 -6 -34.334 -18 -47.001s-27 -19 -45 -19z" />
    <glyph glyph-name="cedilla" unicode="&#xb8;" 
d="M132 2l53.002 0.000976562l-39 -53c16 -3.33301 29 -10.666 39 -21.999s15 -25 15 -41c0 -26.667 -10.667 -47.834 -32 -63.501s-47 -23.5 -77 -23.5c-26.667 0 -48.334 5.66699 -65.001 17l18 43c15.333 -9.33301 32.666 -14 51.999 -14c12 0 22.333 3.16699 31 9.5
s13 15.166 13 26.499c0 21.333 -22 34 -66 38z" />
    <glyph glyph-name="onesuperior" unicode="&#xb9;" horiz-adv-x="228" 
d="M203 407h-69l63 328h-2l-72 -32l-6 49l100 44h60z" />
    <glyph glyph-name="ordmasculine" unicode="&#xba;" horiz-adv-x="345" 
d="M230 591h1c43.333 0 76.833 -13 100.5 -39s35.5 -58 35.5 -96c0 -55.333 -17.333 -101.5 -52 -138.5s-77.667 -55.5 -129 -55.5c-41.333 0 -74 13 -98 39s-36 57 -36 93c0 56 17.333 102.833 52 140.5s76.667 56.5 126 56.5zM224 541h-1.00098
c-28.667 0 -53.167 -14.5 -73.5 -43.5s-30.5 -62.833 -30.5 -101.5c0 -26.667 6.83301 -47.5 20.5 -62.5s31.167 -22.5 52.5 -22.5c28.667 0 53.667 14.167 75 42.5s32 63.5 32 105.5c0 22.667 -5.66699 42 -17 58s-30.666 24 -57.999 24z" />
    <glyph glyph-name="guillemotright" unicode="&#xbb;" horiz-adv-x="408" 
d="M159 255l-102 182h67l103 -184l-147 -185h-73zM322 255l-101 182h66l104 -184l-148 -185h-72z" />
    <glyph glyph-name="onequarter" unicode="&#xbc;" horiz-adv-x="751" 
d="M616 0h-66l19 103h-192l8 40l232 252h73l-46 -243h58l-9 -49h-58zM578 152l23 119c2.66699 14 7.66699 34.667 15 62h-2c-26.667 -35.333 -41 -54 -43 -56l-113 -124l1 -1h119zM198 267h-69l63 328h-2l-71 -32l-7 49l100 44h60zM159 -11h-62l486 672h62z" />
    <glyph glyph-name="onehalf" unicode="&#xbd;" horiz-adv-x="751" 
d="M195 267h-69l62 328h-1l-72 -32l-7 49l100 44h61zM140 -11h-61l488 672h61zM661 0h-263l7 40l73 58c55.333 44.667 95.166 80.5 119.499 107.5s36.5 53.833 36.5 80.5c0 14.667 -4.66699 27.167 -14 37.5s-24.666 15.5 -45.999 15.5c-28 0 -56 -10 -84 -30l-16 44
c36 28 76.333 42 121 42c34.667 0 62 -9.5 82 -28.5s30 -42.833 30 -71.5c0 -24.667 -8.83301 -50.167 -26.5 -76.5s-36 -48 -55 -65s-46.833 -39.5 -83.5 -67.5l-36 -29v-2h165z" />
    <glyph glyph-name="threequarters" unicode="&#xbe;" horiz-adv-x="751" 
d="M193 -11h-62l486 672h62zM123 582l-10.001 45.002c31.333 22.667 68.333 34 111 34c34.667 0 61.667 -8.33301 81 -25s29 -37 29 -61c0 -22.667 -8.33301 -42.334 -25 -59.001s-38.667 -29.334 -66 -38.001v-2c20.667 -5.33301 37.667 -16 51 -32s20 -34.667 20 -56
c-0.666992 -38 -16.167 -68.5 -46.5 -91.5s-69.5 -34.5 -117.5 -34.5c-48.667 0 -85 9.66699 -109 29l22 47c26 -16.667 55 -25 87 -25c28.667 0 51.334 7.16699 68.001 21.5s25 31.833 25 52.5c0 21.333 -8.66699 37.5 -26 48.5s-39 16.5 -65 16.5h-19l8 45h21
c24.667 0 47.5 6.33301 68.5 19s31.5 29 31.5 49c0 30 -19 45 -57 45c-28 0 -55.333 -9.33301 -82 -28zM626.999 0.00195312h-66l19 103h-192l8 40l232 252h74l-46 -243h57l-9 -49h-58zM589.999 152.002l21.999 119c4.66699 21.333 9.66699 42 15 62h-2
c-27.333 -35.333 -41.666 -54 -42.999 -56l-113 -124l1 -1h120z" />
    <glyph glyph-name="questiondown" unicode="&#xbf;" horiz-adv-x="384" 
d="M191 285h80.999c-0.666992 -5.33301 -1.66699 -14 -3 -26c-4 -56.667 -36.667 -117 -98 -181c-27.333 -28 -48.5 -53.5 -63.5 -76.5s-22.5 -46.167 -22.5 -69.5c0 -20.667 6 -37.667 18 -51s31.333 -20 58 -20c38 0 71.333 9 100 27l16 -61c-42 -24 -87 -36 -135 -36
c-46.667 0 -82.167 13 -106.5 39s-36.5 56.333 -36.5 91c0 56.667 36 121 108 193c46.667 48 73.334 95.667 80.001 143zM260.999 488l1 -0.000976562c16 0 29 -5.66699 39 -17s15 -25 15 -41c0 -18.667 -6 -34.5 -18 -47.5s-27 -19.5 -45 -19.5
c-16 0 -29.167 5.66699 -39.5 17s-15.5 25.333 -15.5 42c0 18.667 6 34.334 18 47.001s27 19 45 19z" />
    <glyph glyph-name="Agrave" unicode="&#xc0;" horiz-adv-x="568" 
d="M401 213h-233l-107 -213h-87l348 674h98l93 -674h-85zM199 279h196.001l-27 195c-0.666992 6.66699 -2.33398 25.167 -5.00098 55.5l-6 68.5h-3c-2 -4 -9.66699 -21.5 -23 -52.5s-24 -54.5 -32 -70.5zM234.001 828h103l75 -117h-68z" />
    <glyph glyph-name="Aacute" unicode="&#xc1;" horiz-adv-x="568" 
d="M401 213h-233l-107 -213h-87l348 674h98l93 -674h-85zM199 279h196.001l-27 195c-0.666992 6.66699 -2.33398 25.167 -5.00098 55.5l-6 68.5h-3c-2 -4 -9.66699 -21.5 -23 -52.5s-24 -54.5 -32 -70.5zM424.001 828h108l-136 -118h-74z" />
    <glyph glyph-name="Acircumflex" unicode="&#xc2;" horiz-adv-x="568" 
d="M401 213h-233l-107 -213h-87l348 674h98l93 -674h-85zM199 279h196.001l-27 195c-0.666992 6.66699 -2.33398 25.167 -5.00098 55.5l-6 68.5h-3c-2 -4 -9.66699 -21.5 -23 -52.5s-24 -54.5 -32 -70.5zM357.001 828h65l80 -118h-68l-49 72h-2l-72 -72h-74z" />
    <glyph glyph-name="Atilde" unicode="&#xc3;" horiz-adv-x="568" 
d="M401 213h-233l-107 -213h-87l348 674h98l93 -674h-85zM199 279h196.001l-27 195c-0.666992 6.66699 -2.33398 25.167 -5.00098 55.5l-6 68.5h-3c-2 -4 -9.66699 -21.5 -23 -52.5s-24 -54.5 -32 -70.5zM292.001 715h-47.002c5.33301 30 15.333 54.167 30 72.5
s32 27.5 52 27.5c19.333 0 39.333 -7 60 -21c18 -12 32.667 -18 44 -18c15.333 0 27 13.333 35 40h46c-11.333 -64 -39 -96 -83 -96c-18 0 -38 6.66699 -60 20c-21.333 12.667 -35.666 18.667 -42.999 18c-15.333 0 -26.666 -14.333 -33.999 -43z" />
    <glyph glyph-name="Adieresis" unicode="&#xc4;" horiz-adv-x="568" 
d="M401 213h-233l-107 -213h-87l348 674h98l93 -674h-85zM199 279h196.001l-27 195c-0.666992 6.66699 -2.33398 25.167 -5.00098 55.5l-6 68.5h-3c-2 -4 -9.66699 -21.5 -23 -52.5s-24 -54.5 -32 -70.5zM285.001 720l-1 0.00195312c-12.667 0 -23.5 4.66699 -32.5 14
s-13.5 20.666 -13.5 33.999c0 14.667 5 27.167 15 37.5s22.333 15.5 37 15.5c14 0 25.333 -4.83301 34 -14.5s13 -20.834 13 -33.501c0 -14.667 -5 -27.167 -15 -37.5s-22.333 -15.5 -37 -15.5zM469.001 720.002l-1 0.00195312c-12.667 0 -23.5 4.66699 -32.5 14
s-13.5 20.666 -13.5 33.999c0 14.667 5 27.167 15 37.5s22.333 15.5 37 15.5c14 0 25.333 -4.83301 34 -14.5s13 -20.834 13 -33.501c0 -14.667 -5 -27.167 -15 -37.5s-22.333 -15.5 -37 -15.5z" />
    <glyph glyph-name="Aring" unicode="&#xc5;" horiz-adv-x="568" 
d="M401 213h-233l-107 -213h-87l348 674h98l93 -674h-85zM199 279h196.001l-27 195c-0.666992 6.66699 -2.33398 25.167 -5.00098 55.5l-6 68.5h-3c-2 -4 -9.66699 -21.5 -23 -52.5s-24 -54.5 -32 -70.5zM385.001 873h1.00195c28 0 50.667 -8 68 -24s26 -37 26 -63
c-0.666992 -27.333 -10.834 -49.333 -30.501 -66s-43.834 -25 -72.501 -25c-27.333 0 -49.666 7.66699 -66.999 23s-26.333 35.333 -27 60c-0.666992 27.333 8.66602 50 27.999 68s44 27 74 27zM382.003 837l-0.999023 0.000976562c-14 0 -25.333 -5.33301 -34 -16
s-13 -24 -13 -40c0 -14 4.16699 -25.833 12.5 -35.5s19.166 -14.5 32.499 -14.5c14.667 0 26.5 5.16699 35.5 15.5s13.5 23.166 13.5 38.499s-4.16699 27.833 -12.5 37.5s-19.5 14.5 -33.5 14.5z" />
    <glyph glyph-name="AE" unicode="&#xc6;" horiz-adv-x="773" 
d="M37 0h-88l448 674h380l-14 -71h-251l-23 -218h238l-13 -70h-230l-26 -244h257l-13 -71h-329l24 238h-202zM238 307h165l21 195c4.66699 50.667 8.66699 87 12 109h-4c-22.667 -40 -44 -75.333 -64 -106z" />
    <glyph glyph-name="Ccedilla" unicode="&#xc7;" horiz-adv-x="558" 
d="M486 91l11 -67.998c-44 -20 -94.667 -31 -152 -33l-31 -40c16.667 -4 29.834 -11.833 39.501 -23.5s14.5 -25.5 14.5 -41.5c0 -26.667 -10.833 -47.5 -32.5 -62.5s-46.834 -22.5 -75.501 -22.5c-28 0 -50.333 6 -67 18l18 41c15.333 -9.33301 32.333 -14 51 -14
c12 0 22.333 3 31 9s13 14.667 13 26c0 22 -21.667 35 -65 39l52 72c-77.333 5.33301 -137.333 33 -180 83s-64 115.333 -64 196c0 64 12.5 124.667 37.5 182s60.5 104.666 106.5 141.999c71.333 60 156 90 254 90c34 0 64.333 -3.33301 91 -10s45 -14 55 -22l-27 -67
c-31.333 18.667 -75.333 28 -132 28c-75.333 0 -140 -25.333 -194 -76c-32 -28.667 -57.167 -65.834 -75.5 -111.501s-27.5 -93.5 -27.5 -143.5c0 -66 16.667 -119.333 50 -160s85 -61 155 -61c57.333 0 105.333 10 144 30z" />
    <glyph glyph-name="Egrave" unicode="&#xc8;" horiz-adv-x="470" 
d="M433 387l-14 -70h-245l-46 -246h276l-14 -71h-359l128 674h344l-14 -71h-260l-41 -216h245zM214 828h103l75 -117h-68z" />
    <glyph glyph-name="Eacute" unicode="&#xc9;" horiz-adv-x="470" 
d="M433 387l-14 -70h-245l-46 -246h276l-14 -71h-359l128 674h344l-14 -71h-260l-41 -216h245zM388 828h108l-136 -118h-74z" />
    <glyph glyph-name="Ecircumflex" unicode="&#xca;" horiz-adv-x="470" 
d="M433 387l-14 -70h-245l-46 -246h276l-14 -71h-359l128 674h344l-14 -71h-260l-41 -216h245zM322 828h65l80 -118h-68l-49 72h-2l-72 -72h-74z" />
    <glyph glyph-name="Edieresis" unicode="&#xcb;" horiz-adv-x="470" 
d="M433 387l-14 -70h-245l-46 -246h276l-14 -71h-359l128 674h344l-14 -71h-260l-41 -216h245zM253 720l-1 0.00195312c-12.667 0 -23.5 4.66699 -32.5 14s-13.5 20.666 -13.5 33.999c0 14.667 5 27.167 15 37.5s22.333 15.5 37 15.5c14 0 25.333 -4.83301 34 -14.5
s13 -20.834 13 -33.501c0 -14.667 -5 -27.167 -15 -37.5s-22.333 -15.5 -37 -15.5zM437 720.002l-1 0.00195312c-12.667 0 -23.5 4.66699 -32.5 14s-13.5 20.666 -13.5 33.999c0 14.667 5 27.167 15 37.5s22.333 15.5 37 15.5c14 0 25.333 -4.83301 34 -14.5
s13 -20.834 13 -33.501c0 -14.667 -5 -27.167 -15 -37.5s-22.333 -15.5 -37 -15.5z" />
    <glyph glyph-name="Igrave" unicode="&#xcc;" horiz-adv-x="233" 
d="M158 674h83l-128 -674h-83zM79 828h103l75 -117h-68z" />
    <glyph glyph-name="Iacute" unicode="&#xcd;" horiz-adv-x="233" 
d="M158 674h83l-128 -674h-83zM253 828h108l-136 -118h-74z" />
    <glyph glyph-name="Icircumflex" unicode="&#xce;" horiz-adv-x="233" 
d="M158 674h83l-128 -674h-83zM186 828h65l80 -118h-68l-49 72h-2l-72 -72h-74z" />
    <glyph glyph-name="Idieresis" unicode="&#xcf;" horiz-adv-x="233" 
d="M158 674h83l-128 -674h-83zM121 720l-1 0.00195312c-12.667 0 -23.5 4.66699 -32.5 14s-13.5 20.666 -13.5 33.999c0 14.667 5 27.167 15 37.5s22.333 15.5 37 15.5c14 0 25.333 -4.83301 34 -14.5s13 -20.834 13 -33.501c0 -14.667 -5 -27.167 -15 -37.5
s-22.333 -15.5 -37 -15.5zM305 720.002l-1 0.00195312c-12.667 0 -23.5 4.66699 -32.5 14s-13.5 20.666 -13.5 33.999c0 14.667 5 27.167 15 37.5s22.333 15.5 37 15.5c14 0 25.333 -4.83301 34 -14.5s13 -20.834 13 -33.501c0 -14.667 -5 -27.167 -15 -37.5
s-22.333 -15.5 -37 -15.5z" />
    <glyph glyph-name="Eth" unicode="&#xd0;" horiz-adv-x="654" 
d="M14 317l13.998 70.001h84l52 278c58 9.33301 115 14 171 14c112 0 193.333 -29.333 244 -88c42.667 -44 64 -105.333 64 -184c0 -60.667 -12.333 -119.334 -37 -176.001s-59 -103 -103 -139c-75.333 -63.333 -175.666 -95 -300.999 -95c-57.333 0 -111.666 3 -162.999 9
l59 311h-84zM360.998 387.001l-13.998 -70h-166l-47 -246c25.333 -3.33301 55.666 -5 90.999 -5c97.333 0 175.333 30 234 90c30 30 53.333 67 70 111s25 89.667 25 137c0 64 -17.833 114.5 -53.5 151.5s-92.834 55.5 -171.501 55.5c-38 0 -69 -1.66699 -93 -5l-41 -219h166
z" />
    <glyph glyph-name="Ntilde" unicode="&#xd1;" horiz-adv-x="632" 
d="M109 0l-78 -0.000976562l128 674h91l154 -382c24 -61.333 43.667 -124 59 -188l2 1c4 60.667 13.667 131 29 211l68 358h78l-128 -674h-82l-154 381c-28 72.667 -48.667 137.334 -62 194.001l-3 -1c-6 -54.667 -17.667 -128.667 -35 -222zM331 715.999h-47.002
c5.33301 30 15.333 54.167 30 72.5s32 27.5 52 27.5c18.667 0 38.667 -7 60 -21c18 -12 32.667 -18 44 -18c15.333 0 27 13.333 35 40h46c-11.333 -64 -39 -96 -83 -96c-18 0 -38 6.66699 -60 20c-21.333 12.667 -35.666 18.667 -42.999 18
c-15.333 0 -26.666 -14.333 -33.999 -43z" />
    <glyph glyph-name="Ograve" unicode="&#xd2;" horiz-adv-x="668" 
d="M305 -11h-0.999023c-82.667 0 -146 26.5 -190 79.5s-66 117.833 -66 194.5c0 60.667 11.5 121 34.5 181s54.5 110 94.5 150c29.333 28.667 63.833 51 103.5 67s80.5 24 122.5 24c58 0 106.667 -13.333 146 -40s67.333 -60 84 -100s25 -85.333 25 -136
c0 -60.667 -10.833 -120.5 -32.5 -179.5s-51.834 -107.833 -90.501 -146.5c-64 -62.667 -140.667 -94 -230 -94zM315.001 59l1 -0.00390625c58 0 109.333 22.333 154 67c30.667 30.667 55 72.5 73 125.5s27 104.167 27 153.5c0 26.667 -2.5 51.334 -7.5 74.001
s-13.667 44.834 -26 66.501s-30.833 38.667 -55.5 51s-54.334 18.5 -89.001 18.5c-58 0 -109.333 -22.333 -154 -67c-31.333 -31.333 -56.166 -73.166 -74.499 -125.499s-27.5 -103.166 -27.5 -152.499c0 -60.667 14.5 -111 43.5 -151s74.167 -60 135.5 -60z
M288.001 827.996h103l75 -117h-68z" />
    <glyph glyph-name="Oacute" unicode="&#xd3;" horiz-adv-x="668" 
d="M305 -11h-0.999023c-82.667 0 -146 26.5 -190 79.5s-66 117.833 -66 194.5c0 60.667 11.5 121 34.5 181s54.5 110 94.5 150c29.333 28.667 63.833 51 103.5 67s80.5 24 122.5 24c58 0 106.667 -13.333 146 -40s67.333 -60 84 -100s25 -85.333 25 -136
c0 -60.667 -10.833 -120.5 -32.5 -179.5s-51.834 -107.833 -90.501 -146.5c-64 -62.667 -140.667 -94 -230 -94zM315.001 59l1 -0.00390625c58 0 109.333 22.333 154 67c30.667 30.667 55 72.5 73 125.5s27 104.167 27 153.5c0 26.667 -2.5 51.334 -7.5 74.001
s-13.667 44.834 -26 66.501s-30.833 38.667 -55.5 51s-54.334 18.5 -89.001 18.5c-58 0 -109.333 -22.333 -154 -67c-31.333 -31.333 -56.166 -73.166 -74.499 -125.499s-27.5 -103.166 -27.5 -152.499c0 -60.667 14.5 -111 43.5 -151s74.167 -60 135.5 -60z
M470.001 828.996h108l-136 -118h-74z" />
    <glyph glyph-name="Ocircumflex" unicode="&#xd4;" horiz-adv-x="668" 
d="M305 -11h-0.999023c-82.667 0 -146 26.5 -190 79.5s-66 117.833 -66 194.5c0 60.667 11.5 121 34.5 181s54.5 110 94.5 150c29.333 28.667 63.833 51 103.5 67s80.5 24 122.5 24c58 0 106.667 -13.333 146 -40s67.333 -60 84 -100s25 -85.333 25 -136
c0 -60.667 -10.833 -120.5 -32.5 -179.5s-51.834 -107.833 -90.501 -146.5c-64 -62.667 -140.667 -94 -230 -94zM315.001 59l1 -0.00390625c58 0 109.333 22.333 154 67c30.667 30.667 55 72.5 73 125.5s27 104.167 27 153.5c0 26.667 -2.5 51.334 -7.5 74.001
s-13.667 44.834 -26 66.501s-30.833 38.667 -55.5 51s-54.334 18.5 -89.001 18.5c-58 0 -109.333 -22.333 -154 -67c-31.333 -31.333 -56.166 -73.166 -74.499 -125.499s-27.5 -103.166 -27.5 -152.499c0 -60.667 14.5 -111 43.5 -151s74.167 -60 135.5 -60z
M402.001 827.996h65l80 -118h-68l-49 72h-2l-72 -72h-74z" />
    <glyph glyph-name="Otilde" unicode="&#xd5;" horiz-adv-x="668" 
d="M305 -11h-0.999023c-82.667 0 -146 26.5 -190 79.5s-66 117.833 -66 194.5c0 60.667 11.5 121 34.5 181s54.5 110 94.5 150c29.333 28.667 63.833 51 103.5 67s80.5 24 122.5 24c58 0 106.667 -13.333 146 -40s67.333 -60 84 -100s25 -85.333 25 -136
c0 -60.667 -10.833 -120.5 -32.5 -179.5s-51.834 -107.833 -90.501 -146.5c-64 -62.667 -140.667 -94 -230 -94zM315.001 59l1 -0.00390625c58 0 109.333 22.333 154 67c30.667 30.667 55 72.5 73 125.5s27 104.167 27 153.5c0 26.667 -2.5 51.334 -7.5 74.001
s-13.667 44.834 -26 66.501s-30.833 38.667 -55.5 51s-54.334 18.5 -89.001 18.5c-58 0 -109.333 -22.333 -154 -67c-31.333 -31.333 -56.166 -73.166 -74.499 -125.499s-27.5 -103.166 -27.5 -152.499c0 -60.667 14.5 -111 43.5 -151s74.167 -60 135.5 -60z
M344.001 715.996h-47.002c5.33301 30 15.333 54.167 30 72.5s32 27.5 52 27.5c18.667 0 38.667 -7 60 -21c18 -12 32.667 -18 44 -18c15.333 0 27 13.333 35 40h46c-11.333 -64 -39 -96 -83 -96c-18 0 -38 6.66699 -60 20c-21.333 12.667 -35.666 18.667 -42.999 18
c-15.333 0 -26.666 -14.333 -33.999 -43z" />
    <glyph glyph-name="Odieresis" unicode="&#xd6;" horiz-adv-x="668" 
d="M305 -11h-0.999023c-82.667 0 -146 26.5 -190 79.5s-66 117.833 -66 194.5c0 60.667 11.5 121 34.5 181s54.5 110 94.5 150c29.333 28.667 63.833 51 103.5 67s80.5 24 122.5 24c58 0 106.667 -13.333 146 -40s67.333 -60 84 -100s25 -85.333 25 -136
c0 -60.667 -10.833 -120.5 -32.5 -179.5s-51.834 -107.833 -90.501 -146.5c-64 -62.667 -140.667 -94 -230 -94zM315.001 59l1 -0.00390625c58 0 109.333 22.333 154 67c30.667 30.667 55 72.5 73 125.5s27 104.167 27 153.5c0 26.667 -2.5 51.334 -7.5 74.001
s-13.667 44.834 -26 66.501s-30.833 38.667 -55.5 51s-54.334 18.5 -89.001 18.5c-58 0 -109.333 -22.333 -154 -67c-31.333 -31.333 -56.166 -73.166 -74.499 -125.499s-27.5 -103.166 -27.5 -152.499c0 -60.667 14.5 -111 43.5 -151s74.167 -60 135.5 -60z
M336.001 719.996l-1 0.00195312c-12.667 0 -23.5 4.66699 -32.5 14s-13.5 20.666 -13.5 33.999c0 14.667 5 27.167 15 37.5s22.333 15.5 37 15.5c14 0 25.333 -4.83301 34 -14.5s13 -20.834 13 -33.501c0 -14.667 -5 -27.167 -15 -37.5s-22.333 -15.5 -37 -15.5z
M520.001 719.998l-1 0.00195312c-12.667 0 -23.5 4.66699 -32.5 14s-13.5 20.666 -13.5 33.999c0 14.667 5 27.167 15 37.5s22.333 15.5 37 15.5c14 0 25.333 -4.83301 34 -14.5s13 -20.834 13 -33.501c0 -14.667 -5 -27.167 -15 -37.5s-22.333 -15.5 -37 -15.5z" />
    <glyph glyph-name="multiply" unicode="&#xd7;" horiz-adv-x="596" 
d="M63 483l43 44l204 -222l205 222l43 -43l-207 -220l207 -220l-44 -44l-205 223l-205 -223l-41 45l205 219z" />
    <glyph glyph-name="Oslash" unicode="&#xd8;" horiz-adv-x="667" 
d="M64 -42l-40.998 38.999l77 88c-34.667 50.667 -52 111.667 -52 183c0 59.333 10.667 117.166 32 173.499s51 103.833 89 142.5c65.333 67.333 142.666 101 231.999 101c70.667 0 126 -19 166 -57l76 85l45 -36l-80 -91c32.667 -47.333 49 -106 49 -176
c0 -59.333 -10.667 -118.166 -32 -176.499s-50.333 -106.833 -87 -145.5c-30 -31.333 -65.333 -55.666 -106 -72.999s-82.334 -26 -125.001 -26c-68 0 -123 19 -165 57zM160.002 154.999l357 412c-28.667 32 -70 48 -124 48c-54.667 0 -104 -20.5 -148 -61.5
s-75.333 -93.167 -94 -156.5c-26 -88 -24 -168.667 6 -242h3zM547.002 511.999l-354.001 -406.999c29.333 -30.667 71.333 -46 126 -46c50 0 96.333 19.167 139 57.5s73.667 88.166 93 149.499c28.667 90 28.334 172 -0.999023 246h-3z" />
    <glyph glyph-name="Ugrave" unicode="&#xd9;" horiz-adv-x="621" 
d="M158 674h83l-76 -399c-5.33301 -30 -8 -58.333 -8 -85c0 -42 11.167 -74.167 33.5 -96.5s52.833 -33.5 91.5 -33.5c98 0 160.667 71.333 188 214l77 400h83l-77 -403c-36.667 -188 -130.667 -282 -282 -282c-58.667 0 -106.167 16.5 -142.5 49.5
s-54.5 82.833 -54.5 149.5c0 30.667 3 61.667 9 93zM273 828h103l75 -117h-68z" />
    <glyph glyph-name="Uacute" unicode="&#xda;" horiz-adv-x="621" 
d="M158 674h83l-76 -399c-5.33301 -30 -8 -58.333 -8 -85c0 -42 11.167 -74.167 33.5 -96.5s52.833 -33.5 91.5 -33.5c98 0 160.667 71.333 188 214l77 400h83l-77 -403c-36.667 -188 -130.667 -282 -282 -282c-58.667 0 -106.167 16.5 -142.5 49.5
s-54.5 82.833 -54.5 149.5c0 30.667 3 61.667 9 93zM438 828h108l-136 -118h-74z" />
    <glyph glyph-name="Ucircumflex" unicode="&#xdb;" horiz-adv-x="621" 
d="M158 674h83l-76 -399c-5.33301 -30 -8 -58.333 -8 -85c0 -42 11.167 -74.167 33.5 -96.5s52.833 -33.5 91.5 -33.5c98 0 160.667 71.333 188 214l77 400h83l-77 -403c-36.667 -188 -130.667 -282 -282 -282c-58.667 0 -106.167 16.5 -142.5 49.5
s-54.5 82.833 -54.5 149.5c0 30.667 3 61.667 9 93zM389 828h65l80 -118h-68l-49 72h-2l-72 -72h-74z" />
    <glyph glyph-name="Udieresis" unicode="&#xdc;" horiz-adv-x="621" 
d="M158 674h83l-76 -399c-5.33301 -30 -8 -58.333 -8 -85c0 -42 11.167 -74.167 33.5 -96.5s52.833 -33.5 91.5 -33.5c98 0 160.667 71.333 188 214l77 400h83l-77 -403c-36.667 -188 -130.667 -282 -282 -282c-58.667 0 -106.167 16.5 -142.5 49.5
s-54.5 82.833 -54.5 149.5c0 30.667 3 61.667 9 93zM313 720l-1 0.00195312c-12.667 0 -23.5 4.66699 -32.5 14s-13.5 20.666 -13.5 33.999c0 14.667 5 27.167 15 37.5s22.333 15.5 37 15.5c14 0 25.333 -4.83301 34 -14.5s13 -20.834 13 -33.501
c0 -14.667 -5 -27.167 -15 -37.5s-22.333 -15.5 -37 -15.5zM497 720.002l-1 0.00195312c-12.667 0 -23.5 4.66699 -32.5 14s-13.5 20.666 -13.5 33.999c0 14.667 5 27.167 15 37.5s22.333 15.5 37 15.5c14 0 25.333 -4.83301 34 -14.5s13 -20.834 13 -33.501
c0 -14.667 -5 -27.167 -15 -37.5s-22.333 -15.5 -37 -15.5z" />
    <glyph glyph-name="Yacute" unicode="&#xdd;" horiz-adv-x="517" 
d="M243 0h-81.999l53 280l-130 394h89l65 -218c13.333 -46 22.666 -83.667 27.999 -113h2l72 116l146 215h97l-287 -393zM386.001 828h108l-136 -118h-74z" />
    <glyph glyph-name="Thorn" unicode="&#xde;" horiz-adv-x="507" 
d="M32 0l127.999 674.001h81l-25 -132c20.667 4.66699 47.334 7 80.001 7c68 0 119 -17.333 153 -52c30 -28.667 45 -66.334 45 -113.001c0 -72.667 -27 -129.667 -81 -171s-119 -62 -195 -62c-26 0 -51.333 1.66699 -76 5l-29 -156h-81zM202.999 474.001l-46.999 -249
c18.667 -4 42 -6 70 -6c50.667 0 94 14.333 130 43s54 66 54 112c0 36 -12 63 -36 81s-56.333 27 -97 27c-30.667 0 -55.334 -2.66699 -74.001 -8z" />
    <glyph glyph-name="germandbls" unicode="&#xdf;" horiz-adv-x="538" 
d="M111 0l-82.998 -0.00390625l88 461c32.667 173.333 114.667 260 246 260c48 0 86.167 -13.333 114.5 -40s42.5 -60.667 42.5 -102c0 -20.667 -4 -41 -12 -61s-17.667 -35.333 -29 -46c-58 -21.333 -87 -52.333 -87 -93c0 -22.667 12.333 -50.667 37 -84
c34 -46 51 -89.333 51 -130c0 -54 -19 -96.833 -57 -128.5s-84.667 -47.5 -140 -47.5c-40.667 0 -74 7.66699 -100 23l23 63c23.333 -13.333 49 -20 77 -20c32.667 0 59.5 9.33301 80.5 28s31.5 43.334 31.5 74.001c0 28.667 -12.333 59.334 -37 92.001
c-34 42.667 -51 80.334 -51 113.001c0 31.333 10 59 30 83s46 43 78 57c15.333 15.333 23 38.333 23 69c0 22.667 -7.33301 42 -22 58s-36.334 24 -65.001 24c-36.667 0 -67.834 -15.167 -93.501 -45.5s-44.167 -75.166 -55.5 -134.499z" />
    <glyph glyph-name="agrave" unicode="&#xe0;" horiz-adv-x="522" 
d="M426 0h-76.999c0 22 3.66699 63.667 11 125h-2c-47.333 -90.667 -110 -136 -188 -136c-42 0 -75.667 15 -101 45s-38 68.333 -38 115c0 58 12.833 112.833 38.5 164.5s64.667 94.834 117 129.501s112.166 52 179.499 52c46 0 89.333 -6 130 -18l-50 -253
c-16 -82.667 -22.667 -157.334 -20 -224.001zM375.001 276l27.999 145.999c-14 4.66699 -33.333 7 -58 7c-61.333 0 -114.666 -27 -159.999 -81s-68 -115.333 -68 -184c0 -71.333 27.667 -107 83 -107c36 0 71.333 20.833 106 62.5s57.667 93.834 69 156.501zM226 685.999
h94l66 -143h-60z" />
    <glyph glyph-name="aacute" unicode="&#xe1;" horiz-adv-x="522" 
d="M426 0h-76.999c0 22 3.66699 63.667 11 125h-2c-47.333 -90.667 -110 -136 -188 -136c-42 0 -75.667 15 -101 45s-38 68.333 -38 115c0 58 12.833 112.833 38.5 164.5s64.667 94.834 117 129.501s112.166 52 179.499 52c46 0 89.333 -6 130 -18l-50 -253
c-16 -82.667 -22.667 -157.334 -20 -224.001zM375.001 276l27.999 145.999c-14 4.66699 -33.333 7 -58 7c-61.333 0 -114.666 -27 -159.999 -81s-68 -115.333 -68 -184c0 -71.333 27.667 -107 83 -107c36 0 71.333 20.833 106 62.5s57.667 93.834 69 156.501zM395 685.999
h100l-133 -143h-65z" />
    <glyph glyph-name="acircumflex" unicode="&#xe2;" horiz-adv-x="522" 
d="M426 0h-76.999c0 22 3.66699 63.667 11 125h-2c-47.333 -90.667 -110 -136 -188 -136c-42 0 -75.667 15 -101 45s-38 68.333 -38 115c0 58 12.833 112.833 38.5 164.5s64.667 94.834 117 129.501s112.166 52 179.499 52c46 0 89.333 -6 130 -18l-50 -253
c-16 -82.667 -22.667 -157.334 -20 -224.001zM375.001 276l27.999 145.999c-14 4.66699 -33.333 7 -58 7c-61.333 0 -114.666 -27 -159.999 -81s-68 -115.333 -68 -184c0 -71.333 27.667 -107 83 -107c36 0 71.333 20.833 106 62.5s57.667 93.834 69 156.501zM329 685.999
h59l69 -143h-62l-43 91h-2l-70 -91h-67z" />
    <glyph glyph-name="atilde" unicode="&#xe3;" horiz-adv-x="522" 
d="M426 0h-76.999c0 22 3.66699 63.667 11 125h-2c-47.333 -90.667 -110 -136 -188 -136c-42 0 -75.667 15 -101 45s-38 68.333 -38 115c0 58 12.833 112.833 38.5 164.5s64.667 94.834 117 129.501s112.166 52 179.499 52c46 0 89.333 -6 130 -18l-50 -253
c-16 -82.667 -22.667 -157.334 -20 -224.001zM375.001 276l27.999 145.999c-14 4.66699 -33.333 7 -58 7c-61.333 0 -114.666 -27 -159.999 -81s-68 -115.333 -68 -184c0 -71.333 27.667 -107 83 -107c36 0 71.333 20.833 106 62.5s57.667 93.834 69 156.501zM259 567.999
l-48.001 -0.000976562c3.33301 30 11.833 54.167 25.5 72.5s30.834 27.5 51.501 27.5c14.667 0 35 -7.33301 61 -22c18.667 -11.333 32 -17 40 -17c8.66699 0 15.167 2.83301 19.5 8.5s7.83301 16.834 10.5 33.501h47c-8 -64 -33.667 -96 -77 -96
c-18 0 -37.667 6.66699 -59 20c-18.667 12 -32.667 18 -42 18c-13.333 0 -23 -15 -29 -45z" />
    <glyph glyph-name="adieresis" unicode="&#xe4;" horiz-adv-x="522" 
d="M426 0h-76.999c0 22 3.66699 63.667 11 125h-2c-47.333 -90.667 -110 -136 -188 -136c-42 0 -75.667 15 -101 45s-38 68.333 -38 115c0 58 12.833 112.833 38.5 164.5s64.667 94.834 117 129.501s112.166 52 179.499 52c46 0 89.333 -6 130 -18l-50 -253
c-16 -82.667 -22.667 -157.334 -20 -224.001zM375.001 276l27.999 145.999c-14 4.66699 -33.333 7 -58 7c-61.333 0 -114.666 -27 -159.999 -81s-68 -115.333 -68 -184c0 -71.333 27.667 -107 83 -107c36 0 71.333 20.833 106 62.5s57.667 93.834 69 156.501zM246 569.999
h-0.999023c-13.333 0 -24.5 4.66699 -33.5 14s-13.5 21 -13.5 35c0 14.667 5 27.167 15 37.5s22.333 15.5 37 15.5c14 0 25.333 -4.66699 34 -14s13 -21 13 -35c0 -14.667 -4.83301 -27.167 -14.5 -37.5s-21.834 -15.5 -36.501 -15.5zM428.001 569.999h-1
c-13.333 0 -24.333 4.66699 -33 14s-13 21 -13 35c0 14.667 5 27.167 15 37.5s22.333 15.5 37 15.5c14 0 25.333 -4.66699 34 -14s13 -21 13 -35c0 -14.667 -4.83301 -27.167 -14.5 -37.5s-22.167 -15.5 -37.5 -15.5z" />
    <glyph glyph-name="aring" unicode="&#xe5;" horiz-adv-x="522" 
d="M426 0h-76.999c0 22 3.66699 63.667 11 125h-2c-47.333 -90.667 -110 -136 -188 -136c-42 0 -75.667 15 -101 45s-38 68.333 -38 115c0 58 12.833 112.833 38.5 164.5s64.667 94.834 117 129.501s112.166 52 179.499 52c46 0 89.333 -6 130 -18l-50 -253
c-16 -82.667 -22.667 -157.334 -20 -224.001zM375.001 276l27.999 145.999c-14 4.66699 -33.333 7 -58 7c-61.333 0 -114.666 -27 -159.999 -81s-68 -115.333 -68 -184c0 -71.333 27.667 -107 83 -107c36 0 71.333 20.833 106 62.5s57.667 93.834 69 156.501zM343 719.999h1
c27.333 0 50 -8.33301 68 -25s27 -38.667 27 -66c-0.666992 -28 -11.167 -50.833 -31.5 -68.5s-44.5 -26.5 -72.5 -26.5c-27.333 0 -50 8.16699 -68 24.5s-27.333 37.5 -28 63.5c-0.666992 28.667 9 52.167 29 70.5s45 27.5 75 27.5zM340 681.999h-1
c-14.667 0 -26.667 -5.5 -36 -16.5s-14 -24.833 -14 -41.5c0 -14 4.5 -26.167 13.5 -36.5s20.5 -15.5 34.5 -15.5c14.667 0 27 5.5 37 16.5s15 24.833 15 41.5c0 14.667 -4.5 27 -13.5 37s-20.833 15 -35.5 15z" />
    <glyph glyph-name="ae" unicode="&#xe6;" horiz-adv-x="718" 
d="M631 89l9.99609 -59.9971c-43.333 -26.667 -96.333 -40 -159 -40c-39.333 0 -72.833 9.33301 -100.5 28s-46.834 45 -57.501 79h-2c-19.333 -33.333 -45.166 -59.5 -77.499 -78.5s-67.5 -28.5 -105.5 -28.5c-41.333 0 -73.666 11.833 -96.999 35.5
s-35.333 53.167 -36 88.5c0 62.667 29.333 110.667 88 144s134.334 48.333 227.001 45l3 19c4.66699 27.333 -0.333008 52.666 -15 75.999s-40.334 35 -77.001 35c-42.667 0 -84.667 -13.333 -126 -40l-17 56c48.667 31.333 99.667 47 153 47
c38.667 0 69.834 -8.83301 93.501 -26.5s38.5 -42.834 44.5 -75.501h2c20.667 33.333 47.334 58.666 80.001 75.999s67.334 26 104.001 26c44 0 78.167 -11.5 102.5 -34.5s36.5 -50.167 36.5 -81.5c0 -32.667 -8.33301 -59.5 -25 -80.5s-41 -36.167 -73 -45.5
s-65.333 -15.5 -100 -18.5s-76 -3.5 -124 -1.5c-8 -46 -6.33301 -83.333 5 -112c19.333 -43.333 56.333 -65 111 -65c45.333 0 89.333 11 132 33zM300.996 189.003l9.00098 53.999c-24 1.33301 -47.5 0.5 -70.5 -2.5s-46.333 -8.33301 -70 -16
s-42.834 -20.167 -57.501 -37.5s-22 -38.333 -22 -63c0 -21.333 6.5 -38.166 19.5 -50.499s30.167 -18.5 51.5 -18.5c32 0 61.333 11.667 88 35s44 56.333 52 99zM622.997 372.002l0.000976562 0.999023c0 16 -6.16699 29.667 -18.5 41s-29.833 17 -52.5 17
c-39.333 0 -73.166 -14.5 -101.499 -43.5s-46.833 -60.167 -55.5 -93.5c30 -2 58.667 -2.16699 86 -0.5s51.666 4.66699 72.999 9s38.166 12.333 50.499 24s18.5 26.834 18.5 45.501z" />
    <glyph glyph-name="ccedilla" unicode="&#xe7;" horiz-adv-x="423" 
d="M352 85l7.99805 -63.999c-36 -17.333 -71.333 -27 -106 -29l-31 -42c36 -9.33301 54 -31 54 -65c0 -26 -10.667 -46.833 -32 -62.5s-46.666 -23.5 -75.999 -23.5c-28 0 -50.333 5.66699 -67 17l18 43c16.667 -9.33301 34.334 -14 53.001 -14
c12 0 22.167 3.16699 30.5 9.5s12.5 15.166 12.5 26.499c0 22 -22 35 -66 39l51 71c-55.333 3.33301 -97 22.5 -125 57.5s-42 77.833 -42 128.5c0 85.333 28.167 159.666 84.5 222.999s127.166 95 212.499 95c44 0 77.333 -7.33301 100 -22l-24 -65
c-25.333 12 -52.666 18 -81.999 18c-59.333 0 -108.333 -24.5 -147 -73.5s-58 -104.167 -58 -165.5c0 -39.333 10.333 -70.666 31 -93.999s50.334 -35 89.001 -35c35.333 0 72.666 9 111.999 27z" />
    <glyph glyph-name="egrave" unicode="&#xe8;" horiz-adv-x="453" 
d="M365 90l12 -61.999c-45.333 -25.333 -98.666 -38 -159.999 -38c-60.667 0 -106.5 18 -137.5 54s-46.5 82.667 -46.5 140c0 49.333 10.833 97.666 32.5 144.999s53.167 86.833 94.5 118.5s87 47.5 137 47.5c44.667 0 79.5 -11.667 104.5 -35s37.5 -53.333 37.5 -90
c0 -108 -107.333 -160.333 -322 -157c-2 -10 -2.16699 -24.667 -0.5 -44s5.16699 -35 10.5 -47c18.667 -43.333 54.667 -65 108 -65c45.333 0 88.666 11 129.999 33zM359 368.001l0.000976562 1c0 19.333 -6.66699 34.333 -20 45s-31.333 16 -54 16
c-37.333 0 -70.333 -15.167 -99 -45.5s-48.334 -66.166 -59.001 -107.499c154.667 -2.66699 232 27.666 232 90.999zM190.001 686.001h94l66 -143h-60z" />
    <glyph glyph-name="eacute" unicode="&#xe9;" horiz-adv-x="453" 
d="M365 90l12 -61.999c-45.333 -25.333 -98.666 -38 -159.999 -38c-60.667 0 -106.5 18 -137.5 54s-46.5 82.667 -46.5 140c0 49.333 10.833 97.666 32.5 144.999s53.167 86.833 94.5 118.5s87 47.5 137 47.5c44.667 0 79.5 -11.667 104.5 -35s37.5 -53.333 37.5 -90
c0 -108 -107.333 -160.333 -322 -157c-2 -10 -2.16699 -24.667 -0.5 -44s5.16699 -35 10.5 -47c18.667 -43.333 54.667 -65 108 -65c45.333 0 88.666 11 129.999 33zM359 368.001l0.000976562 1c0 19.333 -6.66699 34.333 -20 45s-31.333 16 -54 16
c-37.333 0 -70.333 -15.167 -99 -45.5s-48.334 -66.166 -59.001 -107.499c154.667 -2.66699 232 27.666 232 90.999zM350.001 686.001h100l-133 -143h-65z" />
    <glyph glyph-name="ecircumflex" unicode="&#xea;" horiz-adv-x="453" 
d="M365 90l12 -61.999c-45.333 -25.333 -98.666 -38 -159.999 -38c-60.667 0 -106.5 18 -137.5 54s-46.5 82.667 -46.5 140c0 49.333 10.833 97.666 32.5 144.999s53.167 86.833 94.5 118.5s87 47.5 137 47.5c44.667 0 79.5 -11.667 104.5 -35s37.5 -53.333 37.5 -90
c0 -108 -107.333 -160.333 -322 -157c-2 -10 -2.16699 -24.667 -0.5 -44s5.16699 -35 10.5 -47c18.667 -43.333 54.667 -65 108 -65c45.333 0 88.666 11 129.999 33zM359 368.001l0.000976562 1c0 19.333 -6.66699 34.333 -20 45s-31.333 16 -54 16
c-37.333 0 -70.333 -15.167 -99 -45.5s-48.334 -66.166 -59.001 -107.499c154.667 -2.66699 232 27.666 232 90.999zM296.001 686.001h59l69 -143h-62l-43 91h-2l-70 -91h-67z" />
    <glyph glyph-name="edieresis" unicode="&#xeb;" horiz-adv-x="453" 
d="M365 90l12 -61.999c-45.333 -25.333 -98.666 -38 -159.999 -38c-60.667 0 -106.5 18 -137.5 54s-46.5 82.667 -46.5 140c0 49.333 10.833 97.666 32.5 144.999s53.167 86.833 94.5 118.5s87 47.5 137 47.5c44.667 0 79.5 -11.667 104.5 -35s37.5 -53.333 37.5 -90
c0 -108 -107.333 -160.333 -322 -157c-2 -10 -2.16699 -24.667 -0.5 -44s5.16699 -35 10.5 -47c18.667 -43.333 54.667 -65 108 -65c45.333 0 88.666 11 129.999 33zM359 368.001l0.000976562 1c0 19.333 -6.66699 34.333 -20 45s-31.333 16 -54 16
c-37.333 0 -70.333 -15.167 -99 -45.5s-48.334 -66.166 -59.001 -107.499c154.667 -2.66699 232 27.666 232 90.999zM222.001 570.001h-0.999023c-13.333 0 -24.5 4.66699 -33.5 14s-13.5 21 -13.5 35c0 14.667 5 27.167 15 37.5s22.333 15.5 37 15.5
c14 0 25.333 -4.66699 34 -14s13 -21 13 -35c0 -14.667 -4.83301 -27.167 -14.5 -37.5s-21.834 -15.5 -36.501 -15.5zM404.002 570.001h-1c-13.333 0 -24.333 4.66699 -33 14s-13 21 -13 35c0 14.667 5 27.167 15 37.5s22.333 15.5 37 15.5c14 0 25.333 -4.66699 34 -14
s13 -21 13 -35c0 -14.667 -4.83301 -27.167 -14.5 -37.5s-22.167 -15.5 -37.5 -15.5z" />
    <glyph glyph-name="igrave" unicode="&#xec;" horiz-adv-x="229" 
d="M111 0h-83l92 484h83zM50 686h94l66 -143h-60z" />
    <glyph glyph-name="iacute" unicode="&#xed;" horiz-adv-x="229" 
d="M111 0h-83l92 484h83zM223 686h100l-133 -143h-65z" />
    <glyph glyph-name="icircumflex" unicode="&#xee;" horiz-adv-x="229" 
d="M111 0h-83l92 484h83zM162 686h59l69 -143h-62l-43 91h-2l-70 -91h-67z" />
    <glyph glyph-name="idieresis" unicode="&#xef;" horiz-adv-x="229" 
d="M111 0h-83l92 484h83zM91 570h-0.999023c-13.333 0 -24.5 4.66699 -33.5 14s-13.5 21 -13.5 35c0 14.667 5 27.167 15 37.5s22.333 15.5 37 15.5c14 0 25.333 -4.66699 34 -14s13 -21 13 -35c0 -14.667 -4.83301 -27.167 -14.5 -37.5s-21.834 -15.5 -36.501 -15.5z
M273.001 570h-1c-13.333 0 -24.333 4.66699 -33 14s-13 21 -13 35c0 14.667 5 27.167 15 37.5s22.333 15.5 37 15.5c14 0 25.333 -4.66699 34 -14s13 -21 13 -35c0 -14.667 -4.83301 -27.167 -14.5 -37.5s-22.167 -15.5 -37.5 -15.5z" />
    <glyph glyph-name="eth" unicode="&#xf0;" horiz-adv-x="516" 
d="M227 54h1c48 0 88.167 24.5 120.5 73.5s49.166 105.833 50.499 170.5c1.33301 32 -3.66699 57 -15 75c-20 32 -50.667 48 -92 48c-49.333 0 -90.5 -24.5 -123.5 -73.5s-49.5 -103.167 -49.5 -162.5c0 -37.333 9.33301 -68.5 28 -93.5s45.334 -37.5 80.001 -37.5zM165 507
l-17.001 41.999l128 58c-23.333 23.333 -53 44 -89 62l39 50c38 -17.333 78.333 -44 121 -80l130 59l18 -43l-112 -50c68.667 -75.333 103 -165 103 -269c0 -102.667 -26 -186.167 -78 -250.5s-114 -96.5 -186 -96.5c-62 0 -109 18.833 -141 56.5s-48 83.834 -48 138.501
c0 80.667 24.833 150.667 74.5 210s109.834 89.333 180.501 90c47.333 0 82.333 -15.667 105 -47l3 1c-18 52.667 -46.333 98 -85 136z" />
    <glyph glyph-name="ntilde" unicode="&#xf1;" horiz-adv-x="534" 
d="M111 0h-81.999l64 343c9.33301 45.333 17 92.333 23 141h75l-13 -95h2c46 70.667 106 106 180 106c33.333 0 62 -10.833 86 -32.5s36 -55.5 36 -101.5c0 -20.667 -3 -46.667 -9 -78l-54 -283h-82l53 280c4 25.333 6 46 6 62c0 56 -25.333 84 -76 84
c-32 0 -64.833 -17.667 -98.5 -53s-55.834 -81.333 -66.501 -138zM252.001 568l-48 -0.000976562c3.33301 30 11.833 54.167 25.5 72.5s30.834 27.5 51.501 27.5c15.333 0 35.666 -7.33301 60.999 -22c18.667 -11.333 32 -17 40 -17c8.66699 0 15.167 2.83301 19.5 8.5
s7.83301 16.834 10.5 33.501h47c-8 -64 -33.667 -96 -77 -96c-18 0 -37.667 6.66699 -59 20c-18.667 12 -32.667 18 -42 18c-13.333 0 -23 -15 -29 -45z" />
    <glyph glyph-name="ograve" unicode="&#xf2;" horiz-adv-x="522" 
d="M225 -11l-0.999023 -0.000976562c-58.667 0 -104.834 19 -138.501 57s-50.5 85.333 -50.5 142c0 82.667 25.5 154.5 76.5 215.5s114.833 91.5 191.5 91.5c61.333 0 108.333 -19.667 141 -59s49 -86.666 49 -141.999c0 -79.333 -25.333 -150 -76 -212
s-114.667 -93 -192 -93zM234.001 54.999l1 -0.000976562c47.333 0 87.833 25 121.5 75s50.5 104.667 50.5 164c0 34.667 -9 65.834 -27 93.501s-46.667 41.5 -86 41.5c-49.333 0 -90.5 -24.833 -123.5 -74.5s-49.5 -104.167 -49.5 -163.5c0 -40 10.333 -72.667 31 -98
s48 -38 82 -38zM195.001 685.998h94l66 -143h-60z" />
    <glyph glyph-name="oacute" unicode="&#xf3;" horiz-adv-x="522" 
d="M225 -11l-0.999023 -0.000976562c-58.667 0 -104.834 19 -138.501 57s-50.5 85.333 -50.5 142c0 82.667 25.5 154.5 76.5 215.5s114.833 91.5 191.5 91.5c61.333 0 108.333 -19.667 141 -59s49 -86.666 49 -141.999c0 -79.333 -25.333 -150 -76 -212
s-114.667 -93 -192 -93zM234.001 54.999l1 -0.000976562c47.333 0 87.833 25 121.5 75s50.5 104.667 50.5 164c0 34.667 -9 65.834 -27 93.501s-46.667 41.5 -86 41.5c-49.333 0 -90.5 -24.833 -123.5 -74.5s-49.5 -104.167 -49.5 -163.5c0 -40 10.333 -72.667 31 -98
s48 -38 82 -38zM366.001 685.998h100l-133 -143h-65z" />
    <glyph glyph-name="ocircumflex" unicode="&#xf4;" horiz-adv-x="522" 
d="M225 -11l-0.999023 -0.000976562c-58.667 0 -104.834 19 -138.501 57s-50.5 85.333 -50.5 142c0 82.667 25.5 154.5 76.5 215.5s114.833 91.5 191.5 91.5c61.333 0 108.333 -19.667 141 -59s49 -86.666 49 -141.999c0 -79.333 -25.333 -150 -76 -212
s-114.667 -93 -192 -93zM234.001 54.999l1 -0.000976562c47.333 0 87.833 25 121.5 75s50.5 104.667 50.5 164c0 34.667 -9 65.834 -27 93.501s-46.667 41.5 -86 41.5c-49.333 0 -90.5 -24.833 -123.5 -74.5s-49.5 -104.167 -49.5 -163.5c0 -40 10.333 -72.667 31 -98
s48 -38 82 -38zM313.001 685.998h59l69 -143h-62l-43 91h-2l-70 -91h-67z" />
    <glyph glyph-name="otilde" unicode="&#xf5;" horiz-adv-x="522" 
d="M225 -11l-0.999023 -0.000976562c-58.667 0 -104.834 19 -138.501 57s-50.5 85.333 -50.5 142c0 82.667 25.5 154.5 76.5 215.5s114.833 91.5 191.5 91.5c61.333 0 108.333 -19.667 141 -59s49 -86.666 49 -141.999c0 -79.333 -25.333 -150 -76 -212
s-114.667 -93 -192 -93zM234.001 54.999l1 -0.000976562c47.333 0 87.833 25 121.5 75s50.5 104.667 50.5 164c0 34.667 -9 65.834 -27 93.501s-46.667 41.5 -86 41.5c-49.333 0 -90.5 -24.833 -123.5 -74.5s-49.5 -104.167 -49.5 -163.5c0 -40 10.333 -72.667 31 -98
s48 -38 82 -38zM237.001 567.998l-48.001 -0.000976562c3.33301 30 11.833 54.167 25.5 72.5s30.834 27.5 51.501 27.5c14.667 0 35 -7.33301 61 -22c18.667 -11.333 32 -17 40 -17c8.66699 0 15.167 2.83301 19.5 8.5s7.83301 16.834 10.5 33.501h47
c-8 -64 -33.667 -96 -77 -96c-18 0 -37.667 6.66699 -59 20c-18.667 12 -32.667 18 -42 18c-13.333 0 -23 -15 -29 -45z" />
    <glyph glyph-name="odieresis" unicode="&#xf6;" horiz-adv-x="522" 
d="M225 -11l-0.999023 -0.000976562c-58.667 0 -104.834 19 -138.501 57s-50.5 85.333 -50.5 142c0 82.667 25.5 154.5 76.5 215.5s114.833 91.5 191.5 91.5c61.333 0 108.333 -19.667 141 -59s49 -86.666 49 -141.999c0 -79.333 -25.333 -150 -76 -212
s-114.667 -93 -192 -93zM234.001 54.999l1 -0.000976562c47.333 0 87.833 25 121.5 75s50.5 104.667 50.5 164c0 34.667 -9 65.834 -27 93.501s-46.667 41.5 -86 41.5c-49.333 0 -90.5 -24.833 -123.5 -74.5s-49.5 -104.167 -49.5 -163.5c0 -40 10.333 -72.667 31 -98
s48 -38 82 -38zM240.001 569.998h-0.999023c-13.333 0 -24.5 4.66699 -33.5 14s-13.5 21 -13.5 35c0 14.667 5 27.167 15 37.5s22.333 15.5 37 15.5c14 0 25.333 -4.66699 34 -14s13 -21 13 -35c0 -14.667 -4.83301 -27.167 -14.5 -37.5s-21.834 -15.5 -36.501 -15.5z
M422.002 569.998h-1c-13.333 0 -24.333 4.66699 -33 14s-13 21 -13 35c0 14.667 5 27.167 15 37.5s22.333 15.5 37 15.5c14 0 25.333 -4.66699 34 -14s13 -21 13 -35c0 -14.667 -4.83301 -27.167 -14.5 -37.5s-22.167 -15.5 -37.5 -15.5z" />
    <glyph glyph-name="divide" unicode="&#xf7;" horiz-adv-x="596" 
d="M306 386h-1c-15.333 0 -27.833 5.16699 -37.5 15.5s-14.5 23.5 -14.5 39.5c0 16.667 5 30.167 15 40.5s22.667 15.5 38 15.5c16 0 28.833 -5.16699 38.5 -15.5s14.5 -23.833 14.5 -40.5c0 -16 -4.83301 -29.167 -14.5 -39.5s-22.5 -15.5 -38.5 -15.5zM556 237h-500v59
h500v-59zM306 36h-1c-15.333 0 -27.833 5.16699 -37.5 15.5s-14.5 23.5 -14.5 39.5c0 16.667 5 30.167 15 40.5s22.667 15.5 38 15.5c16 0 28.833 -5.16699 38.5 -15.5s14.5 -23.833 14.5 -40.5c0 -16 -4.83301 -29.167 -14.5 -39.5s-22.5 -15.5 -38.5 -15.5z" />
    <glyph glyph-name="oslash" unicode="&#xf8;" horiz-adv-x="523" 
d="M52 -38l-29.999 30l56 66c-28.667 34 -43 79.333 -43 136c0 80 25.5 150.167 76.5 210.5s114.167 90.5 189.5 90.5c47.333 0 86 -11.667 116 -35l55 61l33 -28l-55 -64c28.667 -38 43 -82.333 43 -133c0 -84 -25.833 -156.167 -77.5 -216.5
s-112.834 -90.5 -183.501 -90.5c-52 0 -93 13 -123 39zM139.001 125l230 277c-18 19.333 -43.667 29 -77 29c-49.333 0 -90.333 -24.333 -123 -73s-49 -100 -49 -154c0 -32.667 5.66699 -59 17 -79h2zM390.001 359l-231.999 -274.999c19.333 -20.667 46.333 -31 81 -31
c43.333 0 82.166 23.667 116.499 71s51.833 99.666 52.5 156.999c0 28 -5 54 -15 78h-3z" />
    <glyph glyph-name="ugrave" unicode="&#xf9;" horiz-adv-x="526" 
d="M418 484h83l-66 -343c-10 -54 -17 -101 -21 -141h-75l13 91h-2c-22 -32 -48 -57 -78 -75s-61 -27 -93 -27c-36 0 -66.333 10.667 -91 32s-37 57.333 -37 108c0 22.667 3 50 9 82l53 273h82l-51 -270c-5.33301 -28.667 -8 -52.334 -8 -71.001c0 -56 25.667 -84 77 -84
c32 0 64 16.833 96 50.5s52.667 75.834 62 126.501zM195 686h94l66 -143h-60z" />
    <glyph glyph-name="uacute" unicode="&#xfa;" horiz-adv-x="526" 
d="M418 484h83l-66 -343c-10 -54 -17 -101 -21 -141h-75l13 91h-2c-22 -32 -48 -57 -78 -75s-61 -27 -93 -27c-36 0 -66.333 10.667 -91 32s-37 57.333 -37 108c0 22.667 3 50 9 82l53 273h82l-51 -270c-5.33301 -28.667 -8 -52.334 -8 -71.001c0 -56 25.667 -84 77 -84
c32 0 64 16.833 96 50.5s52.667 75.834 62 126.501zM360 686h100l-133 -143h-65z" />
    <glyph glyph-name="ucircumflex" unicode="&#xfb;" horiz-adv-x="526" 
d="M418 484h83l-66 -343c-10 -54 -17 -101 -21 -141h-75l13 91h-2c-22 -32 -48 -57 -78 -75s-61 -27 -93 -27c-36 0 -66.333 10.667 -91 32s-37 57.333 -37 108c0 22.667 3 50 9 82l53 273h82l-51 -270c-5.33301 -28.667 -8 -52.334 -8 -71.001c0 -56 25.667 -84 77 -84
c32 0 64 16.833 96 50.5s52.667 75.834 62 126.501zM315 686h59l69 -143h-62l-43 91h-2l-70 -91h-67z" />
    <glyph glyph-name="udieresis" unicode="&#xfc;" horiz-adv-x="526" 
d="M418 484h83l-66 -343c-10 -54 -17 -101 -21 -141h-75l13 91h-2c-22 -32 -48 -57 -78 -75s-61 -27 -93 -27c-36 0 -66.333 10.667 -91 32s-37 57.333 -37 108c0 22.667 3 50 9 82l53 273h82l-51 -270c-5.33301 -28.667 -8 -52.334 -8 -71.001c0 -56 25.667 -84 77 -84
c32 0 64 16.833 96 50.5s52.667 75.834 62 126.501zM238 570h-0.999023c-13.333 0 -24.5 4.66699 -33.5 14s-13.5 21 -13.5 35c0 14.667 5 27.167 15 37.5s22.333 15.5 37 15.5c14 0 25.333 -4.66699 34 -14s13 -21 13 -35c0 -14.667 -4.83301 -27.167 -14.5 -37.5
s-21.834 -15.5 -36.501 -15.5zM420.001 570h-1c-13.333 0 -24.333 4.66699 -33 14s-13 21 -13 35c0 14.667 5 27.167 15 37.5s22.333 15.5 37 15.5c14 0 25.333 -4.66699 34 -14s13 -21 13 -35c0 -14.667 -4.83301 -27.167 -14.5 -37.5s-22.167 -15.5 -37.5 -15.5z" />
    <glyph glyph-name="yacute" unicode="&#xfd;" horiz-adv-x="441" 
d="M48 484l86.002 0.00195312l48 -260c9.33301 -48.667 16.666 -91.334 21.999 -128.001h2l52 119l124 269h88l-182 -368c-58.667 -117.333 -114.334 -202 -167.001 -254c-24 -24.667 -48.833 -43.834 -74.5 -57.501s-47.5 -22.5 -65.5 -26.5l-21 72
c35.333 12 65 27.333 89 46c38 28.667 69.333 66 94 112c3.33301 6.66699 4 14 2 22zM320.002 686.002h100l-133 -143h-65z" />
    <glyph glyph-name="thorn" unicode="&#xfe;" horiz-adv-x="526" 
d="M-15 -198l163.999 868.001h83l-53 -273h2c43.333 65.333 99 98 167 98c48.667 0 85.667 -16.667 111 -50s38 -75.333 38 -126c0 -88.667 -27.833 -165.834 -83.5 -231.501s-122.5 -98.5 -200.5 -98.5c-43.333 0 -77.666 7.33301 -102.999 22h-3l-39 -209h-83z
M145.999 216.001l-25.998 -136.002c21.333 -17.333 52.666 -26 93.999 -26c52 0 97.667 26.833 137 80.5s59 112.834 59 177.501c0 30.667 -7.33301 57.334 -22 80.001s-37.667 34 -69 34c-35.333 0 -69.833 -18.5 -103.5 -55.5s-56.834 -88.5 -69.501 -154.5z" />
    <glyph glyph-name="ydieresis" unicode="&#xff;" horiz-adv-x="441" 
d="M48 484l86.002 0.00195312l48 -260c9.33301 -48.667 16.666 -91.334 21.999 -128.001h2l52 119l124 269h88l-182 -368c-58.667 -117.333 -114.334 -202 -167.001 -254c-24 -24.667 -48.833 -43.834 -74.5 -57.501s-47.5 -22.5 -65.5 -26.5l-21 72
c35.333 12 65 27.333 89 46c38 28.667 69.333 66 94 112c3.33301 6.66699 4 14 2 22zM190.002 570.002h-0.999023c-13.333 0 -24.5 4.66699 -33.5 14s-13.5 21 -13.5 35c0 14.667 5 27.167 15 37.5s22.333 15.5 37 15.5c14 0 25.333 -4.66699 34 -14s13 -21 13 -35
c0 -14.667 -4.83301 -27.167 -14.5 -37.5s-21.834 -15.5 -36.501 -15.5zM372.003 570.002h-1c-13.333 0 -24.333 4.66699 -33 14s-13 21 -13 35c0 14.667 5 27.167 15 37.5s22.333 15.5 37 15.5c14 0 25.333 -4.66699 34 -14s13 -21 13 -35
c0 -14.667 -4.83301 -27.167 -14.5 -37.5s-22.167 -15.5 -37.5 -15.5z" />
    <glyph glyph-name="Amacron" unicode="&#x100;" horiz-adv-x="568" 
d="M401 213h-233l-107 -213h-87l348 674h98l93 -674h-85zM199 279h196.001l-27 195c-0.666992 6.66699 -2.33398 25.167 -5.00098 55.5l-6 68.5h-3c-2 -4 -9.66699 -21.5 -23 -52.5s-24 -54.5 -32 -70.5zM272.001 787h231l-10 -54h-231z" />
    <glyph glyph-name="amacron" unicode="&#x101;" horiz-adv-x="522" 
d="M426 0h-76.999c0 22 3.66699 63.667 11 125h-2c-47.333 -90.667 -110 -136 -188 -136c-42 0 -75.667 15 -101 45s-38 68.333 -38 115c0 58 12.833 112.833 38.5 164.5s64.667 94.834 117 129.501s112.166 52 179.499 52c46 0 89.333 -6 130 -18l-50 -253
c-16 -82.667 -22.667 -157.334 -20 -224.001zM375.001 276l27.999 145.999c-14 4.66699 -33.333 7 -58 7c-61.333 0 -114.666 -27 -159.999 -81s-68 -115.333 -68 -184c0 -71.333 27.667 -107 83 -107c36 0 71.333 20.833 106 62.5s57.667 93.834 69 156.501zM235 645.999
h219l-10 -53h-219z" />
    <glyph glyph-name="Abreve" unicode="&#x102;" horiz-adv-x="568" 
d="M401 213h-233l-107 -213h-87l348 674h98l93 -674h-85zM199 279h196.001l-27 195c-0.666992 6.66699 -2.33398 25.167 -5.00098 55.5l-6 68.5h-3c-2 -4 -9.66699 -21.5 -23 -52.5s-24 -54.5 -32 -70.5zM270.001 824l52.001 -0.000976562
c-0.666992 -15.333 3.83301 -28.166 13.5 -38.499s25.5 -15.5 47.5 -15.5c41.333 0 66.333 18 75 54h55c-5.33301 -30.667 -19.333 -56 -42 -76s-53.334 -30 -92.001 -30c-40.667 0 -70 10 -88 30s-25 45.333 -21 76z" />
    <glyph glyph-name="abreve" unicode="&#x103;" horiz-adv-x="522" 
d="M426 0h-76.999c0 22 3.66699 63.667 11 125h-2c-47.333 -90.667 -110 -136 -188 -136c-42 0 -75.667 15 -101 45s-38 68.333 -38 115c0 58 12.833 112.833 38.5 164.5s64.667 94.834 117 129.501s112.166 52 179.499 52c46 0 89.333 -6 130 -18l-50 -253
c-16 -82.667 -22.667 -157.334 -20 -224.001zM375.001 276l27.999 145.999c-14 4.66699 -33.333 7 -58 7c-61.333 0 -114.666 -27 -159.999 -81s-68 -115.333 -68 -184c0 -71.333 27.667 -107 83 -107c36 0 71.333 20.833 106 62.5s57.667 93.834 69 156.501zM229 682.999
h49.9961c-1.33301 -19.333 2.83398 -35.5 12.501 -48.5s23.834 -19.5 42.501 -19.5c40.667 0 67.334 22.667 80.001 68h52c-6 -36.667 -21.167 -66 -45.5 -88s-53.833 -33 -88.5 -33c-40.667 0 -69.167 11.667 -85.5 35s-22.166 52 -17.499 86z" />
    <glyph glyph-name="Aogonek" unicode="&#x104;" horiz-adv-x="568" 
d="M419 674l93.999 -673.999h-33c-36 -40.667 -54 -76.334 -54 -107.001c0 -12 3.66699 -21.667 11 -29s17 -11 29 -11c14 0 28.333 3.33301 43 10l9 -44c-19.333 -16.667 -46 -25 -80 -25c-25.333 0 -45 6.83301 -59 20.5s-21 32.5 -21 56.5
c0 6.66699 0.833008 13.5 2.5 20.5s3.5 13.5 5.5 19.5s5 12.5 9 19.5l10 18c2.66699 5 6.5 10.833 11.5 17.5l11 14.5l10.5 13.5c4.66699 6 7.33398 9.33301 8.00098 10l-25 209h-233l-107 -213h-87l348 674h97zM197.999 279.001h196l-26 195l-12 124h-2
c-2 -4 -9.66699 -21.5 -23 -52.5s-24 -54.5 -32 -70.5z" />
    <glyph glyph-name="aogonek" unicode="&#x105;" horiz-adv-x="522" 
d="M496 477l-49 -253c-16 -83.333 -22.667 -158 -20 -224h-20c-38 -42 -57 -78.333 -57 -109c0 -11.333 3.33301 -20.5 10 -27.5s15.667 -10.5 27 -10.5c15.333 0 30.333 3.33301 45 10l9 -44c-19.333 -16.667 -46 -25 -80 -25c-24.667 0 -44 6.83301 -58 20.5
s-21 32.5 -21 56.5c0 6.66699 0.833008 13.5 2.5 20.5s3.5 13.5 5.5 19.5s5 12.5 9 19.5l10 18c2.66699 5 6.5 10.833 11.5 17.5l11 14.5l10.5 13.5c4.66699 6 7.33398 9.33301 8.00098 10c1.33301 31.333 5 71.666 11 120.999h-2c-47.333 -90.667 -110 -136 -188 -136
c-42 0 -75.667 15 -101 45s-38 68.333 -38 115c0 58 12.833 112.833 38.5 164.5s64.667 94.834 117 129.501s111.833 52 178.5 52c47.333 0 90.666 -6 129.999 -18zM375 276l27.999 145.999c-14 4.66699 -33 7 -57 7c-61.333 0 -114.666 -27 -159.999 -81
s-68 -115.333 -68 -184c0 -30.667 6.33301 -56.167 19 -76.5s33.667 -30.5 63 -30.5c36 0 71.333 20.833 106 62.5s57.667 93.834 69 156.501z" />
    <glyph glyph-name="Cacute" unicode="&#x106;" horiz-adv-x="555" 
d="M486 90l10.999 -68c-48 -21.333 -106.333 -32 -175 -32c-84.667 0 -151.334 25 -200.001 75s-73 118 -73 204c0 64 12.5 124.667 37.5 182s60.167 105 105.5 143c71.333 60 156.333 90 255 90c33.333 0 63.333 -3.33301 90 -10s45.334 -14 56.001 -22l-27 -67
c-31.333 18.667 -75.666 28 -132.999 28c-74.667 0 -139 -25 -193 -75c-32 -30.667 -57.167 -68.5 -75.5 -113.5s-27.5 -92.833 -27.5 -143.5c0 -65.333 16.5 -118.333 49.5 -159s84.833 -61 155.5 -61c58.667 0 106.667 9.66699 144 29zM460.999 832h108l-136 -118h-74z
" />
    <glyph glyph-name="cacute" unicode="&#x107;" horiz-adv-x="423" 
d="M353 85l7.99902 -64.999c-38.667 -20 -85.334 -30 -140.001 -30c-60 0 -106 17.5 -138 52.5s-48 79.833 -48 134.5c0 85.333 28.167 159.666 84.5 222.999s126.833 95 211.5 95c42.667 0 76.334 -7.33301 101.001 -22l-24 -65c-25.333 12 -52.666 18 -81.999 18
c-60 0 -109.167 -24.5 -147.5 -73.5s-57.5 -103.833 -57.5 -164.5c0 -40 10.333 -71.667 31 -95s50.334 -35 89.001 -35c37.333 0 74.666 9 111.999 27zM343.999 686.001h100l-133 -143h-65z" />
    <glyph glyph-name="Ccircumflex" unicode="&#x108;" horiz-adv-x="555" 
d="M486 90l10.999 -68c-48 -21.333 -106.333 -32 -175 -32c-84.667 0 -151.334 25 -200.001 75s-73 118 -73 204c0 64 12.5 124.667 37.5 182s60.167 105 105.5 143c71.333 60 156.333 90 255 90c33.333 0 63.333 -3.33301 90 -10s45.334 -14 56.001 -22l-27 -67
c-31.333 18.667 -75.666 28 -132.999 28c-74.667 0 -139 -25 -193 -75c-32 -30.667 -57.167 -68.5 -75.5 -113.5s-27.5 -92.833 -27.5 -143.5c0 -65.333 16.5 -118.333 49.5 -159s84.833 -61 155.5 -61c58.667 0 106.667 9.66699 144 29zM398.999 829h65l80 -118h-68l-49 72
h-2l-72 -72h-74z" />
    <glyph glyph-name="ccircumflex" unicode="&#x109;" horiz-adv-x="423" 
d="M353 85l7.99902 -64.999c-38.667 -20 -85.334 -30 -140.001 -30c-60 0 -106 17.5 -138 52.5s-48 79.833 -48 134.5c0 85.333 28.167 159.666 84.5 222.999s126.833 95 211.5 95c42.667 0 76.334 -7.33301 101.001 -22l-24 -65c-25.333 12 -52.666 18 -81.999 18
c-60 0 -109.167 -24.5 -147.5 -73.5s-57.5 -103.833 -57.5 -164.5c0 -40 10.333 -71.667 31 -95s50.334 -35 89.001 -35c37.333 0 74.666 9 111.999 27zM284.999 686.001h59l69 -143h-62l-43 91h-2l-70 -91h-67z" />
    <glyph glyph-name="Cdotaccent" unicode="&#x10a;" horiz-adv-x="555" 
d="M486 90l10.999 -68c-48 -21.333 -106.333 -32 -175 -32c-84.667 0 -151.334 25 -200.001 75s-73 118 -73 204c0 64 12.5 124.667 37.5 182s60.167 105 105.5 143c71.333 60 156.333 90 255 90c33.333 0 63.333 -3.33301 90 -10s45.334 -14 56.001 -22l-27 -67
c-31.333 18.667 -75.666 28 -132.999 28c-74.667 0 -139 -25 -193 -75c-32 -30.667 -57.167 -68.5 -75.5 -113.5s-27.5 -92.833 -27.5 -143.5c0 -65.333 16.5 -118.333 49.5 -159s84.833 -61 155.5 -61c58.667 0 106.667 9.66699 144 29zM430.999 721h-1
c-12.667 0 -23.667 4.83301 -33 14.5s-14 21.167 -14 34.5c0 14 5.16699 26.333 15.5 37s22.5 16 36.5 16s25.5 -4.83301 34.5 -14.5s13.5 -21.167 13.5 -34.5c0 -14.667 -5 -27.167 -15 -37.5s-22.333 -15.5 -37 -15.5z" />
    <glyph glyph-name="cdotaccent" unicode="&#x10b;" horiz-adv-x="423" 
d="M353 85l7.99902 -64.999c-38.667 -20 -85.334 -30 -140.001 -30c-60 0 -106 17.5 -138 52.5s-48 79.833 -48 134.5c0 85.333 28.167 159.666 84.5 222.999s126.833 95 211.5 95c42.667 0 76.334 -7.33301 101.001 -22l-24 -65c-25.333 12 -52.666 18 -81.999 18
c-60 0 -109.167 -24.5 -147.5 -73.5s-57.5 -103.833 -57.5 -164.5c0 -40 10.333 -71.667 31 -95s50.334 -35 89.001 -35c37.333 0 74.666 9 111.999 27zM317.999 569.001h-1c-13.333 0 -24.333 4.66699 -33 14s-13 21 -13 35c0 15.333 5 28.166 15 38.499
s22.333 15.5 37 15.5c14 0 25.333 -4.66699 34 -14s13 -21 13 -35c0 -15.333 -4.83301 -28.166 -14.5 -38.499s-22.167 -15.5 -37.5 -15.5z" />
    <glyph glyph-name="Ccaron" unicode="&#x10c;" horiz-adv-x="555" 
d="M486 90l10.999 -68c-48 -21.333 -106.333 -32 -175 -32c-84.667 0 -151.334 25 -200.001 75s-73 118 -73 204c0 64 12.5 124.667 37.5 182s60.167 105 105.5 143c71.333 60 156.333 90 255 90c33.333 0 63.333 -3.33301 90 -10s45.334 -14 56.001 -22l-27 -67
c-31.333 18.667 -75.666 28 -132.999 28c-74.667 0 -139 -25 -193 -75c-32 -30.667 -57.167 -68.5 -75.5 -113.5s-27.5 -92.833 -27.5 -143.5c0 -65.333 16.5 -118.333 49.5 -159s84.833 -61 155.5 -61c58.667 0 106.667 9.66699 144 29zM445.999 714h-65l-80 117h69l47 -72
h3l72 72h74z" />
    <glyph glyph-name="ccaron" unicode="&#x10d;" horiz-adv-x="423" 
d="M353 85l7.99902 -64.999c-38.667 -20 -85.334 -30 -140.001 -30c-60 0 -106 17.5 -138 52.5s-48 79.833 -48 134.5c0 85.333 28.167 159.666 84.5 222.999s126.833 95 211.5 95c42.667 0 76.334 -7.33301 101.001 -22l-24 -65c-25.333 12 -52.666 18 -81.999 18
c-60 0 -109.167 -24.5 -147.5 -73.5s-57.5 -103.833 -57.5 -164.5c0 -40 10.333 -71.667 31 -95s50.334 -35 89.001 -35c37.333 0 74.666 9 111.999 27zM329.999 543.001h-59l-70 143h62l43 -92h3l71 92h67z" />
    <glyph glyph-name="Dcaron" unicode="&#x10e;" horiz-adv-x="647" 
d="M33 4l125 661c54 9.33301 110 14 168 14c113.333 0 196 -30 248 -90c42 -43.333 63 -104.333 63 -183c0 -62 -11.833 -121.167 -35.5 -177.5s-56.834 -102.833 -99.501 -139.5c-75.333 -62.667 -177.333 -94 -306 -94c-65.333 0 -119.666 3 -162.999 9zM230 604
l-101.998 -535c24.667 -3.33301 53.667 -5 87 -5c103.333 0 183.666 29.667 240.999 89c61.333 62.667 92 145.667 92 249c0 139.333 -75.333 209 -226 209c-38.667 0 -69.334 -2.33301 -92.001 -7zM403.002 710h-65l-80 117h69l47 -72h3l72 72h74z" />
    <glyph glyph-name="dcaron" unicode="&#x10f;" horiz-adv-x="534" 
d="M460 710h83l-106 -556c-11.333 -56 -18.333 -107.333 -21 -154h-76l13 96h-2c-45.333 -71.333 -103.333 -107 -174 -107c-45.333 0 -80.833 16.5 -106.5 49.5s-38.5 75.167 -38.5 126.5c0 88 28.833 165 86.5 231s128.5 99 212.5 99c33.333 0 62 -5.66699 86 -17z
M371 239l33.001 169c-20 14 -46.667 21 -80 21c-56.667 0 -105.167 -25.667 -145.5 -77s-60.5 -110 -60.5 -176c0 -34 7 -62.333 21 -85s37.333 -34 70 -34c33.333 0 66.166 17.167 98.499 51.5s53.5 77.833 63.5 130.5zM570.001 529l-24 36.998c37.333 20.667 56 50 56 88
c0 20.667 -6.66699 37 -20 49l63 14c17.333 -13.333 26 -33.666 26 -60.999c0 -30.667 -10.167 -57.167 -30.5 -79.5s-43.833 -38.166 -70.5 -47.499z" />
    <glyph glyph-name="Dcroat" unicode="&#x110;" horiz-adv-x="654" 
d="M14 317l13.998 70.001h84l52 278c58 9.33301 115 14 171 14c112 0 193.333 -29.333 244 -88c42.667 -44 64 -105.333 64 -184c0 -60.667 -12.333 -119.334 -37 -176.001s-59 -103 -103 -139c-75.333 -63.333 -175.666 -95 -300.999 -95c-57.333 0 -111.666 3 -162.999 9
l59 311h-84zM360.998 387.001l-13.998 -70h-166l-47 -246c25.333 -3.33301 55.666 -5 90.999 -5c97.333 0 175.333 30 234 90c30 30 53.333 67 70 111s25 89.667 25 137c0 64 -17.833 114.5 -53.5 151.5s-92.834 55.5 -171.501 55.5c-38 0 -69 -1.66699 -93 -5l-41 -219h166
z" />
    <glyph glyph-name="dcroat" unicode="&#x111;" horiz-adv-x="525" 
d="M371 239l32 169c-18.667 14 -45 21 -79 21c-56.667 0 -105.167 -25.667 -145.5 -77s-60.5 -110 -60.5 -176c0 -34 7 -62.333 21 -85s37.333 -34 70 -34c33.333 0 66 17.167 98 51.5s53.333 77.833 64 130.5zM246 606h194.999l19 104h83l-20 -104h80l-10 -53h-80l-77 -399
c-10.667 -60 -17.334 -111.333 -20.001 -154h-76l13 96h-2c-45.333 -71.333 -103.666 -107 -174.999 -107c-45.333 0 -80.666 16.5 -105.999 49.5s-38 75.167 -38 126.5c0 88 28.833 165 86.5 231s128.5 99 212.5 99c33.333 0 62 -5.66699 86 -17l14 75h-196z" />
    <glyph glyph-name="Emacron" unicode="&#x112;" horiz-adv-x="470" 
d="M433 387l-14 -70h-245l-46 -246h276l-14 -71h-359l128 674h344l-14 -71h-260l-41 -216h245zM231 787h231l-10 -54h-231z" />
    <glyph glyph-name="emacron" unicode="&#x113;" horiz-adv-x="453" 
d="M365 90l12 -61.999c-45.333 -25.333 -98.666 -38 -159.999 -38c-60.667 0 -106.5 18 -137.5 54s-46.5 82.667 -46.5 140c0 49.333 10.833 97.666 32.5 144.999s53.167 86.833 94.5 118.5s87 47.5 137 47.5c44.667 0 79.5 -11.667 104.5 -35s37.5 -53.333 37.5 -90
c0 -108 -107.333 -160.333 -322 -157c-2 -10 -2.16699 -24.667 -0.5 -44s5.16699 -35 10.5 -47c18.667 -43.333 54.667 -65 108 -65c45.333 0 88.666 11 129.999 33zM359 368.001l0.000976562 1c0 19.333 -6.66699 34.333 -20 45s-31.333 16 -54 16
c-37.333 0 -70.333 -15.167 -99 -45.5s-48.334 -66.166 -59.001 -107.499c154.667 -2.66699 232 27.666 232 90.999zM197.001 646.001h219l-10 -53h-219z" />
    <glyph glyph-name="Ebreve" unicode="&#x114;" horiz-adv-x="470" 
d="M433 387l-14 -70h-245l-46 -246h276l-14 -71h-359l128 674h344l-14 -71h-260l-41 -216h245zM227 830l52.001 -0.000976562c-0.666992 -15.333 3.83301 -28.166 13.5 -38.499s25.5 -15.5 47.5 -15.5c41.333 0 66.333 18 75 54h55c-5.33301 -30.667 -19.333 -56 -42 -76
s-53.334 -30 -92.001 -30c-40.667 0 -70 10 -88 30s-25 45.333 -21 76z" />
    <glyph glyph-name="ebreve" unicode="&#x115;" horiz-adv-x="453" 
d="M365 90l12 -61.999c-45.333 -25.333 -98.666 -38 -159.999 -38c-60.667 0 -106.5 18 -137.5 54s-46.5 82.667 -46.5 140c0 49.333 10.833 97.666 32.5 144.999s53.167 86.833 94.5 118.5s87 47.5 137 47.5c44.667 0 79.5 -11.667 104.5 -35s37.5 -53.333 37.5 -90
c0 -108 -107.333 -160.333 -322 -157c-2 -10 -2.16699 -24.667 -0.5 -44s5.16699 -35 10.5 -47c18.667 -43.333 54.667 -65 108 -65c45.333 0 88.666 11 129.999 33zM359 368.001l0.000976562 1c0 19.333 -6.66699 34.333 -20 45s-31.333 16 -54 16
c-37.333 0 -70.333 -15.167 -99 -45.5s-48.334 -66.166 -59.001 -107.499c154.667 -2.66699 232 27.666 232 90.999zM194.001 683.001h49.9961c-1.33301 -19.333 2.83398 -35.5 12.501 -48.5s23.834 -19.5 42.501 -19.5c40.667 0 67.334 22.667 80.001 68h52
c-6 -36.667 -21.167 -66 -45.5 -88s-53.833 -33 -88.5 -33c-40.667 0 -69.167 11.667 -85.5 35s-22.166 52 -17.499 86z" />
    <glyph glyph-name="Edotaccent" unicode="&#x116;" horiz-adv-x="470" 
d="M433 387l-14 -70h-245l-46 -246h276l-14 -71h-359l128 674h344l-14 -71h-260l-41 -216h245zM341 720h-1c-12.667 0 -23.667 4.83301 -33 14.5s-14 21.167 -14 34.5c0 14 5.16699 26.333 15.5 37s22.5 16 36.5 16s25.5 -4.83301 34.5 -14.5s13.5 -21.167 13.5 -34.5
c0 -14.667 -5 -27.167 -15 -37.5s-22.333 -15.5 -37 -15.5z" />
    <glyph glyph-name="edotaccent" unicode="&#x117;" horiz-adv-x="453" 
d="M365 90l12 -61.999c-45.333 -25.333 -98.666 -38 -159.999 -38c-60.667 0 -106.5 18 -137.5 54s-46.5 82.667 -46.5 140c0 49.333 10.833 97.666 32.5 144.999s53.167 86.833 94.5 118.5s87 47.5 137 47.5c44.667 0 79.5 -11.667 104.5 -35s37.5 -53.333 37.5 -90
c0 -108 -107.333 -160.333 -322 -157c-2 -10 -2.16699 -24.667 -0.5 -44s5.16699 -35 10.5 -47c18.667 -43.333 54.667 -65 108 -65c45.333 0 88.666 11 129.999 33zM359 368.001l0.000976562 1c0 19.333 -6.66699 34.333 -20 45s-31.333 16 -54 16
c-37.333 0 -70.333 -15.167 -99 -45.5s-48.334 -66.166 -59.001 -107.499c154.667 -2.66699 232 27.666 232 90.999zM307.001 569.001h-1c-13.333 0 -24.333 4.66699 -33 14s-13 21 -13 35c0 15.333 5 28.166 15 38.499s22.333 15.5 37 15.5c14 0 25.333 -4.66699 34 -14
s13 -21 13 -35c0 -15.333 -4.83301 -28.166 -14.5 -38.499s-22.167 -15.5 -37.5 -15.5z" />
    <glyph glyph-name="Eogonek" unicode="&#x118;" horiz-adv-x="470" 
d="M32 0l128 674h343l-14 -71h-260l-41 -216h245l-14 -70h-244l-47 -246h276l-14 -71h-17c-24.667 -16 -45.334 -34.667 -62.001 -56s-25 -41.333 -25 -60c0 -21.333 10.667 -32 32 -32c15.333 0 30.333 3.33301 45 10l12 -45c-23.333 -16 -50.666 -24 -81.999 -24
c-23.333 0 -41.833 6.66699 -55.5 20s-20.5 30.333 -20.5 51c0 26 9.33301 51 28 75s39.667 44.333 63 61h-276z" />
    <glyph glyph-name="eogonek" unicode="&#x119;" horiz-adv-x="453" 
d="M359 368l0.000976562 1c0 19.333 -6.66699 34.333 -20 45s-31.333 16 -54 16c-37.333 0 -70.333 -15.167 -99 -45.5s-48.334 -66.166 -59.001 -107.499c154.667 -2.66699 232 27.666 232 90.999zM313.001 -129l10.002 -46.998c-26 -14 -53.333 -21 -82 -21
c-23.333 0 -41.5 6.66699 -54.5 20s-19.5 30.666 -19.5 51.999c0 42.667 24 81 72 115v1c-6.66699 -0.666992 -16.334 -1 -29.001 -1c-58.667 1.33301 -102.834 20 -132.501 56s-44.5 82 -44.5 138c0 49.333 10.833 97.666 32.5 144.999s53.167 86.833 94.5 118.5
s87 47.5 137 47.5c44.667 0 79.5 -11.667 104.5 -35s37.5 -53.333 37.5 -90c0 -108 -107.333 -160.333 -322 -157c-2 -10 -2.16699 -24.667 -0.5 -44s5.16699 -35 10.5 -47c20 -43.333 55.667 -65 107 -65c46 0 89.667 11 131 33l12 -62c-12 -6 -24 -11.667 -36 -17
c-70 -37.333 -105 -75.333 -105 -114c0 -24 10.667 -36 32 -36c16.667 0 31.667 3.33301 45 10z" />
    <glyph glyph-name="Ecaron" unicode="&#x11a;" horiz-adv-x="470" 
d="M433 387l-14 -70h-245l-46 -246h276l-14 -71h-359l128 674h344l-14 -71h-260l-41 -216h245zM363 710h-65l-80 117h69l47 -72h3l72 72h74z" />
    <glyph glyph-name="ecaron" unicode="&#x11b;" horiz-adv-x="453" 
d="M365 90l12 -61.999c-45.333 -25.333 -98.666 -38 -159.999 -38c-60.667 0 -106.5 18 -137.5 54s-46.5 82.667 -46.5 140c0 49.333 10.833 97.666 32.5 144.999s53.167 86.833 94.5 118.5s87 47.5 137 47.5c44.667 0 79.5 -11.667 104.5 -35s37.5 -53.333 37.5 -90
c0 -108 -107.333 -160.333 -322 -157c-2 -10 -2.16699 -24.667 -0.5 -44s5.16699 -35 10.5 -47c18.667 -43.333 54.667 -65 108 -65c45.333 0 88.666 11 129.999 33zM359 368.001l0.000976562 1c0 19.333 -6.66699 34.333 -20 45s-31.333 16 -54 16
c-37.333 0 -70.333 -15.167 -99 -45.5s-48.334 -66.166 -59.001 -107.499c154.667 -2.66699 232 27.666 232 90.999zM319.001 543.001h-59l-70 143h62l43 -92h3l71 92h67z" />
    <glyph glyph-name="Gcircumflex" unicode="&#x11c;" horiz-adv-x="623" 
d="M588 352l-61 -323.001c-58.667 -24 -122 -36 -190 -36c-96.667 0 -170 28 -220 84c-45.333 50 -68 115.333 -68 196c0 57.333 11.333 113.5 34 168.5s55 101.5 97 139.5c77.333 66.667 170 100 278 100c70 0 123 -10.333 159 -31l-28 -70
c-38.667 19.333 -85.667 29 -141 29c-81.333 0 -151 -27.333 -209 -82c-31.333 -29.333 -56 -66.333 -74 -111s-27 -90 -27 -136c0 -67.333 17.667 -120.166 53 -158.499s89.333 -57.5 162 -57.5c40.667 0 74.667 6.33301 102 19l39 201h-137l13 68h218zM419 827.999h65
l80 -118h-68l-49 72h-2l-72 -72h-74z" />
    <glyph glyph-name="gcircumflex" unicode="&#x11d;" horiz-adv-x="524" 
d="M10 -175l22.999 64.999c32.667 -21.333 75.334 -32 128.001 -32c44 0 80.667 13.167 110 39.5s50.666 70.5 63.999 132.5l16 73h-2c-42.667 -68.667 -98.667 -103 -168 -103c-46.667 0 -83 16.5 -109 49.5s-39 72.5 -39 118.5c0 86.667 28.667 162.834 86 228.501
s131 98.5 221 98.5c56 0 108 -11.333 156 -34l-75 -400c-19.333 -104.667 -51.666 -177 -96.999 -217c-42 -35.333 -98.333 -53 -169 -53c-62.667 0 -111 11.333 -145 34zM373.999 250.999l31.001 161c-22.667 11.333 -49.334 17 -80.001 17
c-58 0 -106.667 -25.333 -146 -76s-59 -107.667 -59 -171c-0.666992 -32 6.16602 -59.333 20.499 -82s38.5 -34 72.5 -34c34.667 0 67.834 18.667 99.501 56s52.167 80.333 61.5 129zM316 685.999h59l69 -143h-62l-43 91h-2l-70 -91h-67z" />
    <glyph glyph-name="Gbreve" unicode="&#x11e;" horiz-adv-x="623" 
d="M588 352l-61 -323.001c-58.667 -24 -122 -36 -190 -36c-96.667 0 -170 28 -220 84c-45.333 50 -68 115.333 -68 196c0 57.333 11.333 113.5 34 168.5s55 101.5 97 139.5c77.333 66.667 170 100 278 100c70 0 123 -10.333 159 -31l-28 -70
c-38.667 19.333 -85.667 29 -141 29c-81.333 0 -151 -27.333 -209 -82c-31.333 -29.333 -56 -66.333 -74 -111s-27 -90 -27 -136c0 -67.333 17.667 -120.166 53 -158.499s89.333 -57.5 162 -57.5c40.667 0 74.667 6.33301 102 19l39 201h-137l13 68h218zM315 830.999
l52.001 -0.000976562c-0.666992 -15.333 3.83301 -28.166 13.5 -38.499s25.5 -15.5 47.5 -15.5c41.333 0 66.333 18 75 54h55c-5.33301 -30.667 -19.333 -56 -42 -76s-53.334 -30 -92.001 -30c-40.667 0 -70 10 -88 30s-25 45.333 -21 76z" />
    <glyph glyph-name="gbreve" unicode="&#x11f;" horiz-adv-x="524" 
d="M10 -175l22.999 64.999c32.667 -21.333 75.334 -32 128.001 -32c44 0 80.667 13.167 110 39.5s50.666 70.5 63.999 132.5l16 73h-2c-42.667 -68.667 -98.667 -103 -168 -103c-46.667 0 -83 16.5 -109 49.5s-39 72.5 -39 118.5c0 86.667 28.667 162.834 86 228.501
s131 98.5 221 98.5c56 0 108 -11.333 156 -34l-75 -400c-19.333 -104.667 -51.666 -177 -96.999 -217c-42 -35.333 -98.333 -53 -169 -53c-62.667 0 -111 11.333 -145 34zM373.999 250.999l31.001 161c-22.667 11.333 -49.334 17 -80.001 17
c-58 0 -106.667 -25.333 -146 -76s-59 -107.667 -59 -171c-0.666992 -32 6.16602 -59.333 20.499 -82s38.5 -34 72.5 -34c34.667 0 67.834 18.667 99.501 56s52.167 80.333 61.5 129zM230 682.999h49.9961c-1.33301 -19.333 2.83398 -35.5 12.501 -48.5
s23.834 -19.5 42.501 -19.5c40.667 0 67.334 22.667 80.001 68h52c-6 -36.667 -21.167 -66 -45.5 -88s-53.833 -33 -88.5 -33c-40.667 0 -69.167 11.667 -85.5 35s-22.166 52 -17.499 86z" />
    <glyph glyph-name="Gdotaccent" unicode="&#x120;" horiz-adv-x="623" 
d="M588 352l-61 -323.001c-58.667 -24 -122 -36 -190 -36c-96.667 0 -170 28 -220 84c-45.333 50 -68 115.333 -68 196c0 57.333 11.333 113.5 34 168.5s55 101.5 97 139.5c77.333 66.667 170 100 278 100c70 0 123 -10.333 159 -31l-28 -70
c-38.667 19.333 -85.667 29 -141 29c-81.333 0 -151 -27.333 -209 -82c-31.333 -29.333 -56 -66.333 -74 -111s-27 -90 -27 -136c0 -67.333 17.667 -120.166 53 -158.499s89.333 -57.5 162 -57.5c40.667 0 74.667 6.33301 102 19l39 201h-137l13 68h218zM443 719.999h-1
c-12.667 0 -23.667 4.83301 -33 14.5s-14 21.167 -14 34.5c0 14 5.16699 26.333 15.5 37s22.5 16 36.5 16s25.5 -4.83301 34.5 -14.5s13.5 -21.167 13.5 -34.5c0 -14.667 -5 -27.167 -15 -37.5s-22.333 -15.5 -37 -15.5z" />
    <glyph glyph-name="gdotaccent" unicode="&#x121;" horiz-adv-x="524" 
d="M10 -175l22.999 64.999c32.667 -21.333 75.334 -32 128.001 -32c44 0 80.667 13.167 110 39.5s50.666 70.5 63.999 132.5l16 73h-2c-42.667 -68.667 -98.667 -103 -168 -103c-46.667 0 -83 16.5 -109 49.5s-39 72.5 -39 118.5c0 86.667 28.667 162.834 86 228.501
s131 98.5 221 98.5c56 0 108 -11.333 156 -34l-75 -400c-19.333 -104.667 -51.666 -177 -96.999 -217c-42 -35.333 -98.333 -53 -169 -53c-62.667 0 -111 11.333 -145 34zM373.999 250.999l31.001 161c-22.667 11.333 -49.334 17 -80.001 17
c-58 0 -106.667 -25.333 -146 -76s-59 -107.667 -59 -171c-0.666992 -32 6.16602 -59.333 20.499 -82s38.5 -34 72.5 -34c34.667 0 67.834 18.667 99.501 56s52.167 80.333 61.5 129zM336 568.999h-1c-13.333 0 -24.333 4.66699 -33 14s-13 21 -13 35
c0 15.333 5 28.166 15 38.499s22.333 15.5 37 15.5c14 0 25.333 -4.66699 34 -14s13 -21 13 -35c0 -15.333 -4.83301 -28.166 -14.5 -38.499s-22.167 -15.5 -37.5 -15.5z" />
    <glyph glyph-name="Gcommaaccent" unicode="&#x122;" horiz-adv-x="623" 
d="M588 352l-61 -323.001c-58.667 -24 -122 -36 -190 -36c-96.667 0 -170 28 -220 84c-45.333 50 -68 115.333 -68 196c0 57.333 11.333 113.5 34 168.5s55 101.5 97 139.5c77.333 66.667 170 100 278 100c70 0 123 -10.333 159 -31l-28 -70
c-38.667 19.333 -85.667 29 -141 29c-81.333 0 -151 -27.333 -209 -82c-31.333 -29.333 -56 -66.333 -74 -111s-27 -90 -27 -136c0 -67.333 17.667 -120.166 53 -158.499s89.333 -57.5 162 -57.5c40.667 0 74.667 6.33301 102 19l39 201h-137l13 68h218zM193 -221.001
l-9.99902 42c23.333 3.33301 43.666 11.333 60.999 24s26 29.667 26 51c0 19.333 -8 35.666 -24 48.999l66 13c18.667 -13.333 28 -33 28 -59c0 -36 -14.5 -64.167 -43.5 -84.5s-63.5 -32.166 -103.5 -35.499z" />
    <glyph glyph-name="gcommaaccent" unicode="&#x123;" horiz-adv-x="524" 
d="M10 -175l22.998 64.999c32.667 -21.333 75.334 -32 128.001 -32c44 0 80.667 13.167 110 39.5s50.666 70.5 63.999 132.5l16 73h-3c-42 -68.667 -97.667 -103 -167 -103c-46.667 0 -83 16.5 -109 49.5s-39 72.5 -39 118.5c0 86.667 28.667 162.834 86 228.501
s131 98.5 221 98.5c55.333 0 107 -11.333 155 -34l-74 -400c-19.333 -104.667 -51.666 -177 -96.999 -217c-41.333 -35.333 -97.666 -53 -168.999 -53c-62.667 0 -111 11.333 -145 34zM372.998 250.999l31.001 161c-21.333 11.333 -47.666 17 -78.999 17
c-58 0 -106.667 -25.333 -146 -76s-59 -107.667 -59 -171c-0.666992 -32 6.16602 -59.333 20.499 -82s38.5 -34 72.5 -34c34.667 0 67.667 18.667 99 56s51.666 80.333 60.999 129zM425.999 710.999l10 -42.001c-24 -3.33301 -44.667 -11.333 -62 -24s-26 -29.667 -26 -51
c0 -19.333 8 -35.666 24 -48.999l-63 -14c-18.667 14.667 -28 34.334 -28 59.001c0 36.667 14.5 65.167 43.5 85.5s62.833 32.166 101.5 35.499z" />
    <glyph glyph-name="Hcircumflex" unicode="&#x124;" horiz-adv-x="627" 
d="M159 674h83l-54 -284h310l54 284h83l-128 -674h-83l59 317h-309l-60 -317h-83zM391 828h65l80 -118h-68l-49 72h-2l-72 -72h-74z" />
    <glyph glyph-name="hcircumflex" unicode="&#x125;" horiz-adv-x="534" 
d="M111 0h-83.002l135 710h83l-60 -311h2c44.667 64 102.334 96 173.001 96c32 0 60 -10.5 84 -31.5s36 -53.833 36 -98.5c0 -28.667 -2.66699 -55.667 -8 -81l-54 -284h-83l54 280c4 22.667 6 45 6 67c0 24 -6.16699 43.167 -18.5 57.5s-31.166 21.5 -56.499 21.5
c-33.333 0 -66.833 -17.5 -100.5 -52.5s-55.167 -78.5 -64.5 -130.5zM191.998 854h65l80 -118h-68l-49 72h-2l-72 -72h-74z" />
    <glyph glyph-name="Hbar" unicode="&#x126;" horiz-adv-x="627" 
d="M515 480h-310l-20 -103h310zM60 536h73l26 138h83l-26 -138h310l26 138h83l-26 -138h65l-11 -56h-65l-91 -480h-83l57 304h-310l-57 -304h-83l91 480h-73z" />
    <glyph glyph-name="hbar" unicode="&#x127;" horiz-adv-x="534" 
d="M57 606h86.998l19 104h83l-20 -104h185l-10 -53h-185l-30 -154h2c44.667 64 102.334 96 173.001 96c32 0 60 -10.5 84 -31.5s36 -53.833 36 -98.5c0 -28.667 -2.66699 -55.667 -8 -81l-54 -284h-83l54 280c4 22.667 6 45 6 67c0 24 -6.16699 43.167 -18.5 57.5
s-31.166 21.5 -56.499 21.5c-33.333 0 -66.833 -17.5 -100.5 -52.5s-55.167 -78.5 -64.5 -130.5l-45 -243h-83l106 553h-87z" />
    <glyph glyph-name="Itilde" unicode="&#x128;" horiz-adv-x="233" 
d="M158 674h83l-128 -674h-83zM131 715h-47.002c5.33301 30 15.333 54.167 30 72.5s32 27.5 52 27.5c18.667 0 38.667 -7 60 -21c18 -12 32.667 -18 44 -18c15.333 0 27 13.333 35 40h46c-11.333 -64 -39 -96 -83 -96c-18 0 -38 6.66699 -60 20
c-21.333 12.667 -35.666 18.667 -42.999 18c-15.333 0 -26.666 -14.333 -33.999 -43z" />
    <glyph glyph-name="itilde" unicode="&#x129;" horiz-adv-x="229" 
d="M111 0h-83l92 484h83zM109 568l-48.001 -0.000976562c3.33301 30 11.833 54.167 25.5 72.5s30.834 27.5 51.501 27.5c14.667 0 35 -7.33301 61 -22c18.667 -11.333 32 -17 40 -17c8.66699 0 15.167 2.83301 19.5 8.5s7.83301 16.834 10.5 33.501h47
c-8 -64 -33.667 -96 -77 -96c-18 0 -37.667 6.66699 -59 20c-18.667 12 -32.667 18 -42 18c-13.333 0 -23 -15 -29 -45z" />
    <glyph glyph-name="Imacron" unicode="&#x12a;" horiz-adv-x="233" 
d="M158 674h83l-128 -674h-83zM106 787h231l-10 -54h-231z" />
    <glyph glyph-name="imacron" unicode="&#x12b;" horiz-adv-x="229" 
d="M111 0h-83l92 484h83zM85 646h219l-10 -53h-219z" />
    <glyph glyph-name="Ibreve" unicode="&#x12c;" horiz-adv-x="233" 
d="M158 674h83l-128 -674h-83zM107 833l52.001 -0.000976562c-0.666992 -15.333 3.83301 -28.166 13.5 -38.499s25.5 -15.5 47.5 -15.5c41.333 0 66.333 18 75 54h55c-5.33301 -30.667 -19.333 -56 -42 -76s-53.334 -30 -92.001 -30c-40.667 0 -70 10 -88 30
s-25 45.333 -21 76z" />
    <glyph glyph-name="ibreve" unicode="&#x12d;" horiz-adv-x="229" 
d="M111 0h-83l92 484h83zM82 683h49.9961c-1.33301 -19.333 2.83398 -35.5 12.501 -48.5s23.834 -19.5 42.501 -19.5c40.667 0 67.334 22.667 80.001 68h52c-6 -36.667 -21.167 -66 -45.5 -88s-53.833 -33 -88.5 -33c-40.667 0 -69.167 11.667 -85.5 35
s-22.166 52 -17.499 86z" />
    <glyph glyph-name="Iogonek" unicode="&#x12e;" horiz-adv-x="233" 
d="M241 674l-129.001 -673.999h-28c-36 -40.667 -54 -76.334 -54 -107.001c0 -12 3.66699 -21.667 11 -29s17 -11 29 -11c14 0 28.333 3.33301 43 10l9 -44c-19.333 -16.667 -46 -25 -80 -25c-25.333 0 -45 6.83301 -59 20.5s-21 32.5 -21 56.5
c0 6.66699 0.833008 13.5 2.5 20.5s3.5 13.5 5.5 19.5s5 12.5 9 19.5l10 18c2.66699 5 6.5 10.833 11.5 17.5l11 14.5l10.5 13.5c4.66699 6 7.33398 9.33301 8.00098 10l128 670h83z" />
    <glyph glyph-name="iogonek" unicode="&#x12f;" horiz-adv-x="229" 
d="M184 571h-1c-14.667 0 -26.5 5.16699 -35.5 15.5s-13.5 23.166 -13.5 38.499c0.666992 16.667 6.5 30.667 17.5 42s24.167 17 39.5 17s27.833 -5.16699 37.5 -15.5s14.5 -23.166 14.5 -38.499c-0.666992 -17.333 -6.5 -31.5 -17.5 -42.5s-24.833 -16.5 -41.5 -16.5z
M204 484l-93.001 -483.999h-28c-36 -40.667 -54 -76.334 -54 -107.001c0 -12 3.66699 -21.667 11 -29s17 -11 29 -11c14 0 28.333 3.33301 43 10l9 -44c-19.333 -16.667 -46 -25 -80 -25c-25.333 0 -45 6.83301 -59 20.5s-21 32.5 -21 56.5
c0 6.66699 0.833008 13.5 2.5 20.5s3.5 13.5 5.5 19.5s5 12.5 9 19.5l10 18c2.66699 5 6.5 10.833 11.5 17.5l11 14.5l10.5 13.5c4.66699 6 7.33398 9.33301 8.00098 10l92 480h83z" />
    <glyph glyph-name="Idotaccent" unicode="&#x130;" horiz-adv-x="233" 
d="M158 674h83l-128 -674h-83zM217 720h-1c-12.667 0 -23.667 4.83301 -33 14.5s-14 21.167 -14 34.5c0 14 5.16699 26.333 15.5 37s22.5 16 36.5 16s25.5 -4.83301 34.5 -14.5s13.5 -21.167 13.5 -34.5c0 -14.667 -5 -27.167 -15 -37.5s-22.333 -15.5 -37 -15.5z" />
    <glyph glyph-name="dotlessi" unicode="&#x131;" horiz-adv-x="229" 
d="M111 0h-83l92 484h83z" />
    <glyph glyph-name="IJ" unicode="&#x132;" horiz-adv-x="597" 
d="M158 674h83l-128 -674h-83zM443 220l86 454h83l-88 -464c-14.667 -78 -39.5 -134.333 -74.5 -169s-84.167 -52 -147.5 -52c-44 0 -77.333 6 -100 18l18 71c22 -10 50.333 -15 85 -15c37.333 0 66.833 11.667 88.5 35s38.167 64 49.5 122z" />
    <glyph glyph-name="ij" unicode="&#x133;" horiz-adv-x="456" 
d="M111 0h-83l93 484h82zM184 566h-0.999023c-14 0 -25.333 4.83301 -34 14.5s-13 22.167 -13 37.5c0.666992 16 6.16699 29.333 16.5 40s23.166 16 38.499 16c14.667 0 26.5 -4.83301 35.5 -14.5s13.5 -22.167 13.5 -37.5c-0.666992 -16.667 -6.16699 -30.167 -16.5 -40.5
s-23.5 -15.5 -39.5 -15.5zM354.001 484h83.001l-92 -483c-14.667 -79.333 -35.334 -133.666 -62.001 -162.999c-27.333 -31.333 -64.333 -47 -111 -47c-24 0 -42.333 2 -55 6l10 65c8 -2.66699 21 -4 39 -4c22.667 0 41.667 9.16699 57 27.5s27.333 51.166 36 98.499z
M413.002 566h-0.999023c-14 0 -25.333 4.83301 -34 14.5s-13 22.167 -13 37.5c0.666992 16 6.16699 29.333 16.5 40s23.166 16 38.499 16c14.667 0 26.5 -4.83301 35.5 -14.5s13.5 -22.167 13.5 -37.5c-0.666992 -16.667 -6.16699 -30.167 -16.5 -40.5
s-23.5 -15.5 -39.5 -15.5z" />
    <glyph glyph-name="Jcircumflex" unicode="&#x134;" horiz-adv-x="364" 
d="M210 220l86 454h83l-88 -464c-14.667 -78 -39.5 -134.333 -74.5 -169s-84.167 -52 -147.5 -52c-44 0 -77.333 6 -100 18l18 71c22 -10 50.333 -15 85 -15c37.333 0 66.833 11.667 88.5 35s38.167 64 49.5 122zM331 828h65l80 -118h-68l-49 72h-2l-72 -72h-74z" />
    <glyph glyph-name="jcircumflex" unicode="&#x135;" horiz-adv-x="227" 
d="M126 484h81.999l-91 -483c-14.667 -79.333 -35.334 -133.666 -62.001 -162.999c-27.333 -31.333 -64.333 -47 -111 -47c-24 0 -42.333 2 -55 6l10 65c8 -2.66699 20.667 -4 38 -4c22.667 0 41.834 9.16699 57.501 27.5s27.834 51.166 36.501 98.499zM165.999 686h58
l69 -143h-62l-42 94h-2l-70 -94h-67z" />
    <glyph glyph-name="Kcommaaccent" unicode="&#x136;" horiz-adv-x="515" 
d="M31 0l128 674h82l-62 -328l4 1l67 75l237 252h104l-284 -290l173 -384h-90l-147 331l-81 -75l-49 -256h-82zM115 -221l-9.99902 42c23.333 3.33301 43.666 11.333 60.999 24s26 29.667 26 51c0 19.333 -8 35.666 -24 48.999l66 13c18.667 -13.333 28 -33 28 -59
c0 -36 -14.5 -64.167 -43.5 -84.5s-63.5 -32.166 -103.5 -35.499z" />
    <glyph glyph-name="kcommaaccent" unicode="&#x137;" horiz-adv-x="456" 
d="M110 0l-82 0.000976562l135 710h83l-85 -446h2c2.66699 3.33301 17.667 19.666 45 48.999l170 171h103l-211 -200l144 -284h-91l-117 238l-61 -55zM86 -220.999l-9.99902 42c23.333 3.33301 43.666 11.333 60.999 24s26 29.667 26 51c0 19.333 -8 35.666 -24 48.999
l66 13c18.667 -13.333 28 -33 28 -59c0 -36 -14.5 -64.167 -43.5 -84.5s-63.5 -32.166 -103.5 -35.499z" />
    <glyph glyph-name="kgreenlandic" unicode="&#x138;" horiz-adv-x="456" 
d="M110 0l-82 0.000976562l92 484h83l-42 -220h2c2.66699 3.33301 17.667 19.666 45 48.999l170 171h103l-211 -200l144 -284h-91l-117 238l-61 -55z" />
    <glyph glyph-name="Lacute" unicode="&#x139;" horiz-adv-x="442" 
d="M31 0l128 674h83l-115 -602h272l-14 -72h-354zM281 828h108l-136 -118h-74z" />
    <glyph glyph-name="lacute" unicode="&#x13a;" horiz-adv-x="229" 
d="M112 0h-83l135 710h83zM262 861h108l-136 -118h-74z" />
    <glyph glyph-name="Lcommaaccent" unicode="&#x13b;" horiz-adv-x="442" 
d="M31 0l128 674h83l-115 -602h272l-14 -72h-354zM93 -221l-9.99902 42c23.333 3.33301 43.666 11.333 60.999 24s26 29.667 26 51c0 19.333 -8 35.666 -24 48.999l66 13c18.667 -13.333 28 -33 28 -59c0 -36 -14.5 -64.167 -43.5 -84.5s-63.5 -32.166 -103.5 -35.499z" />
    <glyph glyph-name="lcommaaccent" unicode="&#x13c;" horiz-adv-x="229" 
d="M112 0h-83l135 710h83zM-30 -221l-9.99902 42c23.333 3.33301 43.666 11.333 60.999 24s26 29.667 26 51c0 19.333 -8 35.666 -24 48.999l66 13c18.667 -13.333 28 -33 28 -59c0 -36 -14.5 -64.167 -43.5 -84.5s-63.5 -32.166 -103.5 -35.499z" />
    <glyph glyph-name="Lcaron" unicode="&#x13d;" horiz-adv-x="442" 
d="M31 0l128 674h83l-115 -602h272l-14 -72h-354zM288 499l-9.99902 42c23.333 3.33301 43.666 11.333 60.999 24s26 29.667 26 51c0 19.333 -8 35.666 -24 48.999l66 13c18.667 -13.333 28 -33 28 -59c0 -36 -14.5 -64.167 -43.5 -84.5s-63.5 -32.166 -103.5 -35.499z" />
    <glyph glyph-name="lcaron" unicode="&#x13e;" horiz-adv-x="236" 
d="M111 0h-83l136 710h83zM276 529l-26.001 35.999c37.333 21.333 56 51 56 89c0 20.667 -6.66699 37 -20 49l63 14c17.333 -13.333 26 -33.666 26 -60.999c0 -32.667 -10.167 -60 -30.5 -82s-43.166 -37 -68.499 -45z" />
    <glyph glyph-name="Ldot" unicode="&#x13f;" horiz-adv-x="443" 
d="M31 0l128 674h83l-115 -602h272l-14 -72h-354zM337 315h-1c-12.667 0 -23.667 4.83301 -33 14.5s-14 21.167 -14 34.5c0 14 5.16699 26.333 15.5 37s22.5 16 36.5 16s25.5 -4.83301 34.5 -14.5s13.5 -21.167 13.5 -34.5c0 -14.667 -5 -27.167 -15 -37.5
s-22.333 -15.5 -37 -15.5z" />
    <glyph glyph-name="ldot" unicode="&#x140;" horiz-adv-x="265" 
d="M111 0h-82l135 710h83zM269 314l-1.00098 -0.000976562c-13.333 0 -24.166 4.5 -32.499 13.5s-12.5 20.5 -12.5 34.5c0 14.667 5 27.167 15 37.5s21.667 15.5 35 15.5s24.333 -4.66699 33 -14s13 -20.666 13 -33.999c0 -15.333 -4.66699 -28 -14 -38s-21.333 -15 -36 -15
z" />
    <glyph glyph-name="Lslash" unicode="&#x141;" horiz-adv-x="448" 
d="M391 0h-354l51 269l-95 -61l13 68l95 61l64 337h83l-53 -278l142 93l-13 -69l-142 -92l-48 -256h271z" />
    <glyph glyph-name="lslash" unicode="&#x142;" horiz-adv-x="237" 
d="M116 0h-82l54 284l-76 -54l13 68l76 53l68 359h83l-56 -293l79 57l-13 -68l-79 -56z" />
    <glyph glyph-name="Nacute" unicode="&#x143;" horiz-adv-x="632" 
d="M109 0l-78 -0.000976562l128 674h91l154 -382c24 -61.333 43.667 -124 59 -188l2 1c4 60.667 13.667 131 29 211l68 358h78l-128 -674h-82l-154 381c-28 72.667 -48.667 137.334 -62 194.001l-3 -1c-6 -54.667 -17.667 -128.667 -35 -222zM450 827.999h108l-136 -118h-74
z" />
    <glyph glyph-name="nacute" unicode="&#x144;" horiz-adv-x="534" 
d="M111 0h-81.999l64 343c9.33301 45.333 17 92.333 23 141h75l-13 -95h2c46 70.667 106 106 180 106c33.333 0 62 -10.833 86 -32.5s36 -55.5 36 -101.5c0 -20.667 -3 -46.667 -9 -78l-54 -283h-82l53 280c4 25.333 6 46 6 62c0 56 -25.333 84 -76 84
c-32 0 -64.833 -17.667 -98.5 -53s-55.834 -81.333 -66.501 -138zM380.001 686h100l-133 -143h-65z" />
    <glyph glyph-name="Ncommaaccent" unicode="&#x145;" horiz-adv-x="632" 
d="M109 0l-78 -0.000976562l128 674h91l154 -382c24 -61.333 43.667 -124 59 -188l2 1c4 60.667 13.667 131 29 211l68 358h78l-128 -674h-82l-154 381c-28 72.667 -48.667 137.334 -62 194.001l-3 -1c-6 -54.667 -17.667 -128.667 -35 -222zM182 -221.001l-9.99902 42
c23.333 3.33301 43.666 11.333 60.999 24s26 29.667 26 51c0 19.333 -8 35.666 -24 48.999l66 13c18.667 -13.333 28 -33 28 -59c0 -36 -14.5 -64.167 -43.5 -84.5s-63.5 -32.166 -103.5 -35.499z" />
    <glyph glyph-name="ncommaaccent" unicode="&#x146;" horiz-adv-x="534" 
d="M111 0h-81.999l64 343c9.33301 45.333 17 92.333 23 141h75l-13 -95h2c46 70.667 106 106 180 106c33.333 0 62 -10.833 86 -32.5s36 -55.5 36 -101.5c0 -20.667 -3 -46.667 -9 -78l-54 -283h-82l53 280c4 25.333 6 46 6 62c0 56 -25.333 84 -76 84
c-32 0 -64.833 -17.667 -98.5 -53s-55.834 -81.333 -66.501 -138zM125.001 -221l-9.99902 42c23.333 3.33301 43.666 11.333 60.999 24s26 29.667 26 51c0 19.333 -8 35.666 -24 48.999l66 13c18.667 -13.333 28 -33 28 -59c0 -36 -14.5 -64.167 -43.5 -84.5
s-63.5 -32.166 -103.5 -35.499z" />
    <glyph glyph-name="Ncaron" unicode="&#x147;" horiz-adv-x="632" 
d="M109 0l-78 -0.000976562l128 674h91l154 -382c24 -61.333 43.667 -124 59 -188l2 1c4 60.667 13.667 131 29 211l68 358h78l-128 -674h-82l-154 381c-28 72.667 -48.667 137.334 -62 194.001l-3 -1c-6 -54.667 -17.667 -128.667 -35 -222zM440 709.999h-65l-80 117h69
l47 -72h3l72 72h74z" />
    <glyph glyph-name="ncaron" unicode="&#x148;" horiz-adv-x="534" 
d="M111 0h-81.999l64 343c9.33301 45.333 17 92.333 23 141h75l-13 -95h2c46 70.667 106 106 180 106c33.333 0 62 -10.833 86 -32.5s36 -55.5 36 -101.5c0 -20.667 -3 -46.667 -9 -78l-54 -283h-82l53 280c4 25.333 6 46 6 62c0 56 -25.333 84 -76 84
c-32 0 -64.833 -17.667 -98.5 -53s-55.834 -81.333 -66.501 -138zM342.001 543h-59l-70 143h62l43 -92h3l71 92h67z" />
    <glyph glyph-name="napostrophe" unicode="&#x149;" horiz-adv-x="534" 
d="M111 0h-83.001l65 343c4.66699 22.667 12.334 69.667 23.001 141h74l-12 -95h2c44.667 70.667 104.334 106 179.001 106c33.333 0 62.166 -10.667 86.499 -32s36.5 -55.333 36.5 -102c0 -20.667 -3 -46.667 -9 -78l-54 -283h-82l53 280c4 25.333 6 46 6 62
c0 56 -25.333 84 -76 84c-32 0 -65.167 -17.667 -99.5 -53s-56.5 -81.333 -66.5 -138zM76.999 545l-12 40.999c14.667 5.33301 27.5 14.166 38.5 26.499s16.5 27.833 16.5 46.5c0 20 -7.66699 37 -23 51l63 14c18.667 -13.333 28 -33.666 28 -60.999
c0 -34.667 -11.5 -62.167 -34.5 -82.5s-48.5 -32.166 -76.5 -35.499z" />
    <glyph glyph-name="Eng" unicode="&#x14a;" horiz-adv-x="632" 
d="M291 -196l-5.99902 66.999c39.333 3.33301 70.833 14.833 94.5 34.5s40.167 50.834 49.5 93.501l-153 382c-26.667 67.333 -47.334 132 -62.001 194l-3 -1c-6 -54.667 -17.667 -128.667 -35 -222l-67 -352h-78l128 674h91l154 -382c23.333 -59.333 43 -122 59 -188l2 2
c4 60 13.667 130 29 210l68 358h78l-123 -647c-15.333 -82 -42 -139.167 -80 -171.5s-86.667 -49.5 -146 -51.5z" />
    <glyph glyph-name="eng" unicode="&#x14b;" horiz-adv-x="534" 
d="M208 -176l-7.99902 68.999c40 6 71.833 20.333 95.5 43s40.834 62.334 51.501 119.001l43 225c4 25.333 6 46 6 62c0 56 -25.333 84 -76 84c-32 0 -64.833 -17.667 -98.5 -53s-55.834 -81.333 -66.501 -138l-44 -235h-82l64 343c11.333 59.333 19 106.333 23 141h75
l-13 -95h2c46 70.667 105.667 106 179 106c34 0 63 -10.833 87 -32.5s36 -55.834 36 -102.501c0 -20 -3 -45.667 -9 -77l-44 -231c-14.667 -78 -40.334 -134.167 -77.001 -168.5s-84.667 -54.166 -144 -59.499z" />
    <glyph glyph-name="Omacron" unicode="&#x14c;" horiz-adv-x="668" 
d="M305 -11h-0.999023c-82.667 0 -146 26.5 -190 79.5s-66 117.833 -66 194.5c0 60.667 11.5 121 34.5 181s54.5 110 94.5 150c29.333 28.667 63.833 51 103.5 67s80.5 24 122.5 24c58 0 106.667 -13.333 146 -40s67.333 -60 84 -100s25 -85.333 25 -136
c0 -60.667 -10.833 -120.5 -32.5 -179.5s-51.834 -107.833 -90.501 -146.5c-64 -62.667 -140.667 -94 -230 -94zM315.001 59l1 -0.00390625c58 0 109.333 22.333 154 67c30.667 30.667 55 72.5 73 125.5s27 104.167 27 153.5c0 26.667 -2.5 51.334 -7.5 74.001
s-13.667 44.834 -26 66.501s-30.833 38.667 -55.5 51s-54.334 18.5 -89.001 18.5c-58 0 -109.333 -22.333 -154 -67c-31.333 -31.333 -56.166 -73.166 -74.499 -125.499s-27.5 -103.166 -27.5 -152.499c0 -60.667 14.5 -111 43.5 -151s74.167 -60 135.5 -60z
M321.001 786.996h231l-10 -54h-231z" />
    <glyph glyph-name="omacron" unicode="&#x14d;" horiz-adv-x="522" 
d="M225 -11l-0.999023 -0.000976562c-58.667 0 -104.834 19 -138.501 57s-50.5 85.333 -50.5 142c0 82.667 25.5 154.5 76.5 215.5s114.833 91.5 191.5 91.5c61.333 0 108.333 -19.667 141 -59s49 -86.666 49 -141.999c0 -79.333 -25.333 -150 -76 -212
s-114.667 -93 -192 -93zM234.001 54.999l1 -0.000976562c47.333 0 87.833 25 121.5 75s50.5 104.667 50.5 164c0 34.667 -9 65.834 -27 93.501s-46.667 41.5 -86 41.5c-49.333 0 -90.5 -24.833 -123.5 -74.5s-49.5 -104.167 -49.5 -163.5c0 -40 10.333 -72.667 31 -98
s48 -38 82 -38zM232.001 645.998h219l-10 -53h-219z" />
    <glyph glyph-name="Obreve" unicode="&#x14e;" horiz-adv-x="668" 
d="M305 -11h-0.999023c-82.667 0 -146 26.5 -190 79.5s-66 117.833 -66 194.5c0 60.667 11.5 121 34.5 181s54.5 110 94.5 150c29.333 28.667 63.833 51 103.5 67s80.5 24 122.5 24c58 0 106.667 -13.333 146 -40s67.333 -60 84 -100s25 -85.333 25 -136
c0 -60.667 -10.833 -120.5 -32.5 -179.5s-51.834 -107.833 -90.501 -146.5c-64 -62.667 -140.667 -94 -230 -94zM315.001 59l1 -0.00390625c58 0 109.333 22.333 154 67c30.667 30.667 55 72.5 73 125.5s27 104.167 27 153.5c0 26.667 -2.5 51.334 -7.5 74.001
s-13.667 44.834 -26 66.501s-30.833 38.667 -55.5 51s-54.334 18.5 -89.001 18.5c-58 0 -109.333 -22.333 -154 -67c-31.333 -31.333 -56.166 -73.166 -74.499 -125.499s-27.5 -103.166 -27.5 -152.499c0 -60.667 14.5 -111 43.5 -151s74.167 -60 135.5 -60z
M322.001 833.996l52.001 -0.000976562c-0.666992 -15.333 3.83301 -28.166 13.5 -38.499s25.5 -15.5 47.5 -15.5c41.333 0 66.333 18 75 54h55c-5.33301 -30.667 -19.333 -56 -42 -76s-53.334 -30 -92.001 -30c-40.667 0 -70 10 -88 30s-25 45.333 -21 76z" />
    <glyph glyph-name="obreve" unicode="&#x14f;" horiz-adv-x="522" 
d="M225 -11l-0.999023 -0.000976562c-58.667 0 -104.834 19 -138.501 57s-50.5 85.333 -50.5 142c0 82.667 25.5 154.5 76.5 215.5s114.833 91.5 191.5 91.5c61.333 0 108.333 -19.667 141 -59s49 -86.666 49 -141.999c0 -79.333 -25.333 -150 -76 -212
s-114.667 -93 -192 -93zM234.001 54.999l1 -0.000976562c47.333 0 87.833 25 121.5 75s50.5 104.667 50.5 164c0 34.667 -9 65.834 -27 93.501s-46.667 41.5 -86 41.5c-49.333 0 -90.5 -24.833 -123.5 -74.5s-49.5 -104.167 -49.5 -163.5c0 -40 10.333 -72.667 31 -98
s48 -38 82 -38zM225.001 682.998h49.9961c-1.33301 -19.333 2.83398 -35.5 12.501 -48.5s23.834 -19.5 42.501 -19.5c40.667 0 67.334 22.667 80.001 68h52c-6 -36.667 -21.167 -66 -45.5 -88s-53.833 -33 -88.5 -33c-40.667 0 -69.167 11.667 -85.5 35
s-22.166 52 -17.499 86z" />
    <glyph glyph-name="Ohungarumlaut" unicode="&#x150;" horiz-adv-x="668" 
d="M305 -11h-0.999023c-82.667 0 -146 26.5 -190 79.5s-66 117.833 -66 194.5c0 60.667 11.5 121 34.5 181s54.5 110 94.5 150c29.333 28.667 63.833 51 103.5 67s80.5 24 122.5 24c58 0 106.667 -13.333 146 -40s67.333 -60 84 -100s25 -85.333 25 -136
c0 -60.667 -10.833 -120.5 -32.5 -179.5s-51.834 -107.833 -90.501 -146.5c-64 -62.667 -140.667 -94 -230 -94zM315.001 59l1 -0.00390625c58 0 109.333 22.333 154 67c30.667 30.667 55 72.5 73 125.5s27 104.167 27 153.5c0 26.667 -2.5 51.334 -7.5 74.001
s-13.667 44.834 -26 66.501s-30.833 38.667 -55.5 51s-54.334 18.5 -89.001 18.5c-58 0 -109.333 -22.333 -154 -67c-31.333 -31.333 -56.166 -73.166 -74.499 -125.499s-27.5 -103.166 -27.5 -152.499c0 -60.667 14.5 -111 43.5 -151s74.167 -60 135.5 -60z
M397.001 827.996h95l-127 -113h-64zM545.001 827.996h95l-127 -113h-64z" />
    <glyph glyph-name="ohungarumlaut" unicode="&#x151;" horiz-adv-x="522" 
d="M225 -11l-0.999023 -0.000976562c-58.667 0 -104.834 19 -138.501 57s-50.5 85.333 -50.5 142c0 82.667 25.5 154.5 76.5 215.5s114.833 91.5 191.5 91.5c61.333 0 108.333 -19.667 141 -59s49 -86.666 49 -141.999c0 -79.333 -25.333 -150 -76 -212
s-114.667 -93 -192 -93zM234.001 54.999l1 -0.000976562c47.333 0 87.833 25 121.5 75s50.5 104.667 50.5 164c0 34.667 -9 65.834 -27 93.501s-46.667 41.5 -86 41.5c-49.333 0 -90.5 -24.833 -123.5 -74.5s-49.5 -104.167 -49.5 -163.5c0 -40 10.333 -72.667 31 -98
s48 -38 82 -38zM289.001 685.998h88l-125 -143h-56zM434.001 685.998h88l-126 -143h-55z" />
    <glyph glyph-name="OE" unicode="&#x152;" horiz-adv-x="867" 
d="M799 71l-13.002 -71h-324c-7.33301 0 -18.5 -0.5 -33.5 -1.5s-24.5 -1.5 -28.5 -1.5c-18.667 -2.66699 -42.667 -4 -72 -4c-91.333 0 -161.166 26.833 -209.499 80.5s-72.5 121.5 -72.5 203.5c0 52 8.83301 101.833 26.5 149.5s43 90.667 76 129
s75.833 68.833 128.5 91.5s111.667 34 177 34c26.667 0 52.334 -1 77.001 -3c24.667 -2.66699 47 -4 67 -4h300l-13 -71h-269l-41 -217h253l-13 -70h-253l-46 -245h283zM432.998 71l99.999 532c-21.333 5.33301 -49.666 8 -84.999 8c-97.333 0 -174 -32.167 -230 -96.5
s-84 -141.5 -84 -231.5c0 -65.333 17.667 -118.333 53 -159s90.333 -61 165 -61c25.333 0 52.333 2.66699 81 8z" />
    <glyph glyph-name="oe" unicode="&#x153;" horiz-adv-x="800" 
d="M712 90l12.998 -61.001c-43.333 -26.667 -95 -40 -155 -40c-40 0 -74.167 9.66699 -102.5 29s-47.833 47.666 -58.5 84.999h-3c-21.333 -37.333 -48.666 -65.666 -81.999 -84.999s-69.333 -29 -108 -29c-54.667 0 -98.667 19 -132 57s-50 85.667 -50 143
c0 82.667 24.833 154.334 74.5 215.001s111.5 91 185.5 91c41.333 0 75.833 -10.667 103.5 -32s46.167 -50 55.5 -86h2c21.333 37.333 49.666 66.333 84.999 87s71.666 31 108.999 31c46.667 0 81.167 -12 103.5 -36s33.5 -51.667 33.5 -83
c0 -26.667 -6.16699 -49.667 -18.5 -69s-28.166 -34.5 -47.499 -45.5s-43.666 -19.833 -72.999 -26.5s-57.5 -11 -84.5 -13s-58.5 -3 -94.5 -3c-7.33301 -34 -4.33301 -66.667 9 -98c19.333 -42.667 56 -64 110 -64c44.667 0 86.334 11 125.001 33zM230.998 54.999
l1.00098 0.000976562c48 0 88 26.167 120 78.5s48 106.166 48 161.499c0 38.667 -8.33301 70.834 -25 96.501s-44 38.5 -82 38.5c-50.667 0 -92.167 -24.5 -124.5 -73.5s-48.5 -103.5 -48.5 -163.5c0 -40.667 10.167 -73.834 30.5 -99.501s47.166 -38.5 80.499 -38.5z
M706.999 370l0.00195312 1c0 18 -6.5 32.5 -19.5 43.5s-31.167 16.5 -54.5 16.5c-36.667 0 -68.834 -14.833 -96.501 -44.5s-47.167 -64.5 -58.5 -104.5c33.333 0 61.5 1 84.5 3s46.667 5.83301 71 11.5s42.666 14.667 54.999 27s18.5 27.833 18.5 46.5z" />
    <glyph glyph-name="Racute" unicode="&#x154;" horiz-adv-x="523" 
d="M31 0l127 664.999c42.667 9.33301 91.667 14 147 14c72 0 125.667 -16.333 161 -49c33.333 -28 50 -65 50 -111c0 -47.333 -15.5 -88.666 -46.5 -123.999s-68.833 -59.333 -113.5 -72l-1 -2c44.667 -14.667 69.667 -59.667 75 -135c8 -105.333 15 -167.333 21 -186h-86
c-4.66699 16.667 -10 71 -16 163c-2.66699 46 -12.5 79.333 -29.5 100s-42.5 31 -76.5 31h-74l-55 -294h-83zM229 605.999l-47 -248.001h74c51.333 0 93 14.5 125 43.5s48 64.5 48 106.5c0 34.667 -11.833 60.834 -35.5 78.501s-55.167 26.5 -94.5 26.5
c-28 0 -51.333 -2.33301 -70 -7zM376 827.998h108l-136 -118h-74z" />
    <glyph glyph-name="racute" unicode="&#x155;" horiz-adv-x="318" 
d="M111 0h-83l59 312c4.66699 24 13 81.333 25 172h73c-5.33301 -45.333 -10 -80.333 -14 -105h3c17.333 35.333 38.5 63.5 63.5 84.5s53.167 31.5 84.5 31.5c6.66699 0 14.667 -0.666992 24 -2l-16 -82c-8 1.33301 -15.667 2 -23 2c-35.333 0 -67.5 -19 -96.5 -57
s-48.833 -85.333 -59.5 -142zM277 686h100l-133 -143h-65z" />
    <glyph glyph-name="Rcommaaccent" unicode="&#x156;" horiz-adv-x="523" 
d="M31 0l127 664.999c42.667 9.33301 91.667 14 147 14c72 0 125.667 -16.333 161 -49c33.333 -28 50 -65 50 -111c0 -47.333 -15.5 -88.666 -46.5 -123.999s-68.833 -59.333 -113.5 -72l-1 -2c44.667 -14.667 69.667 -59.667 75 -135c8 -105.333 15 -167.333 21 -186h-86
c-4.66699 16.667 -10 71 -16 163c-2.66699 46 -12.5 79.333 -29.5 100s-42.5 31 -76.5 31h-74l-55 -294h-83zM229 605.999l-47 -248.001h74c51.333 0 93 14.5 125 43.5s48 64.5 48 106.5c0 34.667 -11.833 60.834 -35.5 78.501s-55.167 26.5 -94.5 26.5
c-28 0 -51.333 -2.33301 -70 -7zM119 -221.002l-9.99902 42c23.333 3.33301 43.666 11.333 60.999 24s26 29.667 26 51c0 19.333 -8 35.666 -24 48.999l66 13c18.667 -13.333 28 -33 28 -59c0 -36 -14.5 -64.167 -43.5 -84.5s-63.5 -32.166 -103.5 -35.499z" />
    <glyph glyph-name="rcommaaccent" unicode="&#x157;" horiz-adv-x="318" 
d="M111 0h-83l59 312c4.66699 24 13 81.333 25 172h73c-5.33301 -45.333 -10 -80.333 -14 -105h3c17.333 35.333 38.5 63.5 63.5 84.5s53.167 31.5 84.5 31.5c6.66699 0 14.667 -0.666992 24 -2l-16 -82c-8 1.33301 -15.667 2 -23 2c-35.333 0 -67.5 -19 -96.5 -57
s-48.833 -85.333 -59.5 -142zM0 -221l-9.99902 42c23.333 3.33301 43.666 11.333 60.999 24s26 29.667 26 51c0 19.333 -8 35.666 -24 48.999l66 13c18.667 -13.333 28 -33 28 -59c0 -36 -14.5 -64.167 -43.5 -84.5s-63.5 -32.166 -103.5 -35.499z" />
    <glyph glyph-name="Rcaron" unicode="&#x158;" horiz-adv-x="523" 
d="M31 0l127 664.999c42.667 9.33301 91.667 14 147 14c72 0 125.667 -16.333 161 -49c33.333 -28 50 -65 50 -111c0 -47.333 -15.5 -88.666 -46.5 -123.999s-68.833 -59.333 -113.5 -72l-1 -2c44.667 -14.667 69.667 -59.667 75 -135c8 -105.333 15 -167.333 21 -186h-86
c-4.66699 16.667 -10 71 -16 163c-2.66699 46 -12.5 79.333 -29.5 100s-42.5 31 -76.5 31h-74l-55 -294h-83zM229 605.999l-47 -248.001h74c51.333 0 93 14.5 125 43.5s48 64.5 48 106.5c0 34.667 -11.833 60.834 -35.5 78.501s-55.167 26.5 -94.5 26.5
c-28 0 -51.333 -2.33301 -70 -7zM353 709.998h-65l-80 117h69l47 -72h3l72 72h74z" />
    <glyph glyph-name="rcaron" unicode="&#x159;" horiz-adv-x="318" 
d="M111 0h-83l59 312c4.66699 24 13 81.333 25 172h73c-5.33301 -45.333 -10 -80.333 -14 -105h3c17.333 35.333 38.5 63.5 63.5 84.5s53.167 31.5 84.5 31.5c6.66699 0 14.667 -0.666992 24 -2l-16 -82c-8 1.33301 -15.667 2 -23 2c-35.333 0 -67.5 -19 -96.5 -57
s-48.833 -85.333 -59.5 -142zM257 543h-59l-70 143h62l43 -92h3l71 92h67z" />
    <glyph glyph-name="Sacute" unicode="&#x15a;" horiz-adv-x="466" 
d="M12 37l30 68c41.333 -28.667 89 -43 143 -43c40 0 74.333 11.333 103 34s43 53.334 43 92.001c0 25.333 -7.66699 47.833 -23 67.5s-40.666 39.167 -75.999 58.5c-89.333 48 -134 105.667 -134 173c0 58.667 22 106.167 66 142.5s98 54.5 162 54.5
c58.667 0 104.667 -11.667 138 -35l-30 -68c-36 22 -74.667 32.667 -116 32c-40 0 -72.333 -11 -97 -33s-37 -47.667 -37 -77c0 -26 8.16699 -48.167 24.5 -66.5s43.166 -37.833 80.499 -58.5c43.333 -22.667 75.5 -48.334 96.5 -77.001s31.5 -63 31.5 -103
c0 -60 -22 -109.667 -66 -149s-103 -59 -177 -59c-33.333 0.666992 -65 5.5 -95 14.5s-52.333 19.833 -67 32.5zM367 829h108l-136 -118h-74z" />
    <glyph glyph-name="sacute" unicode="&#x15b;" horiz-adv-x="373" 
d="M9 23l24 60.998c31.333 -20 66 -30 104 -30c27.333 0 49.5 7.66699 66.5 23s25.5 34 25.5 56c0 19.333 -5 35.5 -15 48.5s-27.667 26.5 -53 40.5c-58 32 -87 73 -87 123c0 42.667 16.5 78.334 49.5 107.001s75.167 43 126.5 43c42.667 0 76 -8 100 -24l-23 -63
c-24.667 14.667 -52.334 22 -83.001 22c-25.333 0 -46.166 -6.83301 -62.499 -20.5s-24.5 -31.167 -24.5 -52.5c0 -16.667 5.33301 -31.167 16 -43.5s27.667 -24.833 51 -37.5c60 -34.667 90 -77 90 -127c0 -49.333 -17.5 -88.166 -52.5 -116.499
s-79.167 -42.5 -132.5 -42.5c-52.667 1.33301 -92.667 12.333 -120 33zM289 685.998h100l-133 -143h-65z" />
    <glyph glyph-name="Scircumflex" unicode="&#x15c;" horiz-adv-x="466" 
d="M12 37l30 68c41.333 -28.667 89 -43 143 -43c40 0 74.333 11.333 103 34s43 53.334 43 92.001c0 25.333 -7.66699 47.833 -23 67.5s-40.666 39.167 -75.999 58.5c-89.333 48 -134 105.667 -134 173c0 58.667 22 106.167 66 142.5s98 54.5 162 54.5
c58.667 0 104.667 -11.667 138 -35l-30 -68c-36 22 -74.667 32.667 -116 32c-40 0 -72.333 -11 -97 -33s-37 -47.667 -37 -77c0 -26 8.16699 -48.167 24.5 -66.5s43.166 -37.833 80.499 -58.5c43.333 -22.667 75.5 -48.334 96.5 -77.001s31.5 -63 31.5 -103
c0 -60 -22 -109.667 -66 -149s-103 -59 -177 -59c-33.333 0.666992 -65 5.5 -95 14.5s-52.333 19.833 -67 32.5zM311 828h65l80 -118h-68l-49 72h-2l-72 -72h-74z" />
    <glyph glyph-name="scircumflex" unicode="&#x15d;" horiz-adv-x="373" 
d="M9 23l24 60.998c31.333 -20 66 -30 104 -30c27.333 0 49.5 7.66699 66.5 23s25.5 34 25.5 56c0 19.333 -5 35.5 -15 48.5s-27.667 26.5 -53 40.5c-58 32 -87 73 -87 123c0 42.667 16.5 78.334 49.5 107.001s75.167 43 126.5 43c42.667 0 76 -8 100 -24l-23 -63
c-24.667 14.667 -52.334 22 -83.001 22c-25.333 0 -46.166 -6.83301 -62.499 -20.5s-24.5 -31.167 -24.5 -52.5c0 -16.667 5.33301 -31.167 16 -43.5s27.667 -24.833 51 -37.5c60 -34.667 90 -77 90 -127c0 -49.333 -17.5 -88.166 -52.5 -116.499
s-79.167 -42.5 -132.5 -42.5c-52.667 1.33301 -92.667 12.333 -120 33zM238 685.998h59l69 -143h-62l-43 91h-2l-70 -91h-67z" />
    <glyph glyph-name="Scedilla" unicode="&#x15e;" horiz-adv-x="466" 
d="M464 649l-30.002 -67.999c-34.667 21.333 -73.334 32 -116.001 32c-40 0 -72.333 -11 -97 -33s-37 -47.667 -37 -77c0 -26 8 -48.167 24 -66.5s42.667 -37.833 80 -58.5c43.333 -22.667 75.666 -48.334 96.999 -77.001s32 -63 32 -103c0 -50 -15.833 -93.5 -47.5 -130.5
s-75.167 -60.833 -130.5 -71.5l-34 -46c16 -3.33301 29 -11 39 -23s15 -26 15 -42c0 -26.667 -10.667 -47.667 -32 -63s-47 -23 -77 -23c-27.333 0 -49.333 5.66699 -66 17l19 44c14.667 -10 32 -15 52 -15c12 0 22.333 3.16699 31 9.5s13 15.166 13 26.499
c0 22 -22.333 35 -67 39l50 71c-1.33301 0 -3.66602 -0.166992 -6.99902 -0.5s-5.66602 -0.5 -6.99902 -0.5c-26 0 -54.667 4.5 -86 13.5s-54.666 20.167 -69.999 33.5l30 68c41.333 -28.667 89 -43 143 -43c40 0 74.333 11.333 103 34s43 53.334 43 92.001
c0 25.333 -7.66699 47.833 -23 67.5s-40.666 39.167 -75.999 58.5c-89.333 48 -134 105.667 -134 173c0 58.667 22 106.167 66 142.5s98 54.5 162 54.5c58.667 0 104.667 -11.667 138 -35z" />
    <glyph glyph-name="Scedilla" unicode="&#xf6c1;" horiz-adv-x="466" 
d="M464 649l-30.002 -67.999c-34.667 21.333 -73.334 32 -116.001 32c-40 0 -72.333 -11 -97 -33s-37 -47.667 -37 -77c0 -26 8 -48.167 24 -66.5s42.667 -37.833 80 -58.5c43.333 -22.667 75.666 -48.334 96.999 -77.001s32 -63 32 -103c0 -50 -15.833 -93.5 -47.5 -130.5
s-75.167 -60.833 -130.5 -71.5l-34 -46c16 -3.33301 29 -11 39 -23s15 -26 15 -42c0 -26.667 -10.667 -47.667 -32 -63s-47 -23 -77 -23c-27.333 0 -49.333 5.66699 -66 17l19 44c14.667 -10 32 -15 52 -15c12 0 22.333 3.16699 31 9.5s13 15.166 13 26.499
c0 22 -22.333 35 -67 39l50 71c-1.33301 0 -3.66602 -0.166992 -6.99902 -0.5s-5.66602 -0.5 -6.99902 -0.5c-26 0 -54.667 4.5 -86 13.5s-54.666 20.167 -69.999 33.5l30 68c41.333 -28.667 89 -43 143 -43c40 0 74.333 11.333 103 34s43 53.334 43 92.001
c0 25.333 -7.66699 47.833 -23 67.5s-40.666 39.167 -75.999 58.5c-89.333 48 -134 105.667 -134 173c0 58.667 22 106.167 66 142.5s98 54.5 162 54.5c58.667 0 104.667 -11.667 138 -35z" />
    <glyph glyph-name="scedilla" unicode="&#x15f;" horiz-adv-x="373" 
d="M350 471l-22.9971 -63.001c-24.667 14.667 -52.334 22 -83.001 22c-25.333 0 -46.166 -6.83301 -62.499 -20.5s-24.5 -31.167 -24.5 -52.5c0 -16.667 5.33301 -31.167 16 -43.5s27.667 -24.833 51 -37.5c60 -33.333 90 -75.666 90 -126.999
c0 -40 -11.833 -73.333 -35.5 -100s-54.834 -44.334 -93.501 -53.001l-34 -46c16 -3.33301 29 -10.833 39 -22.5s15 -25.5 15 -41.5c0 -26.667 -10.667 -47.667 -32 -63s-47 -23 -77 -23c-26.667 0 -48.334 5.66699 -65.001 17l18 42c15.333 -9.33301 32.666 -14 51.999 -14
c12 0 22.333 3.16699 31 9.5s13 15.166 13 26.499c0 22 -22 35 -66 39l50 70h-5c-22 0 -44 3.33301 -66 10s-38.333 14.334 -49 23.001l24 61c31.333 -20 66 -30 104 -30c27.333 0 49.5 7.66699 66.5 23s25.5 34 25.5 56c0 19.333 -5 35.5 -15 48.5s-27.667 26.5 -53 40.5
c-58 32 -87 73 -87 123c0 42.667 16.5 78.334 49.5 107.001s75.167 43 126.5 43c42.667 0 76 -8 100 -24z" />
    <glyph glyph-name="scedilla" unicode="&#xf6c2;" horiz-adv-x="373" 
d="M350 471l-22.9971 -63.001c-24.667 14.667 -52.334 22 -83.001 22c-25.333 0 -46.166 -6.83301 -62.499 -20.5s-24.5 -31.167 -24.5 -52.5c0 -16.667 5.33301 -31.167 16 -43.5s27.667 -24.833 51 -37.5c60 -33.333 90 -75.666 90 -126.999
c0 -40 -11.833 -73.333 -35.5 -100s-54.834 -44.334 -93.501 -53.001l-34 -46c16 -3.33301 29 -10.833 39 -22.5s15 -25.5 15 -41.5c0 -26.667 -10.667 -47.667 -32 -63s-47 -23 -77 -23c-26.667 0 -48.334 5.66699 -65.001 17l18 42c15.333 -9.33301 32.666 -14 51.999 -14
c12 0 22.333 3.16699 31 9.5s13 15.166 13 26.499c0 22 -22 35 -66 39l50 70h-5c-22 0 -44 3.33301 -66 10s-38.333 14.334 -49 23.001l24 61c31.333 -20 66 -30 104 -30c27.333 0 49.5 7.66699 66.5 23s25.5 34 25.5 56c0 19.333 -5 35.5 -15 48.5s-27.667 26.5 -53 40.5
c-58 32 -87 73 -87 123c0 42.667 16.5 78.334 49.5 107.001s75.167 43 126.5 43c42.667 0 76 -8 100 -24z" />
    <glyph glyph-name="Scaron" unicode="&#x160;" horiz-adv-x="466" 
d="M12 37l30 68c41.333 -28.667 89 -43 143 -43c40 0 74.333 11.333 103 34s43 53.334 43 92.001c0 25.333 -7.66699 47.833 -23 67.5s-40.666 39.167 -75.999 58.5c-89.333 48 -134 105.667 -134 173c0 58.667 22 106.167 66 142.5s98 54.5 162 54.5
c58.667 0 104.667 -11.667 138 -35l-30 -68c-36 22 -74.667 32.667 -116 32c-40 0 -72.333 -11 -97 -33s-37 -47.667 -37 -77c0 -26 8.16699 -48.167 24.5 -66.5s43.166 -37.833 80.499 -58.5c43.333 -22.667 75.5 -48.334 96.5 -77.001s31.5 -63 31.5 -103
c0 -60 -22 -109.667 -66 -149s-103 -59 -177 -59c-33.333 0.666992 -65 5.5 -95 14.5s-52.333 19.833 -67 32.5zM350 710h-65l-80 117h69l47 -72h3l72 72h74z" />
    <glyph glyph-name="scaron" unicode="&#x161;" horiz-adv-x="373" 
d="M9 23l24 60.998c31.333 -20 66 -30 104 -30c27.333 0 49.5 7.66699 66.5 23s25.5 34 25.5 56c0 19.333 -5 35.5 -15 48.5s-27.667 26.5 -53 40.5c-58 32 -87 73 -87 123c0 42.667 16.5 78.334 49.5 107.001s75.167 43 126.5 43c42.667 0 76 -8 100 -24l-23 -63
c-24.667 14.667 -52.334 22 -83.001 22c-25.333 0 -46.166 -6.83301 -62.499 -20.5s-24.5 -31.167 -24.5 -52.5c0 -16.667 5.33301 -31.167 16 -43.5s27.667 -24.833 51 -37.5c60 -34.667 90 -77 90 -127c0 -49.333 -17.5 -88.166 -52.5 -116.499
s-79.167 -42.5 -132.5 -42.5c-52.667 1.33301 -92.667 12.333 -120 33zM274 542.998h-59l-70 143h62l43 -92h3l71 92h67z" />
    <glyph glyph-name="Tcommaaccent" unicode="&#x162;" horiz-adv-x="474" 
d="M148 0l114 602h-197l14 72h478l-14 -72h-198l-114 -602h-83zM91 -221l-9.99902 42c23.333 3.33301 43.666 11.333 60.999 24s26 29.667 26 51c0 19.333 -8 35.666 -24 48.999l66 13c18.667 -13.333 28 -33 28 -59c0 -36 -14.5 -64.167 -43.5 -84.5
s-63.5 -32.166 -103.5 -35.499z" />
    <glyph glyph-name="Tcommaaccent" unicode="&#x21a;" horiz-adv-x="474" 
d="M148 0l114 602h-197l14 72h478l-14 -72h-198l-114 -602h-83zM91 -221l-9.99902 42c23.333 3.33301 43.666 11.333 60.999 24s26 29.667 26 51c0 19.333 -8 35.666 -24 48.999l66 13c18.667 -13.333 28 -33 28 -59c0 -36 -14.5 -64.167 -43.5 -84.5
s-63.5 -32.166 -103.5 -35.499z" />
    <glyph glyph-name="tcommaaccent" unicode="&#x163;" horiz-adv-x="313" 
d="M155 573l87.001 27l-22 -116h116l-13 -65h-116l-44 -235c-6.66699 -30 -10 -55.667 -10 -77c0 -31.333 15.333 -47 46 -47c16 0 29 1.33301 39 4l-4 -65c-14.667 -6 -36 -9 -64 -9c-34.667 0 -60.334 8.83301 -77.001 26.5s-25 40.167 -25 67.5
c0 23.333 3.66699 53.333 11 90l47 245h-69l12 65h69zM21.001 -221l-9.99902 42c23.333 3.33301 43.666 11.333 60.999 24s26 29.667 26 51c0 19.333 -8 35.666 -24 48.999l66 13c18.667 -13.333 28 -33 28 -59c0 -36 -14.5 -64.167 -43.5 -84.5
s-63.5 -32.166 -103.5 -35.499z" />
    <glyph glyph-name="tcommaaccent" unicode="&#x21b;" horiz-adv-x="313" 
d="M155 573l87.001 27l-22 -116h116l-13 -65h-116l-44 -235c-6.66699 -30 -10 -55.667 -10 -77c0 -31.333 15.333 -47 46 -47c16 0 29 1.33301 39 4l-4 -65c-14.667 -6 -36 -9 -64 -9c-34.667 0 -60.334 8.83301 -77.001 26.5s-25 40.167 -25 67.5
c0 23.333 3.66699 53.333 11 90l47 245h-69l12 65h69zM21.001 -221l-9.99902 42c23.333 3.33301 43.666 11.333 60.999 24s26 29.667 26 51c0 19.333 -8 35.666 -24 48.999l66 13c18.667 -13.333 28 -33 28 -59c0 -36 -14.5 -64.167 -43.5 -84.5
s-63.5 -32.166 -103.5 -35.499z" />
    <glyph glyph-name="Tcaron" unicode="&#x164;" horiz-adv-x="474" 
d="M148 0l114 602h-197l14 72h478l-14 -72h-198l-114 -602h-83zM357 710h-65l-80 117h69l47 -72h3l72 72h74z" />
    <glyph glyph-name="tcaron" unicode="&#x165;" horiz-adv-x="313" 
d="M155 573l87.001 27l-22 -116h116l-13 -65h-116l-44 -235c-6.66699 -30 -10 -55.667 -10 -77c0 -31.333 15.333 -47 46 -47c16 0 29 1.33301 39 4l-4 -65c-14.667 -6 -36 -9 -64 -9c-34.667 0 -60.334 8.83301 -77.001 26.5s-25 40.167 -25 67.5
c0 23.333 3.66699 53.333 11 90l47 245h-69l12 65h69zM317.001 542l-18.001 39.002c34 14.667 51 38.334 51 71.001c0 21.333 -7.33301 38.666 -22 51.999l62 14c8 -5.33301 14.833 -13.833 20.5 -25.5s8.5 -23.834 8.5 -36.501c0 -32 -10.667 -57.833 -32 -77.5
s-44.666 -31.834 -69.999 -36.501z" />
    <glyph glyph-name="Tbar" unicode="&#x166;" horiz-adv-x="474" 
d="M423 321h-131l-61 -321h-83l61 321h-126l12 58h125l42 223h-197l14 72h478l-14 -72h-198l-43 -223h133z" />
    <glyph glyph-name="tbar" unicode="&#x167;" horiz-adv-x="313" 
d="M44 303h59.001l23 116h-69l12 65h69l17 89l87 27l-22 -116h116l-13 -65h-116l-22 -116h93l-11 -52h-92l-14 -75c-5.33301 -26.667 -8 -49.667 -8 -69c0 -31.333 15.333 -47 46 -47c16 0 29 1.33301 39 4l-4 -65c-14.667 -6 -36 -9 -64 -9
c-34.667 0 -60.334 8.83301 -77.001 26.5s-25 40.167 -25 67.5c0 23.333 3.66699 53.333 11 90l14 77h-59z" />
    <glyph glyph-name="Utilde" unicode="&#x168;" horiz-adv-x="621" 
d="M158 674h83l-76 -399c-5.33301 -30 -8 -58.333 -8 -85c0 -42 11.167 -74.167 33.5 -96.5s52.833 -33.5 91.5 -33.5c98 0 160.667 71.333 188 214l77 400h83l-77 -403c-36.667 -188 -130.667 -282 -282 -282c-58.667 0 -106.167 16.5 -142.5 49.5
s-54.5 82.833 -54.5 149.5c0 30.667 3 61.667 9 93zM328 716h-47.002c5.33301 30 15.333 54.167 30 72.5s32 27.5 52 27.5c19.333 0 39.333 -7 60 -21c18 -12 32.667 -18 44 -18c15.333 0 27 13.333 35 40h46c-11.333 -64 -39 -96 -83 -96c-18 0 -38 6.66699 -60 20
c-21.333 12.667 -35.666 18.667 -42.999 18c-15.333 0 -26.666 -14.333 -33.999 -43z" />
    <glyph glyph-name="utilde" unicode="&#x169;" horiz-adv-x="526" 
d="M418 484h83l-66 -343c-10 -54 -17 -101 -21 -141h-75l13 91h-2c-22 -32 -48 -57 -78 -75s-61 -27 -93 -27c-36 0 -66.333 10.667 -91 32s-37 57.333 -37 108c0 22.667 3 50 9 82l53 273h82l-51 -270c-5.33301 -28.667 -8 -52.334 -8 -71.001c0 -56 25.667 -84 77 -84
c32 0 64 16.833 96 50.5s52.667 75.834 62 126.501zM258 568l-48 -0.000976562c3.33301 30 11.833 54.167 25.5 72.5s30.834 27.5 51.501 27.5c15.333 0 35.666 -7.33301 60.999 -22c18.667 -11.333 32 -17 40 -17c8.66699 0 15.167 2.83301 19.5 8.5
s7.83301 16.834 10.5 33.501h47c-8 -64 -33.667 -96 -77 -96c-18 0 -37.667 6.66699 -59 20c-18.667 12 -32.667 18 -42 18c-13.333 0 -23 -15 -29 -45z" />
    <glyph glyph-name="Umacron" unicode="&#x16a;" horiz-adv-x="621" 
d="M158 674h83l-76 -399c-5.33301 -30 -8 -58.333 -8 -85c0 -42 11.167 -74.167 33.5 -96.5s52.833 -33.5 91.5 -33.5c98 0 160.667 71.333 188 214l77 400h83l-77 -403c-36.667 -188 -130.667 -282 -282 -282c-58.667 0 -106.167 16.5 -142.5 49.5
s-54.5 82.833 -54.5 149.5c0 30.667 3 61.667 9 93zM299 787h231l-10 -54h-231z" />
    <glyph glyph-name="umacron" unicode="&#x16b;" horiz-adv-x="526" 
d="M418 484h83l-66 -343c-10 -54 -17 -101 -21 -141h-75l13 91h-2c-22 -32 -48 -57 -78 -75s-61 -27 -93 -27c-36 0 -66.333 10.667 -91 32s-37 57.333 -37 108c0 22.667 3 50 9 82l53 273h82l-51 -270c-5.33301 -28.667 -8 -52.334 -8 -71.001c0 -56 25.667 -84 77 -84
c32 0 64 16.833 96 50.5s52.667 75.834 62 126.501zM226 646h219l-10 -53h-219z" />
    <glyph glyph-name="Ubreve" unicode="&#x16c;" horiz-adv-x="621" 
d="M158 674h83l-76 -399c-5.33301 -30 -8 -58.333 -8 -85c0 -42 11.167 -74.167 33.5 -96.5s52.833 -33.5 91.5 -33.5c98 0 160.667 71.333 188 214l77 400h83l-77 -403c-36.667 -188 -130.667 -282 -282 -282c-58.667 0 -106.167 16.5 -142.5 49.5
s-54.5 82.833 -54.5 149.5c0 30.667 3 61.667 9 93zM299 830l52.001 -0.000976562c-0.666992 -15.333 3.83301 -28.166 13.5 -38.499s25.5 -15.5 47.5 -15.5c41.333 0 66.333 18 75 54h55c-5.33301 -30.667 -19.333 -56 -42 -76s-53.334 -30 -92.001 -30
c-40.667 0 -70 10 -88 30s-25 45.333 -21 76z" />
    <glyph glyph-name="ubreve" unicode="&#x16d;" horiz-adv-x="526" 
d="M418 484h83l-66 -343c-10 -54 -17 -101 -21 -141h-75l13 91h-2c-22 -32 -48 -57 -78 -75s-61 -27 -93 -27c-36 0 -66.333 10.667 -91 32s-37 57.333 -37 108c0 22.667 3 50 9 82l53 273h82l-51 -270c-5.33301 -28.667 -8 -52.334 -8 -71.001c0 -56 25.667 -84 77 -84
c32 0 64 16.833 96 50.5s52.667 75.834 62 126.501zM215 683h49.9961c-1.33301 -19.333 2.83398 -35.5 12.501 -48.5s23.834 -19.5 42.501 -19.5c40.667 0 67.334 22.667 80.001 68h52c-6 -36.667 -21.167 -66 -45.5 -88s-53.833 -33 -88.5 -33
c-40.667 0 -69.167 11.667 -85.5 35s-22.166 52 -17.499 86z" />
    <glyph glyph-name="Uring" unicode="&#x16e;" horiz-adv-x="621" 
d="M158 674h83l-76 -399c-5.33301 -30 -8 -58.333 -8 -85c0 -42 11.167 -74.167 33.5 -96.5s52.833 -33.5 91.5 -33.5c98 0 160.667 71.333 188 214l77 400h83l-77 -403c-36.667 -188 -130.667 -282 -282 -282c-58.667 0 -106.167 16.5 -142.5 49.5
s-54.5 82.833 -54.5 149.5c0 30.667 3 61.667 9 93zM408 872h1.00195c28 0 50.667 -8 68 -24s26 -37 26 -63c-0.666992 -27.333 -10.834 -49.333 -30.501 -66s-43.834 -25 -72.501 -25c-27.333 0 -49.666 7.66699 -66.999 23s-26.333 35.333 -27 60
c-0.666992 27.333 8.66602 50 27.999 68s44 27 74 27zM405.002 836l-0.999023 0.000976562c-14 0 -25.333 -5.33301 -34 -16s-13 -24 -13 -40c0 -14 4.16699 -25.833 12.5 -35.5s19.166 -14.5 32.499 -14.5c14.667 0 26.5 5.16699 35.5 15.5s13.5 23.166 13.5 38.499
s-4.16699 27.833 -12.5 37.5s-19.5 14.5 -33.5 14.5z" />
    <glyph glyph-name="uring" unicode="&#x16f;" horiz-adv-x="526" 
d="M418 484h83l-66 -343c-10 -54 -17 -101 -21 -141h-75l13 91h-2c-22 -32 -48 -57 -78 -75s-61 -27 -93 -27c-36 0 -66.333 10.667 -91 32s-37 57.333 -37 108c0 22.667 3 50 9 82l53 273h82l-51 -270c-5.33301 -28.667 -8 -52.334 -8 -71.001c0 -56 25.667 -84 77 -84
c32 0 64 16.833 96 50.5s52.667 75.834 62 126.501zM342 720h1c27.333 0 50 -8.33301 68 -25s27 -38.667 27 -66c-0.666992 -28 -11.167 -50.833 -31.5 -68.5s-44.5 -26.5 -72.5 -26.5c-27.333 0 -50 8.16699 -68 24.5s-27.333 37.5 -28 63.5
c-0.666992 28.667 9 52.167 29 70.5s45 27.5 75 27.5zM339 682h-1c-14.667 0 -26.667 -5.5 -36 -16.5s-14 -24.833 -14 -41.5c0 -14 4.5 -26.167 13.5 -36.5s20.5 -15.5 34.5 -15.5c14.667 0 27 5.5 37 16.5s15 24.833 15 41.5c0 14.667 -4.5 27 -13.5 37
s-20.833 15 -35.5 15z" />
    <glyph glyph-name="Uhungarumlaut" unicode="&#x170;" horiz-adv-x="621" 
d="M158 674h83l-76 -399c-5.33301 -30 -8 -58.333 -8 -85c0 -42 11.167 -74.167 33.5 -96.5s52.833 -33.5 91.5 -33.5c98 0 160.667 71.333 188 214l77 400h83l-77 -403c-36.667 -188 -130.667 -282 -282 -282c-58.667 0 -106.167 16.5 -142.5 49.5
s-54.5 82.833 -54.5 149.5c0 30.667 3 61.667 9 93zM376 828h95l-127 -113h-64zM524 828h95l-127 -113h-64z" />
    <glyph glyph-name="uhungarumlaut" unicode="&#x171;" horiz-adv-x="526" 
d="M418 484h83l-66 -343c-10 -54 -17 -101 -21 -141h-75l13 91h-2c-22 -32 -48 -57 -78 -75s-61 -27 -93 -27c-36 0 -66.333 10.667 -91 32s-37 57.333 -37 108c0 22.667 3 50 9 82l53 273h82l-51 -270c-5.33301 -28.667 -8 -52.334 -8 -71.001c0 -56 25.667 -84 77 -84
c32 0 64 16.833 96 50.5s52.667 75.834 62 126.501zM294 686h88l-125 -143h-56zM439 686h88l-126 -143h-55z" />
    <glyph glyph-name="Uogonek" unicode="&#x172;" horiz-adv-x="621" 
d="M366 -125l9.99805 -48.001c-21.333 -12.667 -46.666 -19 -75.999 -19c-25.333 0 -45 6.33301 -59 19s-21 30.334 -21 53.001c0 34.667 21 71.667 63 111c-5.33301 -0.666992 -13.333 -1 -24 -1c-55.333 2 -100 19.5 -134 52.5s-51 81.5 -51 145.5c0 30.667 3 61.667 9 93
l75 393h84l-77 -399c-5.33301 -30 -8 -58.333 -8 -85c0 -42 11.333 -74.167 34 -96.5s53.334 -33.5 92.001 -33.5c98 0 160.667 71.333 188 214l76 400h83l-77 -403c-25.333 -131.333 -78 -216.333 -158 -255c-24 -11.333 -44 -24 -60 -38
c-30.667 -25.333 -46 -51.333 -46 -78c0 -22 11.333 -33 34 -33c16 0 30.333 2.66699 43 8z" />
    <glyph glyph-name="uogonek" unicode="&#x173;" horiz-adv-x="526" 
d="M500 484l-65.001 -342.999c-10 -54 -17 -101 -21 -141l-20 4c-36 -40.667 -54 -76.334 -54 -107.001c0 -12 3.66699 -21.667 11 -29s17 -11 29 -11c14 0 28.333 3.33301 43 10l9 -44c-19.333 -16.667 -46 -25 -80 -25c-25.333 0 -45 6.83301 -59 20.5s-21 32.5 -21 56.5
c0 6.66699 0.833008 13.5 2.5 20.5s3.5 13.5 5.5 19.5s5 12.5 9 19.5l10 18c2.66699 5 6.5 10.833 11.5 17.5l11 14.5l10.5 13.5c4.66699 6 7.33398 9.33301 8.00098 10l11 83h-2c-22 -32 -47.833 -57 -77.5 -75s-60.5 -27 -92.5 -27c-36 0 -66.333 10.667 -91 32
s-37 57.333 -37 108c0 22.667 3 50 9 82l53 273h83l-52 -270c-5.33301 -28.667 -8 -52.334 -8 -71.001c0 -56 25.667 -84 77 -84c32 0 63.833 16.833 95.5 50.5s52.167 75.834 61.5 126.501l48 248h82z" />
    <glyph glyph-name="Wcircumflex" unicode="&#x174;" horiz-adv-x="829" 
d="M219 0l-89 -0.000976562l-33 674h83l15 -404c1.33301 -59.333 1.33301 -117.666 0 -174.999h2c20 55.333 43 112 69 170l187 409h89l14 -388c2.66699 -80.667 3 -144 1 -190h2c22 63.333 44 121 66 173l182 405h87l-313 -674h-88l-17 383
c-3.33301 61.333 -2.66602 126 2.00098 194h-3c-26.667 -76.667 -49.334 -135.667 -68.001 -177zM491 827.999h65l80 -118h-68l-49 72h-2l-72 -72h-74z" />
    <glyph glyph-name="wcircumflex" unicode="&#x175;" horiz-adv-x="707" 
d="M61 484h82l17 -272c2.66699 -38.667 3.33398 -82 2.00098 -130h3c12 34.667 29.667 75 53 121l143 281h73l30 -276c5.33301 -56.667 8 -98.667 8 -126h2c15.333 46 30.666 87 45.999 123l131 279h84l-239 -484h-77l-32 263c-4.66699 42 -7 85 -7 129h-2
c-28 -65.333 -46.667 -107.333 -56 -126l-139 -266h-77zM404 686h59l69 -143h-62l-43 91h-2l-70 -91h-67z" />
    <glyph glyph-name="Ycircumflex" unicode="&#x176;" horiz-adv-x="517" 
d="M243 0h-81.999l53 280l-130 394h89l65 -218c13.333 -46 22.666 -83.667 27.999 -113h2l72 116l146 215h97l-287 -393zM320.001 828h65l80 -118h-68l-49 72h-2l-72 -72h-74z" />
    <glyph glyph-name="ycircumflex" unicode="&#x177;" horiz-adv-x="441" 
d="M48 484l86.002 0.00195312l48 -260c9.33301 -48.667 16.666 -91.334 21.999 -128.001h2l52 119l124 269h88l-182 -368c-58.667 -117.333 -114.334 -202 -167.001 -254c-24 -24.667 -48.833 -43.834 -74.5 -57.501s-47.5 -22.5 -65.5 -26.5l-21 72
c35.333 12 65 27.333 89 46c38 28.667 69.333 66 94 112c3.33301 6.66699 4 14 2 22zM263.002 686.002h59l69 -143h-62l-43 91h-2l-70 -91h-67z" />
    <glyph glyph-name="Ydieresis" unicode="&#x178;" horiz-adv-x="517" 
d="M243 0h-81.999l53 280l-130 394h89l65 -218c13.333 -46 22.666 -83.667 27.999 -113h2l72 116l146 215h97l-287 -393zM252.001 720l-1 0.00195312c-12.667 0 -23.5 4.66699 -32.5 14s-13.5 20.666 -13.5 33.999c0 14.667 5 27.167 15 37.5s22.333 15.5 37 15.5
c14 0 25.333 -4.83301 34 -14.5s13 -20.834 13 -33.501c0 -14.667 -5 -27.167 -15 -37.5s-22.333 -15.5 -37 -15.5zM436.001 720.002l-1 0.00195312c-12.667 0 -23.5 4.66699 -32.5 14s-13.5 20.666 -13.5 33.999c0 14.667 5 27.167 15 37.5s22.333 15.5 37 15.5
c14 0 25.333 -4.83301 34 -14.5s13 -20.834 13 -33.501c0 -14.667 -5 -27.167 -15 -37.5s-22.333 -15.5 -37 -15.5z" />
    <glyph glyph-name="Zacute" unicode="&#x179;" horiz-adv-x="523" 
d="M-20 0l9 51l458 549l-1 3h-320l14 71h432l-11 -53l-454 -547l1 -3h354l-13 -71h-469zM408 828h108l-136 -118h-74z" />
    <glyph glyph-name="zacute" unicode="&#x17a;" horiz-adv-x="415" 
d="M-21 0l8.99902 50.999l235 262c28.667 32 62.334 65.333 101.001 100v3h-248l14 68h347l-11 -55l-231 -258c-32.667 -35.333 -66 -68.666 -100 -99.999l-1 -3h269l-14 -68h-370zM317.999 685.999h100l-133 -143h-65z" />
    <glyph glyph-name="Zdotaccent" unicode="&#x17b;" horiz-adv-x="523" 
d="M-20 0l9 51l458 549l-1 3h-320l14 71h432l-11 -53l-454 -547l1 -3h354l-13 -71h-469zM359 720h-1c-12.667 0 -23.667 4.83301 -33 14.5s-14 21.167 -14 34.5c0 14 5.16699 26.333 15.5 37s22.5 16 36.5 16s25.5 -4.83301 34.5 -14.5s13.5 -21.167 13.5 -34.5
c0 -14.667 -5 -27.167 -15 -37.5s-22.333 -15.5 -37 -15.5z" />
    <glyph glyph-name="zdotaccent" unicode="&#x17c;" horiz-adv-x="415" 
d="M-21 0l8.99902 50.999l235 262c28.667 32 62.334 65.333 101.001 100v3h-248l14 68h347l-11 -55l-231 -258c-32.667 -35.333 -66 -68.666 -100 -99.999l-1 -3h269l-14 -68h-370zM276.999 568.999h-1c-13.333 0 -24.333 4.66699 -33 14s-13 21 -13 35
c0 15.333 5 28.166 15 38.499s22.333 15.5 37 15.5c14 0 25.333 -4.66699 34 -14s13 -21 13 -35c0 -15.333 -4.83301 -28.166 -14.5 -38.499s-22.167 -15.5 -37.5 -15.5z" />
    <glyph glyph-name="Zcaron" unicode="&#x17d;" horiz-adv-x="523" 
d="M-20 0l9 51l458 549l-1 3h-320l14 71h432l-11 -53l-454 -547l1 -3h354l-13 -71h-469zM391 710h-65l-80 117h69l47 -72h3l72 72h74z" />
    <glyph glyph-name="zcaron" unicode="&#x17e;" horiz-adv-x="415" 
d="M-21 0l8.99902 50.999l235 262c28.667 32 62.334 65.333 101.001 100v3h-248l14 68h347l-11 -55l-231 -258c-32.667 -35.333 -66 -68.666 -100 -99.999l-1 -3h269l-14 -68h-370zM300.999 542.999h-59l-70 143h62l43 -92h3l71 92h67z" />
    <glyph glyph-name="florin" unicode="&#x192;" horiz-adv-x="492" 
d="M125 339l10.002 62.001h93l13 47c8 30 16.5 56.167 25.5 78.5s21.167 44.5 36.5 66.5s35 38.833 59 50.5s51.667 17.5 83 17.5c29.333 -0.666992 51.666 -6 66.999 -16l-23 -61c-18 7.33301 -36 11 -54 11c-54 0 -92.667 -50.667 -116 -152l-10 -42h116l-10 -62h-121
l-51 -207c-18 -70.667 -41 -124.334 -69 -161.001s-68 -55 -120 -55c-32.667 0 -57.667 6 -75 18l19 60c14 -8 32.667 -12 56 -12c26 0 47.667 13.333 65 40s32.666 67.667 45.999 123l49 194h-89z" />
    <glyph glyph-name="AEacute" unicode="&#x1fc;" horiz-adv-x="773" 
d="M37 0h-88l448 674h380l-14 -71h-251l-23 -218h238l-13 -70h-230l-26 -244h257l-13 -71h-329l24 238h-202zM238 307h165l21 195c4.66699 50.667 8.66699 87 12 109h-4c-22.667 -40 -44 -75.333 -64 -106zM587 828h108l-136 -118h-74z" />
    <glyph glyph-name="aeacute" unicode="&#x1fd;" horiz-adv-x="718" 
d="M631 89l9.99609 -59.9971c-43.333 -26.667 -96.333 -40 -159 -40c-39.333 0 -72.833 9.33301 -100.5 28s-46.834 45 -57.501 79h-2c-19.333 -33.333 -45.166 -59.5 -77.499 -78.5s-67.5 -28.5 -105.5 -28.5c-41.333 0 -73.666 11.833 -96.999 35.5
s-35.333 53.167 -36 88.5c0 62.667 29.333 110.667 88 144s134.334 48.333 227.001 45l3 19c4.66699 27.333 -0.333008 52.666 -15 75.999s-40.334 35 -77.001 35c-42.667 0 -84.667 -13.333 -126 -40l-17 56c48.667 31.333 99.667 47 153 47
c38.667 0 69.834 -8.83301 93.501 -26.5s38.5 -42.834 44.5 -75.501h2c20.667 33.333 47.334 58.666 80.001 75.999s67.334 26 104.001 26c44 0 78.167 -11.5 102.5 -34.5s36.5 -50.167 36.5 -81.5c0 -32.667 -8.33301 -59.5 -25 -80.5s-41 -36.167 -73 -45.5
s-65.333 -15.5 -100 -18.5s-76 -3.5 -124 -1.5c-8 -46 -6.33301 -83.333 5 -112c19.333 -43.333 56.333 -65 111 -65c45.333 0 89.333 11 132 33zM300.996 189.003l9.00098 53.999c-24 1.33301 -47.5 0.5 -70.5 -2.5s-46.333 -8.33301 -70 -16
s-42.834 -20.167 -57.501 -37.5s-22 -38.333 -22 -63c0 -21.333 6.5 -38.166 19.5 -50.499s30.167 -18.5 51.5 -18.5c32 0 61.333 11.667 88 35s44 56.333 52 99zM622.997 372.002l0.000976562 0.999023c0 16 -6.16699 29.667 -18.5 41s-29.833 17 -52.5 17
c-39.333 0 -73.166 -14.5 -101.499 -43.5s-46.833 -60.167 -55.5 -93.5c30 -2 58.667 -2.16699 86 -0.5s51.666 4.66699 72.999 9s38.166 12.333 50.499 24s18.5 26.834 18.5 45.501zM467.998 686.001h100l-133 -143h-65z" />
    <glyph glyph-name="Oslashacute" unicode="&#x1fe;" horiz-adv-x="667" 
d="M64 -42l-40.998 38.999l77 88c-34.667 50.667 -52 111.667 -52 183c0 59.333 10.667 117.166 32 173.499s51 103.833 89 142.5c65.333 67.333 142.666 101 231.999 101c70.667 0 126 -19 166 -57l76 85l45 -36l-80 -91c32.667 -47.333 49 -106 49 -176
c0 -59.333 -10.667 -118.166 -32 -176.499s-50.333 -106.833 -87 -145.5c-30 -31.333 -65.333 -55.666 -106 -72.999s-82.334 -26 -125.001 -26c-68 0 -123 19 -165 57zM160.002 154.999l357 412c-28.667 32 -70 48 -124 48c-54.667 0 -104 -20.5 -148 -61.5
s-75.333 -93.167 -94 -156.5c-26 -88 -24 -168.667 6 -242h3zM547.002 511.999l-354.001 -406.999c29.333 -30.667 71.333 -46 126 -46c50 0 96.333 19.167 139 57.5s73.667 88.166 93 149.499c28.667 90 28.334 172 -0.999023 246h-3zM469.001 832h108l-136 -118h-74z" />
    <glyph glyph-name="oslashacute" unicode="&#x1ff;" horiz-adv-x="523" 
d="M52 -38l-29.999 30l56 66c-28.667 34 -43 79.333 -43 136c0 80 25.5 150.167 76.5 210.5s114.167 90.5 189.5 90.5c47.333 0 86 -11.667 116 -35l55 61l33 -28l-55 -64c28.667 -38 43 -82.333 43 -133c0 -84 -25.833 -156.167 -77.5 -216.5
s-112.834 -90.5 -183.501 -90.5c-52 0 -93 13 -123 39zM139.001 125l230 277c-18 19.333 -43.667 29 -77 29c-49.333 0 -90.333 -24.333 -123 -73s-49 -100 -49 -154c0 -32.667 5.66699 -59 17 -79h2zM390.001 359l-231.999 -274.999c19.333 -20.667 46.333 -31 81 -31
c43.333 0 82.166 23.667 116.499 71s51.833 99.666 52.5 156.999c0 28 -5 54 -15 78h-3zM366.002 686.001h100l-133 -143h-65z" />
    <glyph glyph-name="Scommaaccent" unicode="&#x218;" horiz-adv-x="466" 
d="M12 37l30 68c41.333 -28.667 89 -43 143 -43c40 0 74.333 11.333 103 34s43 53.334 43 92.001c0 25.333 -7.66699 47.833 -23 67.5s-40.666 39.167 -75.999 58.5c-89.333 48 -134 105.667 -134 173c0 58.667 22 106.167 66 142.5s98 54.5 162 54.5
c58.667 0 104.667 -11.667 138 -35l-30 -68c-36 22 -74.667 32.667 -116 32c-40 0 -72.333 -11 -97 -33s-37 -47.667 -37 -77c0 -26 8.16699 -48.167 24.5 -66.5s43.166 -37.833 80.499 -58.5c43.333 -22.667 75.5 -48.334 96.5 -77.001s31.5 -63 31.5 -103
c0 -60 -22 -109.667 -66 -149s-103 -59 -177 -59c-33.333 0.666992 -65 5.5 -95 14.5s-52.333 19.833 -67 32.5zM91 -221l-9.99902 42c23.333 3.33301 43.666 11.333 60.999 24s26 29.667 26 51c0 19.333 -8 35.666 -24 48.999l66 13c18.667 -13.333 28 -33 28 -59
c0 -36 -14.5 -64.167 -43.5 -84.5s-63.5 -32.166 -103.5 -35.499z" />
    <glyph glyph-name="scommaaccent" unicode="&#x219;" horiz-adv-x="373" 
d="M9 23l24 60.998c31.333 -20 66 -30 104 -30c27.333 0 49.5 7.66699 66.5 23s25.5 34 25.5 56c0 19.333 -5 35.5 -15 48.5s-27.667 26.5 -53 40.5c-58 32 -87 73 -87 123c0 42.667 16.5 78.334 49.5 107.001s75.167 43 126.5 43c42.667 0 76 -8 100 -24l-23 -63
c-24.667 14.667 -52.334 22 -83.001 22c-25.333 0 -46.166 -6.83301 -62.499 -20.5s-24.5 -31.167 -24.5 -52.5c0 -16.667 5.33301 -31.167 16 -43.5s27.667 -24.833 51 -37.5c60 -34.667 90 -77 90 -127c0 -49.333 -17.5 -88.166 -52.5 -116.499
s-79.167 -42.5 -132.5 -42.5c-52.667 1.33301 -92.667 12.333 -120 33zM43 -221.002l-9.99902 42c23.333 3.33301 43.666 11.333 60.999 24s26 29.667 26 51c0 19.333 -8 35.666 -24 48.999l66 13c18.667 -13.333 28 -33 28 -59c0 -36 -14.5 -64.167 -43.5 -84.5
s-63.5 -32.166 -103.5 -35.499z" />
    <glyph glyph-name="circumflex" unicode="&#x2c6;" 
d="M245 686h59l69 -143h-62l-43 91h-2l-70 -91h-67z" />
    <glyph glyph-name="caron" unicode="&#x2c7;" 
d="M284 543h-59l-70 143h62l43 -92h3l71 92h67z" />
    <glyph glyph-name="breve" unicode="&#x2d8;" 
d="M159 683h49.9961c-1.33301 -19.333 2.83398 -35.5 12.501 -48.5s23.834 -19.5 42.501 -19.5c40.667 0 67.334 22.667 80.001 68h52c-6 -36.667 -21.167 -66 -45.5 -88s-53.833 -33 -88.5 -33c-40.667 0 -69.167 11.667 -85.5 35s-22.166 52 -17.499 86z" />
    <glyph glyph-name="dotaccent" unicode="&#x2d9;" 
d="M262 569h-1c-13.333 0 -24.333 4.66699 -33 14s-13 21 -13 35c0 15.333 5 28.166 15 38.499s22.333 15.5 37 15.5c14 0 25.333 -4.66699 34 -14s13 -21 13 -35c0 -15.333 -4.83301 -28.166 -14.5 -38.499s-22.167 -15.5 -37.5 -15.5z" />
    <glyph glyph-name="ring" unicode="&#x2da;" horiz-adv-x="384" 
d="M271 720h1c27.333 0 50 -8.33301 68 -25s27 -38.667 27 -66c-0.666992 -28 -11.167 -50.833 -31.5 -68.5s-44.5 -26.5 -72.5 -26.5c-27.333 0 -50 8.16699 -68 24.5s-27.333 37.5 -28 63.5c-0.666992 28.667 9 52.167 29 70.5s45 27.5 75 27.5zM268 682h-1
c-14.667 0 -26.667 -5.5 -36 -16.5s-14 -24.833 -14 -41.5c0 -14 4.5 -26.167 13.5 -36.5s20.5 -15.5 34.5 -15.5c14.667 0 27 5.5 37 16.5s15 24.833 15 41.5c0 14.667 -4.5 27 -13.5 37s-20.833 15 -35.5 15z" />
    <glyph glyph-name="ogonek" unicode="&#x2db;" 
d="M137 1h61.999c-20 -15.333 -37.333 -33.333 -52 -54s-22 -39.667 -22 -57c0 -24.667 12.667 -37 38 -37c14.667 0 29.334 3.33301 44.001 10l9 -45c-23.333 -16 -50.333 -24 -81 -24c-24 0 -43 6.5 -57 19.5s-21 30.5 -21 52.5c0 44.667 26.667 89.667 80 135z" />
    <glyph glyph-name="tilde" unicode="&#x2dc;" 
d="M186 568l-48.001 -0.000976562c3.33301 30 11.833 54.167 25.5 72.5s30.834 27.5 51.501 27.5c14.667 0 35 -7.33301 61 -22c18.667 -11.333 32 -17 40 -17c8.66699 0 15.167 2.83301 19.5 8.5s7.83301 16.834 10.5 33.501h47c-8 -64 -33.667 -96 -77 -96
c-18 0 -37.667 6.66699 -59 20c-18.667 12 -32.667 18 -42 18c-13.333 0 -23 -15 -29 -45z" />
    <glyph glyph-name="hungarumlaut" unicode="&#x2dd;" 
d="M242 686h88l-125 -143h-56zM387 686h88l-126 -143h-55z" />
    <glyph glyph-name="uni037E" unicode="&#x37e;" horiz-adv-x="214" 
d="M32 -117l-64 -7c40.667 86.667 70 166 88 238l98 2c-41.333 -96 -82 -173.667 -122 -233zM144 323h-0.999023c-16.667 0 -30.334 5.83301 -41.001 17.5s-16 26.167 -16 43.5c0 19.333 6.16699 35.833 18.5 49.5s28.166 20.5 47.499 20.5c17.333 0 31.333 -6 42 -18
s16 -27 16 -45c0 -18.667 -6.16699 -34.667 -18.5 -48s-28.166 -20 -47.499 -20z" />
    <glyph glyph-name="tonos" unicode="&#x384;" horiz-adv-x="360" 
d="M300 686h99l-133 -143h-64z" />
    <glyph glyph-name="dieresistonos" unicode="&#x385;" horiz-adv-x="346" 
d="M231 702h81l-96 -155h-49zM109 569l-0.999023 0.00195312c-12.667 0 -23 4.16699 -31 12.5s-12 19.166 -12 32.499s4.66699 24.833 14 34.5s20.666 14.5 33.999 14.5s23.833 -4.33301 31.5 -13s11.5 -19.334 11.5 -32.001c0 -14 -4.33301 -25.667 -13 -35
s-20 -14 -34 -14zM352.001 569.002l-0.999023 0.00195312c-12.667 0 -23 4.16699 -31 12.5s-12 19.166 -12 32.499s4.66699 24.833 14 34.5s20.666 14.5 33.999 14.5s23.833 -4.33301 31.5 -13s11.5 -19.334 11.5 -32.001c0 -14 -4.33301 -25.667 -13 -35s-20 -14 -34 -14z
" />
    <glyph glyph-name="Alphatonos" unicode="&#x386;" horiz-adv-x="568" 
d="M401 213h-233l-107 -213h-87l348 674h98l93 -674h-85zM199 279h196.001l-27 195c-0.666992 6.66699 -2.33398 25.167 -5.00098 55.5l-6 68.5h-3c-2 -4 -9.66699 -21.5 -23 -52.5s-24 -54.5 -32 -70.5zM103.001 674h79l-48 -155h-50z" />
    <glyph glyph-name="anoteleia" unicode="&#x387;" horiz-adv-x="214" 
d="M117 255l-1.00098 0.000976562c-16 0 -29.333 5.83301 -40 17.5s-16 26.167 -16 43.5c0 19.333 6.16699 35.666 18.5 48.999s27.833 20 46.5 20c17.333 0 31.333 -5.83301 42 -17.5s16 -26.5 16 -44.5c0 -19.333 -6.16699 -35.5 -18.5 -48.5s-28.166 -19.5 -47.499 -19.5
z" />
    <glyph glyph-name="Epsilontonos" unicode="&#x388;" horiz-adv-x="491" 
d="M453 387l-14 -70h-245l-46 -246h276l-14 -71h-359l128 674h344l-14 -71h-260l-41 -216h245zM34 674h79l-48 -155h-50z" />
    <glyph glyph-name="Etatonos" unicode="&#x389;" horiz-adv-x="647" 
d="M179 674h83l-55 -284h310l55 284h83l-128 -674h-83l59 317h-310l-59 -317h-83zM33 674h79l-48 -155h-50z" />
    <glyph glyph-name="Iotatonos" unicode="&#x38a;" horiz-adv-x="254" 
d="M179 674h83l-129 -674h-82zM37 674h78l-48 -155h-50z" />
    <glyph glyph-name="Omicrontonos" unicode="&#x38c;" horiz-adv-x="683" 
d="M320 -11h-0.999023c-82.667 0 -146 26.5 -190 79.5s-66 117.833 -66 194.5c0 59.333 10.833 118 32.5 176s51.5 107.333 89.5 148c30 30.667 65.5 54.667 106.5 72s83.167 26 126.5 26c58 0 106.667 -13.333 146 -40s67.333 -60 84 -100s25 -85.333 25 -136
c0 -58 -10.333 -115.833 -31 -173.5s-49.334 -106.167 -86.001 -145.5c-63.333 -67.333 -142 -101 -236 -101zM330.001 59l1.00098 -0.00292969c46 0 88.833 17.5 128.5 52.5s70.5 79 92.5 132s33 106.833 33 161.5c0 26.667 -2.5 51.334 -7.5 74.001
s-13.667 44.834 -26 66.501s-30.833 38.667 -55.5 51s-54.334 18.5 -89.001 18.5c-48 0 -92.167 -18.167 -132.5 -54.5s-71 -80.666 -92 -132.999s-31.5 -104.833 -31.5 -157.5c0 -60.667 14.5 -111 43.5 -151s74.167 -60 135.5 -60zM32.002 673.997h79l-49 -155h-50z" />
    <glyph glyph-name="Upsilontonos" unicode="&#x38e;" horiz-adv-x="602" 
d="M123 611l19.9951 69.002c22.667 -2 47.334 -11.333 74.001 -28s48.334 -37.334 65.001 -62.001c46.667 -66 67.334 -148.667 62.001 -248h4c34.667 100.667 88.334 183.667 161.001 249c55.333 50 108.333 79.667 159 89l8 -72
c-44.667 -17.333 -93.5 -51.5 -146.5 -102.5s-97.167 -115.833 -132.5 -194.5c-21.333 -48 -36 -94 -44 -138l-32 -173h-82l32 174c9.33301 51.333 13 96.666 11 135.999c-3.33301 86 -20.166 154.833 -50.499 206.5s-66.5 83.167 -108.5 94.5zM17.9951 674.002h78l-48 -155
h-50z" />
    <glyph glyph-name="Omegatonos" unicode="&#x38f;" horiz-adv-x="697" 
d="M162 66l1.00293 4c-26 25.333 -47.667 58.333 -65 99s-26 84 -26 130c0 108.667 33.5 200.167 100.5 274.5s149.833 111.5 248.5 111.5c80 0 143.833 -25.5 191.5 -76.5s71.5 -114.167 71.5 -189.5c0 -76 -18.333 -144.5 -55 -205.5s-80.334 -108.833 -131.001 -143.5v-4
h136l-12 -66h-245l9 55c55.333 32.667 104.166 80.5 146.499 143.5s63.5 133.5 63.5 211.5c0 56.667 -15.833 105.334 -47.5 146.001s-76.834 61 -135.501 61c-50.667 0 -96 -16.333 -136 -49s-69.833 -73.334 -89.5 -122.001s-29.5 -99 -29.5 -151
c0 -54.667 9.5 -102.667 28.5 -144s43.5 -73.333 73.5 -96l-10 -55h-244l12 66h144zM36.0029 674h78l-48 -155h-49z" />
    <glyph glyph-name="iotadieresistonos" unicode="&#x390;" horiz-adv-x="229" 
d="M200 484l-70 -367.999c-4 -22.667 -3.66699 -38.334 1 -47.001s15.667 -12.667 33 -12l-17 -63c-8.66699 -3.33301 -20 -5 -34 -5c-47.333 0 -71 26 -71 78c0 11.333 5.33301 46.333 16 105l59 312h83zM186 693.001h81l-96 -154h-49zM64 560.001l-1 0.000976562
c-12 0 -22 4.16699 -30 12.5s-12 18.833 -12 31.5c0 13.333 4.5 24.666 13.5 33.999s20.167 14 33.5 14s23.833 -4.16699 31.5 -12.5s11.5 -18.833 11.5 -31.5c0 -14 -4.33301 -25.5 -13 -34.5s-20 -13.5 -34 -13.5zM307 560.002l-1 0.000976562c-12 0 -22 4.16699 -30 12.5
s-12 18.833 -12 31.5c0 13.333 4.5 24.666 13.5 33.999s20.167 14 33.5 14s23.833 -4.16699 31.5 -12.5s11.5 -18.833 11.5 -31.5c0 -14 -4.33301 -25.5 -13 -34.5s-20 -13.5 -34 -13.5z" />
    <glyph glyph-name="Alpha" unicode="&#x391;" horiz-adv-x="568" 
d="M401 213h-233l-107 -213h-87l348 674h98l93 -674h-85zM199 279h196.001l-27 195c-0.666992 6.66699 -2.33398 25.167 -5.00098 55.5l-6 68.5h-3c-2 -4 -9.66699 -21.5 -23 -52.5s-24 -54.5 -32 -70.5z" />
    <glyph glyph-name="Beta" unicode="&#x392;" horiz-adv-x="518" 
d="M33 5l123 660.002c48.667 9.33301 97 14 145 14c70 0 121.667 -15.333 155 -46c32.667 -26.667 49 -61.667 49 -105c0 -40.667 -14 -76.334 -42 -107.001s-62 -51.334 -102 -62.001v-2c32 -9.33301 58.333 -27 79 -53s31 -58.333 31 -97c0 -64.667 -26.667 -117 -80 -157
c-49.333 -36.667 -122.333 -55 -219 -55c-58 0 -104.333 3.33301 -139 10zM228 607.002l-41.999 -219h62c49.333 0 90.166 12 122.499 36s48.5 56 48.5 96c0 62 -40.667 93 -122 93c-32.667 0 -55.667 -2 -69 -6zM173.001 325.002l-47.001 -259
c18.667 -2.66699 41.334 -4 68.001 -4c54 -0.666992 99.167 11.333 135.5 36s54.5 62.334 54.5 113.001c0 37.333 -13.667 65.666 -41 84.999s-61.333 29 -102 29h-68z" />
    <glyph glyph-name="Gamma" unicode="&#x393;" horiz-adv-x="436" 
d="M159 674h347l-14 -71h-263l-114 -603h-84z" />
    <glyph glyph-name="Delta" unicode="&#x394;" horiz-adv-x="596" 
d="M-23 0l8 50l346 624h96l116 -624l-9 -50h-557zM83 69h373l-68 368c-9.33301 54 -17.333 106.667 -24 158h-3c-13.333 -30 -37 -76.667 -71 -140z" />
    <glyph glyph-name="Delta" unicode="&#xe000;" horiz-adv-x="596" 
d="M-23 0l8 50l346 624h96l116 -624l-9 -50h-557zM83 69h373l-68 368c-9.33301 54 -17.333 106.667 -24 158h-3c-13.333 -30 -37 -76.667 -71 -140z" />
    <glyph glyph-name="Epsilon" unicode="&#x395;" horiz-adv-x="470" 
d="M433 387l-14 -70h-245l-46 -246h276l-14 -71h-359l128 674h344l-14 -71h-260l-41 -216h245z" />
    <glyph glyph-name="Zeta" unicode="&#x396;" horiz-adv-x="523" 
d="M-20 0l9 51l458 549l-1 3h-320l14 71h432l-11 -53l-454 -547l1 -3h354l-13 -71h-469z" />
    <glyph glyph-name="Eta" unicode="&#x397;" horiz-adv-x="627" 
d="M159 674h83l-54 -284h310l54 284h83l-128 -674h-83l59 317h-309l-60 -317h-83z" />
    <glyph glyph-name="Theta" unicode="&#x398;" horiz-adv-x="668" 
d="M304 -11l-0.998047 0.000976562c-55.333 0 -102.833 13.167 -142.5 39.5s-68.334 59.666 -86.001 99.999s-26.5 85.166 -26.5 134.499c0 59.333 10.833 118 32.5 176s51.5 107 89.5 147c30 30.667 65.333 54.834 106 72.501s82.667 26.5 126 26.5
c85.333 0 149.166 -26.333 191.499 -79s63.5 -118.334 63.5 -197.001c0 -58.667 -10.167 -116.667 -30.5 -174s-48.833 -105.666 -85.5 -144.999c-64 -67.333 -143 -101 -237 -101zM315.002 59.001l1.00098 -0.00195312c68.667 0 128.167 36.333 178.5 109
s75.5 151.667 75.5 237c0 20.667 -1.5 40.334 -4.5 59.001s-8.5 37.5 -16.5 56.5s-18.5 35.167 -31.5 48.5s-30.333 24.333 -52 33s-46.5 13 -74.5 13c-48 0 -92.167 -18.167 -132.5 -54.5s-71 -80.666 -92 -132.999s-31.5 -104.833 -31.5 -157.5
c0 -60.667 14.667 -111 44 -151s74.666 -60 135.999 -60zM225.003 381.999h269l-11 -68h-269z" />
    <glyph glyph-name="Iota" unicode="&#x399;" horiz-adv-x="233" 
d="M158 674h83l-128 -674h-83z" />
    <glyph glyph-name="Kappa" unicode="&#x39a;" horiz-adv-x="515" 
d="M31 0l128 674h82l-62 -328l4 1l67 75l237 252h104l-284 -290l173 -384h-90l-147 331l-81 -75l-49 -256h-82z" />
    <glyph glyph-name="Lambda" unicode="&#x39b;" horiz-adv-x="569" 
d="M514 0l-86 0.000976562l-62 464c-3.33301 33.333 -7 76.666 -11 129.999h-2c-12.667 -33.333 -31.667 -76.333 -57 -129l-234 -465h-89l348 674h99z" />
    <glyph glyph-name="Mu" unicode="&#x39c;" horiz-adv-x="780" 
d="M676 0l-79.998 -0.00195312l48 364c12.667 92 24.667 168 36 228h-3c-38 -83.333 -73 -155.666 -105 -216.999l-201 -371h-63l-50 363c-10 75.333 -17 150.333 -21 225h-3c-0.666992 -3.33301 -7.66699 -35.833 -21 -97.5s-23.333 -105.167 -30 -130.5l-92 -364h-78
l175 674h106l53 -387c9.33301 -74.667 14.666 -131 15.999 -169h3c21.333 50.667 47.666 106.334 78.999 167.001l208 389h109z" />
    <glyph glyph-name="Nu" unicode="&#x39d;" horiz-adv-x="632" 
d="M109 0l-78 -0.000976562l128 674h91l154 -382c24 -61.333 43.667 -124 59 -188l2 1c4 60.667 13.667 131 29 211l68 358h78l-128 -674h-82l-154 381c-28 72.667 -48.667 137.334 -62 194.001l-3 -1c-6 -54.667 -17.667 -128.667 -35 -222z" />
    <glyph glyph-name="Xi" unicode="&#x39e;" horiz-adv-x="534" 
d="M132 674h434l-12 -70h-434zM113 384h367l-12 -70h-367zM12 71h455l-12 -71h-455z" />
    <glyph glyph-name="Omicron" unicode="&#x39f;" horiz-adv-x="668" 
d="M305 -11h-0.999023c-82.667 0 -146 26.5 -190 79.5s-66 117.833 -66 194.5c0 59.333 10.833 118 32.5 176s51.5 107.333 89.5 148c30 30.667 65.5 54.667 106.5 72s83.167 26 126.5 26c58 0 106.667 -13.333 146 -40s67.333 -60 84 -100s25 -85.333 25 -136
c0 -58 -10.333 -115.833 -31 -173.5s-49.334 -106.167 -86.001 -145.5c-63.333 -67.333 -142 -101 -236 -101zM315.001 59l1.00098 -0.00292969c46 0 88.833 17.5 128.5 52.5s70.5 79 92.5 132s33 106.833 33 161.5c0 26.667 -2.5 51.334 -7.5 74.001
s-13.667 44.834 -26 66.501s-30.833 38.667 -55.5 51s-54.334 18.5 -89.001 18.5c-48 0 -92.167 -18.167 -132.5 -54.5s-71 -80.666 -92 -132.999s-31.5 -104.833 -31.5 -157.5c0 -60.667 14.5 -111 43.5 -151s74.167 -60 135.5 -60z" />
    <glyph glyph-name="Pi" unicode="&#x3a0;" horiz-adv-x="621" 
d="M629 674l-127 -674h-83l114 604h-305l-114 -604h-83l128 674h470z" />
    <glyph glyph-name="Rho" unicode="&#x3a1;" horiz-adv-x="507" 
d="M31 0l126.999 664.999c43.333 9.33301 92 14 146 14c73.333 0 128.333 -17.333 165 -52c32.667 -29.333 49 -69.666 49 -120.999c0 -36 -7.66699 -69.333 -23 -100s-34.666 -55.667 -57.999 -75c-51.333 -43.333 -119.333 -65 -204 -65c-22.667 0 -45.667 1.66699 -69 5
l-51 -271h-82zM226.999 604.999l-50.001 -264c18.667 -4 41 -6 67 -6c56.667 0 102.5 15.5 137.5 46.5s52.5 70.5 52.5 118.5c0 38 -12.167 66.167 -36.5 84.5s-56.833 27.5 -97.5 27.5c-31.333 0 -55.666 -2.33301 -72.999 -7z" />
    <glyph glyph-name="Sigma" unicode="&#x3a3;" horiz-adv-x="534" 
d="M112 75v-4h373l-12 -71h-488l8 53l285 286l-170 276l9 59h443l-12 -70h-337l-1 -3l164 -266z" />
    <glyph glyph-name="Tau" unicode="&#x3a4;" horiz-adv-x="474" 
d="M148 0l114 602h-197l14 72h478l-14 -72h-198l-114 -602h-83z" />
    <glyph glyph-name="Upsilon" unicode="&#x3a5;" horiz-adv-x="544" 
d="M66 611l19.9951 69.002c22.667 -2 47.334 -11.333 74.001 -28s48.334 -37.334 65.001 -62.001c46.667 -66 67.334 -148.667 62.001 -248h4c34.667 100.667 88.334 183.667 161.001 249c55.333 50 108.333 79.667 159 89l8 -72c-44.667 -17.333 -93.5 -51.5 -146.5 -102.5
s-97.167 -115.833 -132.5 -194.5c-21.333 -48 -36 -94 -44 -138l-32 -173h-82l32 174c9.33301 51.333 13 96.666 11 135.999c-3.33301 86 -20.166 154.833 -50.499 206.5s-66.5 83.167 -108.5 94.5z" />
    <glyph glyph-name="Phi" unicode="&#x3a6;" horiz-adv-x="691" 
d="M256 -26l11.002 52.998c-62.667 6 -114.834 31.5 -156.501 76.5s-62.5 103.833 -62.5 176.5c0 56.667 10.667 109 32 157s48.5 87 81.5 117s69 53.333 108 70s77.167 25 114.5 25l11 51h78l-10 -51c62 -6 113.667 -31.667 155 -77s62 -104.666 62 -177.999
c0 -54.667 -9.83301 -105.334 -29.5 -152.001s-45.5 -85.167 -77.5 -115.5s-67.833 -54.166 -107.5 -71.499s-79.834 -26.666 -120.501 -27.999l-10 -53h-79zM279.002 89.998l93 496c-57.333 -0.666992 -111.5 -29.667 -162.5 -87s-76.5 -129 -76.5 -215
c0 -54 13.5 -98.5 40.5 -133.5s62.167 -55.167 105.5 -60.5zM450.002 585.998l-92 -495.999c67.333 2.66699 123.833 33.5 169.5 92.5s68.5 129.167 68.5 210.5c0 55.333 -13.667 100.166 -41 134.499s-62.333 53.833 -105 58.5z" />
    <glyph glyph-name="Chi" unicode="&#x3a7;" horiz-adv-x="521" 
d="M466 0l-88.001 0.000976562l-64 167c-18.667 46 -33 85.333 -43 118h-2c-32 -48.667 -58.333 -87.334 -79 -116.001l-121 -169h-99l263 343l-126 331h87l64 -173c12.667 -34.667 24 -68.667 34 -102h3c24.667 38.667 47.334 72.667 68.001 102l129 173h99l-260 -330z" />
    <glyph glyph-name="Psi" unicode="&#x3a8;" horiz-adv-x="647" 
d="M686 674l-39.002 -206.997c-15.333 -83.333 -47.666 -147 -96.999 -191s-114 -67.333 -194 -70l-38 -206h-80l39 206c-24.667 2 -48 6.66699 -70 14s-43.167 18.166 -63.5 32.499s-36.5 34.166 -48.5 59.499s-18 55 -18 89c0 24 3 52 9 84l35 189h81l-35 -189
c-5.33301 -33.333 -8 -58.333 -8 -75c0 -42.667 10.5 -75.167 31.5 -97.5s53.833 -35.833 98.5 -40.5l75 402h79l-75 -402c52.667 2.66699 95.834 20.167 129.501 52.5s57.167 84.166 70.5 155.499l37 194h81z" />
    <glyph glyph-name="Omega" unicode="&#x3a9;" horiz-adv-x="680" 
d="M145 66l1.00195 3.99902c-26 25.333 -47.667 58.333 -65 99s-26 84 -26 130c0 108.667 33.5 200.167 100.5 274.5s149.833 111.5 248.5 111.5c80 0 143.833 -25.5 191.5 -76.5s71.5 -114.167 71.5 -189.5s-18.5 -143.666 -55.5 -204.999s-80.5 -109.333 -130.5 -144v-4
h136l-12 -66h-245l9 55c55.333 32.667 104.166 80.5 146.499 143.5s63.5 133.5 63.5 211.5c0 56.667 -15.833 105.334 -47.5 146.001s-76.834 61 -135.501 61c-50.667 0 -96 -16.333 -136 -49s-69.833 -73.334 -89.5 -122.001s-29.5 -99 -29.5 -151
c0 -54.667 9.5 -102.667 28.5 -144s43.5 -73.333 73.5 -96l-10 -55h-244l12 66h144z" />
    <glyph glyph-name="Omega" unicode="&#x2126;" horiz-adv-x="680" 
d="M145 66l1.00195 3.99902c-26 25.333 -47.667 58.333 -65 99s-26 84 -26 130c0 108.667 33.5 200.167 100.5 274.5s149.833 111.5 248.5 111.5c80 0 143.833 -25.5 191.5 -76.5s71.5 -114.167 71.5 -189.5s-18.5 -143.666 -55.5 -204.999s-80.5 -109.333 -130.5 -144v-4
h136l-12 -66h-245l9 55c55.333 32.667 104.166 80.5 146.499 143.5s63.5 133.5 63.5 211.5c0 56.667 -15.833 105.334 -47.5 146.001s-76.834 61 -135.501 61c-50.667 0 -96 -16.333 -136 -49s-69.833 -73.334 -89.5 -122.001s-29.5 -99 -29.5 -151
c0 -54.667 9.5 -102.667 28.5 -144s43.5 -73.333 73.5 -96l-10 -55h-244l12 66h144z" />
    <glyph glyph-name="Iotadieresis" unicode="&#x3aa;" horiz-adv-x="233" 
d="M114 711h-1c-12.667 0 -23.5 4.66699 -32.5 14s-13.5 20.666 -13.5 33.999c0 14.667 5 27.167 15 37.5s22.333 15.5 37 15.5c14 0 25.333 -4.66699 34 -14s13 -20.666 13 -33.999c0 -15.333 -4.83301 -28 -14.5 -38s-22.167 -15 -37.5 -15zM298 711h-1
c-12.667 0 -23.5 4.66699 -32.5 14s-13.5 20.666 -13.5 33.999c0 14.667 5 27.167 15 37.5s22.333 15.5 37 15.5c14 0 25.333 -4.66699 34 -14s13 -20.666 13 -33.999c0 -15.333 -4.83301 -28 -14.5 -38s-22.167 -15 -37.5 -15zM158 674h83l-129 -674h-82z" />
    <glyph glyph-name="Upsilondieresis" unicode="&#x3ab;" horiz-adv-x="544" 
d="M260 703h-1c-12.667 0 -23.5 4.66699 -32.5 14s-13.5 20.666 -13.5 33.999c0 14.667 5 27.167 15 37.5s22.333 15.5 37 15.5c14 0 25.333 -4.66699 34 -14s13 -20.666 13 -33.999c0 -15.333 -4.83301 -28 -14.5 -38s-22.167 -15 -37.5 -15zM444 703h-1
c-12.667 0 -23.5 4.66699 -32.5 14s-13.5 20.666 -13.5 33.999c0 14.667 5 27.167 15 37.5s22.333 15.5 37 15.5c14 0 25.333 -4.66699 34 -14s13 -20.666 13 -33.999c0 -15.333 -4.83301 -28 -14.5 -38s-22.167 -15 -37.5 -15zM66 611l19.9951 69.002
c22.667 -2 47.334 -11.333 74.001 -28s48.334 -37.334 65.001 -62.001c46.667 -66 67.334 -148.667 62.001 -248h4c34.667 100.667 88.334 183.667 161.001 249c55.333 50 108.333 79.667 159 89l8 -72c-44.667 -17.333 -93.5 -51.5 -146.5 -102.5
s-97.167 -115.833 -132.5 -194.5c-21.333 -48 -36 -94 -44 -138l-32 -173h-82l32 174c9.33301 51.333 13 96.666 11 135.999c-3.33301 86 -20.166 154.833 -50.499 206.5s-66.5 83.167 -108.5 94.5z" />
    <glyph glyph-name="alphatonos" unicode="&#x3ac;" horiz-adv-x="541" 
d="M363 686h99l-133 -143h-65zM370 90l-2.99902 0.00292969c-44.667 -67.333 -103.334 -101 -176.001 -101c-47.333 0 -85.5 16.167 -114.5 48.5s-43.5 75.166 -43.5 128.499c0 90.667 26.167 168.167 78.5 232.5s111.5 96.5 177.5 96.5c36.667 0 66 -8.83301 88 -26.5
s36.667 -40.834 44 -69.501h4c6.66699 27.333 15 55.666 25 84.999h70c-5.33301 -18 -14.666 -56 -27.999 -114c-16.667 -75.333 -32 -148.333 -46 -219c-6.66699 -34 -7.66699 -58.5 -3 -73.5s15.667 -22.167 33 -21.5l-17 -64c-8 -2 -17 -3 -27 -3
c-20.667 0 -36.834 8.33301 -48.501 25s-16.167 42 -13.5 76zM118.001 179.003v-1c0 -36 8.83301 -65.167 26.5 -87.5s43.167 -33.5 76.5 -33.5c30 0 58.5 13 85.5 39s47.167 56.333 60.5 91c6.66699 14 12.667 36.333 18 67c4 20 6 39.667 6 59
c0 32 -8.83301 59.333 -26.5 82s-42.5 34 -74.5 34c-43.333 0 -82.833 -25.167 -118.5 -75.5s-53.5 -108.5 -53.5 -174.5z" />
    <glyph glyph-name="epsilontonos" unicode="&#x3ad;" horiz-adv-x="406" 
d="M301 686h99l-133 -143h-65zM321 227l-62.999 -0.00292969c-42.667 0 -78.334 -8.33301 -107.001 -25s-43 -41 -43 -73c0 -23.333 10.5 -41.666 31.5 -54.999s48.167 -20 81.5 -20c51.333 0 98 11.333 140 34l7 -60c-18 -11.333 -43.167 -20.666 -75.5 -27.999
s-63.5 -11 -93.5 -11c-52 0 -95 10.333 -129 31s-51 52.334 -51 95.001c0 37.333 13.333 69.5 40 96.5s58.334 43.5 95.001 49.5v4c-26.667 6.66699 -46.834 18 -60.501 34s-20.5 35 -20.5 57c0 36.667 18.667 69 56 97s86.333 42 147 42s104 -11.333 130 -34l-22 -55
c-28.667 18 -65 27 -109 27c-36 0 -64.667 -7.5 -86 -22.5s-32 -34.167 -32 -57.5c0 -22 11 -38.667 33 -50s52 -17 90 -17h51z" />
    <glyph glyph-name="etatonos" unicode="&#x3ae;" horiz-adv-x="534" 
d="M371 686h99l-133 -143h-65zM177 389l2.00098 0.000976562c46 70.667 106 106 180 106c33.333 0 62.166 -10.833 86.499 -32.5s36.5 -55.5 36.5 -101.5c0 -22 -3 -48 -9 -78l-56 -298c-17.333 -92.667 -24.666 -153.667 -21.999 -183h-78
c-7.33301 18.667 -2 78.667 16 180l57 298c4 24 6 44.667 6 62c0 56 -25.333 84 -76 84c-32.667 0 -65.667 -17.667 -99 -53s-55.333 -81.333 -66 -138l-44 -235h-83l65 343c12.667 67.333 17 114.333 13 141h73c5.33301 -18.667 4.66602 -50.334 -2.00098 -95.001z" />
    <glyph glyph-name="iotatonos" unicode="&#x3af;" horiz-adv-x="229" 
d="M229 686h99l-133 -143h-64zM200 484l-69.999 -367c-4 -23.333 -3.66699 -39.333 1 -48s15.667 -12.667 33 -12l-17 -63c-8.66699 -3.33301 -20.334 -5 -35.001 -5c-46.667 0 -70 26 -70 78c0 12 5.33301 46.667 16 104l59 313h83z" />
    <glyph glyph-name="upsilondieresistonos" unicode="&#x3b0;" horiz-adv-x="501" 
d="M382 484l78 0.000976562c8 -19.333 12 -48.333 12 -87c0 -46.667 -5.33301 -93.167 -16 -139.5s-26.167 -90 -46.5 -131s-48.333 -74.167 -84 -99.5s-76.167 -38 -121.5 -38c-46 0 -83.5 13.667 -112.5 41s-43.5 65 -43.5 113c0 6.66699 2.33301 26.334 7 59.001l23 117
c16 85.333 22.667 140.333 20 165h78c7.33301 -12.667 7 -42.334 -1 -89.001l-35 -186c-4.66699 -23.333 -7 -41.333 -7 -54c0 -30.667 8.5 -54.5 25.5 -71.5s37.167 -25.5 60.5 -25.5c50 0 91 34.167 123 102.5s48 148.833 48 241.5c0 37.333 -2.66699 64.666 -8 81.999z
M296 693.001h80l-96 -154h-49zM173 560.001l-1 0.000976562c-12 0 -22 4.16699 -30 12.5s-12 18.833 -12 31.5c0 13.333 4.5 24.666 13.5 33.999s20.167 14 33.5 14s23.833 -4.16699 31.5 -12.5s11.5 -18.833 11.5 -31.5c0 -14 -4.33301 -25.5 -13 -34.5
s-20 -13.5 -34 -13.5zM416 560.002l-1 0.000976562c-12 0 -22 4.16699 -30 12.5s-12 18.833 -12 31.5c0 13.333 4.5 24.666 13.5 33.999s20.167 14 33.5 14s23.833 -4.16699 31.5 -12.5s11.5 -18.833 11.5 -31.5c0 -14 -4.33301 -25.5 -13 -34.5s-20 -13.5 -34 -13.5z" />
    <glyph glyph-name="alpha" unicode="&#x3b1;" horiz-adv-x="541" 
d="M370 90l-2.99902 0.00292969c-44.667 -67.333 -103.334 -101 -176.001 -101c-47.333 0 -85.5 16.167 -114.5 48.5s-43.5 75.166 -43.5 128.499c0 90.667 26.167 168.167 78.5 232.5s111.5 96.5 177.5 96.5c36.667 0 66 -8.83301 88 -26.5s36.667 -40.834 44 -69.501h4
c6.66699 27.333 15 55.666 25 84.999h70c-5.33301 -18 -14.666 -56 -27.999 -114c-16.667 -75.333 -32 -148.333 -46 -219c-6.66699 -34 -7.66699 -58.5 -3 -73.5s15.667 -22.167 33 -21.5l-17 -64c-8 -2 -17 -3 -27 -3c-20.667 0 -36.834 8.33301 -48.501 25
s-16.167 42 -13.5 76zM118.001 179.003v-1c0 -36 8.83301 -65.167 26.5 -87.5s43.167 -33.5 76.5 -33.5c30 0 58.5 13 85.5 39s47.167 56.333 60.5 91c6.66699 14 12.667 36.333 18 67c4 20 6 39.667 6 59c0 32 -8.83301 59.333 -26.5 82s-42.5 34 -74.5 34
c-43.333 0 -82.833 -25.167 -118.5 -75.5s-53.5 -108.5 -53.5 -174.5z" />
    <glyph glyph-name="beta" unicode="&#x3b2;" horiz-adv-x="533" 
d="M84 -198l-77.999 0.000976562c-6 28 -0.666992 85.667 16 173l85 460c20.667 112.667 57 191 109 235c40 34 85.333 51 136 51c44 0 79.667 -13.833 107 -41.5s41 -62.834 41 -105.501c0 -42 -10.833 -79.833 -32.5 -113.5s-48.834 -57.834 -81.501 -72.501l-1 -4
c32 -7.33301 59 -25.833 81 -55.5s33 -65.834 33 -108.501c0 -71.333 -23.333 -127.666 -70 -168.999s-98.667 -62 -156 -62c-66 0 -117 21.667 -153 65h-2l-13 -71c-16.667 -93.333 -23.667 -153.666 -21 -180.999zM258.001 346.001l10 57.999c8.66699 0 15 0.333008 19 1
c40 3.33301 72.167 19.666 96.5 48.999s36.5 64.333 36.5 105c0 28.667 -7.16699 51.667 -21.5 69s-33.833 26 -58.5 26c-74 0 -123.667 -69.333 -149 -208l-58 -311c10.667 -21.333 27.5 -40.166 50.5 -56.499s50.167 -24.5 81.5 -24.5c39.333 0 74 15 104 45
s45 68.667 45 116c0 38.667 -12 69.834 -36 93.501s-55.333 36.167 -94 37.5h-26z" />
    <glyph glyph-name="gamma" unicode="&#x3b3;" horiz-adv-x="439" 
d="M168 -198h-83c26 122.667 38 211.667 36 267c-2 64 -13.167 136.5 -33.5 217.5s-41.5 146.833 -63.5 197.5h92c18 -40.667 35.167 -96.834 51.5 -168.501s24.833 -141.5 25.5 -209.5h4c91.333 130.667 146 245 164 343c2.66699 14.667 4 26.334 4 35.001h82
c1.33301 -10 0.333008 -23 -3 -39c-10.667 -59.333 -36.334 -125.5 -77.001 -198.5s-91.667 -145.167 -153 -216.5c-6 -7.33301 -10 -16.333 -12 -27c-7.33301 -46 -18.666 -113 -33.999 -201z" />
    <glyph glyph-name="delta" unicode="&#x3b4;" horiz-adv-x="522" 
d="M492 649l-34.999 -49.999c-14.667 16 -33.334 29.833 -56.001 41.5s-45.667 17.5 -69 17.5c-20 0 -35.333 -4.5 -46 -13.5s-16 -19.833 -16 -32.5c0 -8.66699 3 -17.667 9 -27s11.667 -16.833 17 -22.5s16 -15.834 32 -30.501l68 -64c62.667 -60.667 94 -127.667 94 -201
c0 -72 -24.167 -136.333 -72.5 -193s-109.833 -85 -184.5 -85c-58 0 -106 18.833 -144 56.5s-57 87.5 -57 149.5c0 70.667 21.5 131.5 64.5 182.5s95.5 89.167 157.5 114.5v4l-19 21c-32.667 36 -49 67.667 -49 95c0 29.333 13 54.833 39 76.5s59.333 32.5 100 32.5
c68 0 123.667 -24 167 -72zM339.001 409.001l-42.001 41c-49.333 -22 -91.666 -54.5 -126.999 -97.5s-53 -93.833 -53 -152.5c0 -45.333 12.333 -81.333 37 -108s54.667 -40 90 -40c43.333 0 81 20.333 113 61s48 88.667 48 144c0 60 -22 110.667 -66 152z" />
    <glyph glyph-name="epsilon" unicode="&#x3b5;" horiz-adv-x="406" 
d="M321 227l-62.999 -0.00195312c-42.667 0 -78.334 -8.33301 -107.001 -25s-43 -41 -43 -73c0 -23.333 10.5 -41.666 31.5 -54.999s48.167 -20 81.5 -20c51.333 0 98 11.333 140 34l7 -61c-18 -10.667 -43 -19.667 -75 -27s-63.333 -11 -94 -11c-52 0 -95 10.333 -129 31
s-51 52.334 -51 95.001c0 37.333 13.333 69.5 40 96.5s58.334 43.5 95.001 49.5v4c-26.667 6.66699 -46.834 18 -60.501 34s-20.5 35 -20.5 57c0 36.667 18.667 69 56 97s86.333 42 147 42s104 -11.333 130 -34l-22 -55c-28.667 18 -65 27 -109 27
c-36 0 -64.667 -7.5 -86 -22.5s-32 -34.167 -32 -57.5c0 -22 11 -38.667 33 -50s52 -17 90 -17h52z" />
    <glyph glyph-name="zeta" unicode="&#x3b6;" horiz-adv-x="392" 
d="M451 708l3.00098 -59c-82 -46 -157.333 -111 -226 -195s-103 -164.333 -103 -241c0 -38 8.33301 -68.167 25 -90.5s43 -39.833 79 -52.5c23.333 -11.333 64 -20.666 122 -27.999c4.66699 -0.666992 7 -3.66699 7 -9c0 -18.667 -10 -47.667 -30 -87s-39.667 -69 -59 -89
l-54 18c8 10.667 18 28.167 30 52.5s19.667 43.5 23 57.5c-38.667 6 -71.334 14.333 -98.001 25c-88 34.667 -132 97.667 -132 189c0 76.667 30.333 157.167 91 241.5s130.667 151.5 210 201.5v3h-72c-50 0 -86 3.66699 -108 11l17 57
c21.333 -4.66699 60 -6.33398 116 -5.00098h159z" />
    <glyph glyph-name="eta" unicode="&#x3b7;" horiz-adv-x="534" 
d="M177 389l2.00098 0.000976562c46 70.667 106 106 180 106c33.333 0 62.166 -10.833 86.499 -32.5s36.5 -55.5 36.5 -101.5c0 -22 -3 -48 -9 -78l-56 -298c-17.333 -92.667 -24.666 -153.667 -21.999 -183h-78c-7.33301 18.667 -2 78.667 16 180l57 298
c4 24 6 44.667 6 62c0 56 -25.333 84 -76 84c-32.667 0 -65.667 -17.667 -99 -53s-55.333 -81.333 -66 -138l-43 -235h-84l65 343c12.667 67.333 17 114.333 13 141h73c5.33301 -18.667 4.66602 -50.334 -2.00098 -95.001z" />
    <glyph glyph-name="theta" unicode="&#x3b8;" horiz-adv-x="516" 
d="M223 -11h-1.00098c-55.333 0 -98.833 20.5 -130.5 61.5s-47.5 99.833 -47.5 176.5c0 52.667 7 110.667 21 174c20.667 93.333 54.334 170 101.001 230s104 90 172 90c54 0 96.167 -20.833 126.5 -62.5s45.5 -96.167 45.5 -163.5c0 -47.333 -4.66699 -96 -14 -146
c-21.333 -110 -54.5 -197.5 -99.5 -262.5s-102.833 -97.5 -173.5 -97.5zM148.999 398h271c5.33301 30 8 64.333 8 103c0 47.333 -8.5 85.333 -25.5 114s-41.833 43 -74.5 43c-44 0 -81.5 -24.667 -112.5 -74s-53.167 -111.333 -66.5 -186zM407.999 335
l-270.999 -0.000976562c-7.33301 -47.333 -11 -86.666 -11 -117.999c0 -52 9.33301 -92.5 28 -121.5s44 -43.5 76 -43.5c83.333 0 142.666 94.333 177.999 283z" />
    <glyph glyph-name="iota" unicode="&#x3b9;" horiz-adv-x="229" 
d="M201 484l-69.998 -367.001c-4.66699 -22.667 -4.66699 -38.5 0 -47.5s16 -13.167 34 -12.5l-17 -63c-8.66699 -3.33301 -20.334 -5 -35.001 -5c-46.667 0 -70.334 26 -71.001 78c0.666992 8.66699 6.66699 45.334 18 110.001l58 307h83z" />
    <glyph glyph-name="kappa" unicode="&#x3ba;" horiz-adv-x="461" 
d="M243 261l-1.00098 -3.00098c24.667 -7.33301 45.334 -21.833 62.001 -43.5s35 -52.5 55 -92.5l61 -122h-91l-51 103c-20 38.667 -38.333 67.167 -55 85.5s-37 27.5 -61 27.5h-11l-40 -216h-82l70 377c10 54.667 13 90.334 9 107.001h77
c7.33301 -16.667 7.33301 -45 0 -85l-24 -130h5l84 78l84.5 79l61.5 58h97v-4z" />
    <glyph glyph-name="lambda" unicode="&#x3bb;" horiz-adv-x="437" 
d="M311 0l-48 282.003c-0.666992 4.66699 -2.83398 18.5 -6.50098 41.5s-6.16699 40.833 -7.5 53.5l-5 1c-16.667 -39.333 -31 -71 -43 -95l-144 -283h-88l242 452c6.66699 11.333 10 20.666 10 27.999c0 8 -0.666992 15 -2 21
c-9.33301 49.333 -21.166 86.666 -35.499 111.999s-35.5 38.333 -63.5 39h-14l16 64c8.66699 2 19 3 31 3c42 -1.33301 73.167 -19.333 93.5 -54s38.5 -91.334 54.5 -170.001l95 -495h-85z" />
    <glyph glyph-name="uni03BC" unicode="&#x3bc;" horiz-adv-x="525" 
d="M195 484l-53 -287c-8 -43.333 -5.5 -77.166 7.5 -101.499s37.5 -36.5 73.5 -36.5c24 0 47.167 10.167 69.5 30.5s40.5 44.166 54.5 71.499c10.667 19.333 18 39.333 22 60l49 263h83l-65 -344c-5.33301 -31.333 -6 -52.833 -2 -64.5s14 -18.167 30 -19.5l-18 -63
c-8.66699 -2.66699 -17.667 -4 -27 -4c-45.333 0 -66.333 33.333 -63 100h-3c-16 -28 -36.667 -51.333 -62 -70s-53.333 -28 -84 -28c-49.333 0 -82 19.333 -98 58l-12 -65c-15.333 -91.333 -22 -152 -20 -182h-75c-6 33.333 -0.333008 93.333 17 180l94 502h82z" />
    <glyph glyph-name="nu" unicode="&#x3bd;" horiz-adv-x="440" 
d="M37 484h85.998c14.667 -90 28.334 -179 41.001 -267l10 -75.5c4 -31 6.33301 -49.833 7 -56.5h4c98.667 147.333 157.334 262.666 176.001 345.999c4.66699 19.333 7 37 7 53h81c0 -17.333 -1 -31.333 -3 -42c-20 -113.333 -102 -260.666 -246 -441.999h-79l-37.5 215.5z
" />
    <glyph glyph-name="xi" unicode="&#x3be;" horiz-adv-x="418" 
d="M372 372l-28.0029 -0.00292969c-68 0 -122.333 -16.167 -163 -48.5s-61 -73.166 -61 -122.499c0 -34.667 10.833 -63 32.5 -85s54.834 -39 99.501 -51c43.333 -12 85.333 -19.667 126 -23c4.66699 -0.666992 7 -4 7 -10c0 -18 -10.5 -47.333 -31.5 -88
s-39.833 -69.667 -56.5 -87l-55 18c8.66699 11.333 19 29.333 31 54s19.667 43.667 23 57c-35.333 4 -71.666 11.667 -108.999 23c-103.333 34.667 -155 94.334 -155 179.001c0 56 18.667 104 56 144s80.333 65.667 129 77v5c-27.333 10 -49.5 26.333 -66.5 49
s-25.5 48.334 -25.5 77.001c0 48.667 20.5 91 61.5 127s94.5 54 160.5 54c54 0 94.667 -10 122 -30l-23 -56c-24 16 -56.333 24 -97 24c-42.667 0 -76.667 -11.667 -102 -35s-38 -52.333 -38 -87c0 -32 12.333 -56.833 37 -74.5s57.334 -27.167 98.001 -28.5
c6 -0.666992 18.667 -1 38 -1z" />
    <glyph glyph-name="omicron" unicode="&#x3bf;" horiz-adv-x="522" 
d="M224 -11l-0.999023 -0.000976562c-58.667 0 -104.834 19 -138.501 57s-50.5 85.333 -50.5 142c0 82.667 25.5 154.5 76.5 215.5s114.833 91.5 191.5 91.5c61.333 0 108.333 -19.667 141 -59s49 -86.666 49 -141.999c0 -79.333 -25.333 -150 -76 -212
s-114.667 -93 -192 -93zM233.001 54.999l1 -0.000976562c47.333 0 87.833 25 121.5 75s50.5 104.667 50.5 164c0 34.667 -9 65.834 -27 93.501s-46.667 41.5 -86 41.5c-49.333 0 -90.5 -24.833 -123.5 -74.5s-49.5 -104.167 -49.5 -163.5c0 -40 10.333 -72.667 31 -98
s48 -38 82 -38z" />
    <glyph glyph-name="pi" unicode="&#x3c0;" horiz-adv-x="528" 
d="M532 418l-66.9971 -0.00195312l-50 -271c-12.667 -69.333 -17.334 -118.333 -14.001 -147h-79c-7.33301 18.667 -4.33301 65.334 9 140.001l51 278h-151l-24 -101c-40 -156 -80 -261.667 -120 -317h-81c42.667 66.667 82.667 171.334 120 314.001
c7.33301 25.333 15.666 60 24.999 104c-44.667 0 -78.334 -3.33301 -101.001 -10l-3 50c21.333 17.333 67 26 137 26h364z" />
    <glyph glyph-name="rho" unicode="&#x3c1;" horiz-adv-x="537" 
d="M79 -198h-78.001c-3.33301 28.667 3 87.667 19 177l41 221c20.667 106.667 55.334 183 104.001 229c45.333 44 100.333 66 165 66c54 0 97.167 -18.333 129.5 -55s48.5 -82.667 48.5 -138c0 -86 -25 -159.667 -75 -221s-109 -92 -177 -92c-30 0 -57.333 6.5 -82 19.5
s-42.334 30.833 -53.001 53.5h-3l-14 -79c-17.333 -90 -25.666 -150.333 -24.999 -181zM148.999 226l-4.99902 -27c-2 -10.667 -3 -23.334 -3 -38.001c0 -25.333 10.167 -49.333 30.5 -72s47.5 -34 81.5 -34c45.333 0 85 23.667 119 71s51 104.333 51 171
c0 36.667 -9.33301 67.5 -28 92.5s-45.667 37.5 -81 37.5c-38 0 -71.833 -16.667 -101.5 -50s-50.834 -83.666 -63.501 -150.999z" />
    <glyph glyph-name="uni03C2" unicode="&#x3c2;" horiz-adv-x="410" 
d="M277 -143l-55.001 19.001c8.66699 11.333 18.834 28.833 30.501 52.5s19.167 42.5 22.5 56.5c-33.333 4 -65.333 12 -96 24c-40 14.667 -74.167 37.834 -102.5 69.501s-42.5 73.5 -42.5 125.5c0 77.333 27.167 145.166 81.5 203.499s121.5 87.5 201.5 87.5
c44.667 0 80 -8 106 -24l-24 -60c-25.333 12 -53 18 -83 18c-53.333 0 -99.333 -20.333 -138 -61s-58 -92 -58 -154c0 -72.667 39 -121.667 117 -147c34 -11.333 73.333 -20 118 -26c5.33301 -0.666992 8 -4.33398 8 -11.001c0 -20 -10 -49.167 -30 -87.5
s-38.667 -66.833 -56 -85.5z" />
    <glyph glyph-name="sigma" unicode="&#x3c3;" horiz-adv-x="538" 
d="M422 439l-0.999023 -4.99707c24 -14.667 41.5 -36.334 52.5 -65.001s16.5 -56.334 16.5 -83.001c0 -74.667 -25 -142.834 -75 -204.501s-113.333 -92.5 -190 -92.5c-59.333 0 -106 19 -140 57s-51 85.333 -51 142c0 82 25.667 153.667 77 215s115 92 191 92h111h54h93
l-10 -64c-32.667 0 -75.334 2.66699 -128.001 8zM233.001 55.0029h1c47.333 0 87.833 25.167 121.5 75.5s50.5 104.833 50.5 163.5c0 34.667 -9 66 -27 94s-46.333 42 -85 42c-50 0 -91.5 -25 -124.5 -75s-49.5 -104.667 -49.5 -164c0 -39.333 10.333 -71.833 31 -97.5
s48 -38.5 82 -38.5z" />
    <glyph glyph-name="tau" unicode="&#x3c4;" horiz-adv-x="388" 
d="M264 58l-12 -62c-11.333 -4.66699 -25.333 -7 -42 -7c-62 0 -93 33 -93 99c0 13.333 2.66699 35.333 8 66l49 264h-48c-36.667 0 -70.334 -2.66699 -101.001 -8v49c26.667 16.667 71.334 25 134.001 25h261l-17 -66h-147l-49 -271c-3.33301 -16 -5 -30.333 -5 -43
c0 -31.333 14 -47 42 -47c9.33301 0 16 0.333008 20 1z" />
    </font>
</defs>
</svg>
