<?xml version="1.0" standalone="no"?>
<!DOCTYPE svg PUBLIC "-//W3C//DTD SVG 1.1//EN" "http://www.w3.org/Graphics/SVG/1.1/DTD/svg11.dtd" >
<svg>
<metadata>
Created by FontForge 20090914 at Wed Mar 20 23:16:47 2019
 By www-data
Copyright &#194;&#169; 2000 Adobe Systems Incorporated. All Rights Reserved. U.S. Patent Des. pending.
</metadata>
<defs>
<font id="MyriadPro-BoldIt" horiz-adv-x="395" >
  <font-face 
    font-family="Myriad Pro"
    font-weight="700"
    font-style="italic"
    font-stretch="normal"
    units-per-em="1000"
    panose-1="2 11 7 3 3 4 3 9 2 4"
    ascent="750"
    descent="-250"
    x-height="489"
    cap-height="674"
    bbox="-95.999 -250 1225 889.001"
    underline-thickness="50"
    underline-position="-150"
    slope="-11"
    unicode-range="U+0020-U+FB04"
  />
<missing-glyph horiz-adv-x="500" 
d="M0 0v700h500v-700h-500zM250 395l170 255h-340zM280 350l170 -255v510zM80 50h340l-170 255zM50 605v-510l170 255z" />
    <glyph glyph-name="f_f_j" unicode="ffj" horiz-adv-x="859" 
d="M837 692l-38.999 -111.001c-34 14.667 -69.667 22 -107 22c-69.333 0 -109.333 -31.667 -120 -95l-4 -19h283l-88 -472c-15.333 -81.333 -38.333 -139.333 -69 -174s-75 -52 -133 -52c-26.667 0 -49.667 2.66699 -69 8l16 108c14.667 -1.33301 25.667 -2 33 -2
c18.667 0 34.167 7.33301 46.5 22s22.5 42.334 30.5 83.001l70 369h-139l-72 -379h-144l72 379h-159l-72 -379h-143l71 379h-63l21 110h63l4 18c13.333 62 37 110 71 144c36.667 38 86 57 148 57c31.333 0 59.666 -6.66699 84.999 -20l-47 -106c-12 6.66699 -25 10 -39 10
c-18 0 -32.667 -5.66699 -44 -17c-14.667 -14 -25.667 -38 -33 -72l-2 -14h159l4 19c13.333 68 44 120.333 92 157s108.667 55 182 55c58 0 103 -9.33301 135 -28z" />
    <glyph glyph-name="f_j" unicode="fj" horiz-adv-x="557" 
d="M535 692l-39.001 -111.001c-34 14.667 -69.667 22 -107 22c-69.333 0 -109.333 -31.667 -120 -95l-4 -19h283l-88 -472c-15.333 -81.333 -38.333 -139.333 -69 -174s-75 -52 -133 -52c-26.667 0 -49.667 2.66699 -69 8l16 108c13.333 -1.33301 24 -2 32 -2
c18.667 0 34.334 7.33301 47.001 22s22.667 42.334 30 83.001l70 369h-139l-71 -379h-144l71 379h-63l21 110h63l4 19c13.333 68 44 120.333 92 157s108.667 55 182 55c58 0 103 -9.33301 135 -28z" />
    <glyph glyph-name="ff" unicode="ff" horiz-adv-x="632" 
d="M727 709l-24.9971 -114c-14 5.33301 -29.333 8 -46 8c-22 0 -40.333 -8.5 -55 -25.5s-24.334 -38.5 -29.001 -64.5l-4 -24h96l-21 -110h-95l-72 -379h-144l72 379h-160l-71 -379h-144l71 379h-63l21 110h63l4 16c13.333 64.667 37 114 71 148c38 36.667 86.667 55 146 55
c28 0 52.333 -4.66699 73 -14l-40 -108c-12 4 -22.667 6 -32 6c-38.667 0 -63.667 -29 -75 -87l-4 -16h161l4 25c13.333 72 41 125.667 83 161c37.333 30.667 83.666 46 138.999 46c33.333 0 58.666 -4 75.999 -12z" />
    <glyph glyph-name="fi" unicode="fi" horiz-adv-x="564" 
d="M174 0h-143.001l71 379h-63l21 110h63l4 19c12.667 68 43 120.333 91 157s109 55 183 55c58.667 0 103.334 -9.33301 134.001 -28l-38 -111c-34 14.667 -69.667 22 -107 22c-69.333 0 -109.333 -31.667 -120 -95l-4 -19h283l-93 -489h-144l71 379h-137z" />
    <glyph glyph-name="fl" unicode="fl" horiz-adv-x="564" 
d="M174 0h-142.999l71 379h-63l21 110h63l4 21c12 68 44.667 121.333 98 160c45.333 34 106 51 182 51c73.333 0 132.333 -13.667 177 -41l-128 -680h-144l113 597c-11.333 7.33301 -29.333 11 -54 11c-27.333 0 -49.833 -9.5 -67.5 -28.5s-28.834 -43.167 -33.501 -72.5
l-4 -18h84l-21 -110h-83z" />
    <glyph glyph-name="ffi" unicode="ffi" horiz-adv-x="865" 
d="M837 692l-38 -111c-35.333 14.667 -71 22 -107 22c-70 0 -110.333 -31.667 -121 -95l-4 -19h283l-93 -489h-144l72 379h-138l-71 -379h-144l72 379h-159l-72 -379h-143l71 379h-63l21 110h63l4 18c13.333 62 37 110 71 144c36.667 38 86 57 148 57
c32.667 0 60.667 -6.66699 84 -20l-46 -106c-12 6.66699 -25 10 -39 10c-18 0 -32.667 -5.66699 -44 -17c-14.667 -14 -25.667 -38 -33 -72l-2 -14h159l4 19c13.333 68 44 120.333 92 157s108.667 55 182 55c58 0 103 -9.33301 135 -28z" />
    <glyph glyph-name="ffl" unicode="ffl" horiz-adv-x="865" 
d="M429 689l-43.999 -107c-13.333 6.66699 -27 10 -41 10c-18 0 -33 -6 -45 -18c-14 -14.667 -24.667 -38 -32 -70l-2 -15h159l4 21c12 68 44.667 121.333 98 160c45.333 34 106 51 182 51c73.333 0 132.333 -13.667 177 -41l-128 -680h-144l113 597
c-10.667 7.33301 -28.667 11 -54 11c-27.333 0 -49.833 -9.33301 -67.5 -28s-28.834 -42.667 -33.501 -72l-4 -19h85l-21 -110h-84l-71 -379h-144l71 379h-158l-72 -379h-144l72 379h-63l20 110h64l2 14c13.333 65.333 37.333 115 72 149c37.333 37.333 86.333 56 147 56
c32 0 60.667 -6.33301 86 -19z" />
    <glyph glyph-name=".notdef" horiz-adv-x="500" 
d="M0 0v700h500v-700h-500zM250 395l170 255h-340zM280 350l170 -255v510zM80 50h340l-170 255zM50 605v-510l170 255z" />
    <glyph glyph-name="space" unicode=" " horiz-adv-x="184" 
 />
    <glyph glyph-name="space" unicode="&#xa0;" horiz-adv-x="184" 
 />
    <glyph glyph-name="exclam" unicode="!" horiz-adv-x="269" 
d="M185 221h-112l65 453h155zM95 -11l-1 0.000976562c-24 0 -43.333 7.66699 -58 23s-22 35 -22 59c0 27.333 9.16699 50.833 27.5 70.5s41.5 29.5 69.5 29.5c24 0 43.667 -7.83301 59 -23.5s23 -35.834 23 -60.501c0 -28.667 -9.16699 -52.167 -27.5 -70.5
s-41.833 -27.5 -70.5 -27.5z" />
    <glyph glyph-name="quotedbl" unicode="&#x22;" horiz-adv-x="387" 
d="M115 692h134l-74 -278h-91zM307 692h134l-74 -278h-91z" />
    <glyph glyph-name="numbersign" unicode="#" horiz-adv-x="541" 
d="M222 269h87l36 115h-87zM137 0h-89l56 179h-82l15 90h96l38 115h-85l14 90h98l56 176h87l-56 -176h88l56 176h88l-56 -176h81l-15 -90h-94l-36 -115h83l-15 -90h-98l-55 -179h-89l56 179h-87z" />
    <glyph glyph-name="dollar" unicode="$" horiz-adv-x="541" 
d="M249 -87l-94.001 -0.000976562l17 95c-28.667 1.33301 -57.5 7.33301 -86.5 18s-52.167 22.334 -69.5 35.001l46 109c45.333 -33.333 98.333 -50 159 -50c30 0 54.667 6.33301 74 19s29 29.667 29 51c0 17.333 -6.5 32.666 -19.5 45.999s-34.833 27 -65.5 41
c-45.333 23.333 -80.833 48.5 -106.5 75.5s-38.5 59.167 -38.5 96.5c0 50 18.5 92.667 55.5 128s86.167 56.333 147.5 63l17 89h95l-17 -88c52.667 -2.66699 95.667 -15 129 -37l-46 -107c-40 24 -85.333 36 -136 36c-27.333 0 -49 -6 -65 -18s-24 -27 -24 -45
c0 -15.333 7.33301 -29.166 22 -41.499s40.667 -27.833 78 -46.5c87.333 -43.333 131 -100.333 131 -171c0 -58 -20.167 -104.5 -60.5 -139.5s-91.166 -55.833 -152.499 -62.5z" />
    <glyph glyph-name="percent" unicode="%" horiz-adv-x="869" 
d="M275 661l1 -0.000976562c44 0 78.833 -13.833 104.5 -41.5s38.5 -63.5 38.5 -107.5c0 -71.333 -20.167 -131.166 -60.5 -179.499s-89.833 -72.5 -148.5 -72.5c-44 0 -79.667 13.833 -107 41.5s-41 65.167 -41 112.5c0 67.333 20 125.333 60 174s91 73 153 73z
M261 577.999h-1c-26 0 -47.167 -18.667 -63.5 -56s-24.5 -74 -24.5 -110c0 -46 16.333 -69 49 -69c26.667 0 48 19.5 64 58.5s24 76.5 24 112.5c0 42.667 -16 64 -48 64zM248 -11.001h-86l483 671h85zM690 391.999l1 -0.000976562c44 0 78.833 -13.833 104.5 -41.5
s38.5 -63.5 38.5 -107.5c0 -71.333 -20 -131.166 -60 -179.499s-89.667 -72.5 -149 -72.5c-44 0 -79.667 13.833 -107 41.5s-41 65.167 -41 112.5c0 66.667 20 124.5 60 173.5s91 73.5 153 73.5zM676 308.998h-1c-26 0 -47.167 -18.833 -63.5 -56.5
s-24.5 -74.5 -24.5 -110.5c0 -45.333 16.333 -68 49 -68c26.667 0 48 19.333 64 58s24 76 24 112c0 43.333 -16 65 -48 65z" />
    <glyph glyph-name="ampersand" unicode="&#x26;" horiz-adv-x="666" 
d="M610 0l-170.001 0.00390625c-5.33301 5.33301 -17.333 20.666 -36 45.999c-51.333 -38 -112 -57 -182 -57c-62.667 0 -113 16.167 -151 48.5s-57 75.5 -57 129.5c0 88 54.333 157.667 163 209l1 2c-24.667 41.333 -37 79.333 -37 114c-0.666992 54.667 19 100.5 59 137.5
s90.667 55.5 152 55.5c50.667 0 91.834 -13.667 123.501 -41s47.5 -63.333 47.5 -108c0 -38.667 -13.833 -72.834 -41.5 -102.501s-69.5 -57.834 -125.5 -84.501v-3c20.667 -32 50.667 -75 90 -129c38 43.333 68.667 100.666 92 171.999h133
c-39.333 -112 -92.333 -199.667 -159 -263c27.333 -40 60 -82 98 -126zM262.999 97.0039l1 0.000976562c30 0 57.333 10.667 82 32c-47.333 61.333 -87 117.666 -119 168.999c-44 -32 -66 -67.333 -66 -106c0 -27.333 9 -50 27 -68s43 -27 75 -27zM339.999 592.005h-1.00098
c-19.333 0 -35.666 -8.16699 -48.999 -24.5s-20 -36.5 -20 -60.5c0 -30 10 -57.667 30 -83c63.333 28 95 64.667 95 110c0 16.667 -4.66699 30.5 -14 41.5s-23 16.5 -41 16.5z" />
    <glyph glyph-name="quotesingle" unicode="'" horiz-adv-x="198" 
d="M117 692h134l-74 -277h-91z" />
    <glyph glyph-name="parenleft" unicode="(" horiz-adv-x="314" 
d="M261 690h107c-56 -70 -101.833 -151 -137.5 -243s-53.5 -188.667 -53.5 -290s13.667 -192.333 41 -273h-102c-36.667 82 -55 171.333 -55 268c0 110 18.333 211 55 303s85 170.333 145 235z" />
    <glyph glyph-name="parenright" unicode=")" horiz-adv-x="314" 
d="M71 -116l-108 -0.00195312c56 70 101.833 151.333 137.5 244s53.5 189.334 53.5 290.001s-13.667 191.334 -41 272.001h103c36 -80 54 -169 54 -267c0 -110 -18.167 -211 -54.5 -303s-84.5 -170.667 -144.5 -236z" />
    <glyph glyph-name="asterisk" unicode="*" horiz-adv-x="452" 
d="M347 685l84 -51l-123 -126l1 -3l165 33l-20 -103l-152 29l-1 -3l95 -124l-95 -51l-40 155l-2 -1l-74 -154l-81 53l122 124l-1 2l-162 -30l20 103l147 -32v2l-91 127l95 50l39 -154h2z" />
    <glyph glyph-name="plus" unicode="+" horiz-adv-x="596" 
d="M250 533h97v-219h207v-93h-207v-221h-97v221h-207v93h207v219z" />
    <glyph glyph-name="comma" unicode="," horiz-adv-x="260" 
d="M46 -110l-104 -9.00098c52 104.667 90 199.334 114 284.001l156 10c-48.667 -108 -104 -203 -166 -285z" />
    <glyph glyph-name="hyphen" unicode="-" horiz-adv-x="322" 
d="M44 313h259l-20 -101h-259z" />
    <glyph glyph-name="hyphen" unicode="&#xad;" horiz-adv-x="322" 
d="M44 313h259l-20 -101h-259z" />
    <glyph glyph-name="period" unicode="." horiz-adv-x="260" 
d="M99 -10l-0.999023 0.000976562c-24 0 -43.333 7.83301 -58 23.5s-22 35.5 -22 59.5c0 28 9.16699 52 27.5 72s41.5 30 69.5 30c24.667 0 44.667 -8 60 -24s23 -36.667 23 -62c0 -28.667 -9.33301 -52.334 -28 -71.001s-42.334 -28 -71.001 -28z" />
    <glyph glyph-name="slash" unicode="/" horiz-adv-x="326" 
d="M62 -40h-102l348 725h102z" />
    <glyph glyph-name="zero" unicode="0" horiz-adv-x="541" 
d="M229 -11h-0.999023c-64.667 0 -112.334 21.333 -143.001 64s-46 99.334 -46 170.001c0 52.667 6.66699 104.5 20 155.5s32.333 97.667 57 140s56.834 76.666 96.501 102.999s83.5 39.5 131.5 39.5c64.667 0 112 -21 142 -63s45 -95.333 45 -160
c0 -52.667 -6.33301 -104.834 -19 -156.501s-31 -99.667 -55 -144s-55.833 -80.166 -95.5 -107.499s-83.834 -41 -132.501 -41zM244.001 103h1.00098c23.333 0 44.666 13.167 63.999 39.5s34.5 58.333 45.5 96s19.5 74.167 25.5 109.5s9 65 9 89
c0 73.333 -20.667 110 -62 110c-22.667 0 -43.667 -12.5 -63 -37.5s-34.833 -55.5 -46.5 -91.5s-20.667 -72 -27 -108s-9.5 -66.667 -9.5 -92c0 -76.667 21 -115 63 -115z" />
    <glyph glyph-name="one" unicode="1" horiz-adv-x="541" 
d="M183 0l97 515h-2l-128 -56l-4 112l180 79h118l-123 -650h-138z" />
    <glyph glyph-name="two" unicode="2" horiz-adv-x="541" 
d="M442 0l-445.001 0.000976562l18 93l140 108c74.667 60.667 128.834 110.167 162.501 148.5s50.5 75.5 50.5 111.5c0 23.333 -7.83301 42.333 -23.5 57s-37.5 22 -65.5 22c-50.667 0 -96.667 -12.667 -138 -38l-29 103c60.667 37.333 128 56 202 56
c63.333 0 112.833 -16.5 148.5 -49.5s53.5 -75.5 53.5 -127.5c0 -32 -5.66699 -62.5 -17 -91.5s-28.5 -56.833 -51.5 -83.5s-45.5 -49.834 -67.5 -69.501s-50 -42.5 -84 -68.5l-65 -46v-2h233z" />
    <glyph glyph-name="three" unicode="3" horiz-adv-x="541" 
d="M8 33l44.002 112.999c44.667 -24 92 -36 142 -36c39.333 0 70.666 8.66699 93.999 26s35 39.333 35 66c0 58 -44.333 87 -133 87h-25l21 110h23c37.333 0 70.666 7.5 99.999 22.5s44 36.167 44 63.5c0 16.667 -6.66699 30.167 -20 40.5s-33.333 15.5 -60 15.5
c-52 0 -96.667 -10.667 -134 -32l-20 108c54 29.333 115 44 183 44c58 0 106.333 -13.167 145 -39.5s58 -63.833 58 -112.5c0 -39.333 -13.5 -73.333 -40.5 -102s-61.5 -48.334 -103.5 -59.001l-1 -2c34 -7.33301 61.333 -23.666 82 -48.999s31 -56.666 31 -93.999
c0 -64.667 -28 -116.5 -84 -155.5s-121.667 -58.5 -197 -58.5c-40 0 -76.833 4.16699 -110.5 12.5s-58.167 18.833 -73.5 31.5z" />
    <glyph glyph-name="four" unicode="4" horiz-adv-x="541" 
d="M392 0h-135l30 157h-277l18 97l310 396h177l-72 -382h76l-21 -111h-76zM172 268l136 0.00195312l30 141l9 39.5c3.33301 14.333 7.33301 30.166 12 47.499s8 30.666 10 39.999h-4c-40.667 -63.333 -69 -106 -85 -128l-107 -138z" />
    <glyph glyph-name="five" unicode="5" horiz-adv-x="541" 
d="M533 650l-24.998 -123h-229l-31 -101c7.33301 1.33301 16.666 2 27.999 2c54 0 98.667 -13.333 134 -40c48 -32.667 72 -80.667 72 -144c0 -78.667 -28.833 -140.834 -86.5 -186.501s-129.167 -68.5 -214.5 -68.5c-37.333 0 -71.333 3.66699 -102 11
s-52.667 16.333 -66 27l37 115c34.667 -21.333 79 -32 133 -32c38.667 0 73.167 9.83301 103.5 29.5s45.5 45.834 45.5 78.501c0 66.667 -53.667 100 -161 100c-18.667 0 -45.334 -1.33301 -80.001 -4l93 336h349z" />
    <glyph glyph-name="six" unicode="6" horiz-adv-x="541" 
d="M513 659l-22.0029 -116.999c-16.667 1.33301 -34.667 1 -54 -1c-57.333 -6 -105.666 -22.833 -144.999 -50.5s-67.666 -62.167 -84.999 -103.5l2 -1c37.333 33.333 82 50 134 50c48 0 87.667 -16.833 119 -50.5s47 -77.5 47 -131.5c0 -71.333 -24.667 -133.333 -74 -186
s-111.333 -79 -186 -79c-70 0 -123.667 21.167 -161 63.5s-56 97.166 -56 164.499c0 71.333 15 137.833 45 199.5s68.667 111.167 116 148.5c74.667 58.667 163.334 90 266.001 94c16.667 1.33301 34.667 1.33301 54 0zM252.997 100.001l1 0.000976562
c32 0 57.667 14.667 77 44s29 61 29 95c0 28 -7.33301 50 -22 66s-34 24 -58 24c-40 0 -71.333 -20 -94 -60c-6 -10 -9.66699 -21 -11 -33c-1.33301 -8.66699 -2 -20.334 -2 -35.001c0 -29.333 7.16699 -53.5 21.5 -72.5s33.833 -28.5 58.5 -28.5z" />
    <glyph glyph-name="seven" unicode="7" horiz-adv-x="541" 
d="M121 650h441l-18 -96l-357 -554h-160l353 525v2h-283z" />
    <glyph glyph-name="eight" unicode="8" horiz-adv-x="541" 
d="M333 661h0.999023c54.667 0 100.334 -14 137.001 -42s55 -66.667 55 -116c0 -66.667 -39 -118.334 -117 -155.001v-2c28.667 -16 50.667 -37 66 -63s23 -53 23 -81c0 -66.667 -26.5 -118.834 -79.5 -156.501s-114.167 -56.5 -183.5 -56.5
c-67.333 0.666992 -120.333 16.334 -159 47.001s-58 70.667 -58 120c0 43.333 13 80.833 39 112.5s59.333 55.5 100 71.5l1 3c-43.333 32.667 -65 73.334 -65 122.001c0 58.667 23.5 106 70.5 142s103.5 54 169.5 54zM250.999 94l1 -0.000976562
c25.333 0 47.5 8.66699 66.5 26s28.5 40 28.5 68c0 46 -28 79 -84 99c-26.667 -6.66699 -49 -20 -67 -40s-27 -44 -27 -72c0 -23.333 7.33301 -42.666 22 -57.999s34.667 -23 60 -23zM316.999 555.999l-1 0.000976562c-23.333 0 -43.333 -8.33301 -60 -25s-25 -36 -25 -58
c0 -36.667 25.333 -64 76 -82c22 7.33301 40.833 19.666 56.5 36.999s23.5 37 23.5 59c0 20 -6.16699 36.5 -18.5 49.5s-29.5 19.5 -51.5 19.5z" />
    <glyph glyph-name="nine" unicode="9" horiz-adv-x="541" 
d="M48 -9l17 117.998c10 -1.33301 30.333 -1.33301 61 0c46.667 3.33301 89.334 16.666 128.001 39.999c47.333 30 82.666 70 105.999 120l-2 2c-31.333 -31.333 -72.666 -47 -123.999 -47s-93 16.167 -125 48.5s-48 74.833 -48 127.5c0 70.667 25.833 131.834 77.5 183.501
s113.834 77.5 186.501 77.5c69.333 0 121.833 -20.833 157.5 -62.5s53.5 -96.5 53.5 -164.5c-0.666992 -73.333 -16.834 -141.666 -48.501 -204.999s-70.834 -113.666 -117.501 -150.999c-68 -53.333 -150.333 -82.333 -247 -87c-26 -1.33301 -51 -1.33301 -75 0z
M313 549.998l-1.00195 0.00195312c-28 0 -52.333 -13.667 -73 -41s-31 -57.666 -31 -90.999c0 -26 7 -47 21 -63s32.333 -24 55 -24c38 0 67 14.333 87 43c6.66699 7.33301 11.334 17.666 14.001 30.999c4 13.333 6 30.666 6 51.999c0 27.333 -6.66699 49.666 -20 66.999
s-32.666 26 -57.999 26z" />
    <glyph glyph-name="colon" unicode=":" horiz-adv-x="260" 
d="M160 312h-1c-24 0 -43.333 7.66699 -58 23s-22 35 -22 59c0 27.333 9.16699 51 27.5 71s41.5 30 69.5 30c24 0 43.667 -8 59 -24s23 -36.333 23 -61c0 -28.667 -9.16699 -52.167 -27.5 -70.5s-41.833 -27.5 -70.5 -27.5zM99 -11h-1c-24 0 -43.333 7.66699 -58 23
s-22 35 -22 59c0 27.333 9.16699 51 27.5 71s41.5 30 69.5 30c24 0 43.667 -8 59 -24s23 -36.333 23 -61c0 -28.667 -9.16699 -52.167 -27.5 -70.5s-41.833 -27.5 -70.5 -27.5z" />
    <glyph glyph-name="semicolon" unicode=";" horiz-adv-x="260" 
d="M46 -111l-104 -8c49.333 97.333 87.333 192 114 284l155 10c-46.667 -106 -101.667 -201.333 -165 -286zM165 312h-1c-24 0 -43.333 7.66699 -58 23s-22 35 -22 59c0 27.333 9.16699 51 27.5 71s41.5 30 69.5 30c24 0 43.667 -8 59 -24s23 -36.333 23 -61
c0 -28.667 -9.16699 -52.167 -27.5 -70.5s-41.833 -27.5 -70.5 -27.5z" />
    <glyph glyph-name="less" unicode="&#x3c;" horiz-adv-x="596" 
d="M52 223v85l476 223v-106l-359 -159v-2l359 -159v-105z" />
    <glyph glyph-name="equal" unicode="=" horiz-adv-x="596" 
d="M553 325h-511v93h511v-93zM553 117h-511v93h511v-93z" />
    <glyph glyph-name="greater" unicode="&#x3e;" horiz-adv-x="596" 
d="M552 311v-92l-476 -219v105l367 159v2l-367 160v105z" />
    <glyph glyph-name="question" unicode="?" horiz-adv-x="437" 
d="M269 219l-139 0.00292969c1.33301 12 2.33301 20.667 3 26c8 55.333 38 110.666 90 165.999c4.66699 5.33301 12.167 13.166 22.5 23.499s18 18.333 23 24s10.667 12.5 17 20.5s10.833 15.5 13.5 22.5s4 13.833 4 20.5c0 31.333 -19.667 47.333 -59 48
c-41.333 0 -77.333 -9.33301 -108 -28l-19 101c46 28.667 102.333 43 169 43c48.667 0 88.334 -12.5 119.001 -37.5s46 -57.833 46 -98.5c0 -19.333 -2.5 -37.166 -7.5 -53.499s-14.167 -33.333 -27.5 -51s-24 -30.834 -32 -39.501l-42 -44
c-36 -36.667 -58.667 -76.334 -68 -119.001c-0.666992 -2.66699 -2.33398 -10.667 -5.00098 -24zM166 -10.9971l-0.999023 0.000976562c-23.333 0 -42.333 7.66699 -57 23s-22 35 -22 59c0 27.333 9.16699 50.833 27.5 70.5s41.5 29.5 69.5 29.5
c24 0 43.667 -7.83301 59 -23.5s23 -35.834 23 -60.501c0 -28.667 -9.33301 -52.167 -28 -70.5s-42.334 -27.5 -71.001 -27.5z" />
    <glyph glyph-name="at" unicode="@" horiz-adv-x="749" 
d="M431 250l14.998 95c-10.667 2.66699 -21 4 -31 4c-33.333 0 -61.5 -14 -84.5 -42s-34.5 -61.333 -34.5 -100c0 -40.667 16.667 -61 50 -61c18.667 0 36.334 10.167 53.001 30.5s27.334 44.833 32.001 73.5zM515.998 -11l18.001 -56.998c-51.333 -24 -112 -36 -182 -36
c-87.333 0 -161.333 28.667 -222 86s-91 133.666 -91 228.999c0 105.333 34.833 195.166 104.5 269.499s159.5 111.5 269.5 111.5c88 0 160.333 -27.167 217 -81.5s85 -123.5 85 -207.5c0 -72 -17.833 -129.833 -53.5 -173.5s-80.834 -65.5 -135.501 -65.5
c-24 0 -43.667 6.5 -59 19.5s-24.333 32.167 -27 57.5h-2c-32.667 -51.333 -76 -77 -130 -77c-33.333 0 -60.5 11.833 -81.5 35.5s-31.5 55.834 -31.5 96.501c0 63.333 21.667 117.833 65 163.5s100 68.5 170 68.5c50 0 89.667 -8 119 -24l-30 -186
c-8.66699 -57.333 0 -86.333 26 -87c24 -1.33301 46 13.167 66 43.5s30 72.166 30 125.499c0 68 -21 123.5 -63 166.5s-100.333 64.5 -175 64.5c-80 0 -148 -28.5 -204 -85.5s-84 -132.167 -84 -225.5c0 -82.667 23.5 -147 70.5 -193s109.167 -69 186.5 -69
c56 0 104 10.333 144 31z" />
    <glyph glyph-name="A" unicode="A" horiz-adv-x="618" 
d="M399 175h-194l-79 -175h-154l329 674h185l78 -674h-151zM248 285h144.999l-13 145c-1.33301 13.333 -3 35.833 -5 67.5s-3.33301 53.167 -4 64.5h-3l-23 -58.5c-13.333 -33.667 -23.666 -58.167 -30.999 -73.5z" />
    <glyph glyph-name="B" unicode="B" horiz-adv-x="582" 
d="M20 7l124 656.001c51.333 10.667 110.333 16 177 16c70.667 0 126.334 -11.667 167.001 -35c23.333 -12 42.166 -28.833 56.499 -50.5s21.5 -46.167 21.5 -73.5c0 -40 -12.667 -73.833 -38 -101.5s-58 -47.167 -98 -58.5v-3c32.667 -10 58.5 -27.833 77.5 -53.5
s28.5 -56.834 28.5 -93.501c0 -66 -30.667 -119.333 -92 -160c-53.333 -36.667 -138 -55 -254 -55c-75.333 0 -132 4 -170 12zM268 563.001l-30 -157h48c40 0 72.167 8.16699 96.5 24.5s36.5 38.5 36.5 66.5c0 46.667 -31.333 70 -94 70c-23.333 0 -42.333 -1.33301 -57 -4z
M216 301.001l-35.999 -191c11.333 -1.33301 29.666 -2 54.999 -2c42.667 0 78.167 8.83301 106.5 26.5s42.5 44.167 42.5 79.5c0 58 -41 87 -123 87h-45z" />
    <glyph glyph-name="C" unicode="C" horiz-adv-x="583" 
d="M512 135l12.001 -116c-43.333 -19.333 -102.333 -29 -177 -29c-90 0 -162.167 25.667 -216.5 77s-81.5 121 -81.5 209c0 74 15.167 139.833 45.5 197.5s71.833 104.167 124.5 139.5c69.333 47.333 151.666 71 246.999 71c64.667 0 114 -9.33301 148 -28l-40 -117
c-28 14.667 -68.667 22 -122 22c-60.667 0 -112 -17.333 -154 -52c-28.667 -23.333 -51.334 -53.833 -68.001 -91.5s-25 -79.5 -25 -125.5c0 -54.667 15.333 -98.167 46 -130.5s75 -48.5 133 -48.5c50.667 0 93.334 7.33301 128.001 22z" />
    <glyph glyph-name="D" unicode="D" horiz-adv-x="681" 
d="M20 9l125 654.999c58 10 120.333 15 187 15c106.667 0 188.334 -24.333 245.001 -73c59.333 -47.333 89 -117.666 89 -210.999c0 -64 -12.333 -123.167 -37 -177.5s-58.334 -98.5 -101.001 -132.5c-74 -60 -181.667 -90 -323 -90c-78 0 -139.667 4.66699 -185 14z
M271 558.999l-85 -444c17.333 -2 38.333 -3 63 -3c81.333 0 145 26 191 78c46.667 54 70 122 70 204c0 54 -15 95.833 -45 125.5s-74.333 44.5 -133 44.5c-24 0 -44.333 -1.66699 -61 -5z" />
    <glyph glyph-name="E" unicode="E" horiz-adv-x="517" 
d="M481 408l-24 -121h-239l-31 -164h269l-23 -123h-414l128 674h399l-24 -123h-254l-28 -143h241z" />
    <glyph glyph-name="F" unicode="F" horiz-adv-x="511" 
d="M19 0l128 674h395l-24 -123h-250l-31 -158h235l-24 -121h-234l-51 -272h-144z" />
    <glyph glyph-name="G" unicode="G" horiz-adv-x="673" 
d="M643 384l-68 -353.001c-76 -25.333 -148.667 -38 -218 -38c-95.333 0 -170 24.667 -224 74c-56.667 49.333 -85 118.666 -85 207.999c0 62 12 119.667 36 173s57.667 98.333 101 135c78.667 65.333 178 98 298 98c78.667 0 138 -10 178 -30l-43 -122
c-40 18.667 -87.667 28 -143 28c-68 0 -125 -18 -171 -54c-30 -23.333 -53.833 -54.166 -71.5 -92.499s-26.5 -80.166 -26.5 -125.499c0 -55.333 15.333 -97.5 46 -126.5s73 -43.5 127 -43.5c30 0 54.667 4 74 12l27 142h-105l23 115h245z" />
    <glyph glyph-name="H" unicode="H" horiz-adv-x="666" 
d="M147 674h144l-50 -262h244l50 262h145l-128 -674h-144l53 284h-245l-53 -284h-144z" />
    <glyph glyph-name="I" unicode="I" horiz-adv-x="274" 
d="M144 674h144l-128 -674h-144z" />
    <glyph glyph-name="J" unicode="J" horiz-adv-x="399" 
d="M194 247l81.002 427h144l-85 -445c-16.667 -86 -45 -147.5 -85 -184.5s-98 -55.5 -174 -55.5c-48 0 -85 5.33301 -111 16l28 123c24 -8 50.667 -12 80 -12c33.333 0 59.666 9.83301 78.999 29.5s33.666 53.5 42.999 101.5z" />
    <glyph glyph-name="K" unicode="K" horiz-adv-x="590" 
d="M19 0l128 674h142l-57 -301h3c4 6 24 31.667 60 77l187 224h180l-273 -291l156 -383h-156l-113 293l-72 -68l-43 -225h-142z" />
    <glyph glyph-name="L" unicode="L" horiz-adv-x="487" 
d="M19 0l128 674h144l-104 -548h259l-24 -126h-403z" />
    <glyph glyph-name="M" unicode="M" horiz-adv-x="821" 
d="M722 0l-139.999 -0.00292969l41 278c14 92.667 29 180.334 45 263.001h-3c-42 -98 -80.667 -182.667 -116 -254l-138 -276h-112l-24 273c-5.33301 65.333 -10.333 151 -15 257h-2c-4.66699 -20.667 -10.834 -49.667 -18.501 -87l-20.5 -100
c-6 -29.333 -11.667 -54.666 -17 -75.999l-67 -278h-132l169 674h193l21 -257c8 -121.333 12 -192.666 12 -213.999h4c20 58 50.333 129.667 91 215l125 256h195z" />
    <glyph glyph-name="N" unicode="N" horiz-adv-x="666" 
d="M153 0h-134l128 674h169l89 -257c24 -76.667 44.333 -153.334 61 -230.001h3c2.66699 62.667 13 143.334 31 242.001l46 245h135l-128 -674h-149l-94 269c-29.333 90 -51.333 168.333 -66 235h-3c-6 -58.667 -20.333 -148 -43 -268z" />
    <glyph glyph-name="O" unicode="O" horiz-adv-x="705" 
d="M322 -11l-0.998047 -0.000976562c-84.667 0 -151.334 26.5 -200.001 79.5s-73 120.167 -73 201.5c0 61.333 10.833 120.5 32.5 177.5s52.167 104.167 91.5 141.5c67.333 64 149.333 96 246 96c86.667 0 153.667 -26 201 -78s71 -119.667 71 -203
c0 -62 -10.5 -121.167 -31.5 -177.5s-50.5 -103.166 -88.5 -140.499c-66.667 -64.667 -149.334 -97 -248.001 -97zM341.002 108.999l1 0.000976562c42.667 0 80.334 16.333 113.001 49c25.333 25.333 45.333 61.5 60 108.5s22 91.5 22 133.5c0 48 -10.5 87.5 -31.5 118.5
s-55.833 46.5 -104.5 46.5c-44.667 0 -83.334 -17 -116.001 -51c-26 -25.333 -46.5 -60.833 -61.5 -106.5s-22.5 -89.834 -22.5 -132.501c0 -50 11.667 -90.167 35 -120.5s58.333 -45.5 105 -45.5z" />
    <glyph glyph-name="P" unicode="P" horiz-adv-x="559" 
d="M19 0l124.999 662c45.333 11.333 104 17 176 17c77.333 0 137 -15 179 -45c48.667 -32 73 -79.667 73 -143c0 -80 -30.333 -143.333 -91 -190c-54 -42 -126 -63 -216 -63c-7.33301 0 -14.5 0.166992 -21.5 0.5s-14.167 1 -21.5 2s-12.666 1.5 -15.999 1.5l-46 -242h-141z
M265.999 560l-38.001 -200c16.667 -3.33301 35.334 -5 56.001 -5c42 0 76.333 12 103 36s40 53 40 87c0 57.333 -34 86 -102 86c-23.333 0 -43 -1.33301 -59 -4z" />
    <glyph glyph-name="Q" unicode="Q" horiz-adv-x="705" 
d="M631 -8l-49.999 -113.002c-100 30 -183.667 61.667 -251 95c-22 10 -38 15.667 -48 17c-68 4.66699 -124 32 -168 82s-66 116.333 -66 199c0 58.667 10.167 115.334 30.5 170.001s49.166 101.334 86.499 140.001c68.667 68.667 153 103 253 103
c86.667 0 153.5 -26.833 200.5 -80.5s70.5 -120.5 70.5 -200.5c0 -58 -10 -115 -30 -171s-47.667 -101.667 -83 -137c-28 -29.333 -60.667 -51.333 -98 -66v-3c46 -12 97 -23.667 153 -35zM340.001 107.998l0.999023 0.000976562c42 0 79.667 16 113 48
c24.667 26 44.667 63 60 111s23 93.333 23 136c0 20.667 -2.16699 40 -6.5 58s-11.333 35.167 -21 51.5s-23.667 29.166 -42 38.499s-40.166 14 -65.499 14c-44 0 -82.667 -16.667 -116 -50c-26 -26 -46.667 -62.5 -62 -109.5s-23 -91.5 -23 -133.5
c0 -49.333 11.667 -89 35 -119s58 -45 104 -45z" />
    <glyph glyph-name="R" unicode="R" horiz-adv-x="583" 
d="M20 0l125.997 662c46.667 11.333 106.667 17 180 17c77.333 0 136.333 -13 177 -39c50 -29.333 75 -73 75 -131c0 -48 -14 -88.167 -42 -120.5s-65 -55.833 -111 -70.5v-3c36 -16 57.333 -57 64 -123l7.5 -72c3.66699 -34.667 6.83398 -61.167 9.50098 -79.5
s5.66699 -31.833 9 -40.5h-148c-6.66699 19.333 -13 72.333 -19 159c-3.33301 40 -12.166 67.833 -26.499 83.5s-36.166 23.5 -65.499 23.5h-44l-50 -266h-142zM268.997 561l-34.999 -187h59c39.333 0 71.666 10.667 96.999 32s38 48.333 38 81c0 26 -9.5 45.667 -28.5 59
s-43.833 20 -74.5 20c-24 0 -42.667 -1.66699 -56 -5z" />
    <glyph glyph-name="S" unicode="S" horiz-adv-x="510" 
d="M1 38l48.0029 117.999c48.667 -28 101.667 -42 159 -42c29.333 0 54.333 6.83301 75 20.5s31 32.834 31 57.501c0 18.667 -7 35 -21 49s-37.333 29.667 -70 47c-92.667 49.333 -139 108.333 -139 177c0 66 25.333 119 76 159s113.667 60 189 60
c62.667 0 115.334 -11 158.001 -33l-45 -120c-36.667 20 -78.334 29.667 -125.001 29c-32 0 -57 -6.83301 -75 -20.5s-27 -30.167 -27 -49.5c0 -9.33301 2.16699 -18 6.5 -26s11.666 -16.167 21.999 -24.5s20.166 -15.333 29.499 -21l40 -23.5
c88.667 -46.667 133 -106 133 -178s-25.833 -127.833 -77.5 -167.5s-116.834 -59.5 -195.501 -59.5c-86 0.666992 -150 16.667 -192 48z" />
    <glyph glyph-name="T" unicode="T" horiz-adv-x="527" 
d="M141 0l104 548h-178l25 126h501l-24 -126h-180l-104 -548h-144z" />
    <glyph glyph-name="U" unicode="U" horiz-adv-x="655" 
d="M144 674h144.001l-73 -388c-5.33301 -24.667 -8 -51 -8 -79c0 -28.667 8.5 -52 25.5 -70s41.167 -27 72.5 -27c38.667 0 70.167 13.833 94.5 41.5s42.5 72.167 54.5 133.5l74 389h144l-73 -383c-20 -104 -54.333 -180.333 -103 -229s-118.334 -73 -209.001 -73
c-70.667 -0.666992 -125.667 17.333 -165 54s-59 90.334 -59 161.001c0 27.333 3.33301 58.666 10 93.999z" />
    <glyph glyph-name="V" unicode="V" horiz-adv-x="611" 
d="M331 0h-167l-84 674h149l30 -321c6.66699 -69.333 12 -138.333 16 -207h2c22 58 52 127.333 90 208l151 320h161z" />
    <glyph glyph-name="W" unicode="W" horiz-adv-x="864" 
d="M278 0l-160 -0.000976562l-26 674h146v-300c0 -64.667 -1.33301 -137.667 -4 -219h2c51.333 140.667 77.666 213 78.999 217l121 302h158l-2 -301c-1.33301 -82.667 -3.66602 -154 -6.99902 -214h2c24 72.667 49 144.334 75 215.001l116 300h152l-297 -674h-157l-4 276
c-0.666992 69.333 1 144 5 224h-2c-33.333 -100 -60.333 -175.667 -81 -227z" />
    <glyph glyph-name="X" unicode="X" horiz-adv-x="569" 
d="M517 0h-153l-46 136c-21.333 66.667 -33.333 105 -36 115h-2c-6.66699 -10.667 -17.167 -29 -31.5 -55l-36.5 -65l-80 -131h-173l252 344l-118 330h152l41 -129c16 -56 26.333 -93.333 31 -112h3l64 114l78 127h172l-246 -331z" />
    <glyph glyph-name="Y" unicode="Y" horiz-adv-x="570" 
d="M295 0h-144.001l52 275l-132 399h154l43 -171c12.667 -53.333 21.334 -94 26.001 -122h2l69 123l101 170h172l-291 -396z" />
    <glyph glyph-name="Z" unicode="Z" horiz-adv-x="553" 
d="M-25 0l15 83l391 464v3h-274l25 124h467l-17 -89l-384 -458v-3h302l-24 -124h-501z" />
    <glyph glyph-name="bracketleft" unicode="[" horiz-adv-x="314" 
d="M201 -112h-201l152 798h201l-16 -83h-93l-121 -632h93z" />
    <glyph glyph-name="backslash" unicode="\" horiz-adv-x="337" 
d="M313 -40h-100l-161 725h99z" />
    <glyph glyph-name="bracketright" unicode="]" horiz-adv-x="314" 
d="M126 686h201l-152 -798h-201l16 83h93l120 632h-93z" />
    <glyph glyph-name="asciicircum" unicode="^" horiz-adv-x="596" 
d="M544 177h-108l-145 356h-3l-146 -356h-106l208 473h92z" />
    <glyph glyph-name="underscore" unicode="_" horiz-adv-x="500" 
d="M-54 -75h500l-10 -50h-500z" />
    <glyph glyph-name="grave" unicode="`" 
d="M119 700h139l75 -152h-103z" />
    <glyph glyph-name="a" unicode="a" horiz-adv-x="554" 
d="M465 0l-132.001 -0.00292969l3 51.5c1.33301 23 2.33301 38.167 3 45.5h-2c-40 -72 -94.667 -108 -164 -108c-44 0 -79.667 15.667 -107 47s-41 72.333 -41 123c0 42.667 7.16699 83.834 21.5 123.501s35.333 75.834 63 108.501s64.5 59 110.5 79s97.667 30 155 30
c56.667 0 110.334 -8 161.001 -24l-51 -256c-15.333 -81.333 -22 -154.666 -20 -219.999zM351.999 273.997l23 113.001c-14.667 2.66699 -28 4 -40 4c-44 0 -81.667 -22 -113 -66s-47 -90.333 -47 -139c0 -24.667 5 -44.334 15 -59.001s24.667 -22 44 -22
c24 0 47.167 14.167 69.5 42.5s38.5 70.5 48.5 126.5z" />
    <glyph glyph-name="b" unicode="b" horiz-adv-x="560" 
d="M146 710l145.001 -0.00292969l-58 -280h2c39.333 46.667 89.666 70 150.999 70c48 0 84.667 -16.667 110 -50s38 -73.666 38 -120.999c0 -40.667 -6.83301 -80.667 -20.5 -120s-33.167 -75.666 -58.5 -108.999s-59.333 -60.166 -102 -80.499
s-90.334 -30.5 -143.001 -30.5c-57.333 0 -100.666 11.833 -129.999 35.5s-44 57.5 -44 101.5c0 24 3.66699 53.667 11 89zM199.001 245.997l-8.99805 -40c-4 -21.333 -5.66699 -39.333 -5 -54c1.33301 -36 19.666 -54 54.999 -54c39.333 0 73 21.833 101 65.5
s42 88.834 42 135.501c0 25.333 -5.33301 45.666 -16 60.999s-26.667 23 -48 23c-26.667 0 -51.334 -12.5 -74.001 -37.5s-38 -58.167 -46 -99.5z" />
    <glyph glyph-name="c" unicode="c" horiz-adv-x="435" 
d="M373 125l1.00098 -108.999c-36 -17.333 -82.333 -26 -139 -26c-61.333 0 -111 17.833 -149 53.5s-57 84.5 -57 146.5c0 87.333 30.167 160.666 90.5 219.999s136.5 89 228.5 89c38.667 0 72 -5.66699 100 -17l-36 -110c-19.333 8 -41.333 12 -66 12
c-49.333 0 -89.333 -17.667 -120 -53s-46 -77 -46 -125c0 -32.667 9 -57.667 27 -75s41 -26 69 -26c31.333 0 63.666 6.66699 96.999 20z" />
    <glyph glyph-name="d" unicode="d" horiz-adv-x="560" 
d="M443 710l143.001 -0.000976562l-99 -520c-12.667 -71.333 -20.334 -134.666 -23.001 -189.999h-131l7 79h-2c-40 -60 -93.667 -90 -161 -90c-43.333 0 -79.333 16.333 -108 49s-43 77.667 -43 135c0 88 28.833 164.5 86.5 229.5s131.5 97.5 221.5 97.5c24 0 46 -4 66 -12
zM354.001 241.999l25.999 131c-13.333 11.333 -32.333 17 -57 17c-41.333 0 -76.166 -19.833 -104.499 -59.5s-42.5 -84.167 -42.5 -133.5c0 -29.333 5.83301 -52 17.5 -68s28.167 -24 49.5 -24c22.667 0 44.667 11.833 66 35.5s36.333 57.5 45 101.5z" />
    <glyph glyph-name="e" unicode="e" horiz-adv-x="501" 
d="M412 133l10.001 -103.999c-51.333 -26 -112 -39 -182 -39c-68.667 0 -121.167 18.167 -157.5 54.5s-54.5 86.833 -54.5 151.5c0 50.667 11.167 98.834 33.5 144.501s55.666 83.667 99.999 114s94.833 45.5 151.5 45.5c50 0 90.833 -13.333 122.5 -40
s47.5 -62.334 47.5 -107.001c0 -114.667 -105.667 -169.334 -317 -164.001c0 -19.333 5 -36 15 -50c19.333 -24.667 50.666 -37 93.999 -37c48.667 0 94.334 10.333 137.001 31zM348.001 353.001v1c0 12 -4.83301 21.833 -14.5 29.5s-22.5 11.5 -38.5 11.5
c-30.667 0 -56 -10.333 -76 -31s-33 -44 -39 -70c58 -0.666992 100.5 3.5 127.5 12.5s40.5 24.5 40.5 46.5z" />
    <glyph glyph-name="f" unicode="f" horiz-adv-x="329" 
d="M173 0h-143.998l72 379h-63l20 110h64l4 25c13.333 72 41 125.667 83 161c37.333 30.667 84 46 140 46c32.667 0 58 -4 76 -12l-25 -114c-14 5.33301 -29.333 8 -46 8c-22.667 0 -41.334 -8.5 -56.001 -25.5s-24.334 -38.5 -29.001 -64.5l-4 -24h96l-21 -110h-95z" />
    <glyph glyph-name="g" unicode="g" horiz-adv-x="558" 
d="M11 -178l33.999 110c30.667 -18 73.334 -27 128.001 -27c78.667 0 127.334 43.333 146.001 130l8 42h-2c-36.667 -48.667 -83.334 -73 -140.001 -73c-47.333 0 -85.166 16.833 -113.499 50.5s-42.833 75.167 -43.5 124.5c0 40.667 7.16699 80 21.5 118
s35 72.167 62 102.5s61.667 54.666 104 72.999s89.166 27.5 140.499 27.5c64.667 0 125 -11.333 181 -34l-74 -403c-20 -105.333 -54.333 -177.666 -103 -216.999c-46 -36.667 -109 -55 -189 -55c-70 0 -123.333 10.333 -160 31zM355.999 250l25 131
c-13.333 6 -30.666 9 -51.999 9c-42 0 -77.333 -19.5 -106 -58.5s-43 -82.5 -43 -130.5c0 -26 5.66699 -46.833 17 -62.5s27.666 -23.5 48.999 -23.5c24 0 46.333 12.5 67 37.5s35 57.5 43 97.5z" />
    <glyph glyph-name="h" unicode="h" horiz-adv-x="563" 
d="M157 0l-143.999 -0.000976562l135 710h144l-55 -284h2c44.667 49.333 96.667 74 156 74c38 0 68 -11.5 90 -34.5s33 -55.5 33 -97.5c0 -25.333 -3 -54.666 -9 -87.999l-53 -280h-144l51 268c4 19.333 6 39.333 6 60c0 37.333 -16.333 56 -49 56
c-26 0 -50.333 -14.667 -73 -44s-38.334 -68 -47.001 -116z" />
    <glyph glyph-name="i" unicode="i" horiz-adv-x="265" 
d="M156 0h-144l93 489h144zM196 550l-0.999023 0.000976562c-20 0 -36.5 6.5 -49.5 19.5s-19.5 29.833 -19.5 50.5c0 24 8.16699 43.667 24.5 59s35.833 23 58.5 23c21.333 0 38.666 -6.5 51.999 -19.5s20 -30.167 20 -51.5c0 -24.667 -8.16699 -44.334 -24.5 -59.001
s-36.5 -22 -60.5 -22z" />
    <glyph glyph-name="j" unicode="j" horiz-adv-x="275" 
d="M121 489h143.001l-89 -473c-14.667 -80.667 -37.334 -138.334 -68.001 -173.001s-75.334 -52 -134.001 -52c-26 0 -48.667 2.66699 -68 8l16 108c13.333 -1.33301 24 -2 32 -2c18.667 0 34.334 7.33301 47.001 22s22.667 42.334 30 83.001zM206.001 550
l-0.999023 0.000976562c-20 0 -36.5 6.5 -49.5 19.5s-19.5 29.833 -19.5 50.5c0 24 8.16699 43.667 24.5 59s35.833 23 58.5 23c21.333 0 38.666 -6.5 51.999 -19.5s20 -30.167 20 -51.5c0 -24.667 -8.16699 -44.334 -24.5 -59.001s-36.5 -22 -60.5 -22z" />
    <glyph glyph-name="k" unicode="k" horiz-adv-x="530" 
d="M156 0h-143l135 710h143l-81 -425h2l44 55l125 149h178l-208 -202l136 -287h-161l-86 209l-54 -52z" />
    <glyph glyph-name="l" unicode="l" horiz-adv-x="265" 
d="M157 0h-144l136 710h144z" />
    <glyph glyph-name="m" unicode="m" horiz-adv-x="831" 
d="M152 0l-138.999 0.000976562l61 330c7.33301 38.667 15.666 91.667 24.999 159h124l-9 -80h2c43.333 60.667 99 91 167 91c36 0 63.833 -9.33301 83.5 -28s30.5 -40.334 32.5 -65.001c43.333 62 99.666 93 168.999 93c37.333 0 66.5 -11.667 87.5 -35
s31.5 -55.666 31.5 -96.999c0 -22.667 -2.66699 -50.667 -8 -84l-53 -284h-140l49 267c4.66699 22 7 41.667 7 59c0 38.667 -16 58 -48 58c-24.667 0 -47.667 -15 -69 -45s-36.666 -69.333 -45.999 -118l-41 -221h-139l51 269c4 25.333 6 43.666 6 54.999
c0 40 -15.333 60 -46 60c-24.667 0 -48.167 -15.5 -70.5 -46.5s-37.833 -70.167 -46.5 -117.5z" />
    <glyph glyph-name="n" unicode="n" horiz-adv-x="563" 
d="M157 0h-144l62 330c10 50.667 18.667 103.667 26 159h127l-9 -81h2c44.667 61.333 101.667 92 171 92c40 0 71 -11.667 93 -35s33 -56.333 33 -99c0 -22.667 -2.66699 -50 -8 -82l-54 -284h-144l51 271c3.33301 18.667 5 36.667 5 54c0 39.333 -16.333 59 -49 59
c-24.667 0 -48.667 -14.833 -72 -44.5s-40 -70.5 -50 -122.5z" />
    <glyph glyph-name="o" unicode="o" horiz-adv-x="559" 
d="M238 -11l-0.999023 -0.000976562c-62 0 -112 18.5 -150 55.5s-57 85.833 -57 146.5c0 86 27.333 159 82 219s124.667 90 210 90c63.333 0 113.666 -19.167 150.999 -57.5s56 -86.5 56 -144.5c0 -89.333 -27.5 -163.166 -82.5 -221.499s-124.5 -87.5 -208.5 -87.5z
M257.001 98.999l1 -0.000976562c36 0 65.333 21.333 88 64s34 87.334 34 134.001c0 26 -6.16699 48 -18.5 66s-31.833 27 -58.5 27c-26 0 -48.833 -11.333 -68.5 -34s-33.834 -48.5 -42.501 -77.5s-13 -57.167 -13 -84.5c0 -28.667 6.83301 -51.667 20.5 -69
s32.834 -26 57.501 -26z" />
    <glyph glyph-name="p" unicode="p" horiz-adv-x="562" 
d="M117 -198l-143.999 -0.000976562l95 498c8.66699 46 18 110.333 28 193h129l-9 -75h2c41.333 54.667 93.666 82 156.999 82c50.667 0 89.667 -17.667 117 -53s41 -79.666 41 -132.999c0 -88 -26.667 -164.167 -80 -228.5s-121.333 -96.5 -204 -96.5
c-37.333 0 -67.333 6.66699 -90 20h-3zM197.001 226.999l-18 -106.001c17.333 -15.333 39.333 -23 66 -23c37.333 0 69.5 21.667 96.5 65s40.5 90 40.5 140c0 22 -5.16699 40.833 -15.5 56.5s-26.166 23.5 -47.499 23.5c-27.333 0 -52.333 -14.167 -75 -42.5
s-38.334 -66.166 -47.001 -113.499z" />
    <glyph glyph-name="q" unicode="q" horiz-adv-x="560" 
d="M415 -198h-143.999l59 269h-2c-18 -26.667 -40.333 -47 -67 -61s-54.667 -21 -84 -21c-45.333 0 -81.833 17 -109.5 51s-41.5 78.667 -41.5 134c0 40 7 79 21 117s34.167 72.833 60.5 104.5s61.333 57 105 76s92.5 28.5 146.5 28.5
c49.333 0 109.666 -9.66699 180.999 -29zM356.001 248l25.001 132.001c-14.667 6.66699 -33.334 10 -56.001 10c-42 0 -77.333 -20.833 -106 -62.5s-43 -86.834 -43 -135.501c0 -28 5.5 -49.5 16.5 -64.5s25.833 -22.5 44.5 -22.5c26 0 50.333 13 73 39s38 60.667 46 104z
" />
    <glyph glyph-name="r" unicode="r" horiz-adv-x="370" 
d="M157 0h-144l55 291c2.66699 13.333 11 79.333 25 198h125c0 -3.33301 -1.16699 -17.5 -3.5 -42.5l-5.5 -58.5h3c39.333 74.667 91.333 112 156 112c3.33301 0 8 -0.166992 14 -0.5s10.333 -0.5 13 -0.5l-28 -141c-4 0.666992 -11.667 1 -23 1c-80 0 -131 -59 -153 -177z
" />
    <glyph glyph-name="s" unicode="s" horiz-adv-x="416" 
d="M-4 28l35 100.998c45.333 -22.667 88 -34 128 -34c19.333 0 34.333 4.16699 45 12.5s16 18.833 16 31.5c0 12 -4.5 22.833 -13.5 32.5s-24.833 19.834 -47.5 30.501c-68.667 34.667 -103 77.667 -103 129c0 50.667 20 91.5 60 122.5s91.667 46.5 155 46.5
c54 0 95.667 -8.33301 125 -25l-34 -102c-31.333 14 -64 21 -98 21c-19.333 0 -34.666 -3.83301 -45.999 -11.5s-17 -18.167 -17 -31.5c0 -18 19.667 -36.667 59 -56c73.333 -36.667 110 -81 110 -133c0 -54.667 -20.833 -97.167 -62.5 -127.5
s-95.834 -45.166 -162.501 -44.499c-66 1.33301 -115.667 14 -149 38z" />
    <glyph glyph-name="t" unicode="t" horiz-adv-x="348" 
d="M141 581l148 39.999l-25 -132h105l-22 -110h-104l-33 -165c-5.33301 -25.333 -8 -45.666 -8 -60.999c0 -27.333 14 -41 42 -41c18 0 31 0.666992 39 2l-16 -113c-20 -7.33301 -48.333 -11 -85 -11c-42 0 -73.833 9.66699 -95.5 29s-32.5 45 -32.5 77
c0 26 3.66699 56 11 90l37 193h-62l20 110h63z" />
    <glyph glyph-name="u" unicode="u" horiz-adv-x="560" 
d="M400 489l144.001 0.00195312l-62 -330c-6.66699 -32.667 -15.667 -85.667 -27 -159h-127l9 79l-2 1c-47.333 -60.667 -103.333 -91 -168 -91c-40 0 -71 11.5 -93 34.5s-33 57.167 -33 102.5c0 27.333 3.33301 57.333 10 90l52 273h144l-50 -262
c-4.66699 -26.667 -7 -48.334 -7 -65.001c0 -37.333 16.333 -56 49 -56c25.333 0 49.166 14.167 71.499 42.5s37.833 66.166 46.5 113.499z" />
    <glyph glyph-name="v" unicode="v" horiz-adv-x="512" 
d="M46 489h148l23 -214c2 -22 4.5 -47.167 7.5 -75.5s4.83301 -47.5 5.5 -57.5h3c14 37.333 32.333 81.333 55 132l98 215h161l-272 -489h-147z" />
    <glyph glyph-name="w" unicode="w" horiz-adv-x="733" 
d="M51 489l144.999 -0.000976562l1 -208c0.666992 -42 -0.666016 -93.667 -3.99902 -155h2c6 18 25.667 68 59 150l97 213h117l12 -206c3.33301 -67.333 4 -119.666 2 -156.999h3c10 34 27.667 87 53 159l84 204h145l-238 -489h-135l-14 170c-2.66699 34 -4 86 -4 156h-3
c-32.667 -87.333 -52 -137 -58 -149l-83 -177h-135z" />
    <glyph glyph-name="x" unicode="x" horiz-adv-x="498" 
d="M48 489l158 -0.00195312l29 -73l32 -82h3l52 78l54 77h165l-206 -237l113 -252h-158l-30 78c-13.333 32.667 -24 62.334 -32 89.001h-3c-18.667 -33.333 -35 -60.666 -49 -81.999l-59 -85h-166l212 253z" />
    <glyph glyph-name="y" unicode="y" horiz-adv-x="497" 
d="M44 489l150.999 -0.000976562l30 -213l16 -117h2l43 114l89 216h152l-175 -352c-64.667 -128.667 -127.334 -221.667 -188.001 -279c-25.333 -24 -52.833 -43.167 -82.5 -57.5s-54.5 -23.166 -74.5 -26.499l-32 124c32.667 10 60.334 22.667 83.001 38
c34.667 24 61.334 52.333 80.001 85c3.33301 6.66699 4 14.667 2 24z" />
    <glyph glyph-name="z" unicode="z" horiz-adv-x="450" 
d="M-26 0l16 87l159 170c39.333 41.333 79 79 119 113l1 2h-209l23 117h382l-17 -91l-155 -166c-46 -48 -85.667 -85.667 -119 -113l-1 -2h230l-23 -117h-406z" />
    <glyph glyph-name="braceleft" unicode="{" horiz-adv-x="314" 
d="M31 249l14.002 77.001c30.667 1.33301 52 8.16602 64 20.499s20 28.166 24 47.499c3.33301 16.667 6.66602 42.834 9.99902 78.501s6.33301 61.834 9 78.501c17.333 90 74.666 135 171.999 135h37l-16 -84h-18c-39.333 0 -63.666 -24 -72.999 -72
c-2.66699 -12.667 -5.33398 -33 -8.00098 -61s-5.33398 -49.333 -8.00098 -64c-5.33301 -36.667 -16.166 -63.834 -32.499 -81.501s-39.833 -29.5 -70.5 -35.5v-2c44 -10 66 -34.667 66 -74c0 -21.333 -7 -55 -21 -101c-14 -44.667 -21 -75.667 -21 -93
c0 -30.667 16 -46 48 -46h18l-16 -84h-29c-87.333 0 -131 35.333 -131 106c0 18.667 7.66699 55.667 23 111c15.333 51.333 23 83 23 95c0 32 -21.333 48.333 -64 49z" />
    <glyph glyph-name="bar" unicode="|" horiz-adv-x="240" 
d="M87 750h98v-1000h-98v1000z" />
    <glyph glyph-name="braceright" unicode="}" horiz-adv-x="314" 
d="M296 325l-14.002 -77c-30.667 -1.33301 -52 -8.16602 -64 -20.499s-20 -28.166 -24 -47.499c-3.33301 -16.667 -6.66602 -42.834 -9.99902 -78.501s-6.33301 -61.834 -9 -78.501c-17.333 -90 -74.666 -135 -171.999 -135h-37l16 84h18c39.333 0 63.666 24 72.999 72
c2.66699 12.667 5.33398 33 8.00098 61s5.33398 49.333 8.00098 64c5.33301 36.667 16.166 63.834 32.499 81.501s39.833 29.5 70.5 35.5v2c-44 10 -66 34.667 -66 74c0 15.333 7.33301 48.666 22 99.999c14 50.667 21 81.667 21 93c0 31.333 -16 47 -48 47h-18l15 84h30
c87.333 0 131 -35.333 131 -106c0 -26.667 -7.66699 -63.667 -23 -111c-16 -48 -24 -79.667 -24 -95c0 -32 21.333 -48.333 64 -49z" />
    <glyph glyph-name="asciitilde" unicode="~" horiz-adv-x="596" 
d="M143 193h-95.001c-0.666992 63.333 11.5 110 36.5 140s59.167 45 102.5 45c37.333 0 83.333 -15.667 138 -47c44.667 -26 76 -39 94 -39c25.333 0 39 26.667 41 80h95c2.66699 -66 -8.33301 -113.667 -33 -143s-58 -44 -100 -44c-39.333 0 -88 17.667 -146 53
c-42 23.333 -71 35 -87 35c-27.333 0 -42.666 -26.667 -45.999 -80z" />
    <glyph glyph-name="exclamdown" unicode="&#xa1;" horiz-adv-x="269" 
d="M128 -191h-155l109 451h111zM171 493l1 -0.000976562c24 0 43.333 -7.66699 58 -23s22 -35 22 -59c0 -27.333 -9.16699 -50.833 -27.5 -70.5s-41.5 -29.5 -69.5 -29.5c-24 0 -43.667 7.83301 -59 23.5s-23 35.834 -23 60.501c0 28.667 9.16699 52.167 27.5 70.5
s41.833 27.5 70.5 27.5z" />
    <glyph glyph-name="cent" unicode="&#xa2;" horiz-adv-x="541" 
d="M318 -11l-95 -0.000976562l19 98c-50 8.66699 -89.333 31 -118 67c-26.667 34 -40 77.667 -40 131c0 76 24 140.667 72 194s108 86.333 180 99l18 95h94l-17 -91c36 -1.33301 64.667 -7.66602 86 -18.999l-42 -109c-24 11.333 -52.333 17 -85 17
c-42.667 0 -78.667 -15.833 -108 -47.5s-44 -71.5 -44 -119.5c0 -34 10.167 -60.5 30.5 -79.5s46.5 -28.5 78.5 -28.5c28 0 58.333 6.33301 91 19l6 -107c-30.667 -14.667 -67 -22.667 -109 -24z" />
    <glyph glyph-name="sterling" unicode="&#xa3;" horiz-adv-x="541" 
d="M459 0h-444.998l14 82c26 10 50.833 26.833 74.5 50.5s40.5 48.5 50.5 74.5c7.33301 16.667 10.333 37.334 9 62.001h-94l20 103h73c1.33301 42.667 5.66602 79 12.999 109c14.667 56 42.167 100 82.5 132s91.5 48 153.5 48c46.667 0 82.667 -8.33301 108 -25l-38 -110
c-19.333 10.667 -44 16 -74 16c-55.333 0 -89.333 -29.333 -102 -88c-4.66699 -24.667 -6.33398 -52 -5.00098 -82h137l-20 -103h-121c-2 -20 -6.66699 -39.667 -14 -59c-12 -36.667 -33.333 -65.334 -64 -86.001v-2h262z" />
    <glyph glyph-name="currency" unicode="&#xa4;" horiz-adv-x="541" 
d="M280 550h1.00098c47.333 0 85 -12 113 -36l78 84l66 -69l-87 -79c22 -33.333 33 -71.333 33 -114c0 -46.667 -12 -86.667 -36 -120l86 -81l-65 -67l-75 87c-30 -26 -68.333 -39 -115 -39s-84.334 12.667 -113.001 38l-73 -86l-66 67l85 80c-24.667 32.667 -37 72 -37 118
c0 45.333 11.667 84.333 35 117l-87 79l67 69l76 -84c30 24 68 36 114 36zM279.001 452l-0.999023 0.000976562c-26.667 0 -49.334 -11 -68.001 -33s-28 -50.333 -28 -85c0 -38 10 -67.5 30 -88.5s42.667 -31.5 68 -31.5s47.833 10.5 67.5 31.5s29.5 50.833 29.5 89.5
c0 33.333 -9.33301 61.166 -28 83.499s-42 33.5 -70 33.5z" />
    <glyph glyph-name="yen" unicode="&#xa5;" horiz-adv-x="541" 
d="M284 0h-134l30 160h-150l14 71h149l12 64h-150l14 71h115l-106 284h150l37 -160c12 -54 19.667 -90.333 23 -109h3c29.333 54 50 90.667 62 110l99 159h159l-220 -284h114l-14 -71h-152l-11 -64h152l-14 -71h-151z" />
    <glyph glyph-name="brokenbar" unicode="&#xa6;" horiz-adv-x="240" 
d="M87 174h98v-350h-98v350zM87 674h98v-350h-98v350z" />
    <glyph glyph-name="section" unicode="&#xa7;" horiz-adv-x="556" 
d="M181 337l-0.000976562 -1c0 -31.333 24.667 -56.666 74 -75.999c51.333 -20.667 84 -35.334 98 -44.001c28.667 17.333 43 38.666 43 63.999c0 29.333 -18.667 53.333 -56 72l-55 23.5c-27.333 11.667 -45.666 19.834 -54.999 24.501
c-13.333 -5.33301 -24.833 -13.833 -34.5 -25.5s-14.5 -24.167 -14.5 -37.5zM528.999 649l-34.999 -87.999c-38.667 20.667 -82.334 31 -131.001 31c-26.667 0 -48.334 -5.16699 -65.001 -15.5s-25 -23.833 -25 -40.5c0 -13.333 7 -24.833 21 -34.5
s38.333 -20.834 73 -33.501c48.667 -17.333 86.334 -38 113.001 -62s40 -54.667 40 -92c0 -60 -32.333 -109 -97 -147c18 -18 27 -42 27 -72c0 -38.667 -11.833 -71.5 -35.5 -98.5s-52.167 -46 -85.5 -57s-69.333 -16.5 -108 -16.5c-78.667 0 -140.667 16.333 -186 49l39 90
c43.333 -30 92 -45 146 -45c28.667 0 51.5 5.16699 68.5 15.5s25.5 23.833 25.5 40.5c0 14 -7 26.667 -21 38s-38 23.666 -72 36.999c-48.667 18.667 -88 39.834 -118 63.501s-45 53.167 -45 88.5c0 31.333 10 60 30 86s47 46.667 81 62c-17.333 20 -26 42.667 -26 68
c0 53.333 23 94.833 69 124.5s100 44.5 162 44.5c64 0 115.667 -12 155 -36z" />
    <glyph glyph-name="dieresis" unicode="&#xa8;" 
d="M163 554h-1c-18 0 -33.5 6 -46.5 18s-19.5 28 -19.5 48c0 22 7.33301 40 22 54s32.667 21 54 21c19.333 0 35 -6.16699 47 -18.5s18 -28.166 18 -47.499c0 -22.667 -7 -40.834 -21 -54.501s-31.667 -20.5 -53 -20.5zM368 554h-0.999023c-18.667 0 -34.334 6 -47.001 18
s-19 28 -19 48c0 22 7.33301 40 22 54s32.667 21 54 21c19.333 0 35 -6.16699 47 -18.5s18 -28.166 18 -47.499c0 -22.667 -7 -40.834 -21 -54.501s-31.667 -20.5 -53 -20.5z" />
    <glyph glyph-name="copyright" unicode="&#xa9;" horiz-adv-x="673" 
d="M358 648h1c84.667 0 156.5 -30 215.5 -90s88.5 -132.667 88.5 -218c0 -86 -29.667 -159.167 -89 -219.5s-131.333 -90.5 -216 -90.5s-156.834 30.167 -216.501 90.5s-89.5 133.5 -89.5 219.5c0 85.333 29.833 158 89.5 218s131.834 90 216.501 90zM358 592
l-1.00098 0.00195312c-67.333 0 -124.166 -24.667 -170.499 -74s-69.5 -109.333 -69.5 -180s23.333 -130.334 70 -179.001s103.667 -73 171 -73c66.667 -0.666992 123.334 23.666 170.001 72.999s70 109.333 70 180s-23.333 130.5 -70 179.5s-103.334 73.5 -170.001 73.5z
M492.999 492.002l-14.999 -53.999c-24.667 15.333 -56.667 23 -96 23c-38.667 0 -68.834 -11 -90.501 -33s-32.5 -52.333 -32.5 -91c0 -36.667 11.167 -66.667 33.5 -90s51.833 -35 88.5 -35c42.667 0 76.667 8.33301 102 25l15 -52
c-32.667 -21.333 -74.334 -32 -125.001 -32c-57.333 0 -102.5 17 -135.5 51s-49.5 77.333 -49.5 130c0 55.333 19.167 100.166 57.5 134.499s83.833 51.5 136.5 51.5c24 0 46.833 -2.83301 68.5 -8.5s35.834 -12.167 42.501 -19.5z" />
    <glyph glyph-name="ordfeminine" unicode="&#xaa;" horiz-adv-x="400" 
d="M369 268l-96 -0.000976562c0 22.667 0.333008 39.667 1 51h-1c-28 -38.667 -65 -58 -111 -58c-29.333 0 -53.5 10.5 -72.5 31.5s-28.5 49.833 -28.5 86.5c0 58.667 19.333 108.667 58 150s95 62 169 62c45.333 0 86.333 -7.33301 123 -22l-35 -201
c-4.66699 -29.333 -7 -62.666 -7 -99.999zM281 406.999l16.999 102.998c-10.667 4 -22.334 6 -35.001 6c-27.333 0 -50 -12.167 -68 -36.5s-27 -51.166 -27 -80.499c0 -17.333 3.83301 -31.166 11.5 -41.499s18.834 -15.5 33.501 -15.5s28.334 6.33301 41.001 19
s21.667 28 27 46z" />
    <glyph glyph-name="guillemotleft" unicode="&#xab;" horiz-adv-x="461" 
d="M267 443l-144 -193l96 -189h-100l-97 191l135 191h110zM460 443l-144 -193l96 -189h-100l-97 191l135 191h110z" />
    <glyph glyph-name="logicalnot" unicode="&#xac;" horiz-adv-x="596" 
d="M34 422h511v-316h-97v223h-414v93z" />
    <glyph glyph-name="registered" unicode="&#xae;" horiz-adv-x="409" 
d="M239 489l-0.00195312 -56.998h-50v157c22 4 45.667 6 71 6c29.333 0 50.333 -4.33301 63 -13c11.333 -6.66699 17 -18 17 -34c0 -17.333 -12 -29.333 -36 -36v-2c16.667 -4.66699 27.334 -18 32.001 -40c4.66699 -20.667 8.33398 -33.334 11.001 -38.001h-54
c-2.66699 3.33301 -6.66699 14.666 -12 33.999c-2.66699 15.333 -11.667 23 -27 23h-15zM239.998 560.002l0.000976562 -38h15c19.333 0 29 6.33301 29 19c0 13.333 -9 20 -27 20c-2.66699 0 -5.83398 -0.166992 -9.50098 -0.5s-6.16699 -0.5 -7.5 -0.5zM260.999 685.002h1
c48.667 0 90 -16.833 124 -50.5s51 -74.167 51 -121.5c0 -48 -17 -88.833 -51 -122.5s-75.667 -50.5 -125 -50.5s-91.5 16.833 -126.5 50.5s-52.5 74.5 -52.5 122.5c0 47.333 17.5 87.833 52.5 121.5s77.167 50.5 126.5 50.5zM259.999 642.002l-1 0.000976562
c-34.667 0 -64 -12.667 -88 -38s-36 -56 -36 -92s12 -66.5 36 -91.5s53.667 -37.5 89 -37.5c35.333 -0.666992 65 11.666 89 36.999s36 56.333 36 93c0 36 -12 66.5 -36 91.5s-53.667 37.5 -89 37.5z" />
    <glyph glyph-name="macron" unicode="&#xaf;" 
d="M154 662h246l-16 -78h-246z" />
    <glyph glyph-name="macron" unicode="&#x2c9;" 
d="M154 662h246l-16 -78h-246z" />
    <glyph glyph-name="degree" unicode="&#xb0;" horiz-adv-x="356" 
d="M236 685h0.999023c43.333 0 78.666 -13.833 105.999 -41.5s41 -61.167 41 -100.5c0 -42 -15.5 -77.667 -46.5 -107s-67.5 -44 -109.5 -44c-43.333 0 -78.666 13.5 -105.999 40.5s-41 60.833 -41 101.5c-0.666992 40.667 14.333 76 45 106s67.334 45 110.001 45z
M234.999 615h-1.00098c-20 0 -37.167 -8.16699 -51.5 -24.5s-21.5 -35.166 -21.5 -56.499c0 -20.667 6.66699 -37.834 20 -51.501s30.333 -20.5 51 -20.5s37.834 7.83301 51.501 23.5s20.5 34.5 20.5 56.5c0 20.667 -6 38 -18 52s-29 21 -51 21z" />
    <glyph glyph-name="plusminus" unicode="&#xb1;" horiz-adv-x="596" 
d="M242 579h97v-173h207v-93h-207v-176h-97v176h-207v93h207v173zM35 93h511v-93h-511v93z" />
    <glyph glyph-name="twosuperior" unicode="&#xb2;" horiz-adv-x="341" 
d="M349 406l-304 -0.000976562l11 57l75 58c48.667 35.333 84.334 64.333 107.001 87s34 44 34 64c0 26.667 -16.667 40 -50 40c-30.667 0 -60.334 -9.66699 -89.001 -29l-17 73c41.333 30 89.666 45 144.999 45c38.667 0 70.667 -9.16699 96 -27.5s38 -44.833 38 -79.5
c0 -24.667 -8.16699 -49 -24.5 -73s-32.166 -42.167 -47.499 -54.5s-39 -30.166 -71 -53.499l-27 -19v-2h140z" />
    <glyph glyph-name="threesuperior" unicode="&#xb3;" horiz-adv-x="335" 
d="M130 694l-10 71.0029c36.667 24 82.667 36 138 36c36.667 0 68 -8.33301 94 -25s39 -38.334 39 -65.001c0 -24 -9 -44 -27 -60s-41.667 -27.667 -71 -35v-2c22 -4.66699 40.833 -14.334 56.5 -29.001s23.5 -33.334 23.5 -56.001c0 -40 -17.833 -71.333 -53.5 -94
s-79.834 -34 -132.501 -34c-60 0 -106 11 -138 33l35 75c27.333 -19.333 59 -29 95 -29c21.333 0 38.833 4.66699 52.5 14s20.5 21.333 20.5 36c0 15.333 -7.66699 27.166 -23 35.499s-35.666 12.5 -60.999 12.5h-18l14 68h16c23.333 0 44 3.83301 62 11.5
s27 18.834 27 33.501c0 20.667 -15.667 31 -47 31c-33.333 0 -64 -9.33301 -92 -28z" />
    <glyph glyph-name="acute" unicode="&#xb4;" 
d="M273 700h142l-130 -152h-106z" />
    <glyph glyph-name="mu" unicode="&#xb5;" horiz-adv-x="559" 
d="M244 489l-51.001 -274.002c-14 -72.667 3.66699 -109 53 -109c16.667 0 32.834 7.66699 48.501 23s28.5 33 38.5 53c6.66699 12.667 11 25.334 13 38.001l52 269h144l-62 -328c-4 -22 -3.66699 -37.167 1 -45.5s14.334 -13.166 29.001 -14.499l-27 -104
c-16 -5.33301 -32 -8 -48 -8c-52.667 0 -82.334 30.333 -89.001 91h-3c-32.667 -58 -74 -87 -124 -87c-33.333 0 -57 10.333 -71 31l-8 -45c-14.667 -84 -21.667 -143 -21 -177h-129c-6 25.333 -0.666992 85.333 16 180l95 507h143z" />
    <glyph glyph-name="paragraph" unicode="&#xb6;" horiz-adv-x="538" 
d="M241 -52h-93l60 311c-2 0.666992 -6.33301 2 -13 4c-36 10.667 -65.667 30.167 -89 58.5s-35 63.5 -35 105.5c0 78.667 29.667 139.5 89 182.5s139.333 64.5 240 64.5c69.333 0 117.333 -3.33301 144 -10l-137 -716h-94l122 637h-72z" />
    <glyph glyph-name="periodcentered" unicode="&#xb7;" horiz-adv-x="260" 
d="M121 166l-0.999023 0.000976562c-24 0 -43.333 7.83301 -58 23.5s-22 35.5 -22 59.5c0 28 9.16699 52 27.5 72s41.5 30 69.5 30c24.667 0 44.667 -8 60 -24s23 -36.667 23 -62c0 -28.667 -9.33301 -52.334 -28 -71.001s-42.334 -28 -71.001 -28z" />
    <glyph glyph-name="periodcentered" unicode="&#x2219;" horiz-adv-x="260" 
d="M121 166l-0.999023 0.000976562c-24 0 -43.333 7.83301 -58 23.5s-22 35.5 -22 59.5c0 28 9.16699 52 27.5 72s41.5 30 69.5 30c24.667 0 44.667 -8 60 -24s23 -36.667 23 -62c0 -28.667 -9.33301 -52.334 -28 -71.001s-42.334 -28 -71.001 -28z" />
    <glyph glyph-name="cedilla" unicode="&#xb8;" 
d="M122 4l79.001 0.000976562l-34 -48c18 -4.66699 32.667 -12.834 44 -24.501s17 -25.167 17 -40.5c0 -32.667 -12.833 -57 -38.5 -73s-54.834 -24 -87.501 -24c-33.333 0 -59.333 7 -78 21l25 57c17.333 -10.667 35 -16 53 -16c24.667 0 37 9 37 27
c0 20.667 -24 32.667 -72 36z" />
    <glyph glyph-name="onesuperior" unicode="&#xb9;" horiz-adv-x="274" 
d="M252 406h-117l57 295h-2l-78 -32l-9 80l122 47h101z" />
    <glyph glyph-name="ordmasculine" unicode="&#xba;" horiz-adv-x="383" 
d="M246 591h1.00098c44.667 0 80.667 -12.667 108 -38s41 -59 41 -101c0 -57.333 -18.333 -103.5 -55 -138.5s-83.667 -52.5 -141 -52.5c-42.667 0 -77.667 13 -105 39s-41 58.667 -41 98c0 56.667 18.167 103 54.5 139s82.166 54 137.499 54zM239.001 517l-1 0.000976562
c-22.667 0 -41 -12.833 -55 -38.5s-21 -53.167 -21 -82.5c0 -18 4.66699 -32.667 14 -44s21.333 -17 36 -17c22 0 40.167 12.667 54.5 38s21.5 53.666 21.5 84.999c0 39.333 -16.333 59 -49 59z" />
    <glyph glyph-name="guillemotright" unicode="&#xbb;" horiz-adv-x="460" 
d="M149 255l-96 188h100l97 -191l-135 -191h-110zM342 255l-96 188h100l97 -191l-135 -191h-110z" />
    <glyph glyph-name="onequarter" unicode="&#xbc;" horiz-adv-x="826" 
d="M691 0h-108l17 90h-194l13 64l212 240h135l-43 -230h52l-14 -74h-52zM615 164l14 74.001c0.666992 3.33301 6.66699 28 18 74h-3c-22.667 -32.667 -39 -54.334 -49 -65.001l-69 -82l2 -1h87zM247 266.001h-116l56 295h-1l-78 -32l-9 80l122 47h101zM211 -10.999h-90
l487 672h89z" />
    <glyph glyph-name="onehalf" unicode="&#xbd;" horiz-adv-x="826" 
d="M241 266h-117l56 295h-1l-78 -32l-9 80l122 47h101zM187 -11h-86l491 672h85zM738 0l-302 0.00292969l11 57l74 58c49.333 36.667 85.166 66.167 107.499 88.5s33.5 43.5 33.5 63.5c0 11.333 -4.16699 20.666 -12.5 27.999s-20.833 11 -37.5 11
c-29.333 0 -58.666 -9.66699 -87.999 -29l-17 73c41.333 30 90 45 146 45c38 0 69.5 -9.16699 94.5 -27.5s37.5 -44.833 37.5 -79.5c0 -18.667 -3.66699 -36.334 -11 -53.001s-19.333 -33.167 -36 -49.5s-31 -29.333 -43 -39s-29.667 -22.834 -53 -39.501l-27 -19v-2h139z
" />
    <glyph glyph-name="threequarters" unicode="&#xbe;" horiz-adv-x="826" 
d="M241 -11h-90l487 672h90zM111 554l-10 71.0029c36.667 24 82.667 36 138 36c36.667 0 68 -8.33301 94 -25s39 -38.334 39 -65.001c0 -24 -8.83301 -44 -26.5 -60s-41.167 -27.667 -70.5 -35l-1 -2c22 -4.66699 40.833 -14.334 56.5 -29.001s23.5 -33.334 23.5 -56.001
c0 -40 -17.833 -71.333 -53.5 -94s-79.834 -34 -132.501 -34c-60 0 -106 11 -138 33l35 75c27.333 -19.333 59 -29 95 -29c21.333 0 38.833 4.66699 52.5 14s20.5 21.333 20.5 36c0 15.333 -7.66699 27.166 -23 35.499s-35.666 12.5 -60.999 12.5h-18l14 68h16
c23.333 0 44 3.83301 62 11.5s27 18.834 27 33.501c0 20.667 -15.667 31 -47 31c-33.333 0 -64 -9.33301 -92 -28zM702 0.00292969h-108l17 90h-194l12 64l213 240h135l-43 -230h52l-15 -74h-52zM625 164.003l14 74.001c2 10 5.5 24.167 10.5 42.5s7.83301 28.833 8.5 31.5
h-3c-22.667 -32.667 -39 -54.334 -49 -65.001l-69 -82l2 -1h86z" />
    <glyph glyph-name="questiondown" unicode="&#xbf;" horiz-adv-x="437" 
d="M172 264h138.998c-1.33301 -12 -2.33301 -20.667 -3 -26c-8 -53.333 -38 -108.333 -90 -165l-23 -23.5l-23 -24c-5.33301 -5.66699 -11.166 -12.5 -17.499 -20.5s-10.833 -15.5 -13.5 -22.5s-4 -13.833 -4 -20.5c0 -31.333 20 -47.333 60 -48c42.667 0 78.667 9 108 27
l19 -100c-46 -28.667 -102 -43 -168 -43c-49.333 0 -89.5 12.667 -120.5 38s-46.5 58.333 -46.5 99c0 34 8.83301 64.5 26.5 91.5s44.834 58.833 81.501 95.5c38 38 61 77.333 69 118zM274.998 493l0.999023 -0.000976562c23.333 0 42.333 -7.66699 57 -23s22 -35 22 -59
c0 -27.333 -9.16699 -50.833 -27.5 -70.5s-41.5 -29.5 -69.5 -29.5c-24 0 -43.667 7.83301 -59 23.5s-23 35.834 -23 60.501c0 28.667 9.33301 52.167 28 70.5s42.334 27.5 71.001 27.5z" />
    <glyph glyph-name="Agrave" unicode="&#xc0;" horiz-adv-x="618" 
d="M399 175h-194l-79 -175h-154l329 674h185l78 -674h-151zM248 285h144.999l-13 145c-1.33301 13.333 -3 35.833 -5 67.5s-3.33301 53.167 -4 64.5h-3l-23 -58.5c-13.333 -33.667 -23.666 -58.167 -30.999 -73.5zM223.999 837h158l77 -125h-120z" />
    <glyph glyph-name="Aacute" unicode="&#xc1;" horiz-adv-x="618" 
d="M399 175h-194l-79 -175h-154l329 674h185l78 -674h-151zM248 285h144.999l-13 145c-1.33301 13.333 -3 35.833 -5 67.5s-3.33301 53.167 -4 64.5h-3l-23 -58.5c-13.333 -33.667 -23.666 -58.167 -30.999 -73.5zM416.999 836h160l-132 -126h-122z" />
    <glyph glyph-name="Acircumflex" unicode="&#xc2;" horiz-adv-x="618" 
d="M399 175h-194l-79 -175h-154l329 674h185l78 -674h-151zM248 285h144.999l-13 145c-1.33301 13.333 -3 35.833 -5 67.5s-3.33301 53.167 -4 64.5h-3l-23 -58.5c-13.333 -33.667 -23.666 -58.167 -30.999 -73.5zM363.999 836h109l80 -126h-101l-41 61h-2l-58 -61h-111z
" />
    <glyph glyph-name="Atilde" unicode="&#xc3;" horiz-adv-x="618" 
d="M399 175h-194l-79 -175h-154l329 674h185l78 -674h-151zM248 285h144.999l-13 145c-1.33301 13.333 -3 35.833 -5 67.5s-3.33301 53.167 -4 64.5h-3l-23 -58.5c-13.333 -33.667 -23.666 -58.167 -30.999 -73.5zM321.999 714h-71.002c6 40.667 18 71.667 36 93
s39 32 63 32c22 0 42.667 -6.66699 62 -20c20 -12.667 33.667 -19 41 -19c8.66699 0 15.334 3.16699 20.001 9.5s9.66699 17.5 15 33.5h69c-13.333 -82 -47 -123 -101 -123c-22 0 -43 6.33301 -63 19c-19.333 12 -32.666 18 -39.999 18c-14.667 0 -25 -14.333 -31 -43z" />
    <glyph glyph-name="Adieresis" unicode="&#xc4;" horiz-adv-x="618" 
d="M399 175h-194l-79 -175h-154l329 674h185l78 -674h-151zM248 285h144.999l-13 145c-1.33301 13.333 -3 35.833 -5 67.5s-3.33301 53.167 -4 64.5h-3l-23 -58.5c-13.333 -33.667 -23.666 -58.167 -30.999 -73.5zM291.999 711h-1.00098c-17.333 0 -32.333 6 -45 18
s-19 27.333 -19 46c0 21.333 7 38.833 21 52.5s31.333 20.5 52 20.5c18.667 0 34 -6.16699 46 -18.5s18 -27.5 18 -45.5c0 -21.333 -7.16699 -38.833 -21.5 -52.5s-31.166 -20.5 -50.499 -20.5zM498.998 711h-1.00098c-17.333 0 -32.333 6 -45 18s-19 27.333 -19 46
c0 21.333 7 38.833 21 52.5s31.333 20.5 52 20.5c18.667 0 34 -6.16699 46 -18.5s18 -27.5 18 -45.5c0 -21.333 -7.16699 -38.833 -21.5 -52.5s-31.166 -20.5 -50.499 -20.5z" />
    <glyph glyph-name="Aring" unicode="&#xc5;" horiz-adv-x="618" 
d="M399 175h-194l-79 -175h-154l329 674h185l78 -674h-151zM248 285h144.999l-13 145c-1.33301 13.333 -3 35.833 -5 67.5s-3.33301 53.167 -4 64.5h-3l-23 -58.5c-13.333 -33.667 -23.666 -58.167 -30.999 -73.5zM414.999 889l1.00098 0.000976562
c31.333 0 57.166 -8 77.499 -24s30.5 -38.333 30.5 -67c-0.666992 -31.333 -12.667 -56 -36 -74s-52.666 -27 -87.999 -27c-29.333 0 -54.333 8 -75 24s-31.334 37 -32.001 63c-0.666992 31.333 10.5 56.666 33.5 75.999s52.5 29 88.5 29zM411 840.001l-1.00098 0.00195312
c-14 0 -25.167 -4.83301 -33.5 -14.5s-12.5 -21.834 -12.5 -36.501c0 -12.667 3.66699 -23 11 -31s17.333 -12 30 -12c14 0 25.5 4.66699 34.5 14s13.5 20.666 13.5 33.999s-3.66699 24.333 -11 33s-17.666 13 -30.999 13z" />
    <glyph glyph-name="AE" unicode="&#xc6;" horiz-adv-x="845" 
d="M106 0h-154l413 674h484l-23 -123h-256l-12 -147h243l-23 -121h-225l-12 -160h254l-23 -123h-378l14 185h-194zM282 305h132.001l14 164c1.33301 25.333 4 58 8 98h-4c-26.667 -51.333 -44.334 -84.333 -53.001 -99z" />
    <glyph glyph-name="Ccedilla" unicode="&#xc7;" horiz-adv-x="584" 
d="M513 137l12 -115.001c-45.333 -21.333 -96.666 -32 -153.999 -32l-24 -34c18 -4 32.5 -12 43.5 -24s16.5 -26.333 16.5 -43c0 -31.333 -12.833 -54.5 -38.5 -69.5s-54.834 -22.5 -87.501 -22.5c-34 0 -60 7 -78 21l24 53c16 -10 34 -15 54 -15c24.667 0 37 9 37 27
c0 20.667 -24 32.667 -72 36l50 73c-78.667 9.33301 -139.5 39.333 -182.5 90s-64.5 115 -64.5 193c0 74 15.167 140 45.5 198s71.833 104.667 124.5 140c70 47.333 152.667 71 248 71c66 0 115 -9.33301 147 -28l-39 -117c-29.333 14.667 -70 22 -122 22
c-60.667 0 -112 -17.333 -154 -52c-29.333 -23.333 -52.333 -54 -69 -92s-25 -79.667 -25 -125c0 -55.333 15.5 -99.166 46.5 -131.499s75.5 -48.5 133.5 -48.5c47.333 0 90 8.33301 128 25z" />
    <glyph glyph-name="Egrave" unicode="&#xc8;" horiz-adv-x="517" 
d="M481 408l-24 -121h-239l-31 -164h269l-23 -123h-414l128 674h399l-24 -123h-254l-28 -143h241zM194 837h158l77 -125h-120z" />
    <glyph glyph-name="Eacute" unicode="&#xc9;" horiz-adv-x="517" 
d="M481 408l-24 -121h-239l-31 -164h269l-23 -123h-414l128 674h399l-24 -123h-254l-28 -143h241zM370 836h160l-132 -126h-122z" />
    <glyph glyph-name="Ecircumflex" unicode="&#xca;" horiz-adv-x="517" 
d="M481 408l-24 -121h-239l-31 -164h269l-23 -123h-414l128 674h399l-24 -123h-254l-28 -143h241zM319 836h109l80 -126h-101l-41 61h-2l-58 -61h-111z" />
    <glyph glyph-name="Edieresis" unicode="&#xcb;" horiz-adv-x="517" 
d="M481 408l-24 -121h-239l-31 -164h269l-23 -123h-414l128 674h399l-24 -123h-254l-28 -143h241zM255 711h-1.00098c-17.333 0 -32.333 6 -45 18s-19 27.333 -19 46c0 21.333 7 38.833 21 52.5s31.333 20.5 52 20.5c18.667 0 34 -6.16699 46 -18.5s18 -27.5 18 -45.5
c0 -21.333 -7.16699 -38.833 -21.5 -52.5s-31.166 -20.5 -50.499 -20.5zM461.999 711h-1.00098c-17.333 0 -32.333 6 -45 18s-19 27.333 -19 46c0 21.333 7 38.833 21 52.5s31.333 20.5 52 20.5c18.667 0 34 -6.16699 46 -18.5s18 -27.5 18 -45.5
c0 -21.333 -7.16699 -38.833 -21.5 -52.5s-31.166 -20.5 -50.499 -20.5z" />
    <glyph glyph-name="Igrave" unicode="&#xcc;" horiz-adv-x="274" 
d="M144 674h144l-128 -674h-144zM60 837h158l77 -125h-120z" />
    <glyph glyph-name="Iacute" unicode="&#xcd;" horiz-adv-x="274" 
d="M144 674h144l-128 -674h-144zM243 836h160l-132 -126h-122z" />
    <glyph glyph-name="Icircumflex" unicode="&#xce;" horiz-adv-x="274" 
d="M144 674h144l-128 -674h-144zM184 836h109l80 -126h-101l-41 61h-2l-58 -61h-111z" />
    <glyph glyph-name="Idieresis" unicode="&#xcf;" horiz-adv-x="274" 
d="M144 674h144l-128 -674h-144zM121 711h-1.00098c-17.333 0 -32.333 6 -45 18s-19 27.333 -19 46c0 21.333 7 38.833 21 52.5s31.333 20.5 52 20.5c18.667 0 34 -6.16699 46 -18.5s18 -27.5 18 -45.5c0 -21.333 -7.16699 -38.833 -21.5 -52.5s-31.166 -20.5 -50.499 -20.5
zM327.999 711h-1.00098c-17.333 0 -32.333 6 -45 18s-19 27.333 -19 46c0 21.333 7 38.833 21 52.5s31.333 20.5 52 20.5c18.667 0 34 -6.16699 46 -18.5s18 -27.5 18 -45.5c0 -21.333 -7.16699 -38.833 -21.5 -52.5s-31.166 -20.5 -50.499 -20.5z" />
    <glyph glyph-name="Eth" unicode="&#xd0;" horiz-adv-x="693" 
d="M10 287l23.999 119h76l48 258c58.667 10 120 15 184 15c110.667 0 193 -22.667 247 -68c60 -49.333 90 -121 90 -215c0 -64.667 -12.5 -124 -37.5 -178s-58.833 -98 -101.5 -132c-75.333 -60 -182.666 -90 -321.999 -90c-74 0 -135.667 4.33301 -185 13l54 278h-77z
M383.999 406l-23 -119h-129l-33 -170c15.333 -2.66699 36.666 -4 63.999 -4c80 0 143 26 189 78c47.333 53.333 71 120 71 200c0 55.333 -14.833 98 -44.5 128s-73.167 45 -130.5 45c-29.333 0 -50.666 -1.66699 -63.999 -5l-30 -153h130z" />
    <glyph glyph-name="Ntilde" unicode="&#xd1;" horiz-adv-x="666" 
d="M153 0h-134l128 674h169l89 -257c24 -76.667 44.333 -153.334 61 -230.001h3c2.66699 62.667 13 143.334 31 242.001l46 245h135l-128 -674h-149l-94 269c-29.333 90 -51.333 168.333 -66 235h-3c-6 -58.667 -20.333 -148 -43 -268zM354 716h-71.002
c6 40.667 18 71.667 36 93s39 32 63 32c22 0 42.667 -6.66699 62 -20c20 -12.667 33.667 -19 41 -19c8.66699 0 15.334 3.16699 20.001 9.5s9.66699 17.5 15 33.5h69c-13.333 -82 -47 -123 -101 -123c-22 0 -43 6.33301 -63 19c-19.333 12 -32.666 18 -39.999 18
c-14.667 0 -25 -14.333 -31 -43z" />
    <glyph glyph-name="Ograve" unicode="&#xd2;" horiz-adv-x="705" 
d="M322 -11l-0.998047 -0.000976562c-84.667 0 -151.334 26.5 -200.001 79.5s-73 120.167 -73 201.5c0 61.333 10.833 120.5 32.5 177.5s52.167 104.167 91.5 141.5c67.333 64 149.333 96 246 96c86.667 0 153.667 -26 201 -78s71 -119.667 71 -203
c0 -62 -10.5 -121.167 -31.5 -177.5s-50.5 -103.166 -88.5 -140.499c-66.667 -64.667 -149.334 -97 -248.001 -97zM341.002 108.999l1 0.000976562c42.667 0 80.334 16.333 113.001 49c25.333 25.333 45.333 61.5 60 108.5s22 91.5 22 133.5c0 48 -10.5 87.5 -31.5 118.5
s-55.833 46.5 -104.5 46.5c-44.667 0 -83.334 -17 -116.001 -51c-26 -25.333 -46.5 -60.833 -61.5 -106.5s-22.5 -89.834 -22.5 -132.501c0 -50 11.667 -90.167 35 -120.5s58.333 -45.5 105 -45.5zM264.002 837h158l77 -125h-120z" />
    <glyph glyph-name="Oacute" unicode="&#xd3;" horiz-adv-x="705" 
d="M322 -11l-0.998047 -0.000976562c-84.667 0 -151.334 26.5 -200.001 79.5s-73 120.167 -73 201.5c0 61.333 10.833 120.5 32.5 177.5s52.167 104.167 91.5 141.5c67.333 64 149.333 96 246 96c86.667 0 153.667 -26 201 -78s71 -119.667 71 -203
c0 -62 -10.5 -121.167 -31.5 -177.5s-50.5 -103.166 -88.5 -140.499c-66.667 -64.667 -149.334 -97 -248.001 -97zM341.002 108.999l1 0.000976562c42.667 0 80.334 16.333 113.001 49c25.333 25.333 45.333 61.5 60 108.5s22 91.5 22 133.5c0 48 -10.5 87.5 -31.5 118.5
s-55.833 46.5 -104.5 46.5c-44.667 0 -83.334 -17 -116.001 -51c-26 -25.333 -46.5 -60.833 -61.5 -106.5s-22.5 -89.834 -22.5 -132.501c0 -50 11.667 -90.167 35 -120.5s58.333 -45.5 105 -45.5zM452.002 839h160l-132 -126h-122z" />
    <glyph glyph-name="Ocircumflex" unicode="&#xd4;" horiz-adv-x="705" 
d="M322 -11l-0.998047 -0.000976562c-84.667 0 -151.334 26.5 -200.001 79.5s-73 120.167 -73 201.5c0 61.333 10.833 120.5 32.5 177.5s52.167 104.167 91.5 141.5c67.333 64 149.333 96 246 96c86.667 0 153.667 -26 201 -78s71 -119.667 71 -203
c0 -62 -10.5 -121.167 -31.5 -177.5s-50.5 -103.166 -88.5 -140.499c-66.667 -64.667 -149.334 -97 -248.001 -97zM341.002 108.999l1 0.000976562c42.667 0 80.334 16.333 113.001 49c25.333 25.333 45.333 61.5 60 108.5s22 91.5 22 133.5c0 48 -10.5 87.5 -31.5 118.5
s-55.833 46.5 -104.5 46.5c-44.667 0 -83.334 -17 -116.001 -51c-26 -25.333 -46.5 -60.833 -61.5 -106.5s-22.5 -89.834 -22.5 -132.501c0 -50 11.667 -90.167 35 -120.5s58.333 -45.5 105 -45.5zM394.002 836h109l80 -126h-101l-41 61h-2l-58 -61h-111z" />
    <glyph glyph-name="Otilde" unicode="&#xd5;" horiz-adv-x="705" 
d="M322 -11l-0.998047 -0.000976562c-84.667 0 -151.334 26.5 -200.001 79.5s-73 120.167 -73 201.5c0 61.333 10.833 120.5 32.5 177.5s52.167 104.167 91.5 141.5c67.333 64 149.333 96 246 96c86.667 0 153.667 -26 201 -78s71 -119.667 71 -203
c0 -62 -10.5 -121.167 -31.5 -177.5s-50.5 -103.166 -88.5 -140.499c-66.667 -64.667 -149.334 -97 -248.001 -97zM341.002 108.999l1 0.000976562c42.667 0 80.334 16.333 113.001 49c25.333 25.333 45.333 61.5 60 108.5s22 91.5 22 133.5c0 48 -10.5 87.5 -31.5 118.5
s-55.833 46.5 -104.5 46.5c-44.667 0 -83.334 -17 -116.001 -51c-26 -25.333 -46.5 -60.833 -61.5 -106.5s-22.5 -89.834 -22.5 -132.501c0 -50 11.667 -90.167 35 -120.5s58.333 -45.5 105 -45.5zM360.002 716h-71.002c6 40.667 18 71.667 36 93s39 32 63 32
c22 0 42.667 -6.66699 62 -20c20 -12.667 33.667 -19 41 -19c8.66699 0 15.334 3.16699 20.001 9.5s9.66699 17.5 15 33.5h69c-13.333 -82 -47 -123 -101 -123c-22 0 -43 6.33301 -63 19c-19.333 12 -32.666 18 -39.999 18c-14.667 0 -25 -14.333 -31 -43z" />
    <glyph glyph-name="Odieresis" unicode="&#xd6;" horiz-adv-x="705" 
d="M322 -11l-0.998047 -0.000976562c-84.667 0 -151.334 26.5 -200.001 79.5s-73 120.167 -73 201.5c0 61.333 10.833 120.5 32.5 177.5s52.167 104.167 91.5 141.5c67.333 64 149.333 96 246 96c86.667 0 153.667 -26 201 -78s71 -119.667 71 -203
c0 -62 -10.5 -121.167 -31.5 -177.5s-50.5 -103.166 -88.5 -140.499c-66.667 -64.667 -149.334 -97 -248.001 -97zM341.002 108.999l1 0.000976562c42.667 0 80.334 16.333 113.001 49c25.333 25.333 45.333 61.5 60 108.5s22 91.5 22 133.5c0 48 -10.5 87.5 -31.5 118.5
s-55.833 46.5 -104.5 46.5c-44.667 0 -83.334 -17 -116.001 -51c-26 -25.333 -46.5 -60.833 -61.5 -106.5s-22.5 -89.834 -22.5 -132.501c0 -50 11.667 -90.167 35 -120.5s58.333 -45.5 105 -45.5zM335.002 711h-1.00098c-17.333 0 -32.333 6 -45 18s-19 27.333 -19 46
c0 21.333 7 38.833 21 52.5s31.333 20.5 52 20.5c18.667 0 34 -6.16699 46 -18.5s18 -27.5 18 -45.5c0 -21.333 -7.16699 -38.833 -21.5 -52.5s-31.166 -20.5 -50.499 -20.5zM542.001 711h-1.00098c-17.333 0 -32.333 6 -45 18s-19 27.333 -19 46c0 21.333 7 38.833 21 52.5
s31.333 20.5 52 20.5c18.667 0 34 -6.16699 46 -18.5s18 -27.5 18 -45.5c0 -21.333 -7.16699 -38.833 -21.5 -52.5s-31.166 -20.5 -50.499 -20.5z" />
    <glyph glyph-name="multiply" unicode="&#xd7;" horiz-adv-x="596" 
d="M35 460l65 66l192 -199l191 199l66 -66l-194 -197l194 -196l-66 -67l-192 199l-191 -199l-64 67l192 196z" />
    <glyph glyph-name="Oslash" unicode="&#xd8;" horiz-adv-x="702" 
d="M100 -66l-67.002 63.999l72 87c-39.333 50 -59 114.333 -59 193c0 60 10.667 116.833 32 170.5s51.333 99.5 90 137.5c67.333 66 148 99 242 99c65.333 0 118.333 -14 159 -42l73 88l73 -57l-77 -94c34 -44.667 51 -105 51 -181
c0.666992 -60 -9.66602 -117.333 -30.999 -172s-50.666 -101 -87.999 -139c-31.333 -31.333 -68.333 -55.666 -111 -72.999s-86.667 -26 -132 -26c-58 0 -107.333 12.667 -148 38zM206.998 206.999l276 333c-19.333 17.333 -46.333 26 -81 26
c-43.333 0 -82.333 -16 -117 -48s-60 -72.333 -76 -121c-21.333 -64 -23 -127.333 -5 -190h3zM531.998 452.999l-268 -322.999c18.667 -14.667 43.667 -22 75 -22c41.333 0 78.333 14.833 111 44.5s57 68.5 73 116.5c20.667 59.333 24.667 120.666 12 183.999h-3z" />
    <glyph glyph-name="Ugrave" unicode="&#xd9;" horiz-adv-x="655" 
d="M144 674h144.001l-73 -388c-5.33301 -24.667 -8 -51 -8 -79c0 -28.667 8.5 -52 25.5 -70s41.167 -27 72.5 -27c38.667 0 70.167 13.833 94.5 41.5s42.5 72.167 54.5 133.5l74 389h144l-73 -383c-20 -104 -54.333 -180.333 -103 -229s-118.334 -73 -209.001 -73
c-70.667 -0.666992 -125.667 17.333 -165 54s-59 90.334 -59 161.001c0 27.333 3.33301 58.666 10 93.999zM253.001 837h158l77 -125h-120z" />
    <glyph glyph-name="Uacute" unicode="&#xda;" horiz-adv-x="655" 
d="M144 674h144.001l-73 -388c-5.33301 -24.667 -8 -51 -8 -79c0 -28.667 8.5 -52 25.5 -70s41.167 -27 72.5 -27c38.667 0 70.167 13.833 94.5 41.5s42.5 72.167 54.5 133.5l74 389h144l-73 -383c-20 -104 -54.333 -180.333 -103 -229s-118.334 -73 -209.001 -73
c-70.667 -0.666992 -125.667 17.333 -165 54s-59 90.334 -59 161.001c0 27.333 3.33301 58.666 10 93.999zM432.001 836h160l-132 -126h-122z" />
    <glyph glyph-name="Ucircumflex" unicode="&#xdb;" horiz-adv-x="655" 
d="M144 674h144.001l-73 -388c-5.33301 -24.667 -8 -51 -8 -79c0 -28.667 8.5 -52 25.5 -70s41.167 -27 72.5 -27c38.667 0 70.167 13.833 94.5 41.5s42.5 72.167 54.5 133.5l74 389h144l-73 -383c-20 -104 -54.333 -180.333 -103 -229s-118.334 -73 -209.001 -73
c-70.667 -0.666992 -125.667 17.333 -165 54s-59 90.334 -59 161.001c0 27.333 3.33301 58.666 10 93.999zM383.001 836h109l80 -126h-101l-41 61h-2l-58 -61h-111z" />
    <glyph glyph-name="Udieresis" unicode="&#xdc;" horiz-adv-x="655" 
d="M144 674h144.001l-73 -388c-5.33301 -24.667 -8 -51 -8 -79c0 -28.667 8.5 -52 25.5 -70s41.167 -27 72.5 -27c38.667 0 70.167 13.833 94.5 41.5s42.5 72.167 54.5 133.5l74 389h144l-73 -383c-20 -104 -54.333 -180.333 -103 -229s-118.334 -73 -209.001 -73
c-70.667 -0.666992 -125.667 17.333 -165 54s-59 90.334 -59 161.001c0 27.333 3.33301 58.666 10 93.999zM316.001 711h-1.00098c-17.333 0 -32.333 6 -45 18s-19 27.333 -19 46c0 21.333 7 38.833 21 52.5s31.333 20.5 52 20.5c18.667 0 34 -6.16699 46 -18.5
s18 -27.5 18 -45.5c0 -21.333 -7.16699 -38.833 -21.5 -52.5s-31.166 -20.5 -50.499 -20.5zM523 711h-1.00098c-17.333 0 -32.333 6 -45 18s-19 27.333 -19 46c0 21.333 7 38.833 21 52.5s31.333 20.5 52 20.5c18.667 0 34 -6.16699 46 -18.5s18 -27.5 18 -45.5
c0 -21.333 -7.16699 -38.833 -21.5 -52.5s-31.166 -20.5 -50.499 -20.5z" />
    <glyph glyph-name="Yacute" unicode="&#xdd;" horiz-adv-x="570" 
d="M295 0h-144.001l52 275l-132 399h154l43 -171c12.667 -53.333 21.334 -94 26.001 -122h2l69 123l101 170h172l-291 -396zM377.999 836h160l-132 -126h-122z" />
    <glyph glyph-name="Thorn" unicode="&#xde;" horiz-adv-x="558" 
d="M19 0l128 673.999h140l-22 -121c20 2.66699 42.333 4 67 4c68 0 121 -15.667 159 -47c39.333 -33.333 59 -76.666 59 -129.999c0 -83.333 -28.5 -146.333 -85.5 -189s-127.5 -64 -211.5 -64c-25.333 0 -48 1.33301 -68 4l-25 -131h-141zM243 437.999l-36 -190
c15.333 -3.33301 34.333 -5 57 -5c40 0 73.5 10.833 100.5 32.5s40.5 49.5 40.5 83.5c0 56 -35.333 84 -106 84c-24 0 -42.667 -1.66699 -56 -5z" />
    <glyph glyph-name="germandbls" unicode="&#xdf;" horiz-adv-x="580" 
d="M157 0l-143.999 -0.00195312l85 449c34 181.333 128.667 272 284 272c54 0 98.667 -14.833 134 -44.5s53 -68.5 53 -116.5c0 -42 -13.667 -75.667 -41 -101c-45.333 -24 -68 -51.333 -68 -82c0 -19.333 9 -43.666 27 -72.999c29.333 -45.333 44 -87.666 44 -126.999
c0 -62.667 -19.833 -109.667 -59.5 -141s-90.834 -47 -153.501 -47c-46.667 0 -83.334 7.66699 -110.001 23l33 105c20.667 -11.333 45 -17 73 -17c21.333 0 38.333 5.16699 51 15.5s19 24.833 19 43.5c0 19.333 -9 43.666 -27 72.999c-30.667 48 -46 87 -46 117
c0 30.667 9.5 58.334 28.5 83.001s42.833 44.334 71.5 59.001c11.333 13.333 17 30.666 17 51.999c0 18 -5.66699 33 -17 45s-27.333 18 -48 18c-28 0 -52.667 -12.333 -74 -37s-36.666 -62.667 -45.999 -114z" />
    <glyph glyph-name="agrave" unicode="&#xe0;" horiz-adv-x="554" 
d="M465 0l-132.001 -0.00292969l3 51.5c1.33301 23 2.33301 38.167 3 45.5h-2c-40 -72 -94.667 -108 -164 -108c-44 0 -79.667 15.667 -107 47s-41 72.333 -41 123c0 42.667 7.16699 83.834 21.5 123.501s35.333 75.834 63 108.501s64.5 59 110.5 79s97.667 30 155 30
c56.667 0 110.334 -8 161.001 -24l-51 -256c-15.333 -81.333 -22 -154.666 -20 -219.999zM351.999 273.997l23 113.001c-14.667 2.66699 -28 4 -40 4c-44 0 -81.667 -22 -113 -66s-47 -90.333 -47 -139c0 -24.667 5 -44.334 15 -59.001s24.667 -22 44 -22
c24 0 47.167 14.167 69.5 42.5s38.5 70.5 48.5 126.5zM200.999 699.998h139l75 -152h-103z" />
    <glyph glyph-name="aacute" unicode="&#xe1;" horiz-adv-x="554" 
d="M465 0l-132.001 -0.00292969l3 51.5c1.33301 23 2.33301 38.167 3 45.5h-2c-40 -72 -94.667 -108 -164 -108c-44 0 -79.667 15.667 -107 47s-41 72.333 -41 123c0 42.667 7.16699 83.834 21.5 123.501s35.333 75.834 63 108.501s64.5 59 110.5 79s97.667 30 155 30
c56.667 0 110.334 -8 161.001 -24l-51 -256c-15.333 -81.333 -22 -154.666 -20 -219.999zM351.999 273.997l23 113.001c-14.667 2.66699 -28 4 -40 4c-44 0 -81.667 -22 -113 -66s-47 -90.333 -47 -139c0 -24.667 5 -44.334 15 -59.001s24.667 -22 44 -22
c24 0 47.167 14.167 69.5 42.5s38.5 70.5 48.5 126.5zM390.999 699.998h142l-130 -152h-106z" />
    <glyph glyph-name="acircumflex" unicode="&#xe2;" horiz-adv-x="554" 
d="M465 0l-132.001 -0.00292969l3 51.5c1.33301 23 2.33301 38.167 3 45.5h-2c-40 -72 -94.667 -108 -164 -108c-44 0 -79.667 15.667 -107 47s-41 72.333 -41 123c0 42.667 7.16699 83.834 21.5 123.501s35.333 75.834 63 108.501s64.5 59 110.5 79s97.667 30 155 30
c56.667 0 110.334 -8 161.001 -24l-51 -256c-15.333 -81.333 -22 -154.666 -20 -219.999zM351.999 273.997l23 113.001c-14.667 2.66699 -28 4 -40 4c-44 0 -81.667 -22 -113 -66s-47 -90.333 -47 -139c0 -24.667 5 -44.334 15 -59.001s24.667 -22 44 -22
c24 0 47.167 14.167 69.5 42.5s38.5 70.5 48.5 126.5zM329.999 699.998h99l75 -152h-93l-40 79h-2l-58 -79h-102z" />
    <glyph glyph-name="atilde" unicode="&#xe3;" horiz-adv-x="554" 
d="M465 0l-132.001 -0.00292969l3 51.5c1.33301 23 2.33301 38.167 3 45.5h-2c-40 -72 -94.667 -108 -164 -108c-44 0 -79.667 15.667 -107 47s-41 72.333 -41 123c0 42.667 7.16699 83.834 21.5 123.501s35.333 75.834 63 108.501s64.5 59 110.5 79s97.667 30 155 30
c56.667 0 110.334 -8 161.001 -24l-51 -256c-15.333 -81.333 -22 -154.666 -20 -219.999zM351.999 273.997l23 113.001c-14.667 2.66699 -28 4 -40 4c-44 0 -81.667 -22 -113 -66s-47 -90.333 -47 -139c0 -24.667 5 -44.334 15 -59.001s24.667 -22 44 -22
c24 0 47.167 14.167 69.5 42.5s38.5 70.5 48.5 126.5zM274.999 557.998h-70.001c5.33301 40 16.333 71 33 93s37.667 33 63 33c18.667 0 39.334 -6.66699 62.001 -20c19.333 -12.667 32.333 -19 39 -19c8 0 14.167 3 18.5 9s8.83301 17.667 13.5 35h69
c-12 -82 -44.667 -123 -98 -123c-24.667 0 -46 6.66699 -64 20c-16 11.333 -28.667 17 -38 17c-12.667 0 -22 -15 -28 -45z" />
    <glyph glyph-name="adieresis" unicode="&#xe4;" horiz-adv-x="554" 
d="M465 0l-132.001 -0.00292969l3 51.5c1.33301 23 2.33301 38.167 3 45.5h-2c-40 -72 -94.667 -108 -164 -108c-44 0 -79.667 15.667 -107 47s-41 72.333 -41 123c0 42.667 7.16699 83.834 21.5 123.501s35.333 75.834 63 108.501s64.5 59 110.5 79s97.667 30 155 30
c56.667 0 110.334 -8 161.001 -24l-51 -256c-15.333 -81.333 -22 -154.666 -20 -219.999zM351.999 273.997l23 113.001c-14.667 2.66699 -28 4 -40 4c-44 0 -81.667 -22 -113 -66s-47 -90.333 -47 -139c0 -24.667 5 -44.334 15 -59.001s24.667 -22 44 -22
c24 0 47.167 14.167 69.5 42.5s38.5 70.5 48.5 126.5zM243.999 553.998h-1c-18 0 -33.5 6 -46.5 18s-19.5 28 -19.5 48c0 22 7.33301 40 22 54s32.667 21 54 21c19.333 0 35 -6.16699 47 -18.5s18 -28.166 18 -47.499c0 -22.667 -7 -40.834 -21 -54.501
s-31.667 -20.5 -53 -20.5zM448.999 553.998h-0.999023c-18.667 0 -34.334 6 -47.001 18s-19 28 -19 48c0 22 7.33301 40 22 54s32.667 21 54 21c19.333 0 35 -6.16699 47 -18.5s18 -28.166 18 -47.499c0 -22.667 -7 -40.834 -21 -54.501s-31.667 -20.5 -53 -20.5z" />
    <glyph glyph-name="aring" unicode="&#xe5;" horiz-adv-x="554" 
d="M465 0l-132.001 -0.00292969l3 51.5c1.33301 23 2.33301 38.167 3 45.5h-2c-40 -72 -94.667 -108 -164 -108c-44 0 -79.667 15.667 -107 47s-41 72.333 -41 123c0 42.667 7.16699 83.834 21.5 123.501s35.333 75.834 63 108.501s64.5 59 110.5 79s97.667 30 155 30
c56.667 0 110.334 -8 161.001 -24l-51 -256c-15.333 -81.333 -22 -154.666 -20 -219.999zM351.999 273.997l23 113.001c-14.667 2.66699 -28 4 -40 4c-44 0 -81.667 -22 -113 -66s-47 -90.333 -47 -139c0 -24.667 5 -44.334 15 -59.001s24.667 -22 44 -22
c24 0 47.167 14.167 69.5 42.5s38.5 70.5 48.5 126.5zM359.999 734.998l1.00098 0.000976562c30.667 0 56.167 -8.16699 76.5 -24.5s30.5 -39.5 30.5 -69.5c-0.666992 -32 -12.834 -57.167 -36.501 -75.5s-52.834 -27.5 -87.501 -27.5
c-29.333 0 -54.166 8.16699 -74.499 24.5s-30.833 38.166 -31.5 65.499c-0.666992 32 10.5 57.833 33.5 77.5s52.5 29.5 88.5 29.5zM355 684.999l-1 -0.000976562c-14 0 -25.333 -5 -34 -15s-13 -22.667 -13 -38c0 -12 3.83301 -22.333 11.5 -31s18.167 -13 31.5 -13
c14.667 0 26.5 4.83301 35.5 14.5s13.5 21.834 13.5 36.501c0 13.333 -3.83301 24.333 -11.5 33s-18.5 13 -32.5 13z" />
    <glyph glyph-name="ae" unicode="&#xe6;" horiz-adv-x="763" 
d="M677 132l3.99707 -102c-48.667 -27.333 -108.334 -41 -179.001 -41c-36.667 0 -69.334 7.66699 -98.001 23s-50 36.666 -64 63.999h-3c-46 -58 -107 -87 -183 -87c-44.667 0 -80.834 12.833 -108.501 38.5s-41.5 57.834 -41.5 96.501c0 46 16.333 84.833 49 116.5
s71.834 53.667 117.501 66s94.834 18.166 147.501 17.499l3 11c2.66699 14.667 -2.66602 28.834 -15.999 42.501s-34.666 20.5 -63.999 20.5c-48 0 -93.333 -14 -136 -42l-23 91c53.333 35.333 112.333 53 177 53c75.333 0 123.666 -26.333 144.999 -79h3
c40 52.667 97.667 79 173 79c53.333 0 94.333 -13.5 123 -40.5s43 -58.5 43 -94.5c0 -34 -8.16699 -62.333 -24.5 -85s-39.666 -39.667 -69.999 -51s-63.666 -18.833 -99.999 -22.5s-77.833 -4.5 -124.5 -2.5c-2.66699 -25.333 0.333008 -45 9 -59
c18.667 -28.667 52.334 -43 101.001 -43c45.333 0 92 10 140 30zM295.997 186l7.99902 44.0029c-15.333 0.666992 -31.333 -0.166016 -48 -2.49902s-33.5 -6.33301 -50.5 -12s-30.833 -14.334 -41.5 -26.001s-16 -25.834 -16 -42.501
c0 -14.667 4.83301 -26.334 14.5 -35.001s22.834 -13 39.501 -13c22 0 41.833 7.66699 59.5 23s29.167 36.666 34.5 63.999zM606.996 351.003v1c0 12 -4.83301 22.167 -14.5 30.5s-23.167 12.5 -40.5 12.5c-29.333 0 -53.833 -9.83301 -73.5 -29.5s-31.5 -40.5 -35.5 -62.5
c109.333 -6.66699 164 9.33301 164 48z" />
    <glyph glyph-name="ccedilla" unicode="&#xe7;" horiz-adv-x="434" 
d="M371 125l1.00195 -108.999c-30 -14.667 -62 -23 -96 -25l-25 -35c18 -4 32.667 -12.167 44 -24.5s17 -26.833 17 -43.5c0 -31.333 -12.667 -54.833 -38 -70.5s-53.333 -23.5 -84 -23.5c-36 0 -63.333 7 -82 21l24 57c19.333 -10.667 37.666 -16 54.999 -16
c24 0 36 9.33301 36 28c0 20.667 -24 32.667 -72 36l49 72c-55.333 6 -98 27 -128 63s-45 81 -45 135c0 87.333 30.167 160.666 90.5 219.999s136.833 89 229.5 89c38 0 71 -5.66699 99 -17l-36 -110c-19.333 8 -41.333 12 -66 12c-49.333 0 -89.333 -17.667 -120 -53
s-46 -77 -46 -125c0 -32 9 -56.833 27 -74.5s41 -26.5 69 -26.5c31.333 0 63.666 6.66699 96.999 20z" />
    <glyph glyph-name="egrave" unicode="&#xe8;" horiz-adv-x="501" 
d="M412 133l10.001 -103.999c-51.333 -26 -112 -39 -182 -39c-68.667 0 -121.167 18.167 -157.5 54.5s-54.5 86.833 -54.5 151.5c0 50.667 11.167 98.834 33.5 144.501s55.666 83.667 99.999 114s94.833 45.5 151.5 45.5c50 0 90.833 -13.333 122.5 -40
s47.5 -62.334 47.5 -107.001c0 -114.667 -105.667 -169.334 -317 -164.001c0 -19.333 5 -36 15 -50c19.333 -24.667 50.666 -37 93.999 -37c48.667 0 94.334 10.333 137.001 31zM348.001 353.001v1c0 12 -4.83301 21.833 -14.5 29.5s-22.5 11.5 -38.5 11.5
c-30.667 0 -56 -10.333 -76 -31s-33 -44 -39 -70c58 -0.666992 100.5 3.5 127.5 12.5s40.5 24.5 40.5 46.5zM167.001 700.001h139l75 -152h-103z" />
    <glyph glyph-name="eacute" unicode="&#xe9;" horiz-adv-x="501" 
d="M412 133l10.001 -103.999c-51.333 -26 -112 -39 -182 -39c-68.667 0 -121.167 18.167 -157.5 54.5s-54.5 86.833 -54.5 151.5c0 50.667 11.167 98.834 33.5 144.501s55.666 83.667 99.999 114s94.833 45.5 151.5 45.5c50 0 90.833 -13.333 122.5 -40
s47.5 -62.334 47.5 -107.001c0 -114.667 -105.667 -169.334 -317 -164.001c0 -19.333 5 -36 15 -50c19.333 -24.667 50.666 -37 93.999 -37c48.667 0 94.334 10.333 137.001 31zM348.001 353.001v1c0 12 -4.83301 21.833 -14.5 29.5s-22.5 11.5 -38.5 11.5
c-30.667 0 -56 -10.333 -76 -31s-33 -44 -39 -70c58 -0.666992 100.5 3.5 127.5 12.5s40.5 24.5 40.5 46.5zM352.001 700.001h142l-130 -152h-106z" />
    <glyph glyph-name="ecircumflex" unicode="&#xea;" horiz-adv-x="501" 
d="M412 133l10.001 -103.999c-51.333 -26 -112 -39 -182 -39c-68.667 0 -121.167 18.167 -157.5 54.5s-54.5 86.833 -54.5 151.5c0 50.667 11.167 98.834 33.5 144.501s55.666 83.667 99.999 114s94.833 45.5 151.5 45.5c50 0 90.833 -13.333 122.5 -40
s47.5 -62.334 47.5 -107.001c0 -114.667 -105.667 -169.334 -317 -164.001c0 -19.333 5 -36 15 -50c19.333 -24.667 50.666 -37 93.999 -37c48.667 0 94.334 10.333 137.001 31zM348.001 353.001v1c0 12 -4.83301 21.833 -14.5 29.5s-22.5 11.5 -38.5 11.5
c-30.667 0 -56 -10.333 -76 -31s-33 -44 -39 -70c58 -0.666992 100.5 3.5 127.5 12.5s40.5 24.5 40.5 46.5zM289.001 700.001h99l75 -152h-93l-40 79h-2l-58 -79h-102z" />
    <glyph glyph-name="edieresis" unicode="&#xeb;" horiz-adv-x="501" 
d="M412 133l10.001 -103.999c-51.333 -26 -112 -39 -182 -39c-68.667 0 -121.167 18.167 -157.5 54.5s-54.5 86.833 -54.5 151.5c0 50.667 11.167 98.834 33.5 144.501s55.666 83.667 99.999 114s94.833 45.5 151.5 45.5c50 0 90.833 -13.333 122.5 -40
s47.5 -62.334 47.5 -107.001c0 -114.667 -105.667 -169.334 -317 -164.001c0 -19.333 5 -36 15 -50c19.333 -24.667 50.666 -37 93.999 -37c48.667 0 94.334 10.333 137.001 31zM348.001 353.001v1c0 12 -4.83301 21.833 -14.5 29.5s-22.5 11.5 -38.5 11.5
c-30.667 0 -56 -10.333 -76 -31s-33 -44 -39 -70c58 -0.666992 100.5 3.5 127.5 12.5s40.5 24.5 40.5 46.5zM224.001 554.001h-1c-18 0 -33.5 6 -46.5 18s-19.5 28 -19.5 48c0 22 7.33301 40 22 54s32.667 21 54 21c19.333 0 35 -6.16699 47 -18.5s18 -28.166 18 -47.499
c0 -22.667 -7 -40.834 -21 -54.501s-31.667 -20.5 -53 -20.5zM429.001 554.001h-0.999023c-18.667 0 -34.334 6 -47.001 18s-19 28 -19 48c0 22 7.33301 40 22 54s32.667 21 54 21c19.333 0 35 -6.16699 47 -18.5s18 -28.166 18 -47.499c0 -22.667 -7 -40.834 -21 -54.501
s-31.667 -20.5 -53 -20.5z" />
    <glyph glyph-name="igrave" unicode="&#xec;" horiz-adv-x="265" 
d="M157 0h-144l93 489h144zM33 700h139l75 -152h-103z" />
    <glyph glyph-name="iacute" unicode="&#xed;" horiz-adv-x="265" 
d="M157 0h-144l93 489h144zM221 700h142l-130 -152h-106z" />
    <glyph glyph-name="icircumflex" unicode="&#xee;" horiz-adv-x="265" 
d="M157 0h-144l93 489h144zM162 700h99l75 -152h-93l-40 79h-2l-58 -79h-102z" />
    <glyph glyph-name="idieresis" unicode="&#xef;" horiz-adv-x="265" 
d="M157 0h-144l93 489h144zM96 554h-1c-18 0 -33.5 6 -46.5 18s-19.5 28 -19.5 48c0 22 7.33301 40 22 54s32.667 21 54 21c19.333 0 35 -6.16699 47 -18.5s18 -28.166 18 -47.499c0 -22.667 -7 -40.834 -21 -54.501s-31.667 -20.5 -53 -20.5zM301 554h-0.999023
c-18.667 0 -34.334 6 -47.001 18s-19 28 -19 48c0 22 7.33301 40 22 54s32.667 21 54 21c19.333 0 35 -6.16699 47 -18.5s18 -28.166 18 -47.499c0 -22.667 -7 -40.834 -21 -54.501s-31.667 -20.5 -53 -20.5z" />
    <glyph glyph-name="eth" unicode="&#xf0;" horiz-adv-x="558" 
d="M251 99l1 -0.000976562c36 0 64.833 17 86.5 51s33.167 74 34.5 120c2 28.667 -0.333008 50.334 -7 65.001c-12.667 22.667 -35 34 -67 34c-35.333 0 -64.833 -18.667 -88.5 -56s-35.5 -77.666 -35.5 -120.999c0 -26.667 6.66699 -48.834 20 -66.501s32 -26.5 56 -26.5z
M150 477.999l-20.0029 59.001l122 51c-20.667 16 -48.667 32.667 -84 50l66 79c50 -18 97.667 -44.333 143 -79l141 58l21 -59l-111 -45c30.667 -30.667 54.834 -68.834 72.501 -114.501s26.5 -95.167 26.5 -148.5c0 -99.333 -26.667 -180.833 -80 -244.5
s-122.666 -95.5 -207.999 -95.5c-66 0 -118 19.167 -156 57.5s-57 87.833 -57 148.5c0 75.333 25 139.833 75 193.5s111.333 81.834 184 84.501c32.667 1.33301 59.334 -6.33398 80.001 -23.001l1 2c-13.333 38 -33.333 68.333 -60 91z" />
    <glyph glyph-name="ntilde" unicode="&#xf1;" horiz-adv-x="563" 
d="M157 0h-144l62 330c10 50.667 18.667 103.667 26 159h127l-9 -81h2c44.667 61.333 101.667 92 171 92c40 0 71 -11.667 93 -35s33 -56.333 33 -99c0 -22.667 -2.66699 -50 -8 -82l-54 -284h-144l51 271c3.33301 18.667 5 36.667 5 54c0 39.333 -16.333 59 -49 59
c-24.667 0 -48.667 -14.833 -72 -44.5s-40 -70.5 -50 -122.5zM268 558h-70.001c5.33301 40 16.333 71 33 93s37.667 33 63 33c18.667 0 39.334 -6.66699 62.001 -20c18.667 -12.667 31.667 -19 39 -19c8 0 14.167 3 18.5 9s8.83301 17.667 13.5 35h69
c-12 -82 -44.667 -123 -98 -123c-24.667 0 -46 6.66699 -64 20c-16 11.333 -28.667 17 -38 17c-12.667 0 -22 -15 -28 -45z" />
    <glyph glyph-name="ograve" unicode="&#xf2;" horiz-adv-x="559" 
d="M238 -11l-0.999023 -0.000976562c-62 0 -112 18.5 -150 55.5s-57 85.833 -57 146.5c0 86 27.333 159 82 219s124.667 90 210 90c63.333 0 113.666 -19.167 150.999 -57.5s56 -86.5 56 -144.5c0 -89.333 -27.5 -163.166 -82.5 -221.499s-124.5 -87.5 -208.5 -87.5z
M257.001 98.999l1 -0.000976562c36 0 65.333 21.333 88 64s34 87.334 34 134.001c0 26 -6.16699 48 -18.5 66s-31.833 27 -58.5 27c-26 0 -48.833 -11.333 -68.5 -34s-33.834 -48.5 -42.501 -77.5s-13 -57.167 -13 -84.5c0 -28.667 6.83301 -51.667 20.5 -69
s32.834 -26 57.501 -26zM176.001 699.998h139l75 -152h-103z" />
    <glyph glyph-name="oacute" unicode="&#xf3;" horiz-adv-x="559" 
d="M238 -11l-0.999023 -0.000976562c-62 0 -112 18.5 -150 55.5s-57 85.833 -57 146.5c0 86 27.333 159 82 219s124.667 90 210 90c63.333 0 113.666 -19.167 150.999 -57.5s56 -86.5 56 -144.5c0 -89.333 -27.5 -163.166 -82.5 -221.499s-124.5 -87.5 -208.5 -87.5z
M257.001 98.999l1 -0.000976562c36 0 65.333 21.333 88 64s34 87.334 34 134.001c0 26 -6.16699 48 -18.5 66s-31.833 27 -58.5 27c-26 0 -48.833 -11.333 -68.5 -34s-33.834 -48.5 -42.501 -77.5s-13 -57.167 -13 -84.5c0 -28.667 6.83301 -51.667 20.5 -69
s32.834 -26 57.501 -26zM359.001 699.998h142l-130 -152h-106z" />
    <glyph glyph-name="ocircumflex" unicode="&#xf4;" horiz-adv-x="559" 
d="M238 -11l-0.999023 -0.000976562c-62 0 -112 18.5 -150 55.5s-57 85.833 -57 146.5c0 86 27.333 159 82 219s124.667 90 210 90c63.333 0 113.666 -19.167 150.999 -57.5s56 -86.5 56 -144.5c0 -89.333 -27.5 -163.166 -82.5 -221.499s-124.5 -87.5 -208.5 -87.5z
M257.001 98.999l1 -0.000976562c36 0 65.333 21.333 88 64s34 87.334 34 134.001c0 26 -6.16699 48 -18.5 66s-31.833 27 -58.5 27c-26 0 -48.833 -11.333 -68.5 -34s-33.834 -48.5 -42.501 -77.5s-13 -57.167 -13 -84.5c0 -28.667 6.83301 -51.667 20.5 -69
s32.834 -26 57.501 -26zM305.001 699.998h99l75 -152h-93l-40 79h-2l-58 -79h-102z" />
    <glyph glyph-name="otilde" unicode="&#xf5;" horiz-adv-x="559" 
d="M238 -11l-0.999023 -0.000976562c-62 0 -112 18.5 -150 55.5s-57 85.833 -57 146.5c0 86 27.333 159 82 219s124.667 90 210 90c63.333 0 113.666 -19.167 150.999 -57.5s56 -86.5 56 -144.5c0 -89.333 -27.5 -163.166 -82.5 -221.499s-124.5 -87.5 -208.5 -87.5z
M257.001 98.999l1 -0.000976562c36 0 65.333 21.333 88 64s34 87.334 34 134.001c0 26 -6.16699 48 -18.5 66s-31.833 27 -58.5 27c-26 0 -48.833 -11.333 -68.5 -34s-33.834 -48.5 -42.501 -77.5s-13 -57.167 -13 -84.5c0 -28.667 6.83301 -51.667 20.5 -69
s32.834 -26 57.501 -26zM256.001 557.998h-70.001c5.33301 40 16.333 71 33 93s37.667 33 63 33c18.667 0 39.334 -6.66699 62.001 -20c18.667 -12.667 31.667 -19 39 -19c8 0 14.167 3 18.5 9s8.83301 17.667 13.5 35h69c-12 -82 -44.667 -123 -98 -123
c-24.667 0 -46 6.66699 -64 20c-16 11.333 -28.667 17 -38 17c-12.667 0 -22 -15 -28 -45z" />
    <glyph glyph-name="odieresis" unicode="&#xf6;" horiz-adv-x="559" 
d="M238 -11l-0.999023 -0.000976562c-62 0 -112 18.5 -150 55.5s-57 85.833 -57 146.5c0 86 27.333 159 82 219s124.667 90 210 90c63.333 0 113.666 -19.167 150.999 -57.5s56 -86.5 56 -144.5c0 -89.333 -27.5 -163.166 -82.5 -221.499s-124.5 -87.5 -208.5 -87.5z
M257.001 98.999l1 -0.000976562c36 0 65.333 21.333 88 64s34 87.334 34 134.001c0 26 -6.16699 48 -18.5 66s-31.833 27 -58.5 27c-26 0 -48.833 -11.333 -68.5 -34s-33.834 -48.5 -42.501 -77.5s-13 -57.167 -13 -84.5c0 -28.667 6.83301 -51.667 20.5 -69
s32.834 -26 57.501 -26zM236.001 553.998h-1c-18 0 -33.5 6 -46.5 18s-19.5 28 -19.5 48c0 22 7.33301 40 22 54s32.667 21 54 21c19.333 0 35 -6.16699 47 -18.5s18 -28.166 18 -47.499c0 -22.667 -7 -40.834 -21 -54.501s-31.667 -20.5 -53 -20.5zM441.001 553.998
h-0.999023c-18.667 0 -34.334 6 -47.001 18s-19 28 -19 48c0 22 7.33301 40 22 54s32.667 21 54 21c19.333 0 35 -6.16699 47 -18.5s18 -28.166 18 -47.499c0 -22.667 -7 -40.834 -21 -54.501s-31.667 -20.5 -53 -20.5z" />
    <glyph glyph-name="divide" unicode="&#xf7;" horiz-adv-x="596" 
d="M299 368h-1.00098c-21.333 0 -38.666 6.83301 -51.999 20.5s-20 31.5 -20 53.5c0 22.667 6.66699 40.667 20 54s31 20 53 20s39.5 -6.66699 52.5 -20s19.833 -31.333 20.5 -54c0 -22 -6.66699 -39.833 -20 -53.5s-31 -20.5 -53 -20.5zM553.999 220h-511v93h511v-93z
M298.999 17h-1.00098c-21.333 0 -38.666 6.83301 -51.999 20.5s-20 31.5 -20 53.5s6.66699 39.833 20 53.5s31 20.5 53 20.5s39.5 -6.66699 52.5 -20s19.833 -31.333 20.5 -54c0 -22 -6.66699 -39.833 -20 -53.5s-31 -20.5 -53 -20.5z" />
    <glyph glyph-name="oslash" unicode="&#xf8;" horiz-adv-x="560" 
d="M57 -56l-40 40.999l61 71c-32.667 34.667 -49 81 -49 139c0 84.667 27.333 156.667 82 216s124.334 89 209.001 89c43.333 0 80.666 -9.33301 111.999 -28l62 70l44 -38l-59 -69c33.333 -37.333 50 -83 50 -137c0 -91.333 -27.5 -165.666 -82.5 -222.999
s-121.833 -86 -200.5 -86c-50 0 -91 10.333 -123 31zM183 172.999l168.001 204c-12 12 -28.667 18 -50 18c-25.333 0 -48 -10.667 -68 -32s-34.333 -45 -43 -71s-13.334 -50.667 -14.001 -74c-1.33301 -17.333 0 -32 4 -44zM375.001 314.999l-170.001 -201
c12.667 -13.333 30.334 -20 53.001 -20c35.333 0 64.5 18.833 87.5 56.5s35.167 77.167 36.5 118.5c0 16.667 -1.33301 32 -4 46h-3z" />
    <glyph glyph-name="ugrave" unicode="&#xf9;" horiz-adv-x="560" 
d="M400 489l144.001 0.00195312l-62 -330c-6.66699 -32.667 -15.667 -85.667 -27 -159h-127l9 79l-2 1c-47.333 -60.667 -103.333 -91 -168 -91c-40 0 -71 11.5 -93 34.5s-33 57.167 -33 102.5c0 27.333 3.33301 57.333 10 90l52 273h144l-50 -262
c-4.66699 -26.667 -7 -48.334 -7 -65.001c0 -37.333 16.333 -56 49 -56c25.333 0 49.166 14.167 71.499 42.5s37.833 66.166 46.5 113.499zM179.001 700.002h139l75 -152h-103z" />
    <glyph glyph-name="uacute" unicode="&#xfa;" horiz-adv-x="560" 
d="M400 489l144.001 0.00195312l-62 -330c-6.66699 -32.667 -15.667 -85.667 -27 -159h-127l9 79l-2 1c-47.333 -60.667 -103.333 -91 -168 -91c-40 0 -71 11.5 -93 34.5s-33 57.167 -33 102.5c0 27.333 3.33301 57.333 10 90l52 273h144l-50 -262
c-4.66699 -26.667 -7 -48.334 -7 -65.001c0 -37.333 16.333 -56 49 -56c25.333 0 49.166 14.167 71.499 42.5s37.833 66.166 46.5 113.499zM361.001 700.002h142l-130 -152h-106z" />
    <glyph glyph-name="ucircumflex" unicode="&#xfb;" horiz-adv-x="560" 
d="M400 489l144.001 0.00195312l-62 -330c-6.66699 -32.667 -15.667 -85.667 -27 -159h-127l9 79l-2 1c-47.333 -60.667 -103.333 -91 -168 -91c-40 0 -71 11.5 -93 34.5s-33 57.167 -33 102.5c0 27.333 3.33301 57.333 10 90l52 273h144l-50 -262
c-4.66699 -26.667 -7 -48.334 -7 -65.001c0 -37.333 16.333 -56 49 -56c25.333 0 49.166 14.167 71.499 42.5s37.833 66.166 46.5 113.499zM311.001 700.002h99l75 -152h-93l-40 79h-2l-58 -79h-102z" />
    <glyph glyph-name="udieresis" unicode="&#xfc;" horiz-adv-x="560" 
d="M400 489l144.001 0.00195312l-62 -330c-6.66699 -32.667 -15.667 -85.667 -27 -159h-127l9 79l-2 1c-47.333 -60.667 -103.333 -91 -168 -91c-40 0 -71 11.5 -93 34.5s-33 57.167 -33 102.5c0 27.333 3.33301 57.333 10 90l52 273h144l-50 -262
c-4.66699 -26.667 -7 -48.334 -7 -65.001c0 -37.333 16.333 -56 49 -56c25.333 0 49.166 14.167 71.499 42.5s37.833 66.166 46.5 113.499zM237.001 554.002h-1c-18 0 -33.5 6 -46.5 18s-19.5 28 -19.5 48c0 22 7.33301 40 22 54s32.667 21 54 21
c19.333 0 35 -6.16699 47 -18.5s18 -28.166 18 -47.499c0 -22.667 -7 -40.834 -21 -54.501s-31.667 -20.5 -53 -20.5zM442.001 554.002h-0.999023c-18.667 0 -34.334 6 -47.001 18s-19 28 -19 48c0 22 7.33301 40 22 54s32.667 21 54 21c19.333 0 35 -6.16699 47 -18.5
s18 -28.166 18 -47.499c0 -22.667 -7 -40.834 -21 -54.501s-31.667 -20.5 -53 -20.5z" />
    <glyph glyph-name="yacute" unicode="&#xfd;" horiz-adv-x="497" 
d="M44 489l150.999 -0.000976562l30 -213l16 -117h2l43 114l89 216h152l-175 -352c-64.667 -128.667 -127.334 -221.667 -188.001 -279c-25.333 -24 -52.833 -43.167 -82.5 -57.5s-54.5 -23.166 -74.5 -26.499l-32 124c32.667 10 60.334 22.667 83.001 38
c34.667 24 61.334 52.333 80.001 85c3.33301 6.66699 4 14.667 2 24zM328.999 699.999h142l-130 -152h-106z" />
    <glyph glyph-name="thorn" unicode="&#xfe;" horiz-adv-x="564" 
d="M-27 -198l165.002 874h144l-47 -247h2c14 20.667 33.167 37.667 57.5 51s51.5 20 81.5 20c50 0 88.833 -17.333 116.5 -52s41.5 -79 41.5 -133c-0.666992 -91.333 -27.834 -168.5 -81.501 -231.5s-120.834 -94.5 -201.501 -94.5c-38 0 -68.667 6.66699 -92 20h-3
l-39 -207h-144zM196.002 220l-19.001 -100c19.333 -14.667 41.666 -22 66.999 -22c38 0 70.5 21.167 97.5 63.5s40.5 89.166 40.5 140.499c0 22.667 -5.16699 41.834 -15.5 57.501s-26.166 23.5 -47.499 23.5c-27.333 0 -52.166 -14.333 -74.499 -43
s-38.5 -68.667 -48.5 -120z" />
    <glyph glyph-name="ydieresis" unicode="&#xff;" horiz-adv-x="497" 
d="M44 489l150.999 -0.000976562l30 -213l16 -117h2l43 114l89 216h152l-175 -352c-64.667 -128.667 -127.334 -221.667 -188.001 -279c-25.333 -24 -52.833 -43.167 -82.5 -57.5s-54.5 -23.166 -74.5 -26.499l-32 124c32.667 10 60.334 22.667 83.001 38
c34.667 24 61.334 52.333 80.001 85c3.33301 6.66699 4 14.667 2 24zM197.999 553.999h-1c-18 0 -33.5 6 -46.5 18s-19.5 28 -19.5 48c0 22 7.33301 40 22 54s32.667 21 54 21c19.333 0 35 -6.16699 47 -18.5s18 -28.166 18 -47.499c0 -22.667 -7 -40.834 -21 -54.501
s-31.667 -20.5 -53 -20.5zM402.999 553.999h-0.999023c-18.667 0 -34.334 6 -47.001 18s-19 28 -19 48c0 22 7.33301 40 22 54s32.667 21 54 21c19.333 0 35 -6.16699 47 -18.5s18 -28.166 18 -47.499c0 -22.667 -7 -40.834 -21 -54.501s-31.667 -20.5 -53 -20.5z" />
    <glyph glyph-name="Amacron" unicode="&#x100;" horiz-adv-x="618" 
d="M399 175h-194l-79 -175h-154l329 674h185l78 -674h-151zM248 285h144.999l-13 145c-1.33301 13.333 -3 35.833 -5 67.5s-3.33301 53.167 -4 64.5h-3l-23 -58.5c-13.333 -33.667 -23.666 -58.167 -30.999 -73.5zM289.999 813h253l-16 -79h-253z" />
    <glyph glyph-name="amacron" unicode="&#x101;" horiz-adv-x="554" 
d="M465 0l-132.001 -0.00292969l3 51.5c1.33301 23 2.33301 38.167 3 45.5h-2c-40 -72 -94.667 -108 -164 -108c-44 0 -79.667 15.667 -107 47s-41 72.333 -41 123c0 42.667 7.16699 83.834 21.5 123.501s35.333 75.834 63 108.501s64.5 59 110.5 79s97.667 30 155 30
c56.667 0 110.334 -8 161.001 -24l-51 -256c-15.333 -81.333 -22 -154.666 -20 -219.999zM351.999 273.997l23 113.001c-14.667 2.66699 -28 4 -40 4c-44 0 -81.667 -22 -113 -66s-47 -90.333 -47 -139c0 -24.667 5 -44.334 15 -59.001s24.667 -22 44 -22
c24 0 47.167 14.167 69.5 42.5s38.5 70.5 48.5 126.5zM242.999 661.998h246l-16 -78h-246z" />
    <glyph glyph-name="Abreve" unicode="&#x102;" horiz-adv-x="618" 
d="M399 175h-194l-79 -175h-154l329 674h185l78 -674h-151zM248 285h144.999l-13 145c-1.33301 13.333 -3 35.833 -5 67.5s-3.33301 53.167 -4 64.5h-3l-23 -58.5c-13.333 -33.667 -23.666 -58.167 -30.999 -73.5zM274.999 836h80c-0.666992 -14 3.5 -25.667 12.5 -35
s22.5 -14 40.5 -14c36.667 0 58.667 16.333 66 49h81c-6 -36.667 -21.667 -66.167 -47 -88.5s-61.333 -33.5 -108 -33.5s-80.167 11.333 -100.5 34s-28.5 52 -24.5 88z" />
    <glyph glyph-name="abreve" unicode="&#x103;" horiz-adv-x="554" 
d="M465 0l-132.001 -0.00292969l3 51.5c1.33301 23 2.33301 38.167 3 45.5h-2c-40 -72 -94.667 -108 -164 -108c-44 0 -79.667 15.667 -107 47s-41 72.333 -41 123c0 42.667 7.16699 83.834 21.5 123.501s35.333 75.834 63 108.501s64.5 59 110.5 79s97.667 30 155 30
c56.667 0 110.334 -8 161.001 -24l-51 -256c-15.333 -81.333 -22 -154.666 -20 -219.999zM351.999 273.997l23 113.001c-14.667 2.66699 -28 4 -40 4c-44 0 -81.667 -22 -113 -66s-47 -90.333 -47 -139c0 -24.667 5 -44.334 15 -59.001s24.667 -22 44 -22
c24 0 47.167 14.167 69.5 42.5s38.5 70.5 48.5 126.5zM231.999 689.998h73c1.33301 -37.333 17 -56 47 -56c34 0 55.667 18.667 65 56h75c-6.66699 -40 -22.5 -71.667 -47.5 -95s-58.167 -35 -99.5 -35c-44 0 -75 11.833 -93 35.5s-24.667 55.167 -20 94.5z" />
    <glyph glyph-name="Aogonek" unicode="&#x104;" horiz-adv-x="618" 
d="M485 674l78 -674h-71c-24 -32.667 -36 -61 -36 -85c0 -12 3.66699 -21.667 11 -29s17.666 -11 30.999 -11c14.667 0 30.334 3 47.001 9l9 -70c-26.667 -22 -61.667 -33 -105 -33c-31.333 0 -55.5 7.66699 -72.5 23s-25.5 37.333 -25.5 66c0 38 20.333 82 61 132l-13 173
h-195l-79 -175h-154l329 674h185zM247 285h145.999l-14 145c-1.33301 22.667 -4.33301 66.667 -9 132h-2l-23 -58.5c-13.333 -33.667 -23.666 -58.167 -30.999 -73.5z" />
    <glyph glyph-name="aogonek" unicode="&#x105;" horiz-adv-x="554" 
d="M537 476l-49.001 -256.003c-15.333 -81.333 -22 -154.666 -20 -219.999h-40c-32 -32 -48 -62.333 -48 -91c0 -10 3.33301 -18.167 10 -24.5s16 -9.5 28 -9.5c18.667 0 35.334 3 50.001 9l9 -70c-26 -22 -60.667 -33 -104 -33c-31.333 0 -55.5 7.66699 -72.5 23
s-25.5 37.333 -25.5 66c0 38 20.333 82 61 132l3 50c1.33301 22.667 2.33301 37.667 3 45h-2c-40.667 -72 -96 -108 -166 -108c-44 0 -79.667 15.667 -107 47s-41 72.333 -41 123c0 42.667 7.16699 83.834 21.5 123.501s35.333 75.834 63 108.501s64.5 59 110.5 79
s97.667 30 155 30c58 0 111.667 -8 161 -24zM354.999 273.997l20.001 113.001c-14.667 2.66699 -27.334 4 -38.001 4c-44 0 -81.833 -22 -113.5 -66s-47.5 -90.333 -47.5 -139c0 -24.667 5 -44.334 15 -59.001s24.667 -22 44 -22c24 0 47.5 14.167 70.5 42.5
s39.5 70.5 49.5 126.5z" />
    <glyph glyph-name="Cacute" unicode="&#x106;" horiz-adv-x="583" 
d="M512 135l12.001 -116c-43.333 -19.333 -102.333 -29 -177 -29c-90 0 -162.167 25.667 -216.5 77s-81.5 121 -81.5 209c0 74 15.167 139.833 45.5 197.5s71.833 104.167 124.5 139.5c69.333 47.333 151.666 71 246.999 71c64.667 0 114 -9.33301 148 -28l-40 -117
c-28 14.667 -68.667 22 -122 22c-60.667 0 -112 -17.333 -154 -52c-28.667 -23.333 -51.334 -53.833 -68.001 -91.5s-25 -79.5 -25 -125.5c0 -54.667 15.333 -98.167 46 -130.5s75 -48.5 133 -48.5c50.667 0 93.334 7.33301 128.001 22zM444.001 840h160l-132 -126h-122z
" />
    <glyph glyph-name="cacute" unicode="&#x107;" horiz-adv-x="435" 
d="M373 125l1.00098 -108.999c-36 -17.333 -82.333 -26 -139 -26c-61.333 0 -111 17.833 -149 53.5s-57 84.5 -57 146.5c0 87.333 30.167 160.666 90.5 219.999s136.5 89 228.5 89c38.667 0 72 -5.66699 100 -17l-36 -110c-19.333 8 -41.333 12 -66 12
c-49.333 0 -89.333 -17.667 -120 -53s-46 -77 -46 -125c0 -32.667 9 -57.667 27 -75s41 -26 69 -26c31.333 0 63.666 6.66699 96.999 20zM335.001 700.001h142l-130 -152h-106z" />
    <glyph glyph-name="Ccircumflex" unicode="&#x108;" horiz-adv-x="583" 
d="M512 135l12.001 -116c-43.333 -19.333 -102.333 -29 -177 -29c-90 0 -162.167 25.667 -216.5 77s-81.5 121 -81.5 209c0 74 15.167 139.833 45.5 197.5s71.833 104.167 124.5 139.5c69.333 47.333 151.666 71 246.999 71c64.667 0 114 -9.33301 148 -28l-40 -117
c-28 14.667 -68.667 22 -122 22c-60.667 0 -112 -17.333 -154 -52c-28.667 -23.333 -51.334 -53.833 -68.001 -91.5s-25 -79.5 -25 -125.5c0 -54.667 15.333 -98.167 46 -130.5s75 -48.5 133 -48.5c50.667 0 93.334 7.33301 128.001 22zM389.001 839h109l80 -126h-101
l-41 61h-2l-58 -61h-111z" />
    <glyph glyph-name="ccircumflex" unicode="&#x109;" horiz-adv-x="435" 
d="M373 125l1.00098 -108.999c-36 -17.333 -82.333 -26 -139 -26c-61.333 0 -111 17.833 -149 53.5s-57 84.5 -57 146.5c0 87.333 30.167 160.666 90.5 219.999s136.5 89 228.5 89c38.667 0 72 -5.66699 100 -17l-36 -110c-19.333 8 -41.333 12 -66 12
c-49.333 0 -89.333 -17.667 -120 -53s-46 -77 -46 -125c0 -32.667 9 -57.667 27 -75s41 -26 69 -26c31.333 0 63.666 6.66699 96.999 20zM269.001 700.001h99l75 -152h-93l-40 79h-2l-58 -79h-102z" />
    <glyph glyph-name="Cdotaccent" unicode="&#x10a;" horiz-adv-x="583" 
d="M512 135l12.001 -116c-43.333 -19.333 -102.333 -29 -177 -29c-90 0 -162.167 25.667 -216.5 77s-81.5 121 -81.5 209c0 74 15.167 139.833 45.5 197.5s71.833 104.167 124.5 139.5c69.333 47.333 151.666 71 246.999 71c64.667 0 114 -9.33301 148 -28l-40 -117
c-28 14.667 -68.667 22 -122 22c-60.667 0 -112 -17.333 -154 -52c-28.667 -23.333 -51.334 -53.833 -68.001 -91.5s-25 -79.5 -25 -125.5c0 -54.667 15.333 -98.167 46 -130.5s75 -48.5 133 -48.5c50.667 0 93.334 7.33301 128.001 22zM439.001 716h-1.00098
c-18 0 -33.5 6 -46.5 18s-19.5 27.333 -19.5 46c0 21.333 7.33301 39 22 53s32.334 21 53.001 21c19.333 0 35 -6.16699 47 -18.5s18 -27.833 18 -46.5c0 -21.333 -7.16699 -38.833 -21.5 -52.5s-31.5 -20.5 -51.5 -20.5z" />
    <glyph glyph-name="cdotaccent" unicode="&#x10b;" horiz-adv-x="435" 
d="M373 125l1.00098 -108.999c-36 -17.333 -82.333 -26 -139 -26c-61.333 0 -111 17.833 -149 53.5s-57 84.5 -57 146.5c0 87.333 30.167 160.666 90.5 219.999s136.5 89 228.5 89c38.667 0 72 -5.66699 100 -17l-36 -110c-19.333 8 -41.333 12 -66 12
c-49.333 0 -89.333 -17.667 -120 -53s-46 -77 -46 -125c0 -32.667 9 -57.667 27 -75s41 -26 69 -26c31.333 0 63.666 6.66699 96.999 20zM318.001 553.001l-1.00098 0.000976562c-18.667 0 -34.5 6.16699 -47.5 18.5s-19.5 28.166 -19.5 47.499
c0 22.667 7.33301 41.167 22 55.5s32.667 21.5 54 21.5c20 0 36.167 -6.16699 48.5 -18.5s18.5 -28.5 18.5 -48.5c0 -22.667 -7.16699 -41 -21.5 -55s-32.166 -21 -53.499 -21z" />
    <glyph glyph-name="Ccaron" unicode="&#x10c;" horiz-adv-x="583" 
d="M512 135l12.001 -116c-43.333 -19.333 -102.333 -29 -177 -29c-90 0 -162.167 25.667 -216.5 77s-81.5 121 -81.5 209c0 74 15.167 139.833 45.5 197.5s71.833 104.167 124.5 139.5c69.333 47.333 151.666 71 246.999 71c64.667 0 114 -9.33301 148 -28l-40 -117
c-28 14.667 -68.667 22 -122 22c-60.667 0 -112 -17.333 -154 -52c-28.667 -23.333 -51.334 -53.833 -68.001 -91.5s-25 -79.5 -25 -125.5c0 -54.667 15.333 -98.167 46 -130.5s75 -48.5 133 -48.5c50.667 0 93.334 7.33301 128.001 22zM475.001 714h-109l-80 126h102
l39 -64h2l59 64h111z" />
    <glyph glyph-name="ccaron" unicode="&#x10d;" horiz-adv-x="435" 
d="M373 125l1.00098 -108.999c-36 -17.333 -82.333 -26 -139 -26c-61.333 0 -111 17.833 -149 53.5s-57 84.5 -57 146.5c0 87.333 30.167 160.666 90.5 219.999s136.5 89 228.5 89c38.667 0 72 -5.66699 100 -17l-36 -110c-19.333 8 -41.333 12 -66 12
c-49.333 0 -89.333 -17.667 -120 -53s-46 -77 -46 -125c0 -32.667 9 -57.667 27 -75s41 -26 69 -26c31.333 0 63.666 6.66699 96.999 20zM353.001 548.001h-99l-75 152h93l40 -79h2l60 79h101z" />
    <glyph glyph-name="Dcaron" unicode="&#x10e;" horiz-adv-x="681" 
d="M20 9l125 654.999c58 10 120.333 15 187 15c106.667 0 188.334 -24.333 245.001 -73c59.333 -47.333 89 -117.666 89 -210.999c0 -64 -12.333 -123.167 -37 -177.5s-58.334 -98.5 -101.001 -132.5c-74 -60 -181.667 -90 -323 -90c-78 0 -139.667 4.66699 -185 14z
M271 558.999l-85 -444c17.333 -2 38.333 -3 63 -3c81.333 0 145 26 191 78c46.667 54 70 122 70 204c0 54 -15 95.833 -45 125.5s-74.333 44.5 -133 44.5c-24 0 -44.333 -1.66699 -61 -5zM432 709.999h-109l-80 126h102l39 -64h2l59 64h111z" />
    <glyph glyph-name="dcaron" unicode="&#x10f;" horiz-adv-x="568" 
d="M444 710h143l-99 -520c-13.333 -70 -21 -133.333 -23 -190h-132l7 79h-2c-40 -60 -93.667 -90 -161 -90c-43.333 0 -79.333 16.333 -108 49s-43 77.667 -43 135c0 88 28.833 164.5 86.5 229.5s131.5 97.5 221.5 97.5c24 0 46.333 -4 67 -12zM355 242l24.9971 131
c-12.667 11.333 -31.667 17 -57 17c-41.333 0 -76.166 -19.833 -104.499 -59.5s-42.5 -84.167 -42.5 -133.5c0 -29.333 6 -52 18 -68s28.333 -24 49 -24c22.667 0 44.834 11.833 66.501 35.5s36.834 57.5 45.501 101.5zM635.997 502l-53 54c35.333 27.333 53 63 53 107
c0 16 -3.33301 30 -10 42l97 17c14.667 -14.667 22 -35.667 22 -63c0 -32 -10.833 -62.333 -32.5 -91s-47.167 -50.667 -76.5 -66z" />
    <glyph glyph-name="Dcroat" unicode="&#x110;" horiz-adv-x="693" 
d="M10 287l23.999 119h76l48 258c58.667 10 120 15 184 15c110.667 0 193 -22.667 247 -68c60 -49.333 90 -121 90 -215c0 -64.667 -12.5 -124 -37.5 -178s-58.833 -98 -101.5 -132c-75.333 -60 -182.666 -90 -321.999 -90c-74 0 -135.667 4.33301 -185 13l54 278h-77z
M383.999 406l-23 -119h-129l-33 -170c15.333 -2.66699 36.666 -4 63.999 -4c80 0 143 26 189 78c47.333 53.333 71 120 71 200c0 55.333 -14.833 98 -44.5 128s-73.167 45 -130.5 45c-29.333 0 -50.666 -1.66699 -63.999 -5l-30 -153h130z" />
    <glyph glyph-name="dcroat" unicode="&#x111;" horiz-adv-x="560" 
d="M354 242l25.999 131c-13.333 11.333 -32.333 17 -57 17c-41.333 0 -76.166 -19.833 -104.499 -59.5s-42.5 -84.167 -42.5 -133.5c0 -29.333 5.83301 -52 17.5 -68s28.167 -24 49.5 -24c22.667 0 44.5 11.833 65.5 35.5s36.167 57.5 45.5 101.5zM240.999 624
l186.001 -0.000976562l16 86h143l-16 -86h77l-15 -79h-77l-68 -355c-12.667 -71.333 -20.334 -134.666 -23.001 -189.999h-131l7 79h-2c-40 -60 -93.667 -90 -161 -90c-43.333 0 -79.333 16.333 -108 49s-43 77.667 -43 135c0 88 28.833 164.5 86.5 229.5
s131.5 97.5 221.5 97.5c24 0 46 -4 66 -12l11 57h-186z" />
    <glyph glyph-name="Emacron" unicode="&#x112;" horiz-adv-x="517" 
d="M481 408l-24 -121h-239l-31 -164h269l-23 -123h-414l128 674h399l-24 -123h-254l-28 -143h241zM242 813h253l-16 -79h-253z" />
    <glyph glyph-name="emacron" unicode="&#x113;" horiz-adv-x="501" 
d="M412 133l10.001 -103.999c-51.333 -26 -112 -39 -182 -39c-68.667 0 -121.167 18.167 -157.5 54.5s-54.5 86.833 -54.5 151.5c0 50.667 11.167 98.834 33.5 144.501s55.666 83.667 99.999 114s94.833 45.5 151.5 45.5c50 0 90.833 -13.333 122.5 -40
s47.5 -62.334 47.5 -107.001c0 -114.667 -105.667 -169.334 -317 -164.001c0 -19.333 5 -36 15 -50c19.333 -24.667 50.666 -37 93.999 -37c48.667 0 94.334 10.333 137.001 31zM348.001 353.001v1c0 12 -4.83301 21.833 -14.5 29.5s-22.5 11.5 -38.5 11.5
c-30.667 0 -56 -10.333 -76 -31s-33 -44 -39 -70c58 -0.666992 100.5 3.5 127.5 12.5s40.5 24.5 40.5 46.5zM207.001 662.001h246l-16 -78h-246z" />
    <glyph glyph-name="Ebreve" unicode="&#x114;" horiz-adv-x="517" 
d="M481 408l-24 -121h-239l-31 -164h269l-23 -123h-414l128 674h399l-24 -123h-254l-28 -143h241zM226 839h80c-0.666992 -14 3.5 -25.667 12.5 -35s22.5 -14 40.5 -14c36.667 0 58.667 16.333 66 49h81c-6 -36.667 -21.667 -66.167 -47 -88.5s-61.333 -33.5 -108 -33.5
s-80.167 11.333 -100.5 34s-28.5 52 -24.5 88z" />
    <glyph glyph-name="ebreve" unicode="&#x115;" horiz-adv-x="501" 
d="M412 133l10.001 -103.999c-51.333 -26 -112 -39 -182 -39c-68.667 0 -121.167 18.167 -157.5 54.5s-54.5 86.833 -54.5 151.5c0 50.667 11.167 98.834 33.5 144.501s55.666 83.667 99.999 114s94.833 45.5 151.5 45.5c50 0 90.833 -13.333 122.5 -40
s47.5 -62.334 47.5 -107.001c0 -114.667 -105.667 -169.334 -317 -164.001c0 -19.333 5 -36 15 -50c19.333 -24.667 50.666 -37 93.999 -37c48.667 0 94.334 10.333 137.001 31zM348.001 353.001v1c0 12 -4.83301 21.833 -14.5 29.5s-22.5 11.5 -38.5 11.5
c-30.667 0 -56 -10.333 -76 -31s-33 -44 -39 -70c58 -0.666992 100.5 3.5 127.5 12.5s40.5 24.5 40.5 46.5zM204.001 690.001h73c1.33301 -37.333 17 -56 47 -56c34 0 55.667 18.667 65 56h75c-6.66699 -40 -22.5 -71.667 -47.5 -95s-58.167 -35 -99.5 -35
c-44 0 -75 11.833 -93 35.5s-24.667 55.167 -20 94.5z" />
    <glyph glyph-name="Edotaccent" unicode="&#x116;" horiz-adv-x="517" 
d="M481 408l-24 -121h-239l-31 -164h269l-23 -123h-414l128 674h399l-24 -123h-254l-28 -143h241zM357 712h-1.00098c-18 0 -33.5 6 -46.5 18s-19.5 27.333 -19.5 46c0 21.333 7.33301 39 22 53s32.334 21 53.001 21c19.333 0 35 -6.16699 47 -18.5s18 -27.833 18 -46.5
c0 -21.333 -7.16699 -38.833 -21.5 -52.5s-31.5 -20.5 -51.5 -20.5z" />
    <glyph glyph-name="edotaccent" unicode="&#x117;" horiz-adv-x="501" 
d="M412 133l10.001 -103.999c-51.333 -26 -112 -39 -182 -39c-68.667 0 -121.167 18.167 -157.5 54.5s-54.5 86.833 -54.5 151.5c0 50.667 11.167 98.834 33.5 144.501s55.666 83.667 99.999 114s94.833 45.5 151.5 45.5c50 0 90.833 -13.333 122.5 -40
s47.5 -62.334 47.5 -107.001c0 -114.667 -105.667 -169.334 -317 -164.001c0 -19.333 5 -36 15 -50c19.333 -24.667 50.666 -37 93.999 -37c48.667 0 94.334 10.333 137.001 31zM348.001 353.001v1c0 12 -4.83301 21.833 -14.5 29.5s-22.5 11.5 -38.5 11.5
c-30.667 0 -56 -10.333 -76 -31s-33 -44 -39 -70c58 -0.666992 100.5 3.5 127.5 12.5s40.5 24.5 40.5 46.5zM320.001 553.001l-1.00098 0.000976562c-18.667 0 -34.5 6.16699 -47.5 18.5s-19.5 28.166 -19.5 47.499c0 22.667 7.33301 41.167 22 55.5s32.667 21.5 54 21.5
c20 0 36.167 -6.16699 48.5 -18.5s18.5 -28.5 18.5 -48.5c0 -22.667 -7.16699 -41 -21.5 -55s-32.166 -21 -53.499 -21z" />
    <glyph glyph-name="Eogonek" unicode="&#x118;" horiz-adv-x="517" 
d="M19 0l127.998 674h399l-24 -123h-254l-28 -143h241l-24 -121h-239l-31 -164h269l-24 -123h-19c-50 -34.667 -75 -67 -75 -97c0 -19.333 9.33301 -29 28 -29c14 0 29.333 3.33301 46 10l18 -71c-29.333 -21.333 -65 -32 -107 -32c-29.333 0 -52.166 7.5 -68.499 22.5
s-24.5 34.833 -24.5 59.5s8.33301 49.167 25 73.5s37.334 45.5 62.001 63.5h-298z" />
    <glyph glyph-name="eogonek" unicode="&#x119;" horiz-adv-x="501" 
d="M348 353v1c0 12 -4.83301 21.833 -14.5 29.5s-22.5 11.5 -38.5 11.5c-30.667 0 -56.167 -10.333 -76.5 -31s-33.166 -44 -38.499 -70c57.333 -0.666992 99.666 3.5 126.999 12.5s41 24.5 41 46.5zM348 -114l17.001 -71.001c-32 -21.333 -68.667 -32 -110 -32
c-28 0 -49.833 7.33301 -65.5 22s-23.5 34.667 -23.5 60c0 46.667 25.667 88.334 77 125.001v1h-23c-62.667 3.33301 -110.334 23 -143.001 59s-49 84.667 -49 146c0 50.667 11.167 98.834 33.5 144.501s55.666 83.667 99.999 114s94.833 45.5 151.5 45.5
c50 0 90.833 -13.333 122.5 -40s47.5 -62.334 47.5 -107.001c0 -114.667 -105.667 -169.334 -317 -164.001c0 -19.333 5 -36 15 -50c19.333 -24.667 50.666 -37 93.999 -37c48.667 0 94.334 10.333 137.001 31l10 -104c-1.33301 -0.666992 -20.666 -9 -57.999 -25
c-60 -35.333 -90 -68.666 -90 -99.999c0 -8.66699 2.66699 -15.5 8 -20.5s12 -7.5 20 -7.5c14 0 29.333 3.33301 46 10z" />
    <glyph glyph-name="Ecaron" unicode="&#x11a;" horiz-adv-x="517" 
d="M481 408l-24 -121h-239l-31 -164h269l-23 -123h-414l128 674h399l-24 -123h-254l-28 -143h241zM406 710h-109l-80 126h102l39 -64h2l59 64h111z" />
    <glyph glyph-name="ecaron" unicode="&#x11b;" horiz-adv-x="501" 
d="M412 133l10.001 -103.999c-51.333 -26 -112 -39 -182 -39c-68.667 0 -121.167 18.167 -157.5 54.5s-54.5 86.833 -54.5 151.5c0 50.667 11.167 98.834 33.5 144.501s55.666 83.667 99.999 114s94.833 45.5 151.5 45.5c50 0 90.833 -13.333 122.5 -40
s47.5 -62.334 47.5 -107.001c0 -114.667 -105.667 -169.334 -317 -164.001c0 -19.333 5 -36 15 -50c19.333 -24.667 50.666 -37 93.999 -37c48.667 0 94.334 10.333 137.001 31zM348.001 353.001v1c0 12 -4.83301 21.833 -14.5 29.5s-22.5 11.5 -38.5 11.5
c-30.667 0 -56 -10.333 -76 -31s-33 -44 -39 -70c58 -0.666992 100.5 3.5 127.5 12.5s40.5 24.5 40.5 46.5zM362.001 548.001h-99l-75 152h93l40 -79h2l60 79h101z" />
    <glyph glyph-name="Gcircumflex" unicode="&#x11c;" horiz-adv-x="673" 
d="M643 384l-68 -353.001c-76 -25.333 -148.667 -38 -218 -38c-95.333 0 -170 24.667 -224 74c-56.667 49.333 -85 118.666 -85 207.999c0 62 12 119.667 36 173s57.667 98.333 101 135c78.667 65.333 178 98 298 98c78.667 0 138 -10 178 -30l-43 -122
c-40 18.667 -87.667 28 -143 28c-68 0 -125 -18 -171 -54c-30 -23.333 -53.833 -54.166 -71.5 -92.499s-26.5 -80.166 -26.5 -125.499c0 -55.333 15.333 -97.5 46 -126.5s73 -43.5 127 -43.5c30 0 54.667 4 74 12l27 142h-105l23 115h245zM422 835.999h109l80 -126h-101
l-41 61h-2l-58 -61h-111z" />
    <glyph glyph-name="gcircumflex" unicode="&#x11d;" horiz-adv-x="558" 
d="M11 -178l33.999 110c30.667 -18 73.334 -27 128.001 -27c78.667 0 127.334 43.333 146.001 130l8 42h-2c-36.667 -48.667 -83.334 -73 -140.001 -73c-47.333 0 -85.166 16.833 -113.499 50.5s-42.833 75.167 -43.5 124.5c0 40.667 7.16699 80 21.5 118
s35 72.167 62 102.5s61.667 54.666 104 72.999s89.166 27.5 140.499 27.5c64.667 0 125 -11.333 181 -34l-74 -403c-20 -105.333 -54.333 -177.666 -103 -216.999c-46 -36.667 -109 -55 -189 -55c-70 0 -123.333 10.333 -160 31zM355.999 250l25 131
c-13.333 6 -30.666 9 -51.999 9c-42 0 -77.333 -19.5 -106 -58.5s-43 -82.5 -43 -130.5c0 -26 5.66699 -46.833 17 -62.5s27.666 -23.5 48.999 -23.5c24 0 46.333 12.5 67 37.5s35 57.5 43 97.5zM310.999 700h99l75 -152h-93l-40 79h-2l-58 -79h-102z" />
    <glyph glyph-name="Gbreve" unicode="&#x11e;" horiz-adv-x="673" 
d="M643 384l-68 -353.001c-76 -25.333 -148.667 -38 -218 -38c-95.333 0 -170 24.667 -224 74c-56.667 49.333 -85 118.666 -85 207.999c0 62 12 119.667 36 173s57.667 98.333 101 135c78.667 65.333 178 98 298 98c78.667 0 138 -10 178 -30l-43 -122
c-40 18.667 -87.667 28 -143 28c-68 0 -125 -18 -171 -54c-30 -23.333 -53.833 -54.166 -71.5 -92.499s-26.5 -80.166 -26.5 -125.499c0 -55.333 15.333 -97.5 46 -126.5s73 -43.5 127 -43.5c30 0 54.667 4 74 12l27 142h-105l23 115h245zM320 840.999h80
c-0.666992 -14 3.5 -25.667 12.5 -35s22.5 -14 40.5 -14c36.667 0 58.667 16.333 66 49h81c-6 -36.667 -21.667 -66.167 -47 -88.5s-61.333 -33.5 -108 -33.5s-80.167 11.333 -100.5 34s-28.5 52 -24.5 88z" />
    <glyph glyph-name="gbreve" unicode="&#x11f;" horiz-adv-x="558" 
d="M11 -178l33.999 110c30.667 -18 73.334 -27 128.001 -27c78.667 0 127.334 43.333 146.001 130l8 42h-2c-36.667 -48.667 -83.334 -73 -140.001 -73c-47.333 0 -85.166 16.833 -113.499 50.5s-42.833 75.167 -43.5 124.5c0 40.667 7.16699 80 21.5 118
s35 72.167 62 102.5s61.667 54.666 104 72.999s89.166 27.5 140.499 27.5c64.667 0 125 -11.333 181 -34l-74 -403c-20 -105.333 -54.333 -177.666 -103 -216.999c-46 -36.667 -109 -55 -189 -55c-70 0 -123.333 10.333 -160 31zM355.999 250l25 131
c-13.333 6 -30.666 9 -51.999 9c-42 0 -77.333 -19.5 -106 -58.5s-43 -82.5 -43 -130.5c0 -26 5.66699 -46.833 17 -62.5s27.666 -23.5 48.999 -23.5c24 0 46.333 12.5 67 37.5s35 57.5 43 97.5zM232.999 690h73c1.33301 -37.333 17 -56 47 -56c34 0 55.667 18.667 65 56h75
c-6.66699 -40 -22.5 -71.667 -47.5 -95s-58.167 -35 -99.5 -35c-44 0 -75 11.833 -93 35.5s-24.667 55.167 -20 94.5z" />
    <glyph glyph-name="Gdotaccent" unicode="&#x120;" horiz-adv-x="673" 
d="M643 384l-68 -353.001c-76 -25.333 -148.667 -38 -218 -38c-95.333 0 -170 24.667 -224 74c-56.667 49.333 -85 118.666 -85 207.999c0 62 12 119.667 36 173s57.667 98.333 101 135c78.667 65.333 178 98 298 98c78.667 0 138 -10 178 -30l-43 -122
c-40 18.667 -87.667 28 -143 28c-68 0 -125 -18 -171 -54c-30 -23.333 -53.833 -54.166 -71.5 -92.499s-26.5 -80.166 -26.5 -125.499c0 -55.333 15.333 -97.5 46 -126.5s73 -43.5 127 -43.5c30 0 54.667 4 74 12l27 142h-105l23 115h245zM464 711.999h-1.00098
c-18 0 -33.5 6 -46.5 18s-19.5 27.333 -19.5 46c0 21.333 7.33301 39 22 53s32.334 21 53.001 21c19.333 0 35 -6.16699 47 -18.5s18 -27.833 18 -46.5c0 -21.333 -7.16699 -38.833 -21.5 -52.5s-31.5 -20.5 -51.5 -20.5z" />
    <glyph glyph-name="gdotaccent" unicode="&#x121;" horiz-adv-x="558" 
d="M11 -178l33.999 110c30.667 -18 73.334 -27 128.001 -27c78.667 0 127.334 43.333 146.001 130l8 42h-2c-36.667 -48.667 -83.334 -73 -140.001 -73c-47.333 0 -85.166 16.833 -113.499 50.5s-42.833 75.167 -43.5 124.5c0 40.667 7.16699 80 21.5 118
s35 72.167 62 102.5s61.667 54.666 104 72.999s89.166 27.5 140.499 27.5c64.667 0 125 -11.333 181 -34l-74 -403c-20 -105.333 -54.333 -177.666 -103 -216.999c-46 -36.667 -109 -55 -189 -55c-70 0 -123.333 10.333 -160 31zM355.999 250l25 131
c-13.333 6 -30.666 9 -51.999 9c-42 0 -77.333 -19.5 -106 -58.5s-43 -82.5 -43 -130.5c0 -26 5.66699 -46.833 17 -62.5s27.666 -23.5 48.999 -23.5c24 0 46.333 12.5 67 37.5s35 57.5 43 97.5zM353.999 553l-1.00098 0.000976562c-18.667 0 -34.5 6.16699 -47.5 18.5
s-19.5 28.166 -19.5 47.499c0 22.667 7.33301 41.167 22 55.5s32.667 21.5 54 21.5c20 0 36.167 -6.16699 48.5 -18.5s18.5 -28.5 18.5 -48.5c0 -22.667 -7.16699 -41 -21.5 -55s-32.166 -21 -53.499 -21z" />
    <glyph glyph-name="Gcommaaccent" unicode="&#x122;" horiz-adv-x="673" 
d="M643 384l-68 -353.001c-76 -25.333 -148.667 -38 -218 -38c-95.333 0 -170 24.667 -224 74c-56.667 49.333 -85 118.666 -85 207.999c0 62 12 119.667 36 173s57.667 98.333 101 135c78.667 65.333 178 98 298 98c78.667 0 138 -10 178 -30l-43 -122
c-40 18.667 -87.667 28 -143 28c-68 0 -125 -18 -171 -54c-30 -23.333 -53.833 -54.166 -71.5 -92.499s-26.5 -80.166 -26.5 -125.499c0 -55.333 15.333 -97.5 46 -126.5s73 -43.5 127 -43.5c30 0 54.667 4 74 12l27 142h-105l23 115h245zM230 -240.001l-15 65.999
c20.667 3.33301 38.667 10.833 54 22.5s23 26.834 23 45.501c0 18 -6.66699 33.667 -20 47l107 18c17.333 -14.667 26 -35.667 26 -63c0 -42.667 -17.667 -75.5 -53 -98.5s-76 -35.5 -122 -37.5z" />
    <glyph glyph-name="gcommaaccent" unicode="&#x123;" horiz-adv-x="558" 
d="M11 -178l34.001 110.001c30.667 -18 73.334 -27 128.001 -27c79.333 0 128 43.333 146 130l9 42h-3c-36.667 -48.667 -83.334 -73 -140.001 -73c-47.333 0 -85.166 16.833 -113.499 50.5s-42.833 75.167 -43.5 124.5c0 40.667 7.16699 80 21.5 118s35 72.167 62 102.5
s61.667 54.666 104 72.999s89.166 27.5 140.499 27.5c65.333 0 125.666 -11.333 180.999 -34l-74 -403c-18.667 -104.667 -53 -177 -103 -217c-46 -36.667 -109 -55 -189 -55c-70 0 -123.333 10.333 -160 31zM356.001 250.001l25 131c-13.333 6 -30.666 9 -51.999 9
c-42 0 -77.333 -19.5 -106 -58.5s-43 -82.5 -43 -130.5c0 -26 5.66699 -46.833 17 -62.5s27.666 -23.5 48.999 -23.5c24 0 46.333 12.5 67 37.5s35 57.5 43 97.5zM460.001 730.001l14 -65.999c-21.333 -2.66699 -39.833 -9.83398 -55.5 -21.501s-23.5 -27.167 -23.5 -46.5
c0 -18 6.66699 -33.667 20 -47l-101 -18c-17.333 16 -26 37 -26 63c0 42.667 17.5 75.5 52.5 98.5s74.833 35.5 119.5 37.5z" />
    <glyph glyph-name="Hcircumflex" unicode="&#x124;" horiz-adv-x="666" 
d="M147 674h144l-50 -262h244l50 262h145l-128 -674h-144l53 284h-245l-53 -284h-144zM389 836h109l80 -126h-101l-41 61h-2l-58 -61h-111z" />
    <glyph glyph-name="hcircumflex" unicode="&#x125;" horiz-adv-x="563" 
d="M157 0l-143.999 -0.000976562l135 710h144l-55 -284h2c44.667 49.333 96.667 74 156 74c38 0 68 -11.5 90 -34.5s33 -55.5 33 -97.5c0 -25.333 -3 -54.666 -9 -87.999l-53 -280h-144l51 268c4 19.333 6 39.333 6 60c0 37.333 -16.333 56 -49 56
c-26 0 -50.333 -14.667 -73 -44s-38.334 -68 -47.001 -116zM196.001 865.999h109l80 -126h-101l-41 61h-2l-58 -61h-111z" />
    <glyph glyph-name="Hbar" unicode="&#x126;" horiz-adv-x="666" 
d="M497 472h-244l-16 -85h244zM47 561h79l22 113h144l-22 -113h244l22 113h144l-21 -113h72l-18 -89h-71l-89 -472h-145l49 259h-244l-49 -259h-144l89 472h-80z" />
    <glyph glyph-name="hbar" unicode="&#x127;" horiz-adv-x="563" 
d="M42 622l89.001 -0.000976562l17 88h144l-17 -88h165l-15 -79h-165l-23 -117h2c44.667 49.333 96.667 74 156 74c38 0 68 -11.5 90 -34.5s33 -55.5 33 -97.5c0 -25.333 -3 -54.666 -9 -87.999l-53 -280h-144l51 268c4 19.333 6 39.333 6 60c0 37.333 -16.333 56 -49 56
c-26 0 -50.333 -14.667 -73 -44s-38.334 -68 -47.001 -116l-43 -224h-144l103 543h-89z" />
    <glyph glyph-name="Itilde" unicode="&#x128;" horiz-adv-x="274" 
d="M144 674h144l-128 -674h-144zM152 714h-71.002c6 40.667 18 71.667 36 93s39 32 63 32c22 0 42.667 -6.66699 62 -20c20 -12.667 33.667 -19 41 -19c8.66699 0 15.334 3.16699 20.001 9.5s9.66699 17.5 15 33.5h69c-13.333 -82 -47 -123 -101 -123
c-22 0 -43 6.33301 -63 19c-19.333 12 -32.666 18 -39.999 18c-14.667 0 -25 -14.333 -31 -43z" />
    <glyph glyph-name="itilde" unicode="&#x129;" horiz-adv-x="265" 
d="M157 0h-144l93 489h144zM129 558h-70.001c5.33301 40 16.333 71 33 93s37.667 33 63 33c18.667 0 39.334 -6.66699 62.001 -20c18.667 -12.667 31.667 -19 39 -19c8 0 14.167 3 18.5 9s8.83301 17.667 13.5 35h69c-12 -82 -44.667 -123 -98 -123
c-24.667 0 -46 6.66699 -64 20c-16 11.333 -28.667 17 -38 17c-12.667 0 -22 -15 -28 -45z" />
    <glyph glyph-name="Imacron" unicode="&#x12a;" horiz-adv-x="274" 
d="M144 674h144l-128 -674h-144zM118 813h253l-16 -79h-253z" />
    <glyph glyph-name="imacron" unicode="&#x12b;" horiz-adv-x="265" 
d="M157 0h-144l93 489h144zM89 662h246l-16 -78h-246z" />
    <glyph glyph-name="Ibreve" unicode="&#x12c;" horiz-adv-x="274" 
d="M144 674h144l-128 -674h-144zM105 843h80c-0.666992 -14 3.5 -25.667 12.5 -35s22.5 -14 40.5 -14c36.667 0 58.667 16.333 66 49h81c-6 -36.667 -21.667 -66.167 -47 -88.5s-61.333 -33.5 -108 -33.5s-80.167 11.333 -100.5 34s-28.5 52 -24.5 88z" />
    <glyph glyph-name="ibreve" unicode="&#x12d;" horiz-adv-x="265" 
d="M157 0h-144l93 489h144zM86 690h73c1.33301 -37.333 17 -56 47 -56c34 0 55.667 18.667 65 56h75c-6.66699 -40 -22.5 -71.667 -47.5 -95s-58.167 -35 -99.5 -35c-44 0 -75 11.833 -93 35.5s-24.667 55.167 -20 94.5z" />
    <glyph glyph-name="Iogonek" unicode="&#x12e;" horiz-adv-x="274" 
d="M288 674l-128 -674.001h-63c-24 -31.333 -36 -59.666 -36 -84.999c0 -12 3.66699 -21.667 11 -29s17.666 -11 30.999 -11c14.667 0 30.334 3 47.001 9l9 -70c-26.667 -22 -61.667 -33 -105 -33c-31.333 0 -55.5 7.66699 -72.5 23s-25.5 37.333 -25.5 66
c0 38 20.333 82 61 132l127 672h144z" />
    <glyph glyph-name="iogonek" unicode="&#x12f;" horiz-adv-x="265" 
d="M196 553l-1 0.00292969c-21.333 0 -38.833 7 -52.5 21s-20.5 32 -20.5 54c0 25.333 8.66699 46.166 26 62.499s38 24.5 62 24.5c22.667 0 41.167 -6.83301 55.5 -20.5s21.5 -31.834 21.5 -54.501c0 -26.667 -8.83301 -47.834 -26.5 -63.501s-39.167 -23.5 -64.5 -23.5z
M250 489.003l-92.998 -489.001h-63c-24 -31.333 -36 -59.666 -36 -84.999c0 -12 3.66699 -21.667 11 -29s17.666 -11 30.999 -11c14 0 29.333 3 46 9l9 -70c-26.667 -22 -61.334 -33 -104.001 -33c-31.333 0 -55.5 7.66699 -72.5 23s-25.5 37.333 -25.5 66
c0 38 20.333 82 61 132l92 487h144z" />
    <glyph glyph-name="Idotaccent" unicode="&#x130;" horiz-adv-x="274" 
d="M144 674h144l-128 -674h-144zM236 712h-1.00098c-18 0 -33.5 6 -46.5 18s-19.5 27.333 -19.5 46c0 21.333 7.33301 39 22 53s32.334 21 53.001 21c19.333 0 35 -6.16699 47 -18.5s18 -27.833 18 -46.5c0 -21.333 -7.16699 -38.833 -21.5 -52.5s-31.5 -20.5 -51.5 -20.5z
" />
    <glyph glyph-name="dotlessi" unicode="&#x131;" horiz-adv-x="265" 
d="M157 0h-144l93 489h144z" />
    <glyph glyph-name="IJ" unicode="&#x132;" horiz-adv-x="673" 
d="M144 674h144l-128 -674h-144zM468 247l81.002 427h144l-85 -445c-16.667 -86 -45 -147.5 -85 -184.5s-98 -55.5 -174 -55.5c-48 0 -85 5.33301 -111 16l28 123c24 -8 50.667 -12 80 -12c33.333 0 59.666 9.83301 78.999 29.5s33.666 53.5 42.999 101.5z" />
    <glyph glyph-name="ij" unicode="&#x133;" horiz-adv-x="540" 
d="M156 0h-144l93 489h144zM196 550l-0.999023 0.000976562c-20 0 -36.5 6.5 -49.5 19.5s-19.5 29.833 -19.5 50.5c0 24 8.16699 43.667 24.5 59s35.833 23 58.5 23c21.333 0 38.666 -6.5 51.999 -19.5s20 -30.167 20 -51.5c0 -24.667 -8.16699 -44.334 -24.5 -59.001
s-36.5 -22 -60.5 -22zM386.001 489.001h143.001l-89 -473c-14.667 -80.667 -37.334 -138.334 -68.001 -173.001s-75.334 -52 -134.001 -52c-26 0 -48.667 2.66699 -68 8l16 108c13.333 -1.33301 24 -2 32 -2c18.667 0 34.334 7.33301 47.001 22s22.667 42.334 30 83.001z
M471.002 550.001l-0.999023 0.000976562c-20 0 -36.5 6.5 -49.5 19.5s-19.5 29.833 -19.5 50.5c0 24 8.16699 43.667 24.5 59s35.833 23 58.5 23c21.333 0 38.666 -6.5 51.999 -19.5s20 -30.167 20 -51.5c0 -24.667 -8.16699 -44.334 -24.5 -59.001s-36.5 -22 -60.5 -22z
" />
    <glyph glyph-name="Jcircumflex" unicode="&#x134;" horiz-adv-x="399" 
d="M194 247l81.002 427h144l-85 -445c-16.667 -86 -45 -147.5 -85 -184.5s-98 -55.5 -174 -55.5c-48 0 -85 5.33301 -111 16l28 123c24 -8 50.667 -12 80 -12c33.333 0 59.666 9.83301 78.999 29.5s33.666 53.5 42.999 101.5zM319.002 836h109l80 -126h-101l-41 61h-2
l-58 -61h-111z" />
    <glyph glyph-name="jcircumflex" unicode="&#x135;" horiz-adv-x="275" 
d="M120 489l143.001 -0.000976562l-88 -473c-15.333 -82 -38.333 -139.667 -69 -173c-30 -34.667 -74.333 -52 -133 -52c-26.667 0 -49.667 2.66699 -69 8l16 108c13.333 -1.33301 24 -2 32 -2c19.333 0 35.166 7.33301 47.499 22s22.5 42.334 30.5 83.001zM166.001 699.999
h95l75 -152h-92l-39 86h-2l-59 -86h-100z" />
    <glyph glyph-name="Kcommaaccent" unicode="&#x136;" horiz-adv-x="590" 
d="M19 0l128 674h142l-57 -301h3c4 6 24 31.667 60 77l187 224h180l-273 -291l156 -383h-156l-113 293l-72 -68l-43 -225h-142zM151 -240l-15 65.999c20.667 3.33301 38.667 10.833 54 22.5s23 26.834 23 45.501c0 18 -6.66699 33.667 -20 47l107 18
c17.333 -14.667 26 -35.667 26 -63c0 -42.667 -17.667 -75.5 -53 -98.5s-76 -35.5 -122 -37.5z" />
    <glyph glyph-name="kcommaaccent" unicode="&#x137;" horiz-adv-x="530" 
d="M156 0h-143l135 710h143l-81 -425h2l44 55l125 149h178l-208 -202l136 -287h-161l-86 209l-54 -52zM121 -240l-15 65.999c20.667 3.33301 38.667 10.833 54 22.5s23 26.834 23 45.501c0 18 -6.66699 33.667 -20 47l107 18c17.333 -14.667 26 -35.667 26 -63
c0 -42.667 -17.667 -75.5 -53 -98.5s-76 -35.5 -122 -37.5z" />
    <glyph glyph-name="kgreenlandic" unicode="&#x138;" horiz-adv-x="530" 
d="M156 0h-143l93 489h143l-39 -204h2l44 55l125 149h178l-208 -202l136 -287h-161l-86 209l-54 -52z" />
    <glyph glyph-name="Lacute" unicode="&#x139;" horiz-adv-x="487" 
d="M19 0l128 674h144l-104 -548h259l-24 -126h-403zM270 836h160l-132 -126h-122z" />
    <glyph glyph-name="lacute" unicode="&#x13a;" horiz-adv-x="265" 
d="M157 0h-144l136 710h144zM248 873h160l-132 -126h-122z" />
    <glyph glyph-name="Lcommaaccent" unicode="&#x13b;" horiz-adv-x="487" 
d="M19 0l128 674h144l-104 -548h259l-24 -126h-403zM105 -240l-15 65.999c20.667 3.33301 38.667 10.833 54 22.5s23 26.834 23 45.501c0 18 -6.66699 33.667 -20 47l107 18c17.333 -14.667 26 -35.667 26 -63c0 -42.667 -17.667 -75.5 -53 -98.5s-76 -35.5 -122 -37.5z" />
    <glyph glyph-name="lcommaaccent" unicode="&#x13c;" horiz-adv-x="265" 
d="M157 0h-144l136 710h144zM-18 -240l-15 65.999c20.667 3.33301 38.667 10.833 54 22.5s23 26.834 23 45.501c0 18 -6.66699 33.667 -20 47l107 18c17.333 -14.667 26 -35.667 26 -63c0 -42.667 -17.667 -75.5 -53 -98.5s-76 -35.5 -122 -37.5z" />
    <glyph glyph-name="Lcaron" unicode="&#x13d;" horiz-adv-x="487" 
d="M19 0l128 674h144l-104 -548h259l-24 -126h-403zM330 480l-15 65.999c20.667 3.33301 38.667 10.833 54 22.5s23 26.834 23 45.501c0 18 -6.66699 33.667 -20 47l107 18c17.333 -14.667 26 -35.667 26 -63c0 -42.667 -17.667 -75.5 -53 -98.5s-76 -35.5 -122 -37.5z" />
    <glyph glyph-name="lcaron" unicode="&#x13e;" horiz-adv-x="273" 
d="M157 0h-144l136 710h144zM349 502l-56 51c14.667 12 27.167 28 37.5 48s15.5 40.667 15.5 62c0 16 -3.33301 30 -10 42l97 17c14.667 -14.667 22 -35.667 22 -63c0 -36 -11.167 -68.167 -33.5 -96.5s-46.5 -48.5 -72.5 -60.5z" />
    <glyph glyph-name="Ldot" unicode="&#x13f;" horiz-adv-x="490" 
d="M19 0l128 674h144l-104 -548h259l-24 -126h-403zM387 308h-1.00098c-18 0 -33.5 6 -46.5 18s-19.5 27.333 -19.5 46c0 21.333 7.33301 39 22 53s32.334 21 53.001 21c19.333 0 35 -6.16699 47 -18.5s18 -27.833 18 -46.5c0 -21.333 -7.16699 -38.833 -21.5 -52.5
s-31.5 -20.5 -51.5 -20.5z" />
    <glyph glyph-name="ldot" unicode="&#x140;" horiz-adv-x="356" 
d="M157 0h-144l136 710h144zM327 289h-1c-17.333 0 -32 6 -44 18s-18 27.333 -18 46c0 21.333 6.83301 39 20.5 53s30.5 21 50.5 21c18.667 0 33.667 -6 45 -18s17 -27.667 17 -47c0 -22 -6.83301 -39.667 -20.5 -53s-30.167 -20 -49.5 -20z" />
    <glyph glyph-name="Lslash" unicode="&#x141;" horiz-adv-x="499" 
d="M433 0h-403l45 235l-85 -51l21 105l84 52l63 333h144l-45 -233l138 85l-19 -107l-139 -84l-39 -209h259z" />
    <glyph glyph-name="lslash" unicode="&#x142;" horiz-adv-x="278" 
d="M164 0h-144l44 228l-74 -50l21 108l73 50l72 374h143l-50 -261l81 55l-21 -109l-81 -55z" />
    <glyph glyph-name="Nacute" unicode="&#x143;" horiz-adv-x="666" 
d="M153 0h-134l128 674h169l89 -257c24 -76.667 44.333 -153.334 61 -230.001h3c2.66699 62.667 13 143.334 31 242.001l46 245h135l-128 -674h-149l-94 269c-29.333 90 -51.333 168.333 -66 235h-3c-6 -58.667 -20.333 -148 -43 -268zM434 836h160l-132 -126h-122z" />
    <glyph glyph-name="nacute" unicode="&#x144;" horiz-adv-x="563" 
d="M157 0h-144l62 330c10 50.667 18.667 103.667 26 159h127l-9 -81h2c44.667 61.333 101.667 92 171 92c40 0 71 -11.667 93 -35s33 -56.333 33 -99c0 -22.667 -2.66699 -50 -8 -82l-54 -284h-144l51 271c3.33301 18.667 5 36.667 5 54c0 39.333 -16.333 59 -49 59
c-24.667 0 -48.667 -14.833 -72 -44.5s-40 -70.5 -50 -122.5zM368 700h142l-130 -152h-106z" />
    <glyph glyph-name="Ncommaaccent" unicode="&#x145;" horiz-adv-x="666" 
d="M153 0h-134l128 674h169l89 -257c24 -76.667 44.333 -153.334 61 -230.001h3c2.66699 62.667 13 143.334 31 242.001l46 245h135l-128 -674h-149l-94 269c-29.333 90 -51.333 168.333 -66 235h-3c-6 -58.667 -20.333 -148 -43 -268zM191 -240l-15 65.999
c20.667 3.33301 38.667 10.833 54 22.5s23 26.834 23 45.501c0 18 -6.66699 33.667 -20 47l107 18c17.333 -14.667 26 -35.667 26 -63c0 -42.667 -17.667 -75.5 -53 -98.5s-76 -35.5 -122 -37.5z" />
    <glyph glyph-name="ncommaaccent" unicode="&#x146;" horiz-adv-x="563" 
d="M157 0h-144l62 330c10 50.667 18.667 103.667 26 159h127l-9 -81h2c44.667 61.333 101.667 92 171 92c40 0 71 -11.667 93 -35s33 -56.333 33 -99c0 -22.667 -2.66699 -50 -8 -82l-54 -284h-144l51 271c3.33301 18.667 5 36.667 5 54c0 39.333 -16.333 59 -49 59
c-24.667 0 -48.667 -14.833 -72 -44.5s-40 -70.5 -50 -122.5zM137 -240l-15 65.999c20.667 3.33301 38.667 10.833 54 22.5s23 26.834 23 45.501c0 18 -6.66699 33.667 -20 47l107 18c17.333 -14.667 26 -35.667 26 -63c0 -42.667 -17.667 -75.5 -53 -98.5
s-76 -35.5 -122 -37.5z" />
    <glyph glyph-name="Ncaron" unicode="&#x147;" horiz-adv-x="666" 
d="M153 0h-134l128 674h169l89 -257c24 -76.667 44.333 -153.334 61 -230.001h3c2.66699 62.667 13 143.334 31 242.001l46 245h135l-128 -674h-149l-94 269c-29.333 90 -51.333 168.333 -66 235h-3c-6 -58.667 -20.333 -148 -43 -268zM478 710h-109l-80 126h102l39 -64h2
l59 64h111z" />
    <glyph glyph-name="ncaron" unicode="&#x148;" horiz-adv-x="563" 
d="M157 0h-144l62 330c10 50.667 18.667 103.667 26 159h127l-9 -81h2c44.667 61.333 101.667 92 171 92c40 0 71 -11.667 93 -35s33 -56.333 33 -99c0 -22.667 -2.66699 -50 -8 -82l-54 -284h-144l51 271c3.33301 18.667 5 36.667 5 54c0 39.333 -16.333 59 -49 59
c-24.667 0 -48.667 -14.833 -72 -44.5s-40 -70.5 -50 -122.5zM373 548h-99l-75 152h93l40 -79h2l60 79h101z" />
    <glyph glyph-name="napostrophe" unicode="&#x149;" horiz-adv-x="563" 
d="M157 0h-144l62 330c10 50.667 18.667 103.667 26 159h127l-9 -81h2c44.667 61.333 101.667 92 171 92c40 0 71 -11.667 93 -35s33 -56.333 33 -99c0 -22.667 -2.66699 -50 -8 -82l-54 -284h-144l51 271c3.33301 18.667 5 36.667 5 54c0 39.333 -16.333 59 -49 59
c-24.667 0 -48.667 -14.833 -72 -44.5s-40 -70.5 -50 -122.5zM73 542l-16.001 65.999c12.667 4 23.834 12.333 33.501 25s14.5 26.667 14.5 42c0 19.333 -6.33301 35.333 -19 48l100 18c17.333 -14.667 26 -36 26 -64c0 -41.333 -14.833 -73.666 -44.5 -96.999
s-61.167 -36 -94.5 -38z" />
    <glyph glyph-name="Eng" unicode="&#x14a;" horiz-adv-x="666" 
d="M289 -212l-13.999 115.001c72 8 115.333 37.667 130 89l-95 277c-29.333 90 -51.333 168.333 -66 235h-3c-6 -58.667 -20.333 -148 -43 -268l-45 -236h-134l128 674h169l89 -257c24 -76.667 44.333 -153.334 61 -230.001h3c3.33301 69.333 13.666 150 30.999 242l46 245
h135l-119 -629c-17.333 -90.667 -49.333 -155.5 -96 -194.5s-105.667 -59.833 -177 -62.5z" />
    <glyph glyph-name="eng" unicode="&#x14b;" horiz-adv-x="563" 
d="M222 -190l-14 118.001c31.333 3.33301 55.833 13.5 73.5 30.5s30.5 45.167 38.5 84.5l43 228c3.33301 18.667 5 36.667 5 54c0 39.333 -16.333 59 -49 59c-24.667 0 -48.667 -14.833 -72 -44.5s-40 -70.5 -50 -122.5l-40 -217h-144l62 330
c12.667 70 21.334 123 26.001 159h127l-9 -81h2c44.667 61.333 101.334 92 170.001 92c40 0 71.167 -11.833 93.5 -35.5s33.5 -56.834 33.5 -99.501c0 -22 -2.66699 -49 -8 -81l-44 -231c-16.667 -88 -45.334 -150 -86.001 -186s-93.334 -55 -158.001 -57z" />
    <glyph glyph-name="Omacron" unicode="&#x14c;" horiz-adv-x="705" 
d="M322 -11l-0.998047 -0.000976562c-84.667 0 -151.334 26.5 -200.001 79.5s-73 120.167 -73 201.5c0 61.333 10.833 120.5 32.5 177.5s52.167 104.167 91.5 141.5c67.333 64 149.333 96 246 96c86.667 0 153.667 -26 201 -78s71 -119.667 71 -203
c0 -62 -10.5 -121.167 -31.5 -177.5s-50.5 -103.166 -88.5 -140.499c-66.667 -64.667 -149.334 -97 -248.001 -97zM341.002 108.999l1 0.000976562c42.667 0 80.334 16.333 113.001 49c25.333 25.333 45.333 61.5 60 108.5s22 91.5 22 133.5c0 48 -10.5 87.5 -31.5 118.5
s-55.833 46.5 -104.5 46.5c-44.667 0 -83.334 -17 -116.001 -51c-26 -25.333 -46.5 -60.833 -61.5 -106.5s-22.5 -89.834 -22.5 -132.501c0 -50 11.667 -90.167 35 -120.5s58.333 -45.5 105 -45.5zM324.002 813h253l-16 -79h-253z" />
    <glyph glyph-name="omacron" unicode="&#x14d;" horiz-adv-x="559" 
d="M238 -11l-0.999023 -0.000976562c-62 0 -112 18.5 -150 55.5s-57 85.833 -57 146.5c0 86 27.333 159 82 219s124.667 90 210 90c63.333 0 113.666 -19.167 150.999 -57.5s56 -86.5 56 -144.5c0 -89.333 -27.5 -163.166 -82.5 -221.499s-124.5 -87.5 -208.5 -87.5z
M257.001 98.999l1 -0.000976562c36 0 65.333 21.333 88 64s34 87.334 34 134.001c0 26 -6.16699 48 -18.5 66s-31.833 27 -58.5 27c-26 0 -48.833 -11.333 -68.5 -34s-33.834 -48.5 -42.501 -77.5s-13 -57.167 -13 -84.5c0 -28.667 6.83301 -51.667 20.5 -69
s32.834 -26 57.501 -26zM236.001 661.998h246l-16 -78h-246z" />
    <glyph glyph-name="Obreve" unicode="&#x14e;" horiz-adv-x="705" 
d="M322 -11l-0.998047 -0.000976562c-84.667 0 -151.334 26.5 -200.001 79.5s-73 120.167 -73 201.5c0 61.333 10.833 120.5 32.5 177.5s52.167 104.167 91.5 141.5c67.333 64 149.333 96 246 96c86.667 0 153.667 -26 201 -78s71 -119.667 71 -203
c0 -62 -10.5 -121.167 -31.5 -177.5s-50.5 -103.166 -88.5 -140.499c-66.667 -64.667 -149.334 -97 -248.001 -97zM341.002 108.999l1 0.000976562c42.667 0 80.334 16.333 113.001 49c25.333 25.333 45.333 61.5 60 108.5s22 91.5 22 133.5c0 48 -10.5 87.5 -31.5 118.5
s-55.833 46.5 -104.5 46.5c-44.667 0 -83.334 -17 -116.001 -51c-26 -25.333 -46.5 -60.833 -61.5 -106.5s-22.5 -89.834 -22.5 -132.501c0 -50 11.667 -90.167 35 -120.5s58.333 -45.5 105 -45.5zM312.002 843h80c-0.666992 -14 3.5 -25.667 12.5 -35s22.5 -14 40.5 -14
c36.667 0 58.667 16.333 66 49h81c-6 -36.667 -21.667 -66.167 -47 -88.5s-61.333 -33.5 -108 -33.5s-80.167 11.333 -100.5 34s-28.5 52 -24.5 88z" />
    <glyph glyph-name="obreve" unicode="&#x14f;" horiz-adv-x="559" 
d="M238 -11l-0.999023 -0.000976562c-62 0 -112 18.5 -150 55.5s-57 85.833 -57 146.5c0 86 27.333 159 82 219s124.667 90 210 90c63.333 0 113.666 -19.167 150.999 -57.5s56 -86.5 56 -144.5c0 -89.333 -27.5 -163.166 -82.5 -221.499s-124.5 -87.5 -208.5 -87.5z
M257.001 98.999l1 -0.000976562c36 0 65.333 21.333 88 64s34 87.334 34 134.001c0 26 -6.16699 48 -18.5 66s-31.833 27 -58.5 27c-26 0 -48.833 -11.333 -68.5 -34s-33.834 -48.5 -42.501 -77.5s-13 -57.167 -13 -84.5c0 -28.667 6.83301 -51.667 20.5 -69
s32.834 -26 57.501 -26zM232.001 689.998h73c1.33301 -37.333 17 -56 47 -56c34 0 55.667 18.667 65 56h75c-6.66699 -40 -22.5 -71.667 -47.5 -95s-58.167 -35 -99.5 -35c-44 0 -75 11.833 -93 35.5s-24.667 55.167 -20 94.5z" />
    <glyph glyph-name="Ohungarumlaut" unicode="&#x150;" horiz-adv-x="705" 
d="M322 -11l-0.998047 -0.000976562c-84.667 0 -151.334 26.5 -200.001 79.5s-73 120.167 -73 201.5c0 61.333 10.833 120.5 32.5 177.5s52.167 104.167 91.5 141.5c67.333 64 149.333 96 246 96c86.667 0 153.667 -26 201 -78s71 -119.667 71 -203
c0 -62 -10.5 -121.167 -31.5 -177.5s-50.5 -103.166 -88.5 -140.499c-66.667 -64.667 -149.334 -97 -248.001 -97zM341.002 108.999l1 0.000976562c42.667 0 80.334 16.333 113.001 49c25.333 25.333 45.333 61.5 60 108.5s22 91.5 22 133.5c0 48 -10.5 87.5 -31.5 118.5
s-55.833 46.5 -104.5 46.5c-44.667 0 -83.334 -17 -116.001 -51c-26 -25.333 -46.5 -60.833 -61.5 -106.5s-22.5 -89.834 -22.5 -132.501c0 -50 11.667 -90.167 35 -120.5s58.333 -45.5 105 -45.5zM365.002 837h140l-121 -119h-105zM547.002 837h141l-121 -119h-105z" />
    <glyph glyph-name="ohungarumlaut" unicode="&#x151;" horiz-adv-x="559" 
d="M238 -11l-0.999023 -0.000976562c-62 0 -112 18.5 -150 55.5s-57 85.833 -57 146.5c0 86 27.333 159 82 219s124.667 90 210 90c63.333 0 113.666 -19.167 150.999 -57.5s56 -86.5 56 -144.5c0 -89.333 -27.5 -163.166 -82.5 -221.499s-124.5 -87.5 -208.5 -87.5z
M257.001 98.999l1 -0.000976562c36 0 65.333 21.333 88 64s34 87.334 34 134.001c0 26 -6.16699 48 -18.5 66s-31.833 27 -58.5 27c-26 0 -48.833 -11.333 -68.5 -34s-33.834 -48.5 -42.501 -77.5s-13 -57.167 -13 -84.5c0 -28.667 6.83301 -51.667 20.5 -69
s32.834 -26 57.501 -26zM266.001 698.998h123l-121 -152h-86zM441.001 698.998h123l-120 -152h-87z" />
    <glyph glyph-name="OE" unicode="&#x152;" horiz-adv-x="909" 
d="M846 123l-22 -123h-356c-12.667 -0 -30.667 -1.66699 -54 -5c-20 -3.33301 -47 -5 -81 -5c-90.667 0 -161.834 26.5 -213.501 79.5s-77.5 121.5 -77.5 205.5c0 115.333 37.333 212.333 112 291s174.334 118 299.001 118c22 0 51.333 -1.66699 88 -5
c31.333 -3.33301 54 -5 68 -5h327l-23 -123h-258l-26 -144h242l-23 -121h-243l-30 -163h271zM430 118l82.001 436.001c-18 6.66699 -41 10 -69 10c-72.667 0 -132 -27.333 -178 -82s-69 -120.334 -69 -197.001c0 -52.667 15 -95 45 -127s71.667 -48 125 -48
c21.333 0 42.666 2.66699 63.999 8z" />
    <glyph glyph-name="oe" unicode="&#x153;" horiz-adv-x="826" 
d="M738 132l9 -101c-48 -28 -106.667 -42 -176 -42c-78 0 -133 28.667 -165 86h-3c-40 -57.333 -98.667 -86 -176 -86c-58.667 0 -106.5 19 -143.5 57s-55.5 88.667 -55.5 152c0 86 26.167 157.833 78.5 215.5s116.166 86.5 191.499 86.5c78 0 131.333 -29.333 160 -88h2
c44 58.667 104.667 88 182 88c52.667 0 93.334 -13.833 122.001 -41.5s43 -60.5 43 -98.5c0 -116.667 -104 -173 -312 -169c-2 -18 2.66699 -35 14 -51c20 -25.333 52 -38 96 -38s88.333 10 133 30zM253 100l1.00098 0.000976562c25.333 0 47.666 11.167 66.999 33.5
s33.333 48 42 77s13 57.167 13 84.5c0 64.667 -25 97 -75 97c-38 0 -68.167 -20.333 -90.5 -61s-33.5 -84.334 -33.5 -131.001c0 -30 6.83301 -54.167 20.5 -72.5s32.167 -27.5 55.5 -27.5zM673.001 349.001v0.999023c0 30 -19.667 45 -59 45
c-26.667 0 -49.167 -10.167 -67.5 -30.5s-30.5 -43.166 -36.5 -68.499c108.667 -2.66699 163 15 163 53z" />
    <glyph glyph-name="Racute" unicode="&#x154;" horiz-adv-x="583" 
d="M20 0l125.997 662c46.667 11.333 106.667 17 180 17c77.333 0 136.333 -13 177 -39c50 -29.333 75 -73 75 -131c0 -48 -14 -88.167 -42 -120.5s-65 -55.833 -111 -70.5v-3c36 -16 57.333 -57 64 -123l7.5 -72c3.66699 -34.667 6.83398 -61.167 9.50098 -79.5
s5.66699 -31.833 9 -40.5h-148c-6.66699 19.333 -13 72.333 -19 159c-3.33301 40 -12.166 67.833 -26.499 83.5s-36.166 23.5 -65.499 23.5h-44l-50 -266h-142zM268.997 561l-34.999 -187h59c39.333 0 71.666 10.667 96.999 32s38 48.333 38 81c0 26 -9.5 45.667 -28.5 59
s-43.833 20 -74.5 20c-24 0 -42.667 -1.66699 -56 -5zM368.998 836h160l-132 -126h-122z" />
    <glyph glyph-name="racute" unicode="&#x155;" horiz-adv-x="370" 
d="M157 0h-144l55 291c2.66699 13.333 11 79.333 25 198h125c0 -3.33301 -1.16699 -17.5 -3.5 -42.5l-5.5 -58.5h3c39.333 74.667 91.333 112 156 112c3.33301 0 8 -0.166992 14 -0.5s10.333 -0.5 13 -0.5l-28 -141c-4 0.666992 -11.667 1 -23 1c-80 0 -131 -59 -153 -177z
M263 700h142l-130 -152h-106z" />
    <glyph glyph-name="Rcommaaccent" unicode="&#x156;" horiz-adv-x="583" 
d="M20 0l125.997 662c46.667 11.333 106.667 17 180 17c77.333 0 136.333 -13 177 -39c50 -29.333 75 -73 75 -131c0 -48 -14 -88.167 -42 -120.5s-65 -55.833 -111 -70.5v-3c36 -16 57.333 -57 64 -123l7.5 -72c3.66699 -34.667 6.83398 -61.167 9.50098 -79.5
s5.66699 -31.833 9 -40.5h-148c-6.66699 19.333 -13 72.333 -19 159c-3.33301 40 -12.166 67.833 -26.499 83.5s-36.166 23.5 -65.499 23.5h-44l-50 -266h-142zM268.997 561l-34.999 -187h59c39.333 0 71.666 10.667 96.999 32s38 48.333 38 81c0 26 -9.5 45.667 -28.5 59
s-43.833 20 -74.5 20c-24 0 -42.667 -1.66699 -56 -5zM146.998 -240l-15 65.999c20.667 3.33301 38.667 10.833 54 22.5s23 26.834 23 45.501c0 18 -6.66699 33.667 -20 47l107 18c17.333 -14.667 26 -35.667 26 -63c0 -42.667 -17.667 -75.5 -53 -98.5
s-76 -35.5 -122 -37.5z" />
    <glyph glyph-name="rcommaaccent" unicode="&#x157;" horiz-adv-x="370" 
d="M157 0h-144l55 291c2.66699 13.333 11 79.333 25 198h125c0 -3.33301 -1.16699 -17.5 -3.5 -42.5l-5.5 -58.5h3c39.333 74.667 91.333 112 156 112c3.33301 0 8 -0.166992 14 -0.5s10.333 -0.5 13 -0.5l-28 -141c-4 0.666992 -11.667 1 -23 1c-80 0 -131 -59 -153 -177z
M-1 -240l-15 65.999c20.667 3.33301 38.667 10.833 54 22.5s23 26.834 23 45.501c0 18 -6.66699 33.667 -20 47l107 18c17.333 -14.667 26 -35.667 26 -63c0 -42.667 -17.667 -75.5 -53 -98.5s-76 -35.5 -122 -37.5z" />
    <glyph glyph-name="Rcaron" unicode="&#x158;" horiz-adv-x="583" 
d="M20 0l125.997 662c46.667 11.333 106.667 17 180 17c77.333 0 136.333 -13 177 -39c50 -29.333 75 -73 75 -131c0 -48 -14 -88.167 -42 -120.5s-65 -55.833 -111 -70.5v-3c36 -16 57.333 -57 64 -123l7.5 -72c3.66699 -34.667 6.83398 -61.167 9.50098 -79.5
s5.66699 -31.833 9 -40.5h-148c-6.66699 19.333 -13 72.333 -19 159c-3.33301 40 -12.166 67.833 -26.499 83.5s-36.166 23.5 -65.499 23.5h-44l-50 -266h-142zM268.997 561l-34.999 -187h59c39.333 0 71.666 10.667 96.999 32s38 48.333 38 81c0 26 -9.5 45.667 -28.5 59
s-43.833 20 -74.5 20c-24 0 -42.667 -1.66699 -56 -5zM402.998 710h-109l-80 126h102l39 -64h2l59 64h111z" />
    <glyph glyph-name="rcaron" unicode="&#x159;" horiz-adv-x="370" 
d="M157 0h-144l55 291c2.66699 13.333 11 79.333 25 198h125c0 -3.33301 -1.16699 -17.5 -3.5 -42.5l-5.5 -58.5h3c39.333 74.667 91.333 112 156 112c3.33301 0 8 -0.166992 14 -0.5s10.333 -0.5 13 -0.5l-28 -141c-4 0.666992 -11.667 1 -23 1c-80 0 -131 -59 -153 -177z
M293 548h-99l-75 152h93l40 -79h2l60 79h101z" />
    <glyph glyph-name="Sacute" unicode="&#x15a;" horiz-adv-x="510" 
d="M1 38l48.0029 117.999c48.667 -28 101.667 -42 159 -42c29.333 0 54.333 6.83301 75 20.5s31 32.834 31 57.501c0 18.667 -7 35 -21 49s-37.333 29.667 -70 47c-92.667 49.333 -139 108.333 -139 177c0 66 25.333 119 76 159s113.667 60 189 60
c62.667 0 115.334 -11 158.001 -33l-45 -120c-36.667 20 -78.334 29.667 -125.001 29c-32 0 -57 -6.83301 -75 -20.5s-27 -30.167 -27 -49.5c0 -9.33301 2.16699 -18 6.5 -26s11.666 -16.167 21.999 -24.5s20.166 -15.333 29.499 -21l40 -23.5
c88.667 -46.667 133 -106 133 -178s-25.833 -127.833 -77.5 -167.5s-116.834 -59.5 -195.501 -59.5c-86 0.666992 -150 16.667 -192 48zM354.003 835.999h160l-132 -126h-122z" />
    <glyph glyph-name="sacute" unicode="&#x15b;" horiz-adv-x="416" 
d="M-4 28l35 100.998c45.333 -22.667 88 -34 128 -34c19.333 0 34.333 4.16699 45 12.5s16 18.833 16 31.5c0 12 -4.5 22.833 -13.5 32.5s-24.833 19.834 -47.5 30.501c-68.667 34.667 -103 77.667 -103 129c0 50.667 20 91.5 60 122.5s91.667 46.5 155 46.5
c54 0 95.667 -8.33301 125 -25l-34 -102c-31.333 14 -64 21 -98 21c-19.333 0 -34.666 -3.83301 -45.999 -11.5s-17 -18.167 -17 -31.5c0 -18 19.667 -36.667 59 -56c73.333 -36.667 110 -81 110 -133c0 -54.667 -20.833 -97.167 -62.5 -127.5
s-95.834 -45.166 -162.501 -44.499c-66 1.33301 -115.667 14 -149 38zM280 699.998h142l-130 -152h-106z" />
    <glyph glyph-name="Scircumflex" unicode="&#x15c;" horiz-adv-x="510" 
d="M1 38l48.0029 117.999c48.667 -28 101.667 -42 159 -42c29.333 0 54.333 6.83301 75 20.5s31 32.834 31 57.501c0 18.667 -7 35 -21 49s-37.333 29.667 -70 47c-92.667 49.333 -139 108.333 -139 177c0 66 25.333 119 76 159s113.667 60 189 60
c62.667 0 115.334 -11 158.001 -33l-45 -120c-36.667 20 -78.334 29.667 -125.001 29c-32 0 -57 -6.83301 -75 -20.5s-27 -30.167 -27 -49.5c0 -9.33301 2.16699 -18 6.5 -26s11.666 -16.167 21.999 -24.5s20.166 -15.333 29.499 -21l40 -23.5
c88.667 -46.667 133 -106 133 -178s-25.833 -127.833 -77.5 -167.5s-116.834 -59.5 -195.501 -59.5c-86 0.666992 -150 16.667 -192 48zM311.003 835.999h109l80 -126h-101l-41 61h-2l-58 -61h-111z" />
    <glyph glyph-name="scircumflex" unicode="&#x15d;" horiz-adv-x="416" 
d="M-4 28l35 100.998c45.333 -22.667 88 -34 128 -34c19.333 0 34.333 4.16699 45 12.5s16 18.833 16 31.5c0 12 -4.5 22.833 -13.5 32.5s-24.833 19.834 -47.5 30.501c-68.667 34.667 -103 77.667 -103 129c0 50.667 20 91.5 60 122.5s91.667 46.5 155 46.5
c54 0 95.667 -8.33301 125 -25l-34 -102c-31.333 14 -64 21 -98 21c-19.333 0 -34.666 -3.83301 -45.999 -11.5s-17 -18.167 -17 -31.5c0 -18 19.667 -36.667 59 -56c73.333 -36.667 110 -81 110 -133c0 -54.667 -20.833 -97.167 -62.5 -127.5
s-95.834 -45.166 -162.501 -44.499c-66 1.33301 -115.667 14 -149 38zM238 699.998h99l75 -152h-93l-40 79h-2l-58 -79h-102z" />
    <glyph glyph-name="Scedilla" unicode="&#x15e;" horiz-adv-x="510" 
d="M507 651l-44.9951 -120.002c-36.667 20 -78.334 29.667 -125.001 29c-32 0 -57 -6.83301 -75 -20.5s-27 -30.167 -27 -49.5c0 -9.33301 2.16699 -18 6.5 -26s11.666 -16.167 21.999 -24.5s20.166 -15.333 29.499 -21l40 -23.5c88.667 -46.667 133 -106 133 -178
c0 -60 -18.333 -109.167 -55 -147.5s-85.334 -62.833 -146.001 -73.5l-27 -39c18 -4 32.667 -12 44 -24s17 -26.667 17 -44c0 -32 -12.833 -55.833 -38.5 -71.5s-54.834 -23.5 -87.501 -23.5s-58.334 7 -77.001 21l24 57c17.333 -10.667 35.333 -16 54 -16
c24 0 36 9.33301 36 28c0 20.667 -23.667 32.667 -71 36l46 70h-8c-26.667 0 -57.667 4.33301 -93 13s-63 20.334 -83 35.001l48 118c48.667 -28 101.667 -42 159 -42c29.333 0 54.333 6.83301 75 20.5s31 32.834 31 57.501c0 18.667 -7 35 -21 49s-37.333 29.667 -70 47
c-92.667 49.333 -139 108.333 -139 177c0 66 25.333 119 76 159s113.667 60 189 60c62.667 0 115.334 -11 158.001 -33z" />
    <glyph glyph-name="Scedilla" unicode="&#xf6c1;" horiz-adv-x="510" 
d="M507 651l-44.9951 -120.002c-36.667 20 -78.334 29.667 -125.001 29c-32 0 -57 -6.83301 -75 -20.5s-27 -30.167 -27 -49.5c0 -9.33301 2.16699 -18 6.5 -26s11.666 -16.167 21.999 -24.5s20.166 -15.333 29.499 -21l40 -23.5c88.667 -46.667 133 -106 133 -178
c0 -60 -18.333 -109.167 -55 -147.5s-85.334 -62.833 -146.001 -73.5l-27 -39c18 -4 32.667 -12 44 -24s17 -26.667 17 -44c0 -32 -12.833 -55.833 -38.5 -71.5s-54.834 -23.5 -87.501 -23.5s-58.334 7 -77.001 21l24 57c17.333 -10.667 35.333 -16 54 -16
c24 0 36 9.33301 36 28c0 20.667 -23.667 32.667 -71 36l46 70h-8c-26.667 0 -57.667 4.33301 -93 13s-63 20.334 -83 35.001l48 118c48.667 -28 101.667 -42 159 -42c29.333 0 54.333 6.83301 75 20.5s31 32.834 31 57.501c0 18.667 -7 35 -21 49s-37.333 29.667 -70 47
c-92.667 49.333 -139 108.333 -139 177c0 66 25.333 119 76 159s113.667 60 189 60c62.667 0 115.334 -11 158.001 -33z" />
    <glyph glyph-name="scedilla" unicode="&#x15f;" horiz-adv-x="416" 
d="M396 475l-34.001 -102c-31.333 14 -64 21 -98 21c-19.333 0 -34.666 -3.83301 -45.999 -11.5s-17 -18.167 -17 -31.5c0 -18.667 19.667 -37 59 -55c73.333 -36.667 110 -81.334 110 -134.001c0 -44 -13.667 -80.333 -41 -109s-64 -47.667 -110 -57l-28 -39
c18 -4 32.5 -11.833 43.5 -23.5s16.5 -25.5 16.5 -41.5c0 -32 -12.667 -55.833 -38 -71.5s-54.333 -23.5 -87 -23.5c-33.333 0 -59.333 7 -78 21l25 54c17.333 -10.667 35 -16 53 -16c24.667 0 37 9.33301 37 28c0 20.667 -24 32.667 -72 36l46 70h-4
c-22 0 -46.833 3.83301 -74.5 11.5s-48.5 16.5 -62.5 26.5l35 101c45.333 -22.667 88 -34 128 -34c19.333 0 34.333 4.16699 45 12.5s16 18.833 16 31.5c0 12 -4.5 22.833 -13.5 32.5s-24.833 19.834 -47.5 30.501c-68.667 34.667 -103 77.667 -103 129
c0 50.667 20 91.5 60 122.5s91.667 46.5 155 46.5c54 0 95.667 -8.33301 125 -25z" />
    <glyph glyph-name="scedilla" unicode="&#xf6c2;" horiz-adv-x="416" 
d="M396 475l-34.001 -102c-31.333 14 -64 21 -98 21c-19.333 0 -34.666 -3.83301 -45.999 -11.5s-17 -18.167 -17 -31.5c0 -18.667 19.667 -37 59 -55c73.333 -36.667 110 -81.334 110 -134.001c0 -44 -13.667 -80.333 -41 -109s-64 -47.667 -110 -57l-28 -39
c18 -4 32.5 -11.833 43.5 -23.5s16.5 -25.5 16.5 -41.5c0 -32 -12.667 -55.833 -38 -71.5s-54.333 -23.5 -87 -23.5c-33.333 0 -59.333 7 -78 21l25 54c17.333 -10.667 35 -16 53 -16c24.667 0 37 9.33301 37 28c0 20.667 -24 32.667 -72 36l46 70h-4
c-22 0 -46.833 3.83301 -74.5 11.5s-48.5 16.5 -62.5 26.5l35 101c45.333 -22.667 88 -34 128 -34c19.333 0 34.333 4.16699 45 12.5s16 18.833 16 31.5c0 12 -4.5 22.833 -13.5 32.5s-24.833 19.834 -47.5 30.501c-68.667 34.667 -103 77.667 -103 129
c0 50.667 20 91.5 60 122.5s91.667 46.5 155 46.5c54 0 95.667 -8.33301 125 -25z" />
    <glyph glyph-name="Scaron" unicode="&#x160;" horiz-adv-x="510" 
d="M1 38l48.0029 117.999c48.667 -28 101.667 -42 159 -42c29.333 0 54.333 6.83301 75 20.5s31 32.834 31 57.501c0 18.667 -7 35 -21 49s-37.333 29.667 -70 47c-92.667 49.333 -139 108.333 -139 177c0 66 25.333 119 76 159s113.667 60 189 60
c62.667 0 115.334 -11 158.001 -33l-45 -120c-36.667 20 -78.334 29.667 -125.001 29c-32 0 -57 -6.83301 -75 -20.5s-27 -30.167 -27 -49.5c0 -9.33301 2.16699 -18 6.5 -26s11.666 -16.167 21.999 -24.5s20.166 -15.333 29.499 -21l40 -23.5
c88.667 -46.667 133 -106 133 -178s-25.833 -127.833 -77.5 -167.5s-116.834 -59.5 -195.501 -59.5c-86 0.666992 -150 16.667 -192 48zM393.003 709.999h-109l-80 126h102l39 -64h2l59 64h111z" />
    <glyph glyph-name="scaron" unicode="&#x161;" horiz-adv-x="416" 
d="M-4 28l35 100.998c45.333 -22.667 88 -34 128 -34c19.333 0 34.333 4.16699 45 12.5s16 18.833 16 31.5c0 12 -4.5 22.833 -13.5 32.5s-24.833 19.834 -47.5 30.501c-68.667 34.667 -103 77.667 -103 129c0 50.667 20 91.5 60 122.5s91.667 46.5 155 46.5
c54 0 95.667 -8.33301 125 -25l-34 -102c-31.333 14 -64 21 -98 21c-19.333 0 -34.666 -3.83301 -45.999 -11.5s-17 -18.167 -17 -31.5c0 -18 19.667 -36.667 59 -56c73.333 -36.667 110 -81 110 -133c0 -54.667 -20.833 -97.167 -62.5 -127.5
s-95.834 -45.166 -162.501 -44.499c-66 1.33301 -115.667 14 -149 38zM313 547.998h-99l-75 152h93l40 -79h2l60 79h101z" />
    <glyph glyph-name="Tcommaaccent" unicode="&#x162;" horiz-adv-x="527" 
d="M141 0l104 548h-178l25 126h501l-24 -126h-180l-104 -548h-144zM110 -240l-15 65.999c20.667 3.33301 38.667 10.833 54 22.5s23 26.834 23 45.501c0 18 -6.66699 33.667 -20 47l107 18c17.333 -14.667 26 -35.667 26 -63c0 -42.667 -17.667 -75.5 -53 -98.5
s-76 -35.5 -122 -37.5z" />
    <glyph glyph-name="Tcommaaccent" unicode="&#x21a;" horiz-adv-x="527" 
d="M141 0l104 548h-178l25 126h501l-24 -126h-180l-104 -548h-144zM110 -240l-15 65.999c20.667 3.33301 38.667 10.833 54 22.5s23 26.834 23 45.501c0 18 -6.66699 33.667 -20 47l107 18c17.333 -14.667 26 -35.667 26 -63c0 -42.667 -17.667 -75.5 -53 -98.5
s-76 -35.5 -122 -37.5z" />
    <glyph glyph-name="tcommaaccent" unicode="&#x163;" horiz-adv-x="348" 
d="M141 581l148 39.999l-25 -132h105l-22 -110h-104l-33 -165c-5.33301 -25.333 -8 -45.666 -8 -60.999c0 -27.333 14 -41 42 -41c18 0 31 0.666992 39 2l-16 -113c-20 -7.33301 -48.333 -11 -85 -11c-42 0 -73.833 9.66699 -95.5 29s-32.5 45 -32.5 77
c0 26 3.66699 56 11 90l37 193h-62l20 110h63zM31 -240.001l-15 65.999c20.667 3.33301 38.667 10.833 54 22.5s23 26.834 23 45.501c0 18 -6.66699 33.667 -20 47l107 18c17.333 -14.667 26 -35.667 26 -63c0 -42.667 -17.667 -75.5 -53 -98.5s-76 -35.5 -122 -37.5z" />
    <glyph glyph-name="tcommaaccent" unicode="&#x21b;" horiz-adv-x="348" 
d="M141 581l148 39.999l-25 -132h105l-22 -110h-104l-33 -165c-5.33301 -25.333 -8 -45.666 -8 -60.999c0 -27.333 14 -41 42 -41c18 0 31 0.666992 39 2l-16 -113c-20 -7.33301 -48.333 -11 -85 -11c-42 0 -73.833 9.66699 -95.5 29s-32.5 45 -32.5 77
c0 26 3.66699 56 11 90l37 193h-62l20 110h63zM31 -240.001l-15 65.999c20.667 3.33301 38.667 10.833 54 22.5s23 26.834 23 45.501c0 18 -6.66699 33.667 -20 47l107 18c17.333 -14.667 26 -35.667 26 -63c0 -42.667 -17.667 -75.5 -53 -98.5s-76 -35.5 -122 -37.5z" />
    <glyph glyph-name="Tcaron" unicode="&#x164;" horiz-adv-x="527" 
d="M141 0l104 548h-178l25 126h501l-24 -126h-180l-104 -548h-144zM403 710h-109l-80 126h102l39 -64h2l59 64h111z" />
    <glyph glyph-name="tcaron" unicode="&#x165;" horiz-adv-x="348" 
d="M141 581l148 40.999l-25 -133h105l-22 -110h-104l-33 -165c-5.33301 -25.333 -8 -45.666 -8 -60.999c0 -27.333 14 -41 42 -41c18 0 31 0.666992 39 2l-16 -113c-20 -7.33301 -48.333 -11 -85 -11c-42 0 -73.833 9.66699 -95.5 29s-32.5 45 -32.5 77
c0 26 3.66699 56 11 90l37 193h-62l20 110h63zM371 534.999l-32.999 60c11.333 5.33301 20.666 14 27.999 26s11 24.667 11 38c0 16 -5 32.667 -15 50l96 17c18.667 -16 28 -37.667 28 -65c0 -35.333 -12.333 -64 -37 -86s-50.667 -35.333 -78 -40z" />
    <glyph glyph-name="Tbar" unicode="&#x166;" horiz-adv-x="527" 
d="M463 290h-123l-55 -290h-144l55 290h-117l17 89h117l32 169h-178l25 126h501l-24 -126h-180l-32 -169h123z" />
    <glyph glyph-name="tbar" unicode="&#x167;" horiz-adv-x="348" 
d="M38 310h51l13 69h-62l20 110h63l18 92l148 40l-25 -132h105l-22 -110h-104l-14 -69h91l-15 -78h-92l-7 -38c-2.66699 -13.333 -4 -27 -4 -41c0 -27.333 14 -41 42 -41c18 0 31 0.666992 39 2l-16 -113c-20 -7.33301 -48.333 -11 -85 -11c-42 0 -73.833 9.66699 -95.5 29
s-32.5 45 -32.5 77c0 21.333 3.66699 51.333 11 90l8 46h-51z" />
    <glyph glyph-name="Utilde" unicode="&#x168;" horiz-adv-x="655" 
d="M144 674h144.001l-73 -388c-5.33301 -24.667 -8 -51 -8 -79c0 -28.667 8.5 -52 25.5 -70s41.167 -27 72.5 -27c38.667 0 70.167 13.833 94.5 41.5s42.5 72.167 54.5 133.5l74 389h144l-73 -383c-20 -104 -54.333 -180.333 -103 -229s-118.334 -73 -209.001 -73
c-70.667 -0.666992 -125.667 17.333 -165 54s-59 90.334 -59 161.001c0 27.333 3.33301 58.666 10 93.999zM352.001 716h-71.002c6 40.667 18 71.667 36 93s39 32 63 32c22 0 42.667 -6.66699 62 -20c20 -12.667 33.667 -19 41 -19c8.66699 0 15.334 3.16699 20.001 9.5
s9.66699 17.5 15 33.5h69c-13.333 -82 -47 -123 -101 -123c-22 0 -43 6.33301 -63 19c-19.333 12 -32.666 18 -39.999 18c-14.667 0 -25 -14.333 -31 -43z" />
    <glyph glyph-name="utilde" unicode="&#x169;" horiz-adv-x="560" 
d="M400 489l144.001 0.00195312l-62 -330c-6.66699 -32.667 -15.667 -85.667 -27 -159h-127l9 79l-2 1c-47.333 -60.667 -103.333 -91 -168 -91c-40 0 -71 11.5 -93 34.5s-33 57.167 -33 102.5c0 27.333 3.33301 57.333 10 90l52 273h144l-50 -262
c-4.66699 -26.667 -7 -48.334 -7 -65.001c0 -37.333 16.333 -56 49 -56c25.333 0 49.166 14.167 71.499 42.5s37.833 66.166 46.5 113.499zM277.001 558.002h-70.001c5.33301 40 16.333 71 33 93s37.667 33 63 33c18.667 0 39.334 -6.66699 62.001 -20
c18.667 -12.667 31.667 -19 39 -19c8 0 14.167 3 18.5 9s8.83301 17.667 13.5 35h69c-12 -82 -44.667 -123 -98 -123c-24.667 0 -46 6.66699 -64 20c-16 11.333 -28.667 17 -38 17c-12.667 0 -22 -15 -28 -45z" />
    <glyph glyph-name="Umacron" unicode="&#x16a;" horiz-adv-x="655" 
d="M144 674h144.001l-73 -388c-5.33301 -24.667 -8 -51 -8 -79c0 -28.667 8.5 -52 25.5 -70s41.167 -27 72.5 -27c38.667 0 70.167 13.833 94.5 41.5s42.5 72.167 54.5 133.5l74 389h144l-73 -383c-20 -104 -54.333 -180.333 -103 -229s-118.334 -73 -209.001 -73
c-70.667 -0.666992 -125.667 17.333 -165 54s-59 90.334 -59 161.001c0 27.333 3.33301 58.666 10 93.999zM308.001 813h253l-16 -79h-253z" />
    <glyph glyph-name="umacron" unicode="&#x16b;" horiz-adv-x="560" 
d="M400 489l144.001 0.00195312l-62 -330c-6.66699 -32.667 -15.667 -85.667 -27 -159h-127l9 79l-2 1c-47.333 -60.667 -103.333 -91 -168 -91c-40 0 -71 11.5 -93 34.5s-33 57.167 -33 102.5c0 27.333 3.33301 57.333 10 90l52 273h144l-50 -262
c-4.66699 -26.667 -7 -48.334 -7 -65.001c0 -37.333 16.333 -56 49 -56c25.333 0 49.166 14.167 71.499 42.5s37.833 66.166 46.5 113.499zM235.001 662.002h246l-16 -78h-246z" />
    <glyph glyph-name="Ubreve" unicode="&#x16c;" horiz-adv-x="655" 
d="M144 674h144.001l-73 -388c-5.33301 -24.667 -8 -51 -8 -79c0 -28.667 8.5 -52 25.5 -70s41.167 -27 72.5 -27c38.667 0 70.167 13.833 94.5 41.5s42.5 72.167 54.5 133.5l74 389h144l-73 -383c-20 -104 -54.333 -180.333 -103 -229s-118.334 -73 -209.001 -73
c-70.667 -0.666992 -125.667 17.333 -165 54s-59 90.334 -59 161.001c0 27.333 3.33301 58.666 10 93.999zM294.001 837h80c-0.666992 -14 3.5 -25.667 12.5 -35s22.5 -14 40.5 -14c36.667 0 58.667 16.333 66 49h81c-6 -36.667 -21.667 -66.167 -47 -88.5
s-61.333 -33.5 -108 -33.5s-80.167 11.333 -100.5 34s-28.5 52 -24.5 88z" />
    <glyph glyph-name="ubreve" unicode="&#x16d;" horiz-adv-x="560" 
d="M400 489l144.001 0.00195312l-62 -330c-6.66699 -32.667 -15.667 -85.667 -27 -159h-127l9 79l-2 1c-47.333 -60.667 -103.333 -91 -168 -91c-40 0 -71 11.5 -93 34.5s-33 57.167 -33 102.5c0 27.333 3.33301 57.333 10 90l52 273h144l-50 -262
c-4.66699 -26.667 -7 -48.334 -7 -65.001c0 -37.333 16.333 -56 49 -56c25.333 0 49.166 14.167 71.499 42.5s37.833 66.166 46.5 113.499zM225.001 690.002h73c1.33301 -37.333 17 -56 47 -56c34 0 55.667 18.667 65 56h75c-6.66699 -40 -22.5 -71.667 -47.5 -95
s-58.167 -35 -99.5 -35c-44 0 -75 11.833 -93 35.5s-24.667 55.167 -20 94.5z" />
    <glyph glyph-name="Uring" unicode="&#x16e;" horiz-adv-x="655" 
d="M144 674h144.001l-73 -388c-5.33301 -24.667 -8 -51 -8 -79c0 -28.667 8.5 -52 25.5 -70s41.167 -27 72.5 -27c38.667 0 70.167 13.833 94.5 41.5s42.5 72.167 54.5 133.5l74 389h144l-73 -383c-20 -104 -54.333 -180.333 -103 -229s-118.334 -73 -209.001 -73
c-70.667 -0.666992 -125.667 17.333 -165 54s-59 90.334 -59 161.001c0 27.333 3.33301 58.666 10 93.999zM426.001 887l1.00098 0.000976562c31.333 0 57.166 -8 77.499 -24s30.5 -38.333 30.5 -67c-0.666992 -31.333 -12.667 -56 -36 -74s-52.666 -27 -87.999 -27
c-29.333 0 -54.333 8 -75 24s-31.334 37 -32.001 63c-0.666992 31.333 10.5 56.666 33.5 75.999s52.5 29 88.5 29zM422.002 838.001l-1.00098 0.00195312c-14 0 -25.167 -4.83301 -33.5 -14.5s-12.5 -21.834 -12.5 -36.501c0 -12.667 3.66699 -23 11 -31s17.333 -12 30 -12
c14 0 25.5 4.66699 34.5 14s13.5 20.666 13.5 33.999s-3.66699 24.333 -11 33s-17.666 13 -30.999 13z" />
    <glyph glyph-name="uring" unicode="&#x16f;" horiz-adv-x="560" 
d="M400 489l144.001 0.00195312l-62 -330c-6.66699 -32.667 -15.667 -85.667 -27 -159h-127l9 79l-2 1c-47.333 -60.667 -103.333 -91 -168 -91c-40 0 -71 11.5 -93 34.5s-33 57.167 -33 102.5c0 27.333 3.33301 57.333 10 90l52 273h144l-50 -262
c-4.66699 -26.667 -7 -48.334 -7 -65.001c0 -37.333 16.333 -56 49 -56c25.333 0 49.166 14.167 71.499 42.5s37.833 66.166 46.5 113.499zM361.001 735.002l1.00098 0.000976562c30.667 0 56.167 -8.16699 76.5 -24.5s30.5 -39.5 30.5 -69.5
c-0.666992 -32 -12.834 -57.167 -36.501 -75.5s-52.834 -27.5 -87.501 -27.5c-29.333 0 -54.166 8.16699 -74.499 24.5s-30.833 38.166 -31.5 65.499c-0.666992 32 10.5 57.833 33.5 77.5s52.5 29.5 88.5 29.5zM356.002 685.003l-1 -0.000976562c-14 0 -25.333 -5 -34 -15
s-13 -22.667 -13 -38c0 -12 3.83301 -22.333 11.5 -31s18.167 -13 31.5 -13c14.667 0 26.5 4.83301 35.5 14.5s13.5 21.834 13.5 36.501c0 13.333 -3.83301 24.333 -11.5 33s-18.5 13 -32.5 13z" />
    <glyph glyph-name="Uhungarumlaut" unicode="&#x170;" horiz-adv-x="655" 
d="M144 674h144.001l-73 -388c-5.33301 -24.667 -8 -51 -8 -79c0 -28.667 8.5 -52 25.5 -70s41.167 -27 72.5 -27c38.667 0 70.167 13.833 94.5 41.5s42.5 72.167 54.5 133.5l74 389h144l-73 -383c-20 -104 -54.333 -180.333 -103 -229s-118.334 -73 -209.001 -73
c-70.667 -0.666992 -125.667 17.333 -165 54s-59 90.334 -59 161.001c0 27.333 3.33301 58.666 10 93.999zM341.001 837h140l-121 -119h-105zM523.001 837h141l-121 -119h-105z" />
    <glyph glyph-name="uhungarumlaut" unicode="&#x171;" horiz-adv-x="560" 
d="M400 489l144.001 0.00195312l-62 -330c-6.66699 -32.667 -15.667 -85.667 -27 -159h-127l9 79l-2 1c-47.333 -60.667 -103.333 -91 -168 -91c-40 0 -71 11.5 -93 34.5s-33 57.167 -33 102.5c0 27.333 3.33301 57.333 10 90l52 273h144l-50 -262
c-4.66699 -26.667 -7 -48.334 -7 -65.001c0 -37.333 16.333 -56 49 -56c25.333 0 49.166 14.167 71.499 42.5s37.833 66.166 46.5 113.499zM274.001 699.002h123l-121 -152h-86zM449.001 699.002h123l-120 -152h-87z" />
    <glyph glyph-name="Uogonek" unicode="&#x172;" horiz-adv-x="655" 
d="M384 -114l17.001 -71.999c-27.333 -18.667 -62.666 -28 -105.999 -28c-29.333 0 -52 7.33301 -68 22s-24 35.334 -24 62.001c0 41.333 23 81.666 69 120.999h-19c-59.333 4.66699 -105.833 25.167 -139.5 61.5s-50.5 86.833 -50.5 151.5
c0 26.667 3.33301 58.334 10 95.001l71 375h143l-73 -387c-5.33301 -25.333 -8 -52 -8 -80c0.666992 -28.667 9.5 -52 26.5 -70s40.833 -27 71.5 -27c38.667 0 70.167 13.833 94.5 41.5s42.5 72.167 54.5 133.5l74 389h144l-72 -383
c-14.667 -76.667 -36.834 -137.834 -66.501 -183.501s-69.5 -77.834 -119.5 -96.501c-16.667 -6.66699 -32.667 -15.667 -48 -27c-16.667 -10.667 -30 -23.5 -40 -38.5s-15 -28.167 -15 -39.5c0 -8 2.66699 -14.5 8 -19.5s12 -7.5 20 -7.5
c7.33301 0 22.666 2.33301 45.999 7z" />
    <glyph glyph-name="uogonek" unicode="&#x173;" horiz-adv-x="560" 
d="M544 489l-62.999 -329.999c-4.66699 -25.333 -13.334 -78.333 -26.001 -159l-46 1c-24 -31.333 -36 -59.666 -36 -84.999c0 -12 3.66699 -21.667 11 -29s17.666 -11 30.999 -11c14.667 0 30.334 3 47.001 9l9 -70c-26.667 -22 -61.667 -33 -105 -33
c-31.333 0 -55.5 7.66699 -72.5 23s-25.5 37.333 -25.5 66c0 38 20.333 82 61 132l8 76l-2 1c-47.333 -60.667 -103.333 -91 -168 -91c-40 0 -71 11.5 -93 34.5s-33 57.167 -33 102.5c0 27.333 3.33301 57.333 10 90l52 273h144l-50 -262
c-4.66699 -26.667 -7 -48.334 -7 -65.001c0 -37.333 16.333 -56 49 -56c25.333 0 49 14.167 71 42.5s37.667 66.166 47 113.499l43 227h144z" />
    <glyph glyph-name="Wcircumflex" unicode="&#x174;" horiz-adv-x="864" 
d="M278 0l-160 -0.000976562l-26 674h146v-300c0 -64.667 -1.33301 -137.667 -4 -219h2c51.333 140.667 77.666 213 78.999 217l121 302h158l-2 -301c-1.33301 -82.667 -3.66602 -154 -6.99902 -214h2c24 72.667 49 144.334 75 215.001l116 300h152l-297 -674h-157l-4 276
c-0.666992 69.333 1 144 5 224h-2c-33.333 -100 -60.333 -175.667 -81 -227zM488 835.999h109l80 -126h-101l-41 61h-2l-58 -61h-111z" />
    <glyph glyph-name="wcircumflex" unicode="&#x175;" horiz-adv-x="733" 
d="M51 489l144.999 -0.000976562l1 -208c0.666992 -42 -0.666016 -93.667 -3.99902 -155h2c6 18 25.667 68 59 150l97 213h117l12 -206c3.33301 -67.333 4 -119.666 2 -156.999h3c10 34 27.667 87 53 159l84 204h145l-238 -489h-135l-14 170c-2.66699 34 -4 86 -4 156h-3
c-32.667 -87.333 -52 -137 -58 -149l-83 -177h-135zM396.999 699.999h99l75 -152h-93l-40 79h-2l-58 -79h-102z" />
    <glyph glyph-name="Ycircumflex" unicode="&#x176;" horiz-adv-x="570" 
d="M295 0h-144.001l52 275l-132 399h154l43 -171c12.667 -53.333 21.334 -94 26.001 -122h2l69 123l101 170h172l-291 -396zM323.999 836h109l80 -126h-101l-41 61h-2l-58 -61h-111z" />
    <glyph glyph-name="ycircumflex" unicode="&#x177;" horiz-adv-x="497" 
d="M44 489l150.999 -0.000976562l30 -213l16 -117h2l43 114l89 216h152l-175 -352c-64.667 -128.667 -127.334 -221.667 -188.001 -279c-25.333 -24 -52.833 -43.167 -82.5 -57.5s-54.5 -23.166 -74.5 -26.499l-32 124c32.667 10 60.334 22.667 83.001 38
c34.667 24 61.334 52.333 80.001 85c3.33301 6.66699 4 14.667 2 24zM270.999 699.999h99l75 -152h-93l-40 79h-2l-58 -79h-102z" />
    <glyph glyph-name="Ydieresis" unicode="&#x178;" horiz-adv-x="570" 
d="M295 0h-144.001l52 275l-132 399h154l43 -171c12.667 -53.333 21.334 -94 26.001 -122h2l69 123l101 170h172l-291 -396zM256.999 711h-1.00098c-17.333 0 -32.333 6 -45 18s-19 27.333 -19 46c0 21.333 7 38.833 21 52.5s31.333 20.5 52 20.5
c18.667 0 34 -6.16699 46 -18.5s18 -27.5 18 -45.5c0 -21.333 -7.16699 -38.833 -21.5 -52.5s-31.166 -20.5 -50.499 -20.5zM463.998 711h-1.00098c-17.333 0 -32.333 6 -45 18s-19 27.333 -19 46c0 21.333 7 38.833 21 52.5s31.333 20.5 52 20.5
c18.667 0 34 -6.16699 46 -18.5s18 -27.5 18 -45.5c0 -21.333 -7.16699 -38.833 -21.5 -52.5s-31.166 -20.5 -50.499 -20.5z" />
    <glyph glyph-name="Zacute" unicode="&#x179;" horiz-adv-x="553" 
d="M-25 0l15 83l391 464v3h-274l25 124h467l-17 -89l-384 -458v-3h302l-24 -124h-501zM381 836h160l-132 -126h-122z" />
    <glyph glyph-name="zacute" unicode="&#x17a;" horiz-adv-x="450" 
d="M-26 0l16 87l159 170c39.333 41.333 79 79 119 113l1 2h-209l23 117h382l-17 -91l-155 -166c-46 -48 -85.667 -85.667 -119 -113l-1 -2h230l-23 -117h-406zM307 700h142l-130 -152h-106z" />
    <glyph glyph-name="Zdotaccent" unicode="&#x17b;" horiz-adv-x="553" 
d="M-25 0l15 83l391 464v3h-274l25 124h467l-17 -89l-384 -458v-3h302l-24 -124h-501zM368 712h-1.00098c-18 0 -33.5 6 -46.5 18s-19.5 27.333 -19.5 46c0 21.333 7.33301 39 22 53s32.334 21 53.001 21c19.333 0 35 -6.16699 47 -18.5s18 -27.833 18 -46.5
c0 -21.333 -7.16699 -38.833 -21.5 -52.5s-31.5 -20.5 -51.5 -20.5z" />
    <glyph glyph-name="zdotaccent" unicode="&#x17c;" horiz-adv-x="450" 
d="M-26 0l16 87l159 170c39.333 41.333 79 79 119 113l1 2h-209l23 117h382l-17 -91l-155 -166c-46 -48 -85.667 -85.667 -119 -113l-1 -2h230l-23 -117h-406zM290 553l-1.00098 0.000976562c-18.667 0 -34.5 6.16699 -47.5 18.5s-19.5 28.166 -19.5 47.499
c0 22.667 7.33301 41.167 22 55.5s32.667 21.5 54 21.5c20 0 36.167 -6.16699 48.5 -18.5s18.5 -28.5 18.5 -48.5c0 -22.667 -7.16699 -41 -21.5 -55s-32.166 -21 -53.499 -21z" />
    <glyph glyph-name="Zcaron" unicode="&#x17d;" horiz-adv-x="553" 
d="M-25 0l15 83l391 464v3h-274l25 124h467l-17 -89l-384 -458v-3h302l-24 -124h-501zM417 710h-109l-80 126h102l39 -64h2l59 64h111z" />
    <glyph glyph-name="zcaron" unicode="&#x17e;" horiz-adv-x="450" 
d="M-26 0l16 87l159 170c39.333 41.333 79 79 119 113l1 2h-209l23 117h382l-17 -91l-155 -166c-46 -48 -85.667 -85.667 -119 -113l-1 -2h230l-23 -117h-406zM330 548h-99l-75 152h93l40 -79h2l60 79h101z" />
    <glyph glyph-name="florin" unicode="&#x192;" horiz-adv-x="541" 
d="M117 307l14.9961 103.002h89l8 34c35.333 144.667 113 217 233 217c34 0 60.333 -6 79 -18l-36 -103c-13.333 6.66699 -29.666 10 -48.999 10c-42 0 -70.667 -32.333 -86 -97l-10 -43h102l-15 -103h-112l-44 -186c-7.33301 -31.333 -16.166 -58.833 -26.499 -82.5
s-23.666 -45.834 -39.999 -66.501s-37 -36.334 -62 -47.001s-53.5 -16 -85.5 -16c-36.667 0 -65.667 6.33301 -87 19l30 102c14.667 -6.66699 31.334 -10 50.001 -10c20.667 0 38.167 10.5 52.5 31.5s27.833 59.167 40.5 114.5l33 141h-79z" />
    <glyph glyph-name="AEacute" unicode="&#x1fc;" horiz-adv-x="845" 
d="M106 0h-154l413 674h484l-23 -123h-256l-12 -147h243l-23 -121h-225l-12 -160h254l-23 -123h-378l14 185h-194zM282 305h132.001l14 164c1.33301 25.333 4 58 8 98h-4c-26.667 -51.333 -44.334 -84.333 -53.001 -99zM563.001 836h160l-132 -126h-122z" />
    <glyph glyph-name="aeacute" unicode="&#x1fd;" horiz-adv-x="763" 
d="M677 132l3.99707 -102c-48.667 -27.333 -108.334 -41 -179.001 -41c-36.667 0 -69.334 7.66699 -98.001 23s-50 36.666 -64 63.999h-3c-46 -58 -107 -87 -183 -87c-44.667 0 -80.834 12.833 -108.501 38.5s-41.5 57.834 -41.5 96.501c0 46 16.333 84.833 49 116.5
s71.834 53.667 117.501 66s94.834 18.166 147.501 17.499l3 11c2.66699 14.667 -2.66602 28.834 -15.999 42.501s-34.666 20.5 -63.999 20.5c-48 0 -93.333 -14 -136 -42l-23 91c53.333 35.333 112.333 53 177 53c75.333 0 123.666 -26.333 144.999 -79h3
c40 52.667 97.667 79 173 79c53.333 0 94.333 -13.5 123 -40.5s43 -58.5 43 -94.5c0 -34 -8.16699 -62.333 -24.5 -85s-39.666 -39.667 -69.999 -51s-63.666 -18.833 -99.999 -22.5s-77.833 -4.5 -124.5 -2.5c-2.66699 -25.333 0.333008 -45 9 -59
c18.667 -28.667 52.334 -43 101.001 -43c45.333 0 92 10 140 30zM295.997 186l7.99902 44.0029c-15.333 0.666992 -31.333 -0.166016 -48 -2.49902s-33.5 -6.33301 -50.5 -12s-30.833 -14.334 -41.5 -26.001s-16 -25.834 -16 -42.501
c0 -14.667 4.83301 -26.334 14.5 -35.001s22.834 -13 39.501 -13c22 0 41.833 7.66699 59.5 23s29.167 36.666 34.5 63.999zM606.996 351.003v1c0 12 -4.83301 22.167 -14.5 30.5s-23.167 12.5 -40.5 12.5c-29.333 0 -53.833 -9.83301 -73.5 -29.5s-31.5 -40.5 -35.5 -62.5
c109.333 -6.66699 164 9.33301 164 48zM456.996 700.003h142l-130 -152h-106z" />
    <glyph glyph-name="Oslashacute" unicode="&#x1fe;" horiz-adv-x="702" 
d="M100 -66l-67.002 63.999l72 87c-39.333 50 -59 114.333 -59 193c0 60 10.667 116.833 32 170.5s51.333 99.5 90 137.5c67.333 66 148 99 242 99c65.333 0 118.333 -14 159 -42l73 88l73 -57l-77 -94c34 -44.667 51 -105 51 -181
c0.666992 -60 -9.66602 -117.333 -30.999 -172s-50.666 -101 -87.999 -139c-31.333 -31.333 -68.333 -55.666 -111 -72.999s-86.667 -26 -132 -26c-58 0 -107.333 12.667 -148 38zM206.998 206.999l276 333c-19.333 17.333 -46.333 26 -81 26
c-43.333 0 -82.333 -16 -117 -48s-60 -72.333 -76 -121c-21.333 -64 -23 -127.333 -5 -190h3zM531.998 452.999l-268 -322.999c18.667 -14.667 43.667 -22 75 -22c41.333 0 78.333 14.833 111 44.5s57 68.5 73 116.5c20.667 59.333 24.667 120.666 12 183.999h-3z
M450.998 840h160l-132 -126h-122z" />
    <glyph glyph-name="oslashacute" unicode="&#x1ff;" horiz-adv-x="560" 
d="M57 -56l-40 40.999l61 71c-32.667 34.667 -49 81 -49 139c0 84.667 27.333 156.667 82 216s124.334 89 209.001 89c43.333 0 80.666 -9.33301 111.999 -28l62 70l44 -38l-59 -69c33.333 -37.333 50 -83 50 -137c0 -91.333 -27.5 -165.666 -82.5 -222.999
s-121.833 -86 -200.5 -86c-50 0 -91 10.333 -123 31zM183 172.999l168.001 204c-12 12 -28.667 18 -50 18c-25.333 0 -48 -10.667 -68 -32s-34.333 -45 -43 -71s-13.334 -50.667 -14.001 -74c-1.33301 -17.333 0 -32 4 -44zM375.001 314.999l-170.001 -201
c12.667 -13.333 30.334 -20 53.001 -20c35.333 0 64.5 18.833 87.5 56.5s35.167 77.167 36.5 118.5c0 16.667 -1.33301 32 -4 46h-3zM362 699.999h142l-130 -152h-106z" />
    <glyph glyph-name="Scommaaccent" unicode="&#x218;" horiz-adv-x="510" 
d="M1 38l48.0029 117.999c48.667 -28 101.667 -42 159 -42c29.333 0 54.333 6.83301 75 20.5s31 32.834 31 57.501c0 18.667 -7 35 -21 49s-37.333 29.667 -70 47c-92.667 49.333 -139 108.333 -139 177c0 66 25.333 119 76 159s113.667 60 189 60
c62.667 0 115.334 -11 158.001 -33l-45 -120c-36.667 20 -78.334 29.667 -125.001 29c-32 0 -57 -6.83301 -75 -20.5s-27 -30.167 -27 -49.5c0 -9.33301 2.16699 -18 6.5 -26s11.666 -16.167 21.999 -24.5s20.166 -15.333 29.499 -21l40 -23.5
c88.667 -46.667 133 -106 133 -178s-25.833 -127.833 -77.5 -167.5s-116.834 -59.5 -195.501 -59.5c-86 0.666992 -150 16.667 -192 48zM111.003 -240.001l-15 65.999c20.667 3.33301 38.667 10.833 54 22.5s23 26.834 23 45.501c0 18 -6.66699 33.667 -20 47l107 18
c17.333 -14.667 26 -35.667 26 -63c0 -42.667 -17.667 -75.5 -53 -98.5s-76 -35.5 -122 -37.5z" />
    <glyph glyph-name="scommaaccent" unicode="&#x219;" horiz-adv-x="416" 
d="M-4 28l35 100.998c45.333 -22.667 88 -34 128 -34c19.333 0 34.333 4.16699 45 12.5s16 18.833 16 31.5c0 12 -4.5 22.833 -13.5 32.5s-24.833 19.834 -47.5 30.501c-68.667 34.667 -103 77.667 -103 129c0 50.667 20 91.5 60 122.5s91.667 46.5 155 46.5
c54 0 95.667 -8.33301 125 -25l-34 -102c-31.333 14 -64 21 -98 21c-19.333 0 -34.666 -3.83301 -45.999 -11.5s-17 -18.167 -17 -31.5c0 -18 19.667 -36.667 59 -56c73.333 -36.667 110 -81 110 -133c0 -54.667 -20.833 -97.167 -62.5 -127.5
s-95.834 -45.166 -162.501 -44.499c-66 1.33301 -115.667 14 -149 38zM62 -240.002l-15 65.999c20.667 3.33301 38.667 10.833 54 22.5s23 26.834 23 45.501c0 18 -6.66699 33.667 -20 47l107 18c17.333 -14.667 26 -35.667 26 -63c0 -42.667 -17.667 -75.5 -53 -98.5
s-76 -35.5 -122 -37.5z" />
    <glyph glyph-name="circumflex" unicode="&#x2c6;" 
d="M229 700h99l75 -152h-93l-40 79h-2l-58 -79h-102z" />
    <glyph glyph-name="caron" unicode="&#x2c7;" 
d="M309 548h-99l-75 152h93l40 -79h2l60 79h101z" />
    <glyph glyph-name="breve" unicode="&#x2d8;" 
d="M151 690h73c1.33301 -37.333 17 -56 47 -56c34 0 55.667 18.667 65 56h75c-6.66699 -40 -22.5 -71.667 -47.5 -95s-58.167 -35 -99.5 -35c-44 0 -75 11.833 -93 35.5s-24.667 55.167 -20 94.5z" />
    <glyph glyph-name="dotaccent" unicode="&#x2d9;" 
d="M264 553l-1.00098 0.000976562c-18.667 0 -34.5 6.16699 -47.5 18.5s-19.5 28.166 -19.5 47.499c0 22.667 7.33301 41.167 22 55.5s32.667 21.5 54 21.5c20 0 36.167 -6.16699 48.5 -18.5s18.5 -28.5 18.5 -48.5c0 -22.667 -7.16699 -41 -21.5 -55
s-32.166 -21 -53.499 -21z" />
    <glyph glyph-name="ring" unicode="&#x2da;" 
d="M278 735l1.00098 0.000976562c30.667 0 56.167 -8.16699 76.5 -24.5s30.5 -39.5 30.5 -69.5c-0.666992 -32 -12.834 -57.167 -36.501 -75.5s-52.834 -27.5 -87.501 -27.5c-29.333 0 -54.166 8.16699 -74.499 24.5s-30.833 38.166 -31.5 65.499
c-0.666992 32 10.5 57.833 33.5 77.5s52.5 29.5 88.5 29.5zM273.001 685.001l-1 -0.000976562c-14 0 -25.333 -5 -34 -15s-13 -22.667 -13 -38c0 -12 3.83301 -22.333 11.5 -31s18.167 -13 31.5 -13c14.667 0 26.5 4.83301 35.5 14.5s13.5 21.834 13.5 36.501
c0 13.333 -3.83301 24.333 -11.5 33s-18.5 13 -32.5 13z" />
    <glyph glyph-name="ogonek" unicode="&#x2db;" 
d="M126 1h82.999c-30 -32.667 -45 -61.667 -45 -87c0 -26 13.667 -39 41 -39c16.667 0 32.334 3 47.001 9l9 -71c-28 -21.333 -63 -32 -105 -32c-30.667 0 -54.5 7.5 -71.5 22.5s-25.5 36.167 -25.5 63.5c0 41.333 22.333 86 67 134z" />
    <glyph glyph-name="tilde" unicode="&#x2dc;" 
d="M194 558h-70.001c5.33301 40 16.333 71 33 93s37.667 33 63 33c18.667 0 39.334 -6.66699 62.001 -20c18.667 -12.667 31.667 -19 39 -19c8 0 14.167 3 18.5 9s8.83301 17.667 13.5 35h69c-12 -82 -44.667 -123 -98 -123c-24.667 0 -46 6.66699 -64 20
c-16 11.333 -28.667 17 -38 17c-12.667 0 -22 -15 -28 -45z" />
    <glyph glyph-name="hungarumlaut" unicode="&#x2dd;" 
d="M188 699h123l-121 -152h-86zM363 699h123l-120 -152h-87z" />
    <glyph glyph-name="uni037E" unicode="&#x37e;" horiz-adv-x="267" 
d="M62 -110l-104 -9c49.333 110 82 202.667 98 278l155 4c-40 -94.667 -89.667 -185.667 -149 -273zM161 287l-1.00098 -0.000976562c-24 0 -43.833 8.16699 -59.5 24.5s-23.5 36.833 -23.5 61.5c0 28.667 9.5 53.334 28.5 74.001s43.167 31 72.5 31
c24.667 0 45 -8.33301 61 -25s24 -37.667 24 -63c0 -30 -9.66699 -54.667 -29 -74s-43.666 -29 -72.999 -29z" />
    <glyph glyph-name="tonos" unicode="&#x384;" horiz-adv-x="336" 
d="M274 700h140l-130 -152h-104z" />
    <glyph glyph-name="dieresistonos" unicode="&#x385;" horiz-adv-x="435" 
d="M250 715h114l-97 -167h-78zM113 558l-0.999023 -0.000976562c-16 0 -29.833 5.33301 -41.5 16s-17.5 24.667 -17.5 42c0 20 6.5 36.167 19.5 48.5s29.167 18.5 48.5 18.5c17.333 0 31.333 -5.66699 42 -17s16 -25.333 16 -42c0 -19.333 -6.33301 -35.166 -19 -47.499
s-28.334 -18.5 -47.001 -18.5zM415.001 557.999l-0.999023 -0.000976562c-16 0 -29.833 5.33301 -41.5 16s-17.5 24.667 -17.5 42c0 20 6.5 36.167 19.5 48.5s29.167 18.5 48.5 18.5c17.333 0 31.333 -5.66699 42 -17s16 -25.333 16 -42
c0 -19.333 -6.33301 -35.166 -19 -47.499s-28.334 -18.5 -47.001 -18.5z" />
    <glyph glyph-name="Alphatonos" unicode="&#x386;" horiz-adv-x="618" 
d="M399 175h-194l-79 -175h-154l329 674h185l78 -674h-151zM248 285h144.999l-13 145c-1.33301 13.333 -3 35.833 -5 67.5s-3.33301 53.167 -4 64.5h-3l-23 -58.5c-13.333 -33.667 -23.666 -58.167 -30.999 -73.5zM77.999 674h119l-61 -174h-83z" />
    <glyph glyph-name="anoteleia" unicode="&#x387;" horiz-adv-x="267" 
d="M131 218l-0.998047 0.000976562c-24.667 0 -44.834 8.16699 -60.501 24.5s-23.5 37.166 -23.5 62.499c0 29.333 9.66699 54.333 29 75s43.666 31 72.999 31c25.333 0 46 -8.16699 62 -24.5s24 -37.833 24 -64.5c0 -30.667 -9.66699 -55.667 -29 -75s-44 -29 -74 -29z" />
    <glyph glyph-name="Epsilontonos" unicode="&#x388;" horiz-adv-x="571" 
d="M534 408l-24 -121h-239l-31 -164h269l-23 -123h-413l127 674h399l-24 -123h-254l-27 -143h240zM29 674h119l-61 -174h-83z" />
    <glyph glyph-name="Etatonos" unicode="&#x389;" horiz-adv-x="718" 
d="M199 674h144l-50 -262h244l50 262h145l-128 -674h-144l53 284h-245l-53 -284h-144zM28 674h119l-61 -174h-83z" />
    <glyph glyph-name="Iotatonos" unicode="&#x38a;" horiz-adv-x="328" 
d="M197 674h144l-128 -674h-143zM29 674h119l-61 -174h-83z" />
    <glyph glyph-name="Omicrontonos" unicode="&#x38c;" horiz-adv-x="744" 
d="M361 -11h-0.999023c-84.667 0 -151.334 26.5 -200.001 79.5s-73 120.167 -73 201.5c0 60.667 10.667 119 32 175s51.333 103.333 90 142c67.333 65.333 150 98 248 98c86.667 0 153.667 -26 201 -78s71 -119.667 71 -203c0 -62 -10.5 -121 -31.5 -177
s-50.167 -102.667 -87.5 -140c-65.333 -65.333 -148.333 -98 -249 -98zM380.001 109l0.999023 -0.000976562c54.667 0 100.834 31.333 138.501 94s56.5 128.334 56.5 197.001c0 48 -10.5 87.5 -31.5 118.5s-55.833 46.5 -104.5 46.5c-38 0 -72.833 -15.5 -104.5 -46.5
s-55.5 -68.333 -71.5 -112s-24 -87.5 -24 -131.5c0 -50 11.667 -90.167 35 -120.5s58.333 -45.5 105 -45.5zM28 673.999h119l-61 -174h-83z" />
    <glyph glyph-name="Upsilontonos" unicode="&#x38e;" horiz-adv-x="677" 
d="M160 560l35.001 120.005c30 -0.666992 60.667 -8.5 92 -23.5s56.666 -36.167 75.999 -63.5c42.667 -58.667 60.667 -132 54 -220h7c28.667 89.333 73 162 133 218c28.667 27.333 59.5 48.666 92.5 63.999s61.5 23.666 85.5 24.999l11 -129
c-48 -14 -96.5 -45.833 -145.5 -95.5s-87.167 -106.834 -114.5 -171.501c-18.667 -43.333 -32.667 -89 -42 -137l-27 -147h-144l27 147c9.33301 46.667 14 90.667 14 132c0.666992 75.333 -11.833 138.166 -37.5 188.499s-64.5 81.166 -116.5 92.499zM24.001 674.005h119
l-62 -174h-82z" />
    <glyph glyph-name="Omegatonos" unicode="&#x38f;" horiz-adv-x="760" 
d="M176 110l1 5c-24 23.333 -44.167 53.166 -60.5 89.499s-24.5 75.833 -24.5 118.5c0 102.667 35.667 188.667 107 258s158.333 104 261 104c88 0 157.5 -25.833 208.5 -77.5s76.5 -113.834 76.5 -186.501c0 -67.333 -16.5 -127.5 -49.5 -180.5
s-71.167 -94.833 -114.5 -125.5v-5h120l-19 -110h-288l15 88c50 32.667 92.833 75.834 128.5 129.501s53.5 116.5 53.5 188.5c0 48 -12.667 87 -38 117s-60.666 45 -105.999 45c-56.667 0 -104.834 -26.167 -144.501 -78.5s-59.5 -118.833 -59.5 -199.5
c0 -43.333 7.66699 -82.666 23 -117.999s36 -63.333 62 -84l-15 -88h-288l20 110h131zM28 674h119l-61 -174h-83z" />
    <glyph glyph-name="iotadieresistonos" unicode="&#x390;" horiz-adv-x="265" 
d="M243 489l-64 -339c-3.33301 -18.667 -2.33301 -31.667 3 -39s16 -10.333 32 -9l-27 -105c-17.333 -5.33301 -36.333 -8 -57 -8c-68 0 -102 32.667 -102 98c0 19.333 3.33301 45 10 77l61 325h144zM183 711h114l-96 -168h-79zM46 553l-1.00098 0.000976562
c-16 0 -29.5 5.16699 -40.5 15.5s-16.5 24.166 -16.5 41.499c0 18.667 6.33301 34 19 46s28 18 46 18c16.667 0 30.167 -5.5 40.5 -16.5s15.5 -24.5 15.5 -40.5c0 -18.667 -6.16699 -34 -18.5 -46s-27.166 -18 -44.499 -18zM347.999 553.001l-1.00098 0.000976562
c-16 0 -29.5 5.16699 -40.5 15.5s-16.5 24.166 -16.5 41.499c0 18.667 6.33301 34 19 46s28 18 46 18c16.667 0 30.167 -5.5 40.5 -16.5s15.5 -24.5 15.5 -40.5c0 -18.667 -6.16699 -34 -18.5 -46s-27.166 -18 -44.499 -18z" />
    <glyph glyph-name="Alpha" unicode="&#x391;" horiz-adv-x="618" 
d="M399 175h-194l-79 -175h-154l329 674h185l78 -674h-151zM248 285h144.999l-13 145c-1.33301 13.333 -3 35.833 -5 67.5s-3.33301 53.167 -4 64.5h-3l-23 -58.5c-13.333 -33.667 -23.666 -58.167 -30.999 -73.5z" />
    <glyph glyph-name="Beta" unicode="&#x392;" horiz-adv-x="582" 
d="M20 7l124 656.001c51.333 10.667 110.333 16 177 16c70.667 0 126.334 -11.667 167.001 -35c23.333 -12 42.166 -28.833 56.499 -50.5s21.5 -46.167 21.5 -73.5c0 -40 -12.667 -73.833 -38 -101.5s-58 -47.167 -98 -58.5v-3c32.667 -10 58.5 -27.833 77.5 -53.5
s28.5 -56.834 28.5 -93.501c0 -66 -30.667 -119.333 -92 -160c-53.333 -36.667 -138 -55 -254 -55c-75.333 0 -132 4 -170 12zM268 563.001l-30 -157h48c40 0 72.167 8.16699 96.5 24.5s36.5 38.5 36.5 66.5c0 46.667 -31.333 70 -94 70c-23.333 0 -42.333 -1.33301 -57 -4z
M216 301.001l-35.999 -191c11.333 -1.33301 29.666 -2 54.999 -2c42.667 0 78.167 8.83301 106.5 26.5s42.5 44.167 42.5 79.5c0 58 -41 87 -123 87h-45z" />
    <glyph glyph-name="Gamma" unicode="&#x393;" horiz-adv-x="476" 
d="M147 674h399l-24 -123h-252l-105 -551h-146z" />
    <glyph glyph-name="Delta" unicode="&#x394;" horiz-adv-x="636" 
d="M-27 0l13 77l323 597h178l102 -597l-13 -77h-603zM155 117h277l-44 288c-2.66699 17.333 -6 44.5 -10 81.5s-6.33301 58.833 -7 65.5h-4c-21.333 -51.333 -42 -97 -62 -137z" />
    <glyph glyph-name="Delta" unicode="&#xe000;" horiz-adv-x="636" 
d="M-27 0l13 77l323 597h178l102 -597l-13 -77h-603zM155 117h277l-44 288c-2.66699 17.333 -6 44.5 -10 81.5s-6.33301 58.833 -7 65.5h-4c-21.333 -51.333 -42 -97 -62 -137z" />
    <glyph glyph-name="Epsilon" unicode="&#x395;" horiz-adv-x="517" 
d="M481 408l-24 -121h-239l-31 -164h269l-23 -123h-414l128 674h399l-24 -123h-254l-28 -143h241z" />
    <glyph glyph-name="Zeta" unicode="&#x396;" horiz-adv-x="553" 
d="M-25 0l15 83l391 464v3h-274l25 124h467l-17 -89l-384 -458v-3h302l-24 -124h-501z" />
    <glyph glyph-name="Eta" unicode="&#x397;" horiz-adv-x="666" 
d="M147 674h144l-50 -262h244l50 262h145l-128 -674h-144l53 284h-245l-53 -284h-144z" />
    <glyph glyph-name="Theta" unicode="&#x398;" horiz-adv-x="705" 
d="M322 -11h-0.999023c-84.667 0 -151.334 26.5 -200.001 79.5s-73 120.167 -73 201.5c0 61.333 10.667 120 32 176s51.333 103 90 141c67.333 65.333 150 98 248 98c86.667 0 153.667 -26 201 -78s71 -119.667 71 -203c0 -62 -10.333 -121.167 -31 -177.5
s-50 -102.833 -88 -139.5c-65.333 -65.333 -148.333 -98 -249 -98zM341.001 108h0.999023c36.667 0 70.5 15.667 101.5 47s54.5 69 70.5 113s24 87.667 24 131c0 48.667 -10.667 88.667 -32 120s-56.333 47 -105 47c-38 0 -72.833 -15.5 -104.5 -46.5
s-55.667 -68.5 -72 -112.5s-24.5 -88 -24.5 -132c0 -50 11.833 -90.333 35.5 -121s58.834 -46 105.501 -46zM278 401h206l-20 -114h-205z" />
    <glyph glyph-name="Iota" unicode="&#x399;" horiz-adv-x="274" 
d="M144 674h144l-128 -674h-144z" />
    <glyph glyph-name="Kappa" unicode="&#x39a;" horiz-adv-x="590" 
d="M19 0l128 674h142l-57 -301h3c4 6 24 31.667 60 77l187 224h180l-273 -291l156 -383h-156l-113 293l-72 -68l-43 -225h-142z" />
    <glyph glyph-name="Lambda" unicode="&#x39b;" horiz-adv-x="618" 
d="M564 0h-154.999l-35 403l-3.5 71c-1.66699 33.333 -2.83398 59 -3.50098 77h-3c-18 -52 -37.333 -101.333 -58 -148l-178 -403h-158l327 674h187z" />
    <glyph glyph-name="Mu" unicode="&#x39c;" horiz-adv-x="821" 
d="M722 0l-139.999 -0.00292969l41 278c14 92.667 29 180.334 45 263.001h-3c-42 -98 -80.667 -182.667 -116 -254l-138 -276h-112l-24 273c-5.33301 65.333 -10.333 151 -15 257h-2c-4.66699 -20.667 -10.834 -49.667 -18.501 -87l-20.5 -100
c-6 -29.333 -11.667 -54.666 -17 -75.999l-67 -278h-132l169 674h193l21 -257c8 -121.333 12 -192.666 12 -213.999h4c20 58 50.333 129.667 91 215l125 256h195z" />
    <glyph glyph-name="Nu" unicode="&#x39d;" horiz-adv-x="666" 
d="M153 0h-134l128 674h169l89 -257c24 -76.667 44.333 -153.334 61 -230.001h3c2.66699 62.667 13 143.334 31 242.001l46 245h135l-128 -674h-149l-94 269c-29.333 90 -51.333 168.333 -66 235h-3c-6 -58.667 -20.333 -148 -43 -268z" />
    <glyph glyph-name="Xi" unicode="&#x39e;" horiz-adv-x="561" 
d="M128 674h460l-20 -120h-460zM112 405h396l-20 -120h-396zM15 122h488l-20 -122h-488z" />
    <glyph glyph-name="Omicron" unicode="&#x39f;" horiz-adv-x="705" 
d="M322 -11h-0.999023c-84.667 0 -151.334 26.5 -200.001 79.5s-73 120.167 -73 201.5c0 60.667 10.667 119 32 175s51.333 103.333 90 142c67.333 65.333 150 98 248 98c86.667 0 153.667 -26 201 -78s71 -119.667 71 -203c0 -62 -10.5 -121 -31.5 -177
s-50.167 -102.667 -87.5 -140c-65.333 -65.333 -148.333 -98 -249 -98zM341.001 109l0.999023 -0.000976562c54.667 0 100.834 31.333 138.501 94s56.5 128.334 56.5 197.001c0 48 -10.5 87.5 -31.5 118.5s-55.833 46.5 -104.5 46.5c-38 0 -72.833 -15.5 -104.5 -46.5
s-55.5 -68.333 -71.5 -112s-24 -87.5 -24 -131.5c0 -50 11.667 -90.167 35 -120.5s58.333 -45.5 105 -45.5z" />
    <glyph glyph-name="Pi" unicode="&#x3a0;" horiz-adv-x="653" 
d="M668 674l-127 -674h-143l103 553h-234l-104 -553h-144l127 674h522z" />
    <glyph glyph-name="Rho" unicode="&#x3a1;" horiz-adv-x="559" 
d="M19 0l124.999 662c45.333 11.333 104 17 176 17c77.333 0 137 -15 179 -45c48.667 -32 73 -79.667 73 -143c0 -80 -30.333 -143.333 -91 -190c-54 -42 -126 -63 -216 -63c-7.33301 0 -14.5 0.166992 -21.5 0.5s-14.167 1 -21.5 2s-12.666 1.5 -15.999 1.5l-46 -242h-141z
M265.999 560l-38.001 -200c16.667 -3.33301 35.334 -5 56.001 -5c42 0 76.333 12 103 36s40 53 40 87c0 57.333 -34 86 -102 86c-23.333 0 -43 -1.33301 -59 -4z" />
    <glyph glyph-name="Sigma" unicode="&#x3a3;" horiz-adv-x="558" 
d="M200 126l1 -4h310l-21 -122h-507l13 87l242 250l-149 236l17 101h470l-20 -121h-288l-1 -4l138 -217z" />
    <glyph glyph-name="Tau" unicode="&#x3a4;" horiz-adv-x="527" 
d="M141 0l104 548h-178l25 126h501l-24 -126h-180l-104 -548h-144z" />
    <glyph glyph-name="Upsilon" unicode="&#x3a5;" horiz-adv-x="557" 
d="M43 560l35.001 120.005c30 -0.666992 60.667 -8.5 92 -23.5s56.666 -36.167 75.999 -63.5c42.667 -58.667 60.667 -132 54 -220h7c28.667 89.333 73 162 133 218c28.667 27.333 59.5 48.666 92.5 63.999s61.5 23.666 85.5 24.999l11 -129
c-48 -14 -96.5 -45.833 -145.5 -95.5s-87.167 -106.834 -114.5 -171.501c-18.667 -43.333 -32.667 -89.333 -42 -138l-27 -146h-144l27 147c9.33301 46.667 14 90.667 14 132c0.666992 75.333 -11.833 138.166 -37.5 188.499s-64.5 81.166 -116.5 92.499z" />
    <glyph glyph-name="Phi" unicode="&#x3a6;" horiz-adv-x="766" 
d="M263 -29l11.002 56.999c-64.667 9.33301 -118.5 36.833 -161.5 82.5s-64.5 104.834 -64.5 177.501c0 56 11.167 107.5 33.5 154.5s50.833 84.833 85.5 113.5s71.5 51 110.5 67s76.833 24.333 113.5 25l10 54h135l-10 -54c63.333 -8.66699 116.666 -36 159.999 -82
s65 -105 65 -177c0 -55.333 -10.333 -106 -31 -152s-47.667 -83.5 -81 -112.5s-69.833 -51.833 -109.5 -68.5s-79.834 -26 -120.501 -28l-11 -57h-135zM294.002 131.999l76.999 413c-41.333 -2 -81.166 -27.5 -119.499 -76.5s-57.5 -108.5 -57.5 -178.5
c0 -42 9.33301 -77.167 28 -105.5s42.667 -45.833 72 -52.5zM506.001 544.999l-78.002 -413.999c44.667 4 85.334 29.5 122.001 76.5s55 107.167 55 180.5c0 42.667 -9.16699 78.167 -27.5 106.5s-42.166 45.166 -71.499 50.499z" />
    <glyph glyph-name="Chi" unicode="&#x3a7;" horiz-adv-x="569" 
d="M517 0h-153l-46 136l-36 115h-2c-6.66699 -10.667 -17.167 -29 -31.5 -55l-36.5 -65l-80 -131h-173l252 344l-118 330h152l41 -129c16 -56 26.333 -93.333 31 -112h3l64 114l78 127h172l-246 -331z" />
    <glyph glyph-name="Psi" unicode="&#x3a8;" horiz-adv-x="691" 
d="M737 674l-39.001 -211c-17.333 -89.333 -52 -157.333 -104 -204s-117.333 -71.667 -196 -75l-34 -184h-135l35 184c-58 6 -106.667 25.167 -146 57.5s-59 79.5 -59 141.5c0 19.333 2.66699 44.333 8 75l41 216h139l-37 -200c-6 -29.333 -9 -53.666 -9 -72.999
c0 -34.667 6.83301 -60 20.5 -76s34.5 -26 62.5 -30l72 379h133l-71 -380c37.333 4 67.833 20.667 91.5 50s41.834 78.666 54.501 147.999l34 182h139z" />
    <glyph glyph-name="Omega" unicode="&#x3a9;" horiz-adv-x="721" 
d="M137 110l0.999023 5.00098c-24 23.333 -44.167 53.166 -60.5 89.499s-24.5 75.833 -24.5 118.5c0 102.667 35.667 188.667 107 258s158 104 260 104c88 0 157.5 -25.833 208.5 -77.5s76.5 -113.834 76.5 -186.501c0 -67.333 -16.5 -127.5 -49.5 -180.5
s-71.5 -94.833 -115.5 -125.5v-5h121l-19 -110h-288l15 88c50 32 92.833 75 128.5 129s53.5 117 53.5 189c0 48 -12.667 87 -38 117s-60.666 45 -105.999 45c-56.667 0 -104.667 -26.167 -144 -78.5s-59 -118.833 -59 -199.5c0 -43.333 7.66699 -82.666 23 -117.999
s36 -63.333 62 -84l-15 -88h-288l20 110h131z" />
    <glyph glyph-name="Omega" unicode="&#x2126;" horiz-adv-x="721" 
d="M137 110l0.999023 5.00098c-24 23.333 -44.167 53.166 -60.5 89.499s-24.5 75.833 -24.5 118.5c0 102.667 35.667 188.667 107 258s158 104 260 104c88 0 157.5 -25.833 208.5 -77.5s76.5 -113.834 76.5 -186.501c0 -67.333 -16.5 -127.5 -49.5 -180.5
s-71.5 -94.833 -115.5 -125.5v-5h121l-19 -110h-288l15 88c50 32 92.833 75 128.5 129s53.5 117 53.5 189c0 48 -12.667 87 -38 117s-60.666 45 -105.999 45c-56.667 0 -104.667 -26.167 -144 -78.5s-59 -118.833 -59 -199.5c0 -43.333 7.66699 -82.666 23 -117.999
s36 -63.333 62 -84l-15 -88h-288l20 110h131z" />
    <glyph glyph-name="Iotadieresis" unicode="&#x3aa;" horiz-adv-x="274" 
d="M122 713h-1c-17.333 0 -32.333 6 -45 18s-19 27.333 -19 46c0 21.333 7 38.833 21 52.5s31.333 20.5 52 20.5c19.333 0 34.833 -6 46.5 -18s17.5 -27.333 17.5 -46c0 -22 -7 -39.667 -21 -53s-31 -20 -51 -20zM330 713h-1c-17.333 0 -32.333 6 -45 18s-19 27.333 -19 46
c0 21.333 7 38.833 21 52.5s31.333 20.5 52 20.5c19.333 0 34.833 -6 46.5 -18s17.5 -27.333 17.5 -46c0 -22 -7 -39.667 -21 -53s-31 -20 -51 -20zM143 674h145l-128 -674h-144z" />
    <glyph glyph-name="Upsilondieresis" unicode="&#x3ab;" horiz-adv-x="557" 
d="M253 699h-1c-17.333 0 -32.333 6 -45 18s-19 27.333 -19 46c0 21.333 7 38.833 21 52.5s31.333 20.5 52 20.5c19.333 0 34.833 -6 46.5 -18s17.5 -27.333 17.5 -46c0 -22 -7 -39.667 -21 -53s-31 -20 -51 -20zM460 699h-1c-17.333 0 -32.333 6 -45 18s-19 27.333 -19 46
c0 21.333 7 38.833 21 52.5s31.333 20.5 52 20.5c19.333 0 34.833 -6 46.5 -18s17.5 -27.333 17.5 -46c0 -22 -7 -39.667 -21 -53s-31 -20 -51 -20zM43 560l35.001 120.005c30 -0.666992 60.667 -8.5 92 -23.5s56.666 -36.167 75.999 -63.5
c42.667 -58.667 60.667 -132 54 -220h7c28.667 89.333 73 162 133 218c28.667 27.333 59.5 48.666 92.5 63.999s61.5 23.666 85.5 24.999l11 -129c-48 -14 -96.5 -45.833 -145.5 -95.5s-87.167 -106.834 -114.5 -171.501c-18.667 -43.333 -32.667 -89.333 -42 -138l-27 -146
h-144l27 147c9.33301 46.667 14 90.667 14 132c0.666992 75.333 -11.833 138.166 -37.5 188.499s-64.5 81.166 -116.5 92.499z" />
    <glyph glyph-name="alphatonos" unicode="&#x3ac;" horiz-adv-x="576" 
d="M376 700h140l-131 -152h-103zM363 78l-2.99902 -0.000976562c-44 -59.333 -100.333 -89 -169 -89c-47.333 0 -86.333 16.5 -117 49.5s-46 77.833 -46 134.5c0 47.333 8.16699 92 24.5 134s37.166 76.667 62.499 104s53 49 83 65s59 24 87 24
c65.333 0 108 -24.333 128 -73h4c5.33301 18 13 38.667 23 62h121c-8.66699 -33.333 -17.334 -69.666 -26.001 -108.999c-24 -106 -39 -175.333 -45 -208c-5.33301 -26.667 -5 -45.5 1 -56.5s16.333 -15.833 31 -14.5l-27 -105c-11.333 -4.66699 -26 -7 -44 -7
c-53.333 0 -82.666 29.667 -87.999 89zM177.001 190.999l-0.000976562 -1c0 -26 6.16699 -47 18.5 -63s29.5 -24 51.5 -24s42.5 9.5 61.5 28.5s32.833 41.167 41.5 66.5c4.66699 11.333 9.33398 29 14.001 53c4 21.333 6 37.666 6 48.999c0 26.667 -6 48.334 -18 65.001
s-29.333 25 -52 25c-32 0 -60.5 -20.667 -85.5 -62s-37.5 -87 -37.5 -137z" />
    <glyph glyph-name="epsilontonos" unicode="&#x3ad;" horiz-adv-x="437" 
d="M302 700h139l-130 -152h-103zM346 207l-45.9971 0.000976562c-86 0 -129 -20.333 -129 -61c0 -14.667 8.33301 -26.167 25 -34.5s37.667 -12.5 63 -12.5c44.667 0 88.667 9.33301 132 28l5 -99c-48 -26 -109.667 -39 -185 -39c-57.333 0 -104.666 10.5 -141.999 31.5
s-56 52.833 -56 95.5c0 37.333 12.5 68.666 37.5 93.999s54.167 41 87.5 47l1 5c-24.667 7.33301 -43.334 19 -56.001 35s-19 34 -19 54c0 40.667 20.667 75.667 62 105s96.666 44 165.999 44c65.333 0 114.666 -12.333 147.999 -37l-34 -90
c-26.667 16.667 -61.334 25 -104.001 25c-28 0 -50.333 -5 -67 -15s-25 -22.333 -25 -37c0 -30 36.667 -45 110 -45h42z" />
    <glyph glyph-name="etatonos" unicode="&#x3ae;" horiz-adv-x="563" 
d="M362 700h140l-131 -152h-103zM218 408l3.00195 0.000976562c44.667 61.333 101.667 92 171 92c39.333 0 70.166 -11.667 92.499 -35s33.5 -56.333 33.5 -99c0 -26.667 -2.66699 -54 -8 -82l-58 -302c-16.667 -92 -24 -152 -22 -180h-136
c-8.66699 21.333 -3.66699 81.666 15 180.999l54 288c3.33301 23.333 5 41.333 5 54c0 39.333 -16.333 59 -49 59c-24.667 0 -48.834 -15 -72.501 -45s-40.167 -70.667 -49.5 -122l-40 -217h-144l62 330c13.333 76.667 18.333 129.667 15 159h125c6 -20 7 -47 3 -81z" />
    <glyph glyph-name="iotatonos" unicode="&#x3af;" horiz-adv-x="265" 
d="M224 700h139l-130 -152h-103zM243 489l-64.001 -337.998c-3.33301 -18.667 -2.33301 -31.834 3 -39.501s16 -10.834 32 -9.50098l-27 -105c-17.333 -5.33301 -36.666 -8 -57.999 -8c-67.333 0 -101 32.333 -101 97c0 16 3.33301 42 10 78l61 325h144z" />
    <glyph glyph-name="upsilondieresistonos" unicode="&#x3b0;" horiz-adv-x="536" 
d="M368 489l133.001 -0.000976562c9.33301 -22 14 -52.333 14 -91c0 -46.667 -6 -93.334 -18 -140.001s-29.5 -90.5 -52.5 -131.5s-53.667 -74.167 -92 -99.5s-81.5 -38 -129.5 -38c-57.333 0 -102.833 14.5 -136.5 43.5s-50.5 69.167 -50.5 120.5
c0 11.333 3.66699 39 11 83l16 85c17.333 84.667 24 140.667 20 168h138c8.66699 -16 8.66699 -47 0 -93l-26 -142c-8 -37.333 -12 -62.666 -12 -75.999c0 -21.333 5.83301 -38.666 17.5 -51.999s26.5 -20 44.5 -20c37.333 0 68.166 32 92.499 96s36.5 133.333 36.5 208
c0 34 -2 60.333 -6 79zM293.001 710.999h114l-97 -168h-79zM156.001 552.999l-1.00098 0.000976562c-16 0 -29.5 5.16699 -40.5 15.5s-16.5 24.166 -16.5 41.499c0 18.667 6.33301 34 19 46s28 18 46 18c16.667 0 30.167 -5.5 40.5 -16.5s15.5 -24.5 15.5 -40.5
c0 -18.667 -6.16699 -34 -18.5 -46s-27.166 -18 -44.499 -18zM458 553l-1.00098 0.000976562c-16 0 -29.5 5.16699 -40.5 15.5s-16.5 24.166 -16.5 41.499c0 18.667 6.33301 34 19 46s28 18 46 18c16.667 0 30.167 -5.5 40.5 -16.5s15.5 -24.5 15.5 -40.5
c0 -18.667 -6.16699 -34 -18.5 -46s-27.166 -18 -44.499 -18z" />
    <glyph glyph-name="alpha" unicode="&#x3b1;" horiz-adv-x="576" 
d="M363 78l-2.99902 -0.000976562c-44 -59.333 -100.333 -89 -169 -89c-47.333 0 -86.333 16.5 -117 49.5s-46 77.833 -46 134.5c0 47.333 8.16699 92 24.5 134s37.166 76.667 62.499 104s53 49 83 65s59 24 87 24c65.333 0 108 -24.333 128 -73h4
c5.33301 18 13 38.667 23 62h121c-8.66699 -33.333 -17.334 -69.666 -26.001 -108.999c-24 -106 -39 -175.333 -45 -208c-5.33301 -26.667 -5 -45.5 1 -56.5s16.333 -15.833 31 -14.5l-27 -105c-11.333 -4.66699 -26 -7 -44 -7c-53.333 0 -82.666 29.667 -87.999 89z
M177.001 190.999l-0.000976562 -1c0 -26 6.16699 -47 18.5 -63s29.5 -24 51.5 -24s42.5 9.5 61.5 28.5s32.833 41.167 41.5 66.5c4.66699 11.333 9.33398 29 14.001 53c4 21.333 6 37.666 6 48.999c0 26.667 -6 48.334 -18 65.001s-29.333 25 -52 25
c-32 0 -60.5 -20.667 -85.5 -62s-37.5 -87 -37.5 -137z" />
    <glyph glyph-name="beta" unicode="&#x3b2;" horiz-adv-x="562" 
d="M126 -198h-133c-9.33301 28.667 -5 88.334 13 179.001l80 430c22.667 120 61.667 203.667 117 251c46.667 39.333 100.334 59 161.001 59c53.333 0 95.5 -15.333 126.5 -46s46.5 -68.334 46.5 -113.001c0 -40 -9.83301 -75.333 -29.5 -106s-46.167 -54 -79.5 -70l-1 -5
c29.333 -8 53.833 -26.5 73.5 -55.5s29.5 -63.5 29.5 -103.5c0 -66 -23.333 -121.333 -70 -166s-100.667 -67 -162 -67c-60.667 0 -106.667 15.667 -138 47h-3l-11 -60c-14.667 -81.333 -21.334 -139.333 -20.001 -174zM273 319l16.999 90c7.33301 0 13 0.666992 17 2
c27.333 4.66699 50 18.167 68 40.5s27 49.833 27 82.5c0 21.333 -5.16699 39 -15.5 53s-24.833 21 -43.5 21c-52.667 0 -89.667 -55.333 -111 -166l-54 -290c22.667 -36 54.334 -54 95.001 -54c31.333 0 57.5 11.833 78.5 35.5s31.5 52.5 31.5 86.5
c0 27.333 -8.16699 49.833 -24.5 67.5s-37.5 28.167 -63.5 31.5h-22z" />
    <glyph glyph-name="gamma" unicode="&#x3b3;" horiz-adv-x="483" 
d="M211 -198l-141.002 0.000976562c24 116.667 36 204.334 36 263.001c0 64.667 -9.66699 137 -29 217s-41 149 -65 207h159c14.667 -34 27.667 -82.5 39 -145.5s17.333 -125.833 18 -188.5h4c64.667 104 105.334 200.333 122.001 289c2.66699 21.333 4 36.333 4 45h142
c0 -14.667 -1.33301 -31.334 -4 -50.001c-10.667 -57.333 -37.5 -123.5 -80.5 -198.5s-96.167 -147.833 -159.5 -218.5c-7.33301 -8.66699 -11.666 -18.334 -12.999 -29.001c-20 -120 -30.667 -183.667 -32 -191z" />
    <glyph glyph-name="delta" unicode="&#x3b4;" horiz-adv-x="551" 
d="M522 653l-49.998 -83.999c-36 32.667 -72.667 49 -110 49c-29.333 0 -44 -10 -44 -30c0 -13.333 17 -35.333 51 -66l57 -55c62.667 -59.333 94 -124.333 94 -195c0 -76 -25.833 -142.167 -77.5 -198.5s-118.834 -84.5 -201.501 -84.5c-63.333 0 -115.333 19.667 -156 59
s-61 89.666 -61 150.999c0 66 19.833 122.167 59.5 168.5s87.167 81.166 142.5 104.499v4l-19 22c-27.333 30.667 -41 60.334 -41 89.001c0 37.333 16.667 69 50 95s75 39 125 39c75.333 0 135.666 -22.667 180.999 -68zM326.002 366.001l-33.999 34.998
c-34.667 -18 -63.167 -44.167 -85.5 -78.5s-33.5 -74.166 -33.5 -119.499c0 -32 8.16699 -58.333 24.5 -79s37.166 -31 62.499 -31c30.667 0 57.167 14.667 79.5 44s33.5 66 33.5 110c0 48.667 -15.667 88.334 -47 119.001z" />
    <glyph glyph-name="epsilon" unicode="&#x3b5;" horiz-adv-x="437" 
d="M346 207l-45.998 0.000976562c-86 0 -129 -20.333 -129 -61c0 -14.667 8.33301 -26.167 25 -34.5s37.667 -12.5 63 -12.5c44.667 0 88.667 9.33301 132 28l5 -100c-46.667 -25.333 -108.334 -38 -185.001 -38c-57.333 0 -104.666 10.5 -141.999 31.5s-56 52.833 -56 95.5
c0 37.333 12.5 68.666 37.5 93.999s54.167 41 87.5 47l1 5c-24.667 7.33301 -43.334 19 -56.001 35s-19 34 -19 54c0 40.667 20.667 75.667 62 105s96.666 44 165.999 44c66 0 115.333 -12.667 148 -38l-34 -89c-29.333 16.667 -64 25 -104 25c-28 0 -50.333 -5 -67 -15
s-25 -22.333 -25 -37c0 -30 37 -45 111 -45h41z" />
    <glyph glyph-name="zeta" unicode="&#x3b6;" horiz-adv-x="427" 
d="M476 706l2.99902 -95c-68 -34 -134.833 -89.333 -200.5 -166s-98.5 -149.667 -98.5 -219c0 -54.667 22.667 -93.334 68 -116.001c26 -16 71.667 -28.667 137 -38c5.33301 -0.666992 8 -4.66699 8 -12c0 -24 -11.5 -59.167 -34.5 -105.5s-47.167 -82.166 -72.5 -107.499
l-87 30c7.33301 11.333 15.833 27.666 25.5 48.999s15.834 38.333 18.501 51c-34 6.66699 -64.667 16.334 -92 29.001c-82 36 -123 99.333 -123 190c0 71.333 26.167 145 78.5 221s112.833 136 181.5 180v4c-5.33301 0 -14 0.166992 -26 0.5s-21 0.5 -27 0.5
c-44 0 -75.667 5.33301 -95 16l27 94c20 -4 63 -6 129 -6h180z" />
    <glyph glyph-name="eta" unicode="&#x3b7;" horiz-adv-x="563" 
d="M218 408h3.00098c44.667 61.333 101.667 92 171 92c39.333 0 70.166 -11.667 92.499 -35s33.5 -56.333 33.5 -99c0 -26.667 -2.66699 -54 -8 -82l-58 -302c-16.667 -92.667 -24 -152.667 -22 -180h-136c-8.66699 18.667 -3.66699 79 15 181l54 288
c3.33301 23.333 5 41.333 5 54c0 39.333 -16.333 59 -49 59c-24.667 0 -48.667 -14.833 -72 -44.5s-40 -70.5 -50 -122.5l-41 -217h-144l62 330c14.667 75.333 19.667 128.333 15 159h126c6 -20 7 -47 3 -81z" />
    <glyph glyph-name="theta" unicode="&#x3b8;" horiz-adv-x="555" 
d="M238 -11l-1.00098 0.000976562c-64.667 0 -114.5 20.667 -149.5 62s-52.5 101 -52.5 179c0 56 7 114 21 174c22.667 92.667 59.834 168.667 111.501 228s114.5 89 188.5 89c62.667 0 110.667 -21.333 144 -64s50 -98.334 50 -167.001c0 -46 -4.66699 -94 -14 -144
c-20 -104 -55.5 -189.5 -106.5 -256.5s-114.833 -100.5 -191.5 -100.5zM202.999 413.001h199.998c5.33301 36 8 66 8 90c0 36 -6 64.333 -18 85s-29.667 31 -53 31c-33.333 0 -61.666 -19 -84.999 -57s-40.666 -87.667 -51.999 -149zM383.997 310.001h-200.001
c-6.66699 -42 -10 -75.667 -10 -101c0 -37.333 6.66699 -66.333 20 -87s32 -31 56 -31c62.667 0 107.334 73 134.001 219z" />
    <glyph glyph-name="iota" unicode="&#x3b9;" horiz-adv-x="265" 
d="M243 489l-64 -337.998c-3.33301 -18.667 -2.33301 -31.834 3 -39.501s16 -10.834 32 -9.50098l-27 -105c-16 -5.33301 -35 -8 -57 -8c-68.667 0 -103 33.333 -103 100c0 10 4 35.667 12 77l61 323h143z" />
    <glyph glyph-name="kappa" unicode="&#x3ba;" horiz-adv-x="522" 
d="M333 265l-0.999023 -3.99902c18.667 -7.33301 34.167 -20.833 46.5 -40.5s25.5 -47.834 39.5 -84.501l52 -136h-157l-33 96c-12.667 36 -24.334 62.333 -35.001 79s-25 25 -43 25h-8l-36 -200h-144l67 358c12.667 69.333 16.667 113 12 131h136
c10.667 -14.667 11.667 -45 3 -91l-21 -112h4l60 67.5l65.5 76l50.5 59.5h164v-5z" />
    <glyph glyph-name="lambda" unicode="&#x3bb;" horiz-adv-x="475" 
d="M290 0l-29 235.998c-5.33301 40.667 -8.66602 70 -9.99902 88h-6c-14.667 -40 -26.334 -70.333 -35.001 -91l-102 -233h-151l237 457c6.66699 13.333 10 23 10 29c0 2 -0.666992 8.33301 -2 19c-11.333 64.667 -39.333 97.334 -84 98.001h-18l29 109
c13.333 4 29 5.33301 47 4c50.667 -2.66699 88.167 -22.667 112.5 -60s43.833 -94.666 58.5 -171.999l90 -484h-147z" />
    <glyph glyph-name="uni03BC" unicode="&#x3bc;" horiz-adv-x="559" 
d="M244 489l-51.001 -274.002c-14 -72.667 3.66699 -109 53 -109c16.667 0 32.834 7.66699 48.501 23s28.5 33 38.5 53c6.66699 12.667 11 25.334 13 38.001l52 269h144l-62 -328c-4 -22 -3.66699 -37.167 1 -45.5s14.334 -13.166 29.001 -14.499l-27 -104
c-16 -5.33301 -32 -8 -48 -8c-52.667 0 -82.334 30.333 -89.001 91h-3c-32.667 -58 -74 -87 -124 -87c-33.333 0 -57 10.333 -71 31l-8 -45c-14.667 -84 -21.667 -143 -21 -177h-129c-6 25.333 -0.666992 85.333 16 180l95 507h143z" />
    <glyph glyph-name="nu" unicode="&#x3bd;" horiz-adv-x="483" 
d="M28 489l154.003 0.000976562c11.333 -114.667 18.666 -190 21.999 -226c1.33301 -14 3 -34.333 5 -61s3.33301 -47 4 -61h5c71.333 120 114.666 219.667 129.999 299c2 13.333 3.66699 29.666 5 48.999h140c0 -18.667 -1 -33.334 -3 -44.001
c-20.667 -115.333 -102.334 -263.666 -245.001 -444.999h-137c-41.333 259.333 -68 422.333 -80 489z" />
    <glyph glyph-name="xi" unicode="&#x3be;" horiz-adv-x="452" 
d="M390 333l-32 0.000976562c-55.333 0 -99.333 -11.667 -132 -35s-49 -54 -49 -92c0 -55.333 37 -92.333 111 -111c30.667 -8.66699 71.667 -16.667 123 -24c5.33301 -0.666992 8 -4.66699 8 -12c0 -21.333 -12.667 -56.666 -38 -105.999s-48.333 -84.333 -69 -105l-88 30
c22 38.667 36.333 71.667 43 99c-29.333 4 -55.333 10 -78 18c-19.333 5.33301 -37.666 12.5 -54.999 21.5s-35 20.667 -53 35s-32.333 32.666 -43 54.999s-16 47.166 -16 74.499c0 54 17.5 100.667 52.5 140s76.167 64.666 123.5 75.999v6
c-25.333 11.333 -45.666 28 -60.999 50s-23 46.333 -23 73c0 54.667 22.667 100.834 68 138.501s105.666 56.5 180.999 56.5c56 0 101 -10.667 135 -32l-36 -93c-24 14.667 -53.333 22 -88 22c-34 0 -61.5 -9.33301 -82.5 -28s-31.5 -42 -31.5 -70
c0 -51.333 39 -80.333 117 -87c7.33301 -0.666992 17.666 -1 30.999 -1z" />
    <glyph glyph-name="omicron" unicode="&#x3bf;" horiz-adv-x="559" 
d="M237 -11l-1 -0.000976562c-62.667 0 -113 18.5 -151 55.5s-57 85.833 -57 146.5c0 86 27.333 159 82 219s124.667 90 210 90c64 0 114.667 -19.167 152 -57.5s56 -86.5 56 -144.5c0 -89.333 -27.5 -163.166 -82.5 -221.499s-124.5 -87.5 -208.5 -87.5zM255 98.999
l1 -0.000976562c36 0 65.5 21.333 88.5 64s34.5 87.334 34.5 134.001c0 26 -6.16699 48 -18.5 66s-31.833 27 -58.5 27c-38 0 -68.333 -21.5 -91 -64.5s-34 -86.833 -34 -131.5c0 -28.667 7 -51.667 21 -69s33 -26 57 -26z" />
    <glyph glyph-name="pi" unicode="&#x3c0;" horiz-adv-x="573" 
d="M570 377l-60.999 -0.000976562l-41 -220c-14 -75.333 -20 -127.666 -18 -156.999h-138c-8.66699 16.667 -5 66 11 148l42 229h-102c-12 -55.333 -18.667 -85 -20 -89c-34.667 -143.333 -70.334 -239.333 -107.001 -288h-138c37.333 64 72.666 159.333 105.999 286
c8 32.667 14.667 63 20 91c-40.667 0 -71 -2.66699 -91 -8l-2 83c24.667 24.667 83.334 37 176.001 37h388z" />
    <glyph glyph-name="rho" unicode="&#x3c1;" horiz-adv-x="566" 
d="M123 -198h-136.998c-4 32 2 90.333 18 175l40 218c22 118.667 64.667 202 128 250c46.667 36.667 102.667 55 168 55c59.333 0 107.166 -18.667 143.499 -56s54.5 -85 54.5 -143c0 -86.667 -26.333 -160.334 -79 -221.001s-112.667 -91 -180 -91
c-26.667 0 -50.834 4.33301 -72.501 13s-37.167 20.334 -46.5 35.001h-2l-11 -62c-16 -81.333 -24 -139 -24 -173zM196.002 234l-6 -26.999c-2 -12 -3 -24.667 -3 -38c0 -16 7.33301 -31.667 22 -47s34 -23 58 -23c32 0 60.5 19.167 85.5 57.5s37.5 82.833 37.5 133.5
c0 27.333 -6.5 49.833 -19.5 67.5s-31.833 26.5 -56.5 26.5c-28 0 -52.167 -12.833 -72.5 -38.5s-35.5 -62.834 -45.5 -111.501z" />
    <glyph glyph-name="uni03C2" unicode="&#x3c2;" horiz-adv-x="443" 
d="M293 -153l-87 30c20.667 32.667 35.334 65.667 44.001 99c-30.667 6 -58.667 14 -84 24c-36.667 13.333 -69.667 36.333 -99 69s-44 76.334 -44 131.001c0 80 29.167 150 87.5 210s131.833 90 220.5 90c48.667 0 88.667 -8.66699 120 -26l-38 -103
c-20.667 11.333 -47.667 17 -81 17c-42.667 0 -79.834 -16 -111.501 -48s-47.5 -71.333 -47.5 -118c0 -59.333 30.333 -100 91 -122c32 -12 74.667 -22 128 -30c4.66699 -0.666992 7 -5 7 -13c0 -24 -11.5 -58.833 -34.5 -104.5s-46.833 -80.834 -71.5 -105.501z" />
    <glyph glyph-name="sigma" unicode="&#x3c3;" horiz-adv-x="585" 
d="M475 405l-1.00098 -5c16.667 -12.667 29.167 -31.167 37.5 -55.5s12.5 -46.833 12.5 -67.5c0 -78 -27.167 -145.5 -81.5 -202.5s-122.166 -85.5 -203.499 -85.5c-64 0 -115.167 18.5 -153.5 55.5s-57.5 85.833 -57.5 146.5c0 86 27.333 159 82 219s124 90 208 90h125h76
h98l-18 -106c-26 0 -67.333 3.66699 -124 11zM254.999 99h1.00098c36 0 65.5 21.5 88.5 64.5s34.5 87.5 34.5 133.5c0 26.667 -6.16699 49 -18.5 67s-31.5 27 -57.5 27c-38.667 0 -69.334 -21.5 -92.001 -64.5s-34 -87.167 -34 -132.5c0 -28.667 7 -51.667 21 -69
s33 -26 57 -26z" />
    <glyph glyph-name="tau" unicode="&#x3c4;" horiz-adv-x="430" 
d="M316 103l-23 -103.001c-13.333 -7.33301 -33.666 -11 -60.999 -11c-82 0 -123 39.667 -123 119c0 22.667 3.33301 50.667 10 84l34 185h-40c-40 0 -71.333 -2.33301 -94 -7v85c33.333 22.667 91.666 34 174.999 34h262l-26 -112h-133l-37 -197
c-2.66699 -15.333 -4 -28.666 -4 -39.999c0 -24.667 12.667 -37 38 -37h22z" />
    <glyph glyph-name="upsilon" unicode="&#x3c5;" horiz-adv-x="536" 
d="M368 489l132.999 0.000976562c9.33301 -22 14 -53.333 14 -94c0 -36.667 -3.66699 -73.5 -11 -110.5s-18.833 -73.333 -34.5 -109s-34.667 -67.167 -57 -94.5s-49.833 -49.5 -82.5 -66.5s-68 -25.5 -106 -25.5c-58 0 -103.833 14.5 -137.5 43.5s-50.5 68.833 -50.5 119.5
c0 15.333 3.66699 42.666 11 81.999l16 87c16.667 84.667 23.334 140.667 20.001 168h138c8 -15.333 7.66699 -46.333 -1 -93l-26 -142c-7.33301 -47.333 -11 -73 -11 -77c0 -20.667 5.83301 -37.667 17.5 -51s26.5 -20 44.5 -20c38 0 69 31.5 93 94.5s36 132.833 36 209.5
c0 34 -2 60.333 -6 79z" />
    </font>
</defs>
</svg>
