<svg id="Layer_1" data-name="Layer 1" xmlns="http://www.w3.org/2000/svg" viewBox="0 0 450 450"><defs><style>.cls-1,.cls-5{fill:#00acee;}.cls-2{fill:#ccc;}.cls-3{fill:#999;}.cls-4{fill:gray;}.cls-5{font-size:195.21px;font-family:ArialMT, Arial;}</style></defs><title>after-3</title><g id="_3" data-name="3"><path class="cls-1" d="M211.78,362.55c-4.94-.61-9.89-.92-14.84-1.07-1.74-7.76-10.83-6.48-16.12-6.66-8.48-.28-16.95-.51-25.43-.41a431.28,431.28,0,0,0-53.33,3.81c-2.94.4-4.67,3.22-5.09,6.23a127.27,127.27,0,0,0-22.18,2c-6.07,1.18-14.48,2.19-19.6,6.82-4.75,4.31-4.71,12.38,1.09,15.07a63.89,63.89,0,0,0,6.5,2.54C55,392.54,47,393.17,39.23,395.46c-5.51,1.63-13.36,4.06-17.34,9.57C17,411.84,22.55,418,28,419c17.07,3.35,34.78,2.64,52,3.2,16.57.53,33.56,1.64,49.79-3.37,3.45-1.06,5.9-6.38,3.93-9.83q7.7.39,15.4.45c6.06,0,12.12-.06,18.18-.33,5.74-.25,10.92-.95,15.9-4.76a7,7,0,0,0,2.17-4.69l25.66-.31c9.87-.12,32.2,3.53,32.14-16C243.14,366.56,221.34,363.72,211.78,362.55Z"/><polygon class="cls-2" points="97.39 317.01 104.62 319.13 113.14 314.35 126.68 337.49 149.96 334.1 158 343.39 173.46 324.1 181.26 343.56 192.77 345.68 346.21 241.5 202.29 73.96 39.27 249.68 97.32 317.26 97.39 317.01"/><path class="cls-3" d="M353.34,259.75a9.15,9.15,0,0,1-6.26-3.17L187.52,70.82a9.16,9.16,0,0,1,13.9-11.94L361,244.64a9.17,9.17,0,0,1-7.64,15.11Z"/><path class="cls-4" d="M319.82,196.72c-1.63,1.46-3.28,2.92-5,4.36q-4.49,3.84-9,7.47a259.23,259.23,0,0,1-45.76,29.27,9.16,9.16,0,0,1-8.14-16.41,244.94,244.94,0,0,0,42-26.78c3.06-2.41,6.09-4.89,9.06-7.44,1.68-1.44,3.32-2.89,5-4.35,24.76-22.33,43.85-47.67,54.05-71.91,9.85-23.4,10-43.2.44-54.35s-29.19-14-53.8-7.77c-25.49,6.43-53.42,21.47-79.23,42.59L217.41,77.5C279.32,26.66,348.3,12.07,376.28,44.64S379.43,143.2,319.82,196.72Z"/><text class="cls-5" transform="translate(133.95 302.86)">₽</text><path class="cls-1" d="M411.8,221.65c-10.43-8.51-26.07-13.73-49.52-9.78,0,0,20.05,8.11,30.08,25.82a12.67,12.67,0,0,0,17.87,4.58l.35-.21A12.63,12.63,0,0,0,411.8,221.65Z"/><path class="cls-1" d="M417.6,166.92c-13.46-.2-29,5.43-44.89,23.08,0,0,20.75-6.09,39.61,1.57a12.7,12.7,0,0,0,16.86-7.52l.13-.38A12.62,12.62,0,0,0,417.6,166.92Z"/></g></svg>