<svg id="Layer_1" data-name="Layer 1" xmlns="http://www.w3.org/2000/svg" viewBox="0 0 450 450"><defs><style>.cls-1{fill:#7e7f7f;}.cls-2{fill:#ff5959;}.cls-3{fill:#fff;}.cls-4{fill:#1e252b;}</style></defs><title>after-4</title><g id="_4" data-name="4"><path class="cls-1" d="M236.47,268.78V438.65c-4,0-7.61.35-11.64.35s-7.61,0-11.64-.35V268.78Z"/><path class="cls-2" d="M144,345c-6.54,0-14.58-4.63-17.85-10.3l-81-140.3c-3.27-5.66-3.27-14.94,0-20.61l81-140.29c3.27-5.67,11.31-10.31,17.85-10.31H306c6.54,0,14.58,4.64,17.85,10.31l81,140.29c3.27,5.67,3.27,15,0,20.61l-81,140.3C320.58,340.4,312.54,345,306,345Z"/><path class="cls-3" d="M303.06,325.28H146.94a5.93,5.93,0,0,1-5.15-3L63.73,187.1a6,6,0,0,1,0-5.95L141.79,46a6,6,0,0,1,5.15-3H303.06a5.93,5.93,0,0,1,5.15,3l78.06,135.2a5.92,5.92,0,0,1,0,5.95L308.21,322.31A6,6,0,0,1,303.06,325.28Zm-152.68-11.9H299.62l74.63-129.25L299.62,54.87H150.38L75.75,184.13Z"/><path class="cls-4" d="M306,351H144c-8.6,0-18.7-5.83-23-13.28L40,197.41c-4.3-7.45-4.3-19.11,0-26.56l81-140.3c4.3-7.44,14.4-13.28,23-13.28H306c8.6,0,18.7,5.84,23,13.28l81,140.3c4.3,7.45,4.3,19.11,0,26.56L329,337.7C324.7,345.15,314.6,351,306,351ZM144,29.17c-4.43,0-10.48,3.5-12.7,7.33l-81,140.3c-2.21,3.83-2.21,10.82,0,14.66l81,140.29c2.22,3.84,8.27,7.33,12.7,7.33H306c4.43,0,10.48-3.49,12.7-7.33l81-140.29c2.21-3.84,2.21-10.82,0-14.66l-81-140.3c-2.22-3.83-8.27-7.33-12.7-7.33Z"/><path class="cls-3" d="M306.45,224.85a20.16,20.16,0,0,1-2.61,9.8L252.4,177.1l50.88-44.51a20.2,20.2,0,0,1,3.17,10.81v81.45ZM225,187.55l70.8-62a20.14,20.14,0,0,0-9.71-2.56H163.91a20,20,0,0,0-9.7,2.56Zm19.74-3.75-16.39,14.35a5.11,5.11,0,0,1-6.7,0L205.26,183.8l-52.09,58.29a20.19,20.19,0,0,0,10.74,3.13H286.09a20.19,20.19,0,0,0,10.74-3.13Zm-98-51.21a20.2,20.2,0,0,0-3.17,10.81v81.45a20.16,20.16,0,0,0,2.61,9.8l51.43-57.56Z"/></g></svg>