<svg 
 xmlns="http://www.w3.org/2000/svg"
 xmlns:xlink="http://www.w3.org/1999/xlink"
 width="111px" height="23px">
<path fill-rule="evenodd"  fill="rgb(255, 255, 255)"
 d="M102.612,13.851 C102.474,14.837 102.973,16.634 104.350,17.532 C105.220,18.100 106.170,18.177 107.155,17.982 C108.163,17.783 108.887,17.131 109.534,16.343 C109.975,16.697 110.401,17.040 110.838,17.392 C110.253,18.311 109.523,19.014 108.551,19.406 C106.926,20.062 105.281,20.076 103.677,19.372 C102.190,18.719 101.200,17.537 100.752,15.950 C100.207,14.022 100.233,12.074 100.950,10.190 C101.646,8.359 102.912,7.113 104.813,6.699 C106.317,6.373 107.755,6.601 109.014,7.585 C109.566,8.017 109.978,8.578 110.281,9.217 C110.972,10.672 111.020,12.234 110.996,13.851 C108.177,13.851 105.393,13.851 102.612,13.851 ZM108.847,11.763 C108.776,11.366 108.747,10.957 108.637,10.572 C107.917,8.059 105.399,7.979 104.154,8.946 C103.169,9.711 102.792,10.798 102.625,12.056 C102.760,12.056 102.854,12.056 102.949,12.056 C104.129,12.056 105.308,12.056 106.488,12.056 C107.186,12.056 107.885,12.047 108.583,12.061 C108.815,12.066 108.886,11.986 108.847,11.763 ZM95.673,19.280 C95.672,16.679 95.678,14.076 95.667,11.475 C95.665,11.041 95.632,10.598 95.548,10.172 C95.356,9.196 94.755,8.643 93.795,8.493 C92.255,8.253 90.939,8.935 90.215,10.359 C90.156,10.476 90.137,10.627 90.136,10.761 C90.132,13.603 90.133,16.445 90.133,19.286 C90.133,19.392 90.133,19.497 90.133,19.622 C89.416,19.622 88.722,19.622 88.008,19.622 C88.008,15.363 88.008,11.107 88.008,6.830 C88.666,6.830 89.319,6.830 90.010,6.830 C90.035,7.326 90.060,7.820 90.089,8.379 C90.201,8.256 90.270,8.181 90.339,8.105 C91.407,6.908 92.752,6.473 94.294,6.597 C94.573,6.619 94.853,6.665 95.124,6.732 C96.604,7.102 97.370,8.152 97.646,9.623 C97.750,10.178 97.792,10.753 97.795,11.319 C97.810,13.978 97.802,16.639 97.802,19.298 C97.802,19.403 97.802,19.508 97.802,19.627 C97.085,19.627 96.399,19.627 95.689,19.627 C95.683,19.505 95.673,19.392 95.673,19.280 ZM81.421,19.114 C80.246,19.759 78.984,19.949 77.670,19.846 C76.068,19.722 74.692,19.092 73.583,17.886 C72.647,16.869 72.103,15.640 71.786,14.294 C71.434,12.800 71.468,11.281 71.521,9.762 C71.558,8.675 71.751,7.613 72.129,6.594 C72.862,4.615 74.104,3.125 76.113,2.487 C78.215,1.821 80.247,2.034 82.086,3.351 C83.319,4.235 84.046,5.506 84.500,6.957 C84.915,8.287 85.017,9.655 84.984,11.027 C85.017,12.467 84.908,13.877 84.451,15.238 C83.893,16.903 82.967,18.267 81.421,19.114 ZM82.568,8.168 C82.446,7.329 82.136,6.544 81.650,5.848 C80.757,4.573 79.518,4.058 78.018,4.119 C76.542,4.179 75.442,4.885 74.677,6.164 C74.100,7.128 73.819,8.197 73.766,9.310 C73.712,10.446 73.710,11.589 73.767,12.724 C73.824,13.863 74.137,14.943 74.721,15.933 C76.210,18.457 79.296,18.280 80.736,17.176 C81.576,16.531 82.073,15.656 82.382,14.648 C82.745,13.467 82.801,12.250 82.780,11.024 C82.805,11.022 82.828,11.020 82.852,11.018 C82.761,10.067 82.705,9.111 82.568,8.168 ZM64.744,19.641 C63.796,19.623 62.848,19.628 61.901,19.638 C61.702,19.639 61.640,19.580 61.640,19.373 C61.645,13.879 61.644,8.386 61.645,2.891 C61.645,2.820 61.655,2.747 61.662,2.658 C62.799,2.658 63.904,2.658 65.040,2.658 C65.040,2.768 65.040,2.865 65.040,2.961 C65.040,8.414 65.039,13.867 65.045,19.319 C65.045,19.559 64.999,19.645 64.744,19.641 ZM54.402,5.841 C54.401,10.319 54.401,14.796 54.401,19.273 C54.401,19.632 54.401,19.633 54.048,19.633 C53.140,19.633 52.233,19.633 51.325,19.633 C51.231,19.633 51.136,19.633 50.998,19.633 C50.998,14.894 50.998,10.198 50.998,5.478 C49.329,5.478 47.686,5.478 46.020,5.478 C46.020,4.530 46.020,3.604 46.020,2.659 C50.498,2.659 54.973,2.659 59.463,2.659 C59.463,3.594 59.463,4.514 59.463,5.461 C57.784,5.461 56.117,5.461 54.422,5.461 C54.415,5.604 54.402,5.723 54.402,5.841 ZM37.749,13.274 C37.749,13.058 37.749,12.870 37.749,12.681 C37.749,12.102 37.755,11.525 37.745,10.946 C37.742,10.759 37.801,10.706 37.979,10.708 C38.887,10.715 39.794,10.711 40.702,10.711 C41.778,10.711 42.854,10.711 43.931,10.711 C44.026,10.711 44.121,10.711 44.242,10.711 C44.247,10.813 44.255,10.892 44.255,10.972 C44.256,13.070 44.258,15.168 44.249,17.267 C44.248,17.398 44.183,17.556 44.096,17.655 C43.360,18.482 42.429,18.989 41.404,19.320 C39.609,19.902 37.777,20.078 35.939,19.620 C33.350,18.975 31.821,17.197 31.110,14.612 C30.889,13.806 30.775,12.980 30.766,12.142 C30.753,10.846 30.708,9.548 30.962,8.265 C31.142,7.353 31.420,6.477 31.875,5.669 C32.983,3.701 34.677,2.683 36.845,2.451 C37.883,2.340 38.917,2.407 39.931,2.665 C42.250,3.254 43.610,4.798 44.113,7.173 C44.170,7.447 44.205,7.725 44.254,8.022 C43.141,8.022 42.053,8.022 40.948,8.022 C40.920,7.899 40.892,7.772 40.862,7.646 C40.494,6.067 39.595,5.302 38.023,5.228 C36.389,5.150 35.221,5.913 34.683,7.500 C34.467,8.139 34.323,8.826 34.274,9.501 C34.171,10.950 34.116,12.408 34.434,13.842 C34.526,14.258 34.663,14.671 34.840,15.055 C35.354,16.177 36.224,16.836 37.419,17.006 C38.223,17.120 39.023,17.066 39.803,16.824 C39.971,16.772 40.133,16.695 40.294,16.621 C40.682,16.441 40.899,16.192 40.859,15.691 C40.804,14.994 40.845,14.287 40.845,13.586 C40.845,13.497 40.845,13.408 40.845,13.274 C39.792,13.274 38.783,13.274 37.749,13.274 ZM11.393,23.004 C5.101,22.996 -0.008,17.840 -0.006,11.499 C-0.005,5.150 5.116,0.000 11.426,0.002 C17.735,0.003 22.850,5.155 22.848,11.508 C22.846,17.869 17.721,23.013 11.393,23.004 ZM11.461,7.221 C10.250,9.334 9.064,11.402 7.861,13.502 C10.280,13.502 12.645,13.502 15.062,13.502 C13.855,11.396 12.671,9.332 11.461,7.221 ZM11.648,6.491 C13.578,5.367 15.509,4.246 17.439,3.122 C17.496,3.089 17.549,3.049 17.644,2.984 C13.504,2.984 9.416,2.984 5.273,2.984 C5.364,3.046 5.407,3.078 5.453,3.104 C7.404,4.239 9.356,5.372 11.304,6.511 C11.440,6.590 11.531,6.559 11.648,6.491 ZM7.811,13.942 C8.564,15.148 10.190,16.145 12.081,15.846 C13.326,15.650 14.301,15.012 15.054,13.942 C12.608,13.942 10.225,13.942 7.811,13.942 ZM11.036,7.140 C9.495,7.227 8.030,8.297 7.414,9.769 C6.919,10.952 6.939,12.132 7.468,13.365 C8.673,11.263 9.846,9.217 11.036,7.140 ZM7.218,21.223 C7.221,21.146 7.228,21.071 7.228,20.995 C7.228,18.717 7.225,16.438 7.233,14.160 C7.234,13.958 7.174,13.847 7.000,13.747 C5.127,12.667 3.259,11.577 1.390,10.492 C1.318,10.449 1.243,10.413 1.170,10.375 C1.160,10.386 1.149,10.397 1.139,10.407 C3.151,14.017 5.162,17.627 7.173,21.236 C7.188,21.232 7.203,21.227 7.218,21.223 ZM0.477,10.200 C0.222,12.581 0.641,14.833 1.814,16.931 C2.989,19.032 4.678,20.579 6.885,21.559 C4.773,17.766 2.660,13.974 0.547,10.182 C0.523,10.188 0.500,10.194 0.477,10.200 ZM0.732,9.049 C1.822,7.148 2.895,5.276 3.968,3.404 C2.577,4.437 0.618,7.868 0.732,9.049 ZM0.833,9.694 C2.867,10.876 4.886,12.050 6.966,13.258 C6.460,11.744 6.551,10.346 7.333,9.035 C8.117,7.719 9.301,6.976 10.856,6.720 C8.745,5.492 6.688,4.298 4.617,3.094 C3.349,5.305 2.097,7.489 0.833,9.694 ZM4.957,2.543 C9.281,2.543 13.565,2.543 17.874,2.543 C14.334,-0.204 8.805,-0.380 4.957,2.543 ZM18.297,3.098 C16.224,4.303 14.165,5.500 12.051,6.728 C13.603,7.005 14.772,7.764 15.539,9.084 C16.310,10.413 16.377,11.818 15.863,13.293 C15.945,13.255 15.995,13.237 16.041,13.210 C17.979,12.084 19.916,10.954 21.857,9.833 C22.057,9.718 22.051,9.619 21.946,9.437 C20.770,7.399 19.602,5.355 18.431,3.314 C18.392,3.246 18.348,3.181 18.297,3.098 ZM19.079,3.623 C20.069,5.348 21.058,7.074 22.048,8.800 C21.897,7.317 20.230,4.411 19.079,3.623 ZM21.397,16.209 C22.311,14.265 22.605,12.221 22.349,10.098 C22.328,10.091 22.307,10.085 22.286,10.079 C20.175,13.906 18.065,17.734 15.954,21.562 C18.426,20.443 20.244,18.662 21.397,16.209 ZM15.638,21.290 C17.636,17.666 19.602,14.101 21.593,10.489 C21.512,10.514 21.495,10.517 21.482,10.524 C19.571,11.634 17.659,12.741 15.753,13.860 C15.676,13.905 15.618,14.050 15.617,14.149 C15.610,16.451 15.611,18.754 15.612,21.056 C15.612,21.112 15.624,21.169 15.638,21.290 ZM15.239,9.387 C14.523,8.086 13.404,7.358 11.958,7.138 C11.944,7.157 11.930,7.175 11.916,7.194 C13.072,9.210 14.228,11.226 15.414,13.296 C15.952,11.921 15.923,10.630 15.239,9.387 ZM15.203,14.753 C15.203,14.679 15.192,14.606 15.181,14.479 C14.166,15.668 12.939,16.300 11.425,16.301 C9.903,16.302 8.670,15.666 7.658,14.473 C7.648,14.562 7.642,14.594 7.642,14.625 C7.641,16.847 7.644,19.069 7.637,21.292 C7.636,21.514 7.749,21.510 7.904,21.510 C10.246,21.508 12.588,21.505 14.929,21.514 C15.153,21.514 15.209,21.444 15.208,21.229 C15.201,19.070 15.204,16.911 15.203,14.753 ZM7.751,21.918 C10.196,22.805 12.645,22.811 15.092,21.918 C12.645,21.918 10.198,21.918 7.751,21.918 ZM11.415,12.812 C10.704,12.807 10.131,12.229 10.127,11.514 C10.124,10.782 10.695,10.198 11.416,10.195 C12.139,10.194 12.715,10.773 12.715,11.504 C12.715,12.230 12.130,12.818 11.415,12.812 ZM11.415,10.611 C10.921,10.614 10.523,11.018 10.528,11.509 C10.533,12.002 10.939,12.404 11.428,12.401 C11.915,12.397 12.320,11.986 12.316,11.498 C12.312,11.003 11.911,10.607 11.415,10.611 Z"/>
</svg>