<svg xmlns="http://www.w3.org/2000/svg" width="111.88" height="74.31" viewBox="0 0 111.88 74.31">
  <defs>
    <style>
      .cls-1 {
        fill: #0095fe;
        fill-rule: evenodd;
      }
    </style>
  </defs>
  <path id="pow3.svg" class="cls-1" d="M1234.89,5040.19h-20.17c-0.93,0-1.07-.08-1.1-0.99-0.05-1.07,0-2.14.02-3.21a0.667,0.667,0,0,1,.79-0.72c0.15,0.01.29,0,.43,0q18.765,0,37.51.01c0.81,0,.94-0.08.87-0.88-0.22-2.37-.4-4.74-0.76-7.09-0.34-2.2-.85-4.38-1.39-6.55a24.379,24.379,0,0,0-1.29-3.65,63.166,63.166,0,0,0-2.78-5.95,59.4,59.4,0,0,0-4.03-6.25,45.592,45.592,0,0,0-4.55-5.35,43.811,43.811,0,0,0-6.55-5.52c-1.86-1.21-3.7-2.47-5.66-3.5-2.06-1.08-4.24-1.96-6.4-2.84a39.169,39.169,0,0,0-4.44-1.48c-1.63-.43-3.29-0.73-4.95-1s-3.35-.45-5.03-0.63a38.477,38.477,0,0,0-8.58.19,52.526,52.526,0,0,0-5.73.9,53.531,53.531,0,0,0-6.5,1.89,63.986,63.986,0,0,0-6.86,3.07c-1.1.55-2.12,1.25-3.18,1.89a46.063,46.063,0,0,0-8.73,7.01c-1.48,1.5-2.77,3.19-4.16,4.78a18.147,18.147,0,0,0-1.65,1.89c-0.8,1.26-1.48,2.59-2.21,3.88-0.44.79-.95,1.55-1.32,2.36-0.84,1.89-1.7,3.77-2.41,5.71-0.64,1.75-1.09,3.56-1.63,5.34a12.958,12.958,0,0,0-.51,1.3c-0.13.67-.13,1.37-0.22,2.05-0.21,1.52-.45,3.04-0.66,4.56a5,5,0,0,0-.01.67c-0.01.82,0.04,1.64-.05,2.45-0.05.53,0.09,0.74,0.6,0.74q4.02,0,8.04.01a0.616,0.616,0,0,0,.69-0.67c0.09-.72.3-1.42,0.43-2.14,0.13-.65.19-1.33,0.35-1.97s0.46-1.25.66-1.89a9.021,9.021,0,0,1,.39-1.4,50.422,50.422,0,0,1,2.77-5.12,26.857,26.857,0,0,1,8.14-7.92,29.663,29.663,0,0,1,5.82-2.79,29.086,29.086,0,0,1,9.08-1.58,28.755,28.755,0,0,1,6.12.67,22.509,22.509,0,0,1,5.66,1.86,48.1,48.1,0,0,1,5.08,3.01c1.16,0.75,1.13.81,0.31,1.91-0.54.73-1.09,1.45-1.63,2.17a0.623,0.623,0,0,1-1.06.14,22.382,22.382,0,0,0-6.85-3.73,22.99,22.99,0,0,0-6.54-1.16,23.352,23.352,0,0,0-6.67.67,22.174,22.174,0,0,0-9.96,5.44,21.372,21.372,0,0,0-2.17,2.08,22.857,22.857,0,0,0-2.25,3.44,26.487,26.487,0,0,0-2.03,4.6,17.72,17.72,0,0,0-.98,5.92,5.149,5.149,0,0,1-.07,1.04,2.5,2.5,0,0,1-2.69,2.31c-4.43.07-8.87,0.08-13.31-.01-1.85-.04-2.82-0.87-2.81-2.93s0.12-4.11.26-6.15c0.13-1.76.3-3.52,0.58-5.26,0.25-1.52.66-3.02,1.05-4.52,0.3-1.17.65-2.33,1.02-3.48a32.429,32.429,0,0,1,2.3-5.48c0.4-.74.57-1.59,0.95-2.33a30.057,30.057,0,0,1,1.9-3.37c1.07-1.6,2.4-3.04,3.35-4.7,1.46-2.55,3.65-4.42,5.67-6.44a48.065,48.065,0,0,1,7.8-6.43c2-1.28,4.1-2.43,6.21-3.52a52.1,52.1,0,0,1,5.07-2.25c1.48-.58,3.02-1.03,4.56-1.49,1.36-.4,2.73-0.76,4.12-1.06a30.979,30.979,0,0,1,3.6-.56c2.27-.21,4.55-0.44,6.83-0.48a40.666,40.666,0,0,1,9.78.75c1,0.23,2.04.3,3.03,0.54,1.85,0.47,3.7.95,5.51,1.53a39.763,39.763,0,0,1,4.68,1.75c2.16,1.01,4.23,2.19,6.35,3.28a40.034,40.034,0,0,1,6.64,4.59,46.665,46.665,0,0,1,7.19,7c1.32,1.65,2.71,3.26,3.87,5.01,1.34,2.04,2.49,4.2,3.66,6.34a29.884,29.884,0,0,1,1.82,3.89c0.84,2.31,1.61,4.65,2.28,7.01,0.47,1.65.75,3.35,1.08,5.04a50.52,50.52,0,0,1,.66,11.65c-0.05,1.38-1.12,1.91-2.63,2.09a14.4,14.4,0,0,1-1.61.01h-18.81Zm-46.85-18.87a17.1,17.1,0,0,1,9.07,2.75,1.353,1.353,0,0,0,1.28.1c0.69-.24,1.42-0.41,2.13-0.61,1.9-.52,3.8-1.06,5.7-1.57,1.78-.49,3.58-0.93,5.36-1.42,1.25-.33,2.49-0.72,3.73-1.07s2.51-.65,3.76-0.99c1.29-.35,2.56-0.75,3.86-1.08a15.086,15.086,0,0,1,2.64-.54,2.138,2.138,0,0,1,2.21,1.23,2.368,2.368,0,0,1-.66,2.95c-1.61,1.27-3.27,2.49-4.91,3.72q-4.89,3.675-9.77,7.34-3.63,2.715-7.28,5.41a1.722,1.722,0,0,0-.78,1.44,14.748,14.748,0,0,1-3.02,8.36,15.94,15.94,0,0,1-7.64,5.73,16.292,16.292,0,0,1-8.51.69,16.646,16.646,0,0,1-8.1-3.96,15.191,15.191,0,0,1-3.72-4.94,15.671,15.671,0,0,1-1.65-7.8,16.317,16.317,0,0,1,3.03-8.77,16.591,16.591,0,0,1,7.67-5.88,8.445,8.445,0,0,1,1.71-.52C1185.44,5021.67,1186.74,5021.51,1188.04,5021.32Zm25.39,4.02c-0.04-.08-0.08-0.16-0.13-0.24-1.02.27-2.05,0.52-3.08,0.8-1.72.47-3.44,0.97-5.16,1.45-1.28.36-2.57,0.7-3.86,1.05-1.17.32-2.33,0.69-3.51,0.91a2.71,2.71,0,0,1-1.61-.22c-1.17-.57-2.25-1.35-3.43-1.9a10.034,10.034,0,0,0-5.09-.98,11.826,11.826,0,0,0-4.27,1.1,11.068,11.068,0,0,0-6.56,8.83,10.911,10.911,0,0,0,2.88,9.32,9.838,9.838,0,0,0,5.03,3.17,14.51,14.51,0,0,0,3.99.6,11.341,11.341,0,0,0,6.84-2.63,11.055,11.055,0,0,0,4.17-8.82,3.913,3.913,0,0,1,1.89-3.53c2.1-1.51,4.14-3.11,6.21-4.66,1.44-1.07,2.88-2.13,4.31-3.2Z" transform="translate(-1146.12 -4979.72)"/>
</svg>
