<?xml version="1.0" encoding="utf-8"?>
<!-- Generator: Adobe Illustrator 22.1.0, SVG Export Plug-In . SVG Version: 6.00 Build 0)  -->
<svg version="1.1" id="Слой_1" xmlns="http://www.w3.org/2000/svg" xmlns:xlink="http://www.w3.org/1999/xlink" x="0px" y="0px"
	 viewBox="0 0 512 512" style="enable-background:new 0 0 512 512;" xml:space="preserve">
<style type="text/css">
	.st0{fill:#3674B2;}
	.st1{fill:#4C86CC;}
	.st2{fill:#F4CA19;}
	.st3{fill:#E29B0E;}
</style>
<g>
	<path class="st0" d="M0,7.3h213.8l149.1,219H149.1L0,7.3z"/>
	<path class="st1" d="M512,7.3H298.2l-149.1,219h213.8L512,7.3z"/>
	<path class="st2" d="M421.1,363c0.1-0.9,0.3-1.8,0.4-2.7c0.1-0.7,0.2-1.3,0.3-2c0.1-0.8,0.2-1.5,0.3-2.3c0.1-0.8,0.2-1.6,0.3-2.4
		c0.1-0.7,0.1-1.4,0.2-2c0.1-0.9,0.1-1.9,0.2-2.8c0-0.6,0.1-1.2,0.1-1.8c0.1-1.1,0.1-2.2,0.1-3.4c0-0.4,0-0.8,0-1.3
		c0-1.6,0.1-3.2,0.1-4.8c0-4.3-0.2-8.6-0.5-12.8C416,238.6,343.9,170.6,256,170.6c-92.3,0-167,74.8-167,167c0,0.3,0,0.6,0,1
		c0,1.2,0,2.4,0.1,3.6c0,0.7,0.1,1.4,0.1,2.1c0,0.8,0.1,1.7,0.1,2.5c0,0.8,0.1,1.6,0.1,2.3c0,0.7,0.1,1.5,0.2,2.2
		c0.1,0.9,0.1,1.7,0.2,2.6c0.1,0.6,0.1,1.2,0.2,1.8c0.1,0.9,0.2,1.9,0.3,2.8c0.1,0.4,0.1,0.8,0.2,1.2c5.9,44.7,29.5,83.8,63.5,110.1
		c0,0,0,0,0,0c0.1,0,0.2,0.1,0.3,0.1c28.2,21.7,63.5,34.7,101.8,34.7c38.3,0,73.6-13,101.8-34.7c0.1,0,0.2-0.1,0.3-0.1
		c33.1-25.6,56.3-63.3,63-106.4C421.1,363.3,421.1,363.2,421.1,363z"/>
	<g>
		<path class="st3" d="M256,477.6c-77.1,0-139.9-62.8-139.9-139.9S178.9,197.8,256,197.8s139.9,62.8,139.9,139.9
			S333.1,477.6,256,477.6z M256,229c-59.9,0-108.7,48.8-108.7,108.7S196.1,446.3,256,446.3s108.7-48.8,108.7-108.7
			S315.9,229,256,229z"/>
		<path class="st3" d="M241.3,376.8v-70l-28.7,9.4l-11-29.9l80.6-29.9v120.3h33.8v34.7H205.5v-34.7H241.3z"/>
	</g>
</g>
</svg>
