<svg xmlns="http://www.w3.org/2000/svg" xmlns:xlink="http://www.w3.org/1999/xlink" viewBox="0 0 275.08 275.08"><defs><style>.a{fill:url(#a);}.b{font-size:125.26px;}.b,.c{fill:#fff;font-family:OpenSans-Bold, Open Sans;font-weight:700;}.c{font-size:42.39px;}</style><linearGradient id="a" x1="0.02" y1="137.54" x2="275.06" y2="137.54" gradientUnits="userSpaceOnUse"><stop offset="0" stop-color="#00acee"/><stop offset="1" stop-color="#154e86"/></linearGradient></defs><title>point-b</title><path class="a" d="M220,45l9.6-9.6a137.52,137.52,0,0,0-127-30.87l3.5,13.09A124,124,0,0,1,220,45ZM35.36,229.59,45,220A124,124,0,0,1,92.51,22L89,8.85A137.55,137.55,0,0,0,35.36,229.59Zm234.1-131a136.65,136.65,0,0,0-29.71-53.13l-9.6,9.6a123.41,123.41,0,0,1,26.23,47Zm3.32,13.95-13.13,3.52a124,124,0,0,1-204.54,114l-9.6,9.6A137.51,137.51,0,0,0,272.78,112.57Zm-135.25-84a109,109,0,1,1-109,109A109,109,0,0,1,137.53,28.54Z"/><text class="b" transform="translate(97.57 219.13)">Б</text><text class="c" transform="translate(64.09 110.12)">ТОЧКА</text></svg>