<?xml version="1.0"?>
<svg xmlns="http://www.w3.org/2000/svg" viewBox="0 0 64 64" width="512" height="512"><title>presentation-Analytics-powerpoint-report-Business</title><g id="Flat"><rect x="31" y="50" width="2" height="12" style="fill:#754c24"/><path d="M39.47,61.848,32,57.179l-7.47,4.669-1.06-1.7,8-5a1,1,0,0,1,1.06,0l8,5Z" style="fill:#754c24"/><path d="M29,9V7a3,3,0,0,1,3-3h0a3,3,0,0,1,3,3V9Z" style="fill:#754c24"/><rect x="16" y="8" width="32" height="44" style="fill:#a67c52"/><rect x="7" y="12" width="50" height="36" style="fill:#e6e6e6"/><rect x="16" y="37" width="5" height="6" style="fill:#80caec"/><rect x="25" y="28" width="5" height="15" style="fill:#29abe2"/><rect x="34" y="33" width="5" height="10" style="fill:#80caec"/><rect x="43" y="24" width="5" height="19" style="fill:#29abe2"/><rect x="14" y="16" width="2" height="2" style="fill:#0071bc"/><rect x="51" y="16" width="2" height="2" style="fill:#0071bc"/><rect x="47" y="16" width="2" height="2" style="fill:#0071bc"/><rect x="18" y="16" width="14" height="2" style="fill:#0071bc"/><rect x="11" y="20" width="17" height="2" style="fill:#0071bc"/><rect x="2" y="15" width="2" height="22" style="fill:#ccc"/><rect x="2" y="39" width="2" height="2" style="fill:#ccc"/><rect x="60" y="28" width="2" height="18" style="fill:#ccc"/><rect x="11" y="42" width="42" height="2" style="fill:#0071bc"/></g></svg>
