<svg height="512pt" viewBox="0 -1 512 512" width="512pt" xmlns="http://www.w3.org/2000/svg"><path d="m294.679688 434.835938c-3.519532 0-6.683594-2.4375-7.496094-6.023438-.945313-4.164062 1.695312-8.308594 5.855468-9.253906l.257813-.054688c4.183594-.867187 8.265625 1.828125 9.125 6.007813.859375 4.179687-1.828125 8.265625-6.007813 9.125l-.019531.003906c-.574219.128906-1.148437.195313-1.714843.195313zm-92.195313-3.894532c-.742187 0-1.5-.109375-2.246094-.335937l-.097656-.027344c-4.085937-1.238281-6.390625-5.550781-5.15625-9.636719 1.238281-4.085937 5.554687-6.390625 9.636719-5.152344l.101562.027344c4.082032 1.238282 6.390625 5.550782 5.152344 9.636719-1.011719 3.335937-4.078125 5.488281-7.390625 5.488281zm122.023437-5.21875c-3.058593 0-5.953124-1.828125-7.167968-4.839844-1.597656-3.957031.320312-8.460937 4.277344-10.054687 3.953124-1.609375 8.5.28125 10.105468 4.234375 1.605469 3.953125-.257812 8.445312-4.210937 10.046875l-.117188.046875c-.945312.382812-1.921875.566406-2.886719.566406zm-150.921874-6.375c-1.160157 0-2.339844-.261718-3.449219-.816406l-.183594-.09375c-3.792969-1.957031-5.277344-6.621094-3.316406-10.410156 1.957031-3.792969 6.621093-5.277344 10.410156-3.316406 3.816406 1.90625 5.363281 6.546874 3.457031 10.363281-1.355468 2.707031-4.082031 4.273437-6.917968 4.273437zm178.691406-7.644531c-2.582032 0-5.105469-1.296875-6.570313-3.652344-2.25-3.625-1.136719-8.390625 2.492188-10.640625 3.625-2.25 8.433593-1.164062 10.683593 2.464844 2.25 3.625 1.175782 8.359375-2.449218 10.609375l-.085938.054687c-1.269531.789063-2.675781 1.164063-4.070312 1.164063zm-205.214844-8.683594c-1.574219 0-3.164062-.484375-4.535156-1.488281l-.117188-.085938c-3.429687-2.539062-4.148437-7.378906-1.609375-10.808593 2.539063-3.429688 7.378907-4.148438 10.804688-1.609375 3.445312 2.519531 4.214843 7.371094 1.695312 10.816406-1.515625 2.074219-3.863281 3.175781-6.238281 3.175781zm230.214844-9.828125c-2.085938 0-4.164063-.839844-5.6875-2.496094-2.886719-3.140624-2.683594-8.027343.457031-10.917968l.253906-.226563c3.226563-2.789062 8.101563-2.441406 10.894531.789063 2.789063 3.21875 2.445313 8.085937-.765624 10.882812-1.472657 1.316406-3.316407 1.96875-5.152344 1.96875zm-253.5625-10.71875c-2 0-4-.773437-5.511719-2.316406-.078125-.082031-.160156-.167969-.234375-.25-2.890625-3.140625-2.6875-8.027344.453125-10.917969 3.117187-2.867187 7.949219-2.6875 10.847656.378907 2.945313 3.050781 2.886719 7.925781-.148437 10.894531-1.507813 1.472656-3.457032 2.210937-5.40625 2.210937zm275.097656-11.738281c-1.65625 0-3.328125-.53125-4.738281-1.628906-3.367188-2.617188-3.972657-7.472657-1.351563-10.839844.070313-.09375.144532-.183594.21875-.273437 2.726563-3.28125 7.59375-3.734376 10.878906-1.007813 3.273438 2.71875 3.730469 7.570313 1.027344 10.855469-1.523437 1.902344-3.765625 2.894531-6.035156 2.894531zm-294.664062-12.4375c-2.484376 0-4.925782-1.199219-6.417969-3.414063-2.398438-3.46875-1.578125-8.226562 1.863281-10.6875 3.46875-2.480468 8.296875-1.675781 10.777344 1.796876.070312.097656.136718.191406.199218.289062 2.367188 3.550781 1.40625 8.351562-2.140624 10.714844-1.316407.878906-2.808594 1.300781-4.28125 1.300781zm312.121093-13.324219c-1.222656 0-2.46875-.292968-3.628906-.910156-3.765625-2.007812-5.1875-6.6875-3.179687-10.453125l.144531-.261719c2.105469-3.714844 6.816406-5.019531 10.53125-2.914062 3.710937 2.101562 5.015625 6.808594 2.917969 10.519531-1.398438 2.5625-4.046876 4.019531-6.785157 4.019531zm-327.367187-13.824218c-2.933594 0-5.730469-1.675782-7.019532-4.527344l-.058593-.136719c-1.734375-3.898437.023437-8.464844 3.921875-10.199219 3.902344-1.730468 8.464844.023438 10.199218 3.925782 1.753907 3.886718.039063 8.488281-3.851562 10.246093-1.039062.46875-2.125.691407-3.191406.691407zm-16.8125-98.910157 1.148437.101563zm357.003906-38.207031c-3.140625 0-6.105469-1.9375-7.273438-5.046875-.015624-.042969-.046874-.136719-.0625-.179687-1.421874-4.003907.644532-8.425782 4.640626-9.871094 3.996093-1.445313 8.402343.582031 9.871093 4.566406.011719.027344.039063.105469.046875.136719 1.5 3.992187-.539062 8.410156-4.535156 9.90625-.882812.332031-1.792969.488281-2.6875.488281zm-340.347656-14.035156c-1.042969 0-2.105469-.214844-3.117188-.664063-3.898437-1.734375-5.667968-6.273437-3.933594-10.171875l.058594-.136718c1.757813-3.886719 6.332032-5.617188 10.222656-3.863282 3.886719 1.757813 5.617188 6.332032 3.859376 10.222656-1.28125 2.886719-4.121094 4.613282-7.089844 4.613282zm327.449218-14.308594c-2.742187 0-5.398437-1.464844-6.796874-4.046875-2.105469-3.710937-.789063-8.410156 2.921874-10.511719 3.710938-2.105468 8.4375-.78125 10.542969 2.929688l.117188.214844c2.035156 3.753906.644531 8.441406-3.105469 10.476562-1.171875.636719-2.433594.9375-3.679688.9375zm-312.28125-12.796875c-1.480468 0-2.976562-.425781-4.300781-1.3125-3.550781-2.363281-4.488281-7.195313-2.121093-10.746094l.160156-.238281c2.453125-3.492188 7.273437-4.335938 10.765625-1.882812 3.492187 2.449218 4.335937 7.269531 1.886719 10.761718-1.484376 2.222656-3.910157 3.417969-6.390626 3.417969zm294.804688-12.941406c-2.273438 0-4.519531-1-6.039062-2.902344-2.683594-3.285156-2.226563-8.136719 1.042968-10.847656 3.285156-2.71875 8.144532-2.273438 10.871094 1.007812.070312.089844.144531.179688.21875.269531 2.617188 3.371094 2.011719 8.222657-1.355469 10.84375-1.410156 1.097657-3.082031 1.628907-4.738281 1.628907zm-275.265625-11.332031c-1.925781 0-3.851563-.714844-5.351563-2.148438-3.074218-2.957031-3.175781-7.847656-.21875-10.925781l.019532-.023438c2.9375-3.085937 7.824218-3.226562 10.917968-.300781s3.253907 7.785156.339844 10.886719l-.132812.136719c-1.515625 1.582031-3.542969 2.375-5.574219 2.375zm253.695313-11.105469c-1.839844 0-3.683594-.652344-5.160157-1.976563-3.183593-2.800781-3.527343-7.65625-.742187-10.871094 2.792968-3.222656 7.660156-3.578124 10.886718-.789062l.25.226562c3.140626 2.886719 3.34375 7.777344.457032 10.917969-1.523438 1.652344-3.605469 2.492188-5.691406 2.492188zm-230.378907-9.476563c-2.332031 0-4.636719-1.054687-6.160156-3.058594-2.578125-3.398437-1.902344-8.253906 1.496094-10.835937l.191406-.140625c3.441406-2.519531 8.277344-1.773438 10.796875 1.671875 2.519531 3.441406 1.773438 8.277344-1.667969 10.796875-1.398437 1.058594-3.03125 1.566406-4.65625 1.566406zm205.324219-9.019531c-1.34375 0-2.707031-.355469-3.945312-1.097656l-.1875-.113281c-3.628907-2.25-4.742188-7.015626-2.492188-10.640626 2.25-3.628906 7.011719-4.738281 10.640625-2.488281l.019531.011719c3.613282 2.226562 4.777344 6.976562 2.570313 10.605469-1.457031 2.394531-4 3.722656-6.605469 3.722656zm-178.859375-7.363281c-2.796875 0-5.496094-1.523438-6.871094-4.183594-1.957031-3.789062-.472656-8.449219 3.320313-10.410156.027344-.015625.152344-.078125.179687-.089844 3.820313-1.910156 8.460938-.363281 10.367188 3.453125s.359375 8.457031-3.457031 10.367187c-1.132813.582032-2.34375.863282-3.539063.863282zm151.078125-6.632813c-.933594 0-1.878906-.167969-2.800781-.527343l-.195313-.078126c-3.953125-1.605468-5.855468-6.113281-4.246094-10.066406 1.605469-3.953125 6.109376-5.859375 10.066407-4.25l.023437.007813c3.945313 1.589843 5.886719 6.074219 4.320313 10.027343-1.203125 3.03125-4.097657 4.886719-7.167969 4.886719zm0 0" fill="#a7c7d3"/><path d="m339.433594 335.5c0-46.421875-37.957032-83.976562-84.523438-83.328125-44.3125.613281-81.796875 38.332031-82.148437 82.648437-.160157 20.191407 6.859375 38.738282 18.65625 53.238282 11.167969 13.722656 18.738281 30.007812 21.507812 47.480468l3.753907 23.695313c.925781 5.867187 5.984374 10.1875 11.925781 10.1875h58.453125c6.078125 0 11.210937-4.519531 11.980468-10.546875l3.136719-24.574219c2.226563-17.457031 9.136719-33.964843 19.898438-47.890625 10.882812-14.082031 17.359375-31.738281 17.359375-50.910156zm0 0" fill="#fdd559"/><path d="m254.910156 252.171875c-4.976562.066406-9.859375.628906-14.621094 1.589844 38.230469 7.574219 67.058594 41.285156 67.058594 81.738281 0 19.171875-6.476562 36.828125-17.359375 50.90625-10.761719 13.929688-17.671875 30.4375-19.898437 47.894531l-3.136719 24.570313c-.769531 6.03125-5.898437 10.550781-11.980469 10.550781h32.085938c6.078125 0 11.210937-4.519531 11.980468-10.550781l3.136719-24.570313c2.226563-17.457031 9.136719-33.964843 19.898438-47.894531 10.882812-14.078125 17.359375-31.734375 17.359375-50.90625 0-46.421875-37.957032-83.976562-84.523438-83.328125zm0 0" fill="#fdc259"/><path d="m276.929688 510.644531h-35.585938c-3.617188 0-6.71875-2.578125-7.378906-6.132812l-6.519532-35.148438h62.773438l-5.890625 35.023438c-.609375 3.613281-3.738281 6.257812-7.398437 6.257812zm0 0" fill="#38627c"/><path d="m227.445312 469.363281 2.578126 13.90625h11.832031c14.523437 0 25.5625 13.054688 23.15625 27.375h11.917969c3.660156 0 6.789062-2.644531 7.398437-6.257812l5.890625-35.023438zm0 0" fill="#2f5066"/><path d="m227.429688 319.601562c0-4.351562 2.585937-8.492187 7.765624-12.429687 5.179688-3.9375 12.121094-5.90625 20.820313-5.90625 9.738281 0 17.503906 2.488281 23.308594 7.460937 5.796875 4.96875 8.699219 11.238282 8.699219 18.796876 0 2.59375-.390626 5.128906-1.175782 7.617187-.785156 2.484375-1.621094 4.582031-2.507812 6.289063-.890625 1.710937-2.199219 3.628906-3.921875 5.75-1.726563 2.125-3.007813 3.601562-3.84375 4.429687l-4.066407 3.882813-2.972656 2.484374c-3.523437 2.796876-5.695312 5.59375-6.523437 8.390626-.832031 2.796874-1.242188 6.835937-1.242188 12.121093 0 3.726563-2.59375 5.59375-7.769531 5.59375-2.59375 0-4.429688-.613281-5.515625-1.84375-1.089844-1.226562-1.632813-3.480469-1.632813-6.757812 0-10.648438 3.109376-18.738281 9.324219-24.269531l4.503907-3.683594c2.382812-2.050782 4.167968-3.660156 5.359374-4.839844 1.191407-1.175781 2.382813-2.917969 3.574219-5.21875 1.1875-2.304688 1.785157-4.6875 1.785157-7.144531 0-4.195313-1.445313-7.449219-4.335938-9.753907-2.886719-2.300781-6.761719-3.457031-11.609375-3.457031-3.40625 0-6.246094.53125-8.515625 1.585938-2.273438 1.058593-3.820312 2.1875-4.644531 3.386719-.828125 1.203124-1.832031 2.332031-3.019531 3.386718-1.1875 1.058594-2.554688 1.585938-4.101563 1.585938-1.960937 0-3.746094-.644532-5.34375-1.941406-1.601563-1.296876-2.398437-3.132813-2.398437-5.515626zm17.089843 86.230469c0-2.898437.878907-5.386719 2.640625-7.457031 1.761719-2.070312 4.089844-3.109375 6.992188-3.109375 2.898437 0 5.382812 1.035156 7.457031 3.109375 2.070313 2.070312 3.109375 4.558594 3.109375 7.457031 0 2.796875-1.035156 5.257813-3.109375 7.378907-2.074219 2.125-4.558594 3.1875-7.457031 3.1875-2.902344 0-5.230469-1.0625-6.992188-3.1875-1.761718-2.121094-2.640625-4.582032-2.640625-7.378907zm0 0" fill="#ff8812"/><path d="m332.109375 76.109375c0 21.160156-8.632813 40.300781-22.582031 54.09375v.011719c-13.742188 13.597656-32.65625 22.003906-53.527344 22.003906-20.789062 0-39.640625-8.34375-53.375-21.859375-14.03125-13.804687-22.734375-33.007813-22.734375-54.25 0-42.03125 34.078125-76.109375 76.109375-76.109375s76.109375 34.078125 76.109375 76.109375zm0 0" fill="#83d9ff"/><path d="m256 0c-5.296875 0-10.464844.542969-15.453125 1.574219 34.625 7.140625 60.65625 37.796875 60.65625 74.535156 0 21.160156-8.632813 40.300781-22.582031 54.09375v.011719c-10.253906 10.148437-23.390625 17.398437-38.070313 20.429687 4.988281 1.027344 10.15625 1.574219 15.449219 1.574219 20.871094 0 39.785156-8.40625 53.527344-22.003906v-.011719c13.949218-13.792969 22.582031-32.933594 22.582031-54.09375 0-42.03125-34.078125-76.109375-76.109375-76.109375zm0 0" fill="#5fc9ed"/><path d="m309.527344 130.203125v.011719c-13.742188 13.597656-32.65625 22.003906-53.527344 22.003906-20.789062 0-39.640625-8.34375-53.375-21.859375 1-4.335937 3.441406-8.324219 6.976562-11.558594 4.972657-4.574219 11.628907-6.894531 18.386719-6.894531h56.207031c6.769532 0 13.414063 2.320312 18.398438 6.894531 3.484375 3.203125 5.914062 7.117188 6.933594 11.402344zm0 0" fill="#5186ff"/><path d="m302.59375 118.800781c-3.101562-2.847656-6.847656-4.816406-10.867188-5.902343-3.535156 6.386718-7.953124 12.210937-13.105468 17.304687v.011719c-10.253906 10.148437-23.390625 17.398437-38.070313 20.425781 2.464844.507813 4.972657.898437 7.515625 1.164063.035156.003906.066406.007812.101563.011718 1.148437.117188 2.308593.203125 3.472656.269532.144531.007812.285156.023437.429687.03125 1.300782.066406 2.609376.101562 3.929688.101562 20.871094 0 39.785156-8.40625 53.527344-22.003906v-.011719c-1.019532-4.285156-3.449219-8.199219-6.933594-11.402344zm0 0" fill="#476eea"/><path d="m269.816406 78.441406-8.570312 5.226563c-3.164063 1.925781-7.136719 1.925781-10.300782 0l-8.574218-5.226563c-2.949219-1.800781-4.753906-5.011718-4.753906-8.472656v-22.953125c0-6.3125 5.109374-11.429687 11.414062-11.429687h14.125c6.304688 0 11.414062 5.117187 11.414062 11.429687v22.953125c0 3.460938-1.800781 6.671875-4.753906 8.472656zm0 0" fill="#fff"/><path d="m152.21875 257.421875c0 21.160156-8.632812 40.300781-22.582031 54.09375v.011719c-13.742188 13.597656-32.65625 22.003906-53.527344 22.003906-20.789063 0-39.640625-8.34375-53.375-21.859375-14.03125-13.804687-22.734375-33.007813-22.734375-54.25 0-42.03125 34.078125-76.109375 76.109375-76.109375s76.109375 34.078125 76.109375 76.109375zm0 0" fill="#83d9ff"/><path d="m76.109375 181.3125c-5.292969 0-10.460937.542969-15.453125 1.574219 34.625 7.140625 60.65625 37.796875 60.65625 74.535156 0 21.160156-8.632812 40.300781-22.582031 54.09375v.011719c-10.253907 10.148437-23.390625 17.398437-38.070313 20.425781 4.992188 1.03125 10.15625 1.578125 15.449219 1.578125 20.871094 0 39.785156-8.40625 53.527344-22.003906v-.011719c13.949219-13.792969 22.582031-32.933594 22.582031-54.09375 0-42.03125-34.078125-76.109375-76.109375-76.109375zm0 0" fill="#5fc9ed"/><path d="m129.636719 311.515625v.011719c-13.742188 13.597656-32.65625 22.003906-53.527344 22.003906-20.789063 0-39.640625-8.34375-53.375-21.859375 1-4.335937 3.441406-8.324219 6.976563-11.558594 4.976562-4.574219 11.628906-6.894531 18.386718-6.894531h56.207032c6.769531 0 13.414062 2.320312 18.398437 6.894531 3.484375 3.203125 5.914063 7.117188 6.933594 11.402344zm0 0" fill="#5186ff"/><path d="m122.703125 300.113281c-3.101563-2.847656-6.847656-4.816406-10.867187-5.902343-3.53125 6.386718-7.953126 12.210937-13.105469 17.304687v.011719c-10.253907 10.148437-23.390625 17.398437-38.070313 20.425781 2.464844.507813 4.972656.898437 7.515625 1.164063.035157.003906.066407.007812.101563.011718 1.148437.117188 2.308594.203125 3.472656.269532.144531.007812.285156.023437.429688.03125 1.300781.066406 2.609374.101562 3.929687.101562 20.871094 0 39.785156-8.40625 53.527344-22.007812v-.007813c-1.019531-4.285156-3.449219-8.199219-6.933594-11.402344zm0 0" fill="#476eea"/><path d="m89.925781 259.753906-8.570312 5.226563c-3.164063 1.925781-7.136719 1.925781-10.300781 0l-8.570313-5.226563c-2.953125-1.800781-4.757813-5.011718-4.757813-8.472656v-22.953125c0-6.3125 5.113282-11.429687 11.414063-11.429687h14.128906c6.300781 0 11.410157 5.117187 11.410157 11.429687v22.953125c0 3.460938-1.800782 6.671875-4.753907 8.472656zm0 0" fill="#fff"/><path d="m512 257.421875c0 21.160156-8.632812 40.300781-22.582031 54.09375v.011719c-13.742188 13.597656-32.65625 22.003906-53.527344 22.003906-20.789063 0-39.640625-8.34375-53.375-21.859375-14.03125-13.804687-22.734375-33.007813-22.734375-54.25 0-42.03125 34.078125-76.109375 76.109375-76.109375s76.109375 34.078125 76.109375 76.109375zm0 0" fill="#83d9ff"/><path d="m435.890625 181.3125c-5.296875 0-10.464844.542969-15.453125 1.574219 34.621094 7.140625 60.65625 37.796875 60.65625 74.535156 0 21.160156-8.632812 40.300781-22.582031 54.09375v.011719c-10.253907 10.148437-23.390625 17.398437-38.070313 20.425781 4.988282 1.03125 10.15625 1.578125 15.449219 1.578125 20.871094 0 39.785156-8.40625 53.527344-22.003906v-.011719c13.949219-13.792969 22.582031-32.933594 22.582031-54.09375 0-42.03125-34.078125-76.109375-76.109375-76.109375zm0 0" fill="#5fc9ed"/><path d="m489.417969 311.515625v.011719c-13.742188 13.597656-32.65625 22.003906-53.527344 22.003906-20.789063 0-39.640625-8.34375-53.375-21.859375 1-4.335937 3.441406-8.324219 6.972656-11.558594 4.976563-4.574219 11.632813-6.894531 18.390625-6.894531h56.207032c6.769531 0 13.414062 2.320312 18.398437 6.894531 3.484375 3.203125 5.914063 7.117188 6.933594 11.402344zm0 0" fill="#5186ff"/><path d="m482.484375 300.113281c-3.101563-2.847656-6.847656-4.816406-10.867187-5.902343-3.53125 6.386718-7.953126 12.210937-13.105469 17.304687v.011719c-10.253907 10.148437-23.390625 17.398437-38.070313 20.425781 2.464844.507813 4.972656.898437 7.515625 1.164063.035157.003906.066407.007812.101563.011718 1.148437.117188 2.308594.203125 3.472656.269532.144531.007812.285156.023437.429688.03125 1.300781.066406 2.609374.101562 3.929687.101562 20.871094 0 39.785156-8.40625 53.527344-22.007812v-.007813c-1.019531-4.285156-3.449219-8.199219-6.933594-11.402344zm0 0" fill="#476eea"/><path d="m449.707031 259.753906-8.570312 5.226563c-3.164063 1.925781-7.136719 1.925781-10.300781 0l-8.570313-5.226563c-2.953125-1.800781-4.757813-5.011718-4.757813-8.472656v-22.953125c0-6.3125 5.109376-11.429687 11.414063-11.429687h14.128906c6.300781 0 11.410157 5.117187 11.410157 11.429687v22.953125c0 3.460938-1.800782 6.671875-4.753907 8.472656zm0 0" fill="#fff"/></svg>