<svg height="464pt" viewBox="0 -11 464 463" width="464pt" xmlns="http://www.w3.org/2000/svg"><path d="m423.039062 19.78125c9.371094-9.359375 24.550782-9.359375 33.921876 0 4.492187 4.535156 7.019531 10.65625 7.039062 17.039062-.003906 6.363282-2.539062 12.464844-7.039062 16.960938l-11.28125 11.277344-34-33.917969zm0 0" fill="#dbd9da"/><path d="m213.742188 229.121094 197.976562-197.976563 33.941406 33.941407-197.976562 197.976562zm0 0" fill="#0f71c7"/><path d="m343.839844 73.058594h-22.640625v-16h16.878906l3.859375-11.496094c.394531-1.171875 1.050781-2.242188 1.925781-3.117188l39.601563-39.601562c1.5-1.5 3.535156-2.34375 5.65625-2.34375 2.125 0 4.164062.847656 5.664062 2.351562l22.550782 22.640626-11.328126 11.296874-16.894531-16.960937-32.609375 32.601563-5.078125 15.199218c-1.101562 3.25-4.15625 5.433594-7.585937 5.429688zm0 0" fill="#adabac"/><path d="m318.238281 192.5h145.761719v248h-464v-248zm0 0" fill="#dbd9da"/><g fill="#4e4e4e"><path d="m40 384.5h152v16h-152zm0 0"/><path d="m40 341.835938h384v16h-384zm0 0"/><path d="m40 232.5h152v16h-152zm0 0"/><path d="m40 288.5h152v16h-152zm0 0"/><path d="m408 296.5h16v16h-16zm0 0"/><path d="m376 296.5h16v16h-16zm0 0"/><path d="m344 296.5h16v16h-16zm0 0"/><path d="m272 384.5h152v16h-152zm0 0"/><path d="m312 240.5h104v32h-104zm0 0"/></g></svg>