<?xml version="1.0" encoding="utf-8"?>
<!-- Generator: Adobe Illustrator 22.1.0, SVG Export Plug-In . SVG Version: 6.00 Build 0)  -->
<svg version="1.1" id="Слой_1" xmlns="http://www.w3.org/2000/svg" xmlns:xlink="http://www.w3.org/1999/xlink" x="0px" y="0px"
	 viewBox="0 0 511 511" style="enable-background:new 0 0 511 511;" xml:space="preserve">
<style type="text/css">
	.st0{display:none;fill:#937DE2;}
	.st1{display:none;fill:#7570D6;}
	.st2{fill:#FDD7BD;}
	.st3{fill:#87DBFF;}
	.st4{fill:#6FC7FF;}
	.st5{fill:#FAC5AA;}
</style>
<path class="st0" d="M465.7,280.2c0,127.5-103.4,230.8-230.8,230.8c-31.3,0-61.1-6.2-88.3-17.5C72.2,462.7,17.5,394.2,6.2,311.9
	c-1.4-10.4-2.2-21-2.2-31.7C4,152.7,107.3,49.3,234.8,49.3C362.3,49.3,465.7,152.7,465.7,280.2z"/>
<path class="st1" d="M234.8,49.3c-12.2,0-24.2,1-35.9,2.8c110.5,17.2,195,112.8,195,228.1c0,115.3-84.5,210.8-195,228.1
	c11.7,1.8,23.7,2.8,35.9,2.8c127.5,0,230.8-103.3,230.8-230.8C465.7,152.7,362.3,49.3,234.8,49.3z"/>
<path class="st2" d="M494.5,263.1l-131.8,87.3c-9.4,6.2-20.8,8.7-31.9,6.9c-11.1-1.8-22.5,0.7-32,6.9l-17.6,11.7l-98.8-145.6
	l24.2-104.7c1.9-8.2,2.8-16.4,2.8-24.6c0-21.3-6.2-42.3-18.2-60.3c-2.9-4.4-4.3-9.5-4.3-14.4c0-8.5,4.1-16.8,11.7-21.8
	c10.2-6.8,23.8-5.5,32.6,3L247,22.6c18,17.4,31.8,38.6,40.5,62.1l8.5,22.9l87.7-57.9c14-9.3,32.9-5.2,41.9,9.1
	c8.6,13.8,4.2,32.1-9.4,41.1c-0.2,0.1-0.2,0.3-0.1,0.4c0.1,0.1,0.2,0.2,0.4,0.2c3.5-1.3,7.1-2,10.7-2c5.7,0,11.4,1.7,16.3,4.8
	c3.4,2.2,6.3,5,8.7,8.6c4.5,6.8,5.9,14.9,4.4,22.3c-2.3,11.7-10.9,17.8-12.5,18.9c-0.3,0.2-0.4,0.6-0.2,0.9c0,0,0,0,0,0
	c0.2,0.3,0.6,0.3,0.8,0.2c2.4-0.6,4.8-0.9,7.3-0.9c5.9,0,11.8,1.7,16.9,4.9c3.4,2.2,6.4,5,8.7,8.6c9.1,13.8,5.3,32.3-8.4,41.4
	c-0.3,0.2-0.7,0.5-1,0.7c-0.2,0.2-0.3,0.4-0.2,0.6c0,0,0.1,0.1,0.1,0.1c0.2,0.1,0.4,0.1,0.6,0c8.6-2.9,17.9-1.6,25.4,3.3
	c3.5,2.2,6.5,5.2,8.9,8.9C512,235.4,508.3,254,494.5,263.1z"/>
<path class="st3" d="M282.4,403.5l-55.6,36.8l-80.3,53.2C72.2,462.7,17.5,394.2,6.2,311.9l93.2-61.7l56.7-37.6
	c6.5-4.3,15.3-2.5,19.7,4l110.7,167.2C290.8,390.4,289,399.2,282.4,403.5z"/>
<path class="st4" d="M282.4,403.5l-55.6,36.8L99.3,250.2l56.7-37.6c6.5-4.3,15.3-2.5,19.7,4l110.7,167.2
	C290.8,390.4,289,399.2,282.4,403.5z"/>
<g>
	<path class="st5" d="M443.4,103.3l-43.9,23.5c-6.2,3.3-13.9,1.6-18.1-4.1l34.6-22.4c0.1,0.1,0.2,0.2,0.4,0.2c3.5-1.3,7.1-2,10.7-2
		C432.9,98.5,438.6,100.1,443.4,103.3z"/>
	<path class="st5" d="M468.8,158.2l-42.9,22.9c-6.2,3.3-13.9,1.6-18.1-4.1l34.6-22.4l1.5-0.7c0.2,0.3,0.6,0.3,0.8,0.2
		c2.4-0.6,4.8-0.9,7.3-0.9C457.9,153.3,463.8,155,468.8,158.2z"/>
	<path class="st5" d="M494,212.8L456.2,233c-6.2,3.3-13.9,1.6-18.1-4.1l30-19.4c0.2,0.1,0.4,0.1,0.6,0
		C477.2,206.6,486.5,207.9,494,212.8z"/>
</g>
</svg>
