<svg xmlns="http://www.w3.org/2000/svg" viewBox="0 0 450 450"><defs><style>.a{fill:#f0cd00;}.b{fill:#ffde50;}.c{fill:#ffea94;}.d{fill:#faa300;}.e{fill:#ffbd00;}.f{fill:#f68e00;}.g{fill:#d9d9d9;}.h{fill:#ff4700;}</style></defs><title>after-3_NEW</title><path class="a" d="M390.08,206.75A187.12,187.12,0,0,1,65.33,333.5,187,187,0,0,1,16,206.88,187.12,187.12,0,0,1,297.73,45.45a189.66,189.66,0,0,1,32,23.65A186.63,186.63,0,0,1,390.08,206.75Z"/><path class="b" d="M390.08,206.75c0,100.94-80,183.2-180.12,187a187,187,0,0,1-180.12-187c0-101.08,80-183.21,180.12-187C310.1,23.54,390.08,105.8,390.08,206.75Z"/><path class="c" d="M329.73,69.11,65.33,333.37a184.12,184.12,0,0,1-23.66-32L297.73,45.45A189.17,189.17,0,0,1,329.73,69.11Z"/><path class="c" d="M377.17,138.33,134.69,381A187.63,187.63,0,0,1,87.37,353.8L350,91A189.79,189.79,0,0,1,377.17,138.33Z"/><path class="d" d="M348.41,206.75A145.24,145.24,0,0,1,126.89,330.41a148.7,148.7,0,0,1-26.61-21,134.79,134.79,0,0,1-16-19.09A147.62,147.62,0,0,1,67.88,260,143.11,143.11,0,0,1,57.8,208.36v-1.75A145.31,145.31,0,0,1,203.11,61.31h1.74a146.38,146.38,0,0,1,51.62,10.08,150.33,150.33,0,0,1,30.38,16.4,156.24,156.24,0,0,1,19.08,16,143.88,143.88,0,0,1,21,26.62A146.32,146.32,0,0,1,348.41,206.75Z"/><path class="e" d="M305.8,103.92,100.28,309.57a135.27,135.27,0,0,1-16-19.08,147.62,147.62,0,0,1-16.4-30.38A143.21,143.21,0,0,1,57.8,208.49v-1.74A145.31,145.31,0,0,1,203.11,61.44h1.74a146.6,146.6,0,0,1,51.62,10.08,151.32,151.32,0,0,1,30.38,16.4A165.48,165.48,0,0,1,305.8,103.92Z"/><path class="f" d="M348.41,206.75a145.31,145.31,0,0,1-145.3,145.3c-2.83,0-5.51-.14-8.2-.27a145.41,145.41,0,0,0,0-290.34c2.69-.13,5.51-.27,8.2-.27C283.35,61.44,348.41,126.5,348.41,206.75Z"/><path class="f" d="M210.5,238.07a69,69,0,0,0,0-137.92H134.42a15.32,15.32,0,0,0-15.32,15.33v92.21H108.75A15.32,15.32,0,0,0,93.42,223a15.1,15.1,0,0,0,15.33,15.06H119.1v17.6H108.75a15.33,15.33,0,1,0,0,30.65H119.1v15.59a15.32,15.32,0,1,0,30.64,0V286.32h53.37a15.33,15.33,0,0,0,0-30.65H149.74v-17.6Zm-60.89-107.4H210.5a38.44,38.44,0,0,1,0,76.88H149.61Z"/><path class="c" d="M229.59,238.07a69,69,0,0,0,0-137.92H153.51a15.33,15.33,0,0,0-15.33,15.33v92.21H127.83A15.31,15.31,0,0,0,112.51,223a15.1,15.1,0,0,0,15.32,15.06h10.35v17.6H127.83a15.33,15.33,0,0,0,0,30.65h10.35v15.59a15.33,15.33,0,1,0,30.65,0V286.32h53.36a15.33,15.33,0,1,0,0-30.65H168.7v-17.6ZM168.7,130.67h60.89a38.44,38.44,0,0,1,0,76.88H168.7V130.67Z"/><path class="g" d="M375.28,200.05H355.19V159.87H294.9v40.18H274.81a20,20,0,0,0-20.1,20.1V420.93A20,20,0,0,0,274.81,441h100.3a20,20,0,0,0,20.1-20.09V220.15A19.89,19.89,0,0,0,375.28,200.05Z"/><path class="h" d="M375.28,440.85H275a20,20,0,0,1-20.1-20.09V330.42l140.5,60.28v30.06A20.14,20.14,0,0,1,375.28,440.85Z"/><path class="h" d="M337.62,88.77,356.54,82l13.51,37.83-18.92,6.75Z"/><path class="h" d="M393.69,173.54l8.61-18.06,36.3,17.05L430,190.77Z"/><path class="h" d="M395.71,132l37.83-13.51,6.75,18.92-37.82,13.51Z"/><path class="h" d="M374.44,120l17.05-36.3,18.07,8.61L392.5,128.63Z"/></svg>