<svg xmlns="http://www.w3.org/2000/svg" viewBox="0 0 450 450"><defs><style>.a{fill:#fdb171;}.b{fill:#37120b;}.c{fill:#3357bd;}.d{fill:#001533;}.e{fill:#582d11;}.f{fill:#ee6101;}.g{fill:#f09f5b;}.h{fill:#00265f;}.i{fill:#4985e2;}.j{fill:#ee8602;}.k{fill:#fff;}.l{fill:#f4c297;}.m{fill:#260d08;}.n{fill:#ededed;}.o{fill:#3c3c3b;}.p{fill:#f5c08c;}.q{fill:#ffcf9f;}.r{fill:#dadada;}.s{fill:#575756;}.t{fill:#f2c799;}.u{fill:#1d1d1b;opacity:0.05;isolation:isolate;}.v{fill:#ffd2a1;}</style></defs><title>after-4_NEW</title><path class="a" d="M377.8,118.13c2.08,1.52,4.58,7.77,1.8,13.47a21.79,21.79,0,0,1,12.08-1.95c6.53,1.11,8.2-2.08,10.56-3.19s5-4.31,6.8-4.44,3.34-1.12,4.72,1.24c1.25,2.09,1.53,4.31-1.66,5.84s-4.31,1.11-6.53,2.22-12.22,5.55-16.94,6.39-15.56,7.91-16.94,3.33-4-9.3-4.87-11.53-.55-6.52-.69-7.77S375.71,116.6,377.8,118.13Z"/><path class="b" d="M305.72,199.65c-.7-1.39-.83-5,.14-6.39s3.47-2.92,2.5-3.75-3.89-2.78-5.84-2.78c0,0-.27-.55-1.25-.55s-1.94,1.94-2.91,4.72-4.58,10.83-4.72,13.33,0,4.86,1,5.56,3.05,2.22,3.47,0,1.25-4.59,2.36-5.42,2.78-2.78,4-3.33S306,200.2,305.72,199.65Z"/><path class="c" d="M401.4,124l-22.77,6.25s-.7-4.72-1.53-9.58c-1.94.55-3.75,1-5.69,1.66-3.06,1.11-6,2.5-9,3.47,2.5,9.17,5.28,18.48,6,19,1.53,1.11,30.42-8,36.53-10.14Z"/><path class="d" d="M345,165.21s-8.33,21.24-8.89,23.6c-.28,1.39-28.61-1.11-28.61-1.11s-4.72,6.25-2.91,13.61c0,0,34,3.2,36.94,3.06s18.33-22.92,18.33-22.92Z"/><path class="a" d="M379.18,102.85c-.55,3.33-1.25,2.92-1.25,2.92s1.12,3.75,2.5,7.5,5.7,6.66,5.7,6.66-1.11-4.44,1.39-6,4.58-2.78,5.14-5.55l-8.61-7.09Z"/><path class="e" d="M366.55,227.84c-1.39,1-4.17,2.08-6,1.39s-3.88-3.34-4.72-2.09-2.22,4.87-1.94,7.09a1.59,1.59,0,0,0-.42,1.52c.14,1.12,2.64,1.81,5.84,2.37s13.88,2.91,16.8,2.63,2.92-.13,4.3-1.8c1-1,.7-2.64-2.22-2.78-3.19-.28-2.08.28-3.19-.55-1.11-1-5.83-5.14-6.67-6.25C367.52,227.7,367.1,227.42,366.55,227.84Z"/><path class="a" d="M396.82,86.6a6.65,6.65,0,0,1,1.53,4c.14,1.53,1.11,2.5.42,3.61s-.28,2.64.83,3.89c1.25,1.53,1.67,2.5.28,2.91s-1.11.28-1.11.7.55.83-.14,1.53a1,1,0,0,1,0,1.25c-.56.55-.84.69-.56,1.39.28.55,1,2.5-.69,3s-5-.28-5.42.28-1.8-.14-3.61,1.66-3.06,1.53-3.06,1.53-1.38.14-5-5.27a7.82,7.82,0,0,1-1.53-2.5s1.94.55,1.8-.42c0,0,1-1.11.84-1.81,0,0,.55-1.66,0-2.5a1.41,1.41,0,0,0-.14-1.25,4.07,4.07,0,0,1-.84-2.08c0-1,4.59-4.17,4.86-4.44s1.12-1.11.84-1.67a.72.72,0,0,1,.28-1.11C386.54,88.82,396.82,86.6,396.82,86.6Z"/><path class="f" d="M378.49,105.35c1.11-3.47-1.11-7.5-2.22-10.69s-.28-10.14,6.11-12.22c10.83-3.62,15.83,1.38,14.72,4.86,0,0-8.19,2.5-8.75,10.55l-1.67.14s.42-3.89-1.8-3.75-1,2.5-1.11,3.47-1.67,2.78.55,2.78c0,0,.42,1.67-3.05,3.61A12.09,12.09,0,0,1,378.49,105.35Z"/><path class="f" d="M388.91,106.6a4.57,4.57,0,0,1-2-2.64,6.33,6.33,0,0,1,.42-3.75s0,4.17,2.91,4.45a8.08,8.08,0,0,1,4.59,1.52,3.08,3.08,0,0,0,3.33-.41c.28.69.83,2.36-.83,3s-5-.28-5.42.28C391.41,108.54,389.88,107.43,388.91,106.6Z"/><path class="g" d="M392.52,108.82h.69a13.31,13.31,0,0,1-3.61-1.53,6.2,6.2,0,0,1-2.78-4.72s-1,4.59,5,7.78A5.12,5.12,0,0,0,392.52,108.82Z"/><path class="h" d="M345.85,150.21s-7.22,8.19-5.41,15.13,20.41,18.2,32.91,27.22c0,0-13.61,24.59-18.61,35.14,0,0,7.36,5.42,14.58,2.5,0,0,20.42-36.66,20.42-39.58,0-5.83-15.83-19.44-23.33-27.22Z"/><path class="i" d="M378.07,105.77A26.91,26.91,0,0,0,362.8,119.1c-5.56,10.69-19,32.22-19,32.22s17.36,11,22.5,13.05c0,0,14.44-20,16-23.47s4.44-7.77,4.72-15.55a39.59,39.59,0,0,0-.83-9Z"/><path class="j" d="M443.48,168a1.36,1.36,0,0,1-.27,2l-25.42,19.58a1.35,1.35,0,0,1-1.94-.28l-14.31-18.75a1.36,1.36,0,0,1,.28-1.94L427.24,149a1.35,1.35,0,0,1,1.94.27Z"/><path class="d" d="M414.74,150.21,406,156.87c-1,.7-1,2.36,0,3.47l4,5.14c1,1.25,2.49,1.67,3.47.84l8.75-6.67c1-.69,1-2.36,0-3.47l-4-5.14C417.24,149.79,415.71,149.37,414.74,150.21Zm5.14,7.77-7.78,6-4-5.14,7.78-6C415.85,152.71,419.88,158,419.88,158Z"/><path class="h" d="M433.76,155.35a1.35,1.35,0,0,1-.27,1.94l-25.42,19.58a1.35,1.35,0,0,1-1.94-.28l-4.73-6.11a1.36,1.36,0,0,1,.28-1.94L427.1,149a1.35,1.35,0,0,1,1.94.27Z"/><rect class="k" x="411.19" y="172.01" width="4.03" height="4.03" transform="translate(-20.54 287.57) rotate(-37.51)"/><polygon class="h" points="414.88 174.23 412.93 175.62 411.54 173.68 413.35 172.29 414.88 174.23"/><rect class="k" x="427.37" y="159.53" width="4.03" height="4.03" transform="translate(-9.45 295.3) rotate(-37.57)"/><rect class="h" x="428.24" y="160.34" width="2.36" height="2.5" transform="matrix(0.79, -0.61, 0.61, 0.79, -9.6, 294.9)"/><path class="a" d="M414.6,151.87c-.42-2.91-2.36-2.5-4.31-3.05s-5.83,1.66-8.75,1.8a15.52,15.52,0,0,1-4.3-.27,70.77,70.77,0,0,1-.83,7.5c3-.56,5.55-1,6.66-1.12,2.64-.27,3.75.7,7.5.42S415,154.37,414.6,151.87Z"/><path class="c" d="M366.13,117.71s-2.78,37.64-1.67,39.3,31.39,2.22,37.78,2.22l.14-11.38-23.61-1.39S381,134,381.82,129.1a85.72,85.72,0,0,0,.84-11.81,9.51,9.51,0,0,0-8.48-5.14A9.12,9.12,0,0,0,366.13,117.71Z"/><path class="l" d="M330.16,16.05c.56.56,3.2,1.53,4,4.31.42,1.53.28,1.39.14,1.94-.42,1,.41,1.95.83,2.5.69.83,1.53,1.39.42,1.95s-.7,1.11-.28,1.38-.28.84-.42,1,.56.55.14.83-.83.28-.83.69.42,1.67-.28,2.23-2.22.14-3.19.14a3.46,3.46,0,0,0-2.64.69,7,7,0,0,0-2.22,3.61A24.42,24.42,0,0,1,320,36.19s2.64-1.94,2.92-3.89c.14-1.53-1.67-2.92-1.53-3s1.39-10.56,1.39-10.56Z"/><path class="l" d="M330.86,32.72c-1.39.14-1.53,2.5-1.53,3.05a10.87,10.87,0,0,0,.83,4c.7,1.39-5.42,1-5.42,1l-2.91-5.55,4.58-3.61Z"/><path class="m" d="M320.44,19.94s-2.08-10-11.53-6c-8.89,3.75.56,12.36-2.5,14-1.94,1.11-2.77-.84-5.55-1.12-2.5-.13-4.58,2.64-3.75,6.12,1.39,6.8,4.3,10.83-.42,9,0,0,1.25,2.36,3.33,2.22,1.67-.13,3.2-1.25,2.92-4-.69-6.11,3.47-5.56,5.28-3.89,2.78,2.64,9-.56,7.5-5.56-2.22-7.5.83-11.11,3.33-9.44Z"/><path class="m" d="M324.33,29a2.89,2.89,0,0,1-1.53-3.34,4.21,4.21,0,0,0,2.92-.13c1.11-.56,1.66-4.31,2.91-5.56a8.64,8.64,0,0,1,3.2-1.94l1-.28s-3.47-6-9-4-7.91,7.5-4.86,13.06c1.81,3.47,3.06,4.58,3.47,5.83.28.69.42,1.25,1-.42C323.63,30.91,324.61,29.8,324.33,29Z"/><path class="h" d="M376.82,40.63a6.47,6.47,0,0,1,1,1,7.09,7.09,0,0,1,1.38,5.27,7.1,7.1,0,0,1-11.8,4.31l-1-1a7.1,7.1,0,0,1,1.39-10A7.29,7.29,0,0,1,376.82,40.63Zm-8.19,9.31a5.45,5.45,0,0,0,6.8.28,5.1,5.1,0,0,0,2.09-3.61,6.05,6.05,0,0,0-1-4A5.36,5.36,0,0,0,367.94,49,2.43,2.43,0,0,0,368.63,49.94Z"/><path class="i" d="M365.85,38.41a1.48,1.48,0,0,0-.14,2l5,6.66,5,6.67a1.36,1.36,0,0,0,1.81.41l13.89-6.94a1.46,1.46,0,0,0,.13-1.94l-6.8-8.89-6.81-8.89a1.35,1.35,0,0,0-1.8-.42Z"/><path class="f" d="M377.66,54.1,380,53l2.64-1.94a1.32,1.32,0,0,0,.27-1.81L372.1,34.8a1.32,1.32,0,0,0-1.8-.28l-2.64,1.95-1.81,1.94a1.48,1.48,0,0,0-.14,2l5,6.66,5,6.67A1.42,1.42,0,0,0,377.66,54.1Z"/><path class="k" d="M376.27,41.05a1.51,1.51,0,0,1,2.08.28,1.4,1.4,0,0,1-.28,2.08,1.51,1.51,0,0,1-2.08-.28A1.38,1.38,0,0,1,376.27,41.05Z"/><path class="l" d="M361.55,51.05s.69-.14,1.39-1.95,3.88-3.47,4.44-3.74.42.83-.83,1.8-1.53,1.39-.7,1.11,2.22-1.25,2.92-.69A3.07,3.07,0,0,1,370,49.66c0,.69,1.39,1.94-2.64,3.33-2.92,1-1.25.14-2.64.7a15.6,15.6,0,0,0-2.08.83C359.88,55.77,361.55,51.05,361.55,51.05Z"/><path class="h" d="M327.38,50.08s16.25,17.77,18.2,17.63S365,55.22,365,55.22L361.55,49l-14.17,8.19s-12.64-15.28-16-17.64C327.94,36.88,327.38,50.08,327.38,50.08Z"/><path class="d" d="M322.25,34.52s-18.06,18.33-19.17,19.72,2.78,6.95,8.89,13.47,5.14-6.25,5.14-6.25l-5-5.83,5.41-5.28Z"/><path class="h" d="M307.52,74.8c2.37-3.61,5.14-11.53,5.42-15.42.83-11.39,3.75-21.8,9.58-25.41,0,0,4.31,2.77,6.81,1.94,0,0,5.69,3.75,5.28,12.36s-1,8.47-5.14,16c-3.2,5.84-6.67,10.56-6.53,13.89Z"/><path class="l" d="M318.91,77.57S313.5,92.85,303.08,103s-16,14.3-19,16.11-12.91,12.36-14.3,15.28-3.61,7.22-2.78,9.86c1,3.33-.83,4.86-1.66,3-1.95-3.75-1-3.89-2.78-7.92-.56-1.25.69-4,.28-5-.84-2.23-2.5-1.12,0-2.37a31.7,31.7,0,0,1,3.75-2.36c1.66-1,2.91-4,4.58-6.94,5.83-10.28,8.75-13.19,14.16-15s10.84-9.3,12.09-14.3,4.16-8.61,5.27-12.5,6.25-6,6.25-6Z"/><path class="l" d="M312.38,91.74a133.45,133.45,0,0,0,21.11,4.72c6.39.7,1.53.42.14,1.11-2.77,1.39-6.94,4.17-8.05,9.17s-4,8.89-6.95,9.72-4.16,1.81-2.08,5.42,1.81,11.66,4.31,11a40.15,40.15,0,0,1,0-7.64c.41-3.89,2.36-6.25,6.52-10.42S350,96.74,348.63,93.13s-24.16-10.42-24.16-10.42L322,78l-5.56,1.39Z"/><path class="f" d="M307.52,74.8s-4.58,1.11-7.91,6.8S292.66,97,287.8,98.13s-3.19,3.33-2.22,3.47c2.08.14,2.08,5,6,4.72s5.84-1,8.34.84c2.08,1.52,7.5,1,8.19-.56s6.39-2.22,8.05-1.67c1.81.56,6.12,1.25,6.81-.14s4-5,6.53-5.27,2.77-2.64,3.47-3.34,3.19-1.25,4.44-2.08,5.7-5,3.61-6.25-16.8-6.53-17.36-7.5a4.3,4.3,0,0,1-.69-2.22Z"/><path class="h" d="M265,130.35a6.64,6.64,0,0,0-4.86,2.5,24.49,24.49,0,0,1-4.72,4.72l.83,1,5.41-4.3a29.56,29.56,0,0,1-1.52,5.69c-.84,1.67-1.81,1.39,2.36,6.67,2.08,2.63,3.89,2.91,4.44,1.66.42-.83,0-2.77-.28-4.16C266.83,144.24,262,141.6,265,130.35Z"/><path class="h" d="M319.05,116.32a6.81,6.81,0,0,0-4.86,2.36,20.62,20.62,0,0,1-4.86,4.45l.83,1.11,5.56-4a29.94,29.94,0,0,1-1.67,5.55c-1,1.53-1.8,1.25,2.22,6.67,2,2.64,3.75,3.06,4.45,1.81.41-.84.14-2.78-.14-4C320.44,130.07,315.72,127.15,319.05,116.32Z"/><path class="n" d="M111.71,160.9C101.29,173.26,52.69,221.73,26,217c0,0-11.11-6.39-11.25-6.53-18.47-20.28-4.44-36.25,17.92-46.66,7.91-3.75,54-21,64.71-25.56l3.75-1.66C103.93,141.87,108.93,155.62,111.71,160.9Z"/><path class="n" d="M130.18,224.78,91.29,299.5c-47.08-36.53-85-72.36-85-106H58.94C77.82,214.23,102.13,223.67,130.18,224.78Z"/><path class="n" d="M257.25,377.69,301.41,366c-5.55-36.66-16.94-77.35-31.66-120.27l-44.16,11.67Z"/><path class="n" d="M354.6,330.47a278,278,0,0,1-18.75,22.22h0c-23.6,24.72-49.71,41.52-77.21,50.69l-13.89-23.33-7.64-12.92c4-3.33,8.06-6.66,12.22-9.86,3.34-2.5,6.67-5,10-7.36,25.56-18.19,54.17-33.19,84.72-46.24Z"/><path class="n" d="M258,334.36c-2.09,21.25,0,48.74.55,72.77a225.65,225.65,0,0,1-.83,29.86H95.6a242.48,242.48,0,0,1-.7-32.36c.56-22.5,2.23-47.77.56-67.91a117,117,0,0,0-2.08-15.28c-2.78-12.22-4.31-27.22-6.81-49.72v-.27c-.83-7.5-1.94-16-3-25.42,20.41-8.47,47.35-20.14,51.66-24.44,8.61,3.33,32.63,4.3,41.52,5.28,4.45-.42,12.64-1,20.83-1.67s16.39-1.94,20.7-3.61c4.44,4.17,31.24,16,51.66,24.44-4.86,37.92-6.25,59-10,75.41A105.54,105.54,0,0,0,258,334.36Z"/><polygon class="o" points="170.87 269.5 166.7 249.92 176.7 249.64 186.56 249.92 182.53 269.5 170.87 269.5"/><path class="p" d="M403.63,295.75l3.61-2.5,4.72-4.31,4.58-12.77a4.64,4.64,0,0,1,4-3.06L422.1,269a4.59,4.59,0,0,1,5.83-2.78h.14a3.63,3.63,0,0,1,1.53,1,5.17,5.17,0,0,1,4.72,0h.14a5,5,0,0,1,2.08,6.67L427.37,291s0,.14-.13.14-.14.27-.28.41-.14.28-.28.42l-.28.28-.41.41-.14.14-16,11.11a5.06,5.06,0,0,1-6.95-1.25v-.14A4.48,4.48,0,0,1,403.63,295.75Z"/><path class="p" d="M364.32,296.58l14.86-4.72a6.22,6.22,0,0,0,2.64-1.11l15.28-9.17a5,5,0,0,1,6.8,1.67v.14a4.94,4.94,0,0,1-1.66,6.8l-9.72,6C392.38,296.31,362.94,296.86,364.32,296.58Z"/><path class="q" d="M363.21,297c12.22-4.58,41-1.53,41-1.53l16.53-7.36L432.24,274a4.88,4.88,0,0,1,6.94-.7h.14a4.89,4.89,0,0,1,.69,6.95l-14.16,16.52s-12.22,8.33-16.25,10.56c-.7.41-2,.83-3.06,1.39-4.72,2.08-18.05,7.36-30.13,8.47l-15.7,4.16-8-17.63Z"/><rect class="r" x="348.89" y="300.37" width="15" height="28.33" transform="translate(-90.26 151.88) rotate(-21.42)"/><path class="k" d="M361.41,325.05a2.46,2.46,0,1,1,1.39-3.19A2.52,2.52,0,0,1,361.41,325.05Z"/><polygon class="s" points="170.87 269.5 161.15 371.02 176.7 384.77 192.12 371.02 182.53 269.5 170.87 269.5"/><path class="t" d="M148.37,199l.14,8.61h0l.14,9.17h0l.14,4.17.55,29.58,17.5-.42,9.45-.14H177l8.61-.14,18-.42.84-28.46.14-3.62.27-9.16h0l.28-7.5Z"/><path class="r" d="M149.34,266.72c-9.86-13.88-15.83-28.47-17.08-43.74l16.25-9c3.06,14,13.05,27.64,28.05,35.83Z"/><path class="r" d="M203.92,266.72c9.86-13.88,15.83-28.47,17.08-43.74l-16.24-9c-3.06,14-13.06,27.64-28.06,35.83Z"/><path class="u" d="M95.88,437h0c-.42-3.61-.7-26.25-.84-31.39v-.28l-.14-.83c.56-22.5,2.23-47.77.56-67.91a117.2,117.2,0,0,0-2.08-15.28c-2.78-12.22-4.31-27.22-6.81-49.71,2.08,13.19,16.53,66,24.44,84.71A71.63,71.63,0,0,0,116.57,367c9,14.59,23.05,26.39,39.58,29.17l-45.27-6.25c20.41,18.75,51.1,38,77.35,47.08H95.88Z"/><path class="u" d="M335.72,352.69c-23.61,24.72-49.72,41.52-77.22,50.69v2.22c-.42,4.31-1,26.94-1.67,31.25H213.37c16.38-5.56,26-38.75,31.24-56.8a147,147,0,0,0,4.59-22.78c4.16-32.91-.28-68.19-1.11-78.32.69,6,8.47,33.46,11.11,71,.41,5,.55,10.42.69,15.83C270.44,389.21,304.61,372,335.72,352.69Z"/><path class="t" d="M151.15,94.1c0,.14,0,.28-.14.28a15.16,15.16,0,0,1-4.58,6.8,30.88,30.88,0,0,1-7.36,4.59,30.9,30.9,0,0,1-11.95,3.75,13.54,13.54,0,0,1-4.72-.42c.28-.56.7-1.11,1-1.67,1.95-3.19,3.89-6.52,6.81-8.89,1.39-.83,2.78-1.52,4.17-2.49a94.9,94.9,0,0,0,8.74-5.84,13.73,13.73,0,0,1,3.06-1.8,4.26,4.26,0,0,1,3.47.14C151.43,89.66,151.57,92.16,151.15,94.1Z"/><path class="o" d="M148,84.38A35.66,35.66,0,0,0,149.34,93a10.62,10.62,0,0,0,5.56,6.39c2.64,1.11,15.69-1.11,17.36-3.47C164.9,95.21,153.09,93.13,148,84.38Z"/><path class="v" d="M178.09,102.57c-24.86,0-44.72,16.53-42.63,46.11a82,82,0,0,0,1.39,10.14c-5.56-3.06-10.42,2.36-8.34,10.83,1.39,6,4.31,13.89,7.64,15,3.89,1.39,5.14-1.11,5.42-1.11,1.8,8.47,2.5,16.11,5.69,20.69a146.49,146.49,0,0,0,9,12.36c5.83,6.8,10.83,8.47,21.94,8.47h0c11.25,0,16.11-1.67,21.94-8.47a146.49,146.49,0,0,0,9-12.36c3.05-4.44,3.89-12.08,5.69-20.69.28.14,1.39,2.5,5.42,1.11,3.33-1.11,6.25-9.17,7.64-15,1.94-8.33-2.78-13.89-8.33-10.83A84,84,0,0,0,221,148.68C222.81,119.1,203.09,102.57,178.09,102.57Z"/><path class="o" d="M142.26,111.32c-9.44,11.25-12.5,23.61-8.61,46.53,3.75,2.08,5.69,4.86,7.22,16.24,2.78.7,3.89,1,6.39,1.81C132,115.21,155.59,114,162,112.71c5.28-1.11,26.8-1.11,32.08,0,6.53,1.25,30,2.5,14.72,63.19,2.5-.83,3.61-1,6.39-1.81,1.53-11.38,3.47-14.16,7.22-16.24,3.89-22.92-.27-34.45-8.61-46.53C202.39,94.52,159.2,91.32,142.26,111.32Z"/><path class="o" d="M186.29,90.77a13.16,13.16,0,0,1-2.23,4.72c4.17-1.11,12.36-7.08,15.56-7.36C191.84,109.52,171,132.29,151.7,136c2.09-2.36,4-4.86,6.12-7.22-10.14,2.92-20.14,6-30.28,8.89,3.47-7,6.81-13.89,10.28-20.83-3.61,1.25-7.22,2.64-10.84,3.89,9.59-17.23,27.78-27.36,45.28-25.28-1-.83-2.64-2.92-3.89-4.17,4.31.42,5.69.14,10.14,2.92C180.73,92.57,183.65,91.88,186.29,90.77Z"/><path class="o" d="M182.54,120.9a41.56,41.56,0,0,0,19.72,8.89c-1.39-1.94-2.78-3.89-4.17-5.69,8.75,1.39,17.5,2.91,26.25,4.3a46.47,46.47,0,0,0-9.45-20.13c2,0,3.89.14,6,.14-10-10.84-27.09-13.89-38.89-6a11.44,11.44,0,0,0-4.72,9.31C177.12,115.77,179.76,118.82,182.54,120.9Z"/><path class="v" d="M175.45,103.41c-.69,1.94-3.19,2.36-5.27,2.5a78.92,78.92,0,0,0-18.06,3.33c-3.47,1.11-7.22,2.64-9.16,5.69a14.12,14.12,0,0,0-2,4.72c-1.39,4.86-2.36,9.86-4.3,14.59s-5,9.16-9.59,11.38c-4.44,2.36-10.55,2.09-14-1.52-2.92-3.06-3.61-7.78-2.78-11.81s3.05-7.91,5.28-11.52c2.22-3.89,4.58-7.64,6.8-11.53.28-.56.7-1.11,1-1.67,1.95-3.19,3.89-6.53,6.81-8.89.42-.41,1-.69,1.39-1.11a17.59,17.59,0,0,1,2.78-1.39A30.67,30.67,0,0,1,145,94.66c1.94,0,4-.14,6-.28,6.67-.56,13.19-1.11,19.58,3.75,1.11.83,2.64.69,3.61,1.66A3.55,3.55,0,0,1,175.45,103.41Z"/><polygon class="r" points="124.21 150.07 111.71 160.9 97.13 138.54 109.49 129.79 124.21 150.07"/><path class="o" d="M155,111.6a16.81,16.81,0,0,0,19.44-2.5c-9.58-2.36-19.3-4.72-28.89-7.08C148.37,105.63,151.15,109.38,155,111.6Z"/><path class="o" d="M186.7,107.71a56.08,56.08,0,0,1,16.53-3.61c-2.78,1-4,4.31-6.53,5.69a7.55,7.55,0,0,1-5.28.42A13.05,13.05,0,0,1,186.7,107.71Z"/></svg>