<svg xmlns="http://www.w3.org/2000/svg" viewBox="0 0 450 450"><defs><style>.a{fill:#e5b5ac;}.b{fill:#ff786c;}.c{fill:#ce9f99;}.d{fill:#3c2e29;}.e{fill:#f2595b;}.f{fill:#454e5b;}.g{fill:#515a66;}.h{fill:#d6a9a3;}.i{fill:#fff;}.j{fill:#4991c9;}</style></defs><title>after-1_NEW</title><polygon class="a" points="61.2 221.48 57.36 208.41 57.67 180.59 62.44 159.63 70.41 150.75 73.69 149.52 79.18 140.75 87.72 134.24 87.72 139.2 81.85 147.82 77.96 155.79 87.72 147.82 96.26 141.03 96.26 146.76 90.77 153.35 85.28 162.29 81.85 175.31 85.28 184.76 96.26 168.88 104.19 168.88 101.14 174.7 91.38 194.83 81.85 199.28 77.47 216.48 61.2 221.48"/><polygon class="a" points="385.14 222.37 393.06 207.17 396.46 183.17 395.85 161.8 389.8 151.61 386.84 149.78 383.17 140.16 376.1 132.17 375.14 137.01 379.2 146.55 381.46 155.07 373.48 145.42 366.46 137.14 365.36 142.73 369.44 150.21 373.07 160 373.9 173.35 368.74 181.91 361.09 164.3 353.35 162.77 355.21 169.04 360.84 190.56 369.27 196.73 371.44 213.98 385.14 222.37"/><path class="b" d="M367.12,218.63c-6,11.79-6.73,29.3-13,41-5.88,10.91-9.05,15.76-7.52,25q-.57-1.09-1.2-2.16a130,130,0,0,0-.65,23q-2.75-10.5-5.44-21c-.35,8.26-.71,16.6-2.69,24.63-.86-21.27-8.14-39.53-18.48-58.14-2.85-5.12-12.28-39.3-18.46-39.87l-49.81-4.33L220.47,216.9l-28.7-10-53.11,11.11c-10.58,18.11-8.49,25.55-14,36.82-8.06,16.57-13.82,30.25-17.4,29.39-2.18-.52-2.73-6.19-2.83-11.35A144.24,144.24,0,0,0,100.82,296a29.26,29.26,0,0,1-2-9.65,8.39,8.39,0,0,0,.23-4.93c-9.79-26.34-8.48-38.35-13.23-62.83l-33,14a136.11,136.11,0,0,0,14.23,84.82q4.25,6.69,8.46,13.39l28.18,5.64L121,322.54l39.79-31.9-4.23,60,4,.3,2.35.18-4.22,9.71,2.11,10.52s.71,16.84,2.11,18.06c.74.64,59.76-.19,59.76-.19,24.16,1.61,59.27-3.61,60-4.24l-4.92-20.55,7.74-3.6-4.23-9.71,2.82-.22,3.52-.26-10.31-66.21,51.88,44.22,8.78,7.49,28.17-5.64,8.46-13.38c4.35-13.07,8.61-26.73,12.69-41q6.52-22.77,11.55-44.14ZM91.85,304.19a10.09,10.09,0,0,1,.5-2.27C92.16,302.68,92,303.43,91.85,304.19Z"/><polygon class="c" points="195.29 186.31 195.29 211.02 226.29 227.92 247.49 211.72 244.67 180.73 195.29 186.31"/><polygon class="c" points="179.57 142.39 174.37 148.09 182.16 172.22 193.86 172.22 184.12 148.09 179.57 142.39"/><polygon class="c" points="252.96 146.5 243.22 170.63 254.91 170.63 262.7 146.5 257.5 140.79 252.96 146.5"/><polygon class="a" points="243.22 105.8 218.54 110.17 194.51 112.89 186.71 130.55 184.12 148.09 191.26 185.12 210.53 201.26 232.18 201.26 245.81 185.12 252.96 148.09 250.36 130.55 243.22 105.8"/><path class="d" d="M258.15,81a63,63,0,0,1-19.34,8.88A62.47,62.47,0,0,1,224.38,92a6.86,6.86,0,0,0,1.13-4.72,7.2,7.2,0,0,0-3.73-5.11A19.1,19.1,0,0,1,216.05,89a19.3,19.3,0,0,1-9.85,3.69,10.25,10.25,0,0,0-.79-5.17,10.64,10.64,0,0,0-5.71-5.4q-1.62,6.12-3.25,12.25a14.65,14.65,0,0,0-2.87-4.78A14.85,14.85,0,0,0,188,85.75a29.69,29.69,0,0,1-.64,10.66A29.28,29.28,0,0,1,184.9,103l-7.28,12.37v20.27l7.28,16.55,3.79-26.09,14.53-14.17,8.82,6.61,18.84-1.36,7.14-7,10.37,15.9,2.53,25.48,6.58-10.75.65-20.43L253,109.8l5.19-5.38-12.34-7.75a20,20,0,0,0,6-3.81A21.09,21.09,0,0,0,258.15,81Z"/><polygon class="d" points="187.77 146.88 213.47 137.75 207.76 129.34 187.77 146.88"/><polygon class="d" points="221.39 137.78 249.79 146.15 227.7 130.08 221.39 137.78"/><path class="e" d="M195.29,201.26C190,205.31,189,221.51,189,221.51l12.33,20.26,9.51-13.85h13v-9.86L201.28,208Z"/><path class="e" d="M247.49,201.26l-6,6.73-20.11,10.07v9.86H232l9.51,13.85,12.32-20.26S252.75,205.31,247.49,201.26Z"/><path class="e" d="M241.18,227.92v-8H217.83l-11.45,5.51,4.41,18.79L206.38,338c-.63,13.3,20.61,32.7,27,39.5,14.61-13.36,20.49-38.85,20.49-38.85l-18-96.89Z"/><polygon class="f" points="237.61 264.55 228.39 237.79 233.33 224.4 221.4 218.06 210.79 223.62 215.02 237.79 210.79 266.67 209.36 289.76 206.38 338.01 233.33 380.77 253.82 338.66 244.13 294.4 237.61 264.55"/><path class="g" d="M209.36,289.76l-3,48.25,27,42.76,20.49-42.11-9.69-44.26C224.62,316.56,214.11,303.31,209.36,289.76Z"/><path class="g" d="M291.37,491.39c-.24-20.81-.42-38-.54-49.54l-8-54.1-.22-2.81L181.05,392.4l-20.27,1.48L163.17,440l-2.39,5.34a.64.64,0,0,0-.06.11l-3.83,8.41c-1.36,3,2.41,12.92,3,16.51,1.27,8.47,2.17,17.05,3.12,25.57,2,17.66,3.49,35.42,3.17,53.21-.59,34.89-2,65.5-5,100.27s.77,66.62,13.36,108.34c.72,2.39,5.08,4,7.42,3.72l29.86-3.5c5.62-.61-2.43-93.38-3.72-103.32-6-46.33,19.27-108.86,23.28-143.5q2.35,15.39,4.37,31.48L233.53,501c.56,8.67,1.9,30.92,2.89,47.37q3.17,26.08,5.35,53.94c0,.35.06.71.07,1.07.21,2.59.39,5.14.57,7.72.23,3.18.44,6.36.65,9.53,3,48.36,6.06,93.13,4.15,134.2l39.69-3.29c5.37-77.26,6.13-130,5.7-164.93C292.48,577.4,292,543.58,291.37,491.39Z"/><path class="e" d="M273.07,269.66l-2.92,19.51,2.92,25.43s6.43,26.22,11,36.31l3.52-.26-10.31-66.21,51.88,44.22C331.34,325,273.07,269.66,273.07,269.66Z"/><path class="f" d="M162.54,386.6s-1.83,10.67-1.31,16.1C193.46,408.34,283,390,283,390a89.57,89.57,0,0,0-2.18-12.47C234.67,385.52,162.54,386.6,162.54,386.6Z"/><path class="f" d="M234,458.37c1.84-14.87-2.31-54.59-3.2-66.91-4.14-2.66-4,1.18-4,1.18s4.31,50.26,3.24,68.48l-36.8-6.1,33.56,8L188,474.25,230.09,466l2.85.09-1.6,45.05q2.35,15.39,4.37,31.48c.25,1.9.48,3.83.71,5.76q3.17,26.08,5.35,53.94c0,.35.06.71.07,1.07.21,2.59.39,5.14.57,7.72.23,3.18.44,6.36.65,9.53.34-1.51.55-2.38.55-2.38l-.87-15.17h0l-5.14-90-3.09-47,33,1-28.69-5.62,28.69-8Z"/><path class="f" d="M163.19,440l-2.41,5.34c1.11-2.2,18.21-36.32,20.26-52.9l-20.26,1.49Z"/><path class="f" d="M273.07,386.6s1.43,34.89,13.85,52.94l-4.07-51.74Z"/><polygon class="e" points="56.63 218.06 52.85 232.54 82.42 220.03 80.47 211.04 56.63 218.06"/><polygon class="e" points="367.13 219.26 393.88 233.44 393.88 222.42 371.07 211.04 367.13 219.26"/><path class="e" d="M121,322.54l39.79-31.9-4.23,60,4,.3c2.77-4.06,5-7.38,5-7.38V269.66l-4.35,9Z"/><polygon class="h" points="215.7 175.04 224.65 175.04 227.74 171.22 213.47 170.63 215.7 175.04"/><polygon class="h" points="213.47 179.03 206.37 185.06 224.65 182.99 237.61 185.06 228.66 175.04 213.47 179.03"/><polygon class="i" points="206.37 185.06 227.74 187.99 237.61 185.06 227.74 180.05 206.37 185.06"/><path class="j" d="M27.25,37.62a30.44,30.44,0,0,1,13.2-3,31,31,0,0,1,6.58.73,30.46,30.46,0,0,1,29-21c.86,0,1.71,0,2.54.11a30.44,30.44,0,0,1,26.42,20.93A30.44,30.44,0,0,1,118.15,94.8a30.76,30.76,0,0,1-5.07.69,30.42,30.42,0,0,1-59.55-2.91,30.46,30.46,0,1,1-26.28-55Z"/><path class="j" d="M121.68,114.59a10.15,10.15,0,1,0,10.15-10.15A10.15,10.15,0,0,0,121.68,114.59Z"/><path class="j" d="M147.08,132.11a7.62,7.62,0,1,0,7.62-7.62A7.62,7.62,0,0,0,147.08,132.11Z"/><path class="i" d="M59.57,66.89l7.53-.45h3V71H59.57Zm0,10.29,7.53-.45H93v4.59H59.57Zm6.91-40.42h11.3c11.89,0,20.76,4.85,20.76,16.79C98.54,65.65,89.46,71,77.78,71H73.89V97H66.48ZM76.92,66.44c9.06,0,14.23-4.3,14.23-12.54,0-8.67-5.17-11.78-14.23-11.78h-3V66.44Z"/><path class="j" d="M430.57,73a26.9,26.9,0,0,1-35.88,12.66,26.88,26.88,0,0,1-52.61,2.57,26.89,26.89,0,1,1,7.19-53.1,26.9,26.9,0,0,1,23.34-18.49c.74-.07,1.48-.1,2.24-.1a26.92,26.92,0,0,1,25.58,18.59A26.9,26.9,0,0,1,430.57,73Z"/><path class="j" d="M316.54,93.6a9,9,0,1,0,9,9A9,9,0,0,0,316.54,93.6Z"/><path class="j" d="M294.12,118.27a6.73,6.73,0,1,0,6.72,6.72A6.72,6.72,0,0,0,294.12,118.27Z"/><path class="i" d="M383.32,44.84c0-5.07-3.05-9.13-9.1-9.13-4.17,0-7.91,2.06-10.84,5.39L358.92,37c4-4.44,9.35-7.79,16.18-7.79,9.55,0,15.82,5.79,15.82,15.06,0,12.39-15.21,17.38-13.67,30.56h-6.87C368.37,60.22,383.32,54.82,383.32,44.84Zm-14.92,44A5.63,5.63,0,1,1,374,94.73,5.67,5.67,0,0,1,368.4,88.86Z"/></svg>