<?xml version="1.0" standalone="no"?>
<!DOCTYPE svg PUBLIC "-//W3C//DTD SVG 1.1//EN" "http://www.w3.org/Graphics/SVG/1.1/DTD/svg11.dtd" >
<svg>
<metadata>
Created by FontForge 20120731 at Tue Aug 28 14:43:10 2018
 By www
Copyright (c) 1995 ParaGraph Intl., (c) 1998 ParaType Inc., ParaType Ltd. All rights reserved.
</metadata>
<defs>
<font id="FuturaPTCondBoldItalicW08" horiz-adv-x="500" >
  <font-face 
    font-family="FuturaPTCondBoldItalicW08"
    font-weight="400"
    font-style="italic"
    font-stretch="condensed"
    units-per-em="1000"
    panose-1="2 11 8 6 2 2 4 9 2 3"
    ascent="800"
    descent="-200"
    x-height="447"
    cap-height="667"
    bbox="-222 -250 1006 911"
    underline-thickness="50"
    underline-position="-75"
    slope="-7"
    unicode-range="U+0020-FB02"
  />
<missing-glyph horiz-adv-x="233" 
 />
    <glyph glyph-name="uniF460" unicode="&#x410;`" horiz-adv-x="453" 
d="M284 0l-11 112h-131l-37 -112h-130l235 667h137l75 -667h-138zM266 215q-5 70 -10.5 139.5t-2.5 140.5q-5 -26 -10.5 -51.5t-12.5 -51.5q-11 -45 -26 -88.5t-29 -88.5h91zM315 875l81 -50l-114 -114l-61 36z" />
    <glyph glyph-name="uniF461" unicode="&#x415;`" horiz-adv-x="350" 
d="M351 543h-131l-18 -144h116l-16 -126h-115l-19 -150h133l-15 -123h-263l82 667h261zM264 875l81 -50l-114 -114l-61 36z" />
    <glyph glyph-name="uniF462" unicode="&#x418;`" horiz-adv-x="501" 
d="M105 667h130l-37 -302q-3 -22 -10 -50.5t-14 -49.5l207 402h122l-82 -667h-130l38 305q1 10 4 25.5t7 31t7 28t4 17.5l-206 -407h-122zM339 875l81 -50l-114 -114l-61 36z" />
    <glyph glyph-name="uniF463" unicode="&#x41e;`" horiz-adv-x="534" 
d="M517 434q0 -57 -8 -119t-27 -116q-14 -41 -37 -79t-54 -67t-70 -46.5t-85 -17.5q-49 0 -91.5 26t-66.5 68q-22 37 -28.5 76.5t-6.5 81.5q0 46 5 91.5t17 90.5q12 47 33.5 92.5t54 81.5t75 58t96.5 22q50 0 86.5 -21.5t60 -56t35 -78t11.5 -87.5zM378 427q0 17 -2.5 39
t-10.5 42t-22 34t-36 14q-29 0 -49.5 -22.5t-34.5 -54t-22 -65.5t-11 -56q-5 -28 -6.5 -56t-1.5 -57q0 -17 3 -39t10.5 -42t21.5 -34t36 -14q29 0 49.5 22.5t34.5 54t22 65.5t11 56q5 28 6.5 56t1.5 57zM356 875l81 -50l-114 -114l-61 36z" />
    <glyph glyph-name="uniF464" unicode="&#x423;`" horiz-adv-x="442" 
d="M198 667l33 -165q3 -16 6 -29.5t5.5 -28t4.5 -31.5t4 -39q9 30 19 60t22 64l62 169h142l-284 -667h-132l96 230l-116 437h138zM310 875l81 -50l-114 -114l-61 36z" />
    <glyph glyph-name="uniF465" unicode="&#x42b;`" horiz-adv-x="626" 
d="M416 0l82 667h130l-82 -667h-130zM235 667l-32 -261h1q16 0 35 -2t39 -7.5t40 -16t37 -27.5t33.5 -48.5t16.5 -83.5q0 -47 -15 -88t-43 -70q-34 -35 -81 -49t-106 -14h-137l82 667h130zM167 114h4q15 0 34.5 3.5t36.5 16.5q14 11 23.5 31.5t9.5 48.5q0 11 -3.5 27
t-17.5 30q-14 13 -32.5 17t-32.5 4zM402 875l81 -50l-114 -114l-61 36z" />
    <glyph glyph-name="uniF466" unicode="&#x42d;`" horiz-adv-x="433" 
d="M44 158q19 -23 39.5 -30.5t37.5 -7.5q22 0 41.5 8t33.5 21q12 10 22.5 25t18.5 32.5t14 37t9 37.5h-159l17 118h155q1 7 1.5 13.5t0.5 13.5q0 27 -7.5 53.5t-24.5 43.5q-6 6 -21.5 15.5t-41.5 9.5q-23 0 -45.5 -8t-39.5 -21l19 136q27 11 52.5 15t47.5 4q38 0 71 -12
t62 -41q28 -29 48.5 -81.5t20.5 -136.5q0 -30 -4 -73t-15.5 -89.5t-33.5 -93t-58 -82.5q-22 -22 -44 -36t-45.5 -22t-47.5 -11t-50 -3q-28 0 -49 5t-44 22zM273 875l81 -50l-114 -114l-61 36z" />
    <glyph glyph-name="uniF467" unicode="&#x42e;`" horiz-adv-x="739" 
d="M275 406q8 54 32 110t62 95q35 36 73 51t82 15q35 0 66.5 -10t60.5 -37q22 -21 36 -47t22 -53.5t10.5 -55.5t2.5 -53q0 -46 -6.5 -96.5t-20.5 -100t-37.5 -93.5t-56.5 -77q-66 -65 -160 -65q-35 0 -69.5 11.5t-63.5 48.5q-18 22 -28.5 52t-15.5 61.5t-6.5 62.5t0.5 56
h-70l-35 -281h-130l82 667h130l-32 -261h72zM512 556q-17 0 -29 -7.5t-20 -15.5q-10 -10 -25.5 -37.5t-29.5 -88.5q-8 -37 -12.5 -79t-4.5 -78q0 -14 1 -30t4 -31.5t8 -29.5t13 -23q10 -12 21 -16t20 -4q11 0 23.5 4t26.5 17q19 18 33 50.5t23.5 72t14 81.5t4.5 77
q0 39 -6.5 70t-23.5 50q-17 18 -41 18zM458 875l81 -50l-114 -114l-61 36z" />
    <glyph glyph-name="uniF468" unicode="&#x42f;`" horiz-adv-x="469" 
d="M164 290q-20 9 -35.5 22t-26.5 28q-17 24 -23 50.5t-6 52.5q0 63 18.5 102.5t38.5 60.5q36 38 85.5 49.5t115.5 11.5h140l-82 -667h-130l34 276l-138 -276h-150zM316 561q-14 0 -37 -3.5t-42 -21.5q-14 -14 -21.5 -35t-7.5 -44q0 -26 8 -41t16 -22q11 -10 28.5 -15
t35.5 -5h9l23 187h-12zM323 875l81 -50l-114 -114l-61 36z" />
    <glyph glyph-name="uniF469" unicode="&#x401;`" horiz-adv-x="350" 
d="M351 543h-131l-18 -144h116l-16 -126h-115l-19 -150h133l-15 -123h-263l82 667h261zM245 875l63 -37l-114 -114l-43 23zM167 811q0 -23 -17 -39.5t-40 -16.5q-19 0 -31 13t-12 32q0 22 16.5 39t39.5 17q19 0 31.5 -12.5t12.5 -32.5zM409 811q0 -23 -17.5 -39.5
t-40.5 -16.5q-19 0 -30.5 13t-11.5 32q0 22 16.5 39t39.5 17q19 0 31.5 -12.5t12.5 -32.5z" />
    <glyph glyph-name="uniF46A" unicode="&#x430;`" horiz-adv-x="390" 
d="M323 0h-124l6 51q-15 -23 -36.5 -41.5t-51.5 -18.5q-31 0 -49.5 17t-28.5 42.5t-13.5 54.5t-3.5 52q0 29 2.5 57.5t8.5 57.5q5 26 15.5 58t27.5 59.5t41 46.5t56 19q30 0 48 -18t26 -45l7 55h123zM238 276q0 7 -0.5 18.5t-3.5 22t-9 18.5t-16 8q-19 0 -31 -21t-19 -49.5
t-9.5 -56.5t-2.5 -41q0 -8 1 -20t4 -23.5t9.5 -20t17.5 -8.5q18 0 29.5 22t18 51t9 57.5t2.5 42.5zM244 517l-56 36l100 128l83 -42z" />
    <glyph glyph-name="uniF46B" unicode="&#x435;`" horiz-adv-x="367" 
d="M326 154q-4 -32 -19 -67t-40 -58t-52.5 -30.5t-50.5 -7.5q-26 0 -50.5 7.5t-46.5 30.5q-18 20 -32 52.5t-14 85.5q0 29 5 61.5t15.5 65t27 62t39.5 52.5q47 47 111 47q49 0 83 -32q15 -15 24 -33t13.5 -36t5.5 -35t1 -30q0 -5 -1.5 -29t-7.5 -59h-195q-3 -14 -4.5 -29.5
t-1.5 -27.5q0 -11 2 -26t10 -23q4 -4 10 -7t16 -3q22 0 35 22q5 8 8 22t5 25h104zM241 278q1 6 1.5 12t0.5 12q0 25 -8 40q-5 8 -11 13t-17 5q-6 0 -14 -3t-16 -11q-5 -6 -9.5 -14.5t-7.5 -18.5t-5 -19t-3 -16h89zM232 517l-56 36l100 128l83 -42z" />
    <glyph glyph-name="uniF46C" unicode="&#x438;`" horiz-adv-x="404" 
d="M184 447l-18 -149q-1 -8 -7 -44t-22 -83q13 27 21.5 43.5t13.5 26t8 15t5 9.5l95 182h111l-55 -447h-118l18 146q5 34 11.5 68.5t14.5 65.5q-10 -26 -23 -55.5t-27 -55.5l-90 -169h-111l55 447h118zM251 517l-56 36l100 128l83 -42z" />
    <glyph glyph-name="uniF46D" unicode="&#x43e;`" horiz-adv-x="386" 
d="M363 289q0 -47 -9 -99.5t-31.5 -96.5t-61 -73t-96.5 -29q-42 0 -69 15.5t-43.5 41.5t-23 59.5t-6.5 69.5q0 45 11 94t35 90t62 67.5t91 26.5q37 0 63.5 -13.5t44 -36t25.5 -52.5t8 -64zM237 277q0 7 -0.5 18.5t-3.5 22t-9 18t-16 7.5q-18 0 -30 -21t-18.5 -49.5
t-9.5 -56.5t-3 -41q0 -8 1 -20t4 -23.5t9 -20t17 -8.5q18 0 29.5 22t18 51.5t9 58t2.5 42.5zM242 517l-56 36l100 128l83 -42z" />
    <glyph glyph-name="uniF46E" unicode="&#x443;`" horiz-adv-x="359" 
d="M123 -206h-120l93 215l-74 438h123l22 -163q3 -23 5.5 -46t3.5 -46l89 255h124zM229 517l-56 36l100 128l83 -42z" />
    <glyph glyph-name="uniF46F" unicode="&#x44b;`" horiz-adv-x="545" 
d="M353 0l55 447h124l-55 -447h-124zM190 447l-20 -164h8q29 0 58 -4t54 -21q32 -22 41.5 -51t9.5 -52q0 -44 -15.5 -72t-33.5 -44q-15 -14 -32 -21.5t-33.5 -11.5t-31.5 -5t-25 -1h-159l55 447h124zM152 88q14 0 27.5 4t22.5 12t13 21t4 25q0 15 -5 23t-10 12
q-8 7 -20.5 8.5t-22.5 1.5h-2l-13 -107h6zM321 517l-56 36l100 128l83 -42z" />
    <glyph glyph-name="uniF470" unicode="&#x44d;`" horiz-adv-x="323" 
d="M25 140q16 -23 34.5 -29t29.5 -6t24.5 3.5t26.5 16.5q9 10 17 26t11 32h-106l11 90h104q0 16 -5 32t-15 27q-11 11 -23 14.5t-23 3.5t-27.5 -4.5t-33.5 -24.5l14 116q21 11 39.5 15t37.5 4q39 0 66 -12t44 -30q24 -25 36.5 -64t12.5 -87q0 -11 -1.5 -36.5t-9 -57.5
t-22.5 -66t-42 -62q-29 -30 -59 -40t-66 -10q-21 0 -43 5.5t-47 26.5zM182 517l-56 36l100 128l83 -42z" />
    <glyph glyph-name="uniF471" unicode="&#x44e;`" horiz-adv-x="569" 
d="M223 280q7 35 23 69t39 57q26 27 56 38t63 11q37 0 60.5 -11.5t37.5 -25.5q28 -28 36 -65.5t8 -68.5q0 -29 -4 -62t-13 -65t-23 -61.5t-34 -51.5q-21 -23 -51.5 -38t-73.5 -15q-22 0 -46 6.5t-45 26.5q-27 26 -36.5 65t-9.5 87h-53l-22 -176h-124l55 447h124l-21 -167h54
zM391 343q-8 0 -13 -3.5t-8 -6.5q-7 -7 -12.5 -17t-9 -20.5t-5.5 -19.5t-3 -13q-4 -18 -7 -45.5t-3 -49.5q0 -2 0.5 -9.5t2 -16.5t4.5 -18t8 -14q7 -7 16 -7q11 0 20 9q6 6 14 21t15 48q5 21 7.5 47t2.5 46q0 35 -5 47t-8 15q-4 5 -8.5 6t-7.5 1zM333 517l-56 36l100 128
l83 -42z" />
    <glyph glyph-name="uniF472" unicode="&#x44f;`" horiz-adv-x="393" 
d="M105 169q-16 6 -26.5 15t-18.5 20q-12 17 -15.5 34.5t-3.5 35.5q0 27 8 60.5t37 62.5q30 31 71.5 40.5t95.5 9.5h127l-55 -447h-124l21 169l-88 -169h-134zM244 353h-4q-15 0 -29.5 -2.5t-26.5 -13.5q-18 -16 -18 -49q0 -10 3.5 -20.5t14.5 -18.5t23 -9.5t20 -1.5h3z
M245 517l-56 36l100 128l83 -42z" />
    <glyph glyph-name="uniF473" unicode="&#x451;`" horiz-adv-x="367" 
d="M326 154q-4 -32 -19 -67t-40 -58t-52.5 -30.5t-50.5 -7.5q-26 0 -50.5 7.5t-46.5 30.5q-18 20 -32 52.5t-14 85.5q0 29 5 61.5t15.5 65t27 62t39.5 52.5q47 47 111 47q49 0 83 -32q15 -15 24 -33t13.5 -36t5.5 -35t1 -30q0 -5 -1.5 -29t-7.5 -59h-195q-3 -14 -4.5 -29.5
t-1.5 -27.5q0 -11 2 -26t10 -23q4 -4 10 -7t16 -3q22 0 35 22q5 8 8 22t5 25h104zM241 278q3 16 2 33.5t-8 30.5q-5 8 -11 13t-17 5q-6 0 -14 -3t-16 -11q-5 -6 -9.5 -14.5t-7.5 -18.5t-5 -19t-3 -16h89zM175 525l-40 28l100 128l60 -32zM44 593q0 22 17 39t39 17
q19 0 31.5 -13t12.5 -32q0 -9 -4 -18.5t-11 -17.5t-17.5 -13.5t-23.5 -5.5q-19 0 -31.5 12.5t-12.5 31.5zM280 593q0 22 16 39t39 17q19 0 32 -13t13 -32q0 -18 -15 -36.5t-42 -18.5q-25 0 -34 15.5t-9 28.5z" />
    <glyph glyph-name="uniFB01" unicode="fi" horiz-adv-x="441" 
d="M280 609q-11 7 -21 7q-13 0 -20.5 -6t-12 -15.5t-6.5 -20.5t-3 -21l-14 -106h56l-12 -104h-56l-42 -343h-124l42 343h-45l13 104h45l20 151q3 23 6.5 42t16.5 39q19 30 52 45t68 15q14 0 26 -2.5t26 -7.5zM463 602q0 -18 -7.5 -34t-19.5 -28t-28 -19t-34 -7
q-29 0 -48.5 20.5t-19.5 49.5q0 18 7.5 34t19.5 28t28 19t34 7q30 0 49 -20.5t19 -49.5zM373 0h-124l55 447h124z" />
    <glyph glyph-name="uniFB02" unicode="fl" horiz-adv-x="440" 
d="M280 609q-11 7 -21 7q-13 0 -20.5 -6t-12 -15.5t-6.5 -20.5t-3 -21l-14 -106h56l-12 -104h-56l-42 -343h-124l42 343h-45l13 104h45l20 151q3 23 6.5 42t16.5 39q19 30 52 45t68 15q14 0 26 -2.5t26 -7.5zM373 0h-124l90 729h123z" />
    <glyph glyph-name=".notdef" horiz-adv-x="233" 
 />
    <glyph glyph-name=".null" horiz-adv-x="0" 
 />
    <glyph glyph-name="nonmarkingreturn" horiz-adv-x="333" 
 />
    <glyph glyph-name="space" unicode=" " horiz-adv-x="233" 
 />
    <glyph glyph-name="exclam" unicode="!" horiz-adv-x="284" 
d="M203 200h-129l58 467h128zM207 83q0 -19 -8 -36t-21 -30t-30 -20.5t-36 -7.5q-31 0 -52 21.5t-21 52.5q0 19 8 36t21 30t30 20.5t36 7.5q32 0 52.5 -21t20.5 -53z" />
    <glyph glyph-name="quotedbl" unicode="&#x22;" horiz-adv-x="403" 
d="M387 399h-91l-23 268h137zM205 399h-91l-23 268h137z" />
    <glyph glyph-name="numbersign" unicode="#" horiz-adv-x="600" 
d="M605 385h-101l-25 -89h102l-30 -111h-103l-52 -185h-127l53 185h-90l-53 -185h-125l52 185h-102l30 111h103l25 89h-102l31 110h102l48 172h125l-48 -172h90l48 172h127l-48 -172h100zM287 385l-25 -89h90l25 89h-90z" />
    <glyph glyph-name="dollar" unicode="$" horiz-adv-x="433" 
d="M359 515q-20 23 -41 36.5t-53 13.5q-36 0 -59.5 -21t-23.5 -58q0 -29 19.5 -43.5t42.5 -24.5q36 -17 67.5 -33t55 -37.5t37.5 -50t14 -70.5q0 -43 -14 -82.5t-39 -71t-60 -54t-76 -30.5l-10 -80h-72l10 80q-45 8 -80.5 24t-69.5 54l73 98q26 -28 52.5 -47t67.5 -19
t67.5 26.5t26.5 67.5q0 34 -24 52t-59 35q-29 14 -57 29.5t-50 35.5t-35 47t-13 65q0 45 15.5 83t41 67t59 47t69.5 23l9 74h72l-9 -74q32 -5 66.5 -25t60.5 -58z" />
    <glyph glyph-name="percent" unicode="%" horiz-adv-x="718" 
d="M341 549q0 -32 -8 -70.5t-27 -72t-49.5 -56t-76.5 -22.5q-30 0 -52 11.5t-36 30t-21 42.5t-7 49q0 27 7.5 63t26.5 68.5t50.5 55.5t79.5 23q31 0 52.5 -11t35 -28.5t19.5 -39.5t6 -43zM236 538q0 1 -0.5 8t-2.5 15t-6.5 14t-12.5 6q-14 0 -22.5 -16t-13.5 -36.5t-7 -40
t-2 -25.5q0 -2 0.5 -9t2.5 -15t6.5 -14t12.5 -6q13 0 22 16.5t14 37t7 40t2 25.5zM231 0h-87l373 667h85zM683 214q0 -32 -8 -70.5t-27 -72t-49.5 -56t-76.5 -22.5q-30 0 -52 11.5t-36 30t-21 42.5t-7 49q0 33 9.5 70t29.5 68t51 51.5t74 20.5q31 0 52.5 -11t35 -28.5
t19.5 -39.5t6 -43zM578 203q0 1 -0.5 8t-2.5 15t-6.5 14t-12.5 6q-14 0 -22.5 -16t-13.5 -36.5t-7 -40t-2 -25.5q0 -2 0.5 -9t2.5 -15t6.5 -14t12.5 -6q13 0 22 16.5t14 37t7 40t2 25.5z" />
    <glyph glyph-name="ampersand" unicode="&#x26;" horiz-adv-x="537" 
d="M511 176q-20 -20 -40 -38t-42 -32l57 -106h-140l-21 39q-17 -16 -47.5 -32t-82.5 -16q-32 0 -58 9t-50 34q-23 23 -37 55.5t-14 74.5q0 33 10 64t24 55q16 26 39.5 50t46.5 41q-17 32 -23.5 64.5t-6.5 56.5q0 37 12 71t35 59q18 20 49.5 36t79.5 16q38 0 62.5 -11
t38.5 -24q23 -22 30 -47t7 -43q0 -35 -10.5 -65t-33.5 -59q-39 -49 -93 -76l72 -146q20 14 39.5 32t39.5 38zM261 449q11 8 22.5 19.5t19.5 23.5q15 23 15 47q0 6 -2 13t-6 12q-5 5 -12 8t-13 3t-14 -3t-13 -8q-8 -8 -12 -20t-4 -25q0 -37 19 -70zM208 274q-20 -16 -31 -37
t-11 -45q0 -35 19 -56q11 -12 23 -15.5t22 -3.5q8 0 20 3.5t24 13.5z" />
    <glyph glyph-name="quotesingle" unicode="'" horiz-adv-x="221" 
d="M204 399h-90l-23 268h137z" />
    <glyph glyph-name="parenleft" unicode="(" horiz-adv-x="303" 
d="M328 710q-69 -133 -109 -274.5t-40 -299.5q0 -84 11.5 -159.5t31.5 -147.5l-124 -30q-24 77 -37 158t-13 170q0 166 42 319.5t120 290.5z" />
    <glyph glyph-name="parenright" unicode=")" horiz-adv-x="303" 
d="M215 737q49 -151 49 -327q0 -166 -42 -320t-120 -291l-117 28q69 133 109 274.5t40 299.5q0 84 -12 159t-32 147z" />
    <glyph glyph-name="asterisk" unicode="*" horiz-adv-x="434" 
d="M305 563l58 -92l-55 -33l-52 91l-76 -92l-47 37l80 92l-102 30l20 62l106 -37l11 113l64 -8l-18 -109l108 38l15 -60z" />
    <glyph glyph-name="plus" unicode="+" 
d="M325 282v-155h-123v155h-155v114h155v156h123v-156h155v-114h-155z" />
    <glyph glyph-name="comma" unicode="," horiz-adv-x="246" 
d="M50 -149h-87l120 270h131z" />
    <glyph glyph-name="hyphen" unicode="-" horiz-adv-x="268" 
d="M45 191l14 108h168l-14 -108h-168z" />
    <glyph glyph-name="period" unicode="." horiz-adv-x="246" 
d="M188 83q0 -19 -8 -36t-21 -30t-30 -21t-36 -8q-32 0 -52.5 22t-20.5 53q0 19 8 36t21 30t30 20.5t36 7.5q32 0 52.5 -21t20.5 -53z" />
    <glyph glyph-name="slash" unicode="/" horiz-adv-x="470" 
d="M48 -193h-110l480 922h107z" />
    <glyph glyph-name="zero" unicode="0" horiz-adv-x="433" 
d="M420 432q0 -37 -4 -80t-12.5 -86t-21.5 -84t-31 -74q-13 -24 -29.5 -45.5t-37 -38t-45.5 -26t-53 -9.5q-48 0 -77 23.5t-44.5 59t-20.5 77.5t-5 79q0 48 4.5 96t15.5 95q9 39 25.5 84.5t42.5 84t62 64t84 25.5t77 -24.5t44.5 -61t20.5 -79.5t5 -80zM298 458q0 11 -0.5 28
t-4.5 33.5t-12.5 28t-24.5 11.5t-27.5 -13.5t-20.5 -34.5t-15 -47t-10.5 -50.5t-7 -46t-4.5 -32.5q-5 -31 -8 -62t-3 -62q0 -11 0.5 -28t4.5 -33t12.5 -27.5t24.5 -11.5t28 13.5t21 34.5t15 46.5t10.5 50.5t7 46t4.5 33q5 31 7.5 61.5t2.5 61.5z" />
    <glyph glyph-name="one" unicode="1" horiz-adv-x="433" 
d="M266 0h-127l68 551h-62l14 116h189z" />
    <glyph glyph-name="two" unicode="2" horiz-adv-x="433" 
d="M73 435q3 50 13 94t32.5 77t59.5 52t95 19q73 0 115.5 -33t42.5 -110q0 -49 -19.5 -97.5t-45.5 -89.5q-8 -11 -15.5 -22.5t-15.5 -23.5q-30 -47 -59.5 -93t-58.5 -93h152l-14 -115h-344q47 72 79.5 121t53.5 81.5t33 50t17.5 26t6.5 10t1 2.5q16 24 34 53t33.5 59
t26 60.5t10.5 59.5q0 21 -8.5 41.5t-34.5 20.5q-23 0 -36.5 -17.5t-20.5 -41.5t-9.5 -49.5t-3.5 -41.5h-120z" />
    <glyph glyph-name="three" unicode="3" horiz-adv-x="433" 
d="M91 479q4 32 9.5 61.5t22.5 58.5q23 41 62 59.5t85 18.5q66 0 106 -36t40 -103q0 -30 -5 -59t-17 -54.5t-32 -46t-49 -33.5q48 -15 65.5 -48t17.5 -81q0 -49 -15.5 -90.5t-44 -72t-69 -47.5t-90.5 -17q-69 0 -111.5 37t-42.5 108q0 22 4 41h121q-2 -8 -3 -16t-1 -16
q0 -20 10.5 -35t32.5 -15t35.5 15t21.5 36.5t11 45t3 39.5q0 22 -7 35t-19 19.5t-28.5 8t-34.5 1.5l13 112q22 0 45.5 2.5t40.5 19.5q16 16 21.5 43.5t5.5 48.5q0 18 -8.5 33.5t-29.5 15.5q-15 0 -25 -9.5t-16 -23.5t-8.5 -29t-3.5 -27h-113z" />
    <glyph glyph-name="four" unicode="4" horiz-adv-x="433" 
d="M393 157h-54l-20 -157h-125l19 157h-190l12 103l224 407h142l-48 -396h54zM131 271h96l30 244z" />
    <glyph glyph-name="five" unicode="5" horiz-adv-x="433" 
d="M409 553h-160l-31 -109q24 -2 46 -6t44 -15q45 -23 63.5 -65t18.5 -90q0 -58 -15.5 -108.5t-46.5 -88.5t-77.5 -60t-108.5 -22q-34 0 -63.5 8t-59.5 23l36 115q17 -15 35.5 -23.5t41.5 -8.5q28 0 50 12.5t37 32.5t23 45.5t8 51.5q0 53 -34 75.5t-82 22.5q-14 0 -27 -1.5
t-27 -3.5l92 329h251z" />
    <glyph glyph-name="six" unicode="6" horiz-adv-x="433" 
d="M204 404q20 17 40.5 27t46.5 10q31 0 52 -15t34 -37.5t19 -50.5t6 -53q0 -48 -12 -100.5t-38 -96t-66.5 -71.5t-97.5 -28q-41 0 -71 14t-49 39t-28 58t-9 71q0 67 19.5 132t49.5 127.5t66.5 121.5t69.5 115h125zM271 248q0 10 -1 23t-5.5 25t-12.5 20t-21 8
q-20 0 -33.5 -16.5t-22 -39t-12.5 -46.5t-4 -39q0 -9 1.5 -23t5.5 -26.5t12 -21.5t21 -9q21 0 35 16.5t22 40t11.5 48t3.5 40.5z" />
    <glyph glyph-name="seven" unicode="7" horiz-adv-x="433" 
d="M132 0h-134l271 552h-176l14 115h354z" />
    <glyph glyph-name="eight" unicode="8" horiz-adv-x="433" 
d="M415 524q0 -44 -20 -84q-15 -32 -35.5 -49.5t-52.5 -31.5q27 -12 45 -25t29 -30t15.5 -38.5t4.5 -50.5q0 -46 -15.5 -87t-44 -72t-68 -49t-86.5 -18q-36 0 -66.5 12t-52.5 33.5t-34.5 52t-12.5 66.5q0 42 13 84t42 73q17 19 38 29.5t44 19.5q-40 18 -56.5 47.5
t-16.5 72.5q0 39 14 75t39 63t59.5 43.5t74.5 16.5q69 0 106 -43.5t37 -109.5zM287 525q0 7 -1 15.5t-4.5 15.5t-9.5 12t-15 5q-15 0 -24 -10t-14.5 -24.5t-7.5 -30t-2 -26.5q0 -8 0.5 -17.5t3.5 -18t9 -14t17 -5.5q14 0 23.5 11.5t15 27t7.5 32t2 27.5zM268 217
q0 10 -1.5 23.5t-6 25.5t-13.5 20.5t-23 8.5q-20 0 -33 -13.5t-20.5 -32t-11 -39.5t-3.5 -36q0 -11 2 -23.5t7 -23t13.5 -17.5t22.5 -7q17 0 29.5 12.5t21 30.5t12.5 37.5t4 33.5z" />
    <glyph glyph-name="nine" unicode="9" horiz-adv-x="433" 
d="M254 262q-19 -16 -39.5 -26.5t-46.5 -10.5q-31 0 -52.5 15t-34.5 38t-18.5 50.5t-5.5 53.5q0 48 12 100.5t37.5 95.5t66.5 71t98 28q41 0 70.5 -14t49 -39t28.5 -58t9 -70q0 -68 -19.5 -133t-49.5 -127t-66.5 -121t-70.5 -115h-125zM299 484q0 9 -1.5 22.5t-5.5 26
t-12 21.5t-21 9q-21 0 -34.5 -16.5t-22 -40t-12 -48t-3.5 -39.5q0 -10 1 -23t5.5 -25t12 -20.5t21.5 -8.5q20 0 34 16.5t22.5 39t12 47t3.5 39.5z" />
    <glyph glyph-name="colon" unicode=":" horiz-adv-x="246" 
d="M225 381q0 -19 -7.5 -36t-20.5 -30t-30.5 -20.5t-36.5 -7.5q-32 0 -52.5 21t-20.5 53q0 19 8 36t21 30t30 20.5t36 7.5q32 0 52.5 -21t20.5 -53zM188 86q0 -19 -8 -36t-21 -30t-30 -21t-36 -8q-32 0 -52.5 22t-20.5 53q0 19 8 36t21 30t30 20.5t36 7.5q32 0 52.5 -21
t20.5 -53z" />
    <glyph glyph-name="semicolon" unicode=";" horiz-adv-x="246" 
d="M244 383q0 -19 -8 -36t-21 -30t-30 -20.5t-36 -7.5q-31 0 -52 21.5t-21 52.5q0 19 8 36t21 30t30 21t36 8q32 0 52.5 -21.5t20.5 -53.5zM50 -149h-87l120 270h131z" />
    <glyph glyph-name="less" unicode="&#x3c;" 
d="M33 282v103l433 219v-122l-303 -149l303 -149v-121z" />
    <glyph glyph-name="equal" unicode="=" 
d="M47 372v107h433v-107h-433zM47 201v108h433v-108h-433z" />
    <glyph glyph-name="greater" unicode="&#x3e;" 
d="M60 63v122l303 149l-303 149v121l433 -219v-104z" />
    <glyph glyph-name="question" unicode="?" horiz-adv-x="408" 
d="M61 482q3 23 7.5 45t13.5 43q22 52 68 79t101 27q77 0 119 -46t42 -121q0 -39 -13.5 -82t-36.5 -75q-16 -23 -35.5 -36.5t-45.5 -21.5l-11 -86h-128l20 164q5 -1 10 -1.5t10 -0.5q25 0 42 12.5t27.5 31.5t15 41.5t4.5 43.5q0 9 -1.5 20t-5 20t-11 15.5t-19.5 6.5
q-14 0 -23.5 -8t-15.5 -20t-9 -26t-3 -25h-122zM273 83q0 -19 -7.5 -36t-20.5 -30t-30 -20.5t-36 -7.5q-32 0 -52.5 21t-20.5 53q0 19 7.5 36t20.5 30t30 20.5t36 7.5q32 0 52.5 -21t20.5 -53z" />
    <glyph glyph-name="at" unicode="@" horiz-adv-x="733" 
d="M567 20q-51 -17 -103.5 -24.5t-106.5 -7.5q-69 0 -126.5 20t-99.5 58t-65 93.5t-23 126.5q0 79 32 150.5t86.5 125t126.5 85t151 31.5q58 0 109.5 -17.5t89.5 -50.5t60.5 -81t22.5 -109q0 -87 -46 -162q-12 -19 -27.5 -37.5t-35 -33.5t-41 -24.5t-45.5 -9.5
q-26 0 -46.5 15t-23.5 41q-24 -30 -59.5 -47t-73.5 -17q-29 0 -51.5 11t-38 29t-24 42.5t-8.5 51.5q0 39 16 78.5t43 71.5t63.5 52.5t77.5 20.5q29 0 54.5 -12t38.5 -39l13 41l85 -1l-61 -192l-8.5 -25.5t-4.5 -26.5q0 -10 5 -17.5t16 -7.5q15 0 28.5 11t22.5 22
q26 30 41 73t15 83q0 47 -16.5 82.5t-45 59.5t-67.5 36.5t-83 12.5q-63 0 -119 -25t-98 -67.5t-66.5 -98.5t-24.5 -119q0 -42 13 -83t40 -73q36 -43 85 -57.5t103 -14.5q97 0 190 32zM459 352q0 26 -14 44t-42 18q-22 0 -41 -11t-33 -28.5t-22 -39t-8 -42.5q0 -26 15 -44
t43 -18q23 0 41.5 11t32 28.5t21 39t7.5 42.5z" />
    <glyph glyph-name="A" unicode="A" horiz-adv-x="453" 
d="M284 0l-11 112h-131l-37 -112h-130l235 667h137l75 -667h-138zM266 215q-5 70 -10.5 139.5t-2.5 140.5q-5 -26 -10.5 -51.5t-12.5 -51.5q-11 -45 -26 -88.5t-29 -88.5h91z" />
    <glyph glyph-name="B" unicode="B" horiz-adv-x="429" 
d="M244 667q30 0 62.5 -6.5t63.5 -36.5q27 -26 36 -57t9 -65q0 -37 -9 -66.5t-35 -55.5q-28 -29 -65 -38q21 -8 36.5 -20t24.5 -26q15 -23 18.5 -49t3.5 -38q0 -46 -15 -83.5t-41 -63.5q-20 -21 -42.5 -33t-45 -18.5t-44.5 -8.5t-40 -2h-138l82 667h139zM201 393
q20 0 36.5 7t26.5 18q14 14 20.5 35.5t6.5 38.5q0 19 -5 30t-10 17q-9 10 -24 14.5t-30 4.5zM167 114q24 0 40.5 8.5t26.5 17.5q18 17 23 37t5 38q0 14 -4 30t-17 29q-12 12 -24.5 14.5t-21.5 2.5h-6z" />
    <glyph glyph-name="C" unicode="C" horiz-adv-x="418" 
d="M348 17q-21 -11 -45.5 -17.5t-55.5 -6.5q-38 0 -71 12t-62 41q-32 32 -50 85t-18 121q0 44 7.5 93t23 96t40 89.5t58.5 74.5q35 33 78.5 51t100.5 18q23 0 42.5 -4t41.5 -15l-19 -139q-20 21 -40.5 26.5t-32.5 5.5q-23 0 -43 -10t-37 -26q-20 -20 -35 -50.5t-25 -65
t-15 -70t-5 -64.5q0 -8 1 -21t4 -28.5t8.5 -31t15.5 -28.5q16 -20 34.5 -26.5t32.5 -6.5q19 0 41.5 7.5t43.5 27.5z" />
    <glyph glyph-name="D" unicode="D" horiz-adv-x="481" 
d="M214 667q35 0 66.5 -3.5t63.5 -19.5q34 -17 57 -43.5t36.5 -58.5t19 -68t5.5 -71q0 -42 -6 -86.5t-19.5 -87.5t-35 -82.5t-51.5 -70.5q-41 -42 -92 -59t-108 -17h-127l82 667h109zM176 122q43 0 72.5 27.5t47.5 68t26 85.5t8 79q0 28 -4 57t-16 53t-33.5 40t-55.5 18
l-53 -428h8z" />
    <glyph glyph-name="E" unicode="E" horiz-adv-x="350" 
d="M351 543h-131l-18 -144h116l-16 -126h-115l-19 -150h133l-15 -123h-263l82 667h261z" />
    <glyph glyph-name="F" unicode="F" horiz-adv-x="343" 
d="M352 544h-132l-17 -142h118l-15 -127h-119l-34 -275h-130l82 667h262z" />
    <glyph glyph-name="G" unicode="G" horiz-adv-x="517" 
d="M366 469q0 15 -1.5 31t-7.5 29.5t-17 22.5t-30 9q-26 0 -45.5 -18.5t-34 -47.5t-23.5 -65t-14.5 -71.5t-8 -66t-2.5 -49.5t2 -42.5t10 -43.5t23 -34t41 -14t43.5 15t28.5 37t16.5 47t8.5 45h-83l14 118h212q-5 -49 -12 -97t-23 -95q-12 -38 -32.5 -72t-48.5 -60.5
t-63.5 -42t-77.5 -15.5q-55 0 -92.5 23.5t-61 61t-33.5 84t-10 93.5q0 45 5.5 89t16.5 87q12 46 34 91t54.5 80t74.5 57t95 22q75 0 119 -43t56 -115z" />
    <glyph glyph-name="H" unicode="H" horiz-adv-x="494" 
d="M415 0h-130l36 295h-131l-37 -295h-130l82 667h130l-30 -247h131l30 247h130z" />
    <glyph glyph-name="I" unicode="I" horiz-adv-x="232" 
d="M153 0h-130l82 667h130z" />
    <glyph glyph-name="J" unicode="J" horiz-adv-x="305" 
d="M251 205q-4 -29 -9.5 -59t-18.5 -57q-22 -47 -63.5 -73.5t-93.5 -26.5q-24 0 -47.5 5t-45.5 16l16 132q12 -17 27 -27t37 -10q21 0 33.5 9.5t19.5 24.5t10 32.5t5 33.5l57 462h130z" />
    <glyph glyph-name="K" unicode="K" horiz-adv-x="445" 
d="M314 356l93 -356h-133l-79 339l-42 -339h-130l82 667h130l-37 -298l147 298h132z" />
    <glyph glyph-name="L" unicode="L" horiz-adv-x="324" 
d="M289 0h-266l82 667h130l-66 -542h136z" />
    <glyph glyph-name="M" unicode="M" horiz-adv-x="636" 
d="M587 0h-133l26 480q-7 -39 -17 -77.5t-21 -76.5l-98 -326h-100q-7 85 -14 168t-11 168q-1 25 -2.5 50t-1.5 50q0 11 0.5 22t1.5 22l-79 -480h-140l140 667h171l16 -394l101 394h174z" />
    <glyph glyph-name="N" unicode="N" horiz-adv-x="510" 
d="M430 0h-122l-112 402q0 -22 -0.5 -43t-3.5 -43l-39 -316h-130l82 667h123l112 -403q-1 12 -1 24v24v22t2 22l39 311h132z" />
    <glyph glyph-name="O" unicode="O" horiz-adv-x="534" 
d="M517 434q0 -57 -8 -119t-27 -116q-14 -41 -37 -79t-54 -67t-70 -46.5t-85 -17.5q-49 0 -91.5 26t-66.5 68q-22 37 -28.5 76.5t-6.5 81.5q0 46 5 91.5t17 90.5q12 47 33.5 92.5t54 81.5t75 58t96.5 22q50 0 86.5 -21.5t60 -56t35 -78t11.5 -87.5zM378 427q0 17 -2.5 39
t-10.5 42t-22 34t-36 14q-29 0 -49.5 -22.5t-34.5 -54t-22 -65.5t-11 -56q-5 -28 -6.5 -56t-1.5 -57q0 -17 3 -39t10.5 -42t21.5 -34t36 -14q29 0 49.5 22.5t34.5 54t22 65.5t11 56q5 28 6.5 56t1.5 57z" />
    <glyph glyph-name="P" unicode="P" horiz-adv-x="428" 
d="M263 667q30 0 55 -2.5t52 -19.5q38 -23 54 -63.5t16 -83.5q0 -56 -19.5 -99t-53 -72.5t-80 -43t-100.5 -9.5l-34 -274h-130l82 667h158zM208 385q54 0 78.5 25.5t24.5 78.5q0 36 -14 53.5t-52 17.5h-23l-22 -175h8z" />
    <glyph glyph-name="Q" unicode="Q" horiz-adv-x="541" 
d="M355 23q-20 -13 -46.5 -23.5t-64.5 -10.5q-45 0 -77.5 15.5t-53.5 35.5q-24 22 -37.5 49.5t-21 55t-9.5 54.5t-2 49q0 27 3.5 71.5t16 95.5t36.5 102.5t65 91.5q42 41 83.5 54.5t74.5 13.5q41 0 74 -16t56 -39q21 -22 34 -48.5t20 -54t9 -54t2 -48.5q0 -19 -1.5 -41.5
t-4 -46t-6 -46.5t-8.5 -43q-10 -42 -26 -77t-42 -70l58 -97l-84 -53zM354 199q14 63 19.5 120t5.5 100q0 28 -2.5 48.5t-7 34.5t-10 23t-10.5 14q-11 11 -21.5 14.5t-18.5 3.5q-9 0 -23 -4t-28 -18q-12 -11 -21 -27.5t-16 -34t-12 -34t-8 -28.5q-8 -34 -13 -78t-5 -81
q0 -56 11 -82t21 -37q16 -17 41 -17q20 0 36 11l-46 74l80 54z" />
    <glyph glyph-name="R" unicode="R" horiz-adv-x="466" 
d="M246 667q35 0 72.5 -5.5t66.5 -26.5q32 -23 45.5 -60t13.5 -75q0 -66 -29.5 -115t-86.5 -82l77 -303h-136l-78 307l-38 -307h-130l82 667h141zM200 380q5 -1 10 -1h10q49 0 73 33t24 78q0 36 -16.5 54.5t-53.5 18.5h-25z" />
    <glyph glyph-name="S" unicode="S" horiz-adv-x="385" 
d="M358 516q-19 18 -40.5 30.5t-48.5 12.5q-33 0 -53.5 -21.5t-20.5 -54.5q0 -24 12 -42.5t30.5 -35t39.5 -33t39.5 -37t30.5 -47t12 -62.5q0 -47 -15 -89.5t-43 -75.5t-67.5 -52.5t-88.5 -19.5q-30 0 -58 8t-52 26l16 126q21 -16 42.5 -26t48.5 -10q38 0 62.5 23.5
t24.5 61.5q0 5 -0.5 11.5t-2.5 11.5q-5 11 -13.5 20t-17.5 17q-8 7 -16 13l-16 12q-23 17 -41 34t-31 36.5t-19.5 43.5t-6.5 54q0 43 13.5 83.5t39 72t62.5 51t83 19.5q32 0 57.5 -7.5t53.5 -24.5z" />
    <glyph glyph-name="T" unicode="T" horiz-adv-x="334" 
d="M373 545h-102l-67 -545h-130l67 545h-102l15 122h334z" />
    <glyph glyph-name="U" unicode="U" horiz-adv-x="491" 
d="M433 170q-4 -29 -10 -53t-24 -49q-16 -22 -37 -37t-45.5 -24.5t-51 -13.5t-52.5 -4q-36 0 -67.5 8t-55 25.5t-36.5 45.5t-13 68q0 13 1.5 26t3.5 26l59 479h130l-54 -443q-2 -13 -3.5 -25t-1.5 -25q0 -29 11.5 -47t43.5 -18q26 0 40.5 10.5t22 27t10 37t5.5 40.5l55 443
h130z" />
    <glyph glyph-name="V" unicode="V" horiz-adv-x="478" 
d="M268 0h-106l-108 667h140l38 -258q5 -31 7.5 -62t2.5 -63v-56q11 42 20.5 83.5t24.5 82.5l6 15l104 258h135z" />
    <glyph glyph-name="W" unicode="W" horiz-adv-x="684" 
d="M517 0h-113l-28 255q-3 26 -5 51t-2 51q0 29 2 58.5t4 58.5q-11 -54 -26 -107t-34 -105l-94 -262h-113l-51 667h133l17 -293q1 -19 1.5 -37t0.5 -37q0 -23 -2 -47t-4 -47l18 70t20 70l105 321h102l26 -335q2 -20 3 -39.5t1 -39.5q0 -12 -0.5 -23.5t-0.5 -23.5
q2 23 6.5 46t9.5 46q4 17 7 33.5t8 33.5q3 9 6 17.5t5 17.5l79 267h136z" />
    <glyph glyph-name="X" unicode="X" horiz-adv-x="436" 
d="M299 344l109 -344h-151q-6 21 -13.5 48t-14.5 55t-12 55t-5 48q-20 -54 -44.5 -104.5t-49.5 -101.5h-146l181 344l-99 323h146q13 -46 28.5 -97t15.5 -99q16 52 42.5 100t52.5 96h140z" />
    <glyph glyph-name="Y" unicode="Y" horiz-adv-x="440" 
d="M295 285l-36 -285h-130l35 285l-110 382h143l33 -153q2 -8 4 -21t4 -26.5t3.5 -25.5t2.5 -18q10 28 18.5 49t19.5 45l67 150h145z" />
    <glyph glyph-name="Z" unicode="Z" horiz-adv-x="449" 
d="M194 125h207l-16 -125h-395l285 541h-191l15 126h386z" />
    <glyph glyph-name="bracketleft" unicode="[" horiz-adv-x="364" 
d="M374 606h-130l-83 -677h132l-15 -122h-263l113 922h262z" />
    <glyph glyph-name="backslash" unicode="\" horiz-adv-x="543" 
d="M173 729l366 -922h-110l-363 922h107z" />
    <glyph glyph-name="bracketright" unicode="]" horiz-adv-x="364" 
d="M245 -193h-261l15 123h130l83 677h-132l15 122h263z" />
    <glyph glyph-name="asciicircum" unicode="^" 
d="M377 335l-114 234l-114 -234h-129l163 332h161l163 -332h-130z" />
    <glyph glyph-name="underscore" unicode="_" 
d="M-28 -148v100h500v-100h-500z" />
    <glyph glyph-name="grave" unicode="`" 
d="M272 517l-97 122l94 42l68 -128z" />
    <glyph glyph-name="a" unicode="a" horiz-adv-x="390" 
d="M323 0h-124l6 51q-15 -23 -36.5 -41.5t-51.5 -18.5q-31 0 -49.5 17t-28.5 42.5t-13.5 54.5t-3.5 52q0 29 2.5 57.5t8.5 57.5q5 26 15.5 58t27.5 59.5t41 46.5t56 19q30 0 48 -18t26 -45l7 55h123zM238 276q0 7 -0.5 18.5t-3.5 22t-9 18.5t-16 8q-19 0 -31 -21t-19 -49.5
t-9.5 -56.5t-2.5 -41q0 -8 1 -20t4 -23.5t9.5 -20t17.5 -8.5q18 0 29.5 22t18 51t9 57.5t2.5 42.5z" />
    <glyph glyph-name="b" unicode="b" horiz-adv-x="390" 
d="M183 392q14 26 36 44.5t54 18.5q31 0 50 -16t29 -40t13 -52t3 -52q0 -29 -2.5 -58t-8.5 -58q-5 -26 -16 -58.5t-28.5 -61.5t-42 -48.5t-56.5 -19.5q-29 0 -46 17.5t-27 42.5l-6 -51h-124l90 729h123zM242 272q0 8 -1 20t-4 23.5t-9.5 19.5t-17.5 8q-18 0 -30 -22
t-18.5 -50.5t-9 -57.5t-2.5 -42q0 -8 0.5 -19.5t3.5 -22t9 -18.5t17 -8q19 0 31 21.5t19 49.5t9.5 56t2.5 42z" />
    <glyph glyph-name="c" unicode="c" horiz-adv-x="277" 
d="M270 333q-12 15 -33 15q-26 0 -42.5 -16.5t-27 -40t-14.5 -50t-4 -46.5q0 -15 2 -30t8 -28t17 -21t29 -8q11 0 20.5 3.5t18.5 9.5l-14 -114q-20 -8 -35.5 -12t-36.5 -4q-38 0 -64 16t-42 42t-23 58t-7 65q0 57 18 117.5t55 105.5q26 32 56.5 46.5t71.5 14.5
q19 0 31.5 -2.5t29.5 -10.5z" />
    <glyph glyph-name="d" unicode="d" horiz-adv-x="394" 
d="M323 0h-124l6 51q-15 -23 -36.5 -41.5t-51.5 -18.5q-31 0 -49.5 17t-28.5 42.5t-13.5 54.5t-3.5 52q0 29 2.5 57.5t8.5 57.5q5 26 15.5 58t27.5 59.5t41 46.5t56 19q30 0 48 -18t26 -45l44 337h123zM238 276q0 7 -0.5 18.5t-3.5 22t-9 18.5t-16 8q-19 0 -31 -21
t-19 -49.5t-9.5 -56.5t-2.5 -41q0 -8 1 -20t4 -23.5t9.5 -20t17.5 -8.5q18 0 29.5 22t18 51t9 57.5t2.5 42.5z" />
    <glyph glyph-name="e" unicode="e" horiz-adv-x="367" 
d="M326 154q-4 -32 -19 -67t-40 -58t-52.5 -30.5t-50.5 -7.5q-26 0 -50.5 7.5t-46.5 30.5q-18 20 -32 52.5t-14 85.5q0 29 5 61.5t15.5 65t27 62t39.5 52.5q47 47 111 47q49 0 83 -32q15 -15 24 -33t13.5 -36t5.5 -35t1 -30q0 -5 -1.5 -29t-7.5 -59h-195q-3 -14 -4.5 -29.5
t-1.5 -27.5q0 -11 2 -26t10 -23q4 -4 10 -7t16 -3q22 0 35 22q5 8 8 22t5 25h104zM241 278q1 6 1.5 12t0.5 12q0 25 -8 40q-5 8 -11 13t-17 5q-6 0 -14 -3t-16 -11q-5 -6 -9.5 -14.5t-7.5 -18.5t-5 -19t-3 -16h89z" />
    <glyph glyph-name="f" unicode="f" horiz-adv-x="240" 
d="M280 609q-11 7 -21 7q-13 0 -20.5 -6t-12 -15.5t-6.5 -20.5t-3 -21l-14 -106h56l-12 -104h-56l-42 -343h-124l42 343h-45l13 104h45l20 151q3 23 6.5 42t16.5 39q19 30 52 45t68 15q14 0 26 -2.5t26 -7.5z" />
    <glyph glyph-name="g" unicode="g" horiz-adv-x="394" 
d="M322 -23q-3 -25 -7 -46t-16 -44q-26 -48 -71 -70.5t-98 -22.5q-66 0 -101 35t-35 101v12.5t1 6.5h108q0 -8 1 -17.5t4.5 -17.5t11.5 -13.5t22 -5.5q17 0 28 12t17.5 29t9.5 35.5t5 32.5l8 52q-17 -24 -38 -44.5t-53 -20.5q-30 0 -49.5 17.5t-30.5 43t-15 54.5t-4 52
q0 33 7 83.5t24 98t46 81.5t73 34q32 0 50.5 -17t30.5 -45l7 54h123zM238 275q0 7 -0.5 19t-3.5 22.5t-9 18.5t-17 8q-18 0 -30 -21t-19 -48.5t-10 -55.5t-3 -41q0 -8 1 -20t4.5 -23.5t10 -20t17.5 -8.5q18 0 29.5 21.5t18 50t9 56.5t2.5 42z" />
    <glyph glyph-name="h" unicode="h" horiz-adv-x="388" 
d="M181 377q20 32 47 55t68 23q38 0 53 -24t15 -58q0 -19 -2.5 -37t-4.5 -37l-36 -299h-124l32 255q3 22 3 46q0 11 -5 20t-18 9q-14 0 -22 -8t-12.5 -19.5t-6 -24.5t-2.5 -23l-31 -255h-124l90 729h123z" />
    <glyph glyph-name="i" unicode="i" horiz-adv-x="203" 
d="M225 602q0 -18 -7.5 -34t-19.5 -28t-28 -19t-34 -7q-29 0 -48.5 20.5t-19.5 49.5q0 18 7.5 34t19.5 28t28 19t34 7q30 0 49 -20.5t19 -49.5zM135 0h-124l55 447h124z" />
    <glyph glyph-name="j" unicode="j" horiz-adv-x="201" 
d="M223 602q0 -18 -7.5 -34t-19.5 -28t-28 -19t-34 -7q-29 0 -48.5 20.5t-19.5 49.5q0 18 7.5 34t19.5 28t28 19t34 7q30 0 49 -20.5t19 -49.5zM108 -206h-124l80 653h124z" />
    <glyph glyph-name="k" unicode="k" horiz-adv-x="383" 
d="M269 249l89 -249h-130l-64 233l-29 -233h-124l90 729h123l-55 -454l90 172h132z" />
    <glyph glyph-name="l" unicode="l" horiz-adv-x="204" 
d="M135 0h-124l90 729h123z" />
    <glyph glyph-name="m" unicode="m" horiz-adv-x="573" 
d="M181 375q11 16 23 30.5t26.5 25.5t31.5 17.5t38 6.5q35 0 49.5 -22.5t17.5 -53.5q20 29 49 52.5t66 23.5q38 0 53 -24.5t15 -57.5q0 -14 -1 -27t-3 -27l-39 -319h-124l31 253q2 11 3 22.5t1 22.5q0 12 -5 22.5t-19 10.5t-22 -8.5t-12 -20.5t-5.5 -25.5t-2.5 -23.5
l-31 -253h-124l32 261l2 18t1 18q0 11 -4 21.5t-18 10.5q-13 0 -21 -7t-12.5 -17.5t-6.5 -22t-3 -21.5l-32 -261h-124l55 447h124z" />
    <glyph glyph-name="n" unicode="n" horiz-adv-x="388" 
d="M181 377q20 32 47 55t68 23q38 0 53 -24t15 -58q0 -19 -2.5 -37t-4.5 -37l-36 -299h-124l32 255q3 22 3 46q0 11 -5 20t-18 9q-14 0 -22 -8t-12.5 -19.5t-6 -24.5t-2.5 -23l-31 -255h-124l55 447h124z" />
    <glyph glyph-name="o" unicode="o" horiz-adv-x="386" 
d="M363 289q0 -47 -9 -99.5t-31.5 -96.5t-61 -73t-96.5 -29q-42 0 -69 15.5t-43.5 41.5t-23 59.5t-6.5 69.5q0 45 11 94t35 90t62 67.5t91 26.5q37 0 63.5 -13.5t44 -36t25.5 -52.5t8 -64zM237 277q0 7 -0.5 18.5t-3.5 22t-9 18t-16 7.5q-18 0 -30 -21t-18.5 -49.5
t-9.5 -56.5t-3 -41q0 -8 1 -20t4 -23.5t9 -20t17 -8.5q18 0 29.5 22t18 51.5t9 58t2.5 42.5z" />
    <glyph glyph-name="p" unicode="p" horiz-adv-x="389" 
d="M182 392q14 26 36 44.5t54 18.5q31 0 50 -16t29 -40t13 -52t3 -52q0 -29 -2.5 -58t-8.5 -58q-5 -26 -16 -58.5t-28.5 -61.5t-42 -48.5t-56.5 -19.5q-29 0 -46 17.5t-27 42.5l-31 -257h-124l80 653h124zM241 272q0 8 -1 20t-4 23.5t-9.5 19.5t-17.5 8q-18 0 -30 -22
t-18.5 -50.5t-9 -57.5t-2.5 -42q0 -8 1 -19.5t4 -22t9 -18.5t17 -8q18 0 30 21.5t19 49.5t9.5 56t2.5 42z" />
    <glyph glyph-name="q" unicode="q" horiz-adv-x="390" 
d="M297 -206h-124l32 257q-15 -23 -36.5 -41.5t-51.5 -18.5q-31 0 -49.5 17t-28.5 42.5t-13.5 54.5t-3.5 52q0 29 2.5 57.5t8.5 57.5q5 26 15.5 58t27.5 59.5t41 46.5t56 19q30 0 48 -18t26 -45l7 55h123zM238 276q0 7 -0.5 18.5t-3.5 22t-9 18.5t-16 8q-19 0 -31 -21
t-19 -49.5t-9.5 -56.5t-2.5 -41q0 -8 1 -20t4 -23.5t9.5 -20t17.5 -8.5q18 0 29.5 22t18 51t9 57.5t2.5 42.5z" />
    <glyph glyph-name="r" unicode="r" horiz-adv-x="274" 
d="M278 342q-5 1 -9 1.5t-9 0.5q-29 0 -46.5 -8t-27.5 -22.5t-14.5 -35t-7.5 -45.5l-29 -233h-124l55 447h124l-7 -55q24 30 47 48t63 23z" />
    <glyph glyph-name="s" unicode="s" horiz-adv-x="310" 
d="M258 326q-11 13 -24 21.5t-31 8.5q-16 0 -26 -10.5t-10 -26.5t18.5 -26.5t40.5 -25t40.5 -36.5t18.5 -62q0 -35 -11.5 -67t-32.5 -57t-51 -39.5t-67 -14.5t-67.5 14t-58.5 37l66 89q13 -12 26 -20t31 -8t30.5 11.5t12.5 30.5q0 18 -19 29t-42 25.5t-42 38t-19 66.5
q0 35 13.5 63t36 47.5t52.5 30t63 10.5t59.5 -9t52.5 -29z" />
    <glyph glyph-name="t" unicode="t" horiz-adv-x="226" 
d="M239 343h-50l-43 -343h-123l42 343h-42l13 104h42l16 127h123l-16 -127h50z" />
    <glyph glyph-name="u" unicode="u" horiz-adv-x="387" 
d="M338 151q-3 -28 -9 -48t-23 -43q-25 -33 -63.5 -51t-79.5 -18q-27 0 -52 8t-43.5 23.5t-29.5 38t-11 51.5q0 14 1.5 28t3.5 28l34 279h124l-32 -256q-2 -13 -3 -25.5t-1 -25.5t5 -23t20 -10q13 0 21 9.5t11.5 23t5 28t2.5 23.5l32 256h123z" />
    <glyph glyph-name="v" unicode="v" horiz-adv-x="361" 
d="M209 0h-114l-71 447h121l16 -126t13 -127q21 64 44 127l46 126h127z" />
    <glyph glyph-name="w" unicode="w" horiz-adv-x="571" 
d="M425 0h-101q-11 70 -21 139.5t-12 140.5q-19 -72 -44 -141t-51 -139h-102l-70 447h119q8 -66 16 -131.5t12 -131.5l90 263h105q8 -66 15.5 -131.5t9.5 -131.5q9 31 21 63l73 200h116z" />
    <glyph glyph-name="x" unicode="x" horiz-adv-x="380" 
d="M255 240l100 -240h-130l-24 65q-6 17 -11 31t-12 39l-10.5 -21t-9 -16t-9 -13.5t-9.5 -14.5l-44 -70h-127l156 240l-84 207h126l16 -41q5 -13 10 -32t8 -35q9 21 17 34.5t17 27.5l30 46h127z" />
    <glyph glyph-name="y" unicode="y" horiz-adv-x="359" 
d="M123 -206h-120l93 215l-74 438h123l22 -163q3 -23 5.5 -46t3.5 -46l89 255h124z" />
    <glyph glyph-name="z" unicode="z" horiz-adv-x="336" 
d="M171 103h122l-13 -103h-295l182 343h-125l12 104h295z" />
    <glyph glyph-name="braceleft" unicode="{" horiz-adv-x="504" 
d="M445 618q-5 1 -9 1h-9q-14 0 -30.5 -1t-28.5 -6q-16 -7 -21 -21.5t-8 -30.5q-4 -22 -7.5 -55.5t-8 -69t-11 -67t-15.5 -49.5q-9 -19 -23.5 -29.5t-31.5 -21.5q27 -19 37 -38.5t10 -51.5q0 -9 -0.5 -18t-1.5 -18q-5 -35 -9 -71.5t-10 -81.5q-2 -16 -3 -22.5t-1 -11.5
q0 -13 5.5 -20.5t14.5 -11.5t20 -5.5t22 -1.5q8 0 16 0.5t15 0.5l-13 -108q-16 -1 -31.5 -1.5t-31.5 -0.5q-30 0 -56.5 3.5t-46 15t-30.5 33t-11 57.5q0 9 1 19l3 30l22 169q1 5 1 11v11q0 27 -8.5 43t-37.5 22l13 104q32 8 46.5 26.5t18.5 50.5l23 184q5 42 18 70t35 44
t52.5 22.5t71.5 6.5q16 0 31 -1t31 -1z" />
    <glyph glyph-name="bar" unicode="|" 
d="M191 -250v1000h123v-1000h-123z" />
    <glyph glyph-name="braceright" unicode="}" horiz-adv-x="503" 
d="M397 213q-32 -8 -46.5 -27t-18.5 -51l-22 -185q-10 -80 -50.5 -111.5t-119.5 -31.5h-35t-35 2l14 108h31q17 0 30.5 2t22.5 8t14.5 17.5t7.5 30.5v6.5t1 6.5l19 156q3 23 7.5 41t13 32.5t21.5 27t33 24.5q-26 19 -36 39t-10 52q0 25 3.5 53t8 57.5t8.5 57.5t4 53
q0 13 -6 20.5t-15.5 11.5t-21 5.5t-22.5 1.5q-8 0 -15 -0.5t-13 -0.5l13 108q18 1 36 1.5t36 0.5q30 0 55 -4.5t43 -16.5t28 -33.5t10 -55.5q0 -9 -1 -17.5t-2 -17.5l-23 -181q-1 -7 -1.5 -14t-0.5 -14q0 -24 10.5 -38.5t35.5 -19.5z" />
    <glyph glyph-name="asciitilde" unicode="~" horiz-adv-x="667" 
d="M629 705l-20.5 -41t-25.5 -38q-21 -24 -50.5 -38.5t-61.5 -14.5q-24 0 -47.5 8t-47 18t-46.5 18t-45 8q-31 0 -46.5 -19t-27.5 -43l-68 44q10 26 23 51t30.5 44t41 30.5t55.5 11.5q25 0 49.5 -8t48.5 -18t47 -18t46 -8q29 0 45 15t30 38z" />
    <glyph glyph-name="uni00A0" unicode="&#xa0;" horiz-adv-x="233" 
 />
    <glyph glyph-name="exclamdown" unicode="&#xa1;" horiz-adv-x="284" 
d="M248 380q0 -19 -7.5 -36t-20.5 -30t-30 -20.5t-36 -7.5q-32 0 -52.5 21t-20.5 53q0 19 7.5 36t20.5 30t30 21t36 8q32 0 52.5 -21.5t20.5 -53.5zM156 -223h-129l57 466h129z" />
    <glyph glyph-name="cent" unicode="&#xa2;" horiz-adv-x="433" 
d="M357 442q-7 5 -14.5 9t-16.5 4q-23 0 -39.5 -17.5t-27 -42.5t-15.5 -51.5t-5 -44.5q0 -14 2 -28.5t8 -26.5t16.5 -19.5t27.5 -7.5q19 0 38 11l-14 -112q-11 -6 -24 -11t-24 -6l-10 -76h-72l11 80q-10 3 -22 11.5t-23 22.5q-22 25 -32.5 60.5t-10.5 68.5q0 39 8 85.5
t25 88.5t44 75t65 46l12 92h72l-10 -86q9 -2 21 -5t24 -8z" />
    <glyph glyph-name="sterling" unicode="&#xa3;" horiz-adv-x="433" 
d="M321 481q1 5 1.5 12t0.5 15q0 13 -3 26t-12 22q-8 8 -18.5 10.5t-19.5 2.5q-14 0 -25 -4t-21 -15q-14 -16 -17 -37t-3 -34q0 -26 4.5 -51.5l10.5 -59.5h112l-10 -80h-93q3 -10 5 -21.5t2 -22.5q0 -40 -15.5 -70.5t-29.5 -46.5q19 -4 30.5 -8.5t25.5 -12.5q11 -6 24 -10.5
t30 -4.5q10 0 27 5.5t34 29.5l67 -54q-11 -17 -24.5 -33t-25.5 -25q-15 -11 -34.5 -18t-45.5 -7q-23 0 -44 5t-43 13q-20 7 -40.5 14t-46.5 7q-18 0 -36 -5.5t-42 -22.5l-43 71q23 17 41 26.5t41 16.5q20 32 25 60.5t5 44.5q0 24 -5 42.5t-8 26.5h-85l10 80h60
q-10 40 -11.5 68.5t-1.5 36.5q0 17 2 36t8.5 39t18 39.5t29.5 37.5q33 32 72 42t75 10q27 0 61.5 -7.5t60.5 -34.5q19 -20 28 -46t9 -55v-10t-1 -10z" />
    <glyph glyph-name="currency" unicode="&#xa4;" horiz-adv-x="667" 
d="M595 69l-102 102q-32 -23 -66.5 -34.5t-74.5 -11.5t-74 12t-67 33l-102 -101l-67 67l102 102q-44 62 -44 138q0 39 11 72t34 65l-104 103l68 68l103 -103q33 23 66 33.5t74 10.5q40 0 72.5 -10.5t65.5 -32.5l102 101l67 -67l-101 -101q22 -34 34 -66.5t12 -73.5
q0 -39 -11.5 -72t-33.5 -65l103 -102zM491 375q0 29 -11 54.5t-29.5 44.5t-44 30t-54.5 11t-54.5 -11t-44.5 -30t-30 -44.5t-11 -54.5t11 -54.5t30 -44.5t44.5 -30t54.5 -11t54.5 11t44 30t29.5 44.5t11 54.5z" />
    <glyph glyph-name="yen" unicode="&#xa5;" horiz-adv-x="433" 
d="M363 439h80l-9 -68h-109l-30 -52h133l-8 -68h-133l-31 -251h-131l31 251h-137l8 68h138l-18 52h-113l8 68h83l-75 228h143l44 -175q2 -9 3.5 -19.5t4.5 -19.5q4 10 8 19.5t9 19.5l83 175h146z" />
    <glyph glyph-name="brokenbar" unicode="&#xa6;" 
d="M190 335v415h124v-415h-124zM190 -250v415h124v-415h-124z" />
    <glyph glyph-name="section" unicode="&#xa7;" horiz-adv-x="427" 
d="M409 583v-10.5t-1 -10.5h-113v19q0 8 -0.5 18.5t-3.5 19.5t-9.5 15.5t-18.5 6.5t-21 -7.5t-15 -18t-8.5 -23t-2.5 -22.5q0 -31 17.5 -53t41.5 -41t50 -38t43 -43q12 -21 15.5 -45t3.5 -48q0 -29 -5 -59t-16 -57t-28.5 -51t-42.5 -41q21 -20 30 -48.5t9 -69.5
q0 -37 -12.5 -70t-35 -58t-54 -39.5t-69.5 -14.5q-63 0 -98.5 39t-35.5 101q0 12 0.5 24t0.5 24h114q-2 -11 -2 -21.5v-21.5q0 -17 6.5 -31.5t26.5 -14.5q13 0 22 8t14.5 19t8 24t2.5 23q0 30 -13 47.5t-32 30.5t-41.5 25.5t-41.5 32t-32 50t-13 79.5q0 61 24.5 114.5
t74.5 89.5q-20 22 -32.5 50t-12.5 58q0 34 12 69t34 63.5t54 46t73 17.5q60 0 96.5 -36.5t36.5 -96.5v-24zM275 300q0 11 -1.5 23.5t-6.5 23t-14 17t-23 6.5q-21 0 -34.5 -16t-21.5 -38.5t-11 -46t-3 -39.5q0 -11 1.5 -24t6 -24t13 -18t23.5 -7q24 0 38.5 15.5t21.5 38t9 47
t2 42.5z" />
    <glyph glyph-name="dieresis" unicode="&#xa8;" horiz-adv-x="474" 
d="M433 590q0 -15 -6 -28.5t-16.5 -23t-24 -15.5t-28.5 -6q-25 0 -40.5 17t-15.5 41q0 15 6 28t16 23.5t23 16.5t28 6q25 0 41.5 -17t16.5 -42zM260 590q0 -15 -6 -28t-16.5 -23t-23.5 -16t-28 -6q-25 0 -41 16.5t-16 41.5q0 15 6 28t16 23.5t23 16.5t28 6q25 0 41.5 -17
t16.5 -42z" />
    <glyph glyph-name="copyright" unicode="&#xa9;" horiz-adv-x="762" 
d="M741 333q0 -72 -27 -135t-74 -110.5t-110 -75t-135 -27.5t-135.5 27.5t-110.5 74.5t-74.5 110.5t-27.5 135.5t27.5 135.5t74.5 110.5t110.5 74.5t135.5 27.5t135 -27.5t110 -75t74 -110.5t27 -135zM673 333q0 58 -21 110.5t-58.5 92t-88.5 62.5t-110 23t-110.5 -23
t-89 -62t-59 -91.5t-21.5 -110.5q0 -59 21.5 -111t59 -91.5t89 -62.5t110.5 -23t109.5 23t88 62.5t59 91.5t21.5 110zM472 137q-11 -4 -21.5 -6t-22.5 -2q-44 0 -79 16.5t-60.5 45t-39 66t-13.5 79.5q0 39 13.5 75.5t38.5 64.5t59.5 45t75.5 17q23 0 49 -8v-80q-20 5 -36 5
q-26 0 -45 -9.5t-32 -26t-19.5 -38t-6.5 -45.5q0 -22 6.5 -44t19.5 -40t32 -29t43 -11q10 0 19.5 2t18.5 5v-82z" />
    <glyph glyph-name="ordfeminine" unicode="&#xaa;" horiz-adv-x="285" 
d="M260 372h-86l2 20q-11 -11 -22.5 -18t-27.5 -7q-18 0 -30.5 10.5t-19.5 27t-10 37.5t-3 42q0 27 5 60t16.5 61.5t30.5 48t48 19.5q16 0 26 -6.5t19 -19.5l3 20h85zM250 297h-210l6 44h210zM199 567q0 11 -2.5 22.5t-12.5 11.5t-17 -12t-11 -28.5t-5.5 -34.5t-1.5 -31
q0 -19 3 -36.5t14 -17.5q10 0 16.5 12t10 31t5 41t1.5 42z" />
    <glyph glyph-name="guillemotleft" unicode="&#xab;" horiz-adv-x="390" 
d="M272 234l69 -168l-71 -38l-89 206l139 206l62 -34zM121 234l69 -168l-71 -38l-89 206l139 206l62 -34z" />
    <glyph glyph-name="logicalnot" unicode="&#xac;" 
d="M332 0v156h-310v111h433v-267h-123z" />
    <glyph glyph-name="uni00AD" unicode="&#xad;" horiz-adv-x="268" 
d="M45 191l14 108h168l-14 -108h-168z" />
    <glyph glyph-name="registered" unicode="&#xae;" horiz-adv-x="762" 
d="M435 145l-64 169v-169h-90v390h94q27 0 52.5 -5.5t45.5 -18t32 -33t12 -51.5q0 -40 -14 -65t-46 -40l75 -177h-97zM377 370q27 0 38 12.5t11 41.5q0 21 -9.5 32t-37.5 11h-8v-97h6zM673 333q0 58 -21 110.5t-58.5 92t-88.5 62.5t-110 23t-110.5 -23t-89 -62t-59 -91.5
t-21.5 -110.5q0 -59 21.5 -111t59 -91.5t89 -62.5t110.5 -23t109.5 23t88 62.5t59 91.5t21.5 110zM741 333q0 -72 -27 -135t-74 -110.5t-110 -75t-135 -27.5t-135.5 27.5t-110.5 74.5t-74.5 110.5t-27.5 135.5t27.5 135.5t74.5 110.5t110.5 74.5t135.5 27.5t135 -27.5
t110 -75t74 -110.5t27 -135z" />
    <glyph glyph-name="macron" unicode="&#xaf;" 
d="M428 531h-282l10 80h282z" />
    <glyph glyph-name="degree" unicode="&#xb0;" 
d="M438 511q0 -32 -12 -59t-33 -47.5t-49 -32t-59 -11.5t-59 11.5t-49 32t-33 47.5t-12 59q0 31 12 58.5t33 48t49 32t59 11.5t59 -11.5t49 -32t33 -48t12 -58.5zM364 511q0 32 -23.5 55t-55.5 23t-55.5 -22.5t-23.5 -55.5t23.5 -55t55.5 -22q16 0 30 6t25 16.5t17.5 24.5
t6.5 30z" />
    <glyph glyph-name="plusminus" unicode="&#xb1;" 
d="M316 355v-155h-124v155h-155v114h155v156h124v-156h155v-114h-155zM37 52v114h434v-114h-434z" />
    <glyph glyph-name="uni00B2" unicode="&#xb2;" horiz-adv-x="282" 
d="M65 523q1 32 7.5 59.5t21.5 48t39 32t60 11.5q45 0 74 -20t29 -69q0 -41 -18.5 -74t-40.5 -65l-71 -105h94l-9 -74h-226l120 173q9 13 20.5 30t21.5 35t17 37t7 36q0 12 -5 23t-19 11t-22 -10.5t-11.5 -24.5t-5 -29.5t-1.5 -24.5h-82z" />
    <glyph glyph-name="uni00B3" unicode="&#xb3;" horiz-adv-x="283" 
d="M78 549q3 29 10.5 52t21 39t34.5 24.5t53 8.5q39 0 66 -22.5t27 -63.5q0 -33 -13 -65t-45 -48q26 -9 37 -29.5t11 -46.5q0 -30 -10.5 -55.5t-28.5 -43.5t-43.5 -28t-55.5 -10q-20 0 -39 5t-33.5 15.5t-23 26.5t-8.5 39q0 8 0.5 15t1.5 15h84q-1 -5 -2 -10.5t-1 -10.5
q0 -11 6 -19.5t18 -8.5q13 0 21 8.5t12.5 20.5t6 25t1.5 22q0 14 -5 21.5t-13 10.5t-18.5 3.5t-21.5 0.5l9 72q38 0 54 12t16 51q0 10 -5 18.5t-16 8.5q-9 0 -15 -6t-9 -14t-4.5 -17t-1.5 -16h-78z" />
    <glyph glyph-name="acute" unicode="&#xb4;" 
d="M299 517l-56 36l100 128l83 -42z" />
    <glyph glyph-name="uni00B5" unicode="&#xb5;" horiz-adv-x="523" 
d="M331 0l7 56q-16 -35 -43 -51q-16 -10 -31.5 -12.5t-28.5 -2.5q-17 0 -33 5t-30 20q-11 11 -18 26t-11 29l-33 -276h-125l80 653h125l-25 -205q-1 -6 -2 -14t-1.5 -17t-1 -17t-0.5 -13q0 -26 7.5 -42.5t17.5 -26.5q9 -8 24.5 -16t39.5 -8q17 0 35 4t33 18q23 22 30 53
t12 66l27 218h124l-55 -447h-124z" />
    <glyph glyph-name="uni00B5" unicode="&#x3bc;" horiz-adv-x="523" 
d="M331 0l7 56q-16 -35 -43 -51q-16 -10 -31.5 -12.5t-28.5 -2.5q-17 0 -33 5t-30 20q-11 11 -18 26t-11 29l-33 -276h-125l80 653h125l-25 -205q-1 -6 -2 -14t-1.5 -17t-1 -17t-0.5 -13q0 -26 7.5 -42.5t17.5 -26.5q9 -8 24.5 -16t39.5 -8q17 0 35 4t33 18q23 22 30 53
t12 66l27 218h124l-55 -447h-124z" />
    <glyph glyph-name="paragraph" unicode="&#xb6;" horiz-adv-x="657" 
d="M626 572h-72l-83 -672h-105l84 672h-86l-83 -672h-105l53 420h-13q-34 0 -63 9.5t-50.5 28.5t-33.5 46.5t-12 62.5q0 41 16 79.5t46 65.5q19 17 42 28t48 17t51 8t50 2h328z" />
    <glyph glyph-name="periodcentered" unicode="&#xb7;" horiz-adv-x="279" 
d="M248 345q0 -23 -9 -43t-25 -35.5t-36.5 -24.5t-42.5 -9q-38 0 -63 25t-25 63q0 22 9 43t25 36.5t36 25t43 9.5q39 0 63.5 -26t24.5 -64z" />
    <glyph glyph-name="cedilla" unicode="&#xb8;" 
d="M188 -193l-51 29l83 122l74 -32z" />
    <glyph glyph-name="uni00B9" unicode="&#xb9;" horiz-adv-x="282" 
d="M194 267h-86l40 325h-39l9 75h125z" />
    <glyph glyph-name="ordmasculine" unicode="&#xba;" horiz-adv-x="285" 
d="M63 488q0 17 2 37t8 40.5t16 40t25 34.5q33 33 81 33q15 0 31.5 -5t30.5 -19q13 -13 23 -36.5t10 -64.5q0 -14 -2 -32.5t-7 -38.5t-15 -39.5t-26 -36.5q-31 -34 -80 -34q-21 0 -37 7t-28 19q-11 11 -17 24t-9.5 26t-4.5 24.5t-1 20.5zM42 297l6 44h213l-6 -44h-213z
M186 599q-8 0 -14 -6q-5 -5 -8.5 -15.5t-8.5 -32.5q-4 -20 -5 -34t-1 -29q0 -17 1.5 -25t5.5 -12t8 -4q8 0 14 6q8 8 12 25t6 25q2 13 4 31.5t2 31.5q0 17 -1.5 23.5t-3.5 9.5q-4 6 -11 6z" />
    <glyph glyph-name="guillemotright" unicode="&#xbb;" horiz-adv-x="390" 
d="M222 28l-61 38l109 168l-68 172l71 34l88 -206zM71 28l-61 38l109 168l-68 172l71 34l88 -206z" />
    <glyph glyph-name="onequarter" unicode="&#xbc;" horiz-adv-x="709" 
d="M668 92h-34l-11 -92h-86l12 92h-121l8 65l141 243h95l-29 -234h34zM201 0h-76l395 667h76zM194 267h-86l40 325h-39l9 75h125zM505 166h53l15 125z" />
    <glyph glyph-name="onehalf" unicode="&#xbd;" horiz-adv-x="708" 
d="M459 257q1 32 7.5 59.5t21 47.5t38.5 31.5t60 11.5q45 0 74 -19.5t29 -68.5q0 -38 -16.5 -69.5t-36.5 -60.5t-38.5 -57.5t-37.5 -57.5h94l-10 -74h-226l121 173q9 13 20.5 30t21 35.5t16.5 37t7 35.5q0 12 -4.5 23.5t-19.5 11.5q-13 0 -21 -10.5t-12 -25t-5.5 -29.5
t-1.5 -24h-81zM201 0h-76l395 667h76zM194 267h-86l40 325h-39l9 75h125z" />
    <glyph glyph-name="threequarters" unicode="&#xbe;" horiz-adv-x="709" 
d="M669 92h-35l-11 -92h-85l11 92h-120l8 65l141 243h94l-28 -234h34zM202 0h-76l395 667h75zM78 549q3 29 10.5 52t21 39t34.5 24.5t53 8.5q39 0 66 -22.5t27 -63.5q0 -33 -13 -65t-45 -48q26 -9 37 -29.5t11 -46.5q0 -30 -10.5 -55.5t-28.5 -43.5t-43.5 -28t-55.5 -10
q-20 0 -39 5t-33.5 15.5t-23 26.5t-8.5 39q0 8 0.5 15t1.5 15h84q-1 -5 -2 -10.5t-1 -10.5q0 -11 6 -19.5t18 -8.5q13 0 21 8.5t12.5 20.5t6 25t1.5 22q0 14 -5 21.5t-13 10.5t-18.5 3.5t-21.5 0.5l9 72q38 0 54 12t16 51q0 10 -5 18.5t-16 8.5q-9 0 -15 -6t-9 -14t-4.5 -17
t-1.5 -16h-78zM505 166h53l16 125z" />
    <glyph glyph-name="questiondown" unicode="&#xbf;" horiz-adv-x="408" 
d="M305 380q0 -19 -7.5 -36t-20.5 -30t-30 -20.5t-36 -7.5q-32 0 -52.5 21t-20.5 53q0 19 7.5 36t20.5 30t30 21t36 8q32 0 52.5 -21.5t20.5 -53.5zM350 -39q-3 -23 -7.5 -45t-13.5 -43q-22 -52 -68 -79t-101 -27q-78 0 -119 46.5t-41 121.5q0 39 13 82t36 75q16 23 36 36
t46 21l10 86h128l-20 -163q-5 1 -9.5 1h-9.5q-25 0 -42 -12.5t-27.5 -31.5t-15.5 -41.5t-5 -43.5q0 -9 1.5 -19.5t5 -20t11 -15.5t19.5 -6q14 0 24 8t16 20t8.5 25.5t2.5 24.5h122z" />
    <glyph glyph-name="Agrave" unicode="&#xc0;" horiz-adv-x="453" 
d="M284 0l-11 112h-131l-37 -112h-130l235 667h137l75 -667h-138zM266 215q-5 70 -10.5 139.5t-2.5 140.5q-5 -26 -10.5 -51.5t-12.5 -51.5q-11 -45 -26 -88.5t-29 -88.5h91zM268 711l-100 114l87 50l78 -128z" />
    <glyph glyph-name="Aacute" unicode="&#xc1;" horiz-adv-x="453" 
d="M284 0l-11 112h-131l-37 -112h-130l235 667h137l75 -667h-138zM266 215q-5 70 -10.5 139.5t-2.5 140.5q-5 -26 -10.5 -51.5t-12.5 -51.5q-11 -45 -26 -88.5t-29 -88.5h91zM316 875l81 -50l-114 -114l-61 36z" />
    <glyph glyph-name="Acircumflex" unicode="&#xc2;" horiz-adv-x="453" 
d="M284 0l-11 112h-131l-37 -112h-130l235 667h137l75 -667h-138zM266 215q-5 70 -10.5 139.5t-2.5 140.5q-5 -26 -10.5 -51.5t-12.5 -51.5q-11 -45 -26 -88.5t-29 -88.5h91zM353 724l-66 62l-84 -62l-41 62l137 100l114 -107z" />
    <glyph glyph-name="Atilde" unicode="&#xc3;" horiz-adv-x="453" 
d="M284 0l-11 112h-131l-37 -112h-130l235 667h137l75 -667h-138zM266 215q-5 70 -10.5 139.5t-2.5 140.5q-5 -26 -10.5 -51.5t-12.5 -51.5q-11 -45 -26 -88.5t-29 -88.5h91zM436 842q-5 -20 -12.5 -40.5t-18.5 -38t-28 -28.5t-41 -11q-15 0 -28.5 5t-26.5 10.5t-24.5 10.5
t-22.5 5q-13 0 -20 -8.5t-11 -19.5h-64q4 20 10.5 41t17.5 38t27.5 28t41.5 11q16 0 29 -5.5t24.5 -11.5t23 -11.5t24.5 -5.5q18 0 23.5 10.5t11.5 24.5z" />
    <glyph glyph-name="Adieresis" unicode="&#xc4;" horiz-adv-x="453" 
d="M284 0l-11 112h-131l-37 -112h-130l235 667h137l75 -667h-138zM266 215q-5 70 -10.5 139.5t-2.5 140.5q-5 -26 -10.5 -51.5t-12.5 -51.5q-11 -45 -26 -88.5t-29 -88.5h91zM428 797q0 -15 -6 -28.5t-16.5 -23t-24 -15.5t-28.5 -6q-25 0 -40.5 17t-15.5 41q0 15 6 28
t16 23.5t23 16.5t28 6q25 0 41.5 -17t16.5 -42zM255 797q0 -15 -6 -28t-16.5 -23t-23.5 -16t-28 -6q-25 0 -41 16.5t-16 41.5q0 15 6 28t16 23.5t23 16.5t28 6q25 0 41.5 -17t16.5 -42z" />
    <glyph glyph-name="Aring" unicode="&#xc5;" horiz-adv-x="453" 
d="M284 0l-11 112h-131l-37 -112h-130l235 667h137l75 -667h-138zM266 215q-5 70 -10.5 139.5t-2.5 140.5q-5 -26 -10.5 -51.5t-12.5 -51.5q-11 -45 -26 -88.5t-29 -88.5h91zM198 810q0 40 28 68t68 28t68 -28t28 -68t-28 -68t-68 -28t-68 28t-28 68zM253 810
q0 -18 11.5 -29.5t29.5 -11.5t29.5 11.5t11.5 29.5t-11.5 29.5t-29.5 11.5t-29.5 -11.5t-11.5 -29.5z" />
    <glyph glyph-name="AE" unicode="&#xc6;" horiz-adv-x="583" 
d="M285 0l-10 111h-137l-33 -111h-130l231 667h268l12 -124h-129l16 -138h130l15 -126h-129l19 -154h125l16 -125h-264zM266 216q-4 35 -7 70.5t-6 70.5q-2 17 -3 33t-1 33q0 18 0.5 35.5t0.5 35.5q-7 -35 -14.5 -70t-18.5 -69l-44 -139h93z" />
    <glyph glyph-name="Ccedilla" unicode="&#xc7;" horiz-adv-x="418" 
d="M348 17q-21 -11 -45.5 -17.5t-55.5 -6.5q-38 0 -71 12t-62 41q-32 32 -50 85t-18 121q0 44 7.5 93t23 96t40 89.5t58.5 74.5q35 33 78.5 51t100.5 18q23 0 42.5 -4t41.5 -15l-19 -139q-20 21 -40.5 26.5t-32.5 5.5q-23 0 -43 -10t-37 -26q-20 -20 -35 -50.5t-25 -65
t-15 -70t-5 -64.5q0 -8 1 -21t4 -28.5t8.5 -31t15.5 -28.5q16 -20 34.5 -26.5t32.5 -6.5q19 0 41.5 7.5t43.5 27.5zM193 -205l-60 36l79 127l90 -35z" />
    <glyph glyph-name="Egrave" unicode="&#xc8;" horiz-adv-x="350" 
d="M351 543h-131l-18 -144h116l-16 -126h-115l-19 -150h133l-15 -123h-263l82 667h261zM243 711l-100 114l87 50l78 -128z" />
    <glyph glyph-name="Eacute" unicode="&#xc9;" horiz-adv-x="350" 
d="M351 543h-131l-18 -144h116l-16 -126h-115l-19 -150h133l-15 -123h-263l82 667h261zM264 875l81 -50l-114 -114l-61 36z" />
    <glyph glyph-name="Ecircumflex" unicode="&#xca;" horiz-adv-x="350" 
d="M351 543h-131l-18 -144h116l-16 -126h-115l-19 -150h133l-15 -123h-263l82 667h261zM323 724l-66 62l-84 -62l-41 62l137 100l114 -107z" />
    <glyph glyph-name="Edieresis" unicode="&#xcb;" horiz-adv-x="350" 
d="M351 543h-131l-18 -144h116l-16 -126h-115l-19 -150h133l-15 -123h-263l82 667h261zM403 797q0 -15 -6 -28.5t-16.5 -23t-24 -15.5t-28.5 -6q-25 0 -40.5 17t-15.5 41q0 15 6 28t16 23.5t23 16.5t28 6q25 0 41.5 -17t16.5 -42zM230 797q0 -15 -6 -28t-16.5 -23t-23.5 -16
t-28 -6q-25 0 -41 16.5t-16 41.5q0 15 6 28t16 23.5t23 16.5t28 6q25 0 41.5 -17t16.5 -42z" />
    <glyph glyph-name="Igrave" unicode="&#xcc;" horiz-adv-x="232" 
d="M153 0h-130l82 667h130zM163 711l-100 114l87 50l78 -128z" />
    <glyph glyph-name="Iacute" unicode="&#xcd;" horiz-adv-x="232" 
d="M153 0h-130l82 667h130zM205 875l81 -50l-114 -114l-61 36z" />
    <glyph glyph-name="Icircumflex" unicode="&#xce;" horiz-adv-x="232" 
d="M153 0h-130l82 667h130zM248 724l-66 62l-84 -62l-41 62l137 100l114 -107z" />
    <glyph glyph-name="Idieresis" unicode="&#xcf;" horiz-adv-x="232" 
d="M153 0h-130l82 667h130zM333 797q0 -15 -6 -28.5t-16.5 -23t-24 -15.5t-28.5 -6q-25 0 -40.5 17t-15.5 41q0 15 6 28t16 23.5t23 16.5t28 6q25 0 41.5 -17t16.5 -42zM160 797q0 -15 -6 -28t-16.5 -23t-23.5 -16t-28 -6q-25 0 -41 16.5t-16 41.5q0 15 6 28t16 23.5
t23 16.5t28 6q25 0 41.5 -17t16.5 -42z" />
    <glyph glyph-name="Eth" unicode="&#xd0;" horiz-adv-x="481" 
d="M215 667q35 0 66 -3.5t63 -19.5q34 -17 57 -43.5t36.5 -58.5t19 -68t5.5 -71q0 -42 -6 -86.5t-19.5 -87.5t-34.5 -82.5t-51 -70.5q-41 -42 -92.5 -59t-108.5 -17h-126l36 293h-47l12 100h47l34 274h109zM169 121q32 1 54.5 12t42.5 36q17 21 29 47t20 54t11.5 56.5
t3.5 54.5q0 18 -2 38.5t-7 40t-14 37t-23 30.5q-15 14 -29 17.5t-34 5.5l-19 -157h73l-12 -100h-73z" />
    <glyph glyph-name="Ntilde" unicode="&#xd1;" horiz-adv-x="510" 
d="M430 0h-122l-112 402q0 -22 -0.5 -43t-3.5 -43l-39 -316h-130l82 667h123l112 -403q-1 12 -1 24v24v22t2 22l39 311h132zM476 842q-5 -20 -12.5 -40.5t-18.5 -38t-28 -28.5t-41 -11q-15 0 -28.5 5t-26.5 10.5t-24.5 10.5t-22.5 5q-13 0 -20 -8.5t-11 -19.5h-64
q4 20 10.5 41t17.5 38t27.5 28t41.5 11q16 0 29 -5.5t24.5 -11.5t23 -11.5t24.5 -5.5q18 0 23.5 10.5t11.5 24.5z" />
    <glyph glyph-name="Ograve" unicode="&#xd2;" horiz-adv-x="534" 
d="M517 434q0 -57 -8 -119t-27 -116q-14 -41 -37 -79t-54 -67t-70 -46.5t-85 -17.5q-49 0 -91.5 26t-66.5 68q-22 37 -28.5 76.5t-6.5 81.5q0 46 5 91.5t17 90.5q12 47 33.5 92.5t54 81.5t75 58t96.5 22q50 0 86.5 -21.5t60 -56t35 -78t11.5 -87.5zM378 427q0 17 -2.5 39
t-10.5 42t-22 34t-36 14q-29 0 -49.5 -22.5t-34.5 -54t-22 -65.5t-11 -56q-5 -28 -6.5 -56t-1.5 -57q0 -17 3 -39t10.5 -42t21.5 -34t36 -14q29 0 49.5 22.5t34.5 54t22 65.5t11 56q5 28 6.5 56t1.5 57zM343 711l-100 114l87 50l78 -128z" />
    <glyph glyph-name="Oacute" unicode="&#xd3;" horiz-adv-x="534" 
d="M517 434q0 -57 -8 -119t-27 -116q-14 -41 -37 -79t-54 -67t-70 -46.5t-85 -17.5q-49 0 -91.5 26t-66.5 68q-22 37 -28.5 76.5t-6.5 81.5q0 46 5 91.5t17 90.5q12 47 33.5 92.5t54 81.5t75 58t96.5 22q50 0 86.5 -21.5t60 -56t35 -78t11.5 -87.5zM378 427q0 17 -2.5 39
t-10.5 42t-22 34t-36 14q-29 0 -49.5 -22.5t-34.5 -54t-22 -65.5t-11 -56q-5 -28 -6.5 -56t-1.5 -57q0 -17 3 -39t10.5 -42t21.5 -34t36 -14q29 0 49.5 22.5t34.5 54t22 65.5t11 56q5 28 6.5 56t1.5 57zM356 875l81 -50l-114 -114l-61 36z" />
    <glyph glyph-name="Ocircumflex" unicode="&#xd4;" horiz-adv-x="534" 
d="M517 434q0 -57 -8 -119t-27 -116q-14 -41 -37 -79t-54 -67t-70 -46.5t-85 -17.5q-49 0 -91.5 26t-66.5 68q-22 37 -28.5 76.5t-6.5 81.5q0 46 5 91.5t17 90.5q12 47 33.5 92.5t54 81.5t75 58t96.5 22q50 0 86.5 -21.5t60 -56t35 -78t11.5 -87.5zM378 427q0 17 -2.5 39
t-10.5 42t-22 34t-36 14q-29 0 -49.5 -22.5t-34.5 -54t-22 -65.5t-11 -56q-5 -28 -6.5 -56t-1.5 -57q0 -17 3 -39t10.5 -42t21.5 -34t36 -14q29 0 49.5 22.5t34.5 54t22 65.5t11 56q5 28 6.5 56t1.5 57zM398 724l-66 62l-84 -62l-41 62l137 100l114 -107z" />
    <glyph glyph-name="Otilde" unicode="&#xd5;" horiz-adv-x="534" 
d="M517 434q0 -57 -8 -119t-27 -116q-14 -41 -37 -79t-54 -67t-70 -46.5t-85 -17.5q-49 0 -91.5 26t-66.5 68q-22 37 -28.5 76.5t-6.5 81.5q0 46 5 91.5t17 90.5q12 47 33.5 92.5t54 81.5t75 58t96.5 22q50 0 86.5 -21.5t60 -56t35 -78t11.5 -87.5zM378 427q0 17 -2.5 39
t-10.5 42t-22 34t-36 14q-29 0 -49.5 -22.5t-34.5 -54t-22 -65.5t-11 -56q-5 -28 -6.5 -56t-1.5 -57q0 -17 3 -39t10.5 -42t21.5 -34t36 -14q29 0 49.5 22.5t34.5 54t22 65.5t11 56q5 28 6.5 56t1.5 57zM481 842q-5 -20 -12.5 -40.5t-18.5 -38t-28 -28.5t-41 -11
q-15 0 -28.5 5t-26.5 10.5t-24.5 10.5t-22.5 5q-13 0 -20 -8.5t-11 -19.5h-64q4 20 10.5 41t17.5 38t27.5 28t41.5 11q16 0 29 -5.5t24.5 -11.5t23 -11.5t24.5 -5.5q18 0 23.5 10.5t11.5 24.5z" />
    <glyph glyph-name="Odieresis" unicode="&#xd6;" horiz-adv-x="534" 
d="M517 434q0 -57 -8 -119t-27 -116q-14 -41 -37 -79t-54 -67t-70 -46.5t-85 -17.5q-49 0 -91.5 26t-66.5 68q-22 37 -28.5 76.5t-6.5 81.5q0 46 5 91.5t17 90.5q12 47 33.5 92.5t54 81.5t75 58t96.5 22q50 0 86.5 -21.5t60 -56t35 -78t11.5 -87.5zM378 427q0 17 -2.5 39
t-10.5 42t-22 34t-36 14q-29 0 -49.5 -22.5t-34.5 -54t-22 -65.5t-11 -56q-5 -28 -6.5 -56t-1.5 -57q0 -17 3 -39t10.5 -42t21.5 -34t36 -14q29 0 49.5 22.5t34.5 54t22 65.5t11 56q5 28 6.5 56t1.5 57zM483 797q0 -15 -6 -28.5t-16.5 -23t-24 -15.5t-28.5 -6
q-25 0 -40.5 17t-15.5 41q0 15 6 28t16 23.5t23 16.5t28 6q25 0 41.5 -17t16.5 -42zM310 797q0 -15 -6 -28t-16.5 -23t-23.5 -16t-28 -6q-25 0 -41 16.5t-16 41.5q0 15 6 28t16 23.5t23 16.5t28 6q25 0 41.5 -17t16.5 -42z" />
    <glyph glyph-name="multiply" unicode="&#xd7;" 
d="M262 258l-113 -113l-81 82l113 113l-113 112l81 82l113 -113l113 113l81 -82l-113 -112l113 -113l-81 -82z" />
    <glyph glyph-name="Oslash" unicode="&#xd8;" horiz-adv-x="534" 
d="M491 566q17 -36 21 -69.5t4 -72.5q0 -54 -7 -107.5t-23 -105.5q-13 -42 -35.5 -81.5t-53.5 -71t-71 -50.5t-87 -19q-42 0 -73 14.5t-62 41.5l-39 -51l-46 33l52 68q-18 40 -23 72.5t-5 75.5q0 46 5 91.5t17 90.5q12 47 34 92.5t54.5 81t75.5 57t97 21.5q78 0 133 -60
l41 54l46 -30zM369 499q-7 22 -21 40.5t-40 18.5q-27 0 -46 -18t-33 -46.5t-23 -64.5t-14 -71t-7.5 -65.5t-2.5 -49.5zM194 162q8 -20 23 -34.5t38 -14.5q25 0 44 17t32.5 44.5t22 61.5t13.5 67.5t7.5 63t3.5 47.5z" />
    <glyph glyph-name="Ugrave" unicode="&#xd9;" horiz-adv-x="491" 
d="M433 170q-4 -29 -10 -53t-24 -49q-16 -22 -37 -37t-45.5 -24.5t-51 -13.5t-52.5 -4q-36 0 -67.5 8t-55 25.5t-36.5 45.5t-13 68q0 13 1.5 26t3.5 26l59 479h130l-54 -443q-2 -13 -3.5 -25t-1.5 -25q0 -29 11.5 -47t43.5 -18q26 0 40.5 10.5t22 27t10 37t5.5 40.5l55 443
h130zM283 711l-100 114l87 50l78 -128z" />
    <glyph glyph-name="Uacute" unicode="&#xda;" horiz-adv-x="491" 
d="M433 170q-4 -29 -10 -53t-24 -49q-16 -22 -37 -37t-45.5 -24.5t-51 -13.5t-52.5 -4q-36 0 -67.5 8t-55 25.5t-36.5 45.5t-13 68q0 13 1.5 26t3.5 26l59 479h130l-54 -443q-2 -13 -3.5 -25t-1.5 -25q0 -29 11.5 -47t43.5 -18q26 0 40.5 10.5t22 27t10 37t5.5 40.5l55 443
h130zM335 875l81 -50l-114 -114l-61 36z" />
    <glyph glyph-name="Ucircumflex" unicode="&#xdb;" horiz-adv-x="491" 
d="M433 170q-4 -29 -10 -53t-24 -49q-16 -22 -37 -37t-45.5 -24.5t-51 -13.5t-52.5 -4q-36 0 -67.5 8t-55 25.5t-36.5 45.5t-13 68q0 13 1.5 26t3.5 26l59 479h130l-54 -443q-2 -13 -3.5 -25t-1.5 -25q0 -29 11.5 -47t43.5 -18q26 0 40.5 10.5t22 27t10 37t5.5 40.5l55 443
h130zM378 724l-66 62l-84 -62l-41 62l137 100l114 -107z" />
    <glyph glyph-name="Udieresis" unicode="&#xdc;" horiz-adv-x="491" 
d="M433 170q-4 -29 -10 -53t-24 -49q-16 -22 -37 -37t-45.5 -24.5t-51 -13.5t-52.5 -4q-36 0 -67.5 8t-55 25.5t-36.5 45.5t-13 68q0 13 1.5 26t3.5 26l59 479h130l-54 -443q-2 -13 -3.5 -25t-1.5 -25q0 -29 11.5 -47t43.5 -18q26 0 40.5 10.5t22 27t10 37t5.5 40.5l55 443
h130zM463 797q0 -15 -6 -28.5t-16.5 -23t-24 -15.5t-28.5 -6q-25 0 -40.5 17t-15.5 41q0 15 6 28t16 23.5t23 16.5t28 6q25 0 41.5 -17t16.5 -42zM290 797q0 -15 -6 -28t-16.5 -23t-23.5 -16t-28 -6q-25 0 -41 16.5t-16 41.5q0 15 6 28t16 23.5t23 16.5t28 6q25 0 41.5 -17
t16.5 -42z" />
    <glyph glyph-name="Yacute" unicode="&#xdd;" horiz-adv-x="440" 
d="M295 285l-36 -285h-130l35 285l-110 382h143l33 -153q2 -8 4 -21t4 -26.5t3.5 -25.5t2.5 -18q10 28 18.5 49t19.5 45l67 150h145zM301 875l81 -50l-114 -114l-61 36z" />
    <glyph glyph-name="Thorn" unicode="&#xde;" horiz-adv-x="428" 
d="M223 573q35 0 69 -1.5t66 -20.5q38 -23 54 -62.5t16 -82.5q0 -50 -16 -92t-45.5 -72t-71 -46.5t-91.5 -16.5h-14.5t-14.5 2l-22 -181h-130l82 667h130zM189 291q19 0 36.5 1.5t33.5 12.5q23 14 31.5 39t8.5 51q0 38 -15 55t-54 17h-20z" />
    <glyph glyph-name="germandbls" unicode="&#xdf;" horiz-adv-x="417" 
d="M73 343h-55l13 104h55l9 72q2 14 4 29t4 29q12 77 58 120t124 43q69 0 101.5 -39.5t32.5 -105.5q0 -28 -3 -57.5t-12.5 -56t-27 -48t-45.5 -33.5q38 -24 50 -57t12 -75q0 -23 -3 -49.5t-9 -53.5t-15 -52.5t-20 -45.5q-20 -35 -53 -53.5t-72 -18.5q-17 0 -39 5l14 112
q15 2 23 6t16 18q7 12 12 30t8 38t4.5 39t1.5 33q0 11 -1.5 22t-5.5 21q-5 12 -11.5 16.5t-18.5 7.5l14 111q13 3 20.5 8t13.5 17q4 10 7.5 23t5.5 27t3 28t1 26q0 14 -4 30t-23 16q-13 0 -20.5 -9.5t-11.5 -23t-5.5 -27.5t-2.5 -22l-67 -547h-124z" />
    <glyph glyph-name="agrave" unicode="&#xe0;" horiz-adv-x="390" 
d="M323 0h-124l6 51q-15 -23 -36.5 -41.5t-51.5 -18.5q-31 0 -49.5 17t-28.5 42.5t-13.5 54.5t-3.5 52q0 29 2.5 57.5t8.5 57.5q5 26 15.5 58t27.5 59.5t41 46.5t56 19q30 0 48 -18t26 -45l7 55h123zM238 276q0 7 -0.5 18.5t-3.5 22t-9 18.5t-16 8q-19 0 -31 -21t-19 -49.5
t-9.5 -56.5t-2.5 -41q0 -8 1 -20t4 -23.5t9.5 -20t17.5 -8.5q18 0 29.5 22t18 51t9 57.5t2.5 42.5zM241 517l-97 122l94 42l68 -128z" />
    <glyph glyph-name="aacute" unicode="&#xe1;" horiz-adv-x="390" 
d="M323 0h-124l6 51q-15 -23 -36.5 -41.5t-51.5 -18.5q-31 0 -49.5 17t-28.5 42.5t-13.5 54.5t-3.5 52q0 29 2.5 57.5t8.5 57.5q5 26 15.5 58t27.5 59.5t41 46.5t56 19q30 0 48 -18t26 -45l7 55h123zM238 276q0 7 -0.5 18.5t-3.5 22t-9 18.5t-16 8q-19 0 -31 -21t-19 -49.5
t-9.5 -56.5t-2.5 -41q0 -8 1 -20t4 -23.5t9.5 -20t17.5 -8.5q18 0 29.5 22t18 51t9 57.5t2.5 42.5zM234 517l-56 36l100 128l83 -42z" />
    <glyph glyph-name="acircumflex" unicode="&#xe2;" horiz-adv-x="390" 
d="M323 0h-124l6 51q-15 -23 -36.5 -41.5t-51.5 -18.5q-31 0 -49.5 17t-28.5 42.5t-13.5 54.5t-3.5 52q0 29 2.5 57.5t8.5 57.5q5 26 15.5 58t27.5 59.5t41 46.5t56 19q30 0 48 -18t26 -45l7 55h123zM238 276q0 7 -0.5 18.5t-3.5 22t-9 18.5t-16 8q-19 0 -31 -21t-19 -49.5
t-9.5 -56.5t-2.5 -41q0 -8 1 -20t4 -23.5t9.5 -20t17.5 -8.5q18 0 29.5 22t18 51t9 57.5t2.5 42.5zM293 517l-66 62l-84 -62l-41 62l137 100l114 -107z" />
    <glyph glyph-name="atilde" unicode="&#xe3;" horiz-adv-x="390" 
d="M323 0h-124l6 51q-15 -23 -36.5 -41.5t-51.5 -18.5q-31 0 -49.5 17t-28.5 42.5t-13.5 54.5t-3.5 52q0 29 2.5 57.5t8.5 57.5q5 26 15.5 58t27.5 59.5t41 46.5t56 19q30 0 48 -18t26 -45l7 55h123zM238 276q0 7 -0.5 18.5t-3.5 22t-9 18.5t-16 8q-19 0 -31 -21t-19 -49.5
t-9.5 -56.5t-2.5 -41q0 -8 1 -20t4 -23.5t9.5 -20t17.5 -8.5q18 0 29.5 22t18 51t9 57.5t2.5 42.5zM386 635q-5 -20 -12.5 -40.5t-18.5 -38t-28 -28.5t-41 -11q-15 0 -28.5 5t-26.5 10.5t-24.5 10.5t-22.5 5q-13 0 -20 -8.5t-11 -19.5h-64q4 20 10.5 41t17.5 38t27.5 28
t41.5 11q16 0 29 -5.5t24.5 -11.5t23 -11.5t24.5 -5.5q18 0 23.5 10.5t11.5 24.5z" />
    <glyph glyph-name="adieresis" unicode="&#xe4;" horiz-adv-x="390" 
d="M323 0h-124l6 51q-15 -23 -36.5 -41.5t-51.5 -18.5q-31 0 -49.5 17t-28.5 42.5t-13.5 54.5t-3.5 52q0 29 2.5 57.5t8.5 57.5q5 26 15.5 58t27.5 59.5t41 46.5t56 19q30 0 48 -18t26 -45l7 55h123zM238 276q0 7 -0.5 18.5t-3.5 22t-9 18.5t-16 8q-19 0 -31 -21t-19 -49.5
t-9.5 -56.5t-2.5 -41q0 -8 1 -20t4 -23.5t9.5 -20t17.5 -8.5q18 0 29.5 22t18 51t9 57.5t2.5 42.5zM391 590q0 -15 -6 -28.5t-16.5 -23t-24 -15.5t-28.5 -6q-25 0 -40.5 17t-15.5 41q0 15 6 28t16 23.5t23 16.5t28 6q25 0 41.5 -17t16.5 -42zM218 590q0 -15 -6 -28
t-16.5 -23t-23.5 -16t-28 -6q-25 0 -41 16.5t-16 41.5q0 15 6 28t16 23.5t23 16.5t28 6q25 0 41.5 -17t16.5 -42z" />
    <glyph glyph-name="aring" unicode="&#xe5;" horiz-adv-x="390" 
d="M323 0h-124l6 51q-15 -23 -36.5 -41.5t-51.5 -18.5q-31 0 -49.5 17t-28.5 42.5t-13.5 54.5t-3.5 52q0 29 2.5 57.5t8.5 57.5q5 26 15.5 58t27.5 59.5t41 46.5t56 19q30 0 48 -18t26 -45l7 55h123zM238 276q0 7 -0.5 18.5t-3.5 22t-9 18.5t-16 8q-19 0 -31 -21t-19 -49.5
t-9.5 -56.5t-2.5 -41q0 -8 1 -20t4 -23.5t9.5 -20t17.5 -8.5q18 0 29.5 22t18 51t9 57.5t2.5 42.5zM136 619q0 40 28 68t68 28t68 -28t28 -68t-28 -68t-68 -28t-68 28t-28 68zM191 619q0 -18 11.5 -29.5t29.5 -11.5t29.5 11.5t11.5 29.5t-11.5 29.5t-29.5 11.5t-29.5 -11.5
t-11.5 -29.5z" />
    <glyph glyph-name="ae" unicode="&#xe6;" horiz-adv-x="562" 
d="M90 436q25 8 50 14t52 6q42 0 69 -13t44 -53q22 32 49 48.5t67 16.5q36 0 59 -14.5t35.5 -38t17.5 -52.5t5 -59q0 -25 -2.5 -49.5t-4.5 -49.5h-201q-1 -8 -1.5 -15.5t-0.5 -15.5q0 -11 1 -24.5t5.5 -25.5t13 -20t23.5 -8q23 0 33.5 17t12.5 37h101q-10 -65 -48.5 -105.5
t-107.5 -40.5q-34 0 -59 13t-43 42q-26 -25 -53.5 -40t-65.5 -15q-56 0 -92 30.5t-36 88.5q0 32 11 61t30.5 50.5t47 34t60.5 12.5q17 0 33.5 -3t30.5 -13q1 11 2 21.5t1 21.5q0 31 -17 44t-46 13q-24 0 -45.5 -6.5t-43.5 -16.5zM431 269q1 8 1.5 15t0.5 15q0 9 -1 20.5
t-5 21t-11 16.5t-19 7q-15 0 -25 -10.5t-17 -25.5t-10.5 -31.5t-4.5 -27.5h91zM219 137q0 17 -12 29t-29 12q-21 0 -37 -16t-16 -37q0 -17 12 -29t29 -12q21 0 37 16t16 37z" />
    <glyph glyph-name="ccedilla" unicode="&#xe7;" horiz-adv-x="277" 
d="M270 333q-12 15 -33 15q-26 0 -42.5 -16.5t-27 -40t-14.5 -50t-4 -46.5q0 -15 2 -30t8 -28t17 -21t29 -8q11 0 20.5 3.5t18.5 9.5l-14 -114q-20 -8 -35.5 -12t-36.5 -4q-38 0 -64 16t-42 42t-23 58t-7 65q0 57 18 117.5t55 105.5q26 32 56.5 46.5t71.5 14.5
q19 0 31.5 -2.5t29.5 -10.5zM98 -193l-51 29l83 122l74 -32z" />
    <glyph glyph-name="egrave" unicode="&#xe8;" horiz-adv-x="367" 
d="M326 154q-4 -32 -19 -67t-40 -58t-52.5 -30.5t-50.5 -7.5q-26 0 -50.5 7.5t-46.5 30.5q-18 20 -32 52.5t-14 85.5q0 29 5 61.5t15.5 65t27 62t39.5 52.5q47 47 111 47q49 0 83 -32q15 -15 24 -33t13.5 -36t5.5 -35t1 -30q0 -5 -1.5 -29t-7.5 -59h-195q-3 -14 -4.5 -29.5
t-1.5 -27.5q0 -11 2 -26t10 -23q4 -4 10 -7t16 -3q22 0 35 22q5 8 8 22t5 25h104zM241 278q1 6 1.5 12t0.5 12q0 25 -8 40q-5 8 -11 13t-17 5q-6 0 -14 -3t-16 -11q-5 -6 -9.5 -14.5t-7.5 -18.5t-5 -19t-3 -16h89zM226 517l-97 122l94 42l68 -128z" />
    <glyph glyph-name="eacute" unicode="&#xe9;" horiz-adv-x="367" 
d="M326 154q-4 -32 -19 -67t-40 -58t-52.5 -30.5t-50.5 -7.5q-26 0 -50.5 7.5t-46.5 30.5q-18 20 -32 52.5t-14 85.5q0 29 5 61.5t15.5 65t27 62t39.5 52.5q47 47 111 47q49 0 83 -32q15 -15 24 -33t13.5 -36t5.5 -35t1 -30q0 -5 -1.5 -29t-7.5 -59h-195q-3 -14 -4.5 -29.5
t-1.5 -27.5q0 -11 2 -26t10 -23q4 -4 10 -7t16 -3q22 0 35 22q5 8 8 22t5 25h104zM241 278q1 6 1.5 12t0.5 12q0 25 -8 40q-5 8 -11 13t-17 5q-6 0 -14 -3t-16 -11q-5 -6 -9.5 -14.5t-7.5 -18.5t-5 -19t-3 -16h89zM223 517l-56 36l100 128l83 -42z" />
    <glyph glyph-name="ecircumflex" unicode="&#xea;" horiz-adv-x="367" 
d="M326 154q-4 -32 -19 -67t-40 -58t-52.5 -30.5t-50.5 -7.5q-26 0 -50.5 7.5t-46.5 30.5q-18 20 -32 52.5t-14 85.5q0 29 5 61.5t15.5 65t27 62t39.5 52.5q47 47 111 47q49 0 83 -32q15 -15 24 -33t13.5 -36t5.5 -35t1 -30q0 -5 -1.5 -29t-7.5 -59h-195q-3 -14 -4.5 -29.5
t-1.5 -27.5q0 -11 2 -26t10 -23q4 -4 10 -7t16 -3q22 0 35 22q5 8 8 22t5 25h104zM241 278q1 6 1.5 12t0.5 12q0 25 -8 40q-5 8 -11 13t-17 5q-6 0 -14 -3t-16 -11q-5 -6 -9.5 -14.5t-7.5 -18.5t-5 -19t-3 -16h89zM298 517l-66 62l-84 -62l-41 62l137 100l114 -107z" />
    <glyph glyph-name="edieresis" unicode="&#xeb;" horiz-adv-x="367" 
d="M326 154q-4 -32 -19 -67t-40 -58t-52.5 -30.5t-50.5 -7.5q-26 0 -50.5 7.5t-46.5 30.5q-18 20 -32 52.5t-14 85.5q0 29 5 61.5t15.5 65t27 62t39.5 52.5q47 47 111 47q49 0 83 -32q15 -15 24 -33t13.5 -36t5.5 -35t1 -30q0 -5 -1.5 -29t-7.5 -59h-195q-3 -14 -4.5 -29.5
t-1.5 -27.5q0 -11 2 -26t10 -23q4 -4 10 -7t16 -3q22 0 35 22q5 8 8 22t5 25h104zM241 278q1 6 1.5 12t0.5 12q0 25 -8 40q-5 8 -11 13t-17 5q-6 0 -14 -3t-16 -11q-5 -6 -9.5 -14.5t-7.5 -18.5t-5 -19t-3 -16h89zM380 590q0 -15 -6 -28.5t-16.5 -23t-24 -15.5t-28.5 -6
q-25 0 -40.5 17t-15.5 41q0 15 6 28t16 23.5t23 16.5t28 6q25 0 41.5 -17t16.5 -42zM207 590q0 -15 -6 -28t-16.5 -23t-23.5 -16t-28 -6q-25 0 -41 16.5t-16 41.5q0 15 6 28t16 23.5t23 16.5t28 6q25 0 41.5 -17t16.5 -42z" />
    <glyph glyph-name="igrave" unicode="&#xec;" horiz-adv-x="203" 
d="M135 0h-124l55 447h124zM123 517l-97 122l94 42l68 -128z" />
    <glyph glyph-name="iacute" unicode="&#xed;" horiz-adv-x="203" 
d="M135 0h-124l55 447h124zM141 517l-56 36l100 128l83 -42z" />
    <glyph glyph-name="icircumflex" unicode="&#xee;" horiz-adv-x="203" 
d="M135 0h-124l55 447h124zM209 517l-66 62l-84 -62l-41 62l137 100l114 -107z" />
    <glyph glyph-name="idieresis" unicode="&#xef;" horiz-adv-x="203" 
d="M135 0h-124l55 447h124zM293 590q0 -15 -6 -28.5t-16.5 -23t-24 -15.5t-28.5 -6q-25 0 -40.5 17t-15.5 41q0 15 6 28t16 23.5t23 16.5t28 6q25 0 41.5 -17t16.5 -42zM120 590q0 -15 -6 -28t-16.5 -23t-23.5 -16t-28 -6q-25 0 -41 16.5t-16 41.5q0 15 6 28t16 23.5
t23 16.5t28 6q25 0 41.5 -17t16.5 -42z" />
    <glyph glyph-name="eth" unicode="&#xf0;" horiz-adv-x="386" 
d="M290 611q21 -28 35.5 -63.5t23.5 -74.5t13 -78t4 -73q0 -48 -7.5 -105.5t-29 -108t-60 -84t-101.5 -33.5q-42 0 -70 15t-44.5 40.5t-23.5 59t-7 70.5q0 45 11.5 94t32.5 89q9 18 22.5 34.5t30.5 29t36.5 20.5t40.5 8q15 0 26.5 -5.5t22.5 -14.5q-4 40 -13 67t-28 57
l-81 -52l-45 63l79 52q-19 20 -34.5 29.5t-40.5 19.5l56 73q27 -14 51.5 -31t47.5 -37l83 54l49 -61zM238 274q0 7 -0.5 18.5t-3.5 22.5t-9 19.5t-16 8.5q-19 0 -31 -21.5t-19 -50t-9.5 -56.5t-2.5 -41q0 -8 1 -20t4 -23.5t9.5 -19.5t18.5 -8q18 0 29 22t17.5 51.5t9 57.5
t2.5 40z" />
    <glyph glyph-name="ntilde" unicode="&#xf1;" horiz-adv-x="388" 
d="M181 377q20 32 47 55t68 23q38 0 53 -24t15 -58q0 -19 -2.5 -37t-4.5 -37l-36 -299h-124l32 255q3 22 3 46q0 11 -5 20t-18 9q-14 0 -22 -8t-12.5 -19.5t-6 -24.5t-2.5 -23l-31 -255h-124l55 447h124zM385 635q-5 -20 -12.5 -40.5t-18.5 -38t-28 -28.5t-41 -11
q-15 0 -28.5 5t-26.5 10.5t-24.5 10.5t-22.5 5q-13 0 -20 -8.5t-11 -19.5h-64q4 20 10.5 41t17.5 38t27.5 28t41.5 11q16 0 29 -5.5t24.5 -11.5t23 -11.5t24.5 -5.5q18 0 23.5 10.5t11.5 24.5z" />
    <glyph glyph-name="ograve" unicode="&#xf2;" horiz-adv-x="386" 
d="M363 289q0 -47 -9 -99.5t-31.5 -96.5t-61 -73t-96.5 -29q-42 0 -69 15.5t-43.5 41.5t-23 59.5t-6.5 69.5q0 45 11 94t35 90t62 67.5t91 26.5q37 0 63.5 -13.5t44 -36t25.5 -52.5t8 -64zM237 277q0 7 -0.5 18.5t-3.5 22t-9 18t-16 7.5q-18 0 -30 -21t-18.5 -49.5
t-9.5 -56.5t-3 -41q0 -8 1 -20t4 -23.5t9 -20t17 -8.5q18 0 29.5 22t18 51.5t9 58t2.5 42.5zM232 517l-97 122l94 42l68 -128z" />
    <glyph glyph-name="oacute" unicode="&#xf3;" horiz-adv-x="386" 
d="M363 289q0 -47 -9 -99.5t-31.5 -96.5t-61 -73t-96.5 -29q-42 0 -69 15.5t-43.5 41.5t-23 59.5t-6.5 69.5q0 45 11 94t35 90t62 67.5t91 26.5q37 0 63.5 -13.5t44 -36t25.5 -52.5t8 -64zM237 277q0 7 -0.5 18.5t-3.5 22t-9 18t-16 7.5q-18 0 -30 -21t-18.5 -49.5
t-9.5 -56.5t-3 -41q0 -8 1 -20t4 -23.5t9 -20t17 -8.5q18 0 29.5 22t18 51.5t9 58t2.5 42.5zM235 517l-56 36l100 128l83 -42z" />
    <glyph glyph-name="ocircumflex" unicode="&#xf4;" horiz-adv-x="386" 
d="M363 289q0 -47 -9 -99.5t-31.5 -96.5t-61 -73t-96.5 -29q-42 0 -69 15.5t-43.5 41.5t-23 59.5t-6.5 69.5q0 45 11 94t35 90t62 67.5t91 26.5q37 0 63.5 -13.5t44 -36t25.5 -52.5t8 -64zM237 277q0 7 -0.5 18.5t-3.5 22t-9 18t-16 7.5q-18 0 -30 -21t-18.5 -49.5
t-9.5 -56.5t-3 -41q0 -8 1 -20t4 -23.5t9 -20t17 -8.5q18 0 29.5 22t18 51.5t9 58t2.5 42.5zM296 517l-66 62l-84 -62l-41 62l137 100l114 -107z" />
    <glyph glyph-name="otilde" unicode="&#xf5;" horiz-adv-x="386" 
d="M363 289q0 -47 -9 -99.5t-31.5 -96.5t-61 -73t-96.5 -29q-42 0 -69 15.5t-43.5 41.5t-23 59.5t-6.5 69.5q0 45 11 94t35 90t62 67.5t91 26.5q37 0 63.5 -13.5t44 -36t25.5 -52.5t8 -64zM237 277q0 7 -0.5 18.5t-3.5 22t-9 18t-16 7.5q-18 0 -30 -21t-18.5 -49.5
t-9.5 -56.5t-3 -41q0 -8 1 -20t4 -23.5t9 -20t17 -8.5q18 0 29.5 22t18 51.5t9 58t2.5 42.5zM379 635q-5 -20 -12.5 -40.5t-18.5 -38t-28 -28.5t-41 -11q-15 0 -28.5 5t-26.5 10.5t-24.5 10.5t-22.5 5q-13 0 -20 -8.5t-11 -19.5h-64q4 20 10.5 41t17.5 38t27.5 28t41.5 11
q16 0 29 -5.5t24.5 -11.5t23 -11.5t24.5 -5.5q18 0 23.5 10.5t11.5 24.5z" />
    <glyph glyph-name="odieresis" unicode="&#xf6;" horiz-adv-x="386" 
d="M363 289q0 -47 -9 -99.5t-31.5 -96.5t-61 -73t-96.5 -29q-42 0 -69 15.5t-43.5 41.5t-23 59.5t-6.5 69.5q0 45 11 94t35 90t62 67.5t91 26.5q37 0 63.5 -13.5t44 -36t25.5 -52.5t8 -64zM237 277q0 7 -0.5 18.5t-3.5 22t-9 18t-16 7.5q-18 0 -30 -21t-18.5 -49.5
t-9.5 -56.5t-3 -41q0 -8 1 -20t4 -23.5t9 -20t17 -8.5q18 0 29.5 22t18 51.5t9 58t2.5 42.5zM389 590q0 -15 -6 -28.5t-16.5 -23t-24 -15.5t-28.5 -6q-25 0 -40.5 17t-15.5 41q0 15 6 28t16 23.5t23 16.5t28 6q25 0 41.5 -17t16.5 -42zM216 590q0 -15 -6 -28t-16.5 -23
t-23.5 -16t-28 -6q-25 0 -41 16.5t-16 41.5q0 15 6 28t16 23.5t23 16.5t28 6q25 0 41.5 -17t16.5 -42z" />
    <glyph glyph-name="divide" unicode="&#xf7;" 
d="M335 510q0 -29 -21 -50t-50 -21t-50.5 20.5t-21.5 50.5q0 29 20.5 50.5t50.5 21.5t51 -21t21 -51zM47 282v114h433v-114h-433zM335 167q0 -29 -21 -50t-50 -21q-30 0 -51 21t-21 51q0 29 21 50t50 21q30 0 51 -21t21 -51z" />
    <glyph glyph-name="oslash" unicode="&#xf8;" horiz-adv-x="387" 
d="M342 390q12 -29 17 -54.5t5 -57.5q0 -46 -10.5 -96.5t-33.5 -93t-61.5 -70t-93.5 -27.5q-28 0 -48.5 7.5t-42.5 24.5l-28 -39l-42 30l39 53q-11 26 -15.5 54t-4.5 57q0 45 11 94.5t35 91.5t61.5 69t91.5 27q24 0 47 -6.5t42 -22.5l28 38l41 -28zM238 270q0 8 -0.5 20.5
t-3.5 24.5t-9 20.5t-18 8.5q-18 0 -29.5 -21.5t-18.5 -50t-9.5 -56.5t-2.5 -41q0 -8 1 -20.5t4 -24t9.5 -19.5t18.5 -8q17 0 28.5 21.5t18 49.5t9 55.5t2.5 40.5z" />
    <glyph glyph-name="ugrave" unicode="&#xf9;" horiz-adv-x="387" 
d="M338 151q-3 -28 -9 -48t-23 -43q-25 -33 -63.5 -51t-79.5 -18q-27 0 -52 8t-43.5 23.5t-29.5 38t-11 51.5q0 14 1.5 28t3.5 28l34 279h124l-32 -256q-2 -13 -3 -25.5t-1 -25.5t5 -23t20 -10q13 0 21 9.5t11.5 23t5 28t2.5 23.5l32 256h123zM226 517l-97 122l94 42
l68 -128z" />
    <glyph glyph-name="uacute" unicode="&#xfa;" horiz-adv-x="387" 
d="M338 151q-3 -28 -9 -48t-23 -43q-25 -33 -63.5 -51t-79.5 -18q-27 0 -52 8t-43.5 23.5t-29.5 38t-11 51.5q0 14 1.5 28t3.5 28l34 279h124l-32 -256q-2 -13 -3 -25.5t-1 -25.5t5 -23t20 -10q13 0 21 9.5t11.5 23t5 28t2.5 23.5l32 256h123zM233 517l-56 36l100 128
l83 -42z" />
    <glyph glyph-name="ucircumflex" unicode="&#xfb;" horiz-adv-x="387" 
d="M338 151q-3 -28 -9 -48t-23 -43q-25 -33 -63.5 -51t-79.5 -18q-27 0 -52 8t-43.5 23.5t-29.5 38t-11 51.5q0 14 1.5 28t3.5 28l34 279h124l-32 -256q-2 -13 -3 -25.5t-1 -25.5t5 -23t20 -10q13 0 21 9.5t11.5 23t5 28t2.5 23.5l32 256h123zM302 517l-66 62l-84 -62
l-41 62l137 100l114 -107z" />
    <glyph glyph-name="udieresis" unicode="&#xfc;" horiz-adv-x="387" 
d="M338 151q-3 -28 -9 -48t-23 -43q-25 -33 -63.5 -51t-79.5 -18q-27 0 -52 8t-43.5 23.5t-29.5 38t-11 51.5q0 14 1.5 28t3.5 28l34 279h124l-32 -256q-2 -13 -3 -25.5t-1 -25.5t5 -23t20 -10q13 0 21 9.5t11.5 23t5 28t2.5 23.5l32 256h123zM380 590q0 -15 -6 -28.5
t-16.5 -23t-24 -15.5t-28.5 -6q-25 0 -40.5 17t-15.5 41q0 15 6 28t16 23.5t23 16.5t28 6q25 0 41.5 -17t16.5 -42zM207 590q0 -15 -6 -28t-16.5 -23t-23.5 -16t-28 -6q-25 0 -41 16.5t-16 41.5q0 15 6 28t16 23.5t23 16.5t28 6q25 0 41.5 -17t16.5 -42z" />
    <glyph glyph-name="yacute" unicode="&#xfd;" horiz-adv-x="359" 
d="M123 -206h-120l93 215l-74 438h123l22 -163q3 -23 5.5 -46t3.5 -46l89 255h124zM230 517l-56 36l100 128l83 -42z" />
    <glyph glyph-name="thorn" unicode="&#xfe;" horiz-adv-x="390" 
d="M183 392q15 27 37 45.5t54 18.5q30 0 48.5 -16.5t28 -40.5t13 -52t3.5 -51q0 -29 -2.5 -58t-8.5 -58q-5 -24 -15.5 -57t-28 -62t-41.5 -49.5t-55 -20.5t-47.5 16.5t-27.5 43.5l-33 -257h-123l117 935h123zM241 273q0 8 -1 20t-4 23.5t-9.5 19.5t-18.5 8q-18 0 -29 -22
t-17.5 -51t-9 -57.5t-2.5 -40.5q0 -7 0.5 -18.5t3.5 -23t8.5 -20t16.5 -8.5q19 0 31 21.5t19 50t9.5 57t2.5 41.5z" />
    <glyph glyph-name="ydieresis" unicode="&#xff;" horiz-adv-x="359" 
d="M123 -206h-120l93 215l-74 438h123l22 -163q3 -23 5.5 -46t3.5 -46l89 255h124zM377 590q0 -15 -6 -28.5t-16.5 -23t-24 -15.5t-28.5 -6q-25 0 -40.5 17t-15.5 41q0 15 6 28t16 23.5t23 16.5t28 6q25 0 41.5 -17t16.5 -42zM204 590q0 -15 -6 -28t-16.5 -23t-23.5 -16
t-28 -6q-25 0 -41 16.5t-16 41.5q0 15 6 28t16 23.5t23 16.5t28 6q25 0 41.5 -17t16.5 -42z" />
    <glyph glyph-name="Amacron" unicode="&#x100;" horiz-adv-x="453" 
d="M284 0l-11 112h-131l-37 -112h-130l235 667h137l75 -667h-138zM266 215q-5 70 -10.5 139.5t-2.5 140.5q-5 -26 -10.5 -51.5t-12.5 -51.5q-11 -45 -26 -88.5t-29 -88.5h91zM418 738h-282l10 80h282z" />
    <glyph glyph-name="amacron" unicode="&#x101;" horiz-adv-x="390" 
d="M323 0h-124l6 51q-15 -23 -36.5 -41.5t-51.5 -18.5q-31 0 -49.5 17t-28.5 42.5t-13.5 54.5t-3.5 52q0 29 2.5 57.5t8.5 57.5q5 26 15.5 58t27.5 59.5t41 46.5t56 19q30 0 48 -18t26 -45l7 55h123zM238 276q0 7 -0.5 18.5t-3.5 22t-9 18.5t-16 8q-19 0 -31 -21t-19 -49.5
t-9.5 -56.5t-2.5 -41q0 -8 1 -20t4 -23.5t9.5 -20t17.5 -8.5q18 0 29.5 22t18 51t9 57.5t2.5 42.5zM373 531h-282l10 80h282z" />
    <glyph glyph-name="Abreve" unicode="&#x102;" horiz-adv-x="453" 
d="M284 0l-11 112h-131l-37 -112h-130l235 667h137l75 -667h-138zM266 215q-5 70 -10.5 139.5t-2.5 140.5q-5 -26 -10.5 -51.5t-12.5 -51.5q-11 -45 -26 -88.5t-29 -88.5h91zM428 838q-5 -30 -18 -50.5t-25 -32.5q-23 -22 -47.5 -29.5t-54.5 -7.5q-21 0 -43.5 5.5
t-40.5 24.5q-14 14 -22.5 37.5t-8.5 52.5h66q2 -18 13 -29q10 -9 23 -11t21 -2q12 0 27 2.5t25 10.5q12 9 19 29h66z" />
    <glyph glyph-name="abreve" unicode="&#x103;" horiz-adv-x="390" 
d="M323 0h-124l6 51q-15 -23 -36.5 -41.5t-51.5 -18.5q-31 0 -49.5 17t-28.5 42.5t-13.5 54.5t-3.5 52q0 29 2.5 57.5t8.5 57.5q5 26 15.5 58t27.5 59.5t41 46.5t56 19q30 0 48 -18t26 -45l7 55h123zM238 276q0 7 -0.5 18.5t-3.5 22t-9 18.5t-16 8q-19 0 -31 -21t-19 -49.5
t-9.5 -56.5t-2.5 -41q0 -8 1 -20t4 -23.5t9.5 -20t17.5 -8.5q18 0 29.5 22t18 51t9 57.5t2.5 42.5zM376 637q-5 -30 -18 -50.5t-25 -32.5q-23 -22 -47.5 -29.5t-54.5 -7.5q-21 0 -43.5 5.5t-40.5 24.5q-14 14 -22.5 37.5t-8.5 52.5h66q2 -18 13 -29q10 -9 23 -11t21 -2
q12 0 27 2.5t25 10.5q12 9 19 29h66z" />
    <glyph glyph-name="Aogonek" unicode="&#x104;" horiz-adv-x="453" 
d="M347 667l75 -667h-75q-8 -7 -15 -14t-13 -15t-11 -17.5t-5 -20.5q0 -8 2.5 -12.5t4.5 -6.5q7 -9 25 -9q20 0 35 10l-24 -75q-12 -6 -24 -8t-27 -2q-11 0 -27.5 3t-30.5 17q-11 11 -14.5 24t-3.5 24q0 17 5 33t18 32q16 19 42 37l-11 112h-131l-37 -112h-130l235 667h137z
M266 215l-4 49q-5 54 -7 108.5t-2 122.5q-5 -21 -11.5 -51.5t-11.5 -51.5q-10 -40 -19.5 -69.5t-20.5 -61.5l-15 -46h91z" />
    <glyph glyph-name="aogonek" unicode="&#x105;" horiz-adv-x="390" 
d="M323 0h-30q-16 -14 -29 -32q-16 -22 -16 -38q0 -14 9 -21q10 -8 24 -8q19 0 34 10l-23 -71q-21 -10 -47 -10q-22 0 -36 6t-22 14t-13.5 19.5t-5.5 28.5q0 19 6 33t17 28q9 11 21 22t24 19h-37l6 51q-38 -60 -88 -60q-20 0 -33.5 7t-23.5 17q-13 13 -20.5 33t-11.5 40.5
t-5 39t-1 29.5q0 32 4 71.5t14 74.5q8 32 24 66t39 56q17 17 35 23.5t35 6.5q19 0 32.5 -7.5t22 -17.5t13 -21t6.5 -17l7 55h123zM147 175q0 -16 2.5 -33.5t9.5 -27.5q7 -11 20 -11t22 11q8 8 15 23.5t12 43.5q4 20 7 47t3 50q0 24 -3 35.5t-6 16.5q-7 13 -20 13
q-12 0 -22 -10q-11 -11 -18.5 -31.5t-11.5 -38.5q-5 -20 -7.5 -45t-2.5 -43z" />
    <glyph glyph-name="Cacute" unicode="&#x106;" horiz-adv-x="418" 
d="M348 17q-21 -11 -45.5 -17.5t-55.5 -6.5q-38 0 -71 12t-62 41q-32 32 -50 85t-18 121q0 44 7.5 93t23 96t40 89.5t58.5 74.5q35 33 78.5 51t100.5 18q23 0 42.5 -4t41.5 -15l-19 -139q-20 21 -40.5 26.5t-32.5 5.5q-23 0 -43 -10t-37 -26q-20 -20 -35 -50.5t-25 -65
t-15 -70t-5 -64.5q0 -8 1 -21t4 -28.5t8.5 -31t15.5 -28.5q16 -20 34.5 -26.5t32.5 -6.5q19 0 41.5 7.5t43.5 27.5zM431 875l81 -50l-114 -114l-61 36z" />
    <glyph glyph-name="cacute" unicode="&#x107;" horiz-adv-x="277" 
d="M270 333q-12 15 -33 15q-26 0 -42.5 -16.5t-27 -40t-14.5 -50t-4 -46.5q0 -15 2 -30t8 -28t17 -21t29 -8q11 0 20.5 3.5t18.5 9.5l-14 -114q-20 -8 -35.5 -12t-36.5 -4q-38 0 -64 16t-42 42t-23 58t-7 65q0 57 18 117.5t55 105.5q26 32 56.5 46.5t71.5 14.5
q19 0 31.5 -2.5t29.5 -10.5zM239 517l-56 36l100 128l83 -42z" />
    <glyph glyph-name="Ccircumflex" unicode="&#x108;" horiz-adv-x="418" 
d="M348 17q-21 -11 -45.5 -17.5t-55.5 -6.5q-38 0 -71 12t-62 41q-32 32 -50 85t-18 121q0 44 7.5 93t23 96t40 89.5t58.5 74.5q35 33 78.5 51t100.5 18q23 0 42.5 -4t41.5 -15l-19 -139q-20 21 -40.5 26.5t-32.5 5.5q-23 0 -43 -10t-37 -26q-20 -20 -35 -50.5t-25 -65
t-15 -70t-5 -64.5q0 -8 1 -21t4 -28.5t8.5 -31t15.5 -28.5q16 -20 34.5 -26.5t32.5 -6.5q19 0 41.5 7.5t43.5 27.5zM448 724l-66 62l-84 -62l-41 62l137 100l114 -107z" />
    <glyph glyph-name="ccircumflex" unicode="&#x109;" horiz-adv-x="277" 
d="M270 333q-12 15 -33 15q-26 0 -42.5 -16.5t-27 -40t-14.5 -50t-4 -46.5q0 -15 2 -30t8 -28t17 -21t29 -8q11 0 20.5 3.5t18.5 9.5l-14 -114q-20 -8 -35.5 -12t-36.5 -4q-38 0 -64 16t-42 42t-23 58t-7 65q0 57 18 117.5t55 105.5q26 32 56.5 46.5t71.5 14.5
q19 0 31.5 -2.5t29.5 -10.5zM298 517l-66 62l-84 -62l-41 62l137 100l114 -107z" />
    <glyph glyph-name="Cdotaccent" unicode="&#x10a;" horiz-adv-x="418" 
d="M348 17q-21 -11 -45.5 -17.5t-55.5 -6.5q-38 0 -71 12t-62 41q-32 32 -50 85t-18 121q0 44 7.5 93t23 96t40 89.5t58.5 74.5q35 33 78.5 51t100.5 18q23 0 42.5 -4t41.5 -15l-19 -139q-20 21 -40.5 26.5t-32.5 5.5q-23 0 -43 -10t-37 -26q-20 -20 -35 -50.5t-25 -65
t-15 -70t-5 -64.5q0 -8 1 -21t4 -28.5t8.5 -31t15.5 -28.5q16 -20 34.5 -26.5t32.5 -6.5q19 0 41.5 7.5t43.5 27.5zM429 798q0 -15 -6 -28.5t-16.5 -23.5t-24 -16t-28.5 -6q-25 0 -41 16.5t-16 41.5q0 15 6 28.5t16 24t23.5 16.5t28.5 6q25 0 41.5 -17t16.5 -42z" />
    <glyph glyph-name="cdotaccent" unicode="&#x10b;" horiz-adv-x="277" 
d="M270 333q-12 15 -33 15q-26 0 -42.5 -16.5t-27 -40t-14.5 -50t-4 -46.5q0 -15 2 -30t8 -28t17 -21t29 -8q11 0 20.5 3.5t18.5 9.5l-14 -114q-20 -8 -35.5 -12t-36.5 -4q-38 0 -64 16t-42 42t-23 58t-7 65q0 57 18 117.5t55 105.5q26 32 56.5 46.5t71.5 14.5
q19 0 31.5 -2.5t29.5 -10.5zM298 591q0 -15 -6 -28.5t-16.5 -23.5t-24 -16t-28.5 -6q-25 0 -41 16.5t-16 41.5q0 15 6 28.5t16 24t23.5 16.5t28.5 6q25 0 41.5 -17t16.5 -42z" />
    <glyph glyph-name="Ccaron" unicode="&#x10c;" horiz-adv-x="418" 
d="M348 17q-21 -11 -45.5 -17.5t-55.5 -6.5q-38 0 -71 12t-62 41q-32 32 -50 85t-18 121q0 44 7.5 93t23 96t40 89.5t58.5 74.5q35 33 78.5 51t100.5 18q23 0 42.5 -4t41.5 -15l-19 -139q-20 21 -40.5 26.5t-32.5 5.5q-23 0 -43 -10t-37 -26q-20 -20 -35 -50.5t-25 -65
t-15 -70t-5 -64.5q0 -8 1 -21t4 -28.5t8.5 -31t15.5 -28.5q16 -20 34.5 -26.5t32.5 -6.5q19 0 41.5 7.5t43.5 27.5zM377 724l-114 107l60 55l66 -62l84 62l41 -62z" />
    <glyph glyph-name="ccaron" unicode="&#x10d;" horiz-adv-x="277" 
d="M270 333q-12 15 -33 15q-26 0 -42.5 -16.5t-27 -40t-14.5 -50t-4 -46.5q0 -15 2 -30t8 -28t17 -21t29 -8q11 0 20.5 3.5t18.5 9.5l-14 -114q-20 -8 -35.5 -12t-36.5 -4q-38 0 -64 16t-42 42t-23 58t-7 65q0 57 18 117.5t55 105.5q26 32 56.5 46.5t71.5 14.5
q19 0 31.5 -2.5t29.5 -10.5zM227 517l-114 107l60 55l66 -62l84 62l41 -62z" />
    <glyph glyph-name="Dcaron" unicode="&#x10e;" horiz-adv-x="481" 
d="M214 667q35 0 66.5 -3.5t63.5 -19.5q34 -17 57 -43.5t36.5 -58.5t19 -68t5.5 -71q0 -42 -6 -86.5t-19.5 -87.5t-35 -82.5t-51.5 -70.5q-41 -42 -92 -59t-108 -17h-127l82 667h109zM176 122q43 0 72.5 27.5t47.5 68t26 85.5t8 79q0 28 -4 57t-16 53t-33.5 40t-55.5 18
l-53 -428h8zM267 724l-114 107l60 55l66 -62l84 62l41 -62z" />
    <glyph glyph-name="dcaron" unicode="&#x10f;" horiz-adv-x="581" 
d="M323 0h-124l6 51q-15 -23 -36.5 -41.5t-51.5 -18.5q-31 0 -49.5 17t-28.5 42.5t-13.5 54.5t-3.5 52q0 29 2.5 57.5t8.5 57.5q5 26 15.5 58t27.5 59.5t41 46.5t56 19q30 0 48 -18t26 -45l44 337h123zM238 276q0 7 -0.5 18.5t-3.5 22t-9 18.5t-16 8q-19 0 -31 -21
t-19 -49.5t-9.5 -56.5t-2.5 -41q0 -8 1 -20t4 -23.5t9.5 -20t17.5 -8.5q18 0 29.5 22t18 51t9 57.5t2.5 42.5zM485 463h-70l70 204h103z" />
    <glyph glyph-name="Dcroat" unicode="&#x110;" horiz-adv-x="481" 
d="M215 667q35 0 66 -3.5t63 -19.5q34 -17 57 -43.5t36.5 -58.5t19 -68t5.5 -71q0 -42 -6 -86.5t-19.5 -87.5t-34.5 -82.5t-51 -70.5q-41 -42 -92.5 -59t-108.5 -17h-126l36 293h-47l12 100h47l34 274h109zM169 121q32 1 54.5 12t42.5 36q17 21 29 47t20 54t11.5 56.5
t3.5 54.5q0 18 -2 38.5t-7 40t-14 37t-23 30.5q-15 14 -29 17.5t-34 5.5l-19 -157h73l-12 -100h-73z" />
    <glyph glyph-name="dcroat" unicode="&#x111;" horiz-adv-x="427" 
d="M262 507h-109l10 88h109l18 134h123l-17 -134h50l-10 -88h-50l-63 -507h-124l6 51q-15 -23 -36.5 -41.5t-51.5 -18.5q-31 0 -49.5 17t-28.5 42.5t-13.5 54.5t-3.5 52q0 29 2.5 57.5t8.5 57.5q5 26 15 55t26.5 53t40.5 39.5t56 15.5q30 0 48 -18t27 -45zM237 256
q0 7 -0.5 18.5t-3.5 22t-9 18.5t-16 8q-19 0 -31 -18t-18.5 -42.5t-9 -49.5t-2.5 -38q0 -8 1 -20t4 -23.5t9.5 -20t17.5 -8.5q18 0 29.5 19t18 44t8.5 50.5t2 39.5z" />
    <glyph glyph-name="Emacron" unicode="&#x112;" horiz-adv-x="350" 
d="M351 543h-131l-18 -144h116l-16 -126h-115l-19 -150h133l-15 -123h-263l82 667h261zM378 738h-282l10 80h282z" />
    <glyph glyph-name="emacron" unicode="&#x113;" horiz-adv-x="367" 
d="M326 154q-4 -32 -19 -67t-40 -58t-52.5 -30.5t-50.5 -7.5q-26 0 -50.5 7.5t-46.5 30.5q-18 20 -32 52.5t-14 85.5q0 29 5 61.5t15.5 65t27 62t39.5 52.5q47 47 111 47q49 0 83 -32q15 -15 24 -33t13.5 -36t5.5 -35t1 -30q0 -5 -1.5 -29t-7.5 -59h-195q-3 -14 -4.5 -29.5
t-1.5 -27.5q0 -11 2 -26t10 -23q4 -4 10 -7t16 -3q22 0 35 22q5 8 8 22t5 25h104zM241 278q1 6 1.5 12t0.5 12q0 25 -8 40q-5 8 -11 13t-17 5q-6 0 -14 -3t-16 -11q-5 -6 -9.5 -14.5t-7.5 -18.5t-5 -19t-3 -16h89zM362 531h-282l10 80h282z" />
    <glyph glyph-name="Edotaccent" unicode="&#x116;" horiz-adv-x="350" 
d="M351 543h-131l-18 -144h116l-16 -126h-115l-19 -150h133l-15 -123h-263l82 667h261zM315 798q0 -15 -6 -28.5t-16.5 -23.5t-24 -16t-28.5 -6q-25 0 -41 16.5t-16 41.5q0 15 6 28.5t16 24t23.5 16.5t28.5 6q25 0 41.5 -17t16.5 -42z" />
    <glyph glyph-name="edotaccent" unicode="&#x117;" horiz-adv-x="367" 
d="M326 154q-4 -32 -19 -67t-40 -58t-52.5 -30.5t-50.5 -7.5q-26 0 -50.5 7.5t-46.5 30.5q-18 20 -32 52.5t-14 85.5q0 29 5 61.5t15.5 65t27 62t39.5 52.5q47 47 111 47q49 0 83 -32q15 -15 24 -33t13.5 -36t5.5 -35t1 -30q0 -5 -1.5 -29t-7.5 -59h-195q-3 -14 -4.5 -29.5
t-1.5 -27.5q0 -11 2 -26t10 -23q4 -4 10 -7t16 -3q22 0 35 22q5 8 8 22t5 25h104zM241 278q1 6 1.5 12t0.5 12q0 25 -8 40q-5 8 -11 13t-17 5q-6 0 -14 -3t-16 -11q-5 -6 -9.5 -14.5t-7.5 -18.5t-5 -19t-3 -16h89zM304 591q0 -15 -6 -28.5t-16.5 -23.5t-24 -16t-28.5 -6
q-25 0 -41 16.5t-16 41.5q0 15 6 28.5t16 24t23.5 16.5t28.5 6q25 0 41.5 -17t16.5 -42z" />
    <glyph glyph-name="Eogonek" unicode="&#x118;" horiz-adv-x="350" 
d="M351 543h-131l-18 -144h116l-16 -126h-115l-19 -150h133l-15 -123h-36q-8 -7 -15 -14t-13 -15t-11 -17.5t-5 -20.5q0 -8 2.5 -12.5t4.5 -6.5q7 -9 25 -9q20 0 35 10l-24 -75q-21 -10 -47 -10q-14 0 -31.5 3.5t-30.5 16.5q-11 11 -14.5 24t-3.5 24q0 17 5 33t18 32
q16 19 42 37h-164l82 667h261z" />
    <glyph glyph-name="eogonek" unicode="&#x119;" horiz-adv-x="367" 
d="M323 138q-8 -44 -31 -81q-17 -28 -37.5 -46.5t-35.5 -38.5q-11 -14 -15 -24t-4 -18q0 -14 9 -21q10 -8 25 -8q18 0 33 10l-23 -71q-10 -5 -20 -7.5t-23 -2.5q-24 0 -39 6t-23 14t-13.5 19.5t-5.5 26.5q0 46 54 94q-31 0 -59 9.5t-47 27.5q-25 24 -36 62t-11 80
q0 30 5 62.5t15.5 64t26.5 59.5t37 50q26 26 54 38t60 12q31 0 52.5 -10.5t34.5 -23.5q15 -15 23 -35.5t12 -39.5t4.5 -34t0.5 -21q0 -24 -3.5 -52t-8.5 -49h-195q-2 -10 -2.5 -21.5t-0.5 -20.5q0 -13 2 -29t10 -24q6 -7 13 -8.5t13 -1.5q15 0 25 9q9 8 14 20.5t6 23.5h104z
M240 267q3 13 3 32q0 16 -3 30t-11 22q-9 9 -22 9q-6 0 -14 -3t-16 -11q-12 -13 -18 -36t-8 -43h89z" />
    <glyph glyph-name="Ecaron" unicode="&#x11a;" horiz-adv-x="350" 
d="M351 543h-131l-18 -144h116l-16 -126h-115l-19 -150h133l-15 -123h-263l82 667h261zM252 724l-114 107l60 55l66 -62l84 62l41 -62z" />
    <glyph glyph-name="ecaron" unicode="&#x11b;" horiz-adv-x="367" 
d="M326 154q-4 -32 -19 -67t-40 -58t-52.5 -30.5t-50.5 -7.5q-26 0 -50.5 7.5t-46.5 30.5q-18 20 -32 52.5t-14 85.5q0 29 5 61.5t15.5 65t27 62t39.5 52.5q47 47 111 47q49 0 83 -32q15 -15 24 -33t13.5 -36t5.5 -35t1 -30q0 -5 -1.5 -29t-7.5 -59h-195q-3 -14 -4.5 -29.5
t-1.5 -27.5q0 -11 2 -26t10 -23q4 -4 10 -7t16 -3q22 0 35 22q5 8 8 22t5 25h104zM241 278q1 6 1.5 12t0.5 12q0 25 -8 40q-5 8 -11 13t-17 5q-6 0 -14 -3t-16 -11q-5 -6 -9.5 -14.5t-7.5 -18.5t-5 -19t-3 -16h89zM227 517l-114 107l60 55l66 -62l84 62l41 -62z" />
    <glyph glyph-name="Gcircumflex" unicode="&#x11c;" horiz-adv-x="517" 
d="M366 469q0 15 -1.5 31t-7.5 29.5t-17 22.5t-30 9q-26 0 -45.5 -18.5t-34 -47.5t-23.5 -65t-14.5 -71.5t-8 -66t-2.5 -49.5t2 -42.5t10 -43.5t23 -34t41 -14t43.5 15t28.5 37t16.5 47t8.5 45h-83l14 118h212q-5 -49 -12 -97t-23 -95q-12 -38 -32.5 -72t-48.5 -60.5
t-63.5 -42t-77.5 -15.5q-55 0 -92.5 23.5t-61 61t-33.5 84t-10 93.5q0 45 5.5 89t16.5 87q12 46 34 91t54.5 80t74.5 57t95 22q75 0 119 -43t56 -115zM398 724l-66 62l-84 -62l-41 62l137 100l114 -107z" />
    <glyph glyph-name="gcircumflex" unicode="&#x11d;" horiz-adv-x="394" 
d="M322 -23q-3 -25 -7 -46t-16 -44q-26 -48 -71 -70.5t-98 -22.5q-66 0 -101 35t-35 101v12.5t1 6.5h108q0 -8 1 -17.5t4.5 -17.5t11.5 -13.5t22 -5.5q17 0 28 12t17.5 29t9.5 35.5t5 32.5l8 52q-17 -24 -38 -44.5t-53 -20.5q-30 0 -49.5 17.5t-30.5 43t-15 54.5t-4 52
q0 33 7 83.5t24 98t46 81.5t73 34q32 0 50.5 -17t30.5 -45l7 54h123zM238 275q0 7 -0.5 19t-3.5 22.5t-9 18.5t-17 8q-18 0 -30 -21t-19 -48.5t-10 -55.5t-3 -41q0 -8 1 -20t4.5 -23.5t10 -20t17.5 -8.5q18 0 29.5 21.5t18 50t9 56.5t2.5 42zM308 517l-66 62l-84 -62l-41 62
l137 100l114 -107z" />
    <glyph glyph-name="Gbreve" unicode="&#x11e;" horiz-adv-x="517" 
d="M366 469q0 15 -1.5 31t-7.5 29.5t-17 22.5t-30 9q-26 0 -45.5 -18.5t-34 -47.5t-23.5 -65t-14.5 -71.5t-8 -66t-2.5 -49.5t2 -42.5t10 -43.5t23 -34t41 -14t43.5 15t28.5 37t16.5 47t8.5 45h-83l14 118h212q-5 -49 -12 -97t-23 -95q-12 -38 -32.5 -72t-48.5 -60.5
t-63.5 -42t-77.5 -15.5q-55 0 -92.5 23.5t-61 61t-33.5 84t-10 93.5q0 45 5.5 89t16.5 87q12 46 34 91t54.5 80t74.5 57t95 22q75 0 119 -43t56 -115zM473 838q-5 -30 -18 -50.5t-25 -32.5q-23 -22 -47.5 -29.5t-54.5 -7.5q-21 0 -43.5 5.5t-40.5 24.5q-14 14 -22.5 37.5
t-8.5 52.5h66q2 -18 13 -29q10 -9 23 -11t21 -2q12 0 27 2.5t25 10.5q12 9 19 29h66z" />
    <glyph glyph-name="gbreve" unicode="&#x11f;" horiz-adv-x="394" 
d="M322 -23q-3 -25 -7 -46t-16 -44q-26 -48 -71 -70.5t-98 -22.5q-66 0 -101 35t-35 101v12.5t1 6.5h108q0 -8 1 -17.5t4.5 -17.5t11.5 -13.5t22 -5.5q17 0 28 12t17.5 29t9.5 35.5t5 32.5l8 52q-17 -24 -38 -44.5t-53 -20.5q-30 0 -49.5 17.5t-30.5 43t-15 54.5t-4 52
q0 33 7 83.5t24 98t46 81.5t73 34q32 0 50.5 -17t30.5 -45l7 54h123zM238 275q0 7 -0.5 19t-3.5 22.5t-9 18.5t-17 8q-18 0 -30 -21t-19 -48.5t-10 -55.5t-3 -41q0 -8 1 -20t4.5 -23.5t10 -20t17.5 -8.5q18 0 29.5 21.5t18 50t9 56.5t2.5 42zM371 637q-5 -30 -18 -50.5
t-25 -32.5q-23 -22 -47.5 -29.5t-54.5 -7.5q-21 0 -43.5 5.5t-40.5 24.5q-14 14 -22.5 37.5t-8.5 52.5h66q2 -18 13 -29q10 -9 23 -11t21 -2q12 0 27 2.5t25 10.5q12 9 19 29h66z" />
    <glyph glyph-name="Gdotaccent" unicode="&#x120;" horiz-adv-x="517" 
d="M366 469q0 15 -1.5 31t-7.5 29.5t-17 22.5t-30 9q-26 0 -45.5 -18.5t-34 -47.5t-23.5 -65t-14.5 -71.5t-8 -66t-2.5 -49.5t2 -42.5t10 -43.5t23 -34t41 -14t43.5 15t28.5 37t16.5 47t8.5 45h-83l14 118h212q-5 -49 -12 -97t-23 -95q-12 -38 -32.5 -72t-48.5 -60.5
t-63.5 -42t-77.5 -15.5q-55 0 -92.5 23.5t-61 61t-33.5 84t-10 93.5q0 45 5.5 89t16.5 87q12 46 34 91t54.5 80t74.5 57t95 22q75 0 119 -43t56 -115zM399 798q0 -15 -6 -28.5t-16.5 -23.5t-24 -16t-28.5 -6q-25 0 -41 16.5t-16 41.5q0 15 6 28.5t16 24t23.5 16.5t28.5 6
q25 0 41.5 -17t16.5 -42z" />
    <glyph glyph-name="gdotaccent" unicode="&#x121;" horiz-adv-x="394" 
d="M322 -23q-3 -25 -7 -46t-16 -44q-26 -48 -71 -70.5t-98 -22.5q-66 0 -101 35t-35 101v12.5t1 6.5h108q0 -8 1 -17.5t4.5 -17.5t11.5 -13.5t22 -5.5q17 0 28 12t17.5 29t9.5 35.5t5 32.5l8 52q-17 -24 -38 -44.5t-53 -20.5q-30 0 -49.5 17.5t-30.5 43t-15 54.5t-4 52
q0 33 7 83.5t24 98t46 81.5t73 34q32 0 50.5 -17t30.5 -45l7 54h123zM238 275q0 7 -0.5 19t-3.5 22.5t-9 18.5t-17 8q-18 0 -30 -21t-19 -48.5t-10 -55.5t-3 -41q0 -8 1 -20t4.5 -23.5t10 -20t17.5 -8.5q18 0 29.5 21.5t18 50t9 56.5t2.5 42zM306 591q0 -15 -6 -28.5
t-16.5 -23.5t-24 -16t-28.5 -6q-25 0 -41 16.5t-16 41.5q0 15 6 28.5t16 24t23.5 16.5t28.5 6q25 0 41.5 -17t16.5 -42z" />
    <glyph glyph-name="Gcommaaccent" unicode="&#x122;" horiz-adv-x="517" 
d="M366 469q0 15 -1.5 31t-7.5 29.5t-17 22.5t-30 9q-26 0 -45.5 -18.5t-34 -47.5t-23.5 -65t-14.5 -71.5t-8 -66t-2.5 -49.5t2 -42.5t10 -43.5t23 -34t41 -14t43.5 15t28.5 37t16.5 47t8.5 45h-83l14 118h212q-5 -49 -12 -97t-23 -95q-12 -38 -32.5 -72t-48.5 -60.5
t-63.5 -42t-77.5 -15.5q-55 0 -92.5 23.5t-61 61t-33.5 84t-10 93.5q0 45 5.5 89t16.5 87q12 46 34 91t54.5 80t74.5 57t95 22q75 0 119 -43t56 -115zM217 -214h-70l53 168h104z" />
    <glyph glyph-name="gcommaaccent" unicode="&#x123;" horiz-adv-x="394" 
d="M322 -23q-3 -25 -7 -46t-16 -44q-26 -48 -71 -70.5t-98 -22.5q-66 0 -101 35t-35 101v12.5t1 6.5h108q0 -8 1 -17.5t4.5 -17.5t11.5 -13.5t22 -5.5q17 0 28 12t17.5 29t9.5 35.5t5 32.5l8 52q-17 -24 -38 -44.5t-53 -20.5q-30 0 -49.5 17.5t-30.5 43t-15 54.5t-4 52
q0 33 7 83.5t24 98t46 81.5t73 34q32 0 50.5 -17t30.5 -45l7 54h123zM238 275q0 7 -0.5 19t-3.5 22.5t-9 18.5t-17 8q-18 0 -30 -21t-19 -48.5t-10 -55.5t-3 -41q0 -8 1 -20t4.5 -23.5t10 -20t17.5 -8.5q18 0 29.5 21.5t18 50t9 56.5t2.5 42zM239 677h70l-58 -182h-103z" />
    <glyph glyph-name="Hcircumflex" unicode="&#x124;" horiz-adv-x="494" 
d="M415 0h-130l36 295h-131l-37 -295h-130l82 667h130l-30 -247h131l30 247h130zM378 724l-66 62l-84 -62l-41 62l137 100l114 -107z" />
    <glyph glyph-name="hcircumflex" unicode="&#x125;" horiz-adv-x="388" 
d="M181 377q20 32 47 55t68 23q38 0 53 -24t15 -58q0 -19 -2.5 -37t-4.5 -37l-36 -299h-124l32 255q3 22 3 46q0 11 -5 20t-18 9q-14 0 -22 -8t-12.5 -19.5t-6 -24.5t-2.5 -23l-31 -255h-124l90 729h123zM238 747l-66 62l-84 -62l-41 62l137 100l114 -107z" />
    <glyph glyph-name="Hbar" unicode="&#x126;" horiz-adv-x="494" 
d="M216 517l-11 -97h132l11 97h-132zM285 0l36 295h-131l-37 -295h-130l63 517h-50l12 97h50l7 53h130l-7 -53h131l7 53h130l-6 -53h50l-12 -97h-50l-63 -517h-130z" />
    <glyph glyph-name="hbar" unicode="&#x127;" horiz-adv-x="395" 
d="M80 507h-55l10 88h55l17 134h124l-17 -134h108l-10 -88h-108l-18 -150q20 32 47 55t68 23q38 0 53 -24t15 -58q0 -19 -2.5 -37t-4.5 -37l-34 -279h-124l30 235q3 22 3 46q0 11 -5 20t-18 9q-14 0 -22 -8t-12.5 -19.5t-6 -24.5t-2.5 -23l-29 -235h-124z" />
    <glyph glyph-name="Imacron" unicode="&#x12a;" horiz-adv-x="232" 
d="M153 0h-130l82 667h130zM316 738h-282l10 80h282z" />
    <glyph glyph-name="imacron" unicode="&#x12b;" horiz-adv-x="203" 
d="M135 0h-124l55 447h124zM273 531h-282l10 80h282z" />
    <glyph glyph-name="Iogonek" unicode="&#x12e;" horiz-adv-x="232" 
d="M153 0q-8 -7 -15 -14t-13 -15t-11 -17.5t-5 -20.5q0 -8 2.5 -12.5t4.5 -6.5q7 -9 25 -9q20 0 35 10l-24 -75q-12 -6 -24 -8t-27 -2q-11 0 -27.5 3t-30.5 17q-11 11 -14.5 24t-3.5 24q0 17 5 33t18 32q16 19 42 37h-67l82 667h130z" />
    <glyph glyph-name="iogonek" unicode="&#x12f;" horiz-adv-x="203" 
d="M225 588q0 -18 -7.5 -34t-19.5 -28t-28 -19t-34 -7q-29 0 -48.5 20.5t-19.5 49.5q0 18 7.5 34t19.5 28t28 19t34 7q30 0 49 -20.5t19 -49.5zM131 -168q-5 -5 -16.5 -11t-31.5 -6q-15 0 -31.5 6t-27.5 18q-7 7 -12.5 18t-5.5 28q0 20 8 37t18 29q8 10 21.5 24.5t23.5 24.5
h-66l55 447h124l-55 -447q-16 -17 -21.5 -24t-7.5 -10q-14 -17 -17 -28.5t-3 -16.5q0 -14 10 -24q7 -7 14 -9t12 -2q17 0 32 17z" />
    <glyph glyph-name="Idotaccent" unicode="&#x130;" horiz-adv-x="232" 
d="M153 0h-130l82 667h130zM250 798q0 -15 -6 -28.5t-16.5 -23.5t-24 -16t-28.5 -6q-25 0 -41 16.5t-16 41.5q0 15 6 28.5t16 24t23.5 16.5t28.5 6q25 0 41.5 -17t16.5 -42z" />
    <glyph glyph-name="dotlessi" unicode="&#x131;" horiz-adv-x="203" 
d="M135 0h-124l55 447h124z" />
    <glyph glyph-name="Jcircumflex" unicode="&#x134;" horiz-adv-x="305" 
d="M251 205q-4 -29 -9.5 -59t-18.5 -57q-22 -47 -63.5 -73.5t-93.5 -26.5q-24 0 -47.5 5t-45.5 16l16 132q12 -17 27 -27t37 -10q21 0 33.5 9.5t19.5 24.5t10 32.5t5 33.5l57 462h130zM318 724l-66 62l-84 -62l-41 62l137 100l114 -107z" />
    <glyph glyph-name="jcircumflex" unicode="&#x135;" horiz-adv-x="201" 
d="M108 -206h-124l80 653h124zM204 517l-66 62l-84 -62l-41 62l137 100l114 -107z" />
    <glyph glyph-name="Kcommaaccent" unicode="&#x136;" horiz-adv-x="445" 
d="M314 356l93 -356h-133l-79 339l-42 -339h-130l82 667h130l-37 -298l147 298h132zM177 -214h-70l53 168h104z" />
    <glyph glyph-name="kcommaaccent" unicode="&#x137;" horiz-adv-x="383" 
d="M269 249l89 -249h-130l-64 233l-29 -233h-124l90 729h123l-55 -454l90 172h132zM137 -228h-70l58 182h103z" />
    <glyph glyph-name="Lacute" unicode="&#x139;" horiz-adv-x="324" 
d="M289 0h-266l82 667h130l-66 -542h136zM221 875l81 -50l-114 -114l-61 36z" />
    <glyph glyph-name="lacute" unicode="&#x13a;" horiz-adv-x="204" 
d="M135 0h-124l90 729h123zM169 747l-56 36l100 128l83 -42z" />
    <glyph glyph-name="Lcommaaccent" unicode="&#x13b;" horiz-adv-x="324" 
d="M289 0h-266l82 667h130l-66 -542h136zM127 -214h-70l53 168h104z" />
    <glyph glyph-name="lcommaaccent" unicode="&#x13c;" horiz-adv-x="204" 
d="M135 0h-124l90 729h123zM25 -228h-70l58 182h103z" />
    <glyph glyph-name="Lcaron" unicode="&#x13d;" horiz-adv-x="441" 
d="M289 0h-266l82 667h130l-66 -542h136zM341 469h-70l66 198h104z" />
    <glyph glyph-name="lcaron" unicode="&#x13e;" horiz-adv-x="391" 
d="M135 0h-124l90 729h123zM295 463h-70l70 204h103z" />
    <glyph glyph-name="Ldot" unicode="&#x13f;" horiz-adv-x="324" 
d="M289 0h-266l82 667h130l-66 -542h136zM359 342q0 -15 -6 -28.5t-16.5 -23.5t-24 -16t-28.5 -6q-25 0 -41 16.5t-16 41.5q0 15 6 28.5t16 24t23.5 16.5t28.5 6q25 0 41.5 -17t16.5 -42z" />
    <glyph glyph-name="ldot" unicode="&#x140;" horiz-adv-x="326" 
d="M135 0h-124l90 729h123zM347 373q0 -15 -6 -28.5t-16.5 -23.5t-24 -16t-28.5 -6q-25 0 -41 16.5t-16 41.5q0 15 6 28.5t16 24t23.5 16.5t28.5 6q25 0 41.5 -17t16.5 -42z" />
    <glyph glyph-name="Lslash" unicode="&#x141;" horiz-adv-x="324" 
d="M295 366l-106 -76l-20 -165h136l-16 -125h-266l28 229l-55 -43l14 116l55 42l40 323h130l-32 -261l106 76z" />
    <glyph glyph-name="lslash" unicode="&#x142;" horiz-adv-x="222" 
d="M239 382l-52 -40l-42 -342h-123l34 279l-52 -42l13 106l52 42l42 344h124l-35 -281l52 40z" />
    <glyph glyph-name="Nacute" unicode="&#x143;" horiz-adv-x="510" 
d="M430 0h-122l-112 402q0 -22 -0.5 -43t-3.5 -43l-39 -316h-130l82 667h123l112 -403q-1 12 -1 24v24v22t2 22l39 311h132zM344 875l81 -50l-114 -114l-61 36z" />
    <glyph glyph-name="nacute" unicode="&#x144;" horiz-adv-x="388" 
d="M181 377q20 32 47 55t68 23q38 0 53 -24t15 -58q0 -19 -2.5 -37t-4.5 -37l-36 -299h-124l32 255q3 22 3 46q0 11 -5 20t-18 9q-14 0 -22 -8t-12.5 -19.5t-6 -24.5t-2.5 -23l-31 -255h-124l55 447h124zM253 517l-56 36l100 128l83 -42z" />
    <glyph glyph-name="Ncommaaccent" unicode="&#x145;" horiz-adv-x="510" 
d="M430 0h-122l-112 402q0 -22 -0.5 -43t-3.5 -43l-39 -316h-130l82 667h123l112 -403q-1 12 -1 24v24v22t2 22l39 311h132zM197 -214h-70l53 168h104z" />
    <glyph glyph-name="ncommaaccent" unicode="&#x146;" horiz-adv-x="388" 
d="M181 377q20 32 47 55t68 23q38 0 53 -24t15 -58q0 -19 -2.5 -37t-4.5 -37l-36 -299h-124l32 255q3 22 3 46q0 11 -5 20t-18 9q-14 0 -22 -8t-12.5 -19.5t-6 -24.5t-2.5 -23l-31 -255h-124l55 447h124zM122 -228h-70l58 182h103z" />
    <glyph glyph-name="Ncaron" unicode="&#x147;" horiz-adv-x="510" 
d="M430 0h-122l-112 402q0 -22 -0.5 -43t-3.5 -43l-39 -316h-130l82 667h123l112 -403q-1 12 -1 24v24v22t2 22l39 311h132zM312 724l-114 107l60 55l66 -62l84 62l41 -62z" />
    <glyph glyph-name="ncaron" unicode="&#x148;" horiz-adv-x="388" 
d="M181 377q20 32 47 55t68 23q38 0 53 -24t15 -58q0 -19 -2.5 -37t-4.5 -37l-36 -299h-124l32 255q3 22 3 46q0 11 -5 20t-18 9q-14 0 -22 -8t-12.5 -19.5t-6 -24.5t-2.5 -23l-31 -255h-124l55 447h124zM241 517l-114 107l60 55l66 -62l84 62l41 -62z" />
    <glyph glyph-name="Omacron" unicode="&#x14c;" horiz-adv-x="534" 
d="M517 434q0 -57 -8 -119t-27 -116q-14 -41 -37 -79t-54 -67t-70 -46.5t-85 -17.5q-49 0 -91.5 26t-66.5 68q-22 37 -28.5 76.5t-6.5 81.5q0 46 5 91.5t17 90.5q12 47 33.5 92.5t54 81.5t75 58t96.5 22q50 0 86.5 -21.5t60 -56t35 -78t11.5 -87.5zM378 427q0 17 -2.5 39
t-10.5 42t-22 34t-36 14q-29 0 -49.5 -22.5t-34.5 -54t-22 -65.5t-11 -56q-5 -28 -6.5 -56t-1.5 -57q0 -17 3 -39t10.5 -42t21.5 -34t36 -14q29 0 49.5 22.5t34.5 54t22 65.5t11 56q5 28 6.5 56t1.5 57zM478 738h-282l10 80h282z" />
    <glyph glyph-name="omacron" unicode="&#x14d;" horiz-adv-x="386" 
d="M363 289q0 -47 -9 -99.5t-31.5 -96.5t-61 -73t-96.5 -29q-42 0 -69 15.5t-43.5 41.5t-23 59.5t-6.5 69.5q0 45 11 94t35 90t62 67.5t91 26.5q37 0 63.5 -13.5t44 -36t25.5 -52.5t8 -64zM237 277q0 7 -0.5 18.5t-3.5 22t-9 18t-16 7.5q-18 0 -30 -21t-18.5 -49.5
t-9.5 -56.5t-3 -41q0 -8 1 -20t4 -23.5t9 -20t17 -8.5q18 0 29.5 22t18 51.5t9 58t2.5 42.5zM368 531h-282l10 80h282z" />
    <glyph glyph-name="Obreve" unicode="&#x14e;" horiz-adv-x="534" 
d="M517 434q0 -57 -8 -119t-27 -116q-14 -41 -37 -79t-54 -67t-70 -46.5t-85 -17.5q-49 0 -91.5 26t-66.5 68q-22 37 -28.5 76.5t-6.5 81.5q0 46 5 91.5t17 90.5q12 47 33.5 92.5t54 81.5t75 58t96.5 22q50 0 86.5 -21.5t60 -56t35 -78t11.5 -87.5zM378 427q0 17 -2.5 39
t-10.5 42t-22 34t-36 14q-29 0 -49.5 -22.5t-34.5 -54t-22 -65.5t-11 -56q-5 -28 -6.5 -56t-1.5 -57q0 -17 3 -39t10.5 -42t21.5 -34t36 -14q29 0 49.5 22.5t34.5 54t22 65.5t11 56q5 28 6.5 56t1.5 57zM473 838q-5 -30 -18 -50.5t-25 -32.5q-23 -22 -47.5 -29.5t-54.5 -7.5
q-21 0 -43.5 5.5t-40.5 24.5q-14 14 -22.5 37.5t-8.5 52.5h66q2 -18 13 -29q10 -9 23 -11t21 -2q12 0 27 2.5t25 10.5q12 9 19 29h66z" />
    <glyph glyph-name="obreve" unicode="&#x14f;" horiz-adv-x="386" 
d="M363 289q0 -47 -9 -99.5t-31.5 -96.5t-61 -73t-96.5 -29q-42 0 -69 15.5t-43.5 41.5t-23 59.5t-6.5 69.5q0 45 11 94t35 90t62 67.5t91 26.5q37 0 63.5 -13.5t44 -36t25.5 -52.5t8 -64zM237 277q0 7 -0.5 18.5t-3.5 22t-9 18t-16 7.5q-18 0 -30 -21t-18.5 -49.5
t-9.5 -56.5t-3 -41q0 -8 1 -20t4 -23.5t9 -20t17 -8.5q18 0 29.5 22t18 51.5t9 58t2.5 42.5zM374 637q-5 -30 -18 -50.5t-25 -32.5q-23 -22 -47.5 -29.5t-54.5 -7.5q-21 0 -43.5 5.5t-40.5 24.5q-14 14 -22.5 37.5t-8.5 52.5h66q2 -18 13 -29q10 -9 23 -11t21 -2
q12 0 27 2.5t25 10.5q12 9 19 29h66z" />
    <glyph glyph-name="Ohungarumlaut" unicode="&#x150;" horiz-adv-x="534" 
d="M517 434q0 -57 -8 -119t-27 -116q-14 -41 -37 -79t-54 -67t-70 -46.5t-85 -17.5q-49 0 -91.5 26t-66.5 68q-22 37 -28.5 76.5t-6.5 81.5q0 46 5 91.5t17 90.5q12 47 33.5 92.5t54 81.5t75 58t96.5 22q50 0 86.5 -21.5t60 -56t35 -78t11.5 -87.5zM378 427q0 17 -2.5 39
t-10.5 42t-22 34t-36 14q-29 0 -49.5 -22.5t-34.5 -54t-22 -65.5t-11 -56q-5 -28 -6.5 -56t-1.5 -57q0 -17 3 -39t10.5 -42t21.5 -34t36 -14q29 0 49.5 22.5t34.5 54t22 65.5t11 56q5 28 6.5 56t1.5 57zM389 724l-51 36l74 128l76 -42zM253 724l-51 36l74 128l77 -42z" />
    <glyph glyph-name="ohungarumlaut" unicode="&#x151;" horiz-adv-x="386" 
d="M363 289q0 -47 -9 -99.5t-31.5 -96.5t-61 -73t-96.5 -29q-42 0 -69 15.5t-43.5 41.5t-23 59.5t-6.5 69.5q0 45 11 94t35 90t62 67.5t91 26.5q37 0 63.5 -13.5t44 -36t25.5 -52.5t8 -64zM237 277q0 7 -0.5 18.5t-3.5 22t-9 18t-16 7.5q-18 0 -30 -21t-18.5 -49.5
t-9.5 -56.5t-3 -41q0 -8 1 -20t4 -23.5t9 -20t17 -8.5q18 0 29.5 22t18 51.5t9 58t2.5 42.5zM310 517l-51 36l74 128l76 -42zM174 517l-51 36l74 128l77 -42z" />
    <glyph glyph-name="OE" unicode="&#x152;" horiz-adv-x="665" 
d="M666 544h-141l-17 -139h126l-15 -128h-126l-19 -152h142l-16 -125h-269l6 52q-25 -29 -55 -46t-69 -17q-53 0 -86 24.5t-52 62t-25.5 83t-6.5 87.5q0 39 5.5 86t18 95t33 93t49.5 80t67.5 56t87.5 21q32 0 58 -11t46 -37l4 38h269zM378 429q0 18 -1.5 41t-8.5 43t-21 34
t-39 14q-26 0 -45 -18t-33 -46.5t-23 -63.5t-14.5 -69.5t-7.5 -65t-2 -48.5t2 -41.5t9 -45t21 -36.5t38 -15q27 0 46.5 18t33.5 47t22.5 65t13.5 71t7 66t2 50z" />
    <glyph glyph-name="oe" unicode="&#x153;" horiz-adv-x="575" 
d="M530 139q-13 -66 -53 -107t-110 -41q-32 0 -60 12t-48 37q-21 -23 -46 -36t-57 -13q-37 0 -62.5 14.5t-41.5 38.5t-23.5 55t-7.5 63q0 30 4 60.5t12 59.5q9 32 25.5 63t39.5 55.5t53 39.5t67 15q56 0 91 -44q26 22 49 33t58 11q38 0 63.5 -13.5t41 -36.5t22 -53.5
t6.5 -63.5q0 -25 -3 -49.5t-8 -49.5h-198q-3 -20 -3 -40q0 -10 1.5 -21t6 -20.5t12.5 -15.5t20 -6q21 0 32 17.5t13 35.5h104zM442 266q1 9 2 17.5t1 17.5q0 8 -1.5 18t-5 18.5t-10.5 14t-17 5.5q-15 0 -25 -10t-16 -24.5t-9 -30t-4 -26.5h85zM238 276q0 7 -0.5 18.5
t-3.5 22.5t-9 18.5t-17 7.5q-18 0 -30 -21t-18.5 -49.5t-9.5 -56.5t-3 -41q0 -8 1 -20t4 -23.5t9.5 -20t17.5 -8.5q18 0 29.5 22t18 51t9 57.5t2.5 42.5z" />
    <glyph glyph-name="Racute" unicode="&#x154;" horiz-adv-x="466" 
d="M246 667q35 0 72.5 -5.5t66.5 -26.5q32 -23 45.5 -60t13.5 -75q0 -66 -29.5 -115t-86.5 -82l77 -303h-136l-78 307l-38 -307h-130l82 667h141zM200 380q5 -1 10 -1h10q49 0 73 33t24 78q0 36 -16.5 54.5t-53.5 18.5h-25zM306 875l81 -50l-114 -114l-61 36z" />
    <glyph glyph-name="racute" unicode="&#x155;" horiz-adv-x="274" 
d="M278 342q-5 1 -9 1.5t-9 0.5q-29 0 -46.5 -8t-27.5 -22.5t-14.5 -35t-7.5 -45.5l-29 -233h-124l55 447h124l-7 -55q24 30 47 48t63 23zM209 517l-56 36l100 128l83 -42z" />
    <glyph glyph-name="Rcommaaccent" unicode="&#x156;" horiz-adv-x="466" 
d="M246 667q35 0 72.5 -5.5t66.5 -26.5q32 -23 45.5 -60t13.5 -75q0 -66 -29.5 -115t-86.5 -82l77 -303h-136l-78 307l-38 -307h-130l82 667h141zM200 380q5 -1 10 -1h10q49 0 73 33t24 78q0 36 -16.5 54.5t-53.5 18.5h-25zM182 -214h-70l53 168h104z" />
    <glyph glyph-name="rcommaaccent" unicode="&#x157;" horiz-adv-x="274" 
d="M278 342q-5 1 -9 1.5t-9 0.5q-29 0 -46.5 -8t-27.5 -22.5t-14.5 -35t-7.5 -45.5l-29 -233h-124l55 447h124l-7 -55q24 30 47 48t63 23zM92 -228h-70l58 182h103z" />
    <glyph glyph-name="Rcaron" unicode="&#x158;" horiz-adv-x="466" 
d="M246 667q35 0 72.5 -5.5t66.5 -26.5q32 -23 45.5 -60t13.5 -75q0 -66 -29.5 -115t-86.5 -82l77 -303h-136l-78 307l-38 -307h-130l82 667h141zM200 380q5 -1 10 -1h10q49 0 73 33t24 78q0 36 -16.5 54.5t-53.5 18.5h-25zM270 724l-114 107l60 55l66 -62l84 62l41 -62z
" />
    <glyph glyph-name="rcaron" unicode="&#x159;" horiz-adv-x="274" 
d="M278 342q-5 1 -9 1.5t-9 0.5q-29 0 -46.5 -8t-27.5 -22.5t-14.5 -35t-7.5 -45.5l-29 -233h-124l55 447h124l-7 -55q24 30 47 48t63 23zM197 517l-114 107l60 55l66 -62l84 62l41 -62z" />
    <glyph glyph-name="Sacute" unicode="&#x15a;" horiz-adv-x="385" 
d="M358 516q-19 18 -40.5 30.5t-48.5 12.5q-33 0 -53.5 -21.5t-20.5 -54.5q0 -24 12 -42.5t30.5 -35t39.5 -33t39.5 -37t30.5 -47t12 -62.5q0 -47 -15 -89.5t-43 -75.5t-67.5 -52.5t-88.5 -19.5q-30 0 -58 8t-52 26l16 126q21 -16 42.5 -26t48.5 -10q38 0 62.5 23.5
t24.5 61.5q0 5 -0.5 11.5t-2.5 11.5q-5 11 -13.5 20t-17.5 17q-8 7 -16 13l-16 12q-23 17 -41 34t-31 36.5t-19.5 43.5t-6.5 54q0 43 13.5 83.5t39 72t62.5 51t83 19.5q32 0 57.5 -7.5t53.5 -24.5zM321 875l81 -50l-114 -114l-61 36z" />
    <glyph glyph-name="sacute" unicode="&#x15b;" horiz-adv-x="310" 
d="M258 326q-11 13 -24 21.5t-31 8.5q-16 0 -26 -10.5t-10 -26.5t18.5 -26.5t40.5 -25t40.5 -36.5t18.5 -62q0 -35 -11.5 -67t-32.5 -57t-51 -39.5t-67 -14.5t-67.5 14t-58.5 37l66 89q13 -12 26 -20t31 -8t30.5 11.5t12.5 30.5q0 18 -19 29t-42 25.5t-42 38t-19 66.5
q0 35 13.5 63t36 47.5t52.5 30t63 10.5t59.5 -9t52.5 -29zM204 517l-56 36l100 128l83 -42z" />
    <glyph glyph-name="Scircumflex" unicode="&#x15c;" horiz-adv-x="385" 
d="M358 516q-19 18 -40.5 30.5t-48.5 12.5q-33 0 -53.5 -21.5t-20.5 -54.5q0 -24 12 -42.5t30.5 -35t39.5 -33t39.5 -37t30.5 -47t12 -62.5q0 -47 -15 -89.5t-43 -75.5t-67.5 -52.5t-88.5 -19.5q-30 0 -58 8t-52 26l16 126q21 -16 42.5 -26t48.5 -10q38 0 62.5 23.5
t24.5 61.5q0 5 -0.5 11.5t-2.5 11.5q-5 11 -13.5 20t-17.5 17q-8 7 -16 13l-16 12q-23 17 -41 34t-31 36.5t-19.5 43.5t-6.5 54q0 43 13.5 83.5t39 72t62.5 51t83 19.5q32 0 57.5 -7.5t53.5 -24.5zM343 724l-66 62l-84 -62l-41 62l137 100l114 -107z" />
    <glyph glyph-name="scircumflex" unicode="&#x15d;" horiz-adv-x="310" 
d="M258 326q-11 13 -24 21.5t-31 8.5q-16 0 -26 -10.5t-10 -26.5t18.5 -26.5t40.5 -25t40.5 -36.5t18.5 -62q0 -35 -11.5 -67t-32.5 -57t-51 -39.5t-67 -14.5t-67.5 14t-58.5 37l66 89q13 -12 26 -20t31 -8t30.5 11.5t12.5 30.5q0 18 -19 29t-42 25.5t-42 38t-19 66.5
q0 35 13.5 63t36 47.5t52.5 30t63 10.5t59.5 -9t52.5 -29zM283 517l-66 62l-84 -62l-41 62l137 100l114 -107z" />
    <glyph glyph-name="Scedilla" unicode="&#x15e;" horiz-adv-x="385" 
d="M358 516q-19 18 -40.5 30.5t-48.5 12.5q-33 0 -53.5 -21.5t-20.5 -54.5q0 -24 12 -42.5t30.5 -35t39.5 -33t39.5 -37t30.5 -47t12 -62.5q0 -47 -15 -89.5t-43 -75.5t-67.5 -52.5t-88.5 -19.5q-30 0 -58 8t-52 26l16 126q21 -16 42.5 -26t48.5 -10q38 0 62.5 23.5
t24.5 61.5q0 5 -0.5 11.5t-2.5 11.5q-5 11 -13.5 20t-17.5 17q-8 7 -16 13l-16 12q-23 17 -41 34t-31 36.5t-19.5 43.5t-6.5 54q0 43 13.5 83.5t39 72t62.5 51t83 19.5q32 0 57.5 -7.5t53.5 -24.5zM123 -205l-60 36l79 127l90 -35z" />
    <glyph glyph-name="scedilla" unicode="&#x15f;" horiz-adv-x="310" 
d="M258 326q-11 13 -24 21.5t-31 8.5q-16 0 -26 -10.5t-10 -26.5t18.5 -26.5t40.5 -25t40.5 -36.5t18.5 -62q0 -35 -11.5 -67t-32.5 -57t-51 -39.5t-67 -14.5t-67.5 14t-58.5 37l66 89q13 -12 26 -20t31 -8t30.5 11.5t12.5 30.5q0 18 -19 29t-42 25.5t-42 38t-19 66.5
q0 35 13.5 63t36 47.5t52.5 30t63 10.5t59.5 -9t52.5 -29zM87 -193l-51 29l83 122l74 -32z" />
    <glyph glyph-name="Scaron" unicode="&#x160;" horiz-adv-x="385" 
d="M358 516q-19 18 -40.5 30.5t-48.5 12.5q-33 0 -53.5 -21.5t-20.5 -54.5q0 -24 12 -42.5t30.5 -35t39.5 -33t39.5 -37t30.5 -47t12 -62.5q0 -47 -15 -89.5t-43 -75.5t-67.5 -52.5t-88.5 -19.5q-30 0 -58 8t-52 26l16 126q21 -16 42.5 -26t48.5 -10q38 0 62.5 23.5
t24.5 61.5q0 5 -0.5 11.5t-2.5 11.5q-5 11 -13.5 20t-17.5 17q-8 7 -16 13l-16 12q-23 17 -41 34t-31 36.5t-19.5 43.5t-6.5 54q0 43 13.5 83.5t39 72t62.5 51t83 19.5q32 0 57.5 -7.5t53.5 -24.5zM267 724l-114 107l60 55l66 -62l84 62l41 -62z" />
    <glyph glyph-name="scaron" unicode="&#x161;" horiz-adv-x="310" 
d="M258 326q-11 13 -24 21.5t-31 8.5q-16 0 -26 -10.5t-10 -26.5t18.5 -26.5t40.5 -25t40.5 -36.5t18.5 -62q0 -35 -11.5 -67t-32.5 -57t-51 -39.5t-67 -14.5t-67.5 14t-58.5 37l66 89q13 -12 26 -20t31 -8t30.5 11.5t12.5 30.5q0 18 -19 29t-42 25.5t-42 38t-19 66.5
q0 35 13.5 63t36 47.5t52.5 30t63 10.5t59.5 -9t52.5 -29zM212 517l-114 107l60 55l66 -62l84 62l41 -62z" />
    <glyph glyph-name="Tcommaaccent" unicode="&#x162;" horiz-adv-x="334" 
d="M373 545h-102l-67 -545h-130l67 545h-102l15 122h334zM109 -205l-60 36l79 127l90 -35z" />
    <glyph glyph-name="tcommaaccent" unicode="&#x163;" horiz-adv-x="226" 
d="M239 343h-50l-43 -343h-123l42 343h-42l13 104h42l16 127h123l-16 -127h50zM47 -193l-51 29l83 122l74 -32z" />
    <glyph glyph-name="Tcaron" unicode="&#x164;" horiz-adv-x="334" 
d="M373 545h-102l-67 -545h-130l67 545h-102l15 122h334zM227 724l-114 107l60 55l66 -62l84 62l41 -62z" />
    <glyph glyph-name="tcaron" unicode="&#x165;" horiz-adv-x="401" 
d="M239 343h-50l-43 -343h-123l42 343h-42l13 104h42l16 127h123l-16 -127h50zM305 473h-70l70 204h103z" />
    <glyph glyph-name="Utilde" unicode="&#x168;" horiz-adv-x="491" 
d="M433 170q-4 -29 -10 -53t-24 -49q-16 -22 -37 -37t-45.5 -24.5t-51 -13.5t-52.5 -4q-36 0 -67.5 8t-55 25.5t-36.5 45.5t-13 68q0 13 1.5 26t3.5 26l59 479h130l-54 -443q-2 -13 -3.5 -25t-1.5 -25q0 -29 11.5 -47t43.5 -18q26 0 40.5 10.5t22 27t10 37t5.5 40.5l55 443
h130zM460 842q-5 -20 -12.5 -40.5t-18.5 -38t-28 -28.5t-41 -11q-15 0 -28.5 5t-26.5 10.5t-24.5 10.5t-22.5 5q-13 0 -20 -8.5t-11 -19.5h-64q4 20 10.5 41t17.5 38t27.5 28t41.5 11q16 0 29 -5.5t24.5 -11.5t23 -11.5t24.5 -5.5q18 0 23.5 10.5t11.5 24.5z" />
    <glyph glyph-name="utilde" unicode="&#x169;" horiz-adv-x="387" 
d="M338 151q-3 -28 -9 -48t-23 -43q-25 -33 -63.5 -51t-79.5 -18q-27 0 -52 8t-43.5 23.5t-29.5 38t-11 51.5q0 14 1.5 28t3.5 28l34 279h124l-32 -256q-2 -13 -3 -25.5t-1 -25.5t5 -23t20 -10q13 0 21 9.5t11.5 23t5 28t2.5 23.5l32 256h123zM384 635q-5 -20 -12.5 -40.5
t-18.5 -38t-28 -28.5t-41 -11q-15 0 -28.5 5t-26.5 10.5t-24.5 10.5t-22.5 5q-13 0 -20 -8.5t-11 -19.5h-64q4 20 10.5 41t17.5 38t27.5 28t41.5 11q16 0 29 -5.5t24.5 -11.5t23 -11.5t24.5 -5.5q18 0 23.5 10.5t11.5 24.5z" />
    <glyph glyph-name="Umacron" unicode="&#x16a;" horiz-adv-x="491" 
d="M433 170q-4 -29 -10 -53t-24 -49q-16 -22 -37 -37t-45.5 -24.5t-51 -13.5t-52.5 -4q-36 0 -67.5 8t-55 25.5t-36.5 45.5t-13 68q0 13 1.5 26t3.5 26l59 479h130l-54 -443q-2 -13 -3.5 -25t-1.5 -25q0 -29 11.5 -47t43.5 -18q26 0 40.5 10.5t22 27t10 37t5.5 40.5l55 443
h130zM443 738h-282l10 80h282z" />
    <glyph glyph-name="umacron" unicode="&#x16b;" horiz-adv-x="387" 
d="M338 151q-3 -28 -9 -48t-23 -43q-25 -33 -63.5 -51t-79.5 -18q-27 0 -52 8t-43.5 23.5t-29.5 38t-11 51.5q0 14 1.5 28t3.5 28l34 279h124l-32 -256q-2 -13 -3 -25.5t-1 -25.5t5 -23t20 -10q13 0 21 9.5t11.5 23t5 28t2.5 23.5l32 256h123zM368 531h-282l10 80h282z" />
    <glyph glyph-name="Ubreve" unicode="&#x16c;" horiz-adv-x="491" 
d="M433 170q-4 -29 -10 -53t-24 -49q-16 -22 -37 -37t-45.5 -24.5t-51 -13.5t-52.5 -4q-36 0 -67.5 8t-55 25.5t-36.5 45.5t-13 68q0 13 1.5 26t3.5 26l59 479h130l-54 -443q-2 -13 -3.5 -25t-1.5 -25q0 -29 11.5 -47t43.5 -18q26 0 40.5 10.5t22 27t10 37t5.5 40.5l55 443
h130zM448 838q-5 -30 -18 -50.5t-25 -32.5q-23 -22 -47.5 -29.5t-54.5 -7.5q-21 0 -43.5 5.5t-40.5 24.5q-14 14 -22.5 37.5t-8.5 52.5h66q2 -18 13 -29q10 -9 23 -11t21 -2q12 0 27 2.5t25 10.5q12 9 19 29h66z" />
    <glyph glyph-name="ubreve" unicode="&#x16d;" horiz-adv-x="387" 
d="M338 151q-3 -28 -9 -48t-23 -43q-25 -33 -63.5 -51t-79.5 -18q-27 0 -52 8t-43.5 23.5t-29.5 38t-11 51.5q0 14 1.5 28t3.5 28l34 279h124l-32 -256q-2 -13 -3 -25.5t-1 -25.5t5 -23t20 -10q13 0 21 9.5t11.5 23t5 28t2.5 23.5l32 256h123zM365 637q-5 -30 -18 -50.5
t-25 -32.5q-23 -22 -47.5 -29.5t-54.5 -7.5q-21 0 -43.5 5.5t-40.5 24.5q-14 14 -22.5 37.5t-8.5 52.5h66q2 -18 13 -29q10 -9 23 -11t21 -2q12 0 27 2.5t25 10.5q12 9 19 29h66z" />
    <glyph glyph-name="Uring" unicode="&#x16e;" horiz-adv-x="491" 
d="M433 170q-4 -29 -10 -53t-24 -49q-16 -22 -37 -37t-45.5 -24.5t-51 -13.5t-52.5 -4q-36 0 -67.5 8t-55 25.5t-36.5 45.5t-13 68q0 13 1.5 26t3.5 26l59 479h130l-54 -443q-2 -13 -3.5 -25t-1.5 -25q0 -29 11.5 -47t43.5 -18q26 0 40.5 10.5t22 27t10 37t5.5 40.5l55 443
h130zM218 810q0 40 28 68t68 28t68 -28t28 -68t-28 -68t-68 -28t-68 28t-28 68zM273 810q0 -18 11.5 -29.5t29.5 -11.5t29.5 11.5t11.5 29.5t-11.5 29.5t-29.5 11.5t-29.5 -11.5t-11.5 -29.5z" />
    <glyph glyph-name="uring" unicode="&#x16f;" horiz-adv-x="387" 
d="M338 151q-3 -28 -9 -48t-23 -43q-25 -33 -63.5 -51t-79.5 -18q-27 0 -52 8t-43.5 23.5t-29.5 38t-11 51.5q0 14 1.5 28t3.5 28l34 279h124l-32 -256q-2 -13 -3 -25.5t-1 -25.5t5 -23t20 -10q13 0 21 9.5t11.5 23t5 28t2.5 23.5l32 256h123zM135 619q0 40 28 68t68 28
t68 -28t28 -68t-28 -68t-68 -28t-68 28t-28 68zM190 619q0 -18 11.5 -29.5t29.5 -11.5t29.5 11.5t11.5 29.5t-11.5 29.5t-29.5 11.5t-29.5 -11.5t-11.5 -29.5z" />
    <glyph glyph-name="Uhungarumlaut" unicode="&#x170;" horiz-adv-x="491" 
d="M433 170q-4 -29 -10 -53t-24 -49q-16 -22 -37 -37t-45.5 -24.5t-51 -13.5t-52.5 -4q-36 0 -67.5 8t-55 25.5t-36.5 45.5t-13 68q0 13 1.5 26t3.5 26l59 479h130l-54 -443q-2 -13 -3.5 -25t-1.5 -25q0 -29 11.5 -47t43.5 -18q26 0 40.5 10.5t22 27t10 37t5.5 40.5l55 443
h130zM362 724l-51 36l74 128l76 -42zM226 724l-51 36l74 128l77 -42z" />
    <glyph glyph-name="uhungarumlaut" unicode="&#x171;" horiz-adv-x="387" 
d="M338 151q-3 -28 -9 -48t-23 -43q-25 -33 -63.5 -51t-79.5 -18q-27 0 -52 8t-43.5 23.5t-29.5 38t-11 51.5q0 14 1.5 28t3.5 28l34 279h124l-32 -256q-2 -13 -3 -25.5t-1 -25.5t5 -23t20 -10q13 0 21 9.5t11.5 23t5 28t2.5 23.5l32 256h123zM296 517l-51 36l74 128l76 -42
zM160 517l-51 36l74 128l77 -42z" />
    <glyph glyph-name="Uogonek" unicode="&#x172;" horiz-adv-x="491" 
d="M433 170q-3 -27 -8 -47t-11 -34.5t-14 -25.5t-17 -21q-19 -21 -33.5 -29.5t-29.5 -16.5q-23 -13 -32 -20t-13 -12q-12 -14 -12 -31q0 -8 2.5 -12.5t4.5 -6.5q7 -9 25 -9q20 0 35 10l-24 -75q-12 -6 -24 -8t-27 -2q-11 0 -27.5 3t-30.5 17q-11 11 -14.5 24t-3.5 24
q0 17 5.5 31.5t13.5 26.5t16.5 20.5t15.5 13.5q-7 0 -13 -1t-13 -1q-37 0 -72 12.5t-55 34.5q-15 16 -25.5 40t-10.5 56q0 11 1.5 32.5t3.5 32.5l59 471h130l-56 -456q-2 -15 -2.5 -24.5t-0.5 -14.5q0 -10 2 -22t10 -23q10 -13 22 -15.5t22 -2.5q12 0 24.5 3t23.5 14
q14 14 19 35t7 38l58 468h130z" />
    <glyph glyph-name="uogonek" unicode="&#x173;" horiz-adv-x="387" 
d="M338 151q-5 -45 -16 -71.5t-31 -48.5q-11 -12 -21 -20t-19 -14q-8 -6 -16.5 -13t-17.5 -17q-6 -7 -11.5 -16t-5.5 -20q0 -13 9 -22q10 -8 25 -8q18 0 33 10l-23 -71q-21 -10 -46 -10q-23 0 -37 6t-22 14q-19 19 -19 46q0 16 6 30.5t14.5 26.5t18 21.5l15.5 15.5
q-34 0 -62 8t-50 29q-16 15 -25.5 36.5t-9.5 51.5q0 5 0.5 13t1.5 16t2 15t1 10l34 278h124l-32 -260q-1 -8 -2.5 -22t-1.5 -26q0 -5 1.5 -13.5t7.5 -13.5q7 -5 15 -5q13 0 22 9q8 9 12 27.5t6 37.5l33 266h123z" />
    <glyph glyph-name="Ydieresis" unicode="&#x178;" horiz-adv-x="440" 
d="M295 285l-36 -285h-130l35 285l-110 382h143l33 -153q2 -8 4 -21t4 -26.5t3.5 -25.5t2.5 -18q10 28 18.5 49t19.5 45l67 150h145zM433 797q0 -15 -6 -28.5t-16.5 -23t-24 -15.5t-28.5 -6q-25 0 -40.5 17t-15.5 41q0 15 6 28t16 23.5t23 16.5t28 6q25 0 41.5 -17t16.5 -42
zM260 797q0 -15 -6 -28t-16.5 -23t-23.5 -16t-28 -6q-25 0 -41 16.5t-16 41.5q0 15 6 28t16 23.5t23 16.5t28 6q25 0 41.5 -17t16.5 -42z" />
    <glyph glyph-name="Zacute" unicode="&#x179;" horiz-adv-x="449" 
d="M194 125h207l-16 -125h-395l285 541h-191l15 126h386zM314 875l81 -50l-114 -114l-61 36z" />
    <glyph glyph-name="zacute" unicode="&#x17a;" horiz-adv-x="336" 
d="M171 103h122l-13 -103h-295l182 343h-125l12 104h295zM207 517l-56 36l100 128l83 -42z" />
    <glyph glyph-name="Zdotaccent" unicode="&#x17b;" horiz-adv-x="449" 
d="M194 125h207l-16 -125h-395l285 541h-191l15 126h386zM368 798q0 -15 -6 -28.5t-16.5 -23.5t-24 -16t-28.5 -6q-25 0 -41 16.5t-16 41.5q0 15 6 28.5t16 24t23.5 16.5t28.5 6q25 0 41.5 -17t16.5 -42z" />
    <glyph glyph-name="zdotaccent" unicode="&#x17c;" horiz-adv-x="336" 
d="M171 103h122l-13 -103h-295l182 343h-125l12 104h295zM282 591q0 -15 -6 -28.5t-16.5 -23.5t-24 -16t-28.5 -6q-25 0 -41 16.5t-16 41.5q0 15 6 28.5t16 24t23.5 16.5t28.5 6q25 0 41.5 -17t16.5 -42z" />
    <glyph glyph-name="Zcaron" unicode="&#x17d;" horiz-adv-x="449" 
d="M194 125h207l-16 -125h-395l285 541h-191l15 126h386zM287 724l-114 107l60 55l66 -62l84 62l41 -62z" />
    <glyph glyph-name="zcaron" unicode="&#x17e;" horiz-adv-x="336" 
d="M171 103h122l-13 -103h-295l182 343h-125l12 104h295zM205 517l-114 107l60 55l66 -62l84 62l41 -62z" />
    <glyph glyph-name="uni018F" unicode="&#x18f;" horiz-adv-x="523" 
d="M364 371q2 19 2.5 43t-2.5 48t-10 45t-19 34q-11 12 -23.5 16t-23.5 4q-29 0 -47 -17q-8 -8 -18 -24t-21 -51l-122 50q12 29 30 55.5t39 46.5q31 28 68 42t85 14q12 0 28 -1.5t33.5 -6.5t36 -14t35.5 -25q25 -23 39 -52t21 -58t9 -55t2 -42q0 -34 -4.5 -81.5t-17.5 -98.5
t-37.5 -100.5t-63.5 -87.5q-33 -32 -73 -49t-91 -17q-35 0 -61 10t-50 34q-22 22 -35 48t-19.5 52t-8.5 50t-2 44q0 33 4 72t9 72h308zM171 253q-3 -14 -4 -31t1 -35t7.5 -34t16.5 -27q17 -17 40 -17q35 0 59 25q11 11 20 26t15.5 31.5t11 32.5t6.5 29h-173z" />
    <glyph glyph-name="florin" unicode="&#x192;" horiz-adv-x="433" 
d="M397 610q-12 6 -25 6q-14 0 -22 -7.5t-12.5 -18.5t-6.5 -23.5t-4 -21.5l-19 -98h70l-13 -68h-70l-53 -262q-8 -39 -16 -83t-25.5 -81t-48.5 -61.5t-84 -24.5q-16 0 -31 2.5t-30 6.5l23 118q14 -7 27 -7q12 0 20 6.5t13 16t7.5 20.5t5.5 20q5 19 8.5 38t7.5 38l50 253h-66
l13 68h66q8 40 14.5 70t11.5 58q6 32 15 64t31 57q20 23 48.5 33.5t57.5 10.5q17 0 30.5 -3t29.5 -9z" />
    <glyph glyph-name="uni01CF" unicode="&#x1cf;" horiz-adv-x="232" 
d="M153 0h-130l82 667h130zM177 724l-114 107l60 55l66 -62l84 62l41 -62z" />
    <glyph glyph-name="uni01D0" unicode="&#x1d0;" horiz-adv-x="203" 
d="M135 0h-124l55 447h124zM132 517l-114 107l60 55l66 -62l84 62l41 -62z" />
    <glyph glyph-name="uni01DD" unicode="&#x1dd;" horiz-adv-x="373" 
d="M44 328q6 22 18 45t29 40q25 26 53.5 34t57.5 8q24 0 52 -7t51 -29q16 -15 25 -33.5t13.5 -37.5t5.5 -36t1 -29q0 -30 -4.5 -64t-14 -67t-25 -63t-37.5 -53q-24 -25 -51 -35t-63 -10q-20 0 -44 6t-47 29q-15 15 -23 33.5t-12 36.5t-5 34t-1 27q0 33 4 59.5t7 39.5h198
q3 22 3 43q0 12 -2 27t-12 25q-3 3 -10 6.5t-18 3.5q-18 0 -31 -13q-13 -15 -18 -40zM131 179q-3 -13 -3.5 -22t-0.5 -14q0 -7 2 -22.5t12 -25.5q9 -9 24 -9q9 0 15.5 3t10.5 6q8 7 13.5 18.5t9 23.5t5 23.5t2.5 18.5h-90z" />
    <glyph glyph-name="Gcaron" unicode="&#x1e6;" horiz-adv-x="517" 
d="M366 469q0 15 -1.5 31t-7.5 29.5t-17 22.5t-30 9q-26 0 -45.5 -18.5t-34 -47.5t-23.5 -65t-14.5 -71.5t-8 -66t-2.5 -49.5t2 -42.5t10 -43.5t23 -34t41 -14t43.5 15t28.5 37t16.5 47t8.5 45h-83l14 118h212q-5 -49 -12 -97t-23 -95q-12 -38 -32.5 -72t-48.5 -60.5
t-63.5 -42t-77.5 -15.5q-55 0 -92.5 23.5t-61 61t-33.5 84t-10 93.5q0 45 5.5 89t16.5 87q12 46 34 91t54.5 80t74.5 57t95 22q75 0 119 -43t56 -115zM327 724l-114 107l60 55l66 -62l84 62l41 -62z" />
    <glyph glyph-name="gcaron" unicode="&#x1e7;" horiz-adv-x="394" 
d="M322 -23q-3 -25 -7 -46t-16 -44q-26 -48 -71 -70.5t-98 -22.5q-66 0 -101 35t-35 101v12.5t1 6.5h108q0 -8 1 -17.5t4.5 -17.5t11.5 -13.5t22 -5.5q17 0 28 12t17.5 29t9.5 35.5t5 32.5l8 52q-17 -24 -38 -44.5t-53 -20.5q-30 0 -49.5 17.5t-30.5 43t-15 54.5t-4 52
q0 33 7 83.5t24 98t46 81.5t73 34q32 0 50.5 -17t30.5 -45l7 54h123zM238 275q0 7 -0.5 19t-3.5 22.5t-9 18.5t-17 8q-18 0 -30 -21t-19 -48.5t-10 -55.5t-3 -41q0 -8 1 -20t4.5 -23.5t10 -20t17.5 -8.5q18 0 29.5 21.5t18 50t9 56.5t2.5 42zM237 517l-114 107l60 55l66 -62
l84 62l41 -62z" />
    <glyph glyph-name="AEacute" unicode="&#x1fc;" horiz-adv-x="583" 
d="M285 0l-10 111h-137l-33 -111h-130l231 667h268l12 -124h-129l16 -138h130l15 -126h-129l19 -154h125l16 -125h-264zM266 216q-4 35 -7 70.5t-6 70.5q-2 17 -3 33t-1 33q0 18 0.5 35.5t0.5 35.5q-7 -35 -14.5 -70t-18.5 -69l-44 -139h93zM382 875l81 -50l-114 -114
l-61 36z" />
    <glyph glyph-name="aeacute" unicode="&#x1fd;" horiz-adv-x="562" 
d="M90 436q25 8 50 14t52 6q42 0 69 -13t44 -53q22 32 49 48.5t67 16.5q36 0 59 -14.5t35.5 -38t17.5 -52.5t5 -59q0 -25 -2.5 -49.5t-4.5 -49.5h-201q-1 -8 -1.5 -15.5t-0.5 -15.5q0 -11 1 -24.5t5.5 -25.5t13 -20t23.5 -8q23 0 33.5 17t12.5 37h101q-10 -65 -48.5 -105.5
t-107.5 -40.5q-34 0 -59 13t-43 42q-26 -25 -53.5 -40t-65.5 -15q-56 0 -92 30.5t-36 88.5q0 32 11 61t30.5 50.5t47 34t60.5 12.5q17 0 33.5 -3t30.5 -13q1 11 2 21.5t1 21.5q0 31 -17 44t-46 13q-24 0 -45.5 -6.5t-43.5 -16.5zM431 269q1 8 1.5 15t0.5 15q0 9 -1 20.5
t-5 21t-11 16.5t-19 7q-15 0 -25 -10.5t-17 -25.5t-10.5 -31.5t-4.5 -27.5h91zM219 137q0 17 -12 29t-29 12q-21 0 -37 -16t-16 -37q0 -17 12 -29t29 -12q21 0 37 16t16 37zM330 517l-56 36l100 128l83 -42z" />
    <glyph glyph-name="Scommaaccent" unicode="&#x218;" horiz-adv-x="385" 
d="M358 516q-19 18 -40.5 30.5t-48.5 12.5q-33 0 -53.5 -21.5t-20.5 -54.5q0 -24 12 -42.5t30.5 -35t39.5 -33t39.5 -37t30.5 -47t12 -62.5q0 -47 -15 -89.5t-43 -75.5t-67.5 -52.5t-88.5 -19.5q-30 0 -58 8t-52 26l16 126q21 -16 42.5 -26t48.5 -10q38 0 62.5 23.5
t24.5 61.5q0 5 -0.5 11.5t-2.5 11.5q-5 11 -13.5 20t-17.5 17q-8 7 -16 13l-16 12q-23 17 -41 34t-31 36.5t-19.5 43.5t-6.5 54q0 43 13.5 83.5t39 72t62.5 51t83 19.5q32 0 57.5 -7.5t53.5 -24.5zM127 -214h-70l53 168h104z" />
    <glyph glyph-name="scommaaccent" unicode="&#x219;" horiz-adv-x="310" 
d="M258 326q-11 13 -24 21.5t-31 8.5q-16 0 -26 -10.5t-10 -26.5t18.5 -26.5t40.5 -25t40.5 -36.5t18.5 -62q0 -35 -11.5 -67t-32.5 -57t-51 -39.5t-67 -14.5t-67.5 14t-58.5 37l66 89q13 -12 26 -20t31 -8t30.5 11.5t12.5 30.5q0 18 -19 29t-42 25.5t-42 38t-19 66.5
q0 35 13.5 63t36 47.5t52.5 30t63 10.5t59.5 -9t52.5 -29zM87 -228h-70l58 182h103z" />
    <glyph glyph-name="uni021A" unicode="&#x21a;" horiz-adv-x="334" 
d="M373 545h-102l-67 -545h-130l67 545h-102l15 122h334zM102 -214h-70l53 168h104z" />
    <glyph glyph-name="uni021B" unicode="&#x21b;" horiz-adv-x="226" 
d="M239 343h-50l-43 -343h-123l42 343h-42l13 104h42l16 127h123l-16 -127h50zM42 -228h-70l58 182h103z" />
    <glyph glyph-name="uni0228" unicode="&#x228;" horiz-adv-x="350" 
d="M351 543h-131l-18 -144h116l-16 -126h-115l-19 -150h133l-15 -123h-263l82 667h261zM128 -205l-60 36l79 127l90 -35z" />
    <glyph glyph-name="uni0229" unicode="&#x229;" horiz-adv-x="367" 
d="M326 154q-4 -32 -19 -67t-40 -58t-52.5 -30.5t-50.5 -7.5q-26 0 -50.5 7.5t-46.5 30.5q-18 20 -32 52.5t-14 85.5q0 29 5 61.5t15.5 65t27 62t39.5 52.5q47 47 111 47q49 0 83 -32q15 -15 24 -33t13.5 -36t5.5 -35t1 -30q0 -5 -1.5 -29t-7.5 -59h-195q-3 -14 -4.5 -29.5
t-1.5 -27.5q0 -11 2 -26t10 -23q4 -4 10 -7t16 -3q22 0 35 22q5 8 8 22t5 25h104zM241 278q1 6 1.5 12t0.5 12q0 25 -8 40q-5 8 -11 13t-17 5q-6 0 -14 -3t-16 -11q-5 -6 -9.5 -14.5t-7.5 -18.5t-5 -19t-3 -16h89zM118 -193l-51 29l83 122l74 -32z" />
    <glyph glyph-name="uni0237" unicode="&#x237;" horiz-adv-x="201" 
d="M108 -206h-124l80 653h124z" />
    <glyph glyph-name="uni0259" unicode="&#x259;" horiz-adv-x="373" 
d="M44 328q6 22 18 45t29 40q25 26 53.5 34t57.5 8q24 0 52 -7t51 -29q16 -15 25 -33.5t13.5 -37.5t5.5 -36t1 -29q0 -30 -4.5 -64t-14 -67t-25 -63t-37.5 -53q-24 -25 -51 -35t-63 -10q-20 0 -44 6t-47 29q-15 15 -23 33.5t-12 36.5t-5 34t-1 27q0 33 4 59.5t7 39.5h198
q3 22 3 43q0 12 -2 27t-12 25q-3 3 -10 6.5t-18 3.5q-18 0 -31 -13q-13 -15 -18 -40zM131 179q-3 -13 -3.5 -22t-0.5 -14q0 -7 2 -22.5t12 -25.5q9 -9 24 -9q9 0 15.5 3t10.5 6q8 7 13.5 18.5t9 23.5t5 23.5t2.5 18.5h-90z" />
    <glyph glyph-name="afii57929" unicode="&#x2bc;" horiz-adv-x="197" 
d="M125 463h-70l70 204h103z" />
    <glyph glyph-name="circumflex" unicode="&#x2c6;" 
d="M358 517l-66 62l-84 -62l-41 62l137 100l114 -107z" />
    <glyph glyph-name="caron" unicode="&#x2c7;" 
d="M287 517l-114 107l60 55l66 -62l84 62l41 -62z" />
    <glyph glyph-name="uni02C9" unicode="&#x2c9;" 
d="M428 531h-282l10 80h282z" />
    <glyph glyph-name="breve" unicode="&#x2d8;" 
d="M431 637q-5 -30 -18 -50.5t-25 -32.5q-23 -22 -47.5 -29.5t-54.5 -7.5q-21 0 -43.5 5.5t-40.5 24.5q-14 14 -22.5 37.5t-8.5 52.5h66q2 -18 13 -29q10 -9 23 -11t21 -2q12 0 27 2.5t25 10.5q12 9 19 29h66z" />
    <glyph glyph-name="dotaccent" unicode="&#x2d9;" 
d="M360 591q0 -15 -6 -28.5t-16.5 -23.5t-24 -16t-28.5 -6q-25 0 -41 16.5t-16 41.5q0 15 6 28.5t16 24t23.5 16.5t28.5 6q25 0 41.5 -17t16.5 -42z" />
    <glyph glyph-name="ring" unicode="&#x2da;" 
d="M201 619q0 40 28 68t68 28t68 -28t28 -68t-28 -68t-68 -28t-68 28t-28 68zM256 619q0 -18 11.5 -29.5t29.5 -11.5t29.5 11.5t11.5 29.5t-11.5 29.5t-29.5 11.5t-29.5 -11.5t-11.5 -29.5z" />
    <glyph glyph-name="ogonek" unicode="&#x2db;" 
d="M327 -168q-5 -5 -16.5 -11t-31.5 -6q-15 0 -31.5 6t-27.5 18q-7 7 -12.5 18t-5.5 28q0 20 8 37t18 29q8 10 21.5 24.5t23.5 24.5h58q-16 -17 -21.5 -24t-7.5 -10q-14 -17 -17 -28.5t-3 -16.5q0 -14 10 -24q7 -7 14 -9t12 -2q17 0 32 17z" />
    <glyph glyph-name="tilde" unicode="&#x2dc;" 
d="M441 635q-5 -20 -12.5 -40.5t-18.5 -38t-28 -28.5t-41 -11q-15 0 -28.5 5t-26.5 10.5t-24.5 10.5t-22.5 5q-13 0 -20 -8.5t-11 -19.5h-64q4 20 10.5 41t17.5 38t27.5 28t41.5 11q16 0 29 -5.5t24.5 -11.5t23 -11.5t24.5 -5.5q18 0 23.5 10.5t11.5 24.5z" />
    <glyph glyph-name="hungarumlaut" unicode="&#x2dd;" 
d="M372 517l-51 36l74 128l76 -42zM236 517l-51 36l74 128l77 -42z" />
    <glyph glyph-name="acutecomb" unicode="&#x301;" horiz-adv-x="2" 
d="M-166 517l-56 36l100 128l83 -42z" />
    <glyph glyph-name="Delta" unicode="&#x394;" horiz-adv-x="667" 
d="M-10 0l246 667h134l251 -667h-631zM304 516l-138 -404h276z" />
    <glyph glyph-name="Delta" unicode="&#x2206;" horiz-adv-x="667" 
d="M-10 0l246 667h134l251 -667h-631zM304 516l-138 -404h276z" />
    <glyph glyph-name="Omega" unicode="&#x3a9;" horiz-adv-x="667" 
d="M364 0v98q75 43 107.5 106t32.5 148q0 39 -11 78t-33 70.5t-55 51.5t-77 20t-77 -19.5t-55 -51t-33 -71t-11 -78.5q0 -85 32.5 -148t107.5 -106v-98h-269v111h141q-75 45 -108 106.5t-33 148.5q0 66 22 124t62.5 101t96.5 67.5t124 24.5t124 -24.5t96.5 -67.5t62.5 -101
t22 -124q0 -87 -33 -148.5t-108 -106.5h141v-111h-269z" />
    <glyph glyph-name="Omega" unicode="&#x2126;" horiz-adv-x="667" 
d="M364 0v98q75 43 107.5 106t32.5 148q0 39 -11 78t-33 70.5t-55 51.5t-77 20t-77 -19.5t-55 -51t-33 -71t-11 -78.5q0 -85 32.5 -148t107.5 -106v-98h-269v111h141q-75 45 -108 106.5t-33 148.5q0 66 22 124t62.5 101t96.5 67.5t124 24.5t124 -24.5t96.5 -67.5t62.5 -101
t22 -124q0 -87 -33 -148.5t-108 -106.5h141v-111h-269z" />
    <glyph glyph-name="pi" unicode="&#x3c0;" horiz-adv-x="659" 
d="M547 335v-335h-125v335h-184v-335h-125v335h-76v112h585v-112h-75z" />
    <glyph glyph-name="afii10023" unicode="&#x401;" horiz-adv-x="350" 
d="M351 543h-131l-18 -144h116l-16 -126h-115l-19 -150h133l-15 -123h-263l82 667h261zM393 783q0 -29 -21.5 -49.5t-49.5 -20.5q-23 0 -38 16t-15 39q0 29 20.5 50t48.5 21q24 0 39.5 -16.5t15.5 -39.5zM228 783q0 -28 -21 -49t-49 -21q-24 0 -39 16t-15 39q0 29 20.5 50
t48.5 21q23 0 39 -16.5t16 -39.5z" />
    <glyph glyph-name="afii10051" unicode="&#x402;" horiz-adv-x="532" 
d="M150 545h-102l15 122h354l-15 -122h-122l-18 -150q18 8 34 10t35 2q28 0 59.5 -8t60.5 -36q16 -16 26.5 -34.5t15.5 -38t7 -38t2 -34.5q0 -9 -1 -29t-6.5 -45.5t-17 -53t-32.5 -49.5q-21 -23 -51.5 -37.5t-74.5 -14.5q-22 0 -41 5t-39 17l43 112q5 -5 12 -8.5t18 -3.5
q22 0 36 15q12 13 17 35.5t5 41.5q0 4 -0.5 11.5t-2.5 16.5t-5.5 18t-10.5 17t-19 13.5t-32 5.5q-17 0 -30 -4t-23 -9l-34 -272h-130z" />
    <glyph glyph-name="afii10052" unicode="&#x403;" horiz-adv-x="343" 
d="M352 544h-132l-67 -544h-130l82 667h262zM291 875l81 -50l-114 -114l-61 36z" />
    <glyph glyph-name="afii10053" unicode="&#x404;" horiz-adv-x="418" 
d="M348 17q-28 -14 -54 -19t-47 -5q-45 0 -76.5 17t-51.5 38q-32 33 -52.5 87t-20.5 126q0 34 5.5 79t20 93t39.5 94t64 83q38 36 77 50t91 14q27 0 49 -4t46 -15l-19 -139q-20 21 -40.5 26.5t-32.5 5.5q-20 0 -40.5 -8.5t-40.5 -27.5q-20 -20 -36 -51t-23 -62h173l-14 -118
h-183q0 -29 6 -64t20 -56t33 -31t38 -10q20 0 44 8t44 27z" />
    <glyph glyph-name="afii10054" unicode="&#x405;" horiz-adv-x="385" 
d="M358 516q-19 18 -40.5 30.5t-48.5 12.5q-33 0 -53.5 -21.5t-20.5 -54.5q0 -24 12 -42.5t30.5 -35t39.5 -33t39.5 -37t30.5 -47t12 -62.5q0 -47 -15 -89.5t-43 -75.5t-67.5 -52.5t-88.5 -19.5q-30 0 -58 8t-52 26l16 126q21 -16 42.5 -26t48.5 -10q38 0 62.5 23.5
t24.5 61.5q0 5 -0.5 11.5t-2.5 11.5q-5 11 -13.5 20t-17.5 17q-8 7 -16 13l-16 12q-23 17 -41 34t-31 36.5t-19.5 43.5t-6.5 54q0 43 13.5 83.5t39 72t62.5 51t83 19.5q32 0 57.5 -7.5t53.5 -24.5z" />
    <glyph glyph-name="afii10055" unicode="&#x406;" horiz-adv-x="232" 
d="M153 0h-130l82 667h130z" />
    <glyph glyph-name="afii10056" unicode="&#x407;" horiz-adv-x="232" 
d="M153 0h-130l82 667h130zM287 797q0 -30 -16 -51.5t-36 -21.5q-17 0 -28 17t-11 41q0 29 15.5 51.5t35.5 22.5q17 0 28.5 -17t11.5 -42zM166 797q0 -29 -15.5 -51t-35.5 -22q-18 0 -29 16.5t-11 41.5q0 29 15 51.5t36 22.5q17 0 28.5 -17t11.5 -42z" />
    <glyph glyph-name="afii10057" unicode="&#x408;" horiz-adv-x="305" 
d="M251 205q-4 -29 -9.5 -59t-18.5 -57q-22 -47 -63.5 -73.5t-93.5 -26.5q-24 0 -47.5 5t-45.5 16l16 132q12 -17 27 -27t37 -10q21 0 33.5 9.5t19.5 24.5t10 32.5t5 33.5l57 462h130z" />
    <glyph glyph-name="afii10058" unicode="&#x409;" horiz-adv-x="691" 
d="M462 406h1q17 0 36.5 -2t40 -7.5t40 -16t36.5 -27.5q18 -17 34 -48.5t16 -81.5q0 -48 -15.5 -89.5t-42.5 -70.5q-34 -35 -81 -49t-106 -14h-137l67 542h-94l-35 -277q-7 -54 -16 -93.5t-20 -67.5t-22.5 -45.5t-22.5 -28.5q-27 -26 -56.5 -32.5t-54.5 -6.5q-17 0 -31.5 3
t-28.5 9l17 135q5 -5 12.5 -10t20.5 -5q23 0 37 14q4 4 9 11t10 20.5t10.5 35t9.5 54.5l50 409h348zM426 114h4q17 0 36.5 3t36.5 17q14 11 23.5 31.5t9.5 48.5q0 11 -3.5 27t-17.5 30q-15 14 -36 17.5t-31 3.5z" />
    <glyph glyph-name="afii10059" unicode="&#x40a;" horiz-adv-x="692" 
d="M495 667l-32 -261h1q17 0 36.5 -2t40 -7.5t40 -16t36.5 -27.5q18 -17 34 -48.5t16 -81.5q0 -48 -15.5 -89.5t-42.5 -70.5q-34 -35 -81 -49t-106 -14h-137l36 292h-131l-37 -292h-130l82 667h130l-32 -261h132l32 261h128zM427 114h4q17 0 36.5 3t36.5 17q14 11 23.5 31.5
t9.5 48.5q0 11 -3.5 27t-17.5 30q-15 14 -36 17.5t-31 3.5z" />
    <glyph glyph-name="afii10060" unicode="&#x40b;" horiz-adv-x="536" 
d="M150 545h-102l15 122h354l-15 -122h-122l-19 -150q20 6 38.5 8.5t43.5 2.5q11 0 26.5 -1t32 -5t33.5 -12t31 -22t24.5 -38t10.5 -59q0 -9 -1 -24t-6 -52l-23 -193h-130l21 170q3 26 4 38t1 17q0 12 -3.5 23t-14.5 20q-11 8 -23.5 10.5t-24.5 2.5q-31 0 -55 -9l-33 -272
h-130z" />
    <glyph glyph-name="afii10061" unicode="&#x40c;" horiz-adv-x="445" 
d="M314 356l93 -356h-133l-79 339l-42 -339h-130l82 667h130l-37 -298l147 298h132zM331 875l81 -50l-114 -114l-61 36z" />
    <glyph glyph-name="afii10062" unicode="&#x40e;" horiz-adv-x="442" 
d="M198 667l33 -165q3 -16 6 -29.5t5.5 -28t4.5 -31.5t4 -39q9 30 19 60t22 64l62 169h142l-284 -667h-132l96 230l-116 437h138zM456 823q-11 -31 -29.5 -54t-39.5 -36q-27 -17 -56 -21t-49 -4q-23 0 -52.5 4.5t-55.5 24.5q-19 14 -34 36t-22 51l103 28q2 -10 7 -20.5
t13 -18.5q10 -9 21 -12.5t24 -3.5q17 0 27.5 4t15.5 9q8 7 14.5 19t9.5 23z" />
    <glyph glyph-name="afii10145" unicode="&#x40f;" horiz-adv-x="494" 
d="M235 667l-67 -542h131l67 542h130l-82 -667h-135l-17 -130h-120l17 130h-136l82 667h130z" />
    <glyph glyph-name="afii10017" unicode="&#x410;" horiz-adv-x="453" 
d="M284 0l-11 112h-131l-37 -112h-130l235 667h137l75 -667h-138zM266 215q-5 70 -10.5 139.5t-2.5 140.5q-5 -26 -10.5 -51.5t-12.5 -51.5q-11 -45 -26 -88.5t-29 -88.5h91z" />
    <glyph glyph-name="afii10018" unicode="&#x411;" horiz-adv-x="420" 
d="M406 667l-15 -125h-171l-17 -136q43 2 83.5 -12.5t66.5 -40.5q16 -16 26 -34t15.5 -36t7 -35t1.5 -31q0 -57 -16 -94t-39 -60q-21 -21 -46 -33.5t-50 -19t-48.5 -8.5t-41.5 -2h-139l82 667h301zM167 114h4q15 0 35 4t37 21q13 12 20.5 31.5t7.5 45.5q0 23 -6.5 36
t-13.5 20q-14 14 -30.5 17t-29.5 3h-2z" />
    <glyph glyph-name="afii10019" unicode="&#x412;" horiz-adv-x="429" 
d="M244 667q30 0 62.5 -6.5t63.5 -36.5q27 -26 36 -57t9 -65q0 -37 -9 -66.5t-35 -55.5q-28 -29 -65 -38q21 -8 36.5 -20t24.5 -26q15 -23 18.5 -49t3.5 -38q0 -46 -15 -83.5t-41 -63.5q-20 -21 -42.5 -33t-45 -18.5t-44.5 -8.5t-40 -2h-138l82 667h139zM201 393
q20 0 36.5 7t26.5 18q14 14 20.5 35.5t6.5 38.5q0 19 -5 30t-10 17q-9 10 -24 14.5t-30 4.5zM167 114q24 0 40.5 8.5t26.5 17.5q18 17 23 37t5 38q0 14 -4 30t-17 29q-12 12 -24.5 14.5t-21.5 2.5h-6z" />
    <glyph glyph-name="afii10020" unicode="&#x413;" horiz-adv-x="343" 
d="M352 544h-132l-67 -544h-130l82 667h262z" />
    <glyph glyph-name="afii10021" unicode="&#x414;" horiz-adv-x="516" 
d="M496 667l-67 -542h54l-32 -255h-120l17 130h-246l-17 -130h-120l32 255q20 5 33 14t18 14q26 26 38.5 70.5t19.5 102.5l41 341h349zM230 304q-4 -32 -9 -59.5t-15 -51.5t-22.5 -40t-26.5 -28h140l52 417h-89z" />
    <glyph glyph-name="afii10022" unicode="&#x415;" horiz-adv-x="350" 
d="M351 543h-131l-18 -144h116l-16 -126h-115l-19 -150h133l-15 -123h-263l82 667h261z" />
    <glyph glyph-name="afii10024" unicode="&#x416;" horiz-adv-x="631" 
d="M452 0l-62 335l-41 -335h-126l41 335l-141 -335h-135l166 364l-85 303h129l70 -302l37 302h126l-37 -302l144 302h129l-159 -305l76 -362h-132z" />
    <glyph glyph-name="afii10025" unicode="&#x417;" horiz-adv-x="396" 
d="M84 640q33 23 62.5 30t57.5 7q29 0 63.5 -8t65.5 -37t40 -62.5t9 -63.5q0 -42 -11 -69.5t-22 -42.5q-10 -13 -28.5 -29t-48.5 -26q34 -10 59 -36q15 -16 24.5 -40t9.5 -55q0 -24 -5.5 -47.5t-15.5 -45.5t-23 -41t-28 -32q-19 -17 -55.5 -35t-94.5 -18q-31 0 -64.5 9
t-68.5 36l16 133q14 -19 42 -35q16 -8 31.5 -11.5t32.5 -3.5t35.5 4t33.5 20q11 12 17.5 29.5t6.5 33.5q0 20 -8 36t-21 26q-16 11 -35.5 13.5t-38.5 2.5h-11l15 120h20q17 0 37 3.5t37 15.5q11 8 20.5 22.5t9.5 40.5q0 18 -6 32t-15 22q-8 8 -22.5 13.5t-37.5 5.5
q-34 0 -60 -16q-10 -6 -21 -15t-20 -20z" />
    <glyph glyph-name="afii10026" unicode="&#x418;" horiz-adv-x="501" 
d="M105 667h130l-37 -302q-3 -22 -10 -50.5t-14 -49.5l207 402h122l-82 -667h-130l38 305q1 10 4 25.5t7 31t7 28t4 17.5l-206 -407h-122z" />
    <glyph glyph-name="afii10027" unicode="&#x419;" horiz-adv-x="501" 
d="M105 667h130l-37 -302q-3 -22 -10 -50.5t-14 -49.5l207 402h122l-82 -667h-130l38 305q1 10 4 25.5t7 31t7 28t4 17.5l-206 -407h-122zM487 823q-11 -31 -29.5 -54t-39.5 -36q-27 -17 -56 -21t-49 -4q-23 0 -52.5 4.5t-55.5 24.5q-19 14 -34 36t-22 51l103 28
q2 -10 7 -20.5t13 -18.5q10 -9 21 -12.5t24 -3.5q17 0 27.5 4t15.5 9q8 7 14.5 19t9.5 23z" />
    <glyph glyph-name="afii10028" unicode="&#x41a;" horiz-adv-x="445" 
d="M314 356l93 -356h-133l-79 339l-42 -339h-130l82 667h130l-37 -298l147 298h132z" />
    <glyph glyph-name="afii10029" unicode="&#x41b;" horiz-adv-x="494" 
d="M496 667l-82 -667h-130l67 542h-94l-35 -277q-7 -54 -16 -93.5t-20 -67.5t-22.5 -45.5t-22.5 -28.5q-27 -26 -56.5 -32.5t-54.5 -6.5q-17 0 -31.5 3t-28.5 9l17 135q5 -5 12.5 -10t20.5 -5q23 0 37 14q4 4 9 11t10 20.5t10.5 35t9.5 54.5l50 409h350z" />
    <glyph glyph-name="afii10030" unicode="&#x41c;" horiz-adv-x="636" 
d="M587 0h-133l26 480q-7 -39 -17 -77.5t-21 -76.5l-98 -326h-100q-7 85 -14 168t-11 168q-1 25 -2.5 50t-1.5 50q0 11 0.5 22t1.5 22l-79 -480h-140l140 667h171l16 -394l101 394h174z" />
    <glyph glyph-name="afii10031" unicode="&#x41d;" horiz-adv-x="494" 
d="M415 0h-130l36 295h-131l-37 -295h-130l82 667h130l-30 -247h131l30 247h130z" />
    <glyph glyph-name="afii10032" unicode="&#x41e;" horiz-adv-x="534" 
d="M517 434q0 -57 -8 -119t-27 -116q-14 -41 -37 -79t-54 -67t-70 -46.5t-85 -17.5q-49 0 -91.5 26t-66.5 68q-22 37 -28.5 76.5t-6.5 81.5q0 46 5 91.5t17 90.5q12 47 33.5 92.5t54 81.5t75 58t96.5 22q50 0 86.5 -21.5t60 -56t35 -78t11.5 -87.5zM378 427q0 17 -2.5 39
t-10.5 42t-22 34t-36 14q-29 0 -49.5 -22.5t-34.5 -54t-22 -65.5t-11 -56q-5 -28 -6.5 -56t-1.5 -57q0 -17 3 -39t10.5 -42t21.5 -34t36 -14q29 0 49.5 22.5t34.5 54t22 65.5t11 56q5 28 6.5 56t1.5 57z" />
    <glyph glyph-name="afii10033" unicode="&#x41f;" horiz-adv-x="489" 
d="M410 0h-130l66 542h-126l-67 -542h-130l82 667h386z" />
    <glyph glyph-name="afii10034" unicode="&#x420;" horiz-adv-x="428" 
d="M263 667q30 0 55 -2.5t52 -19.5q38 -23 54 -63.5t16 -83.5q0 -56 -19.5 -99t-53 -72.5t-80 -43t-100.5 -9.5l-34 -274h-130l82 667h158zM208 385q54 0 78.5 25.5t24.5 78.5q0 36 -14 53.5t-52 17.5h-23l-22 -175h8z" />
    <glyph glyph-name="afii10035" unicode="&#x421;" horiz-adv-x="418" 
d="M348 17q-21 -11 -45.5 -17.5t-55.5 -6.5q-38 0 -71 12t-62 41q-32 32 -50 85t-18 121q0 44 7.5 93t23 96t40 89.5t58.5 74.5q35 33 78.5 51t100.5 18q23 0 42.5 -4t41.5 -15l-19 -139q-20 21 -40.5 26.5t-32.5 5.5q-23 0 -43 -10t-37 -26q-20 -20 -35 -50.5t-25 -65
t-15 -70t-5 -64.5q0 -8 1 -21t4 -28.5t8.5 -31t15.5 -28.5q16 -20 34.5 -26.5t32.5 -6.5q19 0 41.5 7.5t43.5 27.5z" />
    <glyph glyph-name="afii10036" unicode="&#x422;" horiz-adv-x="334" 
d="M373 545h-102l-67 -545h-130l67 545h-102l15 122h334z" />
    <glyph glyph-name="afii10037" unicode="&#x423;" horiz-adv-x="442" 
d="M198 667l33 -165q3 -16 6 -29.5t5.5 -28t4.5 -31.5t4 -39q9 30 19 60t22 64l62 169h142l-284 -667h-132l96 230l-116 437h138z" />
    <glyph glyph-name="afii10038" unicode="&#x424;" horiz-adv-x="610" 
d="M221 86q-38 5 -68.5 21t-51.5 38q-20 20 -39 60.5t-19 108.5q0 16 2.5 45t11.5 63.5t28 70.5t52 65q20 18 57 37.5t92 22.5l9 78h130l-9 -78q45 -6 77.5 -27t51.5 -44q16 -20 25.5 -41.5t14.5 -42.5t6.5 -41t1.5 -35q0 -63 -18 -124.5t-58 -103.5q-29 -29 -72 -49
t-94 -24l-11 -86h-130zM355 204q32 3 49.5 16t21.5 17q12 13 20.5 32.5t13.5 40.5t7.5 42t2.5 38q0 14 -4 39t-22 45q-20 21 -53 26zM281 500q-11 -1 -28.5 -6t-35.5 -22q-14 -14 -23.5 -33t-15.5 -40.5t-8.5 -43t-2.5 -39.5q0 -33 8.5 -54t19.5 -33q8 -9 21 -16t29 -9z" />
    <glyph glyph-name="afii10039" unicode="&#x425;" horiz-adv-x="436" 
d="M299 344l109 -344h-151q-6 21 -13.5 48t-14.5 55t-12 55t-5 48q-20 -54 -44.5 -104.5t-49.5 -101.5h-146l181 344l-99 323h146q13 -46 28.5 -97t15.5 -99q16 52 42.5 100t52.5 96h140z" />
    <glyph glyph-name="afii10040" unicode="&#x426;" horiz-adv-x="506" 
d="M235 667l-67 -542h125l67 542h130l-67 -542h69l-34 -255h-120l19 130h-334l82 667h130z" />
    <glyph glyph-name="afii10041" unicode="&#x427;" horiz-adv-x="468" 
d="M294 292q-17 -5 -34 -8t-40 -3q-50 0 -79.5 13t-45.5 28q-22 21 -28.5 45t-6.5 47q0 7 0.5 23t5.5 51l22 179h130l-20 -165q-2 -11 -3 -21t-1 -21q0 -9 2.5 -20.5t13.5 -20.5q8 -7 21.5 -10t24.5 -3q5 0 19.5 1t33.5 9l31 251h130l-82 -667h-130z" />
    <glyph glyph-name="afii10042" unicode="&#x428;" horiz-adv-x="723" 
d="M235 667l-67 -542h115l67 542h130l-67 -542h115l67 542h130l-82 -667h-620l82 667h130z" />
    <glyph glyph-name="afii10043" unicode="&#x429;" horiz-adv-x="747" 
d="M235 667l-67 -542h115l67 542h130l-67 -542h115l67 542h130l-67 -542h75l-32 -255h-120l17 130h-575l82 667h130z" />
    <glyph glyph-name="afii10044" unicode="&#x42a;" horiz-adv-x="492" 
d="M145 542h-85l15 125h215l-32 -261h1q17 0 36.5 -2t40 -7.5t40 -16t36.5 -27.5q18 -17 34 -48.5t16 -81.5q0 -48 -15.5 -89.5t-42.5 -70.5q-34 -35 -81 -49t-106 -14h-139zM222 114h4q17 0 36.5 3t36.5 17q14 11 23.5 31.5t9.5 48.5q0 11 -3.5 27t-17.5 30
q-15 14 -36 17.5t-31 3.5z" />
    <glyph glyph-name="afii10045" unicode="&#x42b;" horiz-adv-x="626" 
d="M416 0l82 667h130l-82 -667h-130zM235 667l-32 -261h1q16 0 35 -2t39 -7.5t40 -16t37 -27.5t33.5 -48.5t16.5 -83.5q0 -47 -15 -88t-43 -70q-34 -35 -81 -49t-106 -14h-137l82 667h130zM167 114h4q15 0 34.5 3.5t36.5 16.5q14 11 23.5 31.5t9.5 48.5q0 11 -3.5 27
t-17.5 30q-14 13 -32.5 17t-32.5 4z" />
    <glyph glyph-name="afii10046" unicode="&#x42c;" horiz-adv-x="437" 
d="M235 667l-32 -261h1q17 0 36.5 -2t40 -7.5t40 -16t36.5 -27.5q18 -17 34 -48.5t16 -81.5q0 -48 -15.5 -89.5t-42.5 -70.5q-34 -35 -81 -49t-106 -14h-139l82 667h130zM167 114h4q17 0 36.5 3t36.5 17q14 11 23.5 31.5t9.5 48.5q0 11 -3.5 27t-17.5 30q-15 14 -36 17.5
t-31 3.5z" />
    <glyph glyph-name="afii10047" unicode="&#x42d;" horiz-adv-x="433" 
d="M44 158q19 -23 39.5 -30.5t37.5 -7.5q22 0 41.5 8t33.5 21q12 10 22.5 25t18.5 32.5t14 37t9 37.5h-159l17 118h155q1 7 1.5 13.5t0.5 13.5q0 27 -7.5 53.5t-24.5 43.5q-6 6 -21.5 15.5t-41.5 9.5q-23 0 -45.5 -8t-39.5 -21l19 136q27 11 52.5 15t47.5 4q38 0 71 -12
t62 -41q28 -29 48.5 -81.5t20.5 -136.5q0 -30 -4 -73t-15.5 -89.5t-33.5 -93t-58 -82.5q-22 -22 -44 -36t-45.5 -22t-47.5 -11t-50 -3q-28 0 -49 5t-44 22z" />
    <glyph glyph-name="afii10048" unicode="&#x42e;" horiz-adv-x="739" 
d="M275 406q8 54 32 110t62 95q35 36 73 51t82 15q35 0 66.5 -10t60.5 -37q22 -21 36 -47t22 -53.5t10.5 -55.5t2.5 -53q0 -46 -6.5 -96.5t-20.5 -100t-37.5 -93.5t-56.5 -77q-66 -65 -160 -65q-35 0 -69.5 11.5t-63.5 48.5q-18 22 -28.5 52t-15.5 61.5t-6.5 62.5t0.5 56
h-70l-35 -281h-130l82 667h130l-32 -261h72zM512 556q-17 0 -29 -7.5t-20 -15.5q-10 -10 -25.5 -37.5t-29.5 -88.5q-8 -37 -12.5 -79t-4.5 -78q0 -14 1 -30t4 -31.5t8 -29.5t13 -23q10 -12 21 -16t20 -4q11 0 23.5 4t26.5 17q19 18 33 50.5t23.5 72t14 81.5t4.5 77
q0 39 -6.5 70t-23.5 50q-17 18 -41 18z" />
    <glyph glyph-name="afii10049" unicode="&#x42f;" horiz-adv-x="469" 
d="M164 290q-20 9 -35.5 22t-26.5 28q-17 24 -23 50.5t-6 52.5q0 63 18.5 102.5t38.5 60.5q36 38 85.5 49.5t115.5 11.5h140l-82 -667h-130l34 276l-138 -276h-150zM316 561q-14 0 -37 -3.5t-42 -21.5q-14 -14 -21.5 -35t-7.5 -44q0 -26 8 -41t16 -22q11 -10 28.5 -15
t35.5 -5h9l23 187h-12z" />
    <glyph glyph-name="afii10065" unicode="&#x430;" horiz-adv-x="390" 
d="M323 0h-124l6 51q-15 -23 -36.5 -41.5t-51.5 -18.5q-31 0 -49.5 17t-28.5 42.5t-13.5 54.5t-3.5 52q0 29 2.5 57.5t8.5 57.5q5 26 15.5 58t27.5 59.5t41 46.5t56 19q30 0 48 -18t26 -45l7 55h123zM238 276q0 7 -0.5 18.5t-3.5 22t-9 18.5t-16 8q-19 0 -31 -21t-19 -49.5
t-9.5 -56.5t-2.5 -41q0 -8 1 -20t4 -23.5t9.5 -20t17.5 -8.5q18 0 29.5 22t18 51t9 57.5t2.5 42.5z" />
    <glyph glyph-name="afii10066" unicode="&#x431;" horiz-adv-x="395" 
d="M279 538q-21 -8 -43 -18.5t-40 -28.5q-20 -20 -31.5 -48t-15.5 -54q6 10 16.5 23t20.5 21q13 10 29 16t36 6q28 0 47 -10t30 -21q14 -14 22.5 -32t13 -37t5.5 -36.5t1 -30.5q0 -30 -4 -63.5t-12.5 -66.5t-22.5 -62.5t-35 -51.5q-21 -23 -51.5 -38t-73.5 -15
q-23 0 -48 7.5t-46 28.5q-17 17 -26.5 38.5t-14 44t-5.5 42.5t-1 34q0 57 6.5 108.5t17.5 103.5q8 42 24.5 91t54.5 91q18 19 37 31t44 21l14 5q38 14 55 20t25 14q5 5 8.5 12t4.5 17h99q-1 -24 -7.5 -49t-19.5 -44q-17 -25 -39 -37t-43 -20zM215 343q-8 0 -13 -3.5t-8 -6.5
q-7 -7 -12.5 -17t-9 -20.5t-5.5 -19.5t-3 -13q-4 -18 -7 -45.5t-3 -49.5q0 -2 0.5 -9.5t2 -16.5t4.5 -18t8 -14q7 -7 16 -7q11 0 20 9q6 6 14 21t15 48q5 21 7.5 47t2.5 46q0 35 -5 47t-8 15q-4 5 -8.5 6t-7.5 1z" />
    <glyph glyph-name="afii10067" unicode="&#x432;" horiz-adv-x="363" 
d="M209 447q19 0 49.5 -4.5t55.5 -26.5q13 -11 24 -31.5t11 -52.5q0 -26 -8.5 -45.5t-21.5 -33.5q-18 -19 -44 -25l14 -7t21 -14q12 -10 21 -27.5t9 -43.5q0 -23 -9.5 -49t-29.5 -46q-29 -29 -60 -35t-62 -6h-168l55 447h143zM168 266q12 0 26 3t23 11q18 15 18 39
q0 21 -14 33q-7 6 -19 8t-23 2zM145 85q13 0 28.5 3.5t25.5 12.5q8 7 13 18.5t5 25.5q0 13 -5 20.5t-10 12.5q-9 8 -21.5 10t-22.5 2z" />
    <glyph glyph-name="afii10068" unicode="&#x433;" horiz-adv-x="282" 
d="M177 343l-42 -343h-124l55 447h230l-13 -104h-106z" />
    <glyph glyph-name="afii10069" unicode="&#x434;" horiz-adv-x="419" 
d="M396 447l-42 -343h45l-27 -208h-102l14 104h-203l-14 -104h-102l27 208q28 8 45 25q21 20 29 49.5t12 59.5l26 209h292zM263 343h-62l-14 -114q-4 -30 -9 -49.5t-13 -34.5q-13 -24 -33 -41h102z" />
    <glyph glyph-name="afii10070" unicode="&#x435;" horiz-adv-x="367" 
d="M326 154q-4 -32 -19 -67t-40 -58t-52.5 -30.5t-50.5 -7.5q-26 0 -50.5 7.5t-46.5 30.5q-18 20 -32 52.5t-14 85.5q0 29 5 61.5t15.5 65t27 62t39.5 52.5q47 47 111 47q49 0 83 -32q15 -15 24 -33t13.5 -36t5.5 -35t1 -30q0 -5 -1.5 -29t-7.5 -59h-195q-3 -14 -4.5 -29.5
t-1.5 -27.5q0 -11 2 -26t10 -23q4 -4 10 -7t16 -3q22 0 35 22q5 8 8 22t5 25h104zM241 278q1 6 1.5 12t0.5 12q0 25 -8 40q-5 8 -11 13t-17 5q-6 0 -14 -3t-16 -11q-5 -6 -9.5 -14.5t-7.5 -18.5t-5 -19t-3 -16h89z" />
    <glyph glyph-name="afii10072" unicode="&#x436;" horiz-adv-x="541" 
d="M369 0l-43 206l-26 -206h-117l26 206l-95 -206h-130l126 240l-69 207h125l47 -206l25 206h117l-25 -206l95 206h128l-117 -208l63 -239h-130z" />
    <glyph glyph-name="afii10073" unicode="&#x437;" horiz-adv-x="340" 
d="M245 232q11 -4 22.5 -10.5t19.5 -15.5q7 -8 15 -23.5t8 -42.5q0 -29 -11 -56t-32 -48q-27 -27 -58 -36t-63 -9q-24 0 -46.5 4t-45.5 15q-16 8 -31 17.5t-28 20.5l64 91q5 -6 13 -13t16 -12q17 -11 41 -11q11 0 21 3t17 9q5 5 9 12.5t4 16.5q0 12 -5.5 18.5t-10.5 9.5
q-8 5 -21 6.5t-24 1.5h-25l12 94h22q11 0 24 2t21 6q12 6 16 14.5t4 16.5q0 18 -13 28q-8 6 -19 7.5t-15 1.5q-11 0 -19.5 -2t-17.5 -7q-18 -10 -32 -25l-40 95q35 26 69.5 35t67.5 9q24 0 56 -7t58 -33q32 -32 32 -79q0 -25 -7 -43t-18 -31q-7 -8 -19 -16.5t-31 -13.5z" />
    <glyph glyph-name="afii10074" unicode="&#x438;" horiz-adv-x="404" 
d="M184 447l-18 -149q-1 -8 -7 -44t-22 -83q13 27 21.5 43.5t13.5 26t8 15t5 9.5l95 182h111l-55 -447h-118l18 146q5 34 11.5 68.5t14.5 65.5q-10 -26 -23 -55.5t-27 -55.5l-90 -169h-111l55 447h118z" />
    <glyph glyph-name="afii10075" unicode="&#x439;" horiz-adv-x="404" 
d="M184 447l-18 -149q-1 -8 -7 -44t-22 -83q13 27 21.5 43.5t13.5 26t8 15t5 9.5l95 182h111l-55 -447h-118l18 146q5 34 11.5 68.5t14.5 65.5q-10 -26 -23 -55.5t-27 -55.5l-90 -169h-111l55 447h118zM380 613q-10 -32 -26 -50t-26 -26q-23 -17 -46.5 -22t-46.5 -5
q-20 0 -45.5 4t-48.5 21q-14 11 -29 30t-22 48l87 29q2 -11 7 -22t12 -17q13 -13 39 -13q20 0 36 13q16 14 21 39z" />
    <glyph glyph-name="afii10076" unicode="&#x43a;" horiz-adv-x="382" 
d="M211 0l-51 204l-25 -204h-124l55 447h124l-25 -204l91 204h134l-124 -222l75 -225h-130z" />
    <glyph glyph-name="afii10077" unicode="&#x43b;" horiz-adv-x="413" 
d="M345 0h-124l42 343h-62l-18 -149q-7 -54 -19.5 -98.5t-39.5 -70.5q-23 -22 -49.5 -28t-48.5 -6q-17 0 -29.5 2t-26.5 7l14 111q6 -6 12 -7.5t14 -1.5t15.5 1.5t15.5 8.5q14 13 20 38t10 58l29 239h300z" />
    <glyph glyph-name="afii10078" unicode="&#x43c;" horiz-adv-x="516" 
d="M191 0l-14 155q-6 61 -6 133l-55 -288h-122l109 447h133l18 -279l88 279h126l6 -447h-121l17 288q-8 -38 -16 -64t-16 -51l-60 -173h-87z" />
    <glyph glyph-name="afii10079" unicode="&#x43d;" horiz-adv-x="389" 
d="M170 290h62l20 157h124l-55 -447h-124l22 186h-62l-22 -186h-124l55 447h124z" />
    <glyph glyph-name="afii10080" unicode="&#x43e;" horiz-adv-x="386" 
d="M363 289q0 -47 -9 -99.5t-31.5 -96.5t-61 -73t-96.5 -29q-42 0 -69 15.5t-43.5 41.5t-23 59.5t-6.5 69.5q0 45 11 94t35 90t62 67.5t91 26.5q37 0 63.5 -13.5t44 -36t25.5 -52.5t8 -64zM237 277q0 7 -0.5 18.5t-3.5 22t-9 18t-16 7.5q-18 0 -30 -21t-18.5 -49.5
t-9.5 -56.5t-3 -41q0 -8 1 -20t4 -23.5t9 -20t17 -8.5q18 0 29.5 22t18 51.5t9 58t2.5 42.5z" />
    <glyph glyph-name="afii10081" unicode="&#x43f;" horiz-adv-x="387" 
d="M374 447l-55 -447h-124l42 343h-60l-42 -343h-124l55 447h308z" />
    <glyph glyph-name="afii10082" unicode="&#x440;" horiz-adv-x="389" 
d="M182 392q14 26 36 44.5t54 18.5q31 0 50 -16t29 -40t13 -52t3 -52q0 -29 -2.5 -58t-8.5 -58q-5 -26 -16 -58.5t-28.5 -61.5t-42 -48.5t-56.5 -19.5q-29 0 -46 17.5t-27 42.5l-31 -257h-124l80 653h124zM241 272q0 8 -1 20t-4 23.5t-9.5 19.5t-17.5 8q-18 0 -30 -22
t-18.5 -50.5t-9 -57.5t-2.5 -42q0 -8 1 -19.5t4 -22t9 -18.5t17 -8q18 0 30 21.5t19 49.5t9.5 56t2.5 42z" />
    <glyph glyph-name="afii10083" unicode="&#x441;" horiz-adv-x="277" 
d="M270 333q-12 15 -33 15q-26 0 -42.5 -16.5t-27 -40t-14.5 -50t-4 -46.5q0 -15 2 -30t8 -28t17 -21t29 -8q11 0 20.5 3.5t18.5 9.5l-14 -114q-20 -8 -35.5 -12t-36.5 -4q-38 0 -64 16t-42 42t-23 58t-7 65q0 57 18 117.5t55 105.5q26 32 56.5 46.5t71.5 14.5
q19 0 31.5 -2.5t29.5 -10.5z" />
    <glyph glyph-name="afii10084" unicode="&#x442;" horiz-adv-x="295" 
d="M227 343l-42 -343h-124l42 343h-80l13 104h284l-13 -104h-80z" />
    <glyph glyph-name="afii10085" unicode="&#x443;" horiz-adv-x="359" 
d="M123 -206h-120l93 215l-74 438h123l22 -163q3 -23 5.5 -46t3.5 -46l89 255h124z" />
    <glyph glyph-name="afii10086" unicode="&#x444;" horiz-adv-x="530" 
d="M175 -6q-38 5 -62 20t-37 29q-17 17 -27.5 36.5t-16 39t-7.5 38t-2 35.5q0 74 22.5 123.5t51.5 78.5q6 6 17.5 15t28.5 18t39 16.5t50 9.5l26 214h124l-26 -214q32 -6 58 -20t43 -33q16 -17 26 -37t15.5 -40t7 -39.5t1.5 -35.5q0 -69 -21.5 -120t-53.5 -81
q-6 -5 -17.5 -14t-28 -17t-38.5 -14.5t-49 -7.5l-25 -200h-124zM302 103q19 3 31 10.5t19 14.5q11 12 18.5 28t12 33.5t6.5 35t2 31.5q0 11 -3.5 33.5t-17.5 37.5q-13 15 -39 18zM229 345q-18 -2 -30.5 -9t-20.5 -15q-11 -11 -18 -26t-12 -32.5t-7 -35.5t-2 -34
q0 -12 3.5 -31t15.5 -35q11 -14 22.5 -18.5t19.5 -5.5z" />
    <glyph glyph-name="afii10087" unicode="&#x445;" horiz-adv-x="380" 
d="M255 240l100 -240h-130l-24 65q-6 17 -11 31t-12 39l-10.5 -21t-9 -16t-9 -13.5t-9.5 -14.5l-44 -70h-127l156 240l-84 207h126l16 -41q5 -13 10 -32t8 -35q9 21 17 34.5t17 27.5l30 46h127z" />
    <glyph glyph-name="afii10088" unicode="&#x446;" horiz-adv-x="401" 
d="M11 0l55 447h124l-42 -343h62l42 343h124l-42 -343h54l-27 -208h-104l14 104h-260z" />
    <glyph glyph-name="afii10089" unicode="&#x447;" horiz-adv-x="383" 
d="M214 184q-27 -10 -59 -10q-37 0 -59 9t-34 21q-17 17 -22 37t-5 37q0 13 1 24.5t3 22.5l15 122h122l-16 -124q0 -2 -0.5 -5.5t-0.5 -7.5q0 -6 1.5 -12.5t6.5 -11.5t13 -6.5t15 -1.5q11 0 18.5 2.5t12.5 4.5l20 162h124l-55 -447h-124z" />
    <glyph glyph-name="afii10090" unicode="&#x448;" horiz-adv-x="563" 
d="M388 104l42 343h120l-55 -447h-484l55 447h120l-42 -343h62l42 343h120l-42 -343h62z" />
    <glyph glyph-name="afii10091" unicode="&#x449;" horiz-adv-x="579" 
d="M388 104l42 343h120l-42 -343h58l-26 -208h-104l13 104h-438l55 447h120l-42 -343h62l42 343h120l-42 -343h62z" />
    <glyph glyph-name="afii10092" unicode="&#x44a;" horiz-adv-x="411" 
d="M99 343h-71l13 104h195l-20 -164h12q29 0 58 -4t54 -21q19 -13 35 -37t16 -67q0 -39 -13 -65.5t-30 -43.5q-15 -15 -32.5 -24t-35 -13.5t-33 -6t-27.5 -1.5h-163zM198 88q14 0 27.5 4t22.5 12t13 21t4 25q0 15 -5 23t-10 12q-8 7 -20.5 8.5t-22.5 1.5h-2l-13 -107h6z" />
    <glyph glyph-name="afii10093" unicode="&#x44b;" horiz-adv-x="545" 
d="M353 0l55 447h124l-55 -447h-124zM190 447l-20 -164h8q29 0 58 -4t54 -21q32 -22 41.5 -51t9.5 -52q0 -44 -15.5 -72t-33.5 -44q-15 -14 -32 -21.5t-33.5 -11.5t-31.5 -5t-25 -1h-159l55 447h124zM152 88q14 0 27.5 4t22.5 12t13 21t4 25q0 15 -5 23t-10 12
q-8 7 -20.5 8.5t-22.5 1.5h-2l-13 -107h6z" />
    <glyph glyph-name="afii10094" unicode="&#x44c;" horiz-adv-x="365" 
d="M190 447l-20 -164h12q29 0 58 -4t54 -21q19 -13 35 -37t16 -67q0 -39 -13 -65.5t-30 -43.5q-15 -15 -32.5 -24t-35 -13.5t-33 -6t-27.5 -1.5h-163l55 447h124zM152 88q14 0 27.5 4t22.5 12t13 21t4 25q0 15 -5 23t-10 12q-8 7 -20.5 8.5t-22.5 1.5h-2l-13 -107h6z" />
    <glyph glyph-name="afii10095" unicode="&#x44d;" horiz-adv-x="323" 
d="M25 140q16 -23 34.5 -29t29.5 -6t24.5 3.5t26.5 16.5q9 10 17 26t11 32h-106l11 90h104q0 16 -5 32t-15 27q-11 11 -23 14.5t-23 3.5t-27.5 -4.5t-33.5 -24.5l14 116q21 11 39.5 15t37.5 4q39 0 66 -12t44 -30q24 -25 36.5 -64t12.5 -87q0 -11 -1.5 -36.5t-9 -57.5
t-22.5 -66t-42 -62q-29 -30 -59 -40t-66 -10q-21 0 -43 5.5t-47 26.5z" />
    <glyph glyph-name="afii10096" unicode="&#x44e;" horiz-adv-x="569" 
d="M223 280q7 35 23 69t39 57q26 27 56 38t63 11q37 0 60.5 -11.5t37.5 -25.5q28 -28 36 -65.5t8 -68.5q0 -29 -4 -62t-13 -65t-23 -61.5t-34 -51.5q-21 -23 -51.5 -38t-73.5 -15q-22 0 -46 6.5t-45 26.5q-27 26 -36.5 65t-9.5 87h-53l-22 -176h-124l55 447h124l-21 -167h54
zM391 343q-8 0 -13 -3.5t-8 -6.5q-7 -7 -12.5 -17t-9 -20.5t-5.5 -19.5t-3 -13q-4 -18 -7 -45.5t-3 -49.5q0 -2 0.5 -9.5t2 -16.5t4.5 -18t8 -14q7 -7 16 -7q11 0 20 9q6 6 14 21t15 48q5 21 7.5 47t2.5 46q0 35 -5 47t-8 15q-4 5 -8.5 6t-7.5 1z" />
    <glyph glyph-name="afii10097" unicode="&#x44f;" horiz-adv-x="393" 
d="M105 169q-16 6 -26.5 15t-18.5 20q-12 17 -15.5 34.5t-3.5 35.5q0 27 8 60.5t37 62.5q30 31 71.5 40.5t95.5 9.5h127l-55 -447h-124l21 169l-88 -169h-134zM244 353h-4q-15 0 -29.5 -2.5t-26.5 -13.5q-18 -16 -18 -49q0 -10 3.5 -20.5t14.5 -18.5t23 -9.5t20 -1.5h3z" />
    <glyph glyph-name="afii10071" unicode="&#x451;" horiz-adv-x="367" 
d="M251 562q0 29 22 51q19 19 46 19q21 0 36 -15q8 -8 12.5 -17.5t4.5 -22.5q0 -28 -20 -48q-9 -9 -22.5 -15t-27.5 -6q-9 0 -18.5 3.5t-17.5 11.5q-15 15 -15 39zM326 154q-4 -32 -19 -67t-40 -58t-52.5 -30.5t-50.5 -7.5q-26 0 -50.5 7.5t-46.5 30.5q-18 20 -32 52.5
t-14 85.5q0 29 5 61.5t15.5 65t27 62t39.5 52.5q47 47 111 47q49 0 83 -32q15 -15 24 -33t13.5 -36t5.5 -35t1 -30q0 -5 -1.5 -29t-7.5 -59h-195q-3 -14 -4.5 -29.5t-1.5 -27.5q0 -11 2 -26t10 -23q4 -4 10 -7t16 -3q22 0 35 22q5 8 8 22t5 25h104zM241 278q1 6 1.5 12
t0.5 12q0 25 -8 40q-5 8 -11 13t-17 5q-6 0 -14 -3t-16 -11q-5 -6 -9.5 -14.5t-7.5 -18.5t-5 -19t-3 -16h89zM84 562q0 29 22 51q19 19 46 19q21 0 36 -15q8 -8 12.5 -17.5t4.5 -22.5q0 -28 -20 -48q-9 -9 -22.5 -15t-27.5 -6q-9 0 -18.5 3.5t-17.5 11.5q-15 15 -15 39z" />
    <glyph glyph-name="afii10099" unicode="&#x452;" horiz-adv-x="394" 
d="M215 595h108l-10 -88h-109l-18 -150q7 11 17 23.5t21 22.5q16 14 35 23t43 9q20 0 32.5 -6.5t18.5 -14.5q12 -14 14.5 -33.5t2.5 -30.5q0 -15 -1.5 -35.5t-3.5 -31.5l-42 -341q-3 -24 -12.5 -54.5t-32.5 -54.5q-25 -26 -53.5 -32.5t-52.5 -6.5q-17 0 -31.5 2.5t-31.5 8.5
l14 110q6 -5 12.5 -7t17.5 -2q7 0 15 2t16 9q6 6 11.5 17.5t7.5 32.5l35 287q0 3 0.5 7t0.5 9q0 9 -1 18t-5 14q-2 3 -6 5.5t-12 2.5t-13 -2.5t-9 -5.5q-11 -11 -15 -29t-6 -30l-30 -243h-124l62 507h-55l10 88h55l17 134h124z" />
    <glyph glyph-name="afii10100" unicode="&#x453;" horiz-adv-x="282" 
d="M177 343l-42 -343h-124l55 447h230l-13 -104h-106zM199 517l-56 36l100 128l83 -42z" />
    <glyph glyph-name="afii10101" unicode="&#x454;" horiz-adv-x="327" 
d="M265 12q-20 -11 -41 -16t-47 -5q-27 0 -55.5 7.5t-52.5 32.5q-18 19 -32 53t-14 89q0 27 4 58.5t13 63t23.5 60t35.5 50.5q29 29 62.5 40t69.5 11q18 0 39 -4.5t47 -18.5l-14 -115q-5 8 -19 19t-44 11q-32 0 -53 -21q-11 -11 -17.5 -25.5t-8.5 -27.5h102l-12 -92h-102
q-1 -14 2.5 -29t10.5 -25q11 -17 26.5 -21t29.5 -4q11 0 27.5 4t34.5 23z" />
    <glyph glyph-name="afii10102" unicode="&#x455;" horiz-adv-x="310" 
d="M258 326q-11 13 -24 21.5t-31 8.5q-16 0 -26 -10.5t-10 -26.5t18.5 -26.5t40.5 -25t40.5 -36.5t18.5 -62q0 -35 -11.5 -67t-32.5 -57t-51 -39.5t-67 -14.5t-67.5 14t-58.5 37l66 89q13 -12 26 -20t31 -8t30.5 11.5t12.5 30.5q0 18 -19 29t-42 25.5t-42 38t-19 66.5
q0 35 13.5 63t36 47.5t52.5 30t63 10.5t59.5 -9t52.5 -29z" />
    <glyph glyph-name="afii10103" unicode="&#x456;" horiz-adv-x="203" 
d="M225 602q0 -18 -7.5 -34t-19.5 -28t-28 -19t-34 -7q-29 0 -48.5 20.5t-19.5 49.5q0 18 7.5 34t19.5 28t28 19t34 7q30 0 49 -20.5t19 -49.5zM135 0h-124l55 447h124z" />
    <glyph glyph-name="afii10104" unicode="&#x457;" horiz-adv-x="203" 
d="M135 0h-124l55 447h124zM231 590q0 -30 -12.5 -51.5t-29.5 -21.5q-14 0 -22.5 17t-8.5 41q0 29 12 51.5t29 22.5q14 0 23 -17t9 -42zM134 590q0 -29 -12.5 -51t-29.5 -22q-14 0 -23 16.5t-9 41.5q0 29 12.5 51.5t29.5 22.5q14 0 23 -17t9 -42z" />
    <glyph glyph-name="afii10105" unicode="&#x458;" horiz-adv-x="201" 
d="M223 602q0 -18 -7.5 -34t-19.5 -28t-28 -19t-34 -7q-29 0 -48.5 20.5t-19.5 49.5q0 18 7.5 34t19.5 28t28 19t34 7q30 0 49 -20.5t19 -49.5zM108 -206h-124l80 653h124z" />
    <glyph glyph-name="afii10106" unicode="&#x459;" horiz-adv-x="575" 
d="M380 283h12q29 0 58 -4t54 -21q19 -13 35 -37t16 -67q0 -39 -13 -65.5t-30 -43.5q-15 -15 -32.5 -24t-35 -13.5t-33 -6t-27.5 -1.5h-163l42 343h-62l-18 -149q-7 -54 -19.5 -98.5t-39.5 -70.5q-23 -22 -49.5 -28t-48.5 -6q-17 0 -29.5 2t-26.5 7l14 111q6 -6 12 -7.5
t14 -1.5t15.5 1.5t15.5 8.5q14 13 20 38t10 58l29 239h300zM362 88q14 0 27.5 4t22.5 12t13 21t4 25q0 15 -5 23t-10 12q-8 7 -20.5 8.5t-22.5 1.5h-2l-13 -107h6z" />
    <glyph glyph-name="afii10107" unicode="&#x45a;" horiz-adv-x="550" 
d="M375 447l-20 -164h12q29 0 58 -4t54 -21q19 -13 35 -37t16 -67q0 -39 -13 -65.5t-30 -43.5q-15 -15 -32.5 -24t-35 -13.5t-33 -6t-27.5 -1.5h-163l24 195h-61l-24 -195h-124l55 447h124l-21 -164h62l20 164h124zM337 88q14 0 27.5 4t22.5 12t13 21t4 25q0 15 -5 23
t-10 12q-8 7 -20.5 8.5t-22.5 1.5h-2l-13 -107h6z" />
    <glyph glyph-name="afii10108" unicode="&#x45b;" horiz-adv-x="395" 
d="M80 507h-55l10 88h55l17 134h124l-17 -134h108l-10 -88h-108l-18 -150q20 32 47 55t68 23q38 0 53 -24t15 -58q0 -19 -2.5 -37t-4.5 -37l-34 -279h-124l30 235q3 22 3 46q0 11 -5 20t-18 9t-21 -8t-12.5 -19.5t-6.5 -24.5t-3 -23l-29 -235h-124z" />
    <glyph glyph-name="afii10109" unicode="&#x45c;" horiz-adv-x="382" 
d="M211 0l-51 204l-25 -204h-124l55 447h124l-25 -204l91 204h134l-124 -222l75 -225h-130zM240 517l-56 36l100 128l83 -42z" />
    <glyph glyph-name="afii10110" unicode="&#x45e;" horiz-adv-x="359" 
d="M123 -206h-120l93 215l-74 438h123l22 -163q3 -23 5.5 -46t3.5 -46l89 255h124zM361 613q-10 -32 -26 -50t-26 -26q-23 -17 -46.5 -22t-46.5 -5q-20 0 -45.5 4t-48.5 21q-14 11 -29 30t-22 48l87 29q2 -11 7 -22t12 -17q13 -13 39 -13q20 0 36 13q16 14 21 39z" />
    <glyph glyph-name="afii10193" unicode="&#x45f;" horiz-adv-x="389" 
d="M11 0l55 447h124l-42 -343h62l42 343h124l-55 -447h-103l-13 -104h-104l13 104h-103z" />
    <glyph glyph-name="afii10146" unicode="&#x462;" horiz-adv-x="470" 
d="M117 498h-77l14 114h77l11 84h130l-11 -84h114l-14 -114h-114l-11 -92h6q55 0 91 -16t57 -37q18 -17 34 -48.5t16 -81.5q0 -48 -15.5 -89.5t-42.5 -70.5q-34 -35 -81 -49t-106 -14h-139zM200 114h4q17 0 36.5 3t36.5 17q14 11 23.5 31.5t9.5 48.5q0 11 -3.5 27t-17.5 30
q-15 14 -36 17.5t-31 3.5z" />
    <glyph glyph-name="afii10194" unicode="&#x463;" horiz-adv-x="382" 
d="M70 343h-50l13 104h50l27 220h125l-27 -220h90l-13 -104h-90l-8 -60h12q29 0 58 -4t54 -21q19 -13 35 -37t16 -67q0 -39 -13 -65.5t-30 -43.5q-15 -15 -32.5 -24t-35 -13.5t-33 -6t-27.5 -1.5h-163zM169 88q14 0 27.5 4t22.5 12t13 21t4 25q0 15 -5 23t-10 12
q-8 7 -21 8.5t-24 1.5l-13 -107h6z" />
    <glyph glyph-name="afii10147" unicode="&#x472;" horiz-adv-x="534" 
d="M324 677q45 0 74.5 -15t47.5 -32q22 -21 36 -47t22 -53.5t10.5 -55t2.5 -51.5q0 -47 -6.5 -98t-20.5 -100t-38 -93t-58 -77q-39 -38 -79.5 -52t-76.5 -14q-35 0 -67.5 12t-61.5 42q-21 22 -33.5 47.5t-20 51.5t-10 52t-2.5 50q0 50 6.5 101t21 98.5t37.5 90t55 74.5
q38 38 79.5 53.5t81.5 15.5zM378 406q1 59 -8 89t-22 43q-16 18 -42 18q-10 0 -22 -4.5t-26 -18.5q-19 -19 -36 -55.5t-24 -71.5h180zM183 281q-1 -11 -1.5 -28.5t1.5 -37t7.5 -39t16.5 -34.5q19 -26 46 -26q9 0 22.5 4t28.5 19q10 10 20 26t18 35.5t13.5 40t8.5 40.5h-181z
" />
    <glyph glyph-name="afii10195" unicode="&#x473;" horiz-adv-x="386" 
d="M222 455q35 0 59 -11.5t38 -25.5q28 -28 36 -65.5t8 -68.5q0 -29 -4 -62t-13 -65t-23 -61.5t-34 -51.5q-29 -32 -62 -42.5t-65 -10.5q-26 0 -51 8.5t-46 31.5q-15 17 -23.5 38t-12.5 41t-5 37t-1 26q0 29 4.5 61t14 62.5t24.5 58.5t37 50q26 26 56 38t63 12zM237 274
q0 29 -2.5 45.5t-10.5 24.5q-6 6 -16 6q-11 0 -20 -9q-12 -11 -19.5 -32t-9.5 -35h78zM147 182q0 -42 5 -57.5t10 -20.5q7 -7 16 -7q8 0 13 3t9 7q12 13 18.5 35t9.5 40h-81z" />
    <glyph glyph-name="afii10148" unicode="&#x474;" horiz-adv-x="478" 
d="M268 0h-106l-108 667h140l38 -258q5 -31 7.5 -62t2.5 -63v-56q11 42 20.5 83.5t24.5 82.5l6 15l104 258h135z" />
    <glyph glyph-name="afii10196" unicode="&#x475;" horiz-adv-x="361" 
d="M209 0h-114l-71 447h121l16 -126t13 -127q21 64 44 127l46 126h127z" />
    <glyph glyph-name="afii10050" unicode="&#x490;" horiz-adv-x="383" 
d="M283 667l15 125h120l-30 -248h-168l-67 -544h-130l82 667h178z" />
    <glyph glyph-name="afii10098" unicode="&#x491;" horiz-adv-x="333" 
d="M11 0l55 447h165l12 100h104l-25 -204h-145l-42 -343h-124z" />
    <glyph glyph-name="uni0492" unicode="&#x492;" horiz-adv-x="361" 
d="M238 544l-18 -142h121l-15 -127h-121l-34 -275h-130l34 275h-65l15 127h65l33 265h262l-15 -123h-132z" />
    <glyph glyph-name="uni0493" unicode="&#x493;" horiz-adv-x="308" 
d="M203 343l-10 -83h84l-13 -104h-84l-19 -156h-124l19 156h-51l13 104h51l23 187h230l-13 -104h-106z" />
    <glyph glyph-name="uni0494" unicode="&#x494;" horiz-adv-x="472" 
d="M220 544l-18 -149q18 8 34 10t35 2q28 0 59.5 -8t60.5 -36q16 -16 26.5 -34.5t15.5 -38t7 -38t2 -34.5q0 -9 -1 -29t-6.5 -45.5t-17 -53t-32.5 -49.5q-21 -23 -51.5 -37.5t-74.5 -14.5q-22 0 -41 5t-39 17l43 112q5 -5 12 -8.5t18 -3.5q22 0 36 15q12 13 17 35.5t5 41.5
q0 4 -0.5 11.5t-2.5 16.5t-5.5 18t-10.5 17t-19 13.5t-32 5.5q-17 0 -30 -4t-23 -9l-34 -272h-130l82 667h284l-15 -123h-154z" />
    <glyph glyph-name="uni0495" unicode="&#x495;" horiz-adv-x="369" 
d="M177 343l-10 -83q4 0 7 0.5t7 0.5q36 -1 67.5 -13t50.5 -32q25 -26 35 -65.5t10 -78.5q0 -14 -2 -40t-10 -57.5t-24 -64t-44 -59.5q-23 -23 -59 -40t-86 -17h-10l13 108q6 0 16.5 2.5t22.5 10.5q13 9 23.5 25t18.5 40q5 17 9 43t4 48q0 4 -0.5 13t-2 18.5t-5.5 19.5
t-10 17t-17.5 12t-26.5 5l-19 -156h-124l55 447h240l-13 -104h-116z" />
    <glyph glyph-name="uni0496" unicode="&#x496;" horiz-adv-x="637" 
d="M268 365l37 302h126l-37 -302l144 302h129l-159 -305l49 -237h69l-31 -255h-120l16 130h-39l-62 335l-41 -335h-126l41 335l-141 -335h-135l166 364l-85 303h129z" />
    <glyph glyph-name="uni0497" unicode="&#x497;" horiz-adv-x="541" 
d="M166 447l47 -206l25 206h117l-25 -206l95 206h128l-117 -208l36 -135h54l-25 -208h-104l12 104h-40l-43 206l-26 -206h-117l26 206l-95 -206h-130l126 240l-69 207h125z" />
    <glyph glyph-name="uni0498" unicode="&#x498;" horiz-adv-x="396" 
d="M84 640q33 23 62.5 30t55.5 7q30 0 65.5 -8t65.5 -37q31 -29 40 -62.5t9 -63.5q0 -42 -11 -69.5t-22 -42.5q-10 -13 -28.5 -29t-48.5 -26q34 -10 59 -36q20 -23 27 -48.5t7 -47.5q0 -49 -14.5 -87t-39.5 -66q-23 -26 -46.5 -37.5t-45.5 -16.5l-16 -130h-120l16 126
q-27 3 -49 13t-40 25l16 133q14 -19 42 -35q16 -8 31.5 -11.5t32.5 -3.5t35.5 4t33.5 20q11 12 17.5 29.5t6.5 33.5q0 20 -8 36t-21 26q-16 11 -35.5 13.5t-38.5 2.5h-11l15 120h20q17 0 37 3.5t37 15.5q11 8 20.5 22.5t9.5 40.5q0 18 -6 32t-15 22q-8 8 -22.5 13.5
t-37.5 5.5q-34 0 -60 -16q-10 -6 -21 -15t-20 -20z" />
    <glyph glyph-name="uni0499" unicode="&#x499;" horiz-adv-x="340" 
d="M255 232q17 -8 25.5 -16t12.5 -13q11 -14 14 -29.5t3 -29.5q0 -23 -8 -51.5t-34 -55.5q-17 -18 -36 -27t-39 -12l-12 -102h-104l13 103q-19 4 -41 14t-54 35l64 91q5 -6 13 -13t16 -12q17 -11 41 -11q11 0 21 3t17 9q5 5 9 12.5t4 16.5q0 12 -5.5 18.5t-10.5 9.5
q-8 5 -21 6.5t-24 1.5h-25l12 94h22q11 0 24 2t21 6q12 6 16 14.5t4 16.5q0 18 -13 28q-8 6 -19 7.5t-15 1.5q-11 0 -19.5 -2t-17.5 -7q-18 -10 -32 -25l-40 95q35 26 69.5 35t67.5 9q24 0 56 -7t58 -33q32 -32 32 -79q0 -42 -21 -69q-18 -23 -44 -35z" />
    <glyph glyph-name="uni049A" unicode="&#x49a;" horiz-adv-x="449" 
d="M318 359l56 -234h69l-31 -255h-120l16 130h-39l-74 339l-42 -339h-130l82 667h130l-37 -298l147 298h132z" />
    <glyph glyph-name="uni049B" unicode="&#x49b;" horiz-adv-x="382" 
d="M190 447l-25 -204l91 204h134l-124 -222l41 -121h54l-26 -208h-104l13 104h-33l-51 204l-25 -204h-124l55 447h124z" />
    <glyph glyph-name="uni049C" unicode="&#x49c;" horiz-adv-x="558" 
d="M153 0h-130l82 667h130l-32 -261h50l19 153h76l-24 -190l134 298h132l-152 -309l74 -358h-134l-59 330l-24 -201h-76l19 152h-50z" />
    <glyph glyph-name="uni049D" unicode="&#x49d;" horiz-adv-x="476" 
d="M135 0h-124l55 447h124l-22 -182h32l13 111h70l-16 -131l87 202h130l-111 -215l65 -232h-133l-42 202l-16 -124h-70l12 104h-32z" />
    <glyph glyph-name="uni04A0" unicode="&#x4a0;" horiz-adv-x="517" 
d="M390 359l93 -359h-137l-79 339l-42 -339h-130l67 545h-114l15 122h244l-37 -298l147 298h132z" />
    <glyph glyph-name="uni04A1" unicode="&#x4a1;" horiz-adv-x="450" 
d="M279 0l-51 204l-25 -204h-124l42 343h-91l13 104h215l-25 -204l91 204h134l-124 -222l75 -225h-130z" />
    <glyph glyph-name="uni04A2" unicode="&#x4a2;" horiz-adv-x="514" 
d="M235 667l-30 -247h131l30 247h130l-65 -542h69l-31 -255h-120l16 130h-80l36 295h-131l-37 -295h-130l82 667h130z" />
    <glyph glyph-name="uni04A3" unicode="&#x4a3;" horiz-adv-x="401" 
d="M170 290h62l20 157h124l-42 -343h54l-25 -208h-104l12 104h-74l22 186h-62l-22 -186h-124l55 447h124z" />
    <glyph glyph-name="uni04A4" unicode="&#x4a4;" horiz-adv-x="585" 
d="M594 544h-114l-67 -544h-130l37 295h-130l-37 -295h-130l82 667h130l-30 -247h130l30 247h244z" />
    <glyph glyph-name="uni04A5" unicode="&#x4a5;" horiz-adv-x="454" 
d="M170 290h62l20 157h216l-13 -104h-92l-42 -343h-124l22 186h-62l-22 -186h-124l55 447h124z" />
    <glyph glyph-name="uni04AA" unicode="&#x4aa;" horiz-adv-x="420" 
d="M213 6q-42 14 -73 42t-52 65t-31.5 81t-10.5 91q0 68 23.5 137t66.5 125t104 91.5t135 35.5q18 0 33 -2.5t32 -9.5l-15 -121q-22 7 -49 7q-48 0 -84 -23t-60 -58.5t-36 -79t-12 -85.5q0 -32 8 -64t24.5 -58.5t42.5 -43t63 -16.5q25 0 53 10l-16 -126q-8 -3 -15 -4.5
t-15 -3.5l-24 -119h-120z" />
    <glyph glyph-name="uni04AB" unicode="&#x4ab;" horiz-adv-x="277" 
d="M270 333q-8 11 -19 13t-16 2q-11 0 -23.5 -6t-23.5 -17q-16 -17 -27.5 -51t-11.5 -79q0 -32 6 -49t14 -25t17 -10.5t17 -2.5q15 0 25.5 4.5t15.5 8.5l-14 -114q-8 -5 -19 -7l-13 -104h-104l13 106q-18 6 -33.5 18.5t-28.5 37.5q-13 24 -18 54t-5 62q0 33 6 66.5
t17.5 64.5t27 57.5t34.5 46.5q27 27 55 37t61 10q17 0 30.5 -2.5t30.5 -10.5z" />
    <glyph glyph-name="uni04AE" unicode="&#x4ae;" horiz-adv-x="440" 
d="M295 285l-36 -285h-130l35 285l-110 382h143l33 -153q2 -8 4 -21t4 -26.5t3.5 -25.5t2.5 -18q10 28 18.5 49t19.5 45l67 150h145z" />
    <glyph glyph-name="uni04AF" unicode="&#x4af;" horiz-adv-x="365" 
d="M145 447l16 -121q4 -30 8 -60.5t7 -77.5q13 44 23.5 73.5t20.5 55.5l50 130h125l-176 -408l-31 -245h-124l31 245l-75 408h125z" />
    <glyph glyph-name="uni04B0" unicode="&#x4b0;" horiz-adv-x="442" 
d="M296 289l-2 -19h106l-14 -120h-106l-19 -150h-130l19 150h-106l14 120h106l3 19l-111 378h143l33 -153q2 -8 4 -21t4 -26.5t3.5 -25.5t2.5 -18q10 28 18.5 49t19.5 45l67 150h145z" />
    <glyph glyph-name="uni04B1" unicode="&#x4b1;" horiz-adv-x="369" 
d="M24 447h125l16 -121q4 -30 8 -60.5t7 -77.5q13 44 23.5 73.5t20.5 55.5l50 130h125l-173 -388l-2 -17h98l-11 -88h-98l-20 -160h-124l19 160h-98l11 88h98l2 17z" />
    <glyph glyph-name="uni04B2" unicode="&#x4b2;" horiz-adv-x="441" 
d="M299 344l68 -219h69l-31 -255h-120l16 130h-44q-6 21 -13.5 48t-14.5 55t-12 55t-5 48q-20 -54 -44.5 -104.5t-49.5 -101.5h-146l181 344l-99 323h146q13 -46 28.5 -97t15.5 -99q16 52 42.5 100t52.5 96h140z" />
    <glyph glyph-name="uni04B3" unicode="&#x4b3;" horiz-adv-x="380" 
d="M255 240l57 -136h54l-26 -208h-104l13 104h-24l-24 65q-6 17 -11 31t-12 39l-10.5 -21t-9 -16t-9 -13.5t-9.5 -14.5l-44 -70h-127l156 240l-84 207h126l16 -41q5 -13 10 -32t8 -35q9 21 17 34.5t17 27.5l30 46h127z" />
    <glyph glyph-name="uni04B6" unicode="&#x4b6;" horiz-adv-x="486" 
d="M258 0l36 292q-17 -5 -34 -8t-40 -3q-50 0 -79.5 13t-45.5 28q-22 21 -28.5 45t-6.5 47q0 7 0.5 23t5.5 51l22 179h130l-20 -165q-2 -11 -3 -21t-1 -21q0 -9 2.5 -20.5t13.5 -20.5q8 -7 21.5 -10t24.5 -3q5 0 19.5 1t33.5 9l31 251h130l-67 -542h69l-33 -255h-120l18 130
h-79z" />
    <glyph glyph-name="uni04B7" unicode="&#x4b7;" horiz-adv-x="395" 
d="M176 447l-16 -124q0 -2 -0.5 -5.5t-0.5 -7.5q0 -6 1.5 -12.5t6.5 -11.5t13 -6.5t15 -1.5q11 0 18.5 2.5t12.5 4.5l20 162h124l-42 -343h54l-25 -208h-104l12 104h-74l23 184q-27 -10 -59 -10q-37 0 -59 9t-34 21q-17 17 -22 37t-5 37q0 13 1 24.5t3 22.5l15 122h122z" />
    <glyph glyph-name="uni04B8" unicode="&#x4b8;" horiz-adv-x="526" 
d="M352 294q-25 -8 -51 -10l-18 -147h-76l18 144h-5q-26 0 -56.5 7t-52.5 23q-20 14 -35.5 41t-15.5 73q0 14 2 28.5t4 34.5l22 179h128l-19 -158q-2 -17 -3.5 -28t-1.5 -21t2.5 -21.5t12.5 -19.5q6 -5 15 -8t18 -4l19 156h76l-19 -157q27 0 51 11l31 250h130l-82 -667h-130
z" />
    <glyph glyph-name="uni04B9" unicode="&#x4b9;" horiz-adv-x="431" 
d="M242 270q8 0 15.5 2t15.5 5l21 170h124l-55 -447h-124l22 181q-14 -5 -31 -7l-11 -91h-58l11 90q-12 0 -27 1t-30 4.5t-29 10t-25 17.5q-17 18 -21.5 38.5t-4.5 37.5q0 13 1.5 26.5t3.5 29.5l14 109h118l-14 -107q-2 -9 -3 -18.5t-1 -17.5q0 -11 2.5 -16.5t5.5 -8.5
q4 -4 10.5 -5.5t11.5 -1.5l12 98h58z" />
    <glyph glyph-name="uni04BA" unicode="&#x4ba;" horiz-adv-x="476" 
d="M201 395q20 6 38.5 8.5t43.5 2.5q11 0 26.5 -1t32 -5t33.5 -12t31 -22t24.5 -38t10.5 -59q0 -9 -1 -24t-6 -52l-23 -193h-130l21 170q3 26 4 38t1 17q0 12 -3.5 23t-14.5 20q-11 8 -23.5 10.5t-24.5 2.5q-31 0 -55 -9l-33 -272h-130l82 667h130z" />
    <glyph glyph-name="uni04BB" unicode="&#x4bb;" horiz-adv-x="388" 
d="M181 377q20 32 47 55t68 23q38 0 53 -24t15 -58q0 -19 -2.5 -37t-4.5 -37l-36 -299h-124l32 255q3 22 3 46q0 11 -5 20t-18 9q-14 0 -22 -8t-12.5 -19.5t-6 -24.5t-2.5 -23l-31 -255h-124l90 729h123z" />
    <glyph glyph-name="uni04C0" unicode="&#x4c0;" horiz-adv-x="204" 
d="M135 0h-124l82 667h123z" />
    <glyph glyph-name="uni04C1" unicode="&#x4c1;" horiz-adv-x="631" 
d="M452 0l-62 335l-41 -335h-126l41 335l-141 -335h-135l166 364l-85 303h129l70 -302l37 302h126l-37 -302l144 302h129l-159 -305l76 -362h-132zM560 823q-11 -31 -29.5 -54t-39.5 -36q-27 -17 -56 -21t-49 -4q-23 0 -52.5 4.5t-55.5 24.5q-19 14 -34 36t-22 51l103 28
q2 -10 7 -20.5t13 -18.5q10 -9 21 -12.5t24 -3.5q17 0 27.5 4t15.5 9q8 7 14.5 19t9.5 23z" />
    <glyph glyph-name="uni04C2" unicode="&#x4c2;" horiz-adv-x="541" 
d="M369 0l-43 206l-26 -206h-117l26 206l-95 -206h-130l126 240l-69 207h125l47 -206l25 206h117l-25 -206l95 206h128l-117 -208l63 -239h-130zM450 613q-10 -32 -26 -50t-26 -26q-23 -17 -46.5 -22t-46.5 -5q-20 0 -45.5 4t-48.5 21q-14 11 -29 30t-22 48l87 29
q2 -11 7 -22t12 -17q13 -13 39 -13q20 0 36 13q16 14 21 39z" />
    <glyph glyph-name="uni04C3" unicode="&#x4c3;" horiz-adv-x="475" 
d="M328 376q24 -7 43 -20.5t35 -36.5q17 -25 23 -50t6 -54q0 -6 -0.5 -18.5t-1.5 -27t-2.5 -28.5t-2.5 -23l-6 -44q-3 -23 -8 -50.5t-13.5 -54.5t-21.5 -51.5t-32 -41.5q-15 -14 -41 -25t-65 -11q-22 0 -41.5 4.5t-39.5 17.5l41 112q4 -2 11 -7t19 -5q17 0 28 10
q9 8 18 32.5t17 83.5l6 42q1 6 1.5 16t1.5 20.5t1.5 19.5t0.5 13q0 26 -6 42t-14 25q-7 7 -18.5 13t-30.5 6q-13 0 -25.5 -4t-23.5 -9l-34 -272h-130l82 667h130l-37 -298l147 298h132z" />
    <glyph glyph-name="uni04C4" unicode="&#x4c4;" horiz-adv-x="382" 
d="M190 447l-22 -182l88 182h134l-125 -212q18 -8 33 -20.5t26 -33.5q13 -23 16 -46.5t3 -45.5q0 -18 -2 -47t-10 -62t-23.5 -66.5t-42.5 -60.5q-9 -9 -22.5 -19.5t-31.5 -19t-40.5 -14.5t-50.5 -6h-12l13 108q6 0 16.5 2.5t22.5 10.5q18 12 27.5 30.5t14.5 34.5
q8 25 10.5 48t2.5 49q0 11 -2.5 29.5t-14.5 32.5q-6 7 -17 12t-27 5l-19 -156h-124l55 447h124z" />
    <glyph glyph-name="uni04C7" unicode="&#x4c7;" horiz-adv-x="494" 
d="M235 667l-30 -247h131l30 247h130l-80 -657q-4 -29 -9.5 -59t-18.5 -57q-22 -47 -63.5 -73.5t-93.5 -26.5q-24 0 -47.5 5t-45.5 16l16 132q12 -17 27 -27t37 -10q21 0 33.5 9.5t19.5 23t9.5 29.5t4.5 28l36 295h-131l-37 -295h-130l82 667h130z" />
    <glyph glyph-name="uni04C8" unicode="&#x4c8;" horiz-adv-x="389" 
d="M170 290h62l20 157h124l-62 -505q-3 -24 -12.5 -54.5t-32.5 -54.5q-25 -26 -53.5 -32.5t-52.5 -6.5q-17 0 -31.5 2.5t-31.5 8.5l14 110q6 -5 12.5 -7t17.5 -2q7 0 15 2t16 9q10 9 13.5 24t5.5 35l25 210h-62l-22 -186h-124l55 447h124z" />
    <glyph glyph-name="uni04D0" unicode="&#x4d0;" horiz-adv-x="453" 
d="M284 0l-11 112h-131l-37 -112h-130l235 667h137l75 -667h-138zM266 215q-5 70 -10.5 139.5t-2.5 140.5q-5 -26 -10.5 -51.5t-12.5 -51.5q-11 -45 -26 -88.5t-29 -88.5h91zM451 823q-11 -31 -29.5 -54t-39.5 -36q-27 -17 -56 -21t-49 -4q-23 0 -52.5 4.5t-55.5 24.5
q-19 14 -34 36t-22 51l103 28q2 -10 7 -20.5t13 -18.5q10 -9 21 -12.5t24 -3.5q17 0 27.5 4t15.5 9q8 7 14.5 19t9.5 23z" />
    <glyph glyph-name="uni04D1" unicode="&#x4d1;" horiz-adv-x="390" 
d="M323 0h-124l6 51q-15 -23 -36.5 -41.5t-51.5 -18.5q-31 0 -49.5 17t-28.5 42.5t-13.5 54.5t-3.5 52q0 29 2.5 57.5t8.5 57.5q5 26 15.5 58t27.5 59.5t41 46.5t56 19q30 0 48 -18t26 -45l7 55h123zM238 276q0 7 -0.5 18.5t-3.5 22t-9 18.5t-16 8q-19 0 -31 -21t-19 -49.5
t-9.5 -56.5t-2.5 -41q0 -8 1 -20t4 -23.5t9.5 -20t17.5 -8.5q18 0 29.5 22t18 51t9 57.5t2.5 42.5zM396 613q-10 -32 -26 -50t-26 -26q-23 -17 -46.5 -22t-46.5 -5q-20 0 -45.5 4t-48.5 21q-14 11 -29 30t-22 48l87 29q2 -11 7 -22t12 -17q13 -13 39 -13q20 0 36 13
q16 14 21 39z" />
    <glyph glyph-name="uni04D2" unicode="&#x4d2;" horiz-adv-x="453" 
d="M284 0l-11 112h-131l-37 -112h-130l235 667h137l75 -667h-138zM266 215q-5 70 -10.5 139.5t-2.5 140.5q-5 -26 -10.5 -51.5t-12.5 -51.5q-11 -45 -26 -88.5t-29 -88.5h91zM433 797q0 -15 -6 -28.5t-16.5 -23t-24 -15.5t-28.5 -6q-25 0 -40.5 17t-15.5 41q0 15 6 28
t16 23.5t23 16.5t28 6q25 0 41.5 -17t16.5 -42zM260 797q0 -15 -6 -28t-16.5 -23t-23.5 -16t-28 -6q-25 0 -41 16.5t-16 41.5q0 15 6 28t16 23.5t23 16.5t28 6q25 0 41.5 -17t16.5 -42z" />
    <glyph glyph-name="uni04D3" unicode="&#x4d3;" horiz-adv-x="390" 
d="M323 0h-124l6 51q-15 -23 -36.5 -41.5t-51.5 -18.5q-31 0 -49.5 17t-28.5 42.5t-13.5 54.5t-3.5 52q0 29 2.5 57.5t8.5 57.5q5 26 15.5 58t27.5 59.5t41 46.5t56 19q30 0 48 -18t26 -45l7 55h123zM238 276q0 7 -0.5 18.5t-3.5 22t-9 18.5t-16 8q-19 0 -31 -21t-19 -49.5
t-9.5 -56.5t-2.5 -41q0 -8 1 -20t4 -23.5t9.5 -20t17.5 -8.5q18 0 29.5 22t18 51t9 57.5t2.5 42.5zM392 590q0 -15 -6 -28.5t-16.5 -23t-24 -15.5t-28.5 -6q-25 0 -40.5 17t-15.5 41q0 15 6 28t16 23.5t23 16.5t28 6q25 0 41.5 -17t16.5 -42zM219 590q0 -15 -6 -28
t-16.5 -23t-23.5 -16t-28 -6q-25 0 -41 16.5t-16 41.5q0 15 6 28t16 23.5t23 16.5t28 6q25 0 41.5 -17t16.5 -42z" />
    <glyph glyph-name="uni04D4" unicode="&#x4d4;" horiz-adv-x="583" 
d="M285 0l-10 111h-137l-33 -111h-130l231 667h268l12 -124h-129l16 -138h130l15 -126h-129l19 -154h125l16 -125h-264zM266 216q-4 35 -7 70.5t-6 70.5q-2 17 -3 33t-1 33q0 18 0.5 35.5t0.5 35.5q-7 -35 -14.5 -70t-18.5 -69l-44 -139h93z" />
    <glyph glyph-name="uni04D5" unicode="&#x4d5;" horiz-adv-x="562" 
d="M90 436q25 8 50 14t52 6q42 0 69 -13t44 -53q22 32 49 48.5t67 16.5q36 0 59 -14.5t35.5 -38t17.5 -52.5t5 -59q0 -25 -2.5 -49.5t-4.5 -49.5h-201q-1 -8 -1.5 -15.5t-0.5 -15.5q0 -11 1 -24.5t5.5 -25.5t13 -20t23.5 -8q23 0 33.5 17t12.5 37h101q-10 -65 -48.5 -105.5
t-107.5 -40.5q-34 0 -59 13t-43 42q-26 -25 -53.5 -40t-65.5 -15q-56 0 -92 30.5t-36 88.5q0 32 11 61t30.5 50.5t47 34t60.5 12.5q17 0 33.5 -3t30.5 -13q1 11 2 21.5t1 21.5q0 31 -17 44t-46 13q-24 0 -45.5 -6.5t-43.5 -16.5zM431 269q1 8 1.5 15t0.5 15q0 9 -1 20.5
t-5 21t-11 16.5t-19 7q-15 0 -25 -10.5t-17 -25.5t-10.5 -31.5t-4.5 -27.5h91zM219 137q0 17 -12 29t-29 12q-21 0 -37 -16t-16 -37q0 -17 12 -29t29 -12q21 0 37 16t16 37z" />
    <glyph glyph-name="uni04D6" unicode="&#x4d6;" horiz-adv-x="350" 
d="M351 543h-131l-18 -144h116l-16 -126h-115l-19 -150h133l-15 -123h-263l82 667h261zM421 823q-11 -31 -29.5 -54t-39.5 -36q-27 -17 -56 -21t-49 -4q-23 0 -52.5 4.5t-55.5 24.5q-19 14 -34 36t-22 51l103 28q2 -10 7 -20.5t13 -18.5q10 -9 21 -12.5t24 -3.5q17 0 27.5 4
t15.5 9q8 7 14.5 19t9.5 23z" />
    <glyph glyph-name="uni04D7" unicode="&#x4d7;" horiz-adv-x="367" 
d="M326 154q-4 -32 -19 -67t-40 -58t-52.5 -30.5t-50.5 -7.5q-26 0 -50.5 7.5t-46.5 30.5q-18 20 -32 52.5t-14 85.5q0 29 5 61.5t15.5 65t27 62t39.5 52.5q47 47 111 47q49 0 83 -32q15 -15 24 -33t13.5 -36t5.5 -35t1 -30q0 -5 -1.5 -29t-7.5 -59h-195q-3 -14 -4.5 -29.5
t-1.5 -27.5q0 -11 2 -26t10 -23q4 -4 10 -7t16 -3q22 0 35 22q5 8 8 22t5 25h104zM241 278q1 6 1.5 12t0.5 12q0 25 -8 40q-5 8 -11 13t-17 5q-6 0 -14 -3t-16 -11q-5 -6 -9.5 -14.5t-7.5 -18.5t-5 -19t-3 -16h89zM381 613q-10 -32 -26 -50t-26 -26q-23 -17 -46.5 -22
t-46.5 -5q-20 0 -45.5 4t-48.5 21q-14 11 -29 30t-22 48l87 29q2 -11 7 -22t12 -17q13 -13 39 -13q20 0 36 13q16 14 21 39z" />
    <glyph glyph-name="uni04D8" unicode="&#x4d8;" horiz-adv-x="523" 
d="M364 371q2 19 2.5 43t-2.5 48t-10 45t-19 34q-11 12 -23.5 16t-23.5 4q-29 0 -47 -17q-8 -8 -18 -24t-21 -51l-122 50q12 29 30 55.5t39 46.5q31 28 68 42t85 14q12 0 28 -1.5t33.5 -6.5t36 -14t35.5 -25q25 -23 39 -52t21 -58t9 -55t2 -42q0 -34 -4.5 -81.5t-17.5 -98.5
t-37.5 -100.5t-63.5 -87.5q-33 -32 -73 -49t-91 -17q-35 0 -61 10t-50 34q-22 22 -35 48t-19.5 52t-8.5 50t-2 44q0 33 4 72t9 72h308zM171 253q-3 -14 -4 -31t1 -35t7.5 -34t16.5 -27q17 -17 40 -17q35 0 59 25q11 11 20 26t15.5 31.5t11 32.5t6.5 29h-173z" />
    <glyph glyph-name="afii10846" unicode="&#x4d9;" horiz-adv-x="373" 
d="M44 328q6 22 18 45t29 40q25 26 53.5 34t57.5 8q24 0 52 -7t51 -29q16 -15 25 -33.5t13.5 -37.5t5.5 -36t1 -29q0 -30 -4.5 -64t-14 -67t-25 -63t-37.5 -53q-24 -25 -51 -35t-63 -10q-20 0 -44 6t-47 29q-15 15 -23 33.5t-12 36.5t-5 34t-1 27q0 33 4 59.5t7 39.5h198
q3 22 3 43q0 12 -2 27t-12 25q-3 3 -10 6.5t-18 3.5q-18 0 -31 -13q-13 -15 -18 -40zM131 179q-3 -13 -3.5 -22t-0.5 -14q0 -7 2 -22.5t12 -25.5q9 -9 24 -9q9 0 15.5 3t10.5 6q8 7 13.5 18.5t9 23.5t5 23.5t2.5 18.5h-90z" />
    <glyph glyph-name="uni04DA" unicode="&#x4da;" horiz-adv-x="523" 
d="M364 371q2 19 2.5 43t-2.5 48t-10 45t-19 34q-11 12 -23.5 16t-23.5 4q-29 0 -47 -17q-8 -8 -18 -24t-21 -51l-122 50q12 29 30 55.5t39 46.5q31 28 68 42t85 14q12 0 28 -1.5t33.5 -6.5t36 -14t35.5 -25q25 -23 39 -52t21 -58t9 -55t2 -42q0 -34 -4.5 -81.5t-17.5 -98.5
t-37.5 -100.5t-63.5 -87.5q-33 -32 -73 -49t-91 -17q-35 0 -61 10t-50 34q-22 22 -35 48t-19.5 52t-8.5 50t-2 44q0 33 4 72t9 72h308zM171 253q-3 -14 -4 -31t1 -35t7.5 -34t16.5 -27q17 -17 40 -17q35 0 59 25q11 11 20 26t15.5 31.5t11 32.5t6.5 29h-173zM463 797
q0 -15 -6 -28.5t-16.5 -23t-24 -15.5t-28.5 -6q-25 0 -40.5 17t-15.5 41q0 15 6 28t16 23.5t23 16.5t28 6q25 0 41.5 -17t16.5 -42zM290 797q0 -15 -6 -28t-16.5 -23t-23.5 -16t-28 -6q-25 0 -41 16.5t-16 41.5q0 15 6 28t16 23.5t23 16.5t28 6q25 0 41.5 -17t16.5 -42z" />
    <glyph glyph-name="uni04DB" unicode="&#x4db;" horiz-adv-x="373" 
d="M44 328q6 22 18 45t29 40q25 26 53.5 34t57.5 8q24 0 52 -7t51 -29q16 -15 25 -33.5t13.5 -37.5t5.5 -36t1 -29q0 -30 -4.5 -64t-14 -67t-25 -63t-37.5 -53q-24 -25 -51 -35t-63 -10q-20 0 -44 6t-47 29q-15 15 -23 33.5t-12 36.5t-5 34t-1 27q0 33 4 59.5t7 39.5h198
q3 22 3 43q0 12 -2 27t-12 25q-3 3 -10 6.5t-18 3.5q-18 0 -31 -13q-13 -15 -18 -40zM131 179q-3 -13 -3.5 -22t-0.5 -14q0 -7 2 -22.5t12 -25.5q9 -9 24 -9q9 0 15.5 3t10.5 6q8 7 13.5 18.5t9 23.5t5 23.5t2.5 18.5h-90zM363 590q0 -15 -6 -28.5t-16.5 -23t-24 -15.5
t-28.5 -6q-25 0 -40.5 17t-15.5 41q0 15 6 28t16 23.5t23 16.5t28 6q25 0 41.5 -17t16.5 -42zM190 590q0 -15 -6 -28t-16.5 -23t-23.5 -16t-28 -6q-25 0 -41 16.5t-16 41.5q0 15 6 28t16 23.5t23 16.5t28 6q25 0 41.5 -17t16.5 -42z" />
    <glyph glyph-name="uni04DC" unicode="&#x4dc;" horiz-adv-x="631" 
d="M452 0l-62 335l-41 -335h-126l41 335l-141 -335h-135l166 364l-85 303h129l70 -302l37 302h126l-37 -302l144 302h129l-159 -305l76 -362h-132zM528 797q0 -15 -6 -28.5t-16.5 -23t-24 -15.5t-28.5 -6q-25 0 -40.5 17t-15.5 41q0 15 6 28t16 23.5t23 16.5t28 6
q25 0 41.5 -17t16.5 -42zM355 797q0 -15 -6 -28t-16.5 -23t-23.5 -16t-28 -6q-25 0 -41 16.5t-16 41.5q0 15 6 28t16 23.5t23 16.5t28 6q25 0 41.5 -17t16.5 -42z" />
    <glyph glyph-name="uni04DD" unicode="&#x4dd;" horiz-adv-x="541" 
d="M369 0l-43 206l-26 -206h-117l26 206l-95 -206h-130l126 240l-69 207h125l47 -206l25 206h117l-25 -206l95 206h128l-117 -208l63 -239h-130zM453 590q0 -15 -6 -28.5t-16.5 -23t-24 -15.5t-28.5 -6q-25 0 -40.5 17t-15.5 41q0 15 6 28t16 23.5t23 16.5t28 6
q25 0 41.5 -17t16.5 -42zM280 590q0 -15 -6 -28t-16.5 -23t-23.5 -16t-28 -6q-25 0 -41 16.5t-16 41.5q0 15 6 28t16 23.5t23 16.5t28 6q25 0 41.5 -17t16.5 -42z" />
    <glyph glyph-name="uni04DE" unicode="&#x4de;" horiz-adv-x="396" 
d="M84 640q33 23 62.5 30t57.5 7q29 0 63.5 -8t65.5 -37t40 -62.5t9 -63.5q0 -42 -11 -69.5t-22 -42.5q-10 -13 -28.5 -29t-48.5 -26q34 -10 59 -36q15 -16 24.5 -40t9.5 -55q0 -24 -5.5 -47.5t-15.5 -45.5t-23 -41t-28 -32q-19 -17 -55.5 -35t-94.5 -18q-31 0 -64.5 9
t-68.5 36l16 133q14 -19 42 -35q16 -8 31.5 -11.5t32.5 -3.5t35.5 4t33.5 20q11 12 17.5 29.5t6.5 33.5q0 20 -8 36t-21 26q-16 11 -35.5 13.5t-38.5 2.5h-11l15 120h20q17 0 37 3.5t37 15.5q11 8 20.5 22.5t9.5 40.5q0 18 -6 32t-15 22q-8 8 -22.5 13.5t-37.5 5.5
q-34 0 -60 -16q-10 -6 -21 -15t-20 -20zM381 797q0 -15 -6 -28.5t-16.5 -23t-24 -15.5t-28.5 -6q-25 0 -40.5 17t-15.5 41q0 15 6 28t16 23.5t23 16.5t28 6q25 0 41.5 -17t16.5 -42zM208 797q0 -15 -6 -28t-16.5 -23t-23.5 -16t-28 -6q-25 0 -41 16.5t-16 41.5q0 15 6 28
t16 23.5t23 16.5t28 6q25 0 41.5 -17t16.5 -42z" />
    <glyph glyph-name="uni04DF" unicode="&#x4df;" horiz-adv-x="340" 
d="M245 232q11 -4 22.5 -10.5t19.5 -15.5q7 -8 15 -23.5t8 -42.5q0 -29 -11 -56t-32 -48q-27 -27 -58 -36t-63 -9q-24 0 -46.5 4t-45.5 15q-16 8 -31 17.5t-28 20.5l64 91q5 -6 13 -13t16 -12q17 -11 41 -11q11 0 21 3t17 9q5 5 9 12.5t4 16.5q0 12 -5.5 18.5t-10.5 9.5
q-8 5 -21 6.5t-24 1.5h-25l12 94h22q11 0 24 2t21 6q12 6 16 14.5t4 16.5q0 18 -13 28q-8 6 -19 7.5t-15 1.5q-11 0 -19.5 -2t-17.5 -7q-18 -10 -32 -25l-40 95q35 26 69.5 35t67.5 9q24 0 56 -7t58 -33q32 -32 32 -79q0 -25 -7 -43t-18 -31q-7 -8 -19 -16.5t-31 -13.5z
M348 590q0 -15 -6 -28.5t-16.5 -23t-24 -15.5t-28.5 -6q-25 0 -40.5 17t-15.5 41q0 15 6 28t16 23.5t23 16.5t28 6q25 0 41.5 -17t16.5 -42zM175 590q0 -15 -6 -28t-16.5 -23t-23.5 -16t-28 -6q-25 0 -41 16.5t-16 41.5q0 15 6 28t16 23.5t23 16.5t28 6q25 0 41.5 -17
t16.5 -42z" />
    <glyph glyph-name="uni04E2" unicode="&#x4e2;" horiz-adv-x="501" 
d="M105 667h130l-37 -302q-3 -22 -10 -50.5t-14 -49.5l207 402h122l-82 -667h-130l38 305q1 10 4 25.5t7 31t7 28t4 17.5l-206 -407h-122zM448 738h-282l10 80h282z" />
    <glyph glyph-name="uni04E3" unicode="&#x4e3;" horiz-adv-x="404" 
d="M184 447l-18 -149q-1 -8 -7 -44t-22 -83q13 27 21.5 43.5t13.5 26t8 15t5 9.5l95 182h111l-55 -447h-118l18 146q5 34 11.5 68.5t14.5 65.5q-10 -26 -23 -55.5t-27 -55.5l-90 -169h-111l55 447h118zM380 531h-282l10 80h282z" />
    <glyph glyph-name="uni04E4" unicode="&#x4e4;" horiz-adv-x="501" 
d="M105 667h130l-37 -302q-3 -22 -10 -50.5t-14 -49.5l207 402h122l-82 -667h-130l38 305q1 10 4 25.5t7 31t7 28t4 17.5l-206 -407h-122zM473 797q0 -15 -6 -28.5t-16.5 -23t-24 -15.5t-28.5 -6q-25 0 -40.5 17t-15.5 41q0 15 6 28t16 23.5t23 16.5t28 6q25 0 41.5 -17
t16.5 -42zM300 797q0 -15 -6 -28t-16.5 -23t-23.5 -16t-28 -6q-25 0 -41 16.5t-16 41.5q0 15 6 28t16 23.5t23 16.5t28 6q25 0 41.5 -17t16.5 -42z" />
    <glyph glyph-name="uni04E5" unicode="&#x4e5;" horiz-adv-x="404" 
d="M184 447l-18 -149q-1 -8 -7 -44t-22 -83q13 27 21.5 43.5t13.5 26t8 15t5 9.5l95 182h111l-55 -447h-118l18 146q5 34 11.5 68.5t14.5 65.5q-10 -26 -23 -55.5t-27 -55.5l-90 -169h-111l55 447h118zM393 590q0 -15 -6 -28.5t-16.5 -23t-24 -15.5t-28.5 -6q-25 0 -40.5 17
t-15.5 41q0 15 6 28t16 23.5t23 16.5t28 6q25 0 41.5 -17t16.5 -42zM220 590q0 -15 -6 -28t-16.5 -23t-23.5 -16t-28 -6q-25 0 -41 16.5t-16 41.5q0 15 6 28t16 23.5t23 16.5t28 6q25 0 41.5 -17t16.5 -42z" />
    <glyph glyph-name="uni04E6" unicode="&#x4e6;" horiz-adv-x="534" 
d="M517 434q0 -57 -8 -119t-27 -116q-14 -41 -37 -79t-54 -67t-70 -46.5t-85 -17.5q-49 0 -91.5 26t-66.5 68q-22 37 -28.5 76.5t-6.5 81.5q0 46 5 91.5t17 90.5q12 47 33.5 92.5t54 81.5t75 58t96.5 22q50 0 86.5 -21.5t60 -56t35 -78t11.5 -87.5zM378 427q0 17 -2.5 39
t-10.5 42t-22 34t-36 14q-29 0 -49.5 -22.5t-34.5 -54t-22 -65.5t-11 -56q-5 -28 -6.5 -56t-1.5 -57q0 -17 3 -39t10.5 -42t21.5 -34t36 -14q29 0 49.5 22.5t34.5 54t22 65.5t11 56q5 28 6.5 56t1.5 57zM493 797q0 -15 -6 -28.5t-16.5 -23t-24 -15.5t-28.5 -6
q-25 0 -40.5 17t-15.5 41q0 15 6 28t16 23.5t23 16.5t28 6q25 0 41.5 -17t16.5 -42zM320 797q0 -15 -6 -28t-16.5 -23t-23.5 -16t-28 -6q-25 0 -41 16.5t-16 41.5q0 15 6 28t16 23.5t23 16.5t28 6q25 0 41.5 -17t16.5 -42z" />
    <glyph glyph-name="uni04E7" unicode="&#x4e7;" horiz-adv-x="386" 
d="M363 289q0 -47 -9 -99.5t-31.5 -96.5t-61 -73t-96.5 -29q-42 0 -69 15.5t-43.5 41.5t-23 59.5t-6.5 69.5q0 45 11 94t35 90t62 67.5t91 26.5q37 0 63.5 -13.5t44 -36t25.5 -52.5t8 -64zM237 277q0 7 -0.5 18.5t-3.5 22t-9 18t-16 7.5q-18 0 -30 -21t-18.5 -49.5
t-9.5 -56.5t-3 -41q0 -8 1 -20t4 -23.5t9 -20t17 -8.5q18 0 29.5 22t18 51.5t9 58t2.5 42.5zM383 590q0 -15 -6 -28.5t-16.5 -23t-24 -15.5t-28.5 -6q-25 0 -40.5 17t-15.5 41q0 15 6 28t16 23.5t23 16.5t28 6q25 0 41.5 -17t16.5 -42zM210 590q0 -15 -6 -28t-16.5 -23
t-23.5 -16t-28 -6q-25 0 -41 16.5t-16 41.5q0 15 6 28t16 23.5t23 16.5t28 6q25 0 41.5 -17t16.5 -42z" />
    <glyph glyph-name="uni04E8" unicode="&#x4e8;" horiz-adv-x="534" 
d="M324 677q45 0 74.5 -15t47.5 -32q22 -21 36 -47t22 -53.5t10.5 -55t2.5 -51.5q0 -47 -6.5 -98t-20.5 -100t-38 -93t-58 -77q-39 -38 -79.5 -52t-76.5 -14q-35 0 -67.5 12t-61.5 42q-21 22 -33.5 47.5t-20 51.5t-10 52t-2.5 50q0 50 6.5 101t21 98.5t37.5 90t55 74.5
q38 38 79.5 53.5t81.5 15.5zM378 406q1 59 -8 89t-22 43q-16 18 -42 18q-10 0 -22 -4.5t-26 -18.5q-19 -19 -36 -55.5t-24 -71.5h180zM183 281q-1 -11 -1.5 -28.5t1.5 -37t7.5 -39t16.5 -34.5q19 -26 46 -26q9 0 22.5 4t28.5 19q10 10 20 26t18 35.5t13.5 40t8.5 40.5h-181z
" />
    <glyph glyph-name="uni04E9" unicode="&#x4e9;" horiz-adv-x="386" 
d="M222 455q35 0 59 -11.5t38 -25.5q28 -28 36 -65.5t8 -68.5q0 -29 -4 -62t-13 -65t-23 -61.5t-34 -51.5q-29 -32 -62 -42.5t-65 -10.5q-26 0 -51 8.5t-46 31.5q-15 17 -23.5 38t-12.5 41t-5 37t-1 26q0 29 4.5 61t14 62.5t24.5 58.5t37 50q26 26 56 38t63 12zM237 274
q0 29 -2.5 45.5t-10.5 24.5q-6 6 -16 6q-11 0 -20 -9q-12 -11 -19.5 -32t-9.5 -35h78zM147 182q0 -42 5 -57.5t10 -20.5q7 -7 16 -7q8 0 13 3t9 7q12 13 18.5 35t9.5 40h-81z" />
    <glyph glyph-name="uni04EA" unicode="&#x4ea;" horiz-adv-x="534" 
d="M324 677q45 0 74.5 -15t47.5 -32q22 -21 36 -47t22 -53.5t10.5 -55t2.5 -51.5q0 -47 -6.5 -98t-20.5 -100t-38 -93t-58 -77q-39 -38 -79.5 -52t-76.5 -14q-35 0 -67.5 12t-61.5 42q-21 22 -33.5 47.5t-20 51.5t-10 52t-2.5 50q0 50 6.5 101t21 98.5t37.5 90t55 74.5
q38 38 79.5 53.5t81.5 15.5zM378 406q1 59 -8 89t-22 43q-16 18 -42 18q-10 0 -22 -4.5t-26 -18.5q-19 -19 -36 -55.5t-24 -71.5h180zM183 281q-1 -11 -1.5 -28.5t1.5 -37t7.5 -39t16.5 -34.5q19 -26 46 -26q9 0 22.5 4t28.5 19q10 10 20 26t18 35.5t13.5 40t8.5 40.5h-181z
M493 797q0 -15 -6 -28.5t-16.5 -23t-24 -15.5t-28.5 -6q-25 0 -40.5 17t-15.5 41q0 15 6 28t16 23.5t23 16.5t28 6q25 0 41.5 -17t16.5 -42zM320 797q0 -15 -6 -28t-16.5 -23t-23.5 -16t-28 -6q-25 0 -41 16.5t-16 41.5q0 15 6 28t16 23.5t23 16.5t28 6q25 0 41.5 -17
t16.5 -42z" />
    <glyph glyph-name="uni04EB" unicode="&#x4eb;" horiz-adv-x="386" 
d="M222 455q35 0 59 -11.5t38 -25.5q28 -28 36 -65.5t8 -68.5q0 -29 -4 -62t-13 -65t-23 -61.5t-34 -51.5q-29 -32 -62 -42.5t-65 -10.5q-26 0 -51 8.5t-46 31.5q-15 17 -23.5 38t-12.5 41t-5 37t-1 26q0 29 4.5 61t14 62.5t24.5 58.5t37 50q26 26 56 38t63 12zM237 274
q0 29 -2.5 45.5t-10.5 24.5q-6 6 -16 6q-11 0 -20 -9q-12 -11 -19.5 -32t-9.5 -35h78zM147 182q0 -42 5 -57.5t10 -20.5q7 -7 16 -7q8 0 13 3t9 7q12 13 18.5 35t9.5 40h-81zM383 590q0 -15 -6 -28.5t-16.5 -23t-24 -15.5t-28.5 -6q-25 0 -40.5 17t-15.5 41q0 15 6 28
t16 23.5t23 16.5t28 6q25 0 41.5 -17t16.5 -42zM210 590q0 -15 -6 -28t-16.5 -23t-23.5 -16t-28 -6q-25 0 -41 16.5t-16 41.5q0 15 6 28t16 23.5t23 16.5t28 6q25 0 41.5 -17t16.5 -42z" />
    <glyph glyph-name="uni04EE" unicode="&#x4ee;" horiz-adv-x="442" 
d="M198 667l33 -165q3 -16 6 -29.5t5.5 -28t4.5 -31.5t4 -39q9 30 19 60t22 64l62 169h142l-284 -667h-132l96 230l-116 437h138zM428 738h-282l10 80h282z" />
    <glyph glyph-name="uni04EF" unicode="&#x4ef;" horiz-adv-x="359" 
d="M123 -206h-120l93 215l-74 438h123l22 -163q3 -23 5.5 -46t3.5 -46l89 255h124zM354 531h-282l10 80h282z" />
    <glyph glyph-name="uni04F0" unicode="&#x4f0;" horiz-adv-x="442" 
d="M198 667l33 -165q3 -16 6 -29.5t5.5 -28t4.5 -31.5t4 -39q9 30 19 60t22 64l62 169h142l-284 -667h-132l96 230l-116 437h138zM438 797q0 -15 -6 -28.5t-16.5 -23t-24 -15.5t-28.5 -6q-25 0 -40.5 17t-15.5 41q0 15 6 28t16 23.5t23 16.5t28 6q25 0 41.5 -17t16.5 -42z
M265 797q0 -15 -6 -28t-16.5 -23t-23.5 -16t-28 -6q-25 0 -41 16.5t-16 41.5q0 15 6 28t16 23.5t23 16.5t28 6q25 0 41.5 -17t16.5 -42z" />
    <glyph glyph-name="uni04F1" unicode="&#x4f1;" horiz-adv-x="359" 
d="M123 -206h-120l93 215l-74 438h123l22 -163q3 -23 5.5 -46t3.5 -46l89 255h124zM364 590q0 -15 -6 -28.5t-16.5 -23t-24 -15.5t-28.5 -6q-25 0 -40.5 17t-15.5 41q0 15 6 28t16 23.5t23 16.5t28 6q25 0 41.5 -17t16.5 -42zM191 590q0 -15 -6 -28t-16.5 -23t-23.5 -16
t-28 -6q-25 0 -41 16.5t-16 41.5q0 15 6 28t16 23.5t23 16.5t28 6q25 0 41.5 -17t16.5 -42z" />
    <glyph glyph-name="uni04F2" unicode="&#x4f2;" horiz-adv-x="442" 
d="M198 667l33 -165q3 -16 6 -29.5t5.5 -28t4.5 -31.5t4 -39q9 30 19 60t22 64l62 169h142l-284 -667h-132l96 230l-116 437h138zM345 724l-51 36l74 128l76 -42zM209 724l-51 36l74 128l77 -42z" />
    <glyph glyph-name="uni04F3" unicode="&#x4f3;" horiz-adv-x="359" 
d="M123 -206h-120l93 215l-74 438h123l22 -163q3 -23 5.5 -46t3.5 -46l89 255h124zM278 517l-51 36l74 128l76 -42zM142 517l-51 36l74 128l77 -42z" />
    <glyph glyph-name="uni04F4" unicode="&#x4f4;" horiz-adv-x="468" 
d="M294 292q-17 -5 -34 -8t-40 -3q-50 0 -79.5 13t-45.5 28q-22 21 -28.5 45t-6.5 47q0 7 0.5 23t5.5 51l22 179h130l-20 -165q-2 -11 -3 -21t-1 -21q0 -9 2.5 -20.5t13.5 -20.5q8 -7 21.5 -10t24.5 -3q5 0 19.5 1t33.5 9l31 251h130l-82 -667h-130zM438 797q0 -15 -6 -28.5
t-16.5 -23t-24 -15.5t-28.5 -6q-25 0 -40.5 17t-15.5 41q0 15 6 28t16 23.5t23 16.5t28 6q25 0 41.5 -17t16.5 -42zM265 797q0 -15 -6 -28t-16.5 -23t-23.5 -16t-28 -6q-25 0 -41 16.5t-16 41.5q0 15 6 28t16 23.5t23 16.5t28 6q25 0 41.5 -17t16.5 -42z" />
    <glyph glyph-name="uni04F5" unicode="&#x4f5;" horiz-adv-x="383" 
d="M214 184q-27 -10 -59 -10q-37 0 -59 9t-34 21q-17 17 -22 37t-5 37q0 13 1 24.5t3 22.5l15 122h122l-16 -124q0 -2 -0.5 -5.5t-0.5 -7.5q0 -6 1.5 -12.5t6.5 -11.5t13 -6.5t15 -1.5q11 0 18.5 2.5t12.5 4.5l20 162h124l-55 -447h-124zM376 590q0 -15 -6 -28.5t-16.5 -23
t-24 -15.5t-28.5 -6q-25 0 -40.5 17t-15.5 41q0 15 6 28t16 23.5t23 16.5t28 6q25 0 41.5 -17t16.5 -42zM203 590q0 -15 -6 -28t-16.5 -23t-23.5 -16t-28 -6q-25 0 -41 16.5t-16 41.5q0 15 6 28t16 23.5t23 16.5t28 6q25 0 41.5 -17t16.5 -42z" />
    <glyph glyph-name="uni04F8" unicode="&#x4f8;" horiz-adv-x="626" 
d="M416 0l82 667h130l-82 -667h-130zM235 667l-32 -261h1q16 0 35 -2t39 -7.5t40 -16t37 -27.5t33.5 -48.5t16.5 -83.5q0 -47 -15 -88t-43 -70q-34 -35 -81 -49t-106 -14h-137l82 667h130zM167 114h4q15 0 34.5 3.5t36.5 16.5q14 11 23.5 31.5t9.5 48.5q0 11 -3.5 27
t-17.5 30q-14 13 -32.5 17t-32.5 4zM523 797q0 -15 -6 -28.5t-16.5 -23t-24 -15.5t-28.5 -6q-25 0 -40.5 17t-15.5 41q0 15 6 28t16 23.5t23 16.5t28 6q25 0 41.5 -17t16.5 -42zM350 797q0 -15 -6 -28t-16.5 -23t-23.5 -16t-28 -6q-25 0 -41 16.5t-16 41.5q0 15 6 28
t16 23.5t23 16.5t28 6q25 0 41.5 -17t16.5 -42z" />
    <glyph glyph-name="uni04F9" unicode="&#x4f9;" horiz-adv-x="545" 
d="M353 0l55 447h124l-55 -447h-124zM190 447l-20 -164h8q29 0 58 -4t54 -21q32 -22 41.5 -51t9.5 -52q0 -44 -15.5 -72t-33.5 -44q-15 -14 -32 -21.5t-33.5 -11.5t-31.5 -5t-25 -1h-159l55 447h124zM152 88q14 0 27.5 4t22.5 12t13 21t4 25q0 15 -5 23t-10 12
q-8 7 -20.5 8.5t-22.5 1.5h-2l-13 -107h6zM455 590q0 -15 -6 -28.5t-16.5 -23t-24 -15.5t-28.5 -6q-25 0 -40.5 17t-15.5 41q0 15 6 28t16 23.5t23 16.5t28 6q25 0 41.5 -17t16.5 -42zM282 590q0 -15 -6 -28t-16.5 -23t-23.5 -16t-28 -6q-25 0 -41 16.5t-16 41.5q0 15 6 28
t16 23.5t23 16.5t28 6q25 0 41.5 -17t16.5 -42z" />
    <glyph glyph-name="uni1E9E" unicode="&#x1e9e;" horiz-adv-x="440" 
d="M153 0h-130l60 491q5 47 21.5 81t47.5 61q29 26 61 35t60 9q32 0 58.5 -7.5t49.5 -26.5q21 -17 33 -45.5t12 -58.5q0 -31 -6 -67l-82 -91q8 -5 18.5 -12.5t21.5 -21.5q15 -18 19.5 -39t4.5 -46q0 -27 -3.5 -56.5t-11.5 -58t-21.5 -55.5t-32.5 -49q-17 -19 -35 -28.5
t-34.5 -14t-28.5 -5t-16 -0.5q-8 0 -19.5 2t-13.5 3l14 112q7 0 14.5 1t12.5 4q9 5 14.5 12.5t10.5 16.5q12 26 16 57t4 49q0 11 -2 25t-11 24q-11 12 -35 14l11 88l60 73q2 7 3.5 16t1.5 25q0 13 -1.5 22t-8.5 19q-10 10 -25 10q-22 0 -35 -19q-7 -10 -10.5 -23.5
t-5.5 -25.5z" />
    <glyph glyph-name="uni2010" unicode="&#x2010;" horiz-adv-x="268" 
d="M45 191l14 108h168l-14 -108h-168z" />
    <glyph glyph-name="uni2011" unicode="&#x2011;" horiz-adv-x="268" 
d="M45 191l14 108h168l-14 -108h-168z" />
    <glyph glyph-name="figuredash" unicode="&#x2012;" horiz-adv-x="574" 
d="M66 288l12 100h434l-12 -100h-434z" />
    <glyph glyph-name="endash" unicode="&#x2013;" horiz-adv-x="574" 
d="M66 195l12 100h434l-12 -100h-434z" />
    <glyph glyph-name="emdash" unicode="&#x2014;" horiz-adv-x="820" 
d="M746 195h-680l12 100h680z" />
    <glyph glyph-name="afii00208" unicode="&#x2015;" horiz-adv-x="820" 
d="M746 195h-680l12 100h680z" />
    <glyph glyph-name="quoteleft" unicode="&#x2018;" horiz-adv-x="274" 
d="M228 713h88l-122 -270h-133z" />
    <glyph glyph-name="quoteright" unicode="&#x2019;" horiz-adv-x="274" 
d="M143 443h-87l120 270h131z" />
    <glyph glyph-name="quotesinglbase" unicode="&#x201a;" horiz-adv-x="270" 
d="M73 -149h-87l120 270h131z" />
    <glyph glyph-name="quotedblleft" unicode="&#x201c;" horiz-adv-x="439" 
d="M228 713h88l-123 -270h-132zM392 713h88l-122 -270h-132z" />
    <glyph glyph-name="quotedblright" unicode="&#x201d;" horiz-adv-x="439" 
d="M307 443h-87l120 270h131zM143 443h-87l120 270h131z" />
    <glyph glyph-name="quotedblbase" unicode="&#x201e;" horiz-adv-x="434" 
d="M66 -149h-87l120 270h131zM237 -149h-87l120 270h131z" />
    <glyph glyph-name="dagger" unicode="&#x2020;" horiz-adv-x="432" 
d="M303 439l-78 -632h-125l78 632h-111l14 117h111l22 173h125l-22 -173h111l-14 -117h-111z" />
    <glyph glyph-name="daggerdbl" unicode="&#x2021;" horiz-adv-x="433" 
d="M266 100l-36 -293h-125l36 293h-111l15 117h111l27 222h-111l14 117h111l22 173h125l-22 -173h111l-14 -117h-111l-27 -222h111l-15 -117h-111z" />
    <glyph glyph-name="bullet" unicode="&#x2022;" horiz-adv-x="1000" 
d="M652 340q0 -29 -10.5 -54t-29.5 -44.5t-44 -30.5t-54 -11t-53.5 11.5t-43.5 30.5t-29.5 44.5t-10.5 53.5t10.5 53.5t29.5 45t44 30.5t54 11q28 0 53 -11.5t44 -30.5t29.5 -44.5t10.5 -53.5z" />
    <glyph glyph-name="ellipsis" unicode="&#x2026;" horiz-adv-x="739" 
d="M675 88q0 -18 -7 -34t-19 -28t-28 -19t-34 -7q-29 0 -48.5 20t-19.5 49q0 17 7.5 33t19.5 28t28 19.5t33 7.5q29 0 48.5 -20t19.5 -49zM429 88q0 -18 -7 -34t-19 -28t-28 -19t-34 -7q-29 0 -48.5 20t-19.5 49q0 18 7 34t19 28t28 19t34 7q29 0 48.5 -20t19.5 -49zM183 88
q0 -18 -7.5 -34t-19.5 -28t-28 -19t-34 -7q-29 0 -48 20t-19 49q0 18 7 34t19 28t28 19t34 7q29 0 48.5 -20t19.5 -49z" />
    <glyph glyph-name="perthousand" unicode="&#x2030;" horiz-adv-x="1041" 
d="M341 549q0 -32 -8 -70.5t-27 -72t-49.5 -56t-76.5 -22.5q-30 0 -52 11.5t-36 30t-21 42.5t-7 49q0 33 9.5 70t29.5 68t51 51.5t74 20.5q31 0 52.5 -11t35 -28.5t19.5 -39.5t6 -43zM236 538q0 1 -0.5 8t-2.5 15t-6.5 14t-12.5 6q-14 0 -22.5 -16t-13.5 -36.5t-7 -40
t-2 -25.5q0 -2 0.5 -9t2.5 -15t6.5 -14t12.5 -6q13 0 22 16.5t14 37t7 40t2 25.5zM231 0h-87l373 667h85zM683 214q0 -32 -8 -70.5t-27 -72t-49.5 -56t-76.5 -22.5q-30 0 -52 11.5t-36 30t-21 42.5t-7 49q0 33 9.5 70t29.5 68t51 51.5t74 20.5q31 0 52.5 -11t35 -28.5
t19.5 -39.5t6 -43zM578 203q0 1 -0.5 8t-2.5 15t-6.5 14t-12.5 6q-14 0 -22.5 -16t-13.5 -36.5t-7 -40t-2 -25.5q0 -2 0.5 -9t2.5 -15t6.5 -14t12.5 -6q13 0 22 16.5t14 37t7 40t2 25.5zM1006 214q0 -32 -8 -70.5t-27 -72t-49.5 -56t-76.5 -22.5q-30 0 -52 11.5t-36 30
t-21 42.5t-7 49q0 33 9.5 70t29.5 68t51 51.5t74 20.5q31 0 52.5 -11t35 -28.5t19.5 -39.5t6 -43zM901 203q0 1 -0.5 8t-2.5 15t-6.5 14t-12.5 6q-14 0 -22.5 -16t-13.5 -36.5t-7 -40t-2 -25.5q0 -2 0.5 -9t2.5 -15t6.5 -14t12.5 -6q13 0 22 16.5t14 37t7 40t2 25.5z" />
    <glyph glyph-name="guilsinglleft" unicode="&#x2039;" horiz-adv-x="239" 
d="M121 234l69 -168l-71 -38l-89 206l139 206l62 -34z" />
    <glyph glyph-name="guilsinglright" unicode="&#x203a;" horiz-adv-x="239" 
d="M71 28l-61 38l109 168l-68 172l71 34l88 -206z" />
    <glyph glyph-name="fraction" unicode="&#x2044;" horiz-adv-x="144" 
d="M-81 0h-76l395 667h76z" />
    <glyph glyph-name="Euro" unicode="&#x20ac;" horiz-adv-x="433" 
d="M378 17q-21 -11 -45.5 -17.5t-55.5 -6.5q-44 0 -77 14t-56 39q-19 20 -32 45.5t-20.5 52.5t-11 54t-3.5 50h-88l37 68h54l9 55h-81l37 68h62q14 48 40 92t58 74q35 33 78.5 51t100.5 18q23 0 42.5 -4t41.5 -15l-19 -139q-20 21 -40.5 26.5t-32.5 5.5q-19 0 -39.5 -8.5
t-39.5 -26.5q-14 -14 -27 -34t-21 -40h194l-37 -68h-177q-4 -14 -6 -28t-4 -27h158l-37 -68h-123q0 -26 7.5 -52t20.5 -43q7 -9 23 -21t44 -12q19 0 41.5 7.5t43.5 27.5z" />
    <glyph glyph-name="uni20B4" unicode="&#x20b4;" horiz-adv-x="433" 
d="M138 645q35 18 62.5 25t53.5 7q31 0 62 -7.5t57 -36.5q17 -19 28 -47t11 -63q0 -28 -7.5 -48t-18.5 -36h54l-8 -68h-102l-58 -55h153l-9 -68h-204q-22 -21 -28.5 -41.5t-6.5 -39.5q0 -10 2.5 -19.5t11.5 -18.5q11 -11 24 -13.5t24 -2.5q13 0 42 5t67 31l-15 -126
q-16 -10 -47.5 -22t-80.5 -12q-36 0 -65.5 9.5t-52.5 33.5q-4 4 -11 13t-14 23t-12 32.5t-5 42.5q0 26 9 52.5t31 52.5h-63l9 68h107l58 55h-158l8 68h208q10 9 18.5 25t8.5 41q0 8 -3 18.5t-11 19.5q-7 7 -17 11.5t-25 4.5q-31 0 -59.5 -15t-43.5 -28z" />
    <glyph glyph-name="uni20B6" unicode="&#x20b6;" horiz-adv-x="433" 
d="M289 667q30 0 55 -2.5t52 -19.5q38 -23 54 -63.5t16 -83.5q0 -53 -19 -94.5t-52.5 -70t-80 -42t-100.5 -9.5l-8 -63h110l-8 -68h-110l-19 -151h-130l19 151h-64l8 68h64l9 63h-64l10 90h63l37 295h158zM234 372q54 0 78.5 26.5t24.5 80.5q0 42 -14 61.5t-52 19.5h-23
l-24 -188h10z" />
    <glyph glyph-name="uni20B6" unicode="&#x20cf;" horiz-adv-x="433" 
d="M289 667q30 0 55 -2.5t52 -19.5q38 -23 54 -63.5t16 -83.5q0 -53 -19 -94.5t-52.5 -70t-80 -42t-100.5 -9.5l-8 -63h110l-8 -68h-110l-19 -151h-130l19 151h-64l8 68h64l9 63h-64l10 90h63l37 295h158zM234 372q54 0 78.5 26.5t24.5 80.5q0 42 -14 61.5t-52 19.5h-23
l-24 -188h10z" />
    <glyph glyph-name="uni20B6" unicode="&#x20ce;" horiz-adv-x="433" 
d="M289 667q30 0 55 -2.5t52 -19.5q38 -23 54 -63.5t16 -83.5q0 -53 -19 -94.5t-52.5 -70t-80 -42t-100.5 -9.5l-8 -63h110l-8 -68h-110l-19 -151h-130l19 151h-64l8 68h64l9 63h-64l10 90h63l37 295h158zM234 372q54 0 78.5 26.5t24.5 80.5q0 42 -14 61.5t-52 19.5h-23
l-24 -188h10z" />
    <glyph glyph-name="uni20B6" unicode="&#x20cd;" horiz-adv-x="433" 
d="M289 667q30 0 55 -2.5t52 -19.5q38 -23 54 -63.5t16 -83.5q0 -53 -19 -94.5t-52.5 -70t-80 -42t-100.5 -9.5l-8 -63h110l-8 -68h-110l-19 -151h-130l19 151h-64l8 68h64l9 63h-64l10 90h63l37 295h158zM234 372q54 0 78.5 26.5t24.5 80.5q0 42 -14 61.5t-52 19.5h-23
l-24 -188h10z" />
    <glyph glyph-name="uni20B6" unicode="&#x20cc;" horiz-adv-x="433" 
d="M289 667q30 0 55 -2.5t52 -19.5q38 -23 54 -63.5t16 -83.5q0 -53 -19 -94.5t-52.5 -70t-80 -42t-100.5 -9.5l-8 -63h110l-8 -68h-110l-19 -151h-130l19 151h-64l8 68h64l9 63h-64l10 90h63l37 295h158zM234 372q54 0 78.5 26.5t24.5 80.5q0 42 -14 61.5t-52 19.5h-23
l-24 -188h10z" />
    <glyph glyph-name="uni20B6" unicode="&#x20cb;" horiz-adv-x="433" 
d="M289 667q30 0 55 -2.5t52 -19.5q38 -23 54 -63.5t16 -83.5q0 -53 -19 -94.5t-52.5 -70t-80 -42t-100.5 -9.5l-8 -63h110l-8 -68h-110l-19 -151h-130l19 151h-64l8 68h64l9 63h-64l10 90h63l37 295h158zM234 372q54 0 78.5 26.5t24.5 80.5q0 42 -14 61.5t-52 19.5h-23
l-24 -188h10z" />
    <glyph glyph-name="uni20B6" unicode="&#x20ca;" horiz-adv-x="433" 
d="M289 667q30 0 55 -2.5t52 -19.5q38 -23 54 -63.5t16 -83.5q0 -53 -19 -94.5t-52.5 -70t-80 -42t-100.5 -9.5l-8 -63h110l-8 -68h-110l-19 -151h-130l19 151h-64l8 68h64l9 63h-64l10 90h63l37 295h158zM234 372q54 0 78.5 26.5t24.5 80.5q0 42 -14 61.5t-52 19.5h-23
l-24 -188h10z" />
    <glyph glyph-name="uni20B6" unicode="&#x20c9;" horiz-adv-x="433" 
d="M289 667q30 0 55 -2.5t52 -19.5q38 -23 54 -63.5t16 -83.5q0 -53 -19 -94.5t-52.5 -70t-80 -42t-100.5 -9.5l-8 -63h110l-8 -68h-110l-19 -151h-130l19 151h-64l8 68h64l9 63h-64l10 90h63l37 295h158zM234 372q54 0 78.5 26.5t24.5 80.5q0 42 -14 61.5t-52 19.5h-23
l-24 -188h10z" />
    <glyph glyph-name="uni20B6" unicode="&#x20c8;" horiz-adv-x="433" 
d="M289 667q30 0 55 -2.5t52 -19.5q38 -23 54 -63.5t16 -83.5q0 -53 -19 -94.5t-52.5 -70t-80 -42t-100.5 -9.5l-8 -63h110l-8 -68h-110l-19 -151h-130l19 151h-64l8 68h64l9 63h-64l10 90h63l37 295h158zM234 372q54 0 78.5 26.5t24.5 80.5q0 42 -14 61.5t-52 19.5h-23
l-24 -188h10z" />
    <glyph glyph-name="uni20B6" unicode="&#x20c7;" horiz-adv-x="433" 
d="M289 667q30 0 55 -2.5t52 -19.5q38 -23 54 -63.5t16 -83.5q0 -53 -19 -94.5t-52.5 -70t-80 -42t-100.5 -9.5l-8 -63h110l-8 -68h-110l-19 -151h-130l19 151h-64l8 68h64l9 63h-64l10 90h63l37 295h158zM234 372q54 0 78.5 26.5t24.5 80.5q0 42 -14 61.5t-52 19.5h-23
l-24 -188h10z" />
    <glyph glyph-name="uni20B6" unicode="&#x20c6;" horiz-adv-x="433" 
d="M289 667q30 0 55 -2.5t52 -19.5q38 -23 54 -63.5t16 -83.5q0 -53 -19 -94.5t-52.5 -70t-80 -42t-100.5 -9.5l-8 -63h110l-8 -68h-110l-19 -151h-130l19 151h-64l8 68h64l9 63h-64l10 90h63l37 295h158zM234 372q54 0 78.5 26.5t24.5 80.5q0 42 -14 61.5t-52 19.5h-23
l-24 -188h10z" />
    <glyph glyph-name="uni20B6" unicode="&#x20c5;" horiz-adv-x="433" 
d="M289 667q30 0 55 -2.5t52 -19.5q38 -23 54 -63.5t16 -83.5q0 -53 -19 -94.5t-52.5 -70t-80 -42t-100.5 -9.5l-8 -63h110l-8 -68h-110l-19 -151h-130l19 151h-64l8 68h64l9 63h-64l10 90h63l37 295h158zM234 372q54 0 78.5 26.5t24.5 80.5q0 42 -14 61.5t-52 19.5h-23
l-24 -188h10z" />
    <glyph glyph-name="uni20B6" unicode="&#x20c4;" horiz-adv-x="433" 
d="M289 667q30 0 55 -2.5t52 -19.5q38 -23 54 -63.5t16 -83.5q0 -53 -19 -94.5t-52.5 -70t-80 -42t-100.5 -9.5l-8 -63h110l-8 -68h-110l-19 -151h-130l19 151h-64l8 68h64l9 63h-64l10 90h63l37 295h158zM234 372q54 0 78.5 26.5t24.5 80.5q0 42 -14 61.5t-52 19.5h-23
l-24 -188h10z" />
    <glyph glyph-name="uni20B6" unicode="&#x20c3;" horiz-adv-x="433" 
d="M289 667q30 0 55 -2.5t52 -19.5q38 -23 54 -63.5t16 -83.5q0 -53 -19 -94.5t-52.5 -70t-80 -42t-100.5 -9.5l-8 -63h110l-8 -68h-110l-19 -151h-130l19 151h-64l8 68h64l9 63h-64l10 90h63l37 295h158zM234 372q54 0 78.5 26.5t24.5 80.5q0 42 -14 61.5t-52 19.5h-23
l-24 -188h10z" />
    <glyph glyph-name="uni20B6" unicode="&#x20c2;" horiz-adv-x="433" 
d="M289 667q30 0 55 -2.5t52 -19.5q38 -23 54 -63.5t16 -83.5q0 -53 -19 -94.5t-52.5 -70t-80 -42t-100.5 -9.5l-8 -63h110l-8 -68h-110l-19 -151h-130l19 151h-64l8 68h64l9 63h-64l10 90h63l37 295h158zM234 372q54 0 78.5 26.5t24.5 80.5q0 42 -14 61.5t-52 19.5h-23
l-24 -188h10z" />
    <glyph glyph-name="uni20B6" unicode="&#x20c1;" horiz-adv-x="433" 
d="M289 667q30 0 55 -2.5t52 -19.5q38 -23 54 -63.5t16 -83.5q0 -53 -19 -94.5t-52.5 -70t-80 -42t-100.5 -9.5l-8 -63h110l-8 -68h-110l-19 -151h-130l19 151h-64l8 68h64l9 63h-64l10 90h63l37 295h158zM234 372q54 0 78.5 26.5t24.5 80.5q0 42 -14 61.5t-52 19.5h-23
l-24 -188h10z" />
    <glyph glyph-name="uni20B6" unicode="&#x20c0;" horiz-adv-x="433" 
d="M289 667q30 0 55 -2.5t52 -19.5q38 -23 54 -63.5t16 -83.5q0 -53 -19 -94.5t-52.5 -70t-80 -42t-100.5 -9.5l-8 -63h110l-8 -68h-110l-19 -151h-130l19 151h-64l8 68h64l9 63h-64l10 90h63l37 295h158zM234 372q54 0 78.5 26.5t24.5 80.5q0 42 -14 61.5t-52 19.5h-23
l-24 -188h10z" />
    <glyph glyph-name="uni20B6" unicode="&#x20bf;" horiz-adv-x="433" 
d="M289 667q30 0 55 -2.5t52 -19.5q38 -23 54 -63.5t16 -83.5q0 -53 -19 -94.5t-52.5 -70t-80 -42t-100.5 -9.5l-8 -63h110l-8 -68h-110l-19 -151h-130l19 151h-64l8 68h64l9 63h-64l10 90h63l37 295h158zM234 372q54 0 78.5 26.5t24.5 80.5q0 42 -14 61.5t-52 19.5h-23
l-24 -188h10z" />
    <glyph glyph-name="uni20B6" unicode="&#x20be;" horiz-adv-x="433" 
d="M289 667q30 0 55 -2.5t52 -19.5q38 -23 54 -63.5t16 -83.5q0 -53 -19 -94.5t-52.5 -70t-80 -42t-100.5 -9.5l-8 -63h110l-8 -68h-110l-19 -151h-130l19 151h-64l8 68h64l9 63h-64l10 90h63l37 295h158zM234 372q54 0 78.5 26.5t24.5 80.5q0 42 -14 61.5t-52 19.5h-23
l-24 -188h10z" />
    <glyph glyph-name="uni20B6" unicode="&#x20bd;" horiz-adv-x="433" 
d="M289 667q30 0 55 -2.5t52 -19.5q38 -23 54 -63.5t16 -83.5q0 -53 -19 -94.5t-52.5 -70t-80 -42t-100.5 -9.5l-8 -63h110l-8 -68h-110l-19 -151h-130l19 151h-64l8 68h64l9 63h-64l10 90h63l37 295h158zM234 372q54 0 78.5 26.5t24.5 80.5q0 42 -14 61.5t-52 19.5h-23
l-24 -188h10z" />
    <glyph glyph-name="uni20B6" unicode="&#x20bc;" horiz-adv-x="433" 
d="M289 667q30 0 55 -2.5t52 -19.5q38 -23 54 -63.5t16 -83.5q0 -53 -19 -94.5t-52.5 -70t-80 -42t-100.5 -9.5l-8 -63h110l-8 -68h-110l-19 -151h-130l19 151h-64l8 68h64l9 63h-64l10 90h63l37 295h158zM234 372q54 0 78.5 26.5t24.5 80.5q0 42 -14 61.5t-52 19.5h-23
l-24 -188h10z" />
    <glyph glyph-name="uni20B6" unicode="&#x20bb;" horiz-adv-x="433" 
d="M289 667q30 0 55 -2.5t52 -19.5q38 -23 54 -63.5t16 -83.5q0 -53 -19 -94.5t-52.5 -70t-80 -42t-100.5 -9.5l-8 -63h110l-8 -68h-110l-19 -151h-130l19 151h-64l8 68h64l9 63h-64l10 90h63l37 295h158zM234 372q54 0 78.5 26.5t24.5 80.5q0 42 -14 61.5t-52 19.5h-23
l-24 -188h10z" />
    </font>
</defs>
</svg>
