<svg xmlns="http://www.w3.org/2000/svg" width="217.49" height="332.82" viewBox="0 0 217.49 332.82"><defs><style>.a{fill:#fff;}</style></defs><title>mouse61</title><path class="a" d="M22.62-154H-2.91C-55.67-154-97-111-97-56.11v137c0,54.89,41.33,97.89,94.09,97.89H22.62a98,98,0,0,0,97.87-97.89v-137A98,98,0,0,0,22.62-154ZM10.76-102.7h2a5.6,5.6,0,0,1,5.6,5.6v39.86a5.6,5.6,0,0,1-5.6,5.6h-2a5.6,5.6,0,0,1-5.6-5.6V-97.1a5.6,5.6,0,0,1,5.6-5.6ZM107.69,80.93A85.17,85.17,0,0,1,22.62,166H-2.91C-48.5,166-84.2,128.65-84.2,80.93v-137c0-47.71,35.7-85.09,81.29-85.09H5.27v26.53A18.45,18.45,0,0,0-7.64-97.1v39.86A18.42,18.42,0,0,0,5.27-39.68V-6.74a6.4,6.4,0,0,0,6.4,6.4,6.41,6.41,0,0,0,6.4-6.4V-39.63A18.42,18.42,0,0,0,31.13-57.24V-97.1a18.43,18.43,0,0,0-13.06-17.61V-141.2h4.55a85.17,85.17,0,0,1,85.07,85.09Zm0,0" transform="translate(97 154)"/></svg>