<svg xmlns="http://www.w3.org/2000/svg" width="92.25" height="92.28" viewBox="0 0 92.25 92.28">
  <defs>
    <style>
      .cls-1 {
        fill: #0095fe;
        fill-rule: evenodd;
      }
    </style>
  </defs>
  <path id="pow1.svg" class="cls-1" d="M398.96,5049.26q-13.039,0-26.079-.01c-1.607,0-3.219-.1-4.821-0.02-0.942.06-1.069-.33-1.048-1.1,0.078-2.95.175-5.9,0.167-8.84-0.014-4.65-.151-9.3-0.159-13.96-0.021-13.13,0-26.27-.012-39.4a0.746,0.746,0,0,1,.893-0.92c0.758,0.04,1.519.04,2.279,0.04h58.176c0.7,0,1.4,0,2.1-.02a0.642,0.642,0,0,1,.766.76c-0.022.52-.006,1.04-0.006,1.55q0,30.315,0,60.62c0,1.29,0,1.29-1.345,1.29H398.96v0.01Zm0.1-4.11q13.4,0,26.8.02a0.948,0.948,0,0,0,1.175-1.13q-0.032-26.79-.018-53.57c0-1.27-.067-1.33-1.344-1.33h-53.24c-1.3,0-1.305,0-1.305,1.33q0,26.685,0,53.38c0,1.3.005,1.3,1.309,1.3h26.62Zm41.031-7.86c-1.337,0-2.675-.03-4.011.01a0.82,0.82,0,0,1-1.026-.99c0.045-.82.023-1.65,0.005-2.47a0.691,0.691,0,0,1,.813-0.82c2.795,0.01,5.591,0,8.386,0a0.837,0.837,0,0,1,.983.99c-0.03.79-.017,1.58-0.008,2.37a0.8,0.8,0,0,1-.949.92C442.886,5037.28,441.488,5037.29,440.091,5037.29Zm-20.9,21c0,1.3-.035,2.61.014,3.92a0.884,0.884,0,0,1-1.125,1.08c-0.754-.05-1.516-0.03-2.274-0.01a0.682,0.682,0,0,1-.824-0.8c0.013-2.85.014-5.71,0-8.56a0.692,0.692,0,0,1,.822-0.81c0.849,0.01,1.7.02,2.547,0a0.74,0.74,0,0,1,.846.9C419.178,5055.44,419.188,5056.86,419.188,5058.29Zm-12.031-.07c0,1.4-.02,2.8.007,4.2a0.709,0.709,0,0,1-.852.86c-0.85-.02-1.7-0.01-2.552,0a0.657,0.657,0,0,1-.758-0.78q0.015-4.275.009-8.57a0.693,0.693,0,0,1,.807-0.83c0.85,0.03,1.7.03,2.552,0.01a0.673,0.673,0,0,1,.8.82C407.142,5055.36,407.158,5056.79,407.157,5058.22Zm-11.988.01c0,1.4-.02,2.79.009,4.19a0.716,0.716,0,0,1-.864.86c-0.85-.02-1.7-0.01-2.55-0.01a0.7,0.7,0,0,1-.818-0.82q0.018-4.245.006-8.48a0.736,0.736,0,0,1,.884-0.86c0.758,0.02,1.52.04,2.276-.01a0.838,0.838,0,0,1,1.069,1.03C395.133,5055.49,395.168,5056.86,395.169,5058.23Zm44.918-37.16c1.426,0,2.852.02,4.278-.01a0.726,0.726,0,0,1,.871.86c-0.021.85-.008,1.7,0,2.55a0.692,0.692,0,0,1-.778.79c-2.882,0-5.764.02-8.645-.03a1,1,0,0,1-.709-0.67c-0.084-.93-0.023-1.88-0.033-2.82-0.006-.59.347-0.68,0.834-0.68C437.3,5021.08,438.692,5021.07,440.087,5021.07Zm0.1-7.87c-1.4,0-2.793-.03-4.187.01a0.774,0.774,0,0,1-.944-0.96c0.039-.82.019-1.64,0.01-2.46a0.625,0.625,0,0,1,.711-0.73c2.913,0.01,5.827-.01,8.739.04a1.011,1.011,0,0,1,.679.71c0.092,0.84.017,1.7,0.05,2.55a0.707,0.707,0,0,1-.87.84C442.976,5013.18,441.58,5013.2,440.184,5013.2Zm-0.123-12.01c-1.336,0-2.673-.02-4.008.01a0.833,0.833,0,0,1-1-1.03c0.039-.79.024-1.58,0.01-2.37a0.706,0.706,0,0,1,.818-0.83q4.234,0.015,8.471,0a0.751,0.751,0,0,1,.883.87c-0.013.79-.021,1.58,0,2.37a0.838,0.838,0,0,1-.986.99C442.855,5001.18,441.458,5001.19,440.061,5001.19Zm-82-4.21c1.395,0,2.789.01,4.184-.01a0.771,0.771,0,0,1,.892.95c-0.04.76-.069,1.52-0.046,2.28a0.853,0.853,0,0,1-1.047,1q-4.047-.03-8.094,0a0.786,0.786,0,0,1-.952-0.9c0.021-.82.021-1.64,0.007-2.46a0.737,0.737,0,0,1,.872-0.87C355.271,4996.99,356.665,4996.98,358.06,4996.98Zm37.112-20.85c0,1.36-.026,2.73.011,4.09a0.749,0.749,0,0,1-.9.92q-1.227-.03-2.455,0a0.736,0.736,0,0,1-.884-0.86q0.016-4.23,0-8.46a0.7,0.7,0,0,1,.817-0.82c0.818,0.01,1.638.03,2.455,0a0.775,0.775,0,0,1,.961.94c-0.037,1.4-.011,2.79-0.011,4.19h0.006Zm11.987-.1c0,1.43-.014,2.86.007,4.29a0.671,0.671,0,0,1-.8.82c-0.85-.03-1.7-0.02-2.552,0a0.694,0.694,0,0,1-.809-0.83q0.01-4.245,0-8.49a0.694,0.694,0,0,1,.819-0.82c0.85,0.02,1.7.03,2.552,0a0.668,0.668,0,0,1,.777.83c-0.017,1.4-.006,2.8-0.006,4.2h0Zm7.827,0.03c0-1.4.015-2.8-.008-4.19a0.72,0.72,0,0,1,.857-0.87c0.818,0.02,1.639.02,2.458,0a0.737,0.737,0,0,1,.891.85c-0.007,2.83,0,5.65,0,8.48a0.7,0.7,0,0,1-.834.81c-0.788-.02-1.58-0.04-2.366,0a0.8,0.8,0,0,1-1.012-.98C415.02,4978.79,414.987,4977.43,414.986,4976.06Zm-56.937,33c1.367,0,2.735.01,4.1-.01a0.783,0.783,0,0,1,.936.92c-0.014.82,0,1.64,0.042,2.46a0.6,0.6,0,0,1-.673.75c-2.216-.01-4.431-0.04-6.647-0.07a13.456,13.456,0,0,1-1.908-.07,0.976,0.976,0,0,1-.7-0.58c-0.136-.83-0.141-1.69-0.2-2.54a0.705,0.705,0,0,1,.856-0.86c1.4,0.02,2.8.01,4.194,0.01v-0.01Zm20.939,49.09c0-1.39.031-2.79-.013-4.19a0.69,0.69,0,0,1,.832-0.86c0.818,0.03,1.639.02,2.457,0a0.683,0.683,0,0,1,.83.8c-0.013,2.85-.013,5.71,0,8.56a0.68,0.68,0,0,1-.805.82c-0.849-.03-1.7-0.02-2.549,0a0.663,0.663,0,0,1-.761-0.84C379.005,5061.01,378.987,5059.58,378.988,5058.15Zm0.017-82.1c0-1.42.015-2.85-.008-4.28a0.627,0.627,0,0,1,.734-0.77c0.88,0.02,1.76.01,2.64,0a0.616,0.616,0,0,1,.714.72q0,4.365,0,8.75a0.618,0.618,0,0,1-.756.67c-0.849-.01-1.7-0.02-2.549,0a0.657,0.657,0,0,1-.8-0.8c0.03-1.43.01-2.86,0.01-4.29h0Zm-20.794,61.08c-1.42,0-2.841,0-4.262.01a0.7,0.7,0,0,1-.8-0.84c0.019-.76.016-1.52,0-2.28a0.711,0.711,0,0,1,.819-0.83h8.064a0.749,0.749,0,0,1,.88.94,17.649,17.649,0,0,0,.059,2,0.816,0.816,0,0,1-.865,1.01c-1.3.04-2.6,0.13-3.9,0.2Zm0.894-16.07c0.94,0,1.88.02,2.82-.01a0.818,0.818,0,0,1,.963.99c-0.02.79,0.075,1.58,0.012,2.36a0.913,0.913,0,0,1-.6.65c-2.807.05-5.616,0.03-8.424,0.04a0.627,0.627,0,0,1-.711-0.73c0.009-.79.023-1.58-0.007-2.37a0.706,0.706,0,0,1,.866-0.84c1.695,0.02,3.391,0,5.087,0C359.106,5021.12,359.106,5021.09,359.105,5021.06Zm39.879,14.15c-5.683,0-11.366-.01-17.049.02a0.812,0.812,0,0,1-1-.99c0.018-11.04.01-22.09,0.034-33.13,0-2.09.055-2.09,2.179-2.09q16.365,0.015,32.731.01c1.307,0,1.309,0,1.309,1.32q0,16.74,0,33.5c0,1.37,0,1.37-1.334,1.37H398.984v-0.01Zm0.1-4.08c4.285,0,8.571-.01,12.857.02a0.909,0.909,0,0,0,1.128-1.08q-0.037-12.915-.006-25.83a0.884,0.884,0,0,0-1.057-1.07q-12.9.03-25.806,0a0.872,0.872,0,0,0-1.064,1.05q0.033,12.915,0,25.83a0.893,0.893,0,0,0,1.087,1.1C390.508,5031.11,394.794,5031.13,399.08,5031.13Z" transform="translate(-353 -4971)"/>
</svg>
