<svg xmlns="http://www.w3.org/2000/svg" width="26" height="26" viewBox="0 0 26 26">
  <defs>
    <style>
      .cls-1 {
        fill: #f6f6f6;
        fill-rule: evenodd;
      }
    </style>
  </defs>
  <path id="webcam.svg" class="cls-1" d="M272,6431.97A13,13,0,1,1,258.945,6419,13.01,13.01,0,0,1,272,6431.97Zm-13.086,11.4a11.362,11.362,0,1,0-11.247-12.05A11.377,11.377,0,0,0,258.914,6443.37Zm7.581-11.35a7.487,7.487,0,1,1-7.488-7.5A7.443,7.443,0,0,1,266.5,6432.02Zm-7.56-5.86a5.85,5.85,0,1,0,5.928,5.83A5.846,5.846,0,0,0,258.935,6426.16Zm-4.159,4.78a2.716,2.716,0,0,1,2.653-2.73,2.721,2.721,0,1,1,.1,5.44A2.7,2.7,0,0,1,254.776,6430.94Zm4-.01a1.315,1.315,0,0,0-1.261-1.29A1.29,1.29,0,1,0,258.78,6430.93Z" transform="translate(-246 -6419)"/>
</svg>
