<?xml version="1.0" encoding="utf-8"?>
<!-- Generator: Adobe Illustrator 22.1.0, SVG Export Plug-In . SVG Version: 6.00 Build 0)  -->
<svg version="1.1" id="Слой_1" xmlns="http://www.w3.org/2000/svg" xmlns:xlink="http://www.w3.org/1999/xlink" x="0px" y="0px"
	 viewBox="0 0 612 792" style="enable-background:new 0 0 612 792;" xml:space="preserve">
<style type="text/css">
	.st0{fill:#5166E1;}
</style>
<g>
	<g>
		<path class="st0" d="M365.4,386.3c0,34.5-27.9,62.5-62.4,62.5c-34.5,0-62.5-28-62.5-62.5c0-34.5,28-62.4,62.5-62.4
			C337.5,323.9,365.4,351.8,365.4,386.3L365.4,386.3z M365.4,386.3"/>
		<path class="st0" d="M553.4,378.4c-4.6-4.8-113.4-118.8-250.5-118.8c-137,0-245.7,114-250.3,118.8c-4.2,4.5-4.2,11.4,0,15.8
			c4.5,4.8,113.3,118.9,250.3,118.9c137.1,0,245.9-114.1,250.5-118.9C557.6,389.8,557.6,382.8,553.4,378.4L553.4,378.4z M303,482.9
			c-53.2,0-96.5-43.3-96.5-96.5c0-53.2,43.2-96.6,96.5-96.6c53.2,0,96.5,43.3,96.5,96.6C399.5,439.5,356.2,482.9,303,482.9
			L303,482.9z M226.5,295.2c-26.1,21.9-43.1,54.4-43.1,91.1c0,36.6,17,69.1,43.1,91.1c-72.2-23.2-128.8-72-149-91.1
			C97.7,367.2,154.4,318.4,226.5,295.2L226.5,295.2z M379.5,477.4c26.1-21.9,43.1-54.5,43.1-91.1c0-36.7-17-69.2-43.1-91.1
			c72.1,23.3,128.7,72,149,91.1C508.2,405.4,451.6,454.1,379.5,477.4L379.5,477.4z M379.5,477.4"/>
	</g>
	<path class="st0" d="M123,622H99.2l34.4-34.4c5.9-5.9,5.9-15.4,0-21.2c-5.9-5.9-15.4-5.9-21.2,0L78,600.8V577c0-8.3-6.7-15-15-15
		c-8.3,0-15,6.7-15,15v60c0,0,0,0,0,0c0,8.3,6.9,15,15,15h60c8.3,0,15-6.7,15-15S131.3,622,123,622L123,622z M123,622"/>
	<path class="st0" d="M63,230c8.3,0,15-6.7,15-15v-23.8l34.4,34.4c5.9,5.9,15.4,5.9,21.2,0c5.9-5.9,5.9-15.4,0-21.2L99.2,170H123
		c8.3,0,15-6.7,15-15s-6.7-15-15-15H63c-8.3,0-15,6.7-15,15c0,0,0,0,0,0v60C48,223.3,54.7,230,63,230L63,230z M63,230"/>
	<path class="st0" d="M545,562c-8.3,0-15,6.7-15,15v23.8l-34.4-34.4c-5.9-5.9-15.4-5.9-21.2,0c-5.9,5.9-5.9,15.4,0,21.2l34.4,34.4
		H485c-8.3,0-15,6.7-15,15s6.7,15,15,15h60c7.7,0,14.2-5.9,14.9-13.5c0-0.5,0.1-1,0.1-1.4c0,0,0,0,0,0v-60
		C560,568.7,553.3,562,545,562L545,562z M545,562"/>
	<path class="st0" d="M485,170h23.8l-34.4,34.4c-5.9,5.9-5.9,15.4,0,21.2c2.9,2.9,6.8,4.4,10.6,4.4c3.8,0,7.7-1.5,10.6-4.4
		l34.4-34.4V215c0,8.3,6.7,15,15,15c8.3,0,15-6.7,15-15v-60c0,0,0,0,0,0c0-7.6-5.8-14.1-13.5-14.9c-0.5,0-1-0.1-1.5-0.1h-60
		c-8.3,0-15,6.7-15,15S476.7,170,485,170L485,170z M485,170"/>
</g>
</svg>
