<svg xmlns="http://www.w3.org/2000/svg" viewBox="0 0 87.61 122.84"><defs><style>.a{fill:#e9f5fd;}</style></defs><title>Без названия</title><polygon class="a" points="81.31 2.68 60.88 18.13 69.51 16.93 81.31 2.68"/><polygon class="a" points="85.23 0 70.86 16.63 86.12 13.75 85.23 0"/><polygon class="a" points="86.4 14.7 70.1 17.77 74.9 30.44 87.61 18.49 86.4 14.7"/><polygon class="a" points="68.84 18.03 59.7 19.46 67.16 27.82 73.88 30.69 68.84 18.03"/><polygon class="a" points="44.43 18.49 44.43 27.54 57.21 19.66 44.43 18.49"/><polygon class="a" points="44.55 30.44 44.55 54.42 50.63 38.66 44.55 30.44"/><polygon class="a" points="58.53 20 49.81 25.26 65.61 27.57 58.53 20"/><polygon class="a" points="48.68 26 44.43 28.93 50.95 37.72 66.18 28.62 48.68 26"/><path class="a" d="M138.24,56.47l.24.38c1.33,2.17.94,4.84-.87,5.95s-4.37.25-5.7-1.92l-.24-.38-3.2,2L133.92,66l5.18-.72,3-4.3-.66-6.43Z" transform="translate(-76.66 -23.53)"/><path class="a" d="M137.66,56.83c1.25,2,1.05,4.42-.44,5.34s-3.72,0-5-2" transform="translate(-76.66 -23.53)"/><polygon class="a" points="67.78 28.93 65.71 30.39 66.89 37.42 63.19 43.06 56.05 43.43 51.11 39.57 51.22 52.87 63.72 52.32 68.87 45.15 74.9 31.69 67.78 28.93"/><polygon class="a" points="75.55 32.66 70.03 44.61 77.39 38.86 75.55 32.66"/><polygon class="a" points="77.58 40.35 73.92 51.15 83.77 60.08 77.58 40.35"/><polygon class="a" points="69.14 46.15 65.22 52.26 70.84 56.63 76.93 40.04 69.14 46.15"/><polygon class="a" points="83.46 61.28 73.73 52.62 72.24 57.23 66.79 60.82 83.46 61.28"/><polygon class="a" points="63.91 53.02 51.94 54.21 58.14 63.32 70.41 57.56 63.91 53.02"/><polygon class="a" points="50.45 54.21 44.32 66.42 56.71 63.72 50.45 54.21"/><polygon class="a" points="65.99 61.72 86.73 85.89 82.98 62 65.99 61.72"/><polygon class="a" points="70 79.78 86.73 87.33 65.63 62.95 70 79.78"/><polygon class="a" points="75.82 110.11 84.94 87.48 70.12 80.77 75.82 110.11"/><polygon class="a" points="74.5 109.77 60.15 94.24 68.99 80.69 74.5 109.77"/><polygon class="a" points="72.62 109.08 45.29 122.84 59.64 95.22 72.62 109.08"/><polygon class="a" points="58.95 94.66 44.67 121.84 44.32 101.9 58.95 94.66"/><polygon class="a" points="54.13 65.69 44.4 67.28 44.55 76.71 55.82 71.43 54.13 65.69"/><polygon class="a" points="64.15 61.99 55.21 65.69 56.73 71.2 68.38 77.79 64.15 61.99"/><polygon class="a" points="52.28 89.61 44.41 92.85 44.4 100.84 59.48 93.25 52.28 89.61"/><polygon class="a" points="55.82 72.5 44.41 77.97 44.41 91.83 51.95 88.87 55.82 72.5"/><polygon class="a" points="68.48 79.28 56.83 72.5 53.01 88.69 60.15 92.51 68.48 79.28"/><polygon class="a" points="6.3 2.68 26.73 18.13 18.1 16.93 6.3 2.68"/><polygon class="a" points="2.38 0 16.75 16.63 1.49 13.75 2.38 0"/><polygon class="a" points="1.21 14.7 17.51 17.77 12.71 30.44 0 18.49 1.21 14.7"/><polygon class="a" points="18.77 18.03 27.91 19.46 20.45 27.82 13.73 30.69 18.77 18.03"/><polygon class="a" points="43.18 18.49 43.18 27.54 30.41 19.66 43.18 18.49"/><polygon class="a" points="43.06 30.44 43.06 54.42 36.98 38.66 43.06 30.44"/><polygon class="a" points="29.08 20 37.8 25.26 22 27.57 29.08 20"/><polygon class="a" points="38.93 26 43.18 28.93 36.66 37.72 21.43 28.62 38.93 26"/><path class="a" d="M102.7,56.47l-.24.38c-1.33,2.17-.94,4.84.87,5.95s4.37.25,5.7-1.92l.24-.38,3.2,2L107,66l-5.18-.72-3-4.3.66-6.43Z" transform="translate(-76.66 -23.53)"/><path class="a" d="M103.28,56.83c-1.25,2-1,4.42.44,5.34s3.72,0,5-2" transform="translate(-76.66 -23.53)"/><polygon class="a" points="19.84 28.93 21.9 30.39 20.72 37.42 24.42 43.06 31.57 43.43 36.5 39.57 36.4 52.87 23.89 52.32 18.74 45.15 12.71 31.69 19.84 28.93"/><polygon class="a" points="12.06 32.66 17.58 44.61 10.22 38.86 12.06 32.66"/><polygon class="a" points="10.03 40.35 13.69 51.15 3.84 60.08 10.03 40.35"/><polygon class="a" points="18.47 46.15 22.39 52.26 16.77 56.63 10.68 40.04 18.47 46.15"/><polygon class="a" points="4.15 61.28 13.88 52.62 15.37 57.23 20.82 60.82 4.15 61.28"/><polygon class="a" points="23.71 53.02 35.67 54.21 29.47 63.32 17.2 57.56 23.71 53.02"/><polygon class="a" points="37.16 54.21 43.29 66.42 30.9 63.72 37.16 54.21"/><polygon class="a" points="21.62 61.72 0.88 85.89 4.63 62 21.62 61.72"/><polygon class="a" points="17.61 79.78 0.88 87.33 21.98 62.95 17.61 79.78"/><polygon class="a" points="11.79 110.11 2.68 87.48 17.49 80.77 11.79 110.11"/><polygon class="a" points="13.11 109.77 27.47 94.24 18.62 80.69 13.11 109.77"/><polygon class="a" points="14.99 109.08 42.32 122.84 27.97 95.22 14.99 109.08"/><polygon class="a" points="28.66 94.66 42.94 121.84 43.29 101.9 28.66 94.66"/><polygon class="a" points="33.48 65.69 43.22 67.28 43.06 76.71 31.79 71.43 33.48 65.69"/><polygon class="a" points="23.46 61.99 32.4 65.69 30.88 71.2 19.23 77.79 23.46 61.99"/><polygon class="a" points="35.33 89.61 43.2 92.85 43.22 100.84 28.13 93.25 35.33 89.61"/><polygon class="a" points="31.79 72.5 43.2 77.97 43.2 91.83 35.66 88.87 31.79 72.5"/><polygon class="a" points="19.13 79.28 30.78 72.5 34.61 88.69 27.47 92.51 19.13 79.28"/><polygon class="a" points="43.81 58.08 37.37 42.11 37.32 53.46 43.81 65.39 50.3 53.46 50.24 42.11 43.81 58.08"/></svg>