<svg xmlns="http://www.w3.org/2000/svg" viewBox="0 0 150.75 150.75"><defs><style>.a{fill:#5166e1;}.b{fill:none;stroke:#5166e1;stroke-width:5px;}</style></defs><title>owl-logo</title><polygon class="a" points="112.88 23.63 92.45 39.09 101.08 37.88 112.88 23.63"/><polygon class="a" points="116.8 20.95 102.43 37.59 117.69 34.71 116.8 20.95"/><polygon class="a" points="117.97 35.65 101.67 38.73 106.47 51.4 119.18 39.44 117.97 35.65"/><polygon class="a" points="100.41 38.98 91.27 40.41 98.73 48.77 105.45 51.64 100.41 38.98"/><polygon class="a" points="76 39.44 76 48.49 88.78 40.61 76 39.44"/><polygon class="a" points="76.12 51.4 76.12 75.37 82.2 59.62 76.12 51.4"/><polygon class="a" points="90.1 40.96 81.38 46.21 97.18 48.52 90.1 40.96"/><polygon class="a" points="80.25 46.96 76 49.88 82.52 58.68 97.75 49.58 80.25 46.96"/><path class="a" d="M138.24,56.47l.24.38c1.33,2.17.94,4.84-.87,5.95s-4.37.25-5.7-1.92l-.24-.38-3.2,2L133.92,66l5.18-.72,3-4.3-.66-6.43Z" transform="translate(-45.1 -2.58)"/><path class="a" d="M137.66,56.83c1.25,2,1.05,4.42-.44,5.34s-3.72,0-5-2" transform="translate(-45.1 -2.58)"/><polygon class="a" points="99.35 49.88 97.28 51.35 98.46 58.38 94.76 64.01 87.62 64.38 82.68 60.52 82.78 73.82 95.29 73.28 100.44 66.1 106.47 52.64 99.35 49.88"/><polygon class="a" points="107.12 53.62 101.6 65.56 108.96 59.81 107.12 53.62"/><polygon class="a" points="109.15 61.31 105.49 72.11 115.34 81.04 109.15 61.31"/><polygon class="a" points="100.71 67.11 96.79 73.22 102.41 77.58 108.5 61 100.71 67.11"/><polygon class="a" points="115.03 82.23 105.3 73.57 103.81 78.19 98.36 81.78 115.03 82.23"/><polygon class="a" points="95.47 73.98 83.51 75.17 89.71 84.28 101.98 78.52 95.47 73.98"/><polygon class="a" points="82.02 75.17 75.89 87.37 88.28 84.67 82.02 75.17"/><polygon class="a" points="97.56 82.68 118.3 106.84 114.55 82.96 97.56 82.68"/><polygon class="a" points="101.57 100.73 118.3 108.28 97.2 83.91 101.57 100.73"/><polygon class="a" points="107.39 131.07 116.5 108.43 101.69 101.72 107.39 131.07"/><polygon class="a" points="106.07 130.72 91.71 115.2 100.56 101.64 106.07 130.72"/><polygon class="a" points="104.19 130.04 76.86 143.79 91.21 116.18 104.19 130.04"/><polygon class="a" points="90.52 115.61 76.24 142.79 75.89 122.86 90.52 115.61"/><polygon class="a" points="85.7 86.65 75.97 88.23 76.12 97.67 87.39 92.39 85.7 86.65"/><polygon class="a" points="95.72 82.94 86.78 86.65 88.3 92.16 99.95 98.75 95.72 82.94"/><polygon class="a" points="83.85 110.57 75.98 113.8 75.97 121.79 91.05 114.2 83.85 110.57"/><polygon class="a" points="87.39 93.45 75.98 98.92 75.98 112.79 83.52 109.82 87.39 93.45"/><polygon class="a" points="100.05 100.23 88.4 93.45 84.58 109.64 91.71 113.47 100.05 100.23"/><polygon class="a" points="37.87 23.63 58.3 39.09 49.67 37.88 37.87 23.63"/><polygon class="a" points="33.95 20.95 48.32 37.59 33.06 34.71 33.95 20.95"/><polygon class="a" points="32.78 35.65 49.08 38.73 44.28 51.4 31.57 39.44 32.78 35.65"/><polygon class="a" points="50.34 38.98 59.48 40.41 52.02 48.77 45.3 51.64 50.34 38.98"/><polygon class="a" points="74.75 39.44 74.75 48.49 61.98 40.61 74.75 39.44"/><polygon class="a" points="74.63 51.4 74.63 75.37 68.55 59.62 74.63 51.4"/><polygon class="a" points="60.65 40.96 69.37 46.21 53.57 48.52 60.65 40.96"/><polygon class="a" points="70.5 46.96 74.75 49.88 68.23 58.68 53 49.58 70.5 46.96"/><path class="a" d="M102.7,56.47l-.24.38c-1.33,2.17-.94,4.84.87,5.95s4.37.25,5.7-1.92l.24-.38,3.2,2L107,66l-5.18-.72-3-4.3.66-6.43Z" transform="translate(-45.1 -2.58)"/><path class="a" d="M103.28,56.83c-1.25,2-1,4.42.44,5.34s3.72,0,5-2" transform="translate(-45.1 -2.58)"/><polygon class="a" points="51.4 49.88 53.47 51.35 52.29 58.38 55.99 64.01 63.13 64.38 68.07 60.52 67.97 73.82 55.46 73.28 50.31 66.1 44.28 52.64 51.4 49.88"/><polygon class="a" points="43.63 53.62 49.15 65.56 41.79 59.81 43.63 53.62"/><polygon class="a" points="41.6 61.31 45.26 72.11 35.41 81.04 41.6 61.31"/><polygon class="a" points="50.04 67.11 53.96 73.22 48.34 77.58 42.25 61 50.04 67.11"/><polygon class="a" points="35.72 82.23 45.45 73.57 46.94 78.19 52.39 81.78 35.72 82.23"/><polygon class="a" points="55.27 73.98 67.24 75.17 61.04 84.28 48.77 78.52 55.27 73.98"/><polygon class="a" points="68.73 75.17 74.86 87.37 62.47 84.67 68.73 75.17"/><polygon class="a" points="53.19 82.68 32.45 106.84 36.2 82.96 53.19 82.68"/><polygon class="a" points="49.18 100.73 32.45 108.28 53.55 83.91 49.18 100.73"/><polygon class="a" points="43.36 131.07 34.25 108.43 49.06 101.72 43.36 131.07"/><polygon class="a" points="44.68 130.72 59.04 115.2 50.19 101.64 44.68 130.72"/><polygon class="a" points="46.56 130.04 73.89 143.79 59.54 116.18 46.56 130.04"/><polygon class="a" points="60.23 115.61 74.51 142.79 74.86 122.86 60.23 115.61"/><polygon class="a" points="65.05 86.65 74.78 88.23 74.63 97.67 63.36 92.39 65.05 86.65"/><polygon class="a" points="55.03 82.94 63.97 86.65 62.45 92.16 50.8 98.75 55.03 82.94"/><polygon class="a" points="66.9 110.57 74.77 113.8 74.78 121.79 59.7 114.2 66.9 110.57"/><polygon class="a" points="63.36 93.45 74.77 98.92 74.77 112.79 67.23 109.82 63.36 93.45"/><polygon class="a" points="50.7 100.23 62.35 93.45 66.17 109.64 59.04 113.47 50.7 100.23"/><polygon class="a" points="75.38 79.03 68.94 63.06 68.89 74.41 75.38 86.34 81.86 74.41 81.81 63.06 75.38 79.03"/><circle class="b" cx="75.38" cy="75.38" r="72.88"/></svg>