<svg id="Layer_1" data-name="Layer 1" xmlns="http://www.w3.org/2000/svg" viewBox="0 0 450 450"><defs><style>.cls-1{fill:#ffb446;}.cls-2{fill:#ffdc64;}.cls-3{fill:#c9c6ca;}.cls-4{fill:#6e4b53;}.cls-5{fill:#5c414b;}.cls-6{fill:#e6af78;}.cls-7{fill:#d29b6e;}.cls-8{fill:#f0c087;}.cls-9{fill:#dbd9dc;}</style></defs><title>after-2</title><g id="_2" data-name="2"><path class="cls-1" d="M102.93,229.61c0,54.37,54.65,98.45,122.07,98.45h0c67.42,0,122.07-44.08,122.07-98.45,0-54.7-33.91-98.45-11.16-136.74,0,0-36.31,5.47-56.66,49.23,0,0-67.81-54.7-39.48-131.27,0,0-69,21.88-61.8,93,6.19,61-7.22,71.1-7.22,71.1,0-49.22-47.72-71.1-47.72-71.1C136.84,164,102.93,180.38,102.93,229.61Z"/><path class="cls-2" d="M313.11,252.92c0,41-39.2,75.91-90,75.12-47.77-.74-83.32-30.06-79.52-68.35,1.7-17.09,17.8-44.78,44.08-72.81l17.52,8.54c-.56-34.64,19.78-80.67,19.78-80.67C238.36,163.25,313.11,175.83,313.11,252.92Z"/><path class="cls-3" d="M310.88,308.69l-30.95-12.18H170.07l-30.95,12.18a29.94,29.94,0,0,0-19,29.08l3.76,93.81a10,10,0,0,0,10,9.59H316.11a10,10,0,0,0,10-9.59l3.76-93.81A29.94,29.94,0,0,0,310.88,308.69Z"/><polygon class="cls-4" points="217.71 331.31 211.32 441.17 238.68 441.17 232.29 331.31 217.71 331.31"/><path class="cls-5" d="M229.56,336.3h-9.12a5.43,5.43,0,0,1-5.43-5.43V316.33h20v14.54A5.44,5.44,0,0,1,229.56,336.3Z"/><rect class="cls-6" x="190.05" y="256.4" width="69.91" height="59.93"/><path class="cls-7" d="M190,275.05a59.64,59.64,0,0,0,69.92,0V256.41H190v18.64Z"/><path class="cls-4" d="M225,131.72c-24.93,1.35-39.12,15-39.12,15s-20.8,0-20.8,25c0,20,5,39.79,5,39.79H284.92C294.91,156.53,271.19,129.23,225,131.72Z"/><path class="cls-5" d="M195,190.86c-18.35-22.94-9.16-44.16-9.16-44.16s-20.8,0-20.8,25c0,20,5,39.79,5,39.79h25v-20.6Z"/><path class="cls-8" d="M279.93,206.47h-5l-6.58-12A5,5,0,0,0,263,192c-32.89,6-54.5-1.63-62.69-5.45a4.9,4.9,0,0,0-6.08,1.58,105.51,105.51,0,0,1-14,15.7,10,10,0,0,1-6.79,2.66h-3.6a9.79,9.79,0,0,0-1.67.18c-4.86.94-8.14,5.58-8.14,10.53v3.62c0,4.78,3.06,9.28,7.71,10.37a10,10,0,0,0,3.05.23,4.86,4.86,0,0,1,5.09,4.06,49.88,49.88,0,0,0,98.14,0,4.84,4.84,0,0,1,4.83-4h1a10,10,0,0,0,10-10v-5A10,10,0,0,0,279.93,206.47Z"/><path class="cls-6" d="M195,226.44V187.35a4.66,4.66,0,0,0-.78.76,105.51,105.51,0,0,1-14,15.7,10,10,0,0,1-6.79,2.66h-3.6a9.79,9.79,0,0,0-1.67.18c-4.86.94-8.14,5.58-8.14,10.53v3.62c0,4.78,3.06,9.28,7.71,10.37a10.33,10.33,0,0,0,3.05.24,4.84,4.84,0,0,1,5.09,4.05,49.74,49.74,0,0,0,59,39.9A50,50,0,0,1,195,226.44Z"/><path class="cls-9" d="M225,316.48l-36.43-31.87a5,5,0,0,0-6.82.22l-11.68,11.68,23.21,34.81a10,10,0,0,0,15.37,1.52Z"/><path class="cls-9" d="M225,316.48l36.43-31.87a5,5,0,0,1,6.82.22l11.68,11.68-23.2,34.81a10,10,0,0,1-15.38,1.52Z"/><path class="cls-9" d="M146.31,342.66l-21.72-21.72a29.89,29.89,0,0,0-4.44,16.83l3.76,93.81a10,10,0,0,0,10,9.59h21.2V363.85A30,30,0,0,0,146.31,342.66Z"/></g></svg>