<svg xmlns="http://www.w3.org/2000/svg" width="20" height="20" viewBox="0 0 20 20">
  <defs>
    <style>
      .cls-1 {
        fill: #7c7b7b;
        fill-rule: evenodd;
      }
    </style>
  </defs>
  <path id="coin.svg" class="cls-1" d="M1025,689a10,10,0,1,0,10,10A10,10,0,0,0,1025,689Zm4.83,12.517a2.529,2.529,0,0,1-1.63,1.614,6.681,6.681,0,0,1-1.76.416c-0.3.041-.31,0.051-0.31,0.36a3.692,3.692,0,0,0,0,.576,0.625,0.625,0,0,1-.55.7,3.214,3.214,0,0,1-1.46,0,0.67,0.67,0,0,1-.55-0.684c0.02-.222,0-0.449,0-0.673a0.209,0.209,0,0,0-.23-0.238,12.89,12.89,0,0,1-2.7-.481,1.176,1.176,0,0,1-.34-0.169,0.373,0.373,0,0,1-.14-0.58,2.048,2.048,0,0,1,.7-0.825,1.581,1.581,0,0,1,1.12-.032c0.55,0.108,1.11.227,1.67,0.292a5.512,5.512,0,0,0,2.04-.071,1.618,1.618,0,0,0,.41-0.156,0.744,0.744,0,0,0-.26-1.355c-0.41-.115-0.83-0.195-1.26-0.279a14.893,14.893,0,0,1-2.25-.553,4.093,4.093,0,0,1-1.18-.622,2.009,2.009,0,0,1-.75-1.824,2.236,2.236,0,0,1,1.53-1.919,6.579,6.579,0,0,1,1.73-.436,0.225,0.225,0,0,0,.23-0.261c-0.01-.217.01-0.436-0.01-0.654a0.771,0.771,0,0,1,.79-0.915,4.472,4.472,0,0,1,1.25.067,0.613,0.613,0,0,1,.54.71v0.346c0,0.147.01,0.294,0,.442a0.215,0.215,0,0,0,.23.259c0.38,0.042.75,0.094,1.12,0.158a4.557,4.557,0,0,1,.75.178,1.039,1.039,0,0,1,.39.264,0.3,0.3,0,0,1,.02.424,4.827,4.827,0,0,1-.5.608,1.305,1.305,0,0,1-1.28.258,7.764,7.764,0,0,0-2.48-.172,1.582,1.582,0,0,0-.57.175,0.629,0.629,0,0,0-.34.69,0.657,0.657,0,0,0,.59.559c0.59,0.134,1.19.242,1.78,0.362a8.53,8.53,0,0,1,2.53.769,2.233,2.233,0,0,1,1.13,1.323A2.466,2.466,0,0,1,1029.83,701.517Z" transform="translate(-1015 -689)"/>
</svg>
