<svg xmlns="http://www.w3.org/2000/svg" width="60" height="46" viewBox="0 0 60 46">
  <defs>
    <style>
      .cls-1 {
        fill: #0095fe;
        fill-rule: evenodd;
      }
    </style>
  </defs>
  <path id="cont2.svg" class="cls-1" d="M655.152,7526.99q-11.46,0-22.921,0a7.014,7.014,0,0,1-5.587-2.49,5.765,5.765,0,0,1-1.384-2.75,13.848,13.848,0,0,1-.247-2.32q-0.026-13.77-.009-27.56c0-.33.025-0.66,0.047-1a1.474,1.474,0,0,1,1.507-1.31c1.664,0.02,3.329,0,4.993.01,0.993,0,.9-0.11.9,0.89,0,0.57,0,1.14,0,1.71a0.357,0.357,0,0,1-.423.42c-1.184-.01-2.368-0.01-3.552-0.01-0.481,0-.5.02-0.5,0.48q0,13.23,0,26.45a4.3,4.3,0,0,0,1.514,3.6,3.762,3.762,0,0,0,2.338.86q0.821,0.015,1.641,0a3.908,3.908,0,0,0,3.823-2.92,5.848,5.848,0,0,0,.17-1.5q0.012-18.405-.008-36.81a1.64,1.64,0,0,1,1.769-1.74q19.134,0.03,38.267.01c1.306,0,2.611.04,3.917,0.05,0.646,0,1.293-.05,1.939-0.05a1.522,1.522,0,0,1,1.644,1.63c0,1.13-.059,2.25-0.056,3.38,0,1.84.048,3.68,0.058,5.52,0,0.74-.047,1.47-0.055,2.2,0,0.41.035,0.82,0.039,1.24s-0.019.84-.016,1.27c0,0.46.033,0.93,0.034,1.4q0,10.935.007,21.89a7.483,7.483,0,0,1-1.124,4.27,6.8,6.8,0,0,1-3.419,2.72,8.441,8.441,0,0,1-2.989.47q-11.159-.015-22.317,0v-0.01Zm3.908-3.01v-0.01q9.567,0,19.134,0a3.933,3.933,0,0,0,3.513-2.47,6.464,6.464,0,0,0,.326-2.37q-0.016-12.15-.031-24.29c0-1.3.025-2.59,0.028-3.88,0.006-2.14,0-4.29,0-6.43,0-.53-0.044-0.58-0.575-0.57-1.035.01-2.069,0.07-3.1,0.07H640.994c-0.56,0-.577.02-0.577,0.48q0,9.69,0,19.37,0,8.16-.008,16.33a6.029,6.029,0,0,1-.1,1.1,6.384,6.384,0,0,1-.931,2.38c-0.111.16-.059,0.27,0.15,0.28a2.4,2.4,0,0,0,.268.01H659.06Zm2.156-35.35q7.053,0,14.105.01a2.983,2.983,0,0,1,.945.13,1.327,1.327,0,0,1,.882,1.36c0,1.46,0,2.91,0,4.36,0,1.51,0,3.02,0,4.53a1.484,1.484,0,0,1-1.582,1.63c-0.145.01-.291,0.01-0.436,0.01H647.055a1.739,1.739,0,0,1-1.485-.54,1.649,1.649,0,0,1-.365-1.09c-0.009-2.7,0-5.4,0-8.11a8.2,8.2,0,0,1,.021-0.9,1.454,1.454,0,0,1,1.587-1.38c4.8-.01,9.6,0,14.406,0v-0.01Zm-0.061,9.06h12.5c0.494,0,.537-0.04.537-0.54,0-1.66,0-3.33,0-4.99,0-.53-0.025-0.56-0.545-0.56H648.681c-0.459,0-.482.03-0.482,0.51,0,1.68,0,3.37,0,5.06,0,0.52,0,.52.523,0.52h12.433Zm0.049,10.74H645.789c-0.1,0-.2,0-0.3-0.01a0.269,0.269,0,0,1-.3-0.31q0-1.155,0-2.31a0.3,0.3,0,0,1,.355-0.34H676.7c0.53,0,.574.05,0.574,0.57,0,0.62,0,1.23,0,1.85,0,0.51-.041.55-0.557,0.55H661.2Zm-7.473,7.78h-8.009c-0.531,0-.54-0.01-0.54-0.55,0-.66.011-1.32,0-1.97a0.364,0.364,0,0,1,.437-0.44h0.7q7.725,0,15.449-.01c0.475,0,.513.04,0.514,0.52,0,0.67,0,1.34,0,2.01,0,0.41-.031.44-0.439,0.44h-8.11Zm19.171,0h-3.85c-0.428,0-.459-0.03-0.46-0.46,0-.68,0-1.36,0-2.04,0-.39.063-0.46,0.439-0.46H676.8c0.392,0,.473.09,0.475,0.47,0,0.68,0,1.37,0,2.05,0,0.38-.062.44-0.455,0.44H672.9Z" transform="translate(-625 -7481)"/>
</svg>
