<svg xmlns="http://www.w3.org/2000/svg" width="56" height="56" viewBox="0 0 56 56">
  <defs>
    <style>
      .cls-1 {
        fill: #0095fe;
        fill-rule: evenodd;
      }
    </style>
  </defs>
  <path id="cont1.svg" class="cls-1" d="M229,7504.13v-1.59a3.534,3.534,0,0,1,2.787-3.3,0.624,0.624,0,0,0,.55-0.57c0.222-.93.5-1.84,0.787-2.76,0.2-.61.428-1.21,0.677-1.81a24.7,24.7,0,0,1,3.19-5.45,24.122,24.122,0,0,1,5.449-5.22,32.383,32.383,0,0,1,3.605-2.09,24.625,24.625,0,0,1,2.891-1.21c0.872-.3,1.78-0.5,2.68-0.72a0.639,0.639,0,0,0,.583-0.56,3.451,3.451,0,0,1,2.083-2.51,4.58,4.58,0,0,1,1.932-.34,23.414,23.414,0,0,1,2.649.13,3.235,3.235,0,0,1,2.542,1.82c0.184,0.35.263,0.75,0.421,1.11a0.542,0.542,0,0,0,.315.3c0.935,0.26,1.891.44,2.811,0.74a18.707,18.707,0,0,1,2.482,1.01c0.989,0.48,1.971.98,2.906,1.55a24.569,24.569,0,0,1,7.322,6.95,23.43,23.43,0,0,1,1.794,2.99,30.925,30.925,0,0,1,1.4,3.4c0.324,0.91.54,1.86,0.789,2.79a0.543,0.543,0,0,0,.481.44,3.367,3.367,0,0,1,2.68,2.51,5.072,5.072,0,0,1,.175,1.23c0.028,0.65,0,1.3.009,1.95a3.746,3.746,0,0,1-3.027,3.91,0.374,0.374,0,0,0-.3.32,23.464,23.464,0,0,1-1.178,3.86c-0.282.62-.566,1.25-0.889,1.85-0.609,1.14-1.194,2.29-1.891,3.38a19.084,19.084,0,0,1-1.787,2.21,25.5,25.5,0,0,1-2.122,2.26,24.994,24.994,0,0,1-2.5,1.87c-0.967.66-1.96,1.28-2.958,1.9a8.443,8.443,0,0,1-1.117.51c-0.879.35-1.754,0.72-2.651,1.02a18.637,18.637,0,0,1-2.093.53,0.677,0.677,0,0,0-.713.62,2.962,2.962,0,0,1-.811,1.44,2.728,2.728,0,0,1-.943.9,2.208,2.208,0,0,1-1.1.3,3.405,3.405,0,0,0-.824.13c-0.116.02-.233,0.04-0.35,0.05a5.159,5.159,0,0,0-.681,0,7.517,7.517,0,0,1-2.828-.39,2.7,2.7,0,0,1-1.538-1.32,6.406,6.406,0,0,1-.508-1.31,0.479,0.479,0,0,0-.405-0.36c-0.754-.17-1.522-0.31-2.254-0.55-0.991-.33-1.967-0.71-2.925-1.13a20.787,20.787,0,0,1-4.092-2.34c-0.953-.7-1.87-1.46-2.754-2.25a21.566,21.566,0,0,1-3.983-4.78,28.192,28.192,0,0,1-1.417-2.46,24.306,24.306,0,0,1-1.156-2.84c-0.347-1.03-.59-2.09-0.895-3.13a0.451,0.451,0,0,0-.262-0.27,4.523,4.523,0,0,1-1.712-.8,3.761,3.761,0,0,1-1.092-1.5A6.7,6.7,0,0,1,229,7504.13Zm32.351,11.14c0.361-.13.68-0.23,0.986-0.36a5.551,5.551,0,0,0,1.842-1.17c0.481-.47,1.058-0.85,1.557-1.31a6.951,6.951,0,0,0,1.739-2.38c0.21-.48.478-0.94,0.709-1.41a0.474,0.474,0,0,0-.168-0.63,3.445,3.445,0,0,1-1.327-2.66c-0.041-.92-0.037-1.84.007-2.75a4.309,4.309,0,0,1,.293-1.25,3.319,3.319,0,0,1,1.094-1.46,0.327,0.327,0,0,0,.124-0.47c-0.393-.7-0.747-1.43-1.16-2.12a10.72,10.72,0,0,0-2.66-2.89,14.693,14.693,0,0,0-2.723-1.61,0.492,0.492,0,0,0-.654.16,3.475,3.475,0,0,1-2.831,1.31c-0.875-.01-1.752,0-2.627-0.01a3.383,3.383,0,0,1-2.585-1.27,0.517,0.517,0,0,0-.753-0.16c-0.222.11-.441,0.23-0.664,0.34a11.869,11.869,0,0,0-3.255,2.37,12.193,12.193,0,0,0-2.5,3.74,0.49,0.49,0,0,0,.148.69,3.123,3.123,0,0,1,1.251,2.32c0.042,1.15.036,2.31-.008,3.46a3.159,3.159,0,0,1-1.231,2.26,0.561,0.561,0,0,0-.212.71,14.9,14.9,0,0,0,.87,1.72,10.055,10.055,0,0,0,1.638,1.98,17.993,17.993,0,0,0,3.888,2.8,0.621,0.621,0,0,0,.88-0.16,3.669,3.669,0,0,1,1.625-1.17,14.691,14.691,0,0,1,4.19-.16c0.01,0,.02.01,0.031,0.01a3.977,3.977,0,0,1,2.209,1.32A1.92,1.92,0,0,0,261.355,7515.27Zm13.574-6.38h0c-1.125,0-2.251.03-3.374-.01a0.919,0.919,0,0,0-1.085.69,8.876,8.876,0,0,1-1.717,2.94c-0.5.52-.9,1.13-1.415,1.64a16.478,16.478,0,0,1-2.507,2.04,10.636,10.636,0,0,1-2.745,1.47,0.43,0.43,0,0,0-.211.31,13.677,13.677,0,0,0-.1,1.51c0.013,2.09.046,4.17,0.073,6.25,0,0.36.135,0.44,0.47,0.33,0.871-.28,1.748-0.54,2.615-0.83a12.727,12.727,0,0,0,1.925-.71,11.005,11.005,0,0,0,2.664-1.62c0.538-.52,1.233-0.87,1.8-1.36,1-.86,1.96-1.75,2.919-2.65a5.238,5.238,0,0,0,.661-0.83c0.554-.79,1.154-1.55,1.628-2.37a21.252,21.252,0,0,0,1.291-2.74c0.459-1.17.839-2.37,1.23-3.57,0.136-.41.054-0.49-0.393-0.49h-3.73Zm-35.852-.01v0.01H235.25c-0.38,0-.448.06-0.344,0.42,0.309,1.05.583,2.11,0.983,3.13a21.1,21.1,0,0,0,1.924,3.73,24.853,24.853,0,0,0,2.9,3.67,28.343,28.343,0,0,0,5.025,3.94,13.3,13.3,0,0,0,3.86,1.67c0.7,0.2,1.4.42,2.1,0.63,0.217,0.06.361,0.02,0.394-.23a6.319,6.319,0,0,0,.121-0.89c-0.028-2.21-.074-4.42-0.114-6.63,0-.08,0-0.17,0-0.26a0.467,0.467,0,0,0-.351-0.47,20.23,20.23,0,0,1-2.486-1.22,18.35,18.35,0,0,1-1.973-1.61,12.556,12.556,0,0,1-2.205-2.29,16.948,16.948,0,0,1-1.8-3.35,0.358,0.358,0,0,0-.387-0.26C241.628,7508.88,240.352,7508.88,239.077,7508.88Zm22.763-22.87h0c0,1.15,0,2.31,0,3.46,0,0.77,0,.76.711,1.04a13.758,13.758,0,0,1,3.525,2.07,12.7,12.7,0,0,1,3.148,3.49c0.515,0.86.93,1.79,1.37,2.7a0.491,0.491,0,0,0,.5.31h7.62c0.362,0,.437-0.08.349-0.43-0.146-.57-0.287-1.14-0.489-1.7-0.306-.83-0.657-1.66-1-2.48a18.338,18.338,0,0,0-1.965-3.45,23.325,23.325,0,0,0-3.062-3.54,22.007,22.007,0,0,0-4.082-3.05,24.75,24.75,0,0,0-2.419-1.23,18.373,18.373,0,0,0-1.9-.72c-0.58-.2-1.179-0.34-1.762-0.53-0.509-.16-0.548-0.15-0.548.4v3.66Zm-9.735.04h0c0-1.27,0-2.55,0-3.82,0-.34-0.092-0.42-0.368-0.34-0.844.26-1.691,0.51-2.528,0.79a20.813,20.813,0,0,0-3.964,1.88,23.137,23.137,0,0,0-3.354,2.48,22.181,22.181,0,0,0-4.31,5.14,18.11,18.11,0,0,0-1.838,3.8c-0.284.86-.561,1.72-0.809,2.59-0.138.48-.093,0.51,0.41,0.51h6.943c0.875,0,.875,0,1.221-0.82,0-.01.009-0.02,0.014-0.03a16.483,16.483,0,0,1,2.295-3.66,14.5,14.5,0,0,1,5.9-4.19,0.528,0.528,0,0,0,.4-0.57C252.1,7488.56,252.105,7487.3,252.105,7486.05Zm7.383,35.44v-0.33c0-1.22-.012-2.44,0-3.66a1.211,1.211,0,0,0-.878-1.28,1.521,1.521,0,0,0-.5-0.14c-0.873,0-1.75-.02-2.62.04a1.065,1.065,0,0,0-.957,1.06c0.038,0.45.07,0.91,0.064,1.37-0.026,1.8-.086,3.6-0.1,5.4,0,0.93.073,1.87,0.1,2.8a12.688,12.688,0,0,1-.007,1.46,1.16,1.16,0,0,0,1.224,1.24c0.735-.02,1.471-0.01,2.206,0a1.245,1.245,0,0,0,1.374-1.33c0.05-1.06.068-2.11,0.08-3.17C259.5,7523.8,259.488,7522.64,259.488,7521.49Zm16.263-15.09v0.04c1.611,0,3.222,0,4.833-.01a6.322,6.322,0,0,0,1.056-.13,0.919,0.919,0,0,0,.771-0.74,8.3,8.3,0,0,0,.07-2.89,1.073,1.073,0,0,0-1.11-1.05c-0.366-.02-0.731-0.07-1.1-0.07-1.514-.01-3.027-0.01-4.541-0.01-1.676,0-3.352-.02-5.027.01a1.322,1.322,0,0,0-1.531,1.53c0.009,0.69,0,1.38.014,2.07a1.057,1.057,0,0,0,.46.98,1.858,1.858,0,0,0,.881.26C272.271,7506.42,274.011,7506.4,275.751,7506.4Zm-37.654.04h0c1.621,0,3.241,0,4.862-.01a3.911,3.911,0,0,0,.833-0.1,1.1,1.1,0,0,0,.974-1.14c0.019-.82,0-1.64,0-2.46a1.077,1.077,0,0,0-.425-0.84,2.117,2.117,0,0,0-1.445-.34q-4.863-.03-9.725-0.01a3.341,3.341,0,0,0-.829.12,1.143,1.143,0,0,0-.89,1.1c-0.017.83-.027,1.66,0.007,2.49a1.035,1.035,0,0,0,.636.97,3.569,3.569,0,0,0,1.17.21C234.877,7506.45,236.487,7506.44,238.1,7506.44Zm21.315-21.26c0-1.59,0-3.19,0-4.79a6.982,6.982,0,0,0-.03-0.77,1.164,1.164,0,0,0-1.129-1.09q-1.311-.03-2.624,0a1.077,1.077,0,0,0-1,1.03c-0.02,1.42-.036,2.83-0.036,4.24,0,2.28.03,4.56,0.012,6.83a1.254,1.254,0,0,0,1.235,1.2c0.767,0,1.535.02,2.3-.01a1.1,1.1,0,0,0,1.1-.71,3.121,3.121,0,0,0,.174-0.94C259.42,7488.51,259.412,7486.85,259.412,7485.18Zm-26.725,2.9c0,0.71-.008,1.42,0,2.13a0.344,0.344,0,0,1-.379.41q-0.924.015-1.848,0a0.277,0.277,0,0,1-.306-0.33,30.481,30.481,0,0,1,.208-5.16,9.687,9.687,0,0,1,1.152-3.07,9.681,9.681,0,0,1,6.683-4.66,36.343,36.343,0,0,1,5.109-.17,0.3,0.3,0,0,1,.354.37c-0.01.56-.013,1.13,0,1.69a0.344,0.344,0,0,1-.41.4c-0.746-.01-1.493-0.03-2.237,0a18.446,18.446,0,0,0-2.577.2,6.8,6.8,0,0,0-3.242,1.59,7.076,7.076,0,0,0-2.509,5.66C232.685,7487.45,232.687,7487.76,232.687,7488.08Zm8.348,42.63a15.409,15.409,0,0,1-2.04-.02,20.227,20.227,0,0,1-2.414-.58,8.1,8.1,0,0,1-3.025-1.75,9.6,9.6,0,0,1-2.722-3.84,10.523,10.523,0,0,1-.671-3.67c-0.015-1.04.006-2.08-.007-3.11a0.316,0.316,0,0,1,.353-0.39h1.849c0.267,0,.331.17,0.331,0.42,0,1.13-.012,2.26.015,3.4a7.038,7.038,0,0,0,3.72,6.18,6.744,6.744,0,0,0,2.116.77,26.61,26.61,0,0,0,4.461.17c0.668,0.01.667,0,.661,0.68,0,0.44,0,.88,0,1.33,0,0.39-.046.44-0.451,0.44-0.725.01-1.449,0-2.174,0v-0.03Zm42.71-42.93c0,0.89,0,1.64,0,2.4,0,0.38-.071.45-0.455,0.45q-0.779.015-1.557,0c-0.387,0-.444-0.07-0.444-0.46,0-.99-0.011-1.99,0-2.98a7.188,7.188,0,0,0-1.385-4.46,7.054,7.054,0,0,0-3.783-2.69,10.053,10.053,0,0,0-2.782-.36q-1.283.015-2.563,0c-0.38,0-.432-0.05-0.433-0.42,0-.57.008-1.13,0-1.69a0.282,0.282,0,0,1,.343-0.34c1.34,0,2.687-.07,4.02.03a9.552,9.552,0,0,1,5.008,1.82,9.452,9.452,0,0,1,2.966,3.45,15.9,15.9,0,0,1,.789,2.11A10.5,10.5,0,0,1,283.745,7487.78Zm-2.46,31.97c0-.65,0-1.31,0-1.97,0-.4.034-0.45,0.447-0.44,0.56,0.01,1.12.05,1.677,0.1a0.32,0.32,0,0,1,.224.23c0.017,1.33.016,2.65,0.018,3.98a7.346,7.346,0,0,1-.488,2.42,21.136,21.136,0,0,1-.9,1.96,7.665,7.665,0,0,1-2.753,3.02,9.454,9.454,0,0,1-2.64,1.26,10.588,10.588,0,0,1-3.259.44c-0.86-.01-1.72,0-2.581,0-0.5,0-.6-0.06-0.644-0.54-0.048-.56-0.034-1.12-0.039-1.68,0-.24.182-0.23,0.347-0.23,0.714-.01,1.428.02,2.14-0.01a27.122,27.122,0,0,0,2.707-.21,5.5,5.5,0,0,0,1.52-.52,13.454,13.454,0,0,0,1.9-1.15,5.2,5.2,0,0,0,1.481-1.86,8.259,8.259,0,0,0,.846-3.73c0-.35,0-0.71,0-1.07h0Z" transform="translate(-229 -7476)"/>
</svg>
