<svg xmlns="http://www.w3.org/2000/svg" width="226.219" height="62.44" viewBox="0 0 226.219 62.44">
  <defs>
    <style>
      .cls-1 {
        fill: #fff;
        fill-rule: evenodd;
        mix-blend-mode: screen;
      }
    </style>
  </defs>
  <path id="GTIOne" class="cls-1" d="M508.454,1746.74c0.753-12.61-6.939-19.54-19.313-19.54-20.651,0-21.4,15.44-21.4,30.64,0,22.88,2.425,31.65,23.661,31.65a116.6,116.6,0,0,0,17.056-2v-30.57h-19.48v9.27h6.856v13.36a19.809,19.809,0,0,1-6.271,1.17c-7.19,0-9.03-3.34-9.03-22.21,0-11.69,0-22.3,7.859-22.3,6.689,0,7.609,4.93,7.525,10.53h12.541Zm6.191-18.54v10.02h14.046v50.27h12.625v-50.27h14.046V1728.2H514.645Zm59.2,60.29V1728.2H561.218v60.29h12.625Zm28.128-3.29c-12.826,0-12.662-11.41-12.662-26.36s-0.164-26.36,12.662-26.36,12.662,11.42,12.662,26.36S614.8,1785.2,601.971,1785.2Zm0,4.44c19.322,0,17.924-19.3,17.924-30.8s1.4-30.79-17.924-30.79-17.924,19.3-17.924,30.79S582.649,1789.64,601.971,1789.64Zm32.889-27.18c0-9.28,4.522-12.32,8.962-12.32,5.755,0,7.646,4.52,7.646,9.36v28.99H656.4v-29.24c0-5.42-1.069-13.05-11.346-13.05-4.44,0-7.646,2.46-10.031,5.91H634.86v-5.09h-4.933v41.47h4.933v-26.03Zm59.115,6.32c0-12.32,0-22.58-14.306-22.58-9.291,0-14.306,5.5-14.306,17.49v10.18c0,12.57,7.153,15.44,14.306,15.44,8.3,0,13.731-3.45,14.306-13.47H688.8c0.082,5.59-2.96,9.53-9.127,9.53-7.811,0-9.373-7.64-9.373-13.39v-3.2h23.679Zm-23.679-3.94c0-9.2,1.48-14.7,9.373-14.7s9.373,5.5,9.373,14.7H670.3Z" transform="translate(-467.75 -1727.19)"/>
</svg>
