<svg xmlns="http://www.w3.org/2000/svg" width="44.69" height="44.69" viewBox="0 0 44.69 44.69"><defs><style>.a{fill:#fff;}</style></defs><title>info</title><path class="a" d="M12.35-10A22.35,22.35,0,1,0,34.69,12.34,22.37,22.37,0,0,0,12.35-10Zm0,42.68A20.34,20.34,0,1,1,32.69,12.34,20.36,20.36,0,0,1,12.35,32.68Zm0,0M12.2,5.05a1.51,1.51,0,0,0-1.5,1.51v17a1.51,1.51,0,1,0,3,0v-17A1.52,1.52,0,0,0,12.2,5.05Zm0,0M14.13.89a1.83,1.83,0,0,1-3.66,0,1.83,1.83,0,1,1,3.66,0Zm0,0" transform="translate(10 10)" fill-opacity="0.5"/></svg>