<?xml version="1.0" encoding="iso-8859-1"?>
<!-- Generator: Adobe Illustrator 22.0.1, SVG Export Plug-In . SVG Version: 6.00 Build 0)  -->
<svg version="1.1" id="&#x421;&#x43B;&#x43E;&#x439;_1"
	 xmlns="http://www.w3.org/2000/svg" xmlns:xlink="http://www.w3.org/1999/xlink" x="0px" y="0px" viewBox="0 0 995 556"
	 style="enable-background:new 0 0 995 556;" xml:space="preserve">
<image style="overflow:visible;" width="799" height="553" xlink:href="mcaffee.png"  transform="matrix(1 0 0 1 0 -1)">
</image>
<path style="fill:#289FDB;" d="M226,162c0,1.833,0,3.666,0.001,5.5c-0.118,0.118-0.221,0.259-0.358,0.346
	c-0.126,0.081-0.288,0.148-0.435,0.148C152.575,168,79.942,168,7.154,168c0,127.633,0,255.075,0,382.759
	c327.408,0,654.954,0,982.673,0c0-127.352,0-254.791,0-382.418c0.062,0.067-0.034-0.076-0.165-0.168
	c-0.122-0.086-0.283-0.166-0.427-0.166C801.274,168,613.314,168,425,168c0-2.084,0-4.042,0-6c190.333,0,380.667,0,571,0
	c0,131.667,0,263.333,0,395c-331.667,0-663.333,0-995,0c0-131.667,0-263.333,0-395C76,162,151,162,226,162z"/>
<text transform="matrix(1 0 0 1 497.5 245.5)"><tspan x="0" y="0" style="fill:#FFFFFF;">«??????? ?????????</tspan><tspan x="0" y="43.2" style="fill:#FFFFFF;">????? ??????????. </tspan><tspan x="0" y="86.4" style="fill:#FFFFFF;">?? ??????????? </tspan><tspan x="0" y="129.6" style="fill:#FFFFFF;">???????????? ??????, </tspan><tspan x="0" y="172.8" style="fill:#FFFFFF;">??????????? ???????? </tspan><tspan x="0" y="216" style="fill:#FFFFFF;">? ???????? ??????????, </tspan><tspan x="0" y="259.2" style="fill:#FFFFFF;">???????? ???????».</tspan></text>	
</svg>
