<svg xmlns="http://www.w3.org/2000/svg" width="85.407" height="92.28" viewBox="0 0 85.407 92.28">
  <defs>
    <style>
      .cls-1 {
        fill: #0095fe;
        fill-rule: evenodd;
      }
    </style>
  </defs>
  <path id="pow2.svg" class="cls-1" d="M773.343,4983.14c-0.388,1.36-.72,2.47-1.019,3.58q-1.458,5.445-2.894,10.88c-0.707,2.67-1.4,5.35-2.109,8.02-0.13.49-.354,0.96-0.493,1.44a7.737,7.737,0,0,0-.148.97,3.523,3.523,0,0,0,1,.13c1.843-.29,3.673-0.68,5.522-0.93,3.529-.49,7.069-0.89,10.6-1.35,2.08-.28,4.152-0.61,6.227-0.93a1.72,1.72,0,0,0,.442-0.24c-0.475-.51-0.884-0.97-1.317-1.41-0.852-.86-1.7-1.72-2.582-2.55a0.78,0.78,0,0,1,.013-1.34,18.06,18.06,0,0,1,16.3-5.33,22.244,22.244,0,0,1,15.514,9.64c4.853,7.09,5.457,14.74,2.118,22.62a20.8,20.8,0,0,1-7.926,9.54,36.59,36.59,0,0,1-5.374,2.59,26.482,26.482,0,0,1-3.5,1.14,11.705,11.705,0,0,1-1.885.15c-0.469.04-.936,0.13-1.406,0.15-0.558.02-1.119,0-1.677-.03a6.09,6.09,0,0,0-.935-0.12,10.557,10.557,0,0,1-5.354-1.03c-1.5-.7-3.148-1.11-4.584-1.92a24.4,24.4,0,0,1-4.075-2.96,18.476,18.476,0,0,1-5.2-7.12,46.243,46.243,0,0,1-1.734-6.58,0.985,0.985,0,0,1,.56-0.76,14.641,14.641,0,0,1,2.634-.4,0.958,0.958,0,0,1,.625.68,15.081,15.081,0,0,0,2.954,7.76c7.932,10.65,21.775,10.8,29.784,2.11a15.524,15.524,0,0,0,2.077-2.48,20.329,20.329,0,0,0,.723-18.98,19.405,19.405,0,0,0-11.585-9.34,13.164,13.164,0,0,0-5.2-.86,15.567,15.567,0,0,0-6.592,2.01c-0.561.33-.441,0.64-0.037,1.04,1.388,1.36,2.77,2.73,4.12,4.12,0.769,0.8,1.47,1.66,2.341,2.65a11.893,11.893,0,0,1-1.617.48c-1.672.22-3.354,0.36-5.028,0.57-2.676.33-5.349,0.69-8.024,1.03-1.386.18-2.779,0.31-4.159,0.52-1.813.28-3.61,0.66-5.424,0.92-1.635.24-3.291,0.33-4.927,0.55-2.381.33-4.751,0.74-7.129,1.09-0.611.09-1.233,0.11-2.083,0.18,0.385-1.14.749-2.04,0.991-2.97,0.838-3.22,1.613-6.46,2.451-9.68,1.048-4.03,2.134-8.06,3.2-12.08q1.617-6.09,3.231-12.17c0.212-.81.424-0.89,1.054-0.3,2.674,2.5,5.361,4.99,8,7.53a1.338,1.338,0,0,0,1.967.25,23.92,23.92,0,0,1,8.375-3.34,0.984,0.984,0,0,0,.933-1.16c-0.021-2.46.013-4.91-.027-7.37a0.852,0.852,0,0,1,1.046-1.04q8.365,0.045,16.73.01c0.845,0,1.187.22,1.167,1.13-0.056,2.48-.01,4.97-0.027,7.46a1.074,1.074,0,0,0,.79,1.2c2.479,0.98,4.942,2.01,7.368,3.11a1.152,1.152,0,0,0,1.685-.29c1.549-1.81,3.214-3.53,4.795-5.32,0.513-.58.883-0.66,1.466-0.08q6.059,6.03,12.166,12.02a0.766,0.766,0,0,1-.052,1.33c-1.861,1.74-3.672,3.53-5.529,5.27a1.034,1.034,0,0,0-.194,1.42c1.119,2.45,2.2,4.92,3.217,7.42a1.277,1.277,0,0,0,1.388.97c2.485-.04,4.971.01,7.456-0.03a0.976,0.976,0,0,1,1.18,1.17q-0.036,8.415,0,16.83a0.9,0.9,0,0,1-1.088,1.05c-2.486-.02-4.972,0-7.457-0.02a1.01,1.01,0,0,0-1.216.96,24.256,24.256,0,0,1-3.494,8.42,1.053,1.053,0,0,0,.154,1.56c1.8,1.89,3.539,3.84,5.343,5.73a0.9,0.9,0,0,1-.03,1.55q-6.09,5.94-12.1,11.96c-0.562.56-.9,0.35-1.339-0.08-1.875-1.81-3.775-3.61-5.633-5.44a1.014,1.014,0,0,0-1.492-.16,25.652,25.652,0,0,1-8.622,3.48,0.92,0.92,0,0,0-.857,1.1c0.016,2.46.008,4.91,0,7.37,0,1.09-.148,1.2-1.2,1.19q-8.27-.03-16.538-0.04c-1.188-.01-1.215,0-1.218-1.23,0-2.36-.046-4.72.015-7.08a1.5,1.5,0,0,0-1.276-1.71c-2.322-.85-4.571-1.91-6.805-2.98a1.213,1.213,0,0,0-1.778.24c-1.754,2.01-3.6,3.94-5.479,5.98-0.449-.41-0.855-0.75-1.229-1.13-3.9-3.89-7.784-7.8-11.7-11.68a0.716,0.716,0,0,1,.025-1.25c1.32-1.18,2.651-2.36,3.917-3.61a12.024,12.024,0,0,0,1.933-2.33,1.849,1.849,0,0,0-.248-1.49,21.662,21.662,0,0,1-2.989-7.68,11.571,11.571,0,0,0-.377-1.47,0.665,0.665,0,0,1,.6-0.96l0.091-.03c0.835-.19,1.812-0.73,2.463-0.46,0.534,0.21.689,1.38,1,2.13a52.29,52.29,0,0,0,4.76,9.64,0.732,0.732,0,0,1-.109,1.13c-1.76,1.74-3.466,3.54-5.146,5.35a0.975,0.975,0,0,0,.035.95c2.029,2.07,4.111,4.08,6.154,6.13a0.715,0.715,0,0,0,1.25,0c1.209-1.36,2.462-2.67,3.68-4.02,1.253-1.38,1.413-1.37,3.052-.47,2.144,1.18,4.291,2.37,6.526,3.35a32.974,32.974,0,0,0,4.916,1.51,1.214,1.214,0,0,1,1.026,1.42c-0.047,2.14.008,4.28-.035,6.41a0.9,0.9,0,0,0,1.1,1.11q4.158-.045,8.316.01a0.854,0.854,0,0,0,1.016-1.07c-0.037-2.07-.012-4.15-0.013-6.22,0-1.63.022-1.54,1.689-1.85a27.609,27.609,0,0,0,5.808-1.44,64.393,64.393,0,0,0,6.848-3.75,0.907,0.907,0,0,1,1.311.11c1.695,1.68,3.448,3.31,5.14,4.99a0.851,0.851,0,0,0,1.472-.01c2.026-2.07,4.1-4.1,6.181-6.11a0.839,0.839,0,0,0,.016-1.42c-1.651-1.72-3.239-3.51-4.885-5.24a1.034,1.034,0,0,1-.126-1.49,42.715,42.715,0,0,0,3.331-5.78,52.928,52.928,0,0,0,1.886-6.57,5.9,5.9,0,0,0,.145-0.84,1.049,1.049,0,0,1,1.277-1.04c2.2,0.06,4.4,0,6.6.04a0.862,0.862,0,0,0,1.082-1.02c-0.036-2.8-.032-5.61-0.006-8.41a0.783,0.783,0,0,0-.947-0.95c-2.23.02-4.461-.02-6.692,0a1.019,1.019,0,0,1-1.207-.89,37.336,37.336,0,0,0-5.493-12.63,0.819,0.819,0,0,1,.176-1.23c1.644-1.55,3.236-3.15,4.882-4.7,0.553-.52.537-0.82-0.03-1.36-1.867-1.78-3.658-3.64-5.484-5.46-1.062-1.06-1.078-1.04-2.054.05-1.337,1.49-2.725,2.94-4.043,4.46a0.915,0.915,0,0,1-1.383.21,38.258,38.258,0,0,0-8.249-4.16c-1.423-.45-2.858-0.87-4.3-1.24a0.919,0.919,0,0,1-.784-1.08c0.024-2.23-.013-4.46.027-6.69a0.8,0.8,0,0,0-.959-1.01c-2.867.04-5.736,0.03-8.6,0a0.766,0.766,0,0,0-.932.94c0.034,2.11.015,4.21,0.012,6.31,0,1.5-.084,1.57-1.587,1.76a22.881,22.881,0,0,0-7.933,2.31,47.7,47.7,0,0,0-4.577,2.76,1.223,1.223,0,0,1-1.858-.24C777.454,4986.94,775.506,4985.16,773.343,4983.14Z" transform="translate(-760.312 -4970.72)"/>
</svg>
