<svg xmlns="http://www.w3.org/2000/svg" width="18.969" height="22" viewBox="0 0 18.969 22">
  <defs>
    <style>
      .cls-1 {
        fill: #7c7b7b;
        fill-rule: evenodd;
      }
    </style>
  </defs>
  <path id="time.svg" class="cls-1" d="M424.447,687a0.963,0.963,0,0,1,.5.948,2.754,2.754,0,0,1-.041.507,0.876,0.876,0,0,1-.872.651c-0.137,0-.274,0-0.411,0a0.156,0.156,0,0,0-.193.161c0,0.408-.008.816,0,1.224a0.223,0.223,0,0,0,.207.191c0.388,0.11.782,0.208,1.162,0.341,0.311,0.107.607,0.254,0.907,0.391a0.236,0.236,0,0,0,.3-0.046c0.539-.536,1.09-1.061,1.62-1.605a0.949,0.949,0,0,1,1.35-.006c0.417,0.4.823,0.809,1.23,1.218a0.9,0.9,0,0,1-.043,1.236c-0.452.433-.891,0.877-1.338,1.313a0.183,0.183,0,0,0,0,.295,8.777,8.777,0,0,1,1.335,2.078,8.95,8.95,0,0,1,.77,2.669,9.19,9.19,0,0,1-.117,3.014,8.175,8.175,0,0,1-.546,1.72,7.353,7.353,0,0,1-.588,1.14A15.889,15.889,0,0,1,428.6,705.8a6.913,6.913,0,0,1-.828.822c-0.366.3-.765,0.571-1.153,0.85a6.368,6.368,0,0,1-.586.4,4.306,4.306,0,0,1-.519.212c-0.23.092-.457,0.195-0.692,0.273-0.365.121-.752,0.19-1.1,0.345a3.3,3.3,0,0,1-1.051.218,8.2,8.2,0,0,1-1.974.031c-0.333-.046-0.673-0.06-1-0.122a6.948,6.948,0,0,1-.791-0.234,7.677,7.677,0,0,0-.916-0.294,3.929,3.929,0,0,1-1.063-.454,10.74,10.74,0,0,1-1.033-.646,8.3,8.3,0,0,1-1.9-1.784,8.894,8.894,0,0,1-1.2-1.963,9.023,9.023,0,0,1-.576-1.694,8.583,8.583,0,0,1-.209-1.447,10.193,10.193,0,0,1,.042-1.7,7.1,7.1,0,0,1,.381-1.69c0.185-.483.377-0.965,0.6-1.432a7.746,7.746,0,0,1,1.077-1.617,9.473,9.473,0,0,1,3.527-2.638,9.263,9.263,0,0,1,1.732-.56,0.22,0.22,0,0,0,.2-0.23c0-.374,0-0.749,0-1.123,0-.181-0.045-0.213-0.229-0.216a1.562,1.562,0,0,1-.8-0.105,0.829,0.829,0,0,1-.462-0.7c-0.009-.193-0.009-0.387,0-0.581a0.864,0.864,0,0,1,.472-0.724h5.9Zm3.468,12.815a5.4,5.4,0,0,0-.2-1.575,5.533,5.533,0,0,0-.548-1.357,5.135,5.135,0,0,0-.825-1.15,10.18,10.18,0,0,0-.9-0.849,6.171,6.171,0,0,0-2.061-1.051,7.3,7.3,0,0,0-1.715-.283,5.773,5.773,0,0,0-1.869.236,8.372,8.372,0,0,0-1.419.56,5.771,5.771,0,0,0-.959.649,6.041,6.041,0,0,0-1.366,1.51,5.945,5.945,0,0,0-.649,1.343,6.567,6.567,0,0,0-.306,1.472,5.969,5.969,0,0,0,.248,2.3,6.144,6.144,0,0,0,.441,1.035,5.321,5.321,0,0,0,1.234,1.592,5.805,5.805,0,0,1,.5.427,3.774,3.774,0,0,0,1.281.8,3.006,3.006,0,0,0,.408.1c0.463,0.133.92,0.291,1.39,0.4a4.863,4.863,0,0,0,.831.062,4.565,4.565,0,0,0,.966-0.105,7.037,7.037,0,0,0,1.514-.385c0.341-.137.674-0.293,1.01-0.441a0.569,0.569,0,0,0,.074-0.046,4.364,4.364,0,0,0,1.155-.985c0.211-.3.494-0.562,0.714-0.861a5.213,5.213,0,0,0,.8-1.635A5.6,5.6,0,0,0,427.915,699.815Zm-6.234,2.2a2.369,2.369,0,0,1-2.007-.878,2.224,2.224,0,0,1-.436-1.8,0.461,0.461,0,0,0-.142-0.431c-0.5-.54-0.992-1.084-1.483-1.63a2.966,2.966,0,0,1-.325-0.418,0.826,0.826,0,0,1,.017-0.9,0.924,0.924,0,0,1,.882-0.462,0.944,0.944,0,0,1,.568.238c0.679,0.576,1.359,1.153,2.047,1.72a0.385,0.385,0,0,0,.28.069,2.269,2.269,0,0,1,1.545.238,2.177,2.177,0,0,1,1.086,1.353,2.258,2.258,0,0,1-.015,1.33,2.075,2.075,0,0,1-.627.958,2.682,2.682,0,0,1-.519.365A1.894,1.894,0,0,1,421.681,702.011Z" transform="translate(-412.031 -687)"/>
</svg>
