<svg id="Layer_1" data-name="Layer 1" xmlns="http://www.w3.org/2000/svg" viewBox="0 0 450 450"><defs><style>.cls-1{fill:#b51e6e;}.cls-2{fill:#74a040;}.cls-3{fill:#d0cc29;}.cls-4{fill:#e53891;}.cls-5{fill:#d62a8b;}.cls-6{fill:#fff;}.cls-7{fill:#06555b;}.cls-8{fill:#991f63;}.cls-9{fill:none;}.cls-10{fill:#f2e6be;}.cls-11{fill:#834417;}.cls-12{fill:#5a2a09;}.cls-13{fill:#d7c89a;}</style></defs><title>after-1</title><g id="_1" data-name="1"><path class="cls-1" d="M168.07,64.14c11.47-10.3,21.43-22.4,30.45-35-2.81-.41-5.6-1.16-8.44-1.12a36.74,36.74,0,0,0-10.3,2.06c-2.91.91-5.76,2-8.63,3-3.76,2.59-7.68,5.09-11.24,8a4.56,4.56,0,0,1-1.37,3.64C153.34,49.85,147.91,54.79,144,61c-3,4.78-10,1.52-9.35-3.09l-.09.11c-4.21,4.86-8.34,10.44-10.72,16.46a6.25,6.25,0,0,1-.59,1.12c-1.41,3.3-2.79,6.65-4.08,10a5.72,5.72,0,0,1,2.11.9q1.65-3.66,3.42-7.26c2.32-4.7,9.46-2,9.36,2.55l.75-1.34c2.37-6.26,6-12,9.23-17.88a4.41,4.41,0,0,1,6-2,190.64,190.64,0,0,1,12.68-19.28h0c.26-.34.51-.68.77-1,3.86-4.85,9.92,1.38,7.86,6.06-.54,1.22-1.12,2.43-1.72,3.63A5.27,5.27,0,0,1,172,57C170.89,59.32,169.44,61.7,168.07,64.14Z"/><path class="cls-1" d="M333.71,89.45c.65-48.26-57-71.76-113-70.49l0,.06a18.44,18.44,0,0,1-9.07,8.86c-14,20.35-30,39.79-50.06,54.27-2.72,2-5.6.19-6.88-2.29-1.73,2.64-3.48,5.27-5.32,7.83a5.66,5.66,0,0,1-6.23,1.89q-.93,1.24-1.89,2.46a4.15,4.15,0,0,1-2.41,1.57c-3.44,5.74-7.1,11.35-11,16.78a4.48,4.48,0,0,1,.91,2.78,56.75,56.75,0,0,1-.9,8.65,6.3,6.3,0,0,1,2.72,6c-.16,1.1-.35,2.19-.56,3.28.34.4.7.8,1.06,1.2a5.11,5.11,0,0,1,4.5,1.79c3.13-.5,6.17,2.93,5.66,6.4,0,.2-.07.41-.1.62a73,73,0,0,0,19.11,9.26L225,70.25l64.84,80.13C338.58,134.54,333.71,89.45,333.71,89.45Z"/><path class="cls-2" d="M204.11,38.37c-12.18,16.46-26,31.81-42.59,43.78a4.06,4.06,0,0,1-5.05-.1l2.21,28.14H291.32l2.78-35.36C313.26,45.74,252.06,33.58,204.11,38.37Z"/><path class="cls-2" d="M168.07,64.14a192.09,192.09,0,0,0,22-23.81,106.92,106.92,0,0,0-18.46,5,5.26,5.26,0,0,1-.32,1c-.54,1.22-1.12,2.43-1.72,3.63A5.27,5.27,0,0,1,172,57C170.89,59.32,169.44,61.7,168.07,64.14Z"/><path class="cls-3" d="M158.68,110.19,179,369c3.42-1.09,7.24,2.66,6.17,6.21a71.8,71.8,0,0,1-3.09,7.72,38.26,38.26,0,0,1,4.94-2.53c3.63-1.51,7.11,2.82,6.15,6.15-2,6.82-5.72,13.27-8,20.06,4.15-2,8.19-4.15,13.19-4.39,2-.1,4.53,1.62,4.82,3.67,0,.29.08.58.11.88h64.81l23.25-296.53Z"/><path class="cls-4" d="M114.7,230.61c.46-.74.92-1.47,1.4-2.2,1-1.58,2-3.28,3-5,.07-.45.14-.89.22-1.34-1,1.19-2,2.35-3.07,3.5l-1.71,4.74Z"/><path class="cls-4" d="M136.51,97.32c-2.77,4.46-5.67,8.82-8.75,13.07a4.48,4.48,0,0,1,.91,2.78,56.75,56.75,0,0,1-.9,8.65,6.3,6.3,0,0,1,2.72,6c-.23,1.63-.53,3.24-.86,4.83a5,5,0,0,1,5.86,1.44c3.13-.5,6.17,2.93,5.66,6.4a79.47,79.47,0,0,1-2.77,12c.57-.74,1.15-1.48,1.75-2.2,3.6-4.36,9,.58,8.36,4.86a38,38,0,0,1-1.15,5.31,4.5,4.5,0,0,1,1.33,3.36,32.37,32.37,0,0,1-.68,5.56,5,5,0,0,1-.12,6.65c-1.08,1.21-2.17,2.41-3.25,3.61a81.54,81.54,0,0,1-2,10.95,5.53,5.53,0,0,1,1.87,5.23A54.82,54.82,0,0,1,141,206.54a5.21,5.21,0,0,1,3,5.37,4.62,4.62,0,0,1,2,3.92c-.2,5.46-2.4,10.68-5.23,15.49a4.26,4.26,0,0,1,2,3.75,4.44,4.44,0,0,1,.35.77,24.23,24.23,0,0,1,1.24,9.46c1.91.94,3.44,3.25,2.91,5.39a5.06,5.06,0,0,1,.68,5.67c-1.44,2.69-2.93,5.51-4.54,8.3L200,245.33V160.56l-17.83-40.95Z"/><path class="cls-4" d="M106.69,132.27a4.85,4.85,0,0,1,1.71,1.44c1.48-4.56,3.14-9.1,4.7-13.68-.82,1.17-1.68,2.28-2.56,3.34a4.23,4.23,0,0,1-2.32,1.43c-.46,2.06-1,4.11-1.56,6.14C106.67,131.39,106.67,131.83,106.69,132.27Z"/><path class="cls-4" d="M107.68,204.51l3.76-4a5.44,5.44,0,0,1-2.76-7.24c1-2.23,2.07-4.45,3.15-6.65-2.56,0-5.16-1.69-5.31-4.26a171.37,171.37,0,0,0-2.86,20.79l.58,1.48A5.08,5.08,0,0,1,107.68,204.51Z"/><path class="cls-4" d="M103.68,202.89a17.19,17.19,0,0,0,4.92.65c1-1,1.89-2,2.84-3a5.44,5.44,0,0,1-2.76-7.24c1-2.23,2.07-4.45,3.15-6.65-2.56,0-5.16-1.69-5.31-4.26A172.5,172.5,0,0,0,103.68,202.89Z"/><path class="cls-4" d="M90.87,209.64a33,33,0,0,1,1.29,12.71c.23-.33.45-.66.69-1a4.92,4.92,0,0,1,1-2,110.78,110.78,0,0,1-.09-15.46C92.78,205.83,91.84,207.74,90.87,209.64Z"/><path class="cls-4" d="M107.24,204.4a16.93,16.93,0,0,0-3.56-1.5c-.05.71-.1,1.42-.14,2.13A5,5,0,0,1,107.24,204.4Z"/><path class="cls-4" d="M147.3,250.69a5.06,5.06,0,0,1,.68,5.67c-3.5,6.51-7.26,13.79-12.38,19.57H200v-30.6H144.44C146.33,246.28,147.83,248.57,147.3,250.69Z"/><path class="cls-4" d="M134.49,286.5a172.66,172.66,0,0,1-6.83,19.68c1-1.32,2.06-2.62,3.14-3.88,1.89-2.21,5.11-1.61,7.07,0,2.83,2.32,1.88,6.7-.1,11.05a4.82,4.82,0,0,1-.45,3.67c-1,1.84-2,3.66-3.08,5.48a4.33,4.33,0,0,1,.25,3.33c0,.07-.05.13-.07.2H200V285.68H134.64A6.17,6.17,0,0,1,134.49,286.5Z"/><path class="cls-4" d="M131.57,333.36a5.54,5.54,0,0,1,5.1,5.14,33.59,33.59,0,0,1-1.76,11,6.46,6.46,0,0,1,3.42.18c3.28,1.09,4.38,4.33,3,7.34-1.46,3.16-3.06,6.27-4.69,9.35H200V326H134.42C133.58,328.53,132.62,331,131.57,333.36Z"/><path class="cls-4" d="M176.86,398.15c-3.38,2-7.36-.62-7.53-4.32a21.31,21.31,0,0,1,.28-4.33c-1.11.92-2.24,1.82-3.42,2.65-2.24,1.57-5.54.38-6.84-1.79-1.46-2.44-1.28-3.93-.5-6.52a4.84,4.84,0,0,1,6.12-3.32c4.3-3.63,8.2-7.75,12.84-11,3.63-2.55,8.54,1.68,7.34,5.64a71.8,71.8,0,0,1-3.09,7.72,38.26,38.26,0,0,1,4.94-2.53c3.63-1.51,7.11,2.82,6.15,6.15-2,6.82-5.72,13.27-8,20.06,4.15-2,8.19-4.15,13.19-4.39a4.15,4.15,0,0,1,1.67.29V366.37H136.63c-1.22,2.31-2.47,4.61-3.72,6.9a7.25,7.25,0,0,1,6,.91c1.73,1.1,3.11,3.56,2.29,5.65a205.1,205.1,0,0,1-8.72,18.65,15.8,15.8,0,0,1,7.24-2.31c4.11-.29,5.78,4.37,4.31,7.52-.16.36-.35.71-.52,1.07a5.35,5.35,0,0,1,3.79,2h27.66a91.74,91.74,0,0,1,3.54-9.58C177.93,397.49,177.39,397.83,176.86,398.15Z"/><path class="cls-5" d="M134.1,277.57c-.65,1.1-1.31,2.19-2,3.29a5,5,0,0,1,2.51,4.82H200v-9.75H135.6C135.11,276.48,134.62,277,134.1,277.57Z"/><path class="cls-5" d="M137.32,317c-1,1.84-2,3.66-3.08,5.48a4.33,4.33,0,0,1,.25,3.33c0,.07-.05.13-.07.2H200v-9.75H137.65A5.4,5.4,0,0,1,137.32,317Z"/><path class="cls-5" d="M141.32,357c-1.46,3.16-3.06,6.27-4.69,9.35H200v-9.75H141.48C141.43,356.76,141.38,356.89,141.32,357Z"/><path class="cls-5" d="M176.86,398.15a4.83,4.83,0,0,1-6.31-1.18h-28a5.66,5.66,0,0,1,1.44,6.72c-.16.36-.35.71-.52,1.07a5.35,5.35,0,0,1,3.79,2h27.66a91.74,91.74,0,0,1,3.54-9.58C177.93,397.49,177.39,397.83,176.86,398.15Z"/><path class="cls-5" d="M133.19,397c-.25.5-.51,1-.76,1.51a16.09,16.09,0,0,1,3.22-1.51Z"/><path class="cls-5" d="M185.14,406.56c4.15-2,8.19-4.15,13.19-4.39a4.15,4.15,0,0,1,1.67.29V397H189.08C187.67,400.14,186.24,403.31,185.14,406.56Z"/><path class="cls-1" d="M410.39,297.05S425,358,418.31,399.42H391.43s-5.58-70.87-16.66-95.15Z"/><path class="cls-4" d="M322.35,93s39,2.44,46.3,41.44c0,0-26.23,83-22.17,68.41,0,0-19.3,49.52-28.35,65.77L250,245.33V160.56l17.83-40.95Z"/><path class="cls-4" d="M338.15,173.77l31.49-9c19.74-5.66,10.66-34.52-8.33-29.07l-31.49,9C310.74,150.16,318.51,179.4,338.15,173.77Z"/><path class="cls-4" d="M346.48,202.85l31.49-9c19.74-5.66,10.66-34.52-8.33-29.08l-31.49,9C319.07,179.24,326.84,208.47,346.48,202.85Z"/><path class="cls-4" d="M354.81,231.92l31.49-9C406,217.25,397,188.38,378,193.83l-31.49,9C327.4,208.31,335.17,237.55,354.81,231.92Z"/><path class="cls-4" d="M363.14,261l31.49-9c19.74-5.66,10.66-34.52-8.33-29.08l-31.49,9C335.73,237.39,343.5,266.62,363.14,261Z"/><path class="cls-4" d="M371.47,290.07l31.49-9c19.74-5.65,10.66-34.51-8.33-29.07l-31.49,9C344.06,266.46,351.83,295.7,371.47,290.07Z"/><path class="cls-4" d="M379.8,319.15l31.49-9C431,304.47,422,275.61,403,281.05l-31.49,9C352.39,295.54,360.16,324.77,379.8,319.15Z"/><rect class="cls-4" x="391.43" y="399.42" width="26.88" height="19.49"/><path class="cls-4" d="M250,245.33v30.6h83.7a14.57,14.57,0,0,0,.84-4.87V260a14.63,14.63,0,0,0-14.63-14.62Z"/><path class="cls-4" d="M319.91,285.68a14.62,14.62,0,0,1,14.62,14.62v11.1A14.62,14.62,0,0,1,319.91,326H250V285.68Z"/><path class="cls-4" d="M319.91,326a14.61,14.61,0,0,1,14.62,14.62v11.1a14.61,14.61,0,0,1-14.62,14.62H250V326Z"/><path class="cls-4" d="M319.91,366.37A14.62,14.62,0,0,1,334.53,381v11.1a14.62,14.62,0,0,1-14.62,14.62H250V366.37Z"/><path class="cls-5" d="M250,275.93v9.75h69.91a14.61,14.61,0,0,0,13.79-9.75Z"/><path class="cls-5" d="M250,316.28V326h69.91a14.6,14.6,0,0,0,13.78-9.75Z"/><path class="cls-5" d="M250,356.62v9.75h69.91a14.6,14.6,0,0,0,13.78-9.75Z"/><path class="cls-5" d="M250,397v9.75h69.91A14.6,14.6,0,0,0,333.69,397Z"/><path class="cls-1" d="M174.91,406.72H147.25a6,6,0,0,1,1.34,2.69,15.23,15.23,0,0,1,3.75-1.06,5.86,5.86,0,0,1,5.67,2.43,5.38,5.38,0,0,1,4.49,5.09c.44-.35.87-.69,1.31-1,3.64-2.73,7.41,1.31,7.4,4.89.94-.85,1.89-1.7,2.85-2.51a4,4,0,0,1-.73-2.73A42.41,42.41,0,0,1,174.91,406.72Z"/><path class="cls-1" d="M194.68,425.16c-.51-4-.48-8.06-.72-12.1a36.9,36.9,0,0,0-4.83,2.15,5.71,5.71,0,0,1,2.2,4,18.83,18.83,0,0,1-.94,8.06A44.72,44.72,0,0,1,194.68,425.16Z"/><rect class="cls-1" x="249.99" y="406.72" width="72.66" height="24.37"/><rect class="cls-6" x="180.21" y="123.58" width="6.18" height="75.53"/><rect class="cls-7" x="180.21" y="199.11" width="6.18" height="10.07"/><rect class="cls-6" x="263.62" y="123.58" width="6.17" height="75.53"/><rect class="cls-7" x="263.62" y="199.11" width="6.17" height="10.07"/><path class="cls-1" d="M154.64,79.86c-1.73,2.64-3.48,5.27-5.32,7.83a5.66,5.66,0,0,1-6.23,1.89q-.93,1.24-1.89,2.46a4.15,4.15,0,0,1-2.41,1.57c-.58,1-1.18,1.93-1.77,2.89,16.15,7,48.4,26,62.75,69.88,0,0,13.42-54.89-33.43-87.88-1.58,1.25-3.18,2.47-4.82,3.65C158.8,84.11,155.92,82.34,154.64,79.86Z"/><path class="cls-1" d="M296.21,71l26.37,22s-52.79,13.54-72.35,73.38C250.23,166.38,234.54,102.27,296.21,71Z"/><path class="cls-8" d="M162.5,415.87c.44-.35.87-.69,1.31-1a4,4,0,0,1,5.56.53V413h-7.84A5.44,5.44,0,0,1,162.5,415.87Z"/><path class="cls-8" d="M191.33,419.17a18.83,18.83,0,0,1-.94,8.06c1-.55,2-1.05,3.1-1.54V413.24a37.65,37.65,0,0,0-4.36,2A5.71,5.71,0,0,1,191.33,419.17Z"/><rect class="cls-8" x="256.51" y="413.03" width="9.34" height="18.07"/><rect class="cls-8" x="280.63" y="413.03" width="9.34" height="18.07"/><rect class="cls-8" x="304.75" y="413.03" width="9.34" height="18.07"/><path class="cls-8" d="M200,394.53v7.93a4.77,4.77,0,0,1,3.14,3.38c.62,4.26.58,8.7.86,13.06h46V394.53Z"/><path class="cls-9" d="M223.84,389.28h0c-3.51,25.08-8.15,52.79-13,57.27-36.56-4.74-76.51-9.48-111.72-22.34,1.35-9.48,5.42-18.29,7.45-27.76,1.07-4.82,2.42-11.66,3.95-20,4.35-23.5,10.12-58.82,15-94,6.41-46.64,11.19-93.06,8.85-111.48-13.6,63.88-25,112.26-41.32,166.75l-.36,1.2c-2.23,7.44-4.55,15-7,22.71a7.54,7.54,0,0,1-.08,6c-3,5.08-11.51.68-10.84-5.42-2,5.42-12.19,7.11-10.83-.34-2.37,5.76-12.53,3.05-10.5-3.38-2.7,4.4-10.83,2.71-8.46-3-7.79,6.1-15.91-4.06-6.77-6.77-6.09,1.7-10.49-3.05-3-6.09a9.06,9.06,0,0,1,3.37-.65c.71-2.19,2.6-8,5.3-16.69.16-.51.32-1,.49-1.58C56.11,285.51,82.19,197.26,95,120.86c.79-4.65,1.55-11.15,3.4-16.79a16.13,16.13,0,0,1-3-6c-2-8.35,4.63-11.14,11.1-12.47C89,78,103.4,59.17,117.77,64.94c-14.16-14.17,5.82-27.3,17.8-18.87-3.5-8.33-6.22-13.8,2-17.41,6.79-3.06,16.15-2.36,22,3.29-4.89-24.35,34-36.64,38.18-8.51,0-14.44,15.9-21.23,25.75-14.39A18.35,18.35,0,0,1,225,10.24V0H0V450H225V381.59C224.65,384.16,224.27,386.72,223.84,389.28Z"/><path class="cls-10" d="M38.15,343l.32-1a9.06,9.06,0,0,0-3.37.65c-7.44,3-3,7.79,3,6.09-9.14,2.71-1,12.87,6.77,6.77-2.37,5.76,5.76,7.45,8.46,3-2,6.43,8.13,9.14,10.5,3.38-1.36,7.45,8.8,5.76,10.83.34-.67,6.1,7.79,10.5,10.84,5.42a7.54,7.54,0,0,0,.08-6,2.76,2.76,0,0,1-.08.27C76.74,359.87,42.21,351.07,38.15,343Z"/><path class="cls-11" d="M38.47,342l-.32,1c4.06,8.12,38.59,16.92,47.4,18.95a2.76,2.76,0,0,0,.08-.27c2.44-7.72,4.76-15.27,7-22.71a142.67,142.67,0,0,1-48.85-13.65C41.07,333.94,39.18,339.77,38.47,342Z"/><path class="cls-11" d="M224.66,194.79c-4.76,1.46-10.65,0-9.63-5.21-9.44,3-26.77-3.06-15.75-11.91-5.19.08-12.47,1.14-16-2.77-3.12-3.19-2.9-8.91.08-11.48-4.84-.25-10,1.81-13.71-2.68-2.36-2.89-1.37-8.45.28-10.82-10.22,6-19.81-3.42-14.39-13.24-7.67,4.74-30.19,1.62-23.38-11.43-10,6.12-27.51-3.32-18.93-14.75-5.07,1.48-11.14-1.68-14.8-6.43-1.85,5.64-2.61,12.14-3.4,16.79-12.83,76.4-38.91,164.65-50.76,202.83a136.9,136.9,0,0,0,48.72,14C109.28,283.23,120.7,234.85,134.3,171c2.34,18.42-2.44,64.84-8.85,111.48,11.83,5.22,26.91,8.89,38.64,8.36,0,0-12.19,65-17.61,74.48-7.88,13.3-22.57,14.77-36,11.19-1.53,8.3-2.88,15.14-3.95,20-2,9.47-6.1,18.28-7.45,27.76,35.21,12.86,75.16,17.6,111.72,22.34,4.88-4.48,9.52-32.19,13-57.27.49-5.41.86-10.83,1.16-16.26V265.29c-1.68,2.78-8.95,4.87-17.66,4.87-10,0-18-2.73-18-6.09s8.07-6.1,18-6.1c8.71,0,16,2.09,17.66,4.87V198.26A7.58,7.58,0,0,1,224.66,194.79ZM199.21,398.13c-10,0-18-2.73-18-6.09s8.07-6.1,18-6.1,18,2.73,18,6.1S209.17,398.13,199.21,398.13Zm6.1-75.16c9.95,0,18,2.73,18,6.1s-8.08,6.09-18,6.09-18-2.73-18-6.09S195.35,323,205.31,323Z"/><path class="cls-12" d="M223.84,389.27h0c.43-2.56.81-5.12,1.16-7.69V373C224.7,378.44,224.33,383.86,223.84,389.27Z"/><path class="cls-10" d="M197.77,23.44C193.58-4.69,154.7,7.6,159.59,32c-5.85-5.65-15.21-6.35-22-3.29-8.24,3.61-5.52,9.08-2,17.41-12-8.43-32,4.7-17.8,18.87C103.4,59.17,89,78,106.55,85.64c-6.47,1.33-13.08,4.12-11.1,12.47a16.13,16.13,0,0,0,3,6c3.66,4.75,9.73,7.91,14.8,6.43-8.58,11.43,9,20.87,18.93,14.75-6.81,13.05,15.71,16.17,23.38,11.43-5.42,9.82,4.17,19.2,14.39,13.24-1.65,2.37-2.64,7.93-.28,10.82,3.73,4.49,8.87,2.43,13.71,2.68-3,2.57-3.2,8.29-.08,11.48,3.54,3.91,10.82,2.85,16,2.77-11,8.85,6.31,14.88,15.75,11.91-1,5.25,4.87,6.67,9.63,5.21a7.58,7.58,0,0,0,.34,3.47v-16a9.15,9.15,0,0,0-4.5.41l0-.37c2.85-4.33,5.43-19.38-6.48-16.42,4-9.86,1.05-19.19-12.88-18.57,6.15-8.72-1.82-16.58-11.75-16.54,4.16-9.82,1.63-18.84-12-19.33,7-9.44-2.63-16.72-12.58-17.52,7.07-8,2.49-18.64-8.49-22.67C165.63,72,173.31,71,175.47,60c1.81,6.21,10.76,8.06,16.55,7.63,7.4-.4,10.61-4.28,12.83-12.27.92,11.13,11.59,13.53,20.15,10V10.24a18.35,18.35,0,0,0-1.48-1.19C213.67,2.21,197.75,9,197.77,23.44Z"/><path class="cls-13" d="M204.85,55.32c-2.22,8-5.43,11.87-12.83,12.27-5.79.43-14.74-1.42-16.55-7.63C173.31,71,165.63,72,156.36,71.2c11,4,15.56,14.7,8.49,22.67,10,.8,19.61,8.08,12.58,17.52,13.61.49,16.14,9.51,12,19.33,9.93,0,17.9,7.82,11.75,16.54C215.09,146.64,218,156,214,165.83c11.91-3,9.33,12.09,6.48,16.42l0,.37a9.15,9.15,0,0,1,4.5-.41V65.34C216.44,68.85,205.77,66.45,204.85,55.32Z"/><path class="cls-12" d="M207.34,258c-10,0-18,2.73-18,6.1s8.07,6.09,18,6.09c8.71,0,16-2.09,17.66-4.87v-2.45C223.32,260.06,216.05,258,207.34,258Z"/><path class="cls-12" d="M187.28,329.07c0,3.36,8.07,6.09,18,6.09s18-2.73,18-6.09-8.08-6.1-18-6.1S187.28,325.7,187.28,329.07Z"/><path class="cls-12" d="M217.24,392c0-3.37-8.07-6.1-18-6.1s-18,2.73-18,6.1,8.07,6.09,18,6.09S217.24,395.4,217.24,392Z"/><path class="cls-12" d="M43.77,325.27a142.67,142.67,0,0,0,48.85,13.65l.36-1.2a136.9,136.9,0,0,1-48.72-14C44.09,324.22,43.93,324.76,43.77,325.27Z"/><path class="cls-11" d="M146.48,365.29c5.42-9.48,17.61-74.48,17.61-74.48-11.73.53-26.81-3.14-38.64-8.36-4.84,35.21-10.61,70.53-15,94C123.91,380.06,138.6,378.59,146.48,365.29Z"/></g></svg>