<svg xmlns="http://www.w3.org/2000/svg" xmlns:xlink="http://www.w3.org/1999/xlink" viewBox="0 0 450 450"><defs><style>.a{fill:none;}.b{clip-path:url(#a);}.c{fill:#e3a882;}.d{fill:#ffbf96;}.e{fill:#fcdbca;}.f{fill:#fff;}.g{fill:#466e6e;}.h,.k{opacity:0.1;}.h{isolation:isolate;}.i{fill:#f7b03e;}.j{fill:#787d6e;}.l{fill:#6dc82a;}.m{fill:#61b325;}.n{fill:#d1e7f8;}.o{fill:#cc9774;}.p{fill:#91734b;}.q{fill:#704914;}</style><clipPath id="a"><rect class="a" x="-3.01" y="-3.54" width="456.02" height="456.88"/></clipPath></defs><title>after-2_NEW</title><g class="b"><path class="c" d="M260.71,108.9s-6.59-.61-10.38-5.73c0,0-5.37-1.59-14.65-11l6.47-8.67,20.88,14Z"/><path class="c" d="M265.47,65.56s7.7,5.5,12.58,17.34l16.48,32.35s2.69,3.67-1.71,16.12L284,150.54a10.56,10.56,0,0,1-2.56,4.27,77.23,77.23,0,0,1-7.82,6c-2.8,1.84-6.83,5.13-6.83,5.13s-5,1-3.79-7.81S284.28,119,284.28,119Z"/><path class="d" d="M260.71,163.24s-10.38-10.14,4.52-23.93c0,0-1.71-9,4.15-20.15,0,0-6.59-3.3-10.13-14.28,0,0-7.33-6-18.07-16.36,0,0-19.05,12.69-24.06,10.74,0,0-4.51,16.24-4.76,23.32s-1.22,33.09-17.09,31.13c0,0-6.47-.36-3.17-15.75a164.18,164.18,0,0,1,.12-41,81.09,81.09,0,0,0-5.13-15.75c-3.42-7.33-5.25-19.54-3.66-29.67L175.12,11.6s27.48-4.52,44,6.22c0,0,2.32,15.63,11.6,22.47s31.13,21.24,31.13,21.24,9.28,7.33,16,27,9.4,28.44,9.64,32.47S277,147.12,277,147.12,262.79,165.43,260.71,163.24Z"/><path class="e" d="M200.89,138.09c1,2.8-1.22,12.69-4,14-7,3.54-6-8.43-4.89-12.58C192,139.55,191.61,136.5,200.89,138.09Z"/><polygon class="f" points="169.87 30.28 225.06 23.32 212.36 -65.69 144.84 -73.14 169.87 30.28"/><polygon class="g" points="229.82 14.77 157.54 24.17 128.48 -80.34 214.68 -77.53 229.82 14.77"/><polygon class="h" points="184.04 20.75 157.54 -79.36 128.48 -80.34 157.54 24.17 184.04 20.75"/><path class="i" d="M170.48.61a5.52,5.52,0,1,0-3.78,6.83A5.56,5.56,0,0,0,170.48.61Z"/><path class="j" d="M202.72,169c41.75,55.43,8.91,37.23-18.44,81.68-15.75,26.25-18.92,64.71-1.71,89.74,17.71,25.76,45.06,22.46,69.84,21.12,15-.73,25.76-10.62,35.41-25.15,8.91-13.31,10.38-35.53,7.32-50.06-4.51-22.83-14.4-43.59-30.64-57.63-17.71-15.14-38.83-24.3-4.52-59.09-9.65-2.93-19.78,3.54-28,1.71-5.62-.62-6.1-3.55-12.21-2.94-4.88,1.23-11.48,1.23-17.09.62"/><g class="k"><path d="M294.17,285.45c-4.52-22.46-14-43-29.79-56.89,9.15,12.57,15.14,28,18.43,44.32,3.05,14.65,1.47,36.75-7.32,50.06-9.65,14.53-20.39,24.42-35.41,25.15-20.27,1-42.25,3.42-59.22-9.77.25.49.61.86.86,1.34,17.7,25.77,45.05,22.47,69.84,21.13,15-.74,25.76-10.63,35.4-25.16C295.63,322.2,297.22,300,294.17,285.45Z"/></g><path class="l" d="M231.78,336.24a2.5,2.5,0,0,1-1.59-.48l-38.7-27.6a2.71,2.71,0,0,1-1-3.05,2.89,2.89,0,0,1,2.68-1.95h8.31V254.32a2.84,2.84,0,0,1,2.8-2.81h55.19a2.84,2.84,0,0,1,2.81,2.81v48.84h8.3a2.75,2.75,0,0,1,2.69,1.95,2.67,2.67,0,0,1-1,3.05l-38.7,27.6A3.79,3.79,0,0,1,231.78,336.24Z"/><path class="m" d="M270.48,303.16h-8.3V254.32a2.84,2.84,0,0,0-2.81-2.81H231.78v84.73h0a2.45,2.45,0,0,0,1.58-.48l38.71-27.6a2.72,2.72,0,0,0,1-3.05A2.59,2.59,0,0,0,270.48,303.16Z"/><path class="f" d="M220.79,277.4a8.31,8.31,0,0,1-8.3-8.31,8.3,8.3,0,0,1,16.6,0A8.31,8.31,0,0,1,220.79,277.4Zm0-11.12a2.84,2.84,0,0,0-2.81,2.81,2.81,2.81,0,1,0,5.62,0A2.85,2.85,0,0,0,220.79,266.28Z"/><path class="n" d="M242.89,299.49a8.3,8.3,0,1,1,0-16.6,8.3,8.3,0,0,1,0,16.6Zm0-11.11a2.84,2.84,0,0,0-2.81,2.81,2.81,2.81,0,0,0,5.62,0A2.84,2.84,0,0,0,242.89,288.38Z"/><path class="f" d="M220.06,294.61a2.43,2.43,0,0,1-2-.85,2.73,2.73,0,0,1,0-3.91l23.44-23.32a2.76,2.76,0,0,1,3.91,3.91L222,293.88A2.76,2.76,0,0,1,220.06,294.61Z"/><path class="n" d="M241.54,266.53l-9.76,9.77v7.81l13.67-13.67a2.76,2.76,0,0,0-3.91-3.91Z"/><path class="h" d="M217.12,169.83s9.89,16.48,10.51,34.06c0,0,3.17-18.68,0-33.08C227.63,170.81,223.6,165.07,217.12,169.83Z"/><path class="h" d="M238.13,171.42a90.11,90.11,0,0,0-4.28,30.4s3.05-21.25,12.33-31.87C246.18,169.83,239,171.3,238.13,171.42Z"/><path class="o" d="M157.3,350.9l-4.64,5,90.84,32L255,374.46C255,374.58,176.47,339.54,157.3,350.9Z"/><path class="c" d="M153.76,345.77l-5,3.78,90,35.78,11.84-13.07C250.58,372.38,169.14,337.47,153.76,345.77Z"/><path class="d" d="M406.74,339.17s-62.39-3.9-71.67-5.12-42-15.75-68.37,12L242,349.06s-26.49-7.69-33.7,3.91c0,0-39.19-19.17-52.74-6.23,0,0,70.45,31.38,78.26,38.59,0,0,13.07,12.57,19.54,10.74s64.83-20.27,88.76-20.39l71.18,6Z"/><path class="c" d="M208.21,353s-8.67,17.71,59.58,15l18.32-5.37L269,370.92S200.15,375.68,208.21,353Z"/><path class="e" d="M226.4,353.09s1.47,6-2.68,9.65c0,0-13.07-1.1-12.82-6.11C211.39,348.58,226.4,353.09,226.4,353.09Z"/><polygon class="f" points="345.2 329.9 348.13 387.52 449.96 390.82 448.37 322.45 345.2 329.9"/><polygon class="p" points="356.07 322.94 355.46 395.95 460.7 402.66 459.36 314.63 356.07 322.94"/><polygon class="h" points="460.34 379.22 355.58 376.9 355.46 395.95 460.7 402.66 460.34 379.22"/><path class="q" d="M381.22,385.57a5.44,5.44,0,1,1-6.23-4.52A5.36,5.36,0,0,1,381.22,385.57Z"/><path class="q" d="M399.53,386.67a5.44,5.44,0,1,1-6.22-4.52A5.48,5.48,0,0,1,399.53,386.67Z"/></g></svg>