<?xml version="1.0"?>
<svg xmlns="http://www.w3.org/2000/svg" height="512px" viewBox="0 0 512 512" width="512px"><path d="m486.398438 435.199219h-34.132813v-34.132813c0-14.136718-11.460937-25.601562-25.597656-25.601562h-42.667969v-34.132813c0-14.136719-11.460938-25.597656-25.601562-25.597656h-29.863282l-17.921875-23.960937c-4.835937-6.402344-12.390625-10.167969-20.410156-10.171876h-25.667969v-122.421874l113.492188-49.664063c6.230468-2.707031 10.257812-8.855469 10.257812-15.648437 0-6.792969-4.027344-12.941407-10.257812-15.652344l-113.492188-49.664063v-20.015625c0-4.714844-3.824218-8.535156-8.535156-8.535156s-8.535156 3.820312-8.535156 8.535156v273.066406h-25.667969c-8.023437.003907-15.578125 3.773438-20.410156 10.179688l-17.921875 23.953125h-29.863282c-14.140624 0-25.601562 11.460937-25.601562 25.597656v34.132813h-42.667969c-14.136719 0-25.597656 11.464844-25.597656 25.601562v34.132813h-34.132813c-14.140624 0-25.601562 11.460937-25.601562 25.601562v42.664063c0 4.714844 3.820312 8.535156 8.535156 8.535156h494.929688c4.714844 0 8.535156-3.820312 8.535156-8.535156v-42.664063c0-14.140625-11.460938-25.601562-25.601562-25.601562zm-115.199219-341.332031-106.664063 46.683593v-93.371093zm64 307.199218v34.132813h-110.933594v-42.664063h102.402344c4.710937 0 8.53125 3.820313 8.53125 8.53125zm-179.199219 34.132813h-51.199219v-42.664063h102.398438v42.664063zm110.933594-93.867188v34.132813h-102.398438v-42.664063h93.863282c4.714843 0 8.535156 3.820313 8.535156 8.53125zm-151.894532-39.304687c1.601563-2.117188 4.105469-3.363282 6.757813-3.359375h68.40625c2.636719.003906 5.125 1.246093 6.714844 3.351562l10.28125 13.714844h-102.398438zm-69.972656 39.304687c0-4.710937 3.820313-8.53125 8.535156-8.53125h93.863282v42.664063h-102.398438zm-68.265625 59.734375c0-4.710937 3.820313-8.53125 8.53125-8.53125h102.402344v42.664063h-110.933594zm-59.734375 59.734375c0-4.714843 3.820313-8.535156 8.535156-8.535156h102.398438v42.667969h-110.933594zm128-8.535156h102.398438v42.667969h-102.398438zm119.46875 0h102.398438v42.667969h-102.398438zm230.398438 42.667969h-110.933594v-42.667969h102.398438c4.714843 0 8.535156 3.820313 8.535156 8.535156zm0 0" fill="#FFFFFF"/><path d="m503.464844 59.734375c0-4.714844-3.820313-8.535156-8.53125-8.535156h-93.867188c-4.710937 0-8.53125 3.820312-8.53125 8.535156 0 4.710937 3.820313 8.53125 8.53125 8.53125h93.867188c4.710937 0 8.53125-3.820313 8.53125-8.53125zm0 0" fill="#FFFFFF"/><path d="m503.464844 85.332031h-68.265625c-4.710938 0-8.53125 3.820313-8.53125 8.535157 0 4.710937 3.820312 8.53125 8.53125 8.53125h68.265625c4.714844 0 8.535156-3.820313 8.535156-8.53125 0-4.714844-3.820312-8.535157-8.535156-8.535157zm0 0" fill="#FFFFFF"/><path d="m375.464844 145.066406c0 4.714844 3.824218 8.535156 8.535156 8.535156h93.867188c4.710937 0 8.53125-3.820312 8.53125-8.535156 0-4.710937-3.820313-8.53125-8.53125-8.53125h-93.867188c-4.710938 0-8.535156 3.820313-8.535156 8.53125zm0 0" fill="#FFFFFF"/></svg>
