<?xml version="1.0" encoding="utf-8"?>
<!-- Generator: Adobe Illustrator 22.1.0, SVG Export Plug-In . SVG Version: 6.00 Build 0)  -->
<svg version="1.1" id="Layer_1" xmlns="http://www.w3.org/2000/svg" xmlns:xlink="http://www.w3.org/1999/xlink" x="0px" y="0px"
	 viewBox="0 0 1024 1024" style="enable-background:new 0 0 1024 1024;" xml:space="preserve">
<style type="text/css">
	.st0{fill:#FFFFFF;}
</style>
<g id="Background">
	<path class="st0" d="M983.8,312.7C958,251.8,921.1,197,874.1,150C827,103,772.3,66,711.3,40.3C648.2,13.5,581.1,0,512,0
		c-69.1,0-136.2,13.5-199.3,40.2C251.7,66,197,102.9,150,150S66,251.7,40.3,312.7C13.5,375.8,0,442.9,0,512
		c0,69.1,13.5,136.2,40.2,199.3C66,772.2,102.9,827,149.9,874c47,47,101.8,83.9,162.7,109.7c63.1,26.7,130.2,40.3,199.3,40.3h0
		c69.1,0,136.2-13.5,199.3-40.2C772.3,958,827,921.1,874,874c47-47,83.9-101.8,109.7-162.7c26.7-63.1,40.3-130.2,40.3-199.3
		C1024,442.9,1010.5,375.9,983.8,312.7z M512,976.3L512,976.3c-124.1,0-240.7-48.3-328.4-136C96,752.6,47.7,636,47.7,512
		C47.7,256,256,47.7,512,47.7c124,0,240.6,48.3,328.3,136c87.7,87.7,136,204.3,136,328.3C976.3,768,768,976.3,512,976.3z"/>
</g>
<g id="Facebook">
	<path id="Facebook_1_" class="st0" d="M672.8,305.6V203.9c-3.7,0-7.5,0-11.2,0c-9,0-18,0-27,0c-11,0-21.9,0-32.9,0
		c-9.7,0-19.3-0.1-29,0c-14.6,0.2-28.4,0.9-42.4,5.4c-13.5,4.3-26.2,12-36.9,21.1c-6.2,5.3-12,10.9-17.3,17.2
		c-2.1,2.6-4.1,5.3-5.9,8.1c-5.5,8.4-9.9,17.7-13.6,27.5c-0.8,2.2-1.6,4.4-2.4,6.7c-5.6,16.3-5.8,34.1-5.8,51.3c0,2.1,0,4.4,0,6.6
		c0,34,0,79.3,0,79.3h-97v112h93.5h2.5v281h111V536.6L659,538l13.6-110.1l-113.8-0.2v-85c0,0-0.3-36.3,30.5-36.8L672.8,305.6z"/>
</g>
</svg>
