<?xml version="1.0" encoding="utf-8"?>
<!-- Generator: Adobe Illustrator 22.1.0, SVG Export Plug-In . SVG Version: 6.00 Build 0)  -->
<svg version="1.1" id="Layer_1" xmlns="http://www.w3.org/2000/svg" xmlns:xlink="http://www.w3.org/1999/xlink" x="0px" y="0px"
	 viewBox="0 0 1024 1024" style="enable-background:new 0 0 1024 1024;" xml:space="preserve">
<style type="text/css">
	.st0{fill:#FFFFFF;}
</style>
<g id="Background">
	<path class="st0" d="M983.8,312.7C958,251.8,921.1,197,874.1,150C827,103,772.3,66,711.3,40.3C648.2,13.5,581.1,0,512,0
		c-69.1,0-136.2,13.5-199.3,40.2C251.7,66,197,102.9,150,150S66,251.7,40.3,312.7C13.5,375.8,0,442.9,0,512
		c0,69.1,13.5,136.2,40.2,199.3C66,772.2,102.9,827,149.9,874c47,47,101.8,83.9,162.7,109.7c63.1,26.7,130.2,40.3,199.3,40.3h0
		c69.1,0,136.2-13.5,199.3-40.2C772.3,958,827,921.1,874,874c47-47,83.9-101.8,109.7-162.7c26.7-63.1,40.3-130.2,40.3-199.3
		C1024,442.9,1010.5,375.9,983.8,312.7z M512,976.3L512,976.3c-124.1,0-240.7-48.3-328.4-136C96,752.6,47.7,636,47.7,512
		C47.7,256,256,47.7,512,47.7c124,0,240.6,48.3,328.3,136c87.7,87.7,136,204.3,136,328.3C976.3,768,768,976.3,512,976.3z"/>
</g>
<g id="Instagram">
	<circle class="st0" cx="658.8" cy="364.6" r="33.1"/>
	<path class="st0" d="M512,655.9c-79.4,0-143.9-64.6-143.9-143.9c0-79.4,64.6-143.9,143.9-143.9S655.9,432.6,655.9,512
		C655.9,591.4,591.4,655.9,512,655.9z M512,413.1c-54.5,0-98.9,44.4-98.9,98.9s44.4,98.9,98.9,98.9c54.5,0,98.9-44.4,98.9-98.9
		S566.5,413.1,512,413.1z"/>
	<path class="st0" d="M603.6,800H420.4c-103.4,0-187.5-84.1-187.5-187.5v-201C232.9,308.1,317,224,420.4,224h183.3
		c103.4,0,187.5,84.1,187.5,187.5v201C791.1,715.9,707,800,603.6,800z M420.4,269c-78.6,0-142.5,63.9-142.5,142.5v201
		c0,78.6,63.9,142.5,142.5,142.5h183.3c78.6,0,142.5-63.9,142.5-142.5v-201c0-78.6-63.9-142.5-142.5-142.5H420.4z"/>
</g>
</svg>
