<?xml version="1.0" encoding="utf-8"?>
<!-- Generator: Adobe Illustrator 22.1.0, SVG Export Plug-In . SVG Version: 6.00 Build 0)  -->
<svg version="1.1" id="Layer_1" xmlns="http://www.w3.org/2000/svg" xmlns:xlink="http://www.w3.org/1999/xlink" x="0px" y="0px"
	 viewBox="0 0 1024 1024" style="enable-background:new 0 0 1024 1024;" xml:space="preserve">
<style type="text/css">
	.st0{fill:#FFFFFF;}
</style>
<g id="Background">
	<path class="st0" d="M983.8,312.7C958,251.8,921.1,197,874.1,150C827,103,772.3,66,711.3,40.3C648.2,13.5,581.1,0,512,0
		c-69.1,0-136.2,13.5-199.3,40.2C251.7,66,197,102.9,150,150S66,251.7,40.3,312.7C13.5,375.8,0,442.9,0,512
		c0,69.1,13.5,136.2,40.2,199.3C66,772.2,102.9,827,149.9,874c47,47,101.8,83.9,162.7,109.7c63.1,26.7,130.2,40.3,199.3,40.3h0
		c69.1,0,136.2-13.5,199.3-40.2C772.3,958,827,921.1,874,874c47-47,83.9-101.8,109.7-162.7c26.7-63.1,40.3-130.2,40.3-199.3
		C1024,442.9,1010.5,375.9,983.8,312.7z M512,976.3L512,976.3c-124.1,0-240.7-48.3-328.4-136C96,752.6,47.7,636,47.7,512
		C47.7,256,256,47.7,512,47.7c124,0,240.6,48.3,328.3,136c87.7,87.7,136,204.3,136,328.3C976.3,768,768,976.3,512,976.3z"/>
</g>
<g id="VK">
	<path id="Vk" class="st0" d="M154.5,399.3c7.7,20.1,17.2,39.5,27,58.6c23.3,45.5,47.2,89.7,79.4,129.6
		c32.5,40.4,70.8,79.5,116,105.7c12.6,7.3,25.8,13.4,39.5,18.1c53.1,18,111.3,16.3,129.3,4.3c18-12-3.4-90.8,12.8-100.2
		c16.3-9.4,45.4,11.1,66.8,30c21.4,18.8,37.7,35.1,49.7,47.9c7.5,8,12.8,17.6,22.6,23.4c16.2,9.5,37.8,8.4,55.8,8.5
		c10.1,0,20.1,0.1,30.2-0.1c6.8-0.1,13.6,0.1,20.4-0.2c11.2-0.5,25.8-5,24.9-18.9c-0.2-3.3-0.9-7.3-2.2-10.3
		c-2.8-6.6-6.8-13.4-11.1-19.1c-22.3-29.8-37-44.9-48.2-56.9c-11.1-12-56.9-55.2-59.9-63.8c-3-8.6-4-12.4,4.5-23.9
		c8.5-11.6,27.1-40.7,41.7-61.7c9.1-13.2,17.4-26.9,25.6-40.7c9.7-16.2,18.7-32.8,26.5-50c3.5-7.7,6.6-14.7,4.5-23.3
		c-1.4-5.8-4.7-10.9-10.7-12.3c-3.3-0.8-6.9-0.9-10.3-0.9c-12.6,0-45.6,0-45.6,0c-6,0-11.9-0.1-17.9-0.1c-6.1,0-12.3,0-18.4,0.5
		c-8.7,0.7-14,7.4-18.3,14.2c-5.3,8.2-10.2,16.8-15.4,25.2c-3.5,5.7-7,11.5-10.4,17.2c-5.3,9-10.8,18-16.3,26.9
		c-2.3,3.7-4.5,7.4-6.8,11.1c-6.4,10.7-62.1,83.9-73.2,86.9s-15,2.1-15-20.5c0-22.7,0-151.5,0-151.5s-0.9-9.9-10.3-9.9
		s-53.1,0-53.1,0h-90.1c0,0-21.2,0.1-13.7,19.1c7.5,19,29.6,24.8,29.6,56.6c0,31.8,0,124.6,0,124.6s-3.7,27.9-27.9,4.8
		c-19.1-18.2-34.8-39.8-48.6-62.1c-14.4-23.2-26-47.3-36.4-72.6c-3-7.2-5.9-14.5-8.9-21.7c-3.2-7.5-6.3-15-9.4-22.6
		c-3.5-8.8-7.3-20.3-16.8-24.3c-4.8-2-10.1-1.9-15.2-1.9c-18.9,0-37.9,0.1-56.8,0c-5.6,0-11.1,0-16.7,0c-13.1,0-29.4-0.4-32.6,16
		c-1.8,9.4,1.8,19.5,4.8,28.4C151.3,391.5,153,395.4,154.5,399.3z"/>
</g>
</svg>
