<?xml version="1.0" encoding="utf-8"?>
<!-- Generator: Adobe Illustrator 22.1.0, SVG Export Plug-In . SVG Version: 6.00 Build 0)  -->
<svg version="1.1" id="Layer_1" xmlns="http://www.w3.org/2000/svg" xmlns:xlink="http://www.w3.org/1999/xlink" x="0px" y="0px"
	 viewBox="0 0 1024 1024" style="enable-background:new 0 0 1024 1024;" xml:space="preserve">
<style type="text/css">
	.st0{fill:#FFFFFF;}
</style>
<g id="Background">
	<path class="st0" d="M983.8,312.7C958,251.8,921.1,197,874.1,150C827,103,772.3,66,711.3,40.3C648.2,13.5,581.1,0,512,0
		c-69.1,0-136.2,13.5-199.3,40.2C251.7,66,197,102.9,150,150S66,251.7,40.3,312.7C13.5,375.8,0,442.9,0,512
		c0,69.1,13.5,136.2,40.2,199.3C66,772.2,102.9,827,149.9,874c47,47,101.8,83.9,162.7,109.7c63.1,26.7,130.2,40.3,199.3,40.3h0
		c69.1,0,136.2-13.5,199.3-40.2C772.3,958,827,921.1,874,874c47-47,83.9-101.8,109.7-162.7c26.7-63.1,40.3-130.2,40.3-199.3
		C1024,442.9,1010.5,375.9,983.8,312.7z M512,976.3L512,976.3c-124.1,0-240.7-48.3-328.4-136C96,752.6,47.7,636,47.7,512
		C47.7,256,256,47.7,512,47.7c124,0,240.6,48.3,328.3,136c87.7,87.7,136,204.3,136,328.3C976.3,768,768,976.3,512,976.3z"/>
</g>
<g id="Youtube">
	<path class="st0" d="M625.9,299.8c-58-1.7-116.1-2.1-174.1-1.2c-164.3,3.1-233.2,0.6-241.5,127c-1.8,53.5-1.9,106.8-0.4,160.3
		c8.2,137.8,52.4,135.3,241.9,139.6c52.9,0.8,105.9,0.6,158.8-0.8c133.3-3.7,195.3-0.4,203.5-138.9c1.5-53.4,1.4-106.7-0.4-160.2
		C805.5,298.7,734,302.9,625.9,299.8z M450.4,590.8c-0.3-57.3-0.3-114.6,0.1-171.9c53.3,28.3,107.2,57.4,160.9,86
		C557.7,533.4,503.8,562.5,450.4,590.8z"/>
</g>
</svg>
